<svg width="1164" height="1264" xmlns="http://www.w3.org/2000/svg" xmlns:xlink="http://www.w3.org/1999/xlink" xml:space="preserve" overflow="hidden"><defs><clipPath id="clip0"><rect x="1040" y="759" width="1164" height="1264"/></clipPath></defs><g clip-path="url(#clip0)" transform="translate(-1040 -759)"><path d="M1833.75 2021.14C1817.07 2017.51 1813.65 2015.33 1810.68 2006.39 1808.72 2000.48 1808.37 1996.63 1809.07 1988.31 1809.91 1978.23 1809.75 1977.35 1805.64 1969.86 1803.27 1965.54 1800.73 1961.63 1800.01 1961.18 1799.28 1960.74 1798.02 1962.31 1797.19 1964.66 1795.96 1968.2 1795.06 1968.88 1792.08 1968.54 1786.83 1967.93 1785.21 1961.63 1785.11 1941.37 1785.07 1931.95 1784.11 1918.96 1782.98 1912.5 1781.85 1906.05 1779.71 1891.24 1778.22 1879.58 1775.46 1857.93 1771.13 1843.61 1762.51 1827.53 1760.69 1824.12 1756.02 1810.54 1752.14 1797.34 1748.27 1784.14 1743.93 1769.47 1742.5 1764.74 1740.08 1756.67 1736.16 1749.15 1718.23 1718.19 1710.59 1704.98 1707.71 1703.22 1705.97 1710.74 1705.51 1712.73 1704.32 1715.67 1703.32 1717.27 1702.33 1718.87 1698.61 1727.81 1695.07 1737.16 1691.52 1746.5 1683.82 1763.75 1677.96 1775.48L1667.29 1796.83 1662.93 1821.44C1660.53 1834.97 1657.41 1850.69 1656 1856.36 1653.74 1865.39 1653.46 1871.45 1653.71 1904.76L1654.01 1942.83 1662.66 1951.36C1675.98 1964.49 1688.99 1979.13 1688.99 1980.99 1688.99 1981.91 1687.18 1983.3 1684.96 1984.06 1682.02 1985.09 1680.68 1986.65 1680.01 1989.83 1678.3 1997.86 1676.18 1998.99 1662.76 1998.99 1649.38 1998.99 1625.75 1994.92 1619.08 1991.47 1613.41 1988.54 1612.15 1984.71 1612.19 1970.43 1612.21 1961.55 1612.91 1957 1614.93 1952.53 1618.05 1945.67 1618.28 1941.57 1616.07 1931.99 1614.96 1927.22 1613.93 1925.38 1612.64 1925.86 1611.62 1926.26 1610.79 1927.4 1610.79 1928.39 1610.79 1929.4 1610.12 1931.96 1609.31 1934.08 1607.89 1937.8 1607.77 1937.84 1605.88 1935.28 1604.6 1933.54 1603.92 1929.09 1603.92 1922.48 1603.92 1914.21 1604.69 1910.62 1608.02 1903.01 1612.16 1893.6 1617.99 1866.24 1620.47 1844.67 1621.16 1838.63 1622.96 1825.23 1624.47 1814.87 1625.98 1804.53 1627.57 1787.23 1628.02 1776.46 1628.47 1765.69 1629.7 1752.57 1630.74 1747.29 1631.79 1742.01 1633.33 1732.75 1634.15 1726.7 1636.91 1706.51 1644.96 1659.74 1649.73 1636.18 1654.88 1610.72 1654.82 1610.25 1646.46 1611.47 1643.82 1611.86 1630.24 1613.09 1616.27 1614.2 1602.31 1615.33 1585.64 1616.85 1579.23 1617.61 1556.58 1620.25 1525.91 1621.37 1483.18 1621.14 1445.98 1620.93 1437.57 1620.5 1422.81 1617.96 1413.38 1616.35 1399.18 1614.01 1391.25 1612.77 1383.33 1611.53 1373.47 1609.35 1369.35 1607.91 1365.22 1606.48 1361.1 1605.31 1360.19 1605.31 1359.27 1605.31 1354.41 1613.4 1349.38 1623.29 1343.42 1635.02 1337.77 1643.96 1333.16 1649.03 1329.26 1653.3 1322.07 1661.61 1317.16 1667.51 1311.59 1674.21 1302.58 1682.53 1293.15 1689.7 1284.85 1695.99 1271.57 1706.2 1263.65 1712.36 1255.73 1718.52 1242.67 1728.14 1234.63 1733.7 1218.58 1744.83 1217.66 1746.18 1216.21 1760.79 1215.22 1770.77 1217.52 1778.79 1224.9 1791.02 1233.85 1805.86 1299.27 1890.72 1307.37 1898.02 1308.95 1899.44 1310.62 1902.83 1311.07 1905.55 1313.31 1919.17 1320.94 1926.58 1344.96 1938.47 1361.77 1946.8 1370.82 1952.99 1373.48 1957.96 1374.63 1960.1 1374.22 1961.24 1371.32 1963.93 1368.3 1966.73 1367.97 1967.69 1369.27 1970.12 1371.21 1973.75 1370.48 1974.86 1363.4 1978.99 1356.36 1983.08 1353.61 1983.45 1340.49 1981.97 1312.91 1978.87 1301.22 1971.14 1296.71 1953.03 1294.98 1946.08 1289.98 1936.54 1288.72 1937.8 1288.34 1938.18 1287.62 1940.54 1287.11 1943.02 1286.02 1948.35 1281.87 1949.7 1278.39 1945.85 1276.29 1943.54 1271.88 1929.53 1271.88 1925.17 1271.88 1920.05 1259.05 1897.13 1240.79 1869.63 1222.14 1841.56 1198.36 1810.77 1162.22 1767.9 1150.09 1753.52 1148.88 1751.12 1149.75 1743.19 1149.91 1741.68 1151.93 1738.1 1154.22 1735.2 1159.2 1728.91 1173.28 1698.11 1171.48 1697.43 1170.79 1697.16 1156.21 1703.94 1139.07 1712.48 1121.94 1721.03 1107.04 1728.15 1105.97 1728.31 1104.89 1728.46 1101.63 1730.97 1098.71 1733.9L1093.41 1739.2 1091.84 1760.38C1089.74 1788.83 1089.75 1802.4 1091.92 1846.05 1092.93 1866.41 1093.98 1894.7 1094.26 1908.9 1094.74 1933.13 1094.99 1935.18 1098.29 1942.41 1103.98 1954.82 1110.43 1961.59 1121.49 1966.76 1127.58 1969.59 1134.46 1974.35 1139.82 1979.41 1150.14 1989.16 1150.89 1992.83 1143.67 1998.33 1140.81 2000.51 1138.78 2003.36 1138.53 2005.54 1137.99 2010.09 1134.93 2011.01 1119.67 2011.19 1103.04 2011.39 1078.42 2004.63 1078.42 1999.87 1078.42 1998.8 1077.2 1995.23 1075.7 1991.94 1074.21 1988.64 1072.98 1983.27 1072.96 1980.01 1072.92 1972.52 1068.71 1956.45 1066.81 1956.51 1066.03 1956.54 1064.14 1958.55 1062.61 1960.98 1059.05 1966.64 1056.61 1966.54 1053.11 1960.58 1049.47 1954.39 1049.62 1940.99 1053.74 1905.13 1057.22 1874.78 1057.47 1867.72 1055.94 1841.94 1055.32 1831.37 1054.87 1819.95 1054.94 1816.55 1055.01 1813.16 1054.46 1804.38 1053.73 1797.05 1052.99 1789.72 1051.39 1761.26 1050.18 1733.84L1047.98 1683.97 1053.03 1676.05C1056.99 1669.88 1059.49 1667.55 1064.48 1665.41 1100.76 1649.83 1117.86 1638.62 1123.67 1626.63 1125.29 1623.29 1127.75 1619.12 1129.14 1617.35 1132.89 1612.58 1139.82 1588.23 1140.64 1576.94 1141.3 1567.85 1140.72 1564.91 1133.2 1539.22 1128.71 1523.9 1123.16 1502.1 1120.87 1490.79 1118.58 1479.47 1115.81 1467.16 1114.72 1463.45 1113.62 1459.73 1112.71 1451.7 1112.7 1445.61 1112.67 1428.77 1110.06 1427.01 1103.7 1439.54 1099.76 1447.32 1091 1459.92 1089.54 1459.92 1089.01 1459.92 1087.89 1459.24 1087.06 1458.41 1085.54 1456.89 1083.87 1459.29 1075.5 1475 1072.85 1479.98 1070.21 1482.32 1061.94 1487.02 1056.29 1490.22 1049.04 1495.03 1045.83 1497.71L1040 1502.58 1040 1490.44C1040 1483.77 1040.63 1477.67 1041.4 1476.91 1042.18 1476.13 1043.4 1468.79 1044.12 1460.57 1044.84 1452.36 1046.4 1438.52 1047.58 1429.81 1052.06 1396.73 1051.29 1399.11 1062.26 1384.72 1067.75 1377.52 1081.08 1362.52 1091.87 1351.39 1111.19 1331.49 1111.7 1331.09 1123.43 1326.4 1151.34 1315.28 1158.72 1311.68 1172.87 1302.33 1181.3 1296.76 1195.43 1289.15 1205.34 1284.85 1225.49 1276.1 1221.55 1276.5 1279.54 1277.26 1297.72 1277.5 1321.18 1277.04 1331.68 1276.23 1405.03 1270.61 1464.31 1268.93 1526.41 1270.73 1551.31 1271.45 1576.94 1272.62 1583.35 1273.33 1620.48 1277.46 1631.81 1276.82 1668.32 1268.56 1693.46 1262.87 1709.85 1262.33 1733.59 1266.38 1745.06 1268.34 1754.61 1268.9 1773.38 1268.72 1797.37 1268.49 1798.46 1268.35 1811.39 1263.98 1818.71 1261.51 1826.2 1258.3 1828.03 1256.86 1833.07 1252.9 1836.19 1245.01 1843.95 1216.67 1847.84 1202.45 1853.47 1184.69 1856.46 1177.21 1862.26 1162.64 1862.82 1158.88 1860.24 1151.76 1858.17 1146.02 1851.13 1143.57 1834.11 1142.65 1817.81 1141.77 1811.6 1138.56 1800.44 1125.24 1780.79 1101.8 1778.31 1094.67 1771.78 1042.72 1771.34 1039.2 1771.39 1034.11 1771.9 1031.4 1772.71 1027.06 1773.31 1026.48 1776.89 1026.48 1779.37 1026.48 1781.89 1027.61 1783.35 1029.39 1788.12 1035.23 1802.01 1042.87 1816.76 1047.79 1833.33 1053.31 1839.64 1057.37 1852.97 1071.1 1857.49 1075.77 1863.67 1080.82 1866.69 1082.33 1872.82 1085.39 1883.31 1087.42 1884.35 1085.74 1885.62 1083.69 1878.98 1066.94 1873.97 1059.58 1868.56 1051.62 1837.23 1021.35 1817.29 1004.81 1810.5 999.175 1796.71 988.687 1786.65 981.501 1776.58 974.316 1762.56 963.132 1755.49 956.648 1748.42 950.166 1734.25 937.22 1724.02 927.879 1706.05 911.481 1690.22 894.023 1684.98 884.823 1681.61 878.912 1673.11 852.692 1670.51 840.182 1668.36 829.876 1667.96 815.826 1669.64 809.752 1670.71 805.872 1676.64 804.301 1678.96 807.281 1680.39 809.113 1683.79 822.435 1686.25 835.815 1687.01 839.963 1691.07 850.273 1695.26 858.726 1701.24 870.789 1704.26 875.247 1709.32 879.465 1723.66 891.43 1731.54 895.008 1731.54 889.549 1731.54 888.172 1730 882.541 1728.13 877.035 1723.3 862.843 1719.19 839.758 1719.2 826.899 1719.21 812.873 1722.67 786.053 1725.4 778.715 1726.57 775.602 1728.75 771.938 1730.26 770.576 1732.7 768.364 1733.22 768.321 1735.07 770.18 1736.8 771.9 1737.23 778.041 1737.57 805.751 1737.99 839.439 1739.27 849.53 1743.13 849.53 1744.29 849.53 1745.01 847.874 1745.05 845.072 1745.08 842.62 1745.76 838.459 1746.56 835.822 1747.35 833.187 1748 828.801 1748 826.076 1748 820.139 1758.05 796.54 1765.09 785.936 1767.82 781.824 1774.66 774.083 1780.3 768.731 1790.19 759.337 1790.78 759 1797.4 759L1804.26 759 1804.26 763.713C1804.26 770.523 1802.74 773.66 1793.57 785.83 1777.04 807.777 1768.3 827.438 1766.47 846.788 1763.87 874.319 1765.97 876.072 1794.27 869.945 1810.93 866.335 1826.79 858.429 1836.8 848.734 1842.9 842.827 1845.41 841.386 1852.12 839.964 1866.44 836.925 1868.96 841.086 1861.03 854.701 1853.26 868.048 1823.05 885.41 1795.8 892.191 1781.47 895.755 1778.15 897.52 1772.62 904.495 1768.92 909.168 1768.15 911.308 1768.22 916.712 1768.26 920.314 1769.51 925.961 1770.98 929.261 1774.84 937.896 1793.98 955.493 1810.8 965.866 1828.06 976.516 1853.07 994.275 1863.49 1003.29 1867.77 1006.99 1871.92 1010.02 1872.71 1010.02 1874.68 1010.02 1884.15 997.124 1888.34 988.745 1897.65 970.134 1900.25 960.636 1901.42 940.986 1902.63 920.621 1903.64 917.872 1908.91 920.694 1914.67 923.774 1915.2 926.311 1915.58 952.587L1915.94 977.782 1910.03 990.812C1906.78 997.98 1902.71 1006.31 1900.99 1009.33 1897.2 1015.98 1895.31 1030.51 1897.67 1034.91 1900.48 1040.17 1917.12 1060.76 1918.69 1060.93 1919.52 1061.02 1920.95 1061 1921.87 1060.88 1922.79 1060.76 1926.01 1061.92 1929.02 1063.46 1933.23 1065.61 1937.14 1066.25 1945.88 1066.25 1952.14 1066.25 1959.24 1066.82 1961.65 1067.51 1964.71 1068.39 1968.35 1068.17 1973.69 1066.77 1977.9 1065.67 1981.87 1065.1 1982.52 1065.5 1985.52 1067.35 1990.81 1052.87 1990.84 1042.71 1990.86 1037.19 1976.06 1004.68 1969.75 996.375 1966.22 991.722 1966.16 991.307 1966.16 969.089 1966.16 950.336 1966.64 944.936 1968.97 937.094 1974.37 918.99 1986.16 911.938 1990.78 924.061 1992.88 929.587 1992.6 934.196 1989.34 947.839 1985.22 965.111 1986.19 973.934 1994.18 992.034 2001.55 1008.71 2004.32 1013.44 2009.77 1018.65L2013.77 1022.48 2017.16 1017.96C2019.02 1015.48 2022.97 1009.76 2025.93 1005.27 2030.98 997.581 2035 992.924 2062.31 963.148 2071.8 952.793 2073.39 950.331 2074.57 944.1 2076.25 935.235 2076.33 913.592 2074.7 907.14 2074.04 904.499 2072.15 891.537 2070.52 878.334 2068.89 865.131 2066.69 850.319 2065.65 845.414 2064.6 840.51 2063.39 834.337 2062.94 831.698 2062.5 829.057 2059.62 820.435 2056.53 812.538 2053.4 804.528 2050.61 794.737 2050.21 790.393 2049.58 783.434 2049.82 782.435 2052.46 781.02 2057 778.594 2061.94 784.615 2069.3 801.521 2082.16 831.087 2086.38 846.174 2093 886.172 2100.18 929.524 2100.38 930.457 2102.63 930.457 2107.27 930.457 2129.57 909.316 2134.03 900.685 2137.17 894.629 2136.94 881.215 2133.38 862.686 2130.81 849.281 2130.56 844.368 2131.24 821.41 2131.98 796.362 2133.74 783.952 2137.83 774.976 2139.83 770.591 2141.87 770.389 2145.35 774.228 2147.72 776.85 2148.04 780.34 2148.84 812.292 2149.72 847.529 2151.1 858.817 2156 870.534 2157.16 873.316 2158.69 875.591 2159.4 875.591 2160.1 875.591 2162.88 873.156 2165.57 870.182 2172.19 862.852 2180.16 838.377 2181.01 822.783 2181.33 816.747 2182.24 806.191 2183.03 799.325 2183.82 792.458 2184.28 786.286 2184.05 785.608 2183.83 784.929 2185.01 782.06 2186.68 779.232 2190.55 772.677 2196.62 772.016 2200.37 777.737 2203.58 782.626 2205.33 820.942 2202.78 830.325 2201.85 833.721 2198.71 846.308 2195.8 858.298 2191.26 876.955 2189.59 881.576 2184.17 890.339 2174.27 906.376 2149.23 935.447 2140.09 941.53 2135.75 944.413 2125.56 952.545 2117.45 959.6 2109.33 966.656 2097.74 976.019 2091.71 980.407 2077.66 990.621 2055.97 1011.83 2052.33 1018.93 2050.78 1021.95 2047.33 1027.41 2044.66 1031.08 2038.8 1039.12 2019.51 1073.4 2020.37 1074.26 2020.7 1074.59 2023.13 1073.22 2025.77 1071.2 2032.59 1066.01 2047.04 1059.8 2056.31 1058.09 2061.61 1057.11 2067.88 1054.38 2075.28 1049.85 2096.14 1037.06 2107.59 1033.3 2111.48 1037.98 2113.91 1040.91 2111.83 1051.1 2107.52 1057.34 2102.59 1064.47 2097.82 1074.16 2093.21 1086.35 2088.6 1098.59 2083.19 1106.83 2071.99 1118.71 2065.24 1125.86 2062.37 1127.98 2059.41 1127.98 2053.05 1127.98 2051.16 1129.25 2052.07 1132.91 2052.71 1135.45 2051.93 1137.04 2048.63 1139.93 2043.56 1144.38 2043.14 1149 2047.11 1156.42 2051.35 1164.32 2050.39 1169.9 2045.56 1165.53 2042 1162.3 2039.39 1164 2038.4 1170.2 2037.93 1173.18 2035.61 1179.74 2033.25 1184.78 2029.55 1192.67 2028.93 1195.6 2028.77 1205.89 2028.6 1217.17 2028.84 1218.23 2033.05 1224.81 2037.28 1231.41 2037.51 1232.45 2037.49 1244.69 2037.48 1251.79 2037.09 1259.04 2036.62 1260.8 2035.26 1265.85 2013.83 1279.03 2005.27 1280.08 1998.6 1280.89 1998.39 1281.05 1998 1285.72 1997.78 1288.36 1996.7 1295.37 1995.6 1301.3 1994.5 1307.23 1993.6 1318.73 1993.6 1326.85 1993.6 1345.99 1986.94 1373.48 1977.81 1392.02 1966.83 1414.3 1954.16 1435.76 1946.72 1444.67 1942.7 1449.49 1937.55 1456 1935.29 1459.13 1933.03 1462.26 1926.78 1470.04 1921.42 1476.44 1912.29 1487.28 1883.84 1527.08 1883.84 1528.98 1883.84 1530.56 1871.98 1548.35 1869.65 1550.28 1868.4 1551.3 1867.37 1552.96 1867.37 1553.94 1867.37 1557.82 1859.6 1564.46 1836.92 1580 1815.63 1594.58 1811.86 1596.65 1799.27 1600.6 1778.99 1606.98 1779.3 1606.64 1778.62 1622.44 1777.7 1643.57 1785.64 1734.75 1790.57 1759.74 1793.1 1772.56 1794.66 1784.8 1794.68 1791.97 1794.72 1808.58 1796.41 1818.29 1805.84 1856.04 1811.86 1880.15 1816.51 1895.25 1822.24 1909.39 1826.64 1920.23 1832.17 1936.95 1834.52 1946.55 1840 1968.92 1841.38 1971.67 1849.98 1977.38 1858.71 1983.17 1879.72 2002.75 1879.72 2005.09 1879.72 2006.02 1878.48 2007.91 1876.96 2009.29 1875.44 2010.66 1873.81 2014.16 1873.35 2017.04L1872.51 2022.29 1863.42 2022.31C1858.43 2022.32 1852.18 2022.6 1849.54 2022.92 1846.89 2023.26 1839.79 2022.46 1833.76 2021.14Z" fill-rule="evenodd"/></g></svg>