<svg width="515" height="245" xmlns="http://www.w3.org/2000/svg" xmlns:xlink="http://www.w3.org/1999/xlink" xml:space="preserve" overflow="hidden"><defs><clipPath id="clip0"><rect x="985" y="42" width="515" height="245"/></clipPath></defs><g clip-path="url(#clip0)" transform="translate(-985 -42)"><path d="M1132.21 43.5002C1133.92 43.553 1137.34 43.6058 1139.08 43.6586 1142.77 44.9536 1146.67 45.4822 1150.6 45.2969 1151.73 45.4822 1154.05 45.8519 1155.18 46.0368 1156.71 46.4598 1159.71 47.3318 1161.24 47.7811L1163.38 48.4154C1164.85 48.9172 1167.78 49.9216 1169.23 50.4234L1171.36 51.0577C1172.84 51.5335 1175.79 52.4847 1177.26 52.9869 1178.32 53.3038 1180.42 53.9381 1181.48 54.2814 1182.5 54.2814 1184.59 54.3079 1185.61 54.3079 1192.81 54.4667 1200.05 54.678 1207.3 54.5988 1208.38 54.6252 1210.57 54.6516 1211.65 54.678 1218.58 53.3302 1225.58 52.696 1232.67 52.7752 1237.57 52.8809 1242.5 52.9341 1247.4 52.8016 1248.35 52.4847 1250.25 51.824 1251.2 51.5071 1255.99 50.5819 1260.86 50.4234 1265.74 50.3178L1268.08 50.2914C1274.54 50.265 1280.97 49.8952 1287.4 49.1553 1303.29 48.0981 1319.44 46.3806 1335.33 48.521 1337.72 50.7672 1340.49 51.5071 1343.7 50.7143L1345.86 50.5555 1348.03 51.1898C1349.53 51.7184 1352.56 52.828 1354.06 53.3567L1356.22 54.3079C1357.8 54.7044 1360.94 55.4971 1362.52 55.8933L1364.94 58.113 1366.81 58.6681 1368.68 59.4344C1369.58 59.8045 1371.42 60.5972 1372.32 60.9934L1374.22 61.839C1375.11 62.2619 1376.93 63.1339 1377.85 63.5569L1379.72 64.4288C1380.62 64.8514 1382.38 65.6973 1383.28 66.1199L1385.07 66.9655C1385.86 67.4149 1387.42 68.2868 1388.18 68.7362L1389.95 69.2116C1390.68 69.661 1392.18 70.5066 1392.92 70.9559L1394.66 71.4578C1395.45 71.9335 1396.98 72.8319 1397.74 73.3077L1399.69 73.7831 1405.6 76.2145 1407.84 76.8484C1409.36 77.377 1412.42 78.4075 1413.95 78.9361L1416.27 78.6455C1418.09 78.6983 1421.72 78.7512 1423.54 78.804 1425.15 78.4603 1428.33 77.8264 1429.92 77.4827L1432.13 76.8748C1433.63 76.4258 1436.63 75.501 1438.14 75.0517L1440.35 74.5759C1444.2 74.6815 1448.02 74.1004 1451.63 72.6999 1453.39 72.9112 1456.95 73.3341 1458.71 73.5454 1460.24 74.074 1463.25 75.1837 1464.77 75.7387 1465.17 76.4258 1465.99 77.8528 1466.38 78.5399 1466.96 79.1738 1468.09 80.4687 1468.67 81.103L1469.78 82.5564C1470.33 83.2963 1471.39 84.7761 1471.92 85.516 1472.44 86.3087 1473.44 87.8678 1473.97 88.6605L1475 90.3516C1475.47 91.1707 1476.45 92.8358 1476.95 93.655L1477.58 95.4781C1478.08 96.2444 1479.13 97.7771 1479.63 98.5434L1480.61 100.288C1481.08 101.133 1482.03 102.772 1482.51 103.617L1483.24 105.335C1483.77 106.048 1484.8 107.475 1485.33 108.189 1485.83 108.928 1486.83 110.408 1487.33 111.148 1487.86 111.888 1488.91 113.394 1489.44 114.134L1490.49 115.693C1491.02 116.433 1492.02 117.939 1492.52 118.679 1493.02 119.419 1493.99 120.899 1494.5 121.639 1494.94 122.432 1495.84 124.044 1496.29 124.836L1497.13 126.66C1497.47 128.06 1498.16 130.914 1498.5 132.341L1498.47 134.244C1498.08 134.984 1497.31 136.464 1496.92 137.23L1496.6 138.921 1494.89 139.291C1494.15 139.766 1492.65 140.691 1491.91 141.141 1488.25 142.065 1484.43 142.171 1480.72 141.643 1479.82 141.246 1477.98 140.427 1477.05 140.031 1475.97 140.189 1473.84 140.48 1472.76 140.638 1471.36 139.925 1468.54 138.472 1467.12 137.758L1464.85 137.23C1463.27 136.78 1460.11 135.829 1458.56 135.353 1457.4 135.089 1455.1 134.561 1453.95 134.27 1452.39 133.847 1449.28 133.002 1447.7 132.579 1446.59 132.367 1444.35 131.945 1443.25 131.733 1439.35 129.672 1434.76 130.201 1431.36 132.975L1429.6 133.768C1428.81 134.191 1427.23 135.063 1426.44 135.486 1425.7 135.961 1424.22 136.939 1423.49 137.441L1421.96 138.445C1421.22 138.947 1419.77 139.951 1419.03 140.454 1418.3 140.956 1416.85 141.986 1416.14 142.515 1415.34 143.017 1413.82 144.074 1413.03 144.602L1411.34 145.659C1410.52 146.162 1408.84 147.192 1408.02 147.694L1406.28 148.725C1405.46 149.227 1403.83 150.204 1403.01 150.707L1401.3 151.42C1400.59 151.922 1399.19 152.953 1398.51 153.455 1397.77 153.957 1396.3 154.987 1395.56 155.489L1394.03 156.546C1393.32 157.101 1391.9 158.158 1391.18 158.713 1390.55 159.321 1389.23 160.537 1388.57 161.144 1387.97 161.858 1386.76 163.311 1386.15 164.025 1385.39 165.452 1383.89 168.279 1383.15 169.68L1381.46 174.225C1380.78 175.731 1379.43 178.77 1378.77 180.303L1377.69 182.152C1377.14 182.918 1376.06 184.477 1375.51 185.271 1374.93 185.904 1373.79 187.226 1373.21 187.886 1372.61 188.494 1371.42 189.71 1370.82 190.317L1369.42 191.348C1368.87 191.956 1367.76 193.171 1367.21 193.806 1366.63 194.44 1365.47 195.761 1364.89 196.395L1363.7 197.796C1363.12 198.456 1361.96 199.804 1361.38 200.491 1360.86 201.178 1359.75 202.553 1359.22 203.239 1358.7 203.979 1357.64 205.459 1357.14 206.199L1356.06 207.811C1355.53 208.63 1354.51 210.295 1354.01 211.114 1353.29 212.462 1351.85 215.157 1351.13 216.531L1350.26 218.513C1349.84 219.438 1349.03 221.314 1348.6 222.265L1347.81 224.327C1345.73 227.022 1345.15 230.008 1346.1 233.258 1346.87 237.565 1347.58 241.899 1348.21 246.233L1348.5 248.743 1349.71 249.43C1350.16 249.933 1351.08 250.963 1351.53 251.465 1351.98 251.993 1352.87 253.024 1353.32 253.526L1354.27 254.583 1354.98 255.772C1355.32 256.354 1355.98 257.464 1356.32 258.018 1356.67 258.573 1357.35 259.683 1357.67 260.212L1358.38 261.348C1357.38 261.982 1355.4 263.251 1354.4 263.885 1350.63 264.122 1346.89 264.361 1343.15 264.625L1340.99 264.519 1338.91 263.779C1336.62 261.85 1334.19 260.159 1331.61 258.705 1331.77 257.517 1332.03 255.112 1332.19 253.923 1331.74 252.337 1330.87 249.14 1330.42 247.554 1329.53 243.485 1329.21 239.309 1329.27 235.161L1329.42 232.835C1330.11 229.638 1329.42 226.758 1327.37 224.221L1326.79 222.027 1324.79 216.214C1324.31 215.315 1323.39 213.545 1322.94 212.673 1322.49 211.907 1321.65 210.427 1321.2 209.687L1320.41 208.234 1319.67 206.78 1318.7 207.415C1318.28 207.811 1317.38 208.577 1316.93 208.974 1316.49 209.449 1315.56 210.453 1315.12 210.956L1314.09 212.145C1313.61 212.858 1312.69 214.285 1312.24 214.999L1311.37 216.796C1310.82 218.222 1309.74 221.076 1309.21 222.503L1309.32 224.802C1309.11 226.546 1308.71 230.087 1308.53 231.858 1306 234.553 1306.76 238.676 1309.77 240.631 1310.16 241.318 1310.98 242.692 1311.4 243.379 1311.8 244.04 1312.59 245.361 1312.98 246.021 1313.4 246.735 1314.25 248.135 1314.67 248.823L1315.54 250.461C1315.88 251.888 1316.54 254.742 1316.88 256.169 1317.01 257.252 1317.33 259.419 1317.49 260.529 1315.83 260.767 1312.53 261.242 1310.9 261.507 1309.77 261.559 1307.53 261.665 1306.39 261.718 1304.73 261.691 1301.39 261.665 1299.7 261.639L1297.46 261.85C1296.22 251.148 1295.49 240.446 1295.33 229.691 1295.86 225.78 1295.04 221.895 1293.22 218.434L1292.56 216.32C1291.93 214.946 1290.69 212.197 1290.09 210.824L1289.08 209.132C1288.61 208.392 1287.66 206.939 1287.16 206.199 1286.63 205.591 1285.55 204.323 1285 203.715L1283.89 202.42 1283.68 200.782 1281.68 200.28 1279.62 199.751C1278.54 199.408 1276.41 198.694 1275.33 198.351 1270.93 196.474 1266.19 195.55 1261.42 195.92L1258.99 195.893C1253.78 195.893 1248.59 195.497 1243.42 194.889 1236.76 193.859 1230.06 193.304 1223.34 193.251 1218.39 193.145 1213.41 193.039 1208.54 192.141 1207.59 191.797 1205.72 191.11 1204.77 190.767 1200.84 190.688 1196.92 190.661 1193.02 190.899L1190.54 190.952C1185.22 191.057 1179.9 191.084 1174.6 190.661 1171.36 189.921 1168.36 190.45 1165.56 192.247 1164.51 192.564 1162.43 193.171 1161.4 193.489L1159.4 193.964 1157.47 194.387 1157.66 196.633C1157.66 206.358 1157.82 216.082 1158.11 225.806 1158.24 229.136 1158.32 232.465 1158.37 235.822 1157.92 239.124 1158.77 242.111 1160.87 244.727L1161.56 246.973C1162.11 248.479 1163.24 251.518 1163.8 253.024L1164.54 255.032 1164.96 256.961C1165.38 257.728 1166.2 259.26 1166.59 260.027L1167.09 261.665C1167.46 262.379 1168.2 263.806 1168.57 264.519L1169.01 266.104C1169.36 266.818 1170.07 268.245 1170.41 268.958L1171.04 270.518C1171.31 271.337 1171.81 272.949 1172.07 273.768L1172.49 275.565 1171.94 277.388C1169.59 278.973 1167.01 279.608 1164.17 279.264 1162.8 278.789 1160.08 277.811 1158.71 277.335L1157.08 276.199C1156.42 275.486 1155.16 274.059 1154.52 273.345L1153.65 271.495C1153.63 268.403 1152.63 265.682 1150.65 263.33L1149.91 261.136C1149.28 259.683 1148.04 256.777 1147.41 255.323L1146.88 253.368C1146.41 252.601 1145.46 251.095 1145.01 250.329L1144.43 248.585C1143.96 247.845 1143.06 246.391 1142.61 245.652L1141.98 243.96C1141.51 243.221 1140.59 241.767 1140.11 241.027 1139.66 240.235 1138.74 238.623 1138.29 237.83L1137.37 236.112C1136.95 235.266 1136.11 233.602 1135.66 232.783L1135.03 231.065C1134.45 230.484 1133.34 229.294 1132.76 228.713 1132.36 227.048 1131.52 223.719 1131.1 222.054 1130.65 220.283 1129.76 216.69 1129.31 214.919L1129.44 212.647C1130.2 209.581 1129.44 206.992 1127.2 204.851L1126.07 203.213 1125.67 201.31C1125.33 201.865 1124.59 202.975 1124.22 203.53L1123.46 204.772C1123.06 205.433 1122.27 206.78 1121.88 207.441L1120.96 208.974C1120.48 210.348 1119.51 213.096 1119.03 214.47L1118.43 216.584C1116.56 219.174 1115.9 222.081 1116.37 225.225 1116.16 226.943 1115.69 230.378 1115.45 232.096L1113.53 233.073 1113.97 235.24 1115.66 252.046C1116.08 255.402 1116.32 258.758 1116.37 262.114 1116.45 263.832 1116.61 267.241 1116.69 268.958 1117.13 269.778 1118.06 271.442 1118.51 272.261L1118.95 274.323C1119.32 275.776 1120.09 278.709 1120.45 280.163L1121.03 282.303 1119.64 284.021 1115.42 285.501C1114.32 285.342 1112.1 285.025 1111 284.84 1109.57 284.285 1106.73 283.149 1105.3 282.567L1103.06 282.752C1102.7 282.039 1102.01 280.585 1101.67 279.845 1100.93 279.264 1099.46 278.049 1098.72 277.441 1100.83 275.221 1101.3 272.579 1100.17 269.54L1100.09 267.373C1100.83 264.334 1100.27 261.559 1098.45 259.023L1097.82 256.909C1097.32 255.455 1096.35 252.522 1095.85 251.069L1095.19 248.955C1094.58 247.554 1093.4 244.727 1092.79 243.326 1092.24 241.899 1091.16 239.019 1090.6 237.565L1089.89 235.425 1088.1 229.294C1087.94 228.132 1087.65 225.78 1087.49 224.591 1087.55 222.821 1087.65 219.279 1087.73 217.509L1088.13 215.21C1088.63 213.73 1089.57 210.77 1090.08 209.264 1090.68 207.864 1091.89 205.063 1092.5 203.636L1093.13 201.495C1093.63 200.042 1094.66 197.082 1095.16 195.602L1095.79 193.409C1096.21 191.85 1097 188.706 1097.4 187.12 1097.03 182.998 1097.06 178.849 1097.37 174.727L1097.64 172.401C1098.51 169.204 1097.87 166.324 1095.82 163.734 1095.58 162.598 1095.11 160.299 1094.87 159.163 1094.42 157.603 1093.5 154.485 1093.03 152.926L1092.39 150.707C1091.84 149.174 1090.76 146.082 1090.21 144.549L1089.47 142.383C1088.86 140.929 1087.65 138.023 1087.05 136.596L1086.68 134.587C1086.23 133.794 1085.33 132.209 1084.88 131.416L1084.12 129.593C1083.75 128.694 1083.01 126.924 1082.62 126.052L1081.88 124.176 1081.51 122.273C1081.09 121.454 1080.25 119.842 1079.83 119.049L1079.11 117.226C1078.77 116.328 1078.06 114.557 1077.69 113.658L1077.01 111.782 1076.77 109.853C1076.35 109.034 1075.53 107.396 1075.14 106.577L1074.48 104.595C1074 103.141 1073.08 100.182 1072.61 98.7283L1071.84 96.641C1070.89 95.4781 1069.02 93.1792 1068.07 92.0431L1066.05 91.2768C1064.57 91.4616 1061.65 91.8842 1060.2 92.0695L1058.14 92.8094C1056.69 93.3376 1053.82 94.3949 1052.4 94.9495L1050.26 95.5838C1048.79 96.086 1045.86 97.1164 1044.39 97.645L1042.23 98.2793 1040.04 98.0416C1038.54 98.5434 1035.53 99.6006 1034.06 100.129L1031.69 100.631 1029.24 101.08C1021.15 100.948 1013.09 100.974 1005.05 100.525 1003.78 100.182 1001.28 99.5214 1000.04 99.1777 998.462 98.8343 995.353 98.1208 993.799 97.7507 993.403 97.2221 992.613 96.1652 992.218 95.6366L991.032 94.8175C990.479 94.3684 989.319 93.4697 988.74 92.9943L987.607 91.9635 986.5 90.8802C988.081 90.801 991.243 90.6689 992.85 90.5897L994.984 90.6689C996.328 91.1972 999.042 92.2544 1000.41 92.783L1002.55 92.5449 1004.71 93.1263C1006.26 93.5493 1009.4 94.4213 1010.98 94.8439 1015.19 94.6062 1019.41 94.7382 1023.62 95.1084 1026.89 95.9011 1029.9 95.2932 1032.64 93.2848L1034.85 92.5713C1036.38 92.0167 1039.41 90.9066 1040.91 90.3516L1043.07 89.5589C1044.44 88.8454 1047.23 87.4448 1048.6 86.7317 1049.45 86.2295 1051.11 85.1987 1051.92 84.6968L1053.58 83.6396C1054.35 83.1114 1055.88 82.107 1056.64 81.5787 1057.35 81.0765 1058.8 80.0197 1059.54 79.5175L1061.12 78.6719C1061.78 78.1169 1063.09 77.0337 1063.75 76.4786 1064.46 75.9236 1065.89 74.8668 1066.6 74.3117 1067.31 73.7831 1068.76 72.6735 1069.5 72.1184L1071.1 71.2465C1071.76 70.665 1073.11 69.5025 1073.77 68.9211 1074.5 68.3397 1075.95 67.23 1076.66 66.675L1079.61 64.3496C1080.38 63.7682 1081.93 62.6053 1082.7 62.0242L1084.36 60.8614C1085.15 60.3063 1086.7 59.1967 1087.49 58.6416 1088.26 58.1395 1089.81 57.109 1090.58 56.5804L1092.26 55.9201C1092.97 55.4443 1094.42 54.4931 1095.13 54.0173L1096.74 53.3302C1097.29 52.7752 1098.4 51.692 1098.95 51.1369 1100.59 50.6347 1103.83 49.6571 1105.44 49.1553L1107.7 48.2037C1109.34 47.6755 1112.63 46.6447 1114.29 46.1428 1115.5 45.9048 1117.93 45.4293 1119.14 45.2177 1122.25 45.2441 1125.38 45.1649 1128.49 44.9536 1129.41 44.5834 1131.26 43.8699 1132.21 43.5002Z" stroke="#000000" stroke-width="0.24685" stroke-miterlimit="8" fill-rule="evenodd"/></g></svg>