<svg width="286" height="558" xmlns="http://www.w3.org/2000/svg" xmlns:xlink="http://www.w3.org/1999/xlink" xml:space="preserve" overflow="hidden"><defs><clipPath id="clip0"><rect x="2912" y="0" width="286" height="558"/></clipPath></defs><g clip-path="url(#clip0)" transform="translate(-2912 0)"><path d="M3005.44 0.499836 3007.58 0.499836C3009 1.07974 3011.85 2.21286 3013.28 2.76642L3015.68 2.79276 3021.38 5.63926C3022.81 6.35088 3025.63 7.74778 3027.05 8.4594L3029.43 8.30098C3030.85 9.01261 3033.68 10.4359 3035.08 11.1475L3037.48 10.9631C3038.96 11.5957 3041.94 12.8872 3043.42 13.5194 3047.51 13.6779 3051.62 13.8359 3055.77 13.994 3058.06 16.9722 3060.96 17.6838 3064.47 16.1288 3065.66 16.3132 3068.06 16.7087 3069.25 16.8931 3070.73 17.394 3073.68 18.4218 3075.16 18.9226L3077.33 19.4758C3078.12 19.9504 3079.67 20.8727 3080.47 21.3473L3082.5 21.558 3084.48 22.1906C3085.4 22.6121 3087.27 23.4295 3088.22 23.851L3090.2 24.8524C3091.66 25.2479 3094.56 26.0122 3096.01 26.3813L3098.65 28.806 3100.65 29.4122 3102.61 30.1238 3106.51 31.7052 3108.54 32.6802C3110.02 33.0754 3113 33.9191 3114.48 34.3142L3117.23 36.7388 3119.26 37.3451 3121.26 38.1094C3122.27 38.5049 3124.25 39.2956 3125.22 39.6907L3127.33 40.6661C3128.84 41.0876 3131.82 41.9836 3133.32 42.4055 3133.98 43.0117 3135.33 44.1712 3135.99 44.7511L3137.92 45.331 3139.71 46.0426C3140.58 46.4378 3142.3 47.1757 3143.17 47.5712L3144.88 48.3882C3145.46 48.9418 3146.68 50.1013 3147.28 50.6548L3148.97 51.3138C3149.4 52.1571 3150.19 53.8438 3150.58 54.7135L3151.14 56.6376C3150.66 57.8764 3149.71 60.3274 3149.24 61.5659L3149.32 63.569C3148.74 64.2543 3147.57 65.6512 3146.99 66.3365 3146.36 66.9428 3145.12 68.1549 3144.49 68.7875L3142.88 69.5518C3142.3 70.1581 3141.16 71.3439 3140.58 71.9238 3139.87 72.4773 3138.42 73.5314 3137.68 74.0586 3136.91 74.6122 3135.38 75.6663 3134.62 76.2198L3133.01 77.3003C3132.22 77.8538 3130.61 78.9346 3129.81 79.4615 3129 79.9887 3127.36 81.0691 3126.54 81.5963L3124.83 82.6771C3123.98 83.204 3122.32 84.2321 3121.5 84.759L3119.6 85.4179C3118.92 85.9978 3117.57 87.1576 3116.88 87.7372 3116.07 88.238 3114.46 89.2921 3113.64 89.793L3112 90.8738C3111.21 91.4007 3109.68 92.4551 3108.89 92.9819 3108.15 93.5092 3106.7 94.5633 3105.96 95.0905L3104.3 95.8548C3103.72 96.4347 3102.55 97.6208 3102 98.2267L3099.47 100.652C3098.91 101.337 3097.8 102.707 3097.22 103.419 3096.83 104.262 3096.04 105.976 3095.64 106.845L3095.06 108.822C3091.1 110.509 3091.18 111.932 3095.3 113.091 3095.72 113.935 3096.56 115.648 3096.96 116.518 3097.51 117.203 3098.6 118.6 3099.15 119.285 3099.73 119.891 3100.92 121.104 3101.5 121.71 3102.13 122.289 3103.4 123.423 3104.01 124.003 3104.72 124.53 3106.09 125.637 3106.8 126.19L3108.31 127.297C3109.05 127.851 3110.58 128.958 3111.32 129.485 3112.11 130.038 3113.69 131.145 3114.48 131.672L3116.12 132.805C3116.94 133.359 3118.55 134.44 3119.36 134.993 3120.16 135.573 3121.77 136.68 3122.58 137.233L3124.25 138.367C3125.04 138.92 3126.62 140.053 3127.41 140.607 3128.18 141.16 3129.71 142.294 3130.47 142.847 3131.08 143.48 3132.32 144.718 3132.93 145.324L3134.67 146.115C3135.36 146.721 3136.75 147.881 3137.47 148.487 3138.13 149.093 3139.45 150.306 3140.13 150.912 3140.77 151.544 3142.06 152.81 3142.69 153.442 3143.3 154.101 3144.54 155.419 3145.17 156.077 3145.75 156.789 3146.97 158.186 3147.57 158.871 3148.13 159.636 3149.29 161.112 3149.84 161.876L3150.98 163.457C3151.51 164.248 3152.59 165.829 3153.12 166.62L3153.72 168.465C3154.3 169.124 3155.41 170.468 3155.99 171.153 3156.44 171.97 3157.39 173.631 3157.87 174.448L3158.82 176.161C3159.26 177.004 3160.19 178.691 3160.64 179.534L3161.56 181.3C3161.98 182.17 3162.88 183.883 3163.33 184.753L3164.23 186.545C3164.65 187.415 3165.55 189.181 3165.97 190.077L3166.87 191.948C3167.34 192.87 3168.26 194.715 3168.71 195.638L3169.79 197.614C3170.19 199.064 3170.98 201.989 3171.35 203.439L3171.91 205.495C3172.51 206.18 3173.73 207.577 3174.33 208.262L3174.99 210.371C3175.52 211.82 3176.52 214.746 3177.05 216.195 3177.76 217.618 3179.19 220.465 3179.93 221.888L3179.88 224.312C3180.53 225.788 3181.91 228.714 3182.57 230.19 3182.65 231.402 3182.75 233.827 3182.83 235.04 3183.46 236.515 3184.7 239.467 3185.34 240.943L3185.31 243.315C3185.34 244.448 3185.42 246.741 3185.44 247.901 3186.02 248.692 3187.18 250.299 3187.74 251.09L3188.14 253.383C3186.5 256.783 3187.18 259.603 3190.19 261.896 3190.35 263.108 3190.64 265.533 3190.77 266.745 3190.75 268.537 3190.72 272.148 3190.69 273.967L3190.59 276.26 3192.67 277.13C3192.89 278.922 3193.31 282.48 3193.52 284.272 3191.8 289.042 3192.17 294.419 3195.37 298.53 3195.71 302.747 3196.08 306.964 3196.5 311.207L3196.39 313.764C3195.89 327.1 3195.47 340.462 3195.23 353.798L3195.26 356.012C3194.6 356.697 3193.23 358.068 3192.54 358.753 3191.8 359.306 3190.35 360.414 3189.61 360.967L3187.98 361.89C3187.08 362.1 3185.31 362.522 3184.41 362.733L3182.43 362.838C3179.22 360.229 3177.9 360.914 3178.48 364.868 3177.32 364.552 3174.94 363.972 3173.75 363.682L3171.4 363.155C3169.85 362.364 3166.76 360.835 3165.2 360.044 3164.23 359.544 3162.27 358.569 3161.3 358.068L3159.48 357.146 3158.47 355.538C3158.05 354.721 3157.18 353.087 3156.76 352.27L3156.02 350.478C3155.76 349.555 3155.28 347.657 3155.04 346.735 3154.96 345.681 3154.78 343.546 3154.7 342.492 3155.07 341.648 3155.81 339.988 3156.18 339.145 3156.71 335.534 3156.55 331.818 3155.44 328.339 3154.86 327.574 3153.7 326.019 3153.12 325.255L3152.56 322.962C3152.11 321.565 3151.22 318.719 3150.77 317.296 3150.4 316.426 3149.66 314.686 3149.29 313.817L3148.39 312.341C3147.86 311.761 3146.86 310.601 3146.36 310.022L3143.72 309.178C3142.69 309.231 3140.63 309.31 3139.6 309.363 3138.95 309.468 3137.65 309.652 3136.99 309.758L3135.65 310.022 3135.33 311.761 3134.96 313.553C3134.59 314.397 3133.88 316.057 3133.51 316.9L3132.72 318.824C3132.16 320.221 3131.05 323.041 3130.5 324.438L3129.89 326.784C3126.73 329.709 3125.83 334.295 3127.54 338.248 3127.47 339.487 3127.33 341.991 3127.25 343.256 3123.43 345.496 3123.19 350.24 3125.12 353.798L3125.12 356.091C3123.22 359.649 3123.43 364.393 3127.31 366.554 3127.39 367.793 3127.6 370.271 3127.68 371.509 3128.15 373.064 3129.05 376.227 3129.52 377.782L3129.6 380.18C3129.79 381.314 3130.13 383.554 3130.32 384.687 3130.98 385.346 3132.32 386.611 3132.98 387.27 3133.4 388.772 3134.2 391.803 3134.62 393.306L3134.91 395.678C3135.65 397.101 3137.12 399.921 3137.86 401.344L3137.81 403.742C3138.47 405.139 3139.79 407.959 3140.45 409.356L3141.11 411.517C3141.45 412.545 3142.14 414.548 3142.51 415.55L3142.88 417.737C3142.93 419.372 3143.04 422.639 3143.06 424.3 3143.56 425.038 3144.57 426.54 3145.07 427.278 3145.07 429.097 3145.09 432.76 3145.12 434.579 3142.14 437.583 3141.53 442.09 3143.4 445.859 3143.25 447.045 3142.96 449.47 3142.8 450.682 3142.24 452.21 3141.14 455.294 3140.58 456.849 3140.45 458.061 3140.19 460.513 3140.05 461.725 3139.47 463.254 3138.34 466.311 3137.76 467.839L3137.57 470.238C3137.02 471.635 3135.94 474.455 3135.38 475.852L3135.2 478.197 3134.8 480.49C3134.33 481.914 3133.32 484.76 3132.85 486.21L3132.77 488.582 3132.48 490.927C3127.23 498.069 3127.49 503.261 3133.27 506.53L3133.96 508.638C3134.35 509.534 3135.17 511.326 3135.59 512.249L3136.54 513.83C3137.02 514.515 3137.94 515.912 3138.42 516.598 3138.87 517.177 3139.79 518.337 3140.24 518.943 3140.69 519.497 3141.58 520.578 3142.03 521.131 3142.51 521.684 3143.46 522.791 3143.93 523.345 3141.4 525.19 3140.11 527.614 3140.08 530.672 3138.89 530.645 3136.52 530.619 3135.33 530.593 3133.75 531.093 3130.58 532.042 3129 532.516 3127.1 532.622 3123.3 532.806 3121.4 532.885L3118.86 532.964C3113.58 532.727 3108.31 532.464 3103.06 532.411 3101.21 528.642 3098.36 527.641 3094.45 529.433 3093.87 528.827 3092.71 527.588 3092.13 526.955L3090.47 526.165C3089.78 525.664 3088.41 524.61 3087.72 524.083 3087.12 523.529 3085.9 522.396 3085.27 521.842 3084.71 521.236 3083.61 520.024 3083.05 519.418 3082.52 518.759 3081.44 517.441 3080.91 516.756L3080.36 515.016C3079.81 514.305 3078.67 512.881 3078.09 512.196L3077.11 510.246C3076.61 509.297 3075.64 507.347 3075.14 506.372L3074.08 504.263C3073.58 502.708 3072.6 499.625 3072.1 498.069L3071.55 495.961C3070.97 495.25 3069.75 493.826 3069.17 493.115L3068.43 491.138C3068.06 490.163 3067.32 488.265 3066.95 487.316L3066.19 485.34 3065.87 483.284C3065.37 482.467 3064.4 480.859 3063.92 480.069L3063.08 478.145C3062.65 477.222 3061.76 475.404 3061.31 474.508L3060.38 472.636C3059.91 471.766 3058.93 470.027 3058.46 469.157L3057.43 467.418C3056.9 466.601 3055.87 464.993 3055.34 464.176 3054.82 463.412 3053.76 461.909 3053.21 461.145L3052.41 459.406C3051.81 458.826 3050.57 457.64 3049.96 457.034 3049.33 456.375 3048.09 455.004 3047.48 454.345 3046.82 453.713 3045.47 452.422 3044.81 451.789 3044.1 451.209 3042.65 449.997 3041.91 449.391L3040.38 448.231C3039.62 447.677 3038.06 446.597 3037.29 446.07 3036.5 445.569 3034.92 444.62 3034.13 444.146 3033.49 443.592 3032.23 442.485 3031.59 441.906L3029.85 441.273 3028.53 439.982 3026.63 440.351 3024.71 440.719 3022.75 440.772 3022.07 439.006 3020.8 439.296 3020.88 441.089C3020.11 441.589 3018.61 442.538 3017.84 443.039L3016.45 444.225C3015.81 444.858 3014.57 446.149 3013.94 446.808 3013.36 447.414 3012.2 448.653 3011.62 449.259L3010.93 450.998C3010.43 451.789 3009.43 453.37 3008.92 454.161L3007.9 455.848C3007.37 456.638 3006.34 458.272 3005.81 459.09 3005.28 459.907 3004.25 461.567 3003.73 462.384L3002.67 464.097C3002.14 464.94 3001.14 466.601 3000.61 467.444 3000.03 468.156 2998.9 469.553 2998.32 470.238L2997.71 472.162C2997.21 473.005 2996.23 474.692 2995.73 475.536L2994.7 477.301C2994.23 478.145 2993.25 479.858 2992.77 480.701 2992.22 481.439 2991.16 482.889 2990.61 483.6L2990.08 485.498 2987.97 488.344 2987.5 490.268C2987.07 491.059 2986.26 492.64 2985.86 493.431L2985.81 495.434C2985.12 495.935 2983.78 496.936 2983.09 497.437L2982.27 499.44 2980.48 505.976 2979.5 508.348C2978.97 510.009 2977.92 513.356 2977.36 515.016L2977.13 517.546C2973.77 519.497 2972.96 522.238 2974.67 525.77L2975.09 530.408C2975.91 531.541 2977.57 533.781 2978.42 534.915 2978.89 535.732 2979.87 537.366 2980.37 538.183 2980.87 538.842 2981.88 540.186 2982.38 540.845 2982.85 541.451 2983.8 542.663 2984.28 543.296 2984.73 543.902 2985.65 545.141 2986.12 545.747 2986.57 546.459 2987.47 547.856 2987.92 548.567L2988.84 550.201 2987.92 551.967C2987.05 552.942 2985.31 554.892 2984.44 555.894 2971.43 556.5 2958.34 556.316 2945.4 556.5 2942.63 553.153 2938.04 552.599 2934.19 554.102 2933.03 553.996 2930.68 553.786 2929.49 553.68 2928.09 553.179 2925.3 552.204 2923.9 551.73L2921.87 551.097C2920.99 550.676 2919.23 549.832 2918.33 549.411L2916.72 548.277C2916.24 547.434 2915.29 545.8 2914.85 544.983 2914.42 541.952 2914.16 538.921 2913.98 535.89 2914.5 518.179 2915.85 500.494 2915.72 482.757 2915.64 475.983 2915.45 469.21 2915.19 462.463 2914.71 454.741 2914.58 447.098 2914.21 439.402 2913.87 430.915 2913.55 422.376 2913.5 413.889 2917.41 410.674 2917.88 405.35 2915.59 401.054L2915.77 398.761C2915.95 397.602 2916.3 395.282 2916.46 394.123 2916.93 392.594 2917.88 389.51 2918.33 387.955 2918.49 386.743 2918.78 384.292 2918.94 383.079 2919.54 381.551 2920.73 378.494 2921.34 376.965L2921.5 374.54C2924.5 372.3 2925.27 369.427 2923.77 365.975 2923.92 364.789 2924.24 362.469 2924.4 361.283L2926.48 360.466 2926.43 358.173C2926.43 356.355 2926.38 352.744 2926.35 350.925 2926.46 349.713 2926.64 347.288 2926.75 346.076 2930.44 342.623 2931.29 337.247 2928.81 332.819L2928.75 330.368C2929.04 316.953 2928.7 303.512 2928.65 290.123L2928.7 287.619C2931.31 283.218 2930.55 277.762 2926.77 274.309 2926.62 272.465 2926.33 268.749 2926.17 266.903 2927.78 263.477 2927.17 260.552 2924.29 258.075 2924.14 256.915 2923.79 254.569 2923.61 253.383L2923.45 251.037C2922.92 249.693 2921.87 246.952 2921.34 245.608L2921.31 243.236 2921.28 240.917C2920.65 239.599 2919.41 237.016 2918.78 235.698L2918.7 233.326C2918.12 231.771 2917.01 228.661 2916.43 227.106 2916.43 219.305 2916.27 211.477 2916.43 203.702 2916.98 202.068 2918.07 198.826 2918.62 197.193 2918.94 195.98 2919.54 193.555 2919.86 192.343 2920.26 190.788 2921.02 187.678 2921.42 186.097 2922 185.464 2923.21 184.173 2923.82 183.514L2924.45 181.59 2925.22 179.771C2925.64 178.902 2926.43 177.162 2926.83 176.266L2927.7 174.527C2928.15 173.71 2929.04 172.049 2929.47 171.232 2930.02 170.547 2931.1 169.203 2931.63 168.544L2932.21 166.699C2932.69 165.882 2933.69 164.274 2934.16 163.484L2935.19 161.797C2935.69 161.006 2936.72 159.372 2937.25 158.555 2937.75 157.765 2938.78 156.131 2939.31 155.313L2940.34 153.627C2940.84 152.81 2941.87 151.149 2942.37 150.332 2942.92 149.647 2944.06 148.276 2944.64 147.565L2945.25 145.694C2945.75 144.85 2946.75 143.19 2947.25 142.346L2948.28 140.633C2948.76 139.79 2949.76 138.103 2950.26 137.286 2950.84 136.574 2951.95 135.178 2952.53 134.492L2953.11 132.595C2953.59 131.751 2954.54 130.091 2955.01 129.248L2955.96 127.508C2956.41 126.665 2957.28 124.952 2957.73 124.108 2958.28 123.476 2959.44 122.21 2960 121.578L2960.66 119.839 2962.16 118.732 2962.14 116.492 2962.16 114.172 2962.9 111.985C2966.7 108.664 2968.15 103.261 2965.51 98.754L2965.57 96.224C2966.23 83.2567 2966.81 70.2898 2967.49 57.3229 2968.02 56.5059 2969.1 54.8452 2969.63 54.0282 2969.63 52.8687 2969.6 50.5231 2969.6 49.3633 2970.21 48.757 2971.4 47.5186 2972.01 46.886L2972.69 45.0936C2973.14 44.3029 2974.04 42.6953 2974.49 41.9046 2975.04 41.2457 2976.18 39.9808 2976.76 39.3482L2977.42 37.6085 2979.53 34.657C2980.05 33.9454 2981.14 32.4695 2981.66 31.7315 2982.27 31.0989 2983.46 29.8601 2984.04 29.2275L2984.78 27.4618 2986.99 24.4045C2987.55 23.6402 2988.68 22.0589 2989.24 21.2683L2990.37 19.6076C2990.95 18.7906 2992.06 17.1829 2992.62 16.3923 2993.17 15.5753 2994.25 13.9149 2994.78 13.0979 2995.36 12.3863 2996.49 10.9104 2997.05 10.1988L2997.63 8.19561C2998.05 7.27325 2998.92 5.40217 2999.34 4.47944L3000.22 2.52933 3002.25 2.29188C3003.04 1.84405 3004.62 0.948029 3005.44 0.499836Z" stroke="#000000" stroke-width="0.24685" stroke-miterlimit="8" fill-rule="evenodd"/></g></svg>