<svg width="695" height="401" xmlns="http://www.w3.org/2000/svg" xmlns:xlink="http://www.w3.org/1999/xlink" xml:space="preserve" overflow="hidden"><defs><clipPath id="clip0"><rect x="1732" y="4" width="695" height="401"/></clipPath></defs><g clip-path="url(#clip0)" transform="translate(-1732 -4)"><path d="M2114.82 6.21243C2116.09 6.08056 2118.59 5.81647 2119.86 5.68461 2124.21 5.76373 2128.61 5.68461 2133.02 5.5 2134.94 5.76373 2138.82 6.2388 2140.74 6.47616 2143.48 8.32334 2146.52 8.98303 2149.84 8.42883L2152.11 8.82443C2153.56 9.35225 2156.46 10.4606 2157.88 10.9881L2160.1 10.7771 2162.31 11.2786C2163.79 11.8588 2166.72 13.0726 2168.19 13.6532L2170.49 13.6004 2172.7 14.3393C2174.29 14.9198 2177.42 16.0542 2178.98 16.6348L2181.06 17.4527C2182.01 17.8483 2183.88 18.6402 2184.83 19.0622L2186.71 19.8537C2187.5 20.3024 2189.08 21.1995 2189.87 21.6745L2191.66 22.0965C2192.43 22.5716 2193.93 23.4686 2194.67 23.9437L2196.44 24.4975C2197.2 24.9726 2198.7 25.9751 2199.44 26.4502L2201.26 27.1099C2202.11 27.5846 2203.82 28.5611 2204.66 29.0622L2206.46 30.0651C2207.27 30.5925 2208.96 31.5954 2209.81 32.0965 2210.55 32.6507 2212.02 33.7327 2212.79 34.2865L2214.61 35.0253C2215.45 35.5795 2217.11 36.6348 2217.96 37.189L2219.7 38.3238C2220.51 38.8776 2222.12 39.986 2222.94 40.5402 2223.7 41.094 2225.23 42.176 2226 42.7302 2226.68 43.3104 2228.08 44.4715 2228.77 45.0521L2230.45 45.8964C2231.19 46.477 2232.7 47.585 2233.43 48.1655 2234.17 48.7197 2235.62 49.8541 2236.36 50.4347 2237.02 51.0416 2238.37 52.2551 2239.03 52.8621L2240.69 53.7855C2241.4 54.4188 2242.85 55.6327 2243.56 56.2396 2244.27 56.8726 2245.67 58.1392 2246.38 58.7725 2247.07 59.4322 2248.44 60.6988 2249.13 61.3581 2249.81 62.0178 2251.16 63.3108 2251.84 63.9705 2252.53 64.6302 2253.85 65.9495 2254.53 66.6089L2257.17 69.2476C2257.83 69.8809 2259.12 71.2003 2259.78 71.8596L2262.34 74.4192C2262.94 75.0525 2264.21 76.3188 2264.82 76.9521 2265.42 77.559 2266.66 78.7465 2267.27 79.3531 2267.88 79.9337 2269.09 81.0684 2269.69 81.6223 2270.33 82.1237 2271.59 83.1526 2272.23 83.6541 2272.91 84.05 2274.28 84.8679 2274.97 85.2899 2275.76 85.5012 2277.34 85.8968 2278.13 86.0814 2279.03 86.1606 2280.8 86.2664 2281.67 86.3455 2282.51 86.3192 2284.22 86.2928 2285.07 86.2928 2286.33 86.5301 2288.89 87.0316 2290.16 87.269 2290.9 87.4272 2292.4 87.744 2293.16 87.9023 2293.82 88.2715 2295.17 89.063 2295.83 89.459L2297.25 90.4088C2298.81 93.5486 2300.36 93.4958 2301.95 90.1978L2302.76 88.6938C2303.32 88.166 2304.45 87.1107 2305 86.6093L2305.9 85.369C2306.4 84.8416 2307.35 83.7595 2307.85 83.2057L2308.59 81.9127C2310.23 81.86 2313.47 81.7281 2315.1 81.675L2317.06 82.0973C2317.87 82.4402 2319.51 83.0999 2320.33 83.4431 2321.01 83.865 2322.41 84.7097 2323.1 85.1317 2323.75 85.5804 2325.07 86.5301 2325.73 86.9788L2327.05 88.0341C2327.66 88.6147 2328.87 89.7755 2329.48 90.3296 2330.06 91.0421 2331.19 92.4406 2331.74 93.1266L2332.88 94.8416C2333.51 96.3192 2334.78 99.248 2335.41 100.726L2335.99 103.1C2336.07 106.636 2336.33 110.145 2336.78 113.654 2336.97 118.615 2337.36 128.536 2337.55 133.497 2337.7 134.684 2337.99 137.006 2338.13 138.167 2338.68 138.932 2339.76 140.462 2340.29 141.228 2340.76 141.966 2341.74 143.497 2342.21 144.262L2343.03 145.792C2343.53 146.399 2344.53 147.665 2345.04 148.299 2345.56 148.906 2346.59 150.172 2347.12 150.779 2347.65 151.412 2348.67 152.705 2349.2 153.338 2349.73 153.998 2350.76 155.317 2351.29 155.95 2351.79 156.663 2352.81 158.035 2353.32 158.721L2353.84 160.462C2354.37 161.201 2355.45 162.679 2355.98 163.418L2356.3 165.608C2357.25 173.233 2358.72 180.832 2360.09 188.379L2360.25 190.885C2360.88 192.389 2362.18 195.397 2362.81 196.875L2363.79 198.854C2364.26 199.698 2365.24 201.439 2365.74 202.31L2366.71 203.999C2367.19 204.79 2368.16 206.321 2368.64 207.086L2370.75 210.041 2371.88 211.572C2372.41 212.284 2373.52 213.708 2374.07 214.421 2374.62 215.081 2375.76 216.4 2376.31 217.033 2376.89 217.667 2378.03 218.933 2378.61 219.54 2379.19 220.147 2380.32 221.361 2380.9 221.967 2381.48 222.521 2382.64 223.63 2383.22 224.21 2383.83 224.685 2385.04 225.688 2385.65 226.189 2386.31 226.585 2387.65 227.377 2388.31 227.772 2389.07 227.983 2390.55 228.405 2391.32 228.616L2392.95 228.801 2394.53 229.039 2395.85 227.667 2397.25 226.347C2397.83 225.608 2399.02 224.131 2399.6 223.392L2400.65 221.651C2401.28 220.358 2402.52 217.772 2403.16 216.479 2403.63 215.767 2404.55 214.368 2405.03 213.656L2405.58 212.099C2406.08 211.492 2407.11 210.279 2407.61 209.672L2408.43 208.3C2409.04 207.745 2410.3 206.69 2410.91 206.136 2412.25 205.978 2414.94 205.635 2416.29 205.45 2417.08 205.793 2418.72 206.505 2419.53 206.848 2420.22 208.062 2421.62 210.49 2422.33 211.703 2422.62 212.759 2423.25 214.843 2423.57 215.872 2423.99 217.403 2424.86 220.437 2425.31 221.967L2426.47 226.928C2426.57 235.028 2426.39 243.181 2426.34 251.308L2426.13 253.841C2425.91 255.107 2425.49 257.588 2425.28 258.854 2424.7 260.385 2423.57 263.419 2422.99 264.95L2423.04 267.113 2422.25 269.092C2421.83 269.989 2421.01 271.731 2420.61 272.628L2419.8 274.343C2419.37 275.134 2418.56 276.717 2418.13 277.509 2417.71 278.221 2416.87 279.673 2416.45 280.411L2415.97 282.179C2415.71 283.103 2415.21 284.95 2414.94 285.873 2414.79 286.981 2414.44 289.171 2414.28 290.279 2414.02 291.942 2413.52 295.319 2413.26 297.008L2412.89 299.171 2414.84 300.359C2415 301.546 2415.34 303.921 2415.5 305.082 2414.86 308.539 2415.5 311.757 2417.32 314.739 2418.03 323.499 2418.95 332.734 2416.29 341.283 2415.79 342.022 2414.76 343.447 2414.26 344.159L2413.84 345.821C2413.28 346.375 2412.18 347.51 2411.62 348.09 2411.01 348.539 2409.75 349.462 2409.14 349.911L2407.56 350.228C2406.82 350.544 2405.29 351.151 2404.55 351.441 2403.63 351.362 2401.79 351.177 2400.89 351.098 2400.1 350.703 2398.52 349.885 2397.72 349.489 2396.99 348.961 2395.56 347.932 2394.82 347.404L2393.43 346.191C2392.82 345.584 2391.55 344.37 2390.95 343.763L2389.39 342.813C2388.71 342.233 2387.36 341.072 2386.67 340.491 2385.99 339.937 2384.62 338.803 2383.96 338.248 2383.25 337.694 2381.85 336.613 2381.16 336.058 2380.48 335.505 2379.11 334.423 2378.42 333.868L2376.71 333.051C2375.89 332.576 2374.23 331.573 2373.41 331.072L2371.62 330.069C2370.75 329.594 2368.98 328.644 2368.11 328.169L2366.29 327.246C2365.39 326.797 2363.65 325.927 2362.78 325.478L2360.99 324.66C2360.12 324.291 2358.43 323.526 2357.56 323.156L2355.85 322.47C2355.06 322.153 2353.47 321.52 2352.71 321.203L2350.86 321.098 2348.99 320.86C2345.96 315.873 2340.24 320.544 2345.25 324.106 2345.19 325.768 2345.11 329.119 2345.09 330.808 2345.06 331.89 2345.04 334.053 2345.01 335.161 2345.46 336.006 2346.33 337.721 2346.78 338.565L2347.33 340.65C2347.86 342.101 2348.94 344.95 2349.47 346.402L2350.31 348.249C2350.68 349.093 2351.47 350.755 2351.87 351.573L2352.58 353.183C2352.87 353.922 2353.4 355.426 2353.69 356.164 2353.87 356.903 2354.27 358.328 2354.48 359.067L2354.87 360.518 2352.76 360.703C2349.12 360.676 2345.48 360.624 2341.87 360.465L2339.92 359.964C2339.15 359.436 2337.6 358.354 2336.83 357.827 2336.15 357.246 2334.78 356.059 2334.07 355.478 2333.43 354.871 2332.14 353.605 2331.51 352.998 2330.9 352.312 2329.66 350.993 2329.05 350.333L2328.08 348.776C2327.47 348.143 2326.26 346.877 2325.65 346.243 2325.07 345.557 2323.91 344.185 2323.33 343.499 2322.73 342.813 2321.54 341.441 2320.96 340.755 2320.35 340.069 2319.14 338.671 2318.53 337.985 2317.93 337.272 2316.71 335.874 2316.11 335.161 2315.5 334.423 2314.26 332.945 2313.65 332.206L2312.39 330.65C2311.78 329.911 2310.57 328.407 2309.96 327.668 2309.36 326.955 2308.17 325.531 2307.56 324.818 2306.96 324.132 2305.77 322.734 2305.16 322.022 2304.56 321.309 2303.37 319.911 2302.76 319.198 2302.13 318.459 2300.92 316.982 2300.31 316.243L2299.05 314.66C2298.41 313.921 2297.2 312.444 2296.59 311.705 2295.96 310.992 2294.72 309.594 2294.09 308.908 2293.48 308.222 2292.22 306.876 2291.58 306.19 2290.95 305.531 2289.68 304.211 2289.05 303.525 2288.42 302.892 2287.13 301.572 2286.49 300.913 2285.86 300.28 2284.57 298.987 2283.93 298.327 2283.3 297.694 2282.04 296.428 2281.38 295.794 2280.74 295.161 2279.48 293.921 2278.85 293.287L2276.31 290.86C2275.65 290.279 2274.39 289.092 2273.76 288.512 2273.1 287.931 2271.78 286.797 2271.09 286.216 2270.38 285.688 2268.93 284.607 2268.19 284.053L2266.61 282.945C2265.77 282.443 2264.13 281.441 2263.29 280.913 2261.84 280.385 2258.96 279.303 2257.51 278.749 2256.35 278.67 2254.06 278.512 2252.92 278.433 2251.39 278.723 2248.39 279.33 2246.86 279.646L2244.91 280.306C2243.98 280.622 2242.16 281.229 2241.24 281.546L2239.29 281.942C2237.94 282.311 2235.28 283.05 2233.94 283.419 2232.41 280.86 2231.04 278.195 2229.85 275.477L2229.22 273.657C2228.74 272.944 2227.77 271.572 2227.26 270.886L2226.5 269.356C2225.97 268.723 2224.97 267.456 2224.47 266.823 2223.89 266.216 2222.78 264.976 2222.23 264.343 2221.65 263.736 2220.46 262.522 2219.88 261.915 2219.3 261.308 2218.11 260.068 2217.53 259.461L2216.06 258.432C2215.42 257.825 2214.16 256.611 2213.5 256.005 2212.92 255.398 2211.71 254.131 2211.1 253.524 2210.55 252.865 2209.44 251.572 2208.88 250.912 2208.38 250.226 2207.35 248.828 2206.85 248.142L2205.9 246.611 2205.24 244.976 2203.14 242.443C2202.05 241.598 2199.87 239.909 2198.76 239.065L2197.41 237.878 2195.86 238.353C2195.07 238.617 2193.48 239.118 2192.69 239.382L2190.95 240.015C2188.02 240.49 2185.89 242.047 2184.52 244.633L2183.2 246.295C2182.67 247.139 2181.59 248.828 2181.04 249.672L2180.01 251.546C2179.38 252.918 2178.11 255.662 2177.45 257.034 2177 257.799 2176.08 259.329 2175.6 260.094L2175.16 261.862C2174.73 262.601 2173.89 264.105 2173.44 264.87L2172.97 266.612C2172.52 267.377 2171.62 268.934 2171.17 269.725L2170.67 271.625 2169.83 273.525C2169.41 274.422 2168.54 276.269 2168.11 277.192L2167.24 279.092 2165.56 282.786 2164.71 284.712C2164.32 285.636 2163.55 287.483 2163.16 288.38L2162.47 290.332 2160.65 291.203 2160.63 293.314 2160.55 295.504 2159.86 297.694C2159.28 299.198 2158.09 302.206 2157.51 303.71L2157.57 306.032C2157.36 307.219 2156.93 309.567 2156.72 310.729 2154.77 314.871 2155.17 319.699 2158.12 323.314L2159.04 325.082C2159.54 325.847 2160.55 327.351 2161.05 328.09 2161.63 328.724 2162.79 329.99 2163.39 330.623 2163.97 331.204 2165.19 332.364 2165.79 332.945 2166.4 333.499 2167.59 334.634 2168.17 335.214L2169.62 336.138C2170.25 336.718 2171.54 337.853 2172.18 338.407L2174.6 340.729C2175.18 341.336 2176.32 342.549 2176.9 343.156 2177.42 343.842 2178.48 345.161 2179.01 345.821 2179.43 346.613 2180.32 348.196 2180.77 348.987L2181.46 350.914 2181.46 357.299 2179.43 357.827C2175.87 358.592 2172.36 359.595 2168.91 360.65L2166.88 361.099 2166.37 362.682 2163.97 365.083C2163.32 365.505 2162.02 366.349 2161.36 366.798L2163.53 367.167C2163.37 368.856 2163 372.26 2162.81 373.975 2163.03 375.531 2163.45 378.671 2163.66 380.228 2163.71 382.049 2163.76 385.637 2163.79 387.431 2162.47 387.827 2159.86 388.645 2158.57 389.041L2156.62 389.463C2155.75 389.173 2154.01 388.592 2153.14 388.328 2150.13 388.276 2147.18 388.408 2144.22 388.724 2142.4 388.751 2138.74 388.777 2136.92 388.777 2135.31 389.173 2132.07 389.964 2130.46 390.36L2128.19 390.993C2126.55 391.389 2123.34 392.233 2121.73 392.629 2120.52 392.735 2118.12 392.972 2116.93 393.078 2115.74 392.999 2113.42 392.867 2112.26 392.788 2111.23 392.471 2109.2 391.811 2108.2 391.468 2107.44 391.02 2105.88 390.096 2105.12 389.621 2104.53 389.067 2103.35 387.906 2102.74 387.326L2100.84 384.476 2100.03 382.761 2099.79 380.782C2099.66 376.904 2098.89 373.104 2097.42 369.542 2096.44 365.346 2095.94 361.072 2095.91 356.771L2096.25 354.423C2095.73 352.972 2094.67 350.017 2094.15 348.565L2093.67 346.323C2093.2 344.819 2092.22 341.784 2091.75 340.254L2091.09 338.09C2090.56 336.56 2089.53 333.552 2089 332.048L2088.34 329.884C2087.82 328.407 2086.79 325.451 2086.26 324L2085.63 321.969 2085.5 319.963C2085.07 319.172 2084.26 317.589 2083.86 316.797L2083.25 314.818C2082.75 313.393 2081.72 310.57 2081.2 309.145L2080.46 307.193 2078.98 303.499 2078.22 301.52C2077.69 300.069 2076.63 297.14 2076.08 295.689L2075.37 293.578C2074.79 292.153 2073.58 289.277 2073 287.852 2072.44 286.427 2071.33 283.578 2070.78 282.153L2069.99 280.148C2069.15 279.013 2067.48 276.744 2066.64 275.609 2065.8 275.398 2064.14 274.976 2063.29 274.765L2061.58 274.739C2060.76 274.87 2059.12 275.108 2058.31 275.213L2056.7 275.741C2055.91 276.031 2054.33 276.638 2053.56 276.955L2051.95 277.667C2051.13 278.037 2049.55 278.802 2048.76 279.171L2047.05 279.937C2046.2 280.332 2044.46 281.124 2043.59 281.52L2041.67 282.311C2040.22 282.865 2037.29 283.947 2035.81 284.475L2033.65 285.161 2031.44 285.055C2028.09 284.422 2025.11 285.161 2022.5 287.272 2014.22 288.037 2006.04 288.169 1997.87 287.245L1996.86 284.976 1994.81 285.24C1993.2 285.214 1989.95 285.214 1988.32 285.187L1986.21 284.791C1985.37 284.316 1983.65 283.393 1982.78 282.945 1981.67 282.891 1979.49 282.786 1978.38 282.733L1976.19 282.153C1974.69 281.678 1971.65 280.755 1970.15 280.279L1968.01 279.752C1966.67 278.986 1963.95 277.43 1962.58 276.638 1962.34 277.773 1961.87 280.016 1961.63 281.124 1960.45 294.924 1960.1 308.802 1959.42 322.628L1961.53 328.961C1961.9 330.069 1962.61 332.285 1962.98 333.42 1963.69 334.739 1965.14 337.404 1965.88 338.75 1966.43 339.436 1967.57 340.834 1968.12 341.547 1968.7 342.127 1969.83 343.315 1970.39 343.922 1970.94 344.476 1972.08 345.584 1972.63 346.164 1973.18 346.718 1974.32 347.827 1974.9 348.407 1975.5 348.987 1976.69 350.148 1977.3 350.729L1978.54 352.048C1979.09 352.761 1980.22 354.212 1980.78 354.924L1981.07 356.903C1981.17 357.932 1981.36 360.043 1981.46 361.072L1981.78 363.156C1981.02 363.632 1979.51 364.581 1978.75 365.056L1977.27 366.402C1976.03 367.167 1973.53 368.698 1972.29 369.463L1970.33 369.674C1969.54 370.096 1967.96 370.993 1967.17 371.415L1965.14 371.969C1961.9 371.679 1958.92 372.392 1956.2 374.107 1954.3 374.397 1950.5 374.924 1948.63 375.188L1946.13 375.188C1942.8 374.977 1939.51 374.924 1936.18 375.004 1934.5 374.661 1931.1 373.948 1929.41 373.605 1928.54 373.157 1926.8 372.233 1925.93 371.785L1924.24 368.091C1922.31 360.544 1921.63 352.866 1920.73 345.215L1920.6 342.866 1920.47 340.597 1918.89 340.043C1918.41 339.304 1917.49 337.879 1917.04 337.14L1916.04 335.663C1915.51 334.95 1914.46 333.552 1913.93 332.84 1913.32 332.206 1912.16 330.913 1911.58 330.254 1910.95 329.647 1909.68 328.38 1909.05 327.773 1908.36 327.14 1907.02 325.9 1906.36 325.293L1904.94 323.974C1904.3 323.314 1903.01 322.022 1902.38 321.362 1901.8 320.676 1900.66 319.304 1900.11 318.591L1899.29 317.035C1898.69 316.507 1897.5 315.425 1896.92 314.897L1897.13 312.628C1896.55 311.071 1895.42 307.958 1894.86 306.428 1894.6 305.214 1894.12 302.813 1893.89 301.599L1893.57 299.251C1892.99 292.997 1891.93 286.876 1890.43 280.834 1890.01 280.095 1889.14 278.591 1888.69 277.826 1888.01 277.351 1886.63 276.401 1885.92 275.926L1884.34 275.108C1881.62 272.021 1876.96 274.264 1878.38 278.406 1878.3 284.976 1877.72 291.52 1876.61 298.011 1875.14 301.625 1874.56 305.531 1874.85 309.462 1874.66 310.57 1874.32 312.839 1874.13 313.974 1872.24 316.507 1871.58 319.304 1872.16 322.417L1871.66 324.581C1871.15 326.058 1870.21 329.014 1869.73 330.491L1869.07 332.629C1868.57 334.133 1867.62 337.14 1867.12 338.644L1866.51 340.834C1864.51 343.447 1863.96 346.349 1864.83 349.542L1865.12 351.837C1865.17 353.051 1865.27 355.452 1865.33 356.666 1864.9 359.806 1865.64 362.655 1867.57 365.215L1868.12 367.115C1868.6 367.853 1869.52 369.305 1869.99 370.043 1870.44 370.782 1871.34 372.286 1871.79 373.051L1872.68 374.608C1873.13 375.373 1873.98 376.904 1874.42 377.642 1874.82 378.434 1875.66 379.991 1876.09 380.782L1876.82 382.497 1877.98 386.086 1878.3 388.091C1878.17 389.094 1877.85 391.099 1877.69 392.102 1877.14 392.867 1876.03 394.397 1875.51 395.162L1874.19 396.455C1873.5 397.009 1872.16 398.091 1871.5 398.645 1870.79 399.067 1869.39 399.964 1868.68 400.413L1867.15 401.046C1866.59 401.548 1865.51 402.55 1864.96 403.052 1860.11 403.184 1850.43 403.395 1845.6 403.5L1843.23 402.919C1842.36 402.445 1840.62 401.468 1839.75 400.994L1837.72 400.809 1835.87 399.938C1835.05 399.49 1833.42 398.619 1832.57 398.17 1831.89 397.669 1830.46 396.666 1829.78 396.165L1828.14 395.452C1827.41 394.951 1825.98 393.948 1825.27 393.447 1824.56 392.919 1823.16 391.891 1822.47 391.363L1821.05 390.281C1820.44 389.727 1819.2 388.592 1818.6 388.012 1818.07 387.405 1817.04 386.191 1816.54 385.584 1816.15 384.845 1815.38 383.394 1815.01 382.682 1814.83 381.785 1814.46 380.043 1814.27 379.173 1814.35 378.276 1814.48 376.455 1814.56 375.558L1814.93 373.632C1815.12 372.629 1815.49 370.624 1815.7 369.621 1815.59 360.835 1815.83 352.127 1816.51 343.394L1816.86 341.045C1816.3 339.568 1815.17 336.665 1814.62 335.188L1814.11 332.945C1813.72 331.336 1812.93 328.117 1812.53 326.534L1812.01 324.159 1811.56 321.757C1811.5 314.871 1811.35 308.011 1811.11 301.151L1811 298.617C1810.79 295.266 1810.63 291.942 1810.48 288.591 1810.21 287.588 1809.66 285.609 1809.37 284.607L1808.63 282.654C1808.26 281.757 1807.55 279.963 1807.18 279.039L1806.49 277.166 1806.44 275.187C1806.07 274.343 1805.31 272.654 1804.91 271.81 1804.6 270.121 1803.96 266.717 1803.65 265.029 1804.07 261.783 1803.41 258.775 1801.64 256.031L1801.04 253.788 1801.19 251.546C1800.61 250.121 1799.45 247.271 1798.87 245.846L1798.37 243.656C1797.92 242.152 1796.97 239.171 1796.5 237.667L1795.84 235.529C1795.34 234.052 1794.34 231.123 1793.84 229.646L1793.18 227.508C1792.68 226.057 1791.67 223.128 1791.17 221.677L1790.54 219.513C1790.06 218.036 1789.14 215.028 1788.67 213.55 1788.4 212.416 1787.9 210.173 1787.64 209.065 1787.19 207.534 1786.24 204.5 1785.79 202.97L1785.16 200.78C1784.71 199.223 1783.84 196.162 1783.39 194.632 1783.16 193.523 1782.68 191.281 1782.47 190.173L1782.65 187.983C1783.39 184.948 1782.81 182.23 1780.86 179.803 1779.52 177.349 1778.33 174.79 1777.35 172.178L1777.12 170.225C1776.7 170.674 1775.85 171.571 1775.43 171.993 1774.98 172.415 1774.03 173.286 1773.56 173.708 1773.03 174.157 1772 175.08 1771.5 175.529 1770.95 176.056 1769.87 177.086 1769.34 177.613 1768.78 178.22 1767.7 179.434 1767.18 180.014 1766.65 180.727 1765.62 182.099 1765.12 182.785L1764.06 184.289C1763.56 185.027 1762.56 186.479 1762.06 187.217 1761.56 187.904 1760.56 189.276 1760.06 189.988L1759.37 191.703C1758.92 192.547 1758 194.236 1757.55 195.107L1756.63 197.033C1755.99 198.537 1754.7 201.518 1754.07 203.022L1753.3 205.292C1751.33 208.168 1750.72 211.281 1751.54 214.659 1751.91 218.009 1752.14 221.387 1752.25 224.791L1754.78 230.49C1755.33 231.229 1756.42 232.706 1756.97 233.445 1757.52 234.105 1758.6 235.424 1759.16 236.084 1759.71 236.743 1760.79 238.063 1761.32 238.722 1761.87 239.408 1762.98 240.78 1763.54 241.493L1764.67 242.996C1765.25 243.735 1766.36 245.213 1766.91 245.952 1767.47 246.69 1768.6 248.168 1769.18 248.907 1769.76 249.672 1770.89 251.202 1771.47 251.994L1772.66 253.63C1773.21 254.422 1774.35 255.978 1774.93 256.77 1775.48 257.535 1776.59 259.039 1777.14 259.804L1778.01 261.467C1778.57 262.126 1779.7 263.472 1780.26 264.132 1780.78 264.844 1781.81 266.216 1782.34 266.928 1782.84 267.614 1783.84 268.986 1784.34 269.672L1785.11 271.124C1785.56 271.783 1786.45 273.05 1786.9 273.683L1788.27 276.322C1788.59 276.981 1789.22 278.327 1789.54 279.013L1790.22 280.385C1789.41 281.572 1787.8 283.921 1787.01 285.108L1784.71 285.081 1782.47 284.976C1781.02 285.609 1778.07 286.876 1776.59 287.509 1775.35 287.641 1772.84 287.905 1771.61 288.01 1767.47 287.615 1763.35 287.245 1759.24 286.876L1757.26 285.926C1756.44 285.398 1754.86 284.316 1754.04 283.762 1753.41 283.129 1752.14 281.863 1751.48 281.229 1750.93 280.517 1749.85 279.092 1749.3 278.38L1748.27 276.796C1747.77 275.978 1746.79 274.395 1746.32 273.577L1745.37 271.915 1744.65 270.2C1744.15 269.488 1743.18 268.116 1742.7 267.43 1742.23 266.717 1741.28 265.292 1740.8 264.606 1740.33 263.868 1739.38 262.443 1738.91 261.73 1738.43 260.939 1737.46 259.382 1736.98 258.617L1736.08 256.849C1735.69 255.899 1734.87 254.026 1734.48 253.102L1733.82 250.939C1733.74 249.778 1733.58 247.429 1733.5 246.269 1733.63 245.107 1733.92 242.812 1734.05 241.651 1734.29 240.622 1734.79 238.617 1735.06 237.588L1735.58 235.529C1735.93 234.553 1736.59 232.627 1736.93 231.677 1737.4 226.611 1737.72 221.519 1738.04 216.453 1738.22 215.212 1738.62 212.732 1738.83 211.492 1739.3 210.542 1740.28 208.669 1740.78 207.745 1740.83 206.611 1740.96 204.342 1741.02 203.207L1741.75 201.096C1742.12 200.146 1742.89 198.247 1743.26 197.297L1744.05 195.423C1744.5 194.632 1745.42 193.049 1745.87 192.284L1746.32 190.463C1746.79 189.724 1747.77 188.22 1748.24 187.481L1748.87 185.687C1749.35 184.869 1750.35 183.207 1750.83 182.389L1751.88 180.647C1752.41 179.829 1753.46 178.194 1754.02 177.349 1754.54 176.558 1755.62 174.922 1756.18 174.104L1757.31 172.415C1757.87 171.65 1758.97 170.093 1759.53 169.302 1760.08 168.563 1761.16 167.085 1761.72 166.346 1762.3 165.687 1763.46 164.341 1764.04 163.682L1764.91 162.046C1765.49 161.333 1766.62 159.909 1767.2 159.196 1767.78 158.484 1768.94 157.085 1769.52 156.373 1770.13 155.66 1771.32 154.209 1771.9 153.497 1772.5 152.758 1773.69 151.254 1774.3 150.515L1775.53 148.932C1776.14 148.193 1777.38 146.716 1777.99 145.977 1778.57 145.264 1779.78 143.84 1780.39 143.127 1780.99 142.441 1782.18 141.043 1782.79 140.33 1783.37 139.618 1784.58 138.193 1785.19 137.481 1785.79 136.742 1787.01 135.264 1787.61 134.526L1788.85 132.942C1789.48 132.204 1790.72 130.726 1791.33 129.987 1791.94 129.275 1793.15 127.85 1793.76 127.138 1794.36 126.451 1795.58 125.053 1796.18 124.367 1796.79 123.681 1798 122.283 1798.61 121.597 1799.19 120.884 1800.38 119.512 1800.96 118.8 1801.59 118.166 1802.83 116.847 1803.43 116.214L1804.41 114.578C1805.02 113.865 1806.23 112.441 1806.86 111.702 1807.47 111.016 1808.71 109.591 1809.34 108.879 1809.95 108.166 1811.21 106.768 1811.82 106.055 1812.43 105.369 1813.67 103.945 1814.3 103.232 1814.88 102.546 1816.09 101.121 1816.7 100.409 1817.33 99.7495 1818.6 98.4565 1819.2 97.7968L1820.21 96.1609C1820.81 95.4485 1822.05 94.0237 1822.69 93.3112 1823.32 92.5988 1824.58 91.2003 1825.22 90.5143 1825.85 89.8282 1827.14 88.4565 1827.78 87.7704 1828.43 87.1107 1829.73 85.765 1830.39 85.0789 1831.05 84.4192 1832.34 83.0735 1833 82.4138 1833.66 81.7545 1834.97 80.4351 1835.63 79.7491L1838.27 77.1103C1838.93 76.451 1840.27 75.1316 1840.93 74.472 1841.59 73.8386 1842.94 72.5193 1843.6 71.8596 1844.28 71.2003 1845.63 69.9073 1846.29 69.2476 1846.97 68.6143 1848.34 67.3213 1849.03 66.688 1849.74 66.055 1851.14 64.7884 1851.85 64.1551 1852.56 63.5218 1853.99 62.2819 1854.73 61.675L1856.36 60.6988C1857.02 60.0919 1858.36 58.8516 1859.02 58.2183 1859.74 57.6377 1861.19 56.477 1861.93 55.8964 1862.64 55.2895 1864.09 54.1287 1864.83 53.5481 1865.56 52.9676 1867.04 51.8332 1867.78 51.2526L1869.44 50.4083C1870.13 49.8278 1871.5 48.6934 1872.18 48.1392 1872.92 47.6114 1874.4 46.6088 1875.16 46.081L1876.82 45.3686C1877.54 44.8408 1878.96 43.8119 1879.67 43.284 1880.46 42.8093 1882.1 41.8592 1882.92 41.3845L1884.71 40.4347C1885.61 39.986 1887.4 39.0626 1888.3 38.5875L1890.27 37.6641C1891.7 37.0044 1894.55 35.7378 1895.97 35.0781L1897.97 34.8144C1898.76 34.3393 1900.37 33.4423 1901.16 32.9675L1903.14 32.2815C1904.62 31.78 1907.57 30.7511 1909.05 30.2233L1911.21 29.5373C1912.77 29.0622 1915.83 28.1388 1917.36 27.6904 1918.52 27.4527 1920.81 27.0044 1921.94 26.7667 1925.19 27.4 1928.19 26.8194 1930.96 25.0253 1932.81 24.7616 1936.5 24.2338 1938.35 23.9701L1940.83 23.7323C1954.7 23.9173 1968.65 24.2865 1982.57 23.8378L1985.05 23.9173C1989.59 24.1547 1998.71 24.603 2003.25 24.8407 2010.73 25.4477 2018.38 26.292 2025.95 26.6875L2028.4 26.5821C2033.49 26.4238 2038.64 26.292 2043.75 26.5821 2046.99 27.2945 2049.95 26.6348 2052.66 24.6294L2054.83 24.0755C2055.91 23.9964 2058.07 23.8906 2059.15 23.8378 2059.97 23.3367 2061.58 22.3602 2062.39 21.8591L2064.48 21.3577C2065.98 20.8826 2068.99 19.9328 2070.46 19.4581L2072.65 18.7984C2074.18 18.297 2077.24 17.3208 2078.77 16.8194L2080.96 16.2124C2082.04 16.1597 2084.23 16.0278 2085.34 15.9751 2086.15 15.4736 2087.79 14.4975 2088.61 13.996L2090.72 13.495C2092.22 12.9935 2095.25 12.0437 2096.76 11.5423L2098.97 10.8826C2100.5 10.3815 2103.61 9.35225 2105.17 8.8508L2107.38 8.21785C2108.49 8.2706 2110.73 8.34972 2111.87 8.37609L2114 8.45521 2114.82 6.21243Z" stroke="#000000" stroke-width="0.24685" stroke-miterlimit="8" fill-rule="evenodd"/></g></svg>