<svg width="532" height="639" xmlns="http://www.w3.org/2000/svg" xmlns:xlink="http://www.w3.org/1999/xlink" xml:space="preserve" overflow="hidden"><defs><clipPath id="clip0"><rect x="2285" y="534" width="532" height="639"/></clipPath></defs><g clip-path="url(#clip0)" transform="translate(-2285 -534)"><path d="M2640.64 1168.47C2637.17 1165.1 2634.81 1161.56 2634.81 1159.71 2634.81 1158 2633.91 1155.86 2632.81 1154.96 2631.17 1153.59 2630.39 1154.21 2628.35 1158.56 2626.84 1161.77 2624.78 1163.97 2623.05 1164.22 2620.66 1164.56 2619.96 1163.5 2618.6 1157.61 2616.46 1148.36 2611.02 1139.31 2604.41 1133.99 2595.47 1126.82 2581.74 1110.08 2567.61 1089.11 2560.23 1078.18 2552.58 1067.72 2550.58 1065.88L2546.96 1062.53 2536.35 1065.75C2530.51 1067.53 2522.35 1069.7 2518.21 1070.58 2509.78 1072.38 2507.81 1075.34 2513.35 1077.87 2515.27 1078.74 2516.83 1080.06 2516.83 1080.8 2516.83 1081.54 2518.11 1083.33 2519.66 1084.78L2522.48 1087.41 2518.08 1088.94C2509.17 1092.05 2493.2 1090.82 2475.1 1085.63 2461.1 1081.62 2457.6 1081.05 2454.79 1082.33 2451.98 1083.61 2450.37 1083.37 2445.71 1080.98 2442.57 1079.39 2440.01 1077.6 2440.01 1077.02 2440.01 1076.43 2436.85 1072.04 2433 1067.25 2424.88 1057.18 2418.06 1039.46 2418.06 1028.42 2418.06 1024.73 2417.17 1017.9 2416.08 1013.26 2410.88 991.118 2409.61 969.345 2412.72 955.741L2414.54 947.799 2409.29 942.989C2404.73 938.82 2404.15 937.614 2404.88 933.937 2405.63 930.239 2405.03 929.042 2400.24 924.626 2397.22 921.838 2394.74 918.336 2394.74 916.845 2394.74 915.352 2393.2 912.678 2391.3 910.9 2389.4 909.11 2388.16 906.711 2388.53 905.521 2389.02 903.956 2385.95 901.631 2377.2 896.952 2365.4 890.64 2363.04 888.701 2352.78 876.91 2349.96 873.666 2344.97 869.443 2341.7 867.528 2334.88 863.534 2334.37 862.212 2339.19 861.003 2344.15 859.759 2343.45 856.349 2336.85 849.625 2332.71 845.418 2331.74 843.747 2333.42 843.747 2336.1 843.747 2336.44 842.236 2334.26 840.055 2333.17 838.972 2333.4 837.575 2335.09 835.005 2337.33 831.59 2337.28 831.228 2333.91 825.474 2331.24 820.916 2330.78 819.112 2332 817.893 2333.22 816.675 2333.22 815.271 2331.98 812 2329.96 806.659 2330.71 805.367 2335.84 805.367 2341.24 805.367 2340.93 803.929 2334.39 798.677 2331.37 796.255 2328.9 793.685 2328.9 792.965 2328.9 790.735 2335.61 791.526 2341.3 794.429 2348.04 797.866 2348.71 795.435 2342.62 789.604 2337.86 785.054 2337.59 783.728 2340.9 781.271 2342.92 779.774 2343.03 779.043 2341.59 776.683 2340.65 775.141 2339.87 773.56 2339.87 773.173 2339.87 772.001 2347.14 772.383 2352.14 773.816 2354.72 774.557 2357.14 774.859 2357.52 774.485 2357.89 774.111 2356.78 770.39 2355.05 766.216 2353.32 762.04 2352.22 758.302 2352.62 757.907 2353.82 756.705 2360.58 760.805 2372.11 769.728 2378.15 774.399 2384.78 779.101 2386.86 780.178 2390.18 781.901 2390.63 781.885 2390.63 780.043 2390.63 778.629 2391.97 777.952 2394.78 777.952L2398.93 777.952 2396.68 773.497C2395.44 771.047 2393.33 767.81 2392 766.301 2390.66 764.793 2389.15 762.162 2388.63 760.452 2388.11 758.743 2385.23 756.094 2382.23 754.564 2372.99 749.856 2373.74 745.225 2383.77 744.979 2395.74 744.687 2392.83 742.79 2372.81 737.834 2354.06 733.193 2334.39 725.613 2334.39 723.034 2334.39 722.471 2337.62 721.611 2341.59 721.123 2352.88 719.733 2356.33 718.892 2356.33 717.532 2356.33 716.838 2355.22 716.27 2353.86 716.27 2352.5 716.27 2349.29 714.111 2346.73 711.472 2344.17 708.834 2341.35 706.675 2340.47 706.675 2339.58 706.675 2336.15 704.213 2332.85 701.203 2327.48 696.319 2327.1 695.576 2329.24 694.28 2331.39 692.987 2331.44 692.435 2329.71 689.103 2328.65 687.053 2324.33 683 2320.11 680.095 2315.89 677.191 2312.44 674.345 2312.44 673.77 2312.44 673.197 2313.75 672.383 2315.36 671.963 2317.38 671.434 2318.07 670.432 2317.59 668.718 2315.75 662.224 2315.78 662.176 2321.35 661.439L2326.84 660.714 2312.15 651.024C2304.07 645.696 2294.66 638.753 2291.23 635.596 2285.97 630.751 2285 629.059 2285 624.727 2285 620.219 2285.67 619.184 2290.49 616.207 2296.58 612.447 2296.89 611.819 2293.92 609.353 2289.95 606.063 2291.96 605.241 2303.98 605.241 2310.64 605.241 2316.48 604.851 2316.96 604.376 2317.44 603.899 2317.18 602.304 2316.39 600.831 2314.47 597.239 2315.8 596.236 2319.98 598.136 2324.28 600.096 2324.28 599.346 2319.98 593.713 2315.83 588.285 2315.61 585.161 2319.29 583.995 2322.56 582.958 2322.77 581.513 2319.98 579.198 2316.9 576.646 2317.48 575.085 2321.51 575.085 2327.04 575.085 2323.32 571.623 2315.76 569.719 2312.35 568.863 2309.94 567.561 2310.39 566.826 2311.47 565.082 2318.21 565.131 2328.09 566.955 2332.45 567.762 2336.36 568.079 2336.78 567.661 2337.2 567.243 2334 565.279 2329.67 563.299 2320.14 558.94 2320.93 557.46 2333.98 555.259L2343.3 553.688 2338.85 549.452C2333.41 544.28 2335.08 543.134 2346.15 544.434 2350.24 544.913 2353.58 544.922 2353.58 544.452 2353.58 543.981 2351.27 541.445 2348.44 538.816L2343.3 534.038 2348.17 534C2350.84 533.98 2353.67 534.603 2354.46 535.385 2355.24 536.167 2361.18 537.059 2367.65 537.369 2377.83 537.853 2380.76 538.604 2389.31 542.903 2395.31 545.921 2399.69 547.383 2400.45 546.62 2402.55 544.521 2415.68 547.344 2427.66 552.468 2440.38 557.91 2441.01 558.064 2438.61 555.178 2436 552.043 2438.18 550.996 2443.14 552.993 2452.9 556.917 2474.31 564.12 2476.21 564.12 2477.33 564.12 2480.5 566.433 2483.25 569.26 2488.33 574.483 2488.68 573.97 2485.62 565.833 2484.61 563.128 2490 563.804 2493.89 566.871 2497.99 570.091 2508.55 589.018 2508.68 593.353 2508.73 594.99 2509.84 599.725 2511.17 603.87L2513.57 611.41 2514.55 599.758C2515.12 593.005 2514.93 585.003 2514.11 580.723 2511.77 568.405 2512.08 566.86 2516.89 566.86 2519.5 566.86 2522.33 568.126 2524.43 570.226L2527.79 573.59 2527.79 570.226C2527.79 567.914 2528.57 566.86 2530.24 566.86 2534.35 566.86 2538.66 570.835 2542.25 577.922 2544.14 581.639 2545.83 584.68 2546.04 584.68 2546.24 584.68 2546.54 581.187 2546.7 576.917 2546.86 572.65 2547.31 568.839 2547.69 568.452 2548.78 567.381 2552.14 572.366 2554.51 578.511L2556.62 583.994 2556 578.511C2555.65 575.496 2554.97 571.641 2554.47 569.945 2553.11 565.402 2555.23 566.158 2561.86 572.587 2566.5 577.083 2567.58 578.995 2566.96 581.495 2565.9 585.75 2568.08 585.538 2570.99 581.106 2575.06 574.892 2576.11 578.963 2575.6 598.931 2575.33 609.186 2575.57 617.577 2576.12 617.577 2577.54 617.577 2580.76 610.965 2582.53 604.391 2584.1 598.589 2588.74 591.533 2591 591.533 2591.71 591.533 2592.28 594.549 2592.28 598.234 2592.28 603.775 2592.69 604.902 2594.68 604.746 2596.84 604.573 2597.02 605.858 2596.56 617.919 2596.07 631.327 2597.22 634.517 2600.19 627.978 2601.03 626.161 2602.11 622.501 2602.61 619.845 2603.11 617.188 2604.69 613.954 2606.13 612.656 2608.64 610.391 2608.74 610.455 2608.87 614.28 2609 618.254 2609 618.253 2611.08 613.21 2612.22 610.432 2614.08 607.806 2615.19 607.375 2616.93 606.709 2617.17 608.443 2616.76 618.938 2616.33 629.936 2616.54 631.286 2618.66 631.284 2620.4 631.284 2621.32 632.866 2622.03 637.109L2623.02 642.934 2624.5 636.178C2626.12 628.813 2628.51 626.676 2629.75 631.463 2630.53 634.406 2626.82 652.878 2623.94 660.44 2623.17 662.497 2622.96 664.165 2623.52 664.146 2625.41 664.082 2637.36 647.034 2640.24 640.311 2644.09 631.333 2646.37 633.552 2643.7 643.648 2641.02 653.672 2641.03 655.441 2643.75 653.188 2646.56 650.854 2647.43 652.042 2647.41 658.265 2647.41 661.142 2648.06 664.293 2648.86 665.266 2649.93 666.565 2649.52 668.121 2647.32 671.093L2644.32 675.147 2647.94 675.147C2650.47 675.147 2651.33 675.72 2650.82 677.069 2650.37 678.227 2651.17 679.276 2652.86 679.713 2656.57 680.687 2655.49 683.954 2647 697.466 2643.3 703.334 2640.29 708.454 2640.29 708.845 2640.29 709.937 2649.81 702.67 2657.17 695.963 2660.82 692.654 2664.14 690.301 2664.58 690.732 2665 691.163 2664.58 694.327 2663.61 697.763 2661.61 704.922 2662.16 706.173 2666.35 703.932 2670.57 701.668 2671.13 703.012 2668.59 709.385 2667.36 712.447 2666.39 716.021 2666.43 717.325 2666.49 718.629 2667.81 716.456 2669.36 712.498 2672.64 704.205 2676.88 702.291 2675.46 709.757 2672.84 723.363 2671.86 726.368 2668.25 731.661 2661.58 741.446 2661.62 741.319 2664.82 740.303 2667 739.613 2667.72 739.971 2667.72 741.749 2667.72 746.014 2661.09 752.917 2649.91 760.287 2643.86 764.273 2638.91 767.957 2638.91 768.472 2638.91 769.725 2649.55 766.004 2653.13 763.498 2657 760.793 2658.12 760.987 2658.12 764.364 2658.12 769.2 2644.4 786.621 2637.81 790.141 2633.79 792.297 2633.99 794.401 2638.22 794.401 2647.43 794.401 2637.81 804.297 2626.91 806.044 2623.71 806.558 2621.07 807.578 2621.07 808.31 2621.07 809.042 2621.7 809.26 2622.45 808.794 2623.21 808.327 2623.82 808.585 2623.82 809.367 2623.82 810.148 2622.13 811.84 2620.05 813.128 2617.97 814.414 2614.93 816.653 2613.29 818.1 2611.65 819.548 2609.73 820.381 2609.05 819.951 2607 818.685 2600.3 826.551 2601.28 829.087 2602.56 832.458 2595.26 838.232 2590.83 837.352 2588.6 836.912 2586.66 837.453 2585.52 838.831 2584.38 840.2 2581.52 841.006 2577.81 841.006 2573.05 841.006 2571.34 841.714 2569.06 844.617 2567.49 846.604 2566.2 849.091 2566.2 850.144 2566.2 852.821 2562.82 853.828 2559.6 852.106 2555.89 850.12 2553.25 853.407 2554.32 858.704 2555.38 863.96 2552.8 864.864 2546.46 861.469 2538.61 857.26 2537.41 857.82 2537.41 865.679 2537.41 873.153 2536.51 873.976 2532.93 869.791 2529.87 866.233 2527.81 866.303 2527.81 869.965 2527.81 872.966 2526.26 873.056 2512.06 870.889 2510.15 870.595 2509.34 871.271 2509.33 873.217 2509.28 875.689 2508.41 875.945 2500.37 875.82 2495.47 875.743 2489.78 875.214 2487.74 874.644 2484.44 873.72 2483.94 874.033 2483.16 877.524 2482.7 879.68 2481.48 883.624 2480.49 886.291 2478.31 892.148 2476.39 904.059 2477.63 904.059 2478.13 904.059 2481.1 902.749 2484.25 901.148 2497.81 894.23 2509.02 891.565 2534.67 889.163 2547.62 887.949 2565.54 890.708 2578.95 895.982 2592.45 901.297 2631.38 918.079 2632.77 919.186 2634.23 920.367 2651.48 924.619 2654.79 924.619 2659.28 924.619 2656.53 916.479 2645.69 897.642 2640.49 888.604 2645.85 887.745 2651.39 896.726 2656.34 904.711 2655.84 900.789 2650.6 890.388 2646.11 881.468 2645.8 880.184 2647.37 876.646 2648.77 873.48 2649.56 872.991 2651.55 874.056 2654.8 875.796 2654.73 874.017 2651.17 865.765 2649.45 861.747 2648.51 857.1 2648.79 853.859L2649.24 848.543 2657.07 856.356C2661.39 860.653 2665.28 863.573 2665.73 862.845 2666.17 862.117 2667.18 861.917 2667.97 862.4 2669.54 863.363 2669.3 862.457 2664.2 847.171 2661.68 839.609 2661.39 837.489 2662.83 837.161 2663.93 836.916 2664.4 835.658 2663.99 834.078 2663 830.273 2665.66 830.778 2669.73 835.165 2673.11 838.801 2673.21 838.824 2673.21 835.892 2673.21 833.93 2673.85 833.113 2675.05 833.568 2677.38 834.464 2681.45 842.902 2681.45 846.876 2681.45 848.547 2682.79 852.072 2684.42 854.711 2689.26 862.564 2701.08 895.466 2706.83 917.079 2710.48 930.776 2712.99 936.212 2712.99 930.375 2712.99 928.715 2713.61 927.359 2714.37 927.359 2715.12 927.359 2715.75 926.125 2715.75 924.617 2715.75 921.122 2717.72 921.148 2722.72 924.711L2726.72 927.546 2726.72 923.383C2726.72 920.245 2727.22 919.415 2728.77 920.009 2731.59 921.088 2731.42 918.332 2727.83 904.685 2725.62 896.261 2725.2 892.476 2726.21 890.219 2727.48 887.361 2727.88 887.693 2732.29 895.266L2737.01 903.372 2737.4 890.164C2737.65 881.37 2737.14 875.067 2735.84 871.296 2734.49 867.402 2734.09 862.109 2734.55 854.346 2734.99 846.858 2734.64 841.675 2733.46 838.947 2732.51 836.685 2731.65 832.059 2731.58 828.667 2731.49 825.275 2730.92 820.802 2730.29 818.729 2728.59 813.05 2732.22 813.867 2737.02 820.241 2739.55 823.605 2741.82 825.306 2743.27 824.927 2745.57 824.326 2747.23 827.829 2747.28 833.372 2747.29 834.828 2749.84 842.229 2752.96 849.821 2763.26 874.887 2765.45 889.148 2765.48 930.786 2765.48 940.587 2765.04 950.831 2764.5 953.551 2763.04 960.823 2767.43 968.314 2781.8 982.98 2798.37 999.917 2799.75 1003.75 2800.14 1034.28 2800.32 1046.71 2800.52 1057.38 2800.61 1057.98 2800.71 1058.57 2803.36 1061.43 2806.49 1064.32 2809.63 1067.22 2812.33 1070.74 2812.48 1072.15 2812.64 1073.56 2813.81 1077.08 2815.08 1079.98 2816.36 1082.88 2817.21 1085.84 2816.96 1086.55 2816.72 1087.27 2813.56 1086.29 2809.96 1084.37 2802.12 1080.21 2802.16 1080.21 2802.16 1083.38 2802.16 1087.65 2796.16 1091.81 2782.94 1096.72 2765.11 1103.35 2757.74 1103.19 2738.98 1095.79 2731.11 1092.69 2720.22 1088.99 2714.81 1087.56 2697.44 1083 2680.09 1075.58 2668.31 1067.67 2657.05 1060.11 2656.76 1060 2653.35 1062.23 2646.42 1066.77 2638.97 1082.32 2638.94 1092.34 2638.93 1095.83 2638.54 1096.16 2635.49 1095.4 2632.66 1094.69 2632.06 1095.03 2632.06 1097.35 2632.06 1101.49 2635.59 1109.24 2641.85 1118.86 2645.99 1125.21 2649.27 1128.42 2654.85 1131.56 2661.15 1135.12 2662.82 1136.93 2665.66 1143.34 2669.42 1151.86 2672.08 1160.61 2671.16 1161.52 2670.82 1161.85 2668.99 1161.1 2667.09 1159.85 2665.18 1158.6 2663.61 1157.75 2663.61 1157.96 2663.61 1158.17 2664.18 1160.34 2664.88 1162.79 2666.54 1168.53 2664.65 1168.6 2657.14 1163.1L2651.52 1158.96 2650.6 1164.34C2650.1 1167.3 2648.96 1170.72 2648.09 1171.93 2646.67 1173.86 2645.76 1173.45 2640.64 1168.47Z" fill-rule="evenodd"/></g></svg>