<svg width="763" height="324" xmlns="http://www.w3.org/2000/svg" xmlns:xlink="http://www.w3.org/1999/xlink" xml:space="preserve" overflow="hidden"><defs><clipPath id="clip0"><rect x="970" y="2134" width="763" height="324"/></clipPath></defs><g clip-path="url(#clip0)" transform="translate(-970 -2134)"><path d="M1484.4 2136.22C1485.64 2135.79 1488.12 2134.98 1489.36 2134.55 1490.12 2134.53 1491.65 2134.5 1492.42 2134.5 1493.1 2134.82 1494.5 2135.48 1495.19 2135.82L1496.5 2136.69C1497.14 2137.17 1498.4 2138.09 1499.04 2138.54 1499.67 2139.07 1500.96 2140.1 1501.59 2140.6 1502.15 2141.18 1503.26 2142.37 1503.81 2142.95L1505.42 2143.8C1506.1 2144.38 1507.47 2145.54 1508.19 2146.13 1508.85 2146.73 1510.22 2147.95 1510.9 2148.58 1511.56 2149.19 1512.93 2150.46 1513.59 2151.09 1514.25 2151.73 1515.6 2152.99 1516.26 2153.63 1516.92 2154.29 1518.21 2155.56 1518.87 2156.22 1519.53 2156.85 1520.79 2158.15 1521.45 2158.81 1522.08 2159.44 1523.35 2160.74 1523.98 2161.4 1524.62 2162.06 1525.86 2163.38 1526.49 2164.07 1527.12 2164.75 1528.36 2166.13 1528.97 2166.81 1529.57 2167.55 1530.79 2169.01 1531.39 2169.75 1531.97 2170.54 1533.13 2172.15 1533.71 2172.94L1534.87 2174.69C1535.4 2175.56 1536.51 2177.3 1537.06 2178.17L1538.12 2180C1538.65 2180.87 1539.65 2182.64 1540.15 2183.51L1540.7 2185.49C1541.26 2186.23 1542.36 2187.69 1542.92 2188.43L1543.45 2190.35C1544 2191.09 1545.08 2192.57 1545.63 2193.29L1546.24 2195.19C1546.79 2195.88 1547.93 2197.3 1548.48 2197.99L1550.59 2201.16 1551.38 2202.96C1552.02 2203.57 1553.26 2204.78 1553.86 2205.39 1554.49 2206.05 1555.76 2207.37 1556.37 2208L1559.11 2210.33C1559.61 2210.96 1560.67 2212.23 1561.19 2212.87L1562.72 2213.76 1563.65 2215.3 1565.91 2215.48 1568.23 2215.75 1570.4 2216.72C1571.95 2217.33 1575.06 2218.52 1576.62 2219.1L1579.07 2219.73C1581.53 2222.67 1584.56 2223.49 1588.17 2222.14 1589.41 2222.38 1591.89 2222.91 1593.1 2223.14 1594.66 2223.67 1597.72 2224.7 1599.27 2225.23L1601.38 2226.02C1602.15 2226.58 1603.7 2227.63 1604.47 2228.19L1606.42 2228.59C1607.24 2229.06 1608.85 2230.04 1609.66 2230.54L1611.25 2231.57C1612.01 2232.07 1613.49 2233.13 1614.25 2233.63 1614.96 2234.19 1616.39 2235.27 1617.1 2235.83 1617.81 2236.38 1619.26 2237.52 1619.98 2238.1L1621.43 2239.26C1622.11 2239.87 1623.51 2241.08 1624.19 2241.66 1624.85 2242.3 1626.15 2243.57 1626.78 2244.2 1627.41 2244.89 1628.62 2246.21 1629.26 2246.87L1630.1 2248.56C1630.71 2249.14 1631.97 2250.3 1632.61 2250.89 1633.16 2251.6 1634.3 2253.03 1634.85 2253.71 1635.4 2254.45 1636.54 2255.88 1637.09 2256.59 1637.64 2257.33 1638.75 2258.84 1639.31 2259.58L1640.41 2261.16C1640.94 2261.93 1642.02 2263.46 1642.58 2264.23 1643.1 2265.02 1644.16 2266.61 1644.69 2267.37L1645.74 2269.04C1646.24 2269.86 1647.27 2271.52 1647.77 2272.34 1648.25 2273.19 1649.22 2274.93 1649.7 2275.8L1650.62 2277.7 1652.2 2281.61 1652.68 2283.83 1653.15 2286.16C1652.25 2289.35 1652.25 2292.55 1653.15 2295.8 1652.91 2296.89 1652.41 2299.03 1652.15 2300.11 1651.81 2301.06 1651.09 2302.91 1650.75 2303.86L1649.83 2305.58C1649.3 2306.34 1648.27 2307.88 1647.74 2308.64 1647.03 2309.25 1645.63 2310.44 1644.92 2311.02L1643.29 2312.13C1642.42 2312.61 1640.65 2313.53 1639.78 2314.01L1637.78 2314.88C1636.3 2315.38 1633.37 2316.36 1631.9 2316.86 1630.73 2317.07 1628.41 2317.49 1627.25 2317.71L1624.91 2317.92C1621.53 2315.83 1618.87 2316.49 1616.92 2319.9 1615.7 2320.03 1613.28 2320.27 1612.06 2320.4 1608.58 2318.79 1605.68 2319.5 1603.33 2322.49 1602.12 2322.65 1599.7 2322.91 1598.48 2323.04 1596.98 2323.65 1594 2324.89 1592.52 2325.5L1590.15 2325.55C1588.8 2326.19 1586.11 2327.4 1584.77 2328.04L1583 2329.09C1582.26 2329.65 1580.76 2330.76 1580 2331.29 1579.47 2332 1578.36 2333.43 1577.83 2334.14L1576.83 2335.7C1576.38 2336.54 1575.54 2338.26 1575.12 2339.11L1574.3 2341.06C1573.75 2342.44 1572.64 2345.24 1572.06 2346.64L1571.79 2348.99C1568.68 2351.08 1567.81 2353.9 1569.18 2357.44 1569.16 2359.27 1569.1 2362.89 1569.08 2364.68 1565.31 2366.24 1564.31 2368.7 1566.1 2372.11 1568.55 2376.07 1571.79 2379.48 1575.2 2382.7 1577.6 2386.48 1582.48 2384.68 1585.56 2382.99L1587.91 2383.02C1589.73 2383.2 1593.34 2383.6 1595.13 2383.78 1597.64 2387.25 1602.41 2387.91 1605.95 2385.58L1608.35 2385.69 1615.62 2386.53C1618.71 2389.47 1623.3 2390.21 1627.17 2388.43 1629.02 2388.59 1632.71 2388.94 1634.56 2389.12 1636.91 2392.05 1639.81 2392.74 1643.29 2391.18 1645.11 2391.31 1648.77 2391.61 1650.59 2391.74 1652.89 2394.72 1655.76 2395.44 1659.22 2393.9 1660.43 2394.04 1662.88 2394.33 1664.09 2394.46 1666.44 2397.39 1669.34 2398.08 1672.82 2396.55 1674.01 2396.7 1676.44 2397.05 1677.62 2397.21 1679.07 2397.68 1681.92 2398.66 1683.37 2399.14L1685.69 2399.21 1687.99 2399.45C1689.28 2400.06 1691.86 2401.28 1693.16 2401.91L1695.48 2401.88 1697.85 2401.88C1699.22 2402.46 1701.99 2403.6 1703.36 2404.16L1705.68 2404.39 1708 2404.79C1709.45 2405.37 1712.41 2406.56 1713.88 2407.14L1716.28 2407.14C1717.73 2407.8 1720.64 2409.15 1722.09 2409.81L1724.46 2409.97C1725.67 2410.95 1728.1 2412.87 1729.31 2413.83L1731.5 2414.57C1731.21 2415.54 1730.66 2417.47 1730.37 2418.45 1729.89 2419.16 1728.94 2420.62 1728.49 2421.33 1728.07 2421.96 1727.28 2423.21 1726.86 2423.84 1726.52 2424.42 1725.83 2425.61 1725.46 2426.19 1725.17 2426.8 1724.59 2427.99 1724.33 2428.6 1724.17 2429.26 1723.85 2430.58 1723.69 2431.24L1723.61 2432.66C1723.67 2433.38 1723.77 2434.78 1723.85 2435.49 1724.09 2436.23 1724.54 2437.66 1724.78 2438.37 1725.17 2439.14 1725.94 2440.64 1726.33 2441.41 1726.81 2442.28 1727.76 2444.05 1728.2 2444.95 1728.34 2446.03 1728.6 2448.23 1728.7 2449.31 1728.52 2450.37 1728.12 2452.45 1727.91 2453.51 1727.54 2454.3 1726.83 2455.89 1726.46 2456.68 1723.19 2455.65 1720 2455.94 1716.89 2457.5 1712.62 2457.5 1708.35 2457.34 1704.1 2457.24 1701.67 2454.25 1698.72 2453.59 1695.24 2455.2 1694.05 2455.04 1691.71 2454.7 1690.52 2454.54L1689.7 2452.43 1687.41 2452.35C1686.22 2452.32 1683.82 2452.3 1682.63 2452.3L1680.21 2452.03C1678.65 2451.45 1675.57 2450.29 1674.01 2449.71L1671.61 2449.1C1670.08 2448.54 1667.05 2447.46 1665.52 2446.91L1663.33 2446.19C1662.51 2445.72 1660.85 2444.79 1660.03 2444.32L1658 2444.1 1656.08 2443.44C1655.15 2443.07 1653.34 2442.36 1652.41 2441.99L1650.51 2441.28C1649.75 2440.83 1648.17 2439.9 1647.38 2439.45L1645.37 2439.19 1643.47 2438.45C1642.55 2438.08 1640.7 2437.34 1639.81 2436.94L1637.88 2436.23C1637.09 2435.76 1635.51 2434.86 1634.72 2434.38L1632.71 2434.12 1630.81 2433.4C1629.89 2433.03 1628.04 2432.32 1627.12 2431.95L1625.17 2431.29 1624.22 2429.55 1622.03 2429.47 1619.79 2429.33 1617.6 2428.73C1614.65 2425.64 1610.17 2424.42 1606.26 2426.27 1601.12 2425.98 1595.98 2425.72 1590.86 2425.5 1587.88 2422.33 1583.32 2421.75 1579.44 2423.44 1578.26 2423.34 1575.86 2423.1 1574.67 2422.99 1572.48 2419.9 1569.66 2419.11 1566.23 2420.67 1565.02 2420.59 1562.62 2420.43 1561.4 2420.35 1559.95 2419.69 1557.03 2418.4 1555.58 2417.74L1553.18 2417.84C1551.81 2417.21 1549.04 2415.91 1547.66 2415.28L1545.48 2414.94C1544.66 2414.46 1543.02 2413.56 1542.21 2413.09L1540.07 2412.95 1537.88 2412.61C1536.51 2411.95 1533.77 2410.66 1532.37 2409.99L1530 2410.05C1528.57 2409.36 1525.72 2408.01 1524.3 2407.33 1522.85 2406.64 1519.97 2405.29 1518.55 2404.6L1516.18 2404.6C1514.78 2403.97 1511.98 2402.7 1510.59 2402.04L1508.42 2401.67C1507.58 2401.2 1505.95 2400.27 1505.13 2399.82L1502.97 2399.64 1500.83 2399.19C1499.43 2398.61 1496.66 2397.5 1495.29 2396.94L1493.18 2396.18C1492.18 2395.78 1490.23 2394.93 1489.23 2394.54L1487.14 2393.72C1485.8 2393.11 1483.16 2391.87 1481.84 2391.26L1480.15 2390.02C1479.44 2389.39 1478.04 2388.12 1477.33 2387.48L1476.04 2386.14C1475.28 2385.9 1473.75 2385.4 1473.01 2385.13 1472.48 2384.47 1471.48 2383.12 1470.98 2382.46L1469.03 2381.67 1467.1 2380.72C1465.65 2380.24 1462.72 2379.29 1461.27 2378.82L1458.95 2378.26C1456.68 2375.2 1453.81 2374.43 1450.35 2375.99 1448.51 2375.83 1444.84 2375.49 1443.02 2375.3 1439.99 2372.24 1435.45 2371.53 1431.6 2373.35 1427.2 2373.22 1418.44 2372.95 1414.04 2372.82L1412.43 2371.02 1409.95 2371.05C1397.66 2370.79 1385.4 2370.81 1373.14 2370.44 1371.87 2370.34 1369.32 2370.12 1368.02 2370.02 1366.52 2369.41 1363.49 2368.14 1361.96 2367.51L1359.79 2366.82C1358.98 2366.32 1357.34 2365.34 1356.52 2364.84L1354.49 2364.58 1352.62 2363.78C1351.73 2363.36 1349.93 2362.52 1349.06 2362.09L1347.24 2361.19C1346.4 2360.75 1344.66 2359.87 1343.81 2359.42 1343.08 2358.9 1341.62 2357.87 1340.89 2357.34L1338.99 2356.86C1338.25 2356.36 1336.75 2355.33 1336.01 2354.8L1334.08 2354.35C1333.32 2353.82 1331.81 2352.79 1331.08 2352.29L1329.12 2351.84C1328.36 2351.31 1326.83 2350.28 1326.07 2349.78L1324.11 2349.33C1323.35 2348.8 1321.82 2347.8 1321.06 2347.27L1319.08 2346.85C1318.31 2346.35 1316.76 2345.34 1315.97 2344.84L1313.96 2344.42C1313.14 2343.94 1311.54 2342.96 1310.72 2342.46L1308.58 2342.12 1306.5 2341.38C1305.47 2341.01 1303.39 2340.3 1302.36 2339.95L1300.12 2339.37 1299.43 2337.23 1297.16 2337.23C1293.31 2336.07 1289.22 2335.78 1285.3 2336.81 1284.48 2337.39 1282.79 2338.55 1281.95 2339.13L1279.55 2339.85C1277.89 2340.32 1274.56 2341.25 1272.93 2341.72L1270.61 2342.12 1268.39 2342.46 1267.81 2344.21 1266.04 2344.84C1265.39 2345.42 1264.07 2346.53 1263.41 2347.11 1262.54 2347.56 1260.82 2348.43 1259.95 2348.88L1258.19 2349.83C1257.34 2350.31 1255.65 2351.23 1254.81 2351.71L1252.89 2352.21C1252.2 2352.74 1250.78 2353.82 1250.06 2354.35L1248.19 2354.8C1247.48 2355.3 1246.05 2356.33 1245.34 2356.83L1243.47 2357.26C1242.73 2357.79 1241.28 2358.79 1240.57 2359.29 1239.67 2359.72 1237.88 2360.53 1236.96 2360.93L1234.98 2361.72 1232.76 2361.96C1231.37 2362.59 1228.6 2363.84 1227.2 2364.44 1225.99 2364.68 1223.56 2365.13 1222.35 2365.34L1219.82 2365.34C1201.54 2365.16 1183.29 2365.55 1165.04 2365.58 1160.82 2365.42 1156.63 2365.32 1152.44 2365.21 1147.79 2363.41 1142.65 2364.21 1138.88 2367.54 1137.69 2367.64 1135.32 2367.91 1134.13 2368.04 1132.63 2368.65 1129.6 2369.81 1128.1 2370.42L1125.7 2370.76C1124.25 2371.37 1121.34 2372.61 1119.87 2373.22L1117.81 2374.11C1116.89 2374.56 1115.04 2375.49 1114.12 2375.94L1112.3 2376.89C1111.46 2377.36 1109.77 2378.32 1108.95 2378.82L1107.29 2379.82C1106.52 2380.32 1105.02 2381.33 1104.26 2381.83 1103.52 2382.36 1102.07 2383.39 1101.33 2383.92L1099.67 2384.66C1099.09 2385.26 1097.9 2386.45 1097.29 2387.03L1094.55 2389.36C1093.89 2389.97 1092.55 2391.16 1091.86 2391.76 1091.2 2392.37 1089.88 2393.61 1089.22 2394.25L1086.59 2396.78C1085.93 2397.44 1084.61 2398.74 1083.92 2399.4 1083.26 2400.03 1081.95 2401.35 1081.29 2402.02 1080.63 2402.68 1079.28 2404 1078.62 2404.66 1077.96 2405.32 1076.62 2406.61 1075.96 2407.27 1075.3 2407.91 1073.96 2409.2 1073.27 2409.86 1072.58 2410.5 1071.24 2411.76 1070.55 2412.4 1069.87 2413.03 1068.5 2414.25 1067.81 2414.88 1067.12 2415.46 1065.7 2416.65 1065.02 2417.26L1063.3 2418.05C1062.69 2418.69 1061.51 2419.9 1060.9 2420.51 1060.19 2421.07 1058.74 2422.15 1058.03 2422.7 1057.29 2423.23 1055.81 2424.32 1055.1 2424.84L1053.31 2425.48C1052.65 2426.06 1051.35 2427.22 1050.7 2427.8 1049.85 2428.3 1048.14 2429.28 1047.27 2429.78L1045.39 2430.76C1044.42 2431.24 1042.47 2432.16 1041.52 2432.64L1039.33 2433.54C1037.72 2434.01 1034.48 2435.02 1032.87 2435.49 1031.63 2435.7 1029.15 2436.13 1027.91 2436.34L1025.43 2436.6C1022.32 2435.17 1019.13 2434.94 1015.86 2435.97L1013.75 2435.44 1011.88 2434.75C1011.06 2434.3 1009.4 2433.43 1008.58 2432.98 1008.11 2432.24 1007.16 2430.71 1006.68 2429.97 1006.68 2428.97 1006.71 2426.96 1006.71 2425.98L1006.95 2424C1007.55 2423.34 1008.79 2421.99 1009.4 2421.3L1010.72 2420.03C1011.4 2419.45 1012.75 2418.29 1013.43 2417.71 1014.14 2417.15 1015.59 2416.07 1016.33 2415.54L1017.86 2414.46C1018.63 2413.91 1020.13 2412.82 1020.87 2412.29 1021.63 2411.74 1023.16 2410.63 1023.9 2410.05L1025.46 2408.91C1026.2 2408.33 1027.67 2407.14 1028.41 2406.56 1029.12 2405.98 1030.52 2404.76 1031.21 2404.16 1031.89 2403.55 1033.24 2402.31 1033.9 2401.7 1034.56 2401.06 1035.87 2399.82 1036.53 2399.19 1037.19 2398.55 1038.49 2397.29 1039.12 2396.65 1039.78 2396.02 1041.07 2394.72 1041.73 2394.09 1042.36 2393.43 1043.65 2392.13 1044.31 2391.5L1046.92 2388.88C1047.58 2388.22 1048.88 2386.9 1049.53 2386.24 1050.19 2385.58 1051.51 2384.26 1052.17 2383.57 1052.83 2382.91 1054.18 2381.57 1054.84 2380.88L1057.47 2378.13C1058.11 2377.44 1059.42 2376.04 1060.08 2375.33 1060.72 2374.64 1062.01 2373.22 1062.67 2372.5 1063.27 2371.76 1064.54 2370.31 1065.17 2369.6 1065.83 2368.99 1067.12 2367.77 1067.78 2367.17L1068.65 2365.47C1069.26 2364.79 1070.45 2363.41 1071.03 2362.73 1071.61 2362.09 1072.77 2360.82 1073.35 2360.19 1073.9 2359.58 1074.98 2358.37 1075.54 2357.76 1076.06 2357.15 1077.07 2355.96 1077.59 2355.38 1078.07 2354.77 1079.02 2353.58 1079.49 2353 1079.97 2352.37 1080.86 2351.15 1081.34 2350.52 1081.81 2349.89 1082.76 2348.57 1083.24 2347.9L1084.37 2346.53C1085 2345.79 1086.3 2344.31 1086.96 2343.54 1092.65 2341.51 1085.82 2336.07 1084.98 2342.04L1083.24 2343.07C1082.6 2343.7 1081.34 2344.95 1080.71 2345.58 1079.86 2345.95 1078.2 2346.64 1077.38 2346.98L1075.72 2347.77C1074.96 2348.2 1073.37 2349.04 1072.61 2349.46L1070.84 2349.99C1070.18 2350.52 1068.87 2351.55 1068.18 2352.08 1067.39 2352.55 1065.78 2353.51 1064.99 2353.98L1063.3 2354.96C1062.48 2355.46 1060.82 2356.41 1060 2356.91L1058.11 2357.5C1057.42 2358.05 1056 2359.16 1055.28 2359.74 1054.44 2360.22 1052.73 2361.22 1051.88 2361.7L1050.09 2362.7C1049.19 2363.2 1047.45 2364.21 1046.58 2364.71L1044.79 2365.71C1043.92 2366.21 1042.23 2367.19 1041.36 2367.69L1039.46 2368.28C1038.75 2368.83 1037.35 2369.94 1036.67 2370.52 1035.82 2371 1034.16 2371.97 1033.34 2372.48L1031.6 2373.48C1030.76 2373.98 1029.1 2374.96 1028.25 2375.46L1026.35 2376.04C1025.67 2376.6 1024.24 2377.73 1023.53 2378.29 1022.69 2378.79 1020.97 2379.77 1020.1 2380.24L1018.31 2381.25C1017.44 2381.75 1015.67 2382.73 1014.8 2383.2L1012.98 2384.15C1012.11 2384.6 1010.37 2385.5 1009.5 2385.93L1007.58 2386.51C1006.97 2387.09 1005.73 2388.28 1005.13 2388.88L1003.09 2389.1C1002.44 2389.6 1001.09 2390.63 1000.43 2391.16L998.216 2391.1C997.346 2391.55 995.579 2392.45 994.709 2392.87L992.467 2393.75C990.832 2394.14 987.562 2394.93 985.927 2395.33 984.107 2395.28 980.468 2395.17 978.675 2395.09 977.699 2394.75 975.801 2394.01 974.851 2393.64L972.794 2393.56C972.214 2392.77 971.08 2391.21 970.5 2390.42L970.5 2388.43C971.027 2387.62 972.082 2386 972.636 2385.19 973.322 2384.45 974.746 2382.97 975.458 2382.2L976.829 2380.67 979.361 2377.81C979.994 2377.13 981.233 2375.78 981.84 2375.12 982.446 2374.48 983.659 2373.19 984.266 2372.56 984.872 2371.92 986.085 2370.68 986.692 2370.05 987.298 2369.44 988.512 2368.2 989.118 2367.59 989.725 2366.95 990.964 2365.74 991.597 2365.1 992.23 2364.5 993.496 2363.23 994.128 2362.62 994.788 2361.99 996.107 2360.75 996.739 2360.11 997.425 2359.48 998.77 2358.24 999.456 2357.6 1000.17 2356.97 1001.57 2355.73 1002.28 2355.09 1003.02 2354.46 1004.49 2353.22 1005.26 2352.61L1006.81 2351.34C1007.55 2350.71 1009.08 2349.49 1009.82 2348.86 1010.56 2348.25 1012.03 2347.03 1012.77 2346.4 1013.49 2345.82 1014.96 2344.6 1015.67 2343.99 1016.41 2343.39 1017.92 2342.2 1018.65 2341.62L1020.42 2340.82 1022.95 2338.29C1023.72 2337.71 1025.25 2336.57 1026.01 2335.99 1026.78 2335.43 1028.31 2334.3 1029.07 2333.72L1030.92 2332.98 1033.55 2330.55C1034.35 2330.02 1035.93 2328.93 1036.74 2328.41L1038.59 2327.72C1039.25 2327.14 1040.59 2325.98 1041.25 2325.39 1042.07 2324.89 1043.68 2323.89 1044.47 2323.39L1046.32 2322.8C1047 2322.25 1048.37 2321.17 1049.06 2320.61L1050.88 2320.08C1051.57 2319.55 1052.94 2318.5 1053.65 2317.97 1054.47 2317.55 1056.1 2316.65 1056.92 2316.2L1058.61 2315.27 1060.56 2315.04 1062.48 2314.96 1063.64 2312.84 1066.07 2312.34C1092.73 2311.76 1119.55 2313.32 1146.08 2310.1 1147.35 2309.96 1149.88 2309.7 1151.14 2309.54 1152.44 2308.72 1155.05 2307.06 1156.37 2306.21L1158.11 2305.1C1158.84 2304.55 1160.3 2303.49 1161.03 2302.94 1161.59 2302.38 1162.72 2301.22 1163.3 2300.64 1163.8 2300.08 1164.8 2298.92 1165.31 2298.34 1165.81 2297.73 1166.78 2296.49 1167.26 2295.85 1167.86 2295.41 1169.08 2294.48 1169.68 2294.03L1170.55 2292.29C1171 2290.76 1171.9 2287.69 1172.35 2286.18L1173.82 2281.43C1174.32 2279.84 1175.3 2276.7 1175.8 2275.14L1176.25 2272.82C1176.83 2272 1178.02 2270.36 1178.6 2269.54 1178.65 2268.4 1178.76 2266.08 1178.81 2264.92L1178.81 2262.51C1179.47 2261.03 1180.79 2258.1 1181.44 2256.62L1181.6 2254.19C1182.32 2252.73 1183.69 2249.8 1184.37 2248.35 1184.98 2246.92 1186.22 2244.1 1186.82 2242.67L1187.69 2240.66C1188.12 2239.76 1188.93 2237.94 1189.33 2237.04L1190.09 2235.27C1190.46 2234.43 1191.18 2232.76 1191.55 2231.94L1192.2 2230.25C1192.57 2229.59 1193.36 2228.24 1193.73 2227.58L1193.87 2225.86C1194.34 2225.18 1195.34 2223.8 1195.84 2223.12 1195.05 2222.03 1193.47 2219.89 1192.68 2218.81L1191.47 2216.8C1190.04 2216.27 1187.25 2215.24 1185.82 2214.71 1185.45 2213.95 1184.69 2212.47 1184.29 2211.7L1182.79 2210.51C1182.21 2209.75 1181.02 2208.19 1180.44 2207.42 1180.42 2206.31 1180.39 2204.09 1180.36 2202.98L1180.42 2200.69 1182.1 2198.36 1182.45 2196.77C1182.97 2196.19 1184.06 2195.03 1184.58 2194.45 1185.22 2193.92 1186.46 2192.89 1187.09 2192.36 1187.93 2192.07 1189.57 2191.49 1190.41 2191.2 1193.07 2190.83 1195.74 2190.59 1198.43 2190.43 1199.32 2190.67 1201.14 2191.12 1202.04 2191.36L1203.68 2192.36C1204.36 2192.97 1205.76 2194.16 1206.44 2194.77L1207.66 2196.17C1208.19 2196.91 1209.27 2198.39 1209.79 2199.13L1210.9 2200.63 1211.98 2202.22C1212.72 2202.61 1214.2 2203.43 1214.94 2203.86 1214.59 2208.22 1215.94 2208.69 1218.92 2205.26L1221 2204.86C1221.95 2204.54 1223.82 2203.96 1224.75 2203.64L1226.59 2202.88 1228.57 2203.06 1230.5 2203.25 1231.58 2201.82 1233.34 2201.27C1233.98 2200.71 1235.3 2199.6 1235.93 2199.05L1237.83 2198.39C1238.78 2198.02 1240.68 2197.3 1241.62 2196.93L1243.68 2196.11C1245.13 2195.48 1248.01 2194.24 1249.43 2193.6 1250.91 2192.97 1253.86 2191.65 1255.34 2190.99L1257.76 2191.01C1261.51 2192.1 1264.28 2191.04 1266.04 2187.84 1271.11 2188.27 1276.17 2188.48 1281.26 2188.77 1287.85 2192.52 1294.31 2192.97 1300.59 2190.06 1303.89 2190.28 1307.18 2190.49 1310.48 2190.75 1312.56 2193.79 1315.41 2194.74 1318.97 2193.6 1320.82 2193.55 1324.51 2193.42 1326.38 2193.37 1328.49 2196.46 1331.31 2197.3 1334.85 2195.9L1337.19 2195.93C1338.46 2196.56 1341.02 2197.81 1342.28 2198.44L1344.63 2198.41 1347.03 2198.41 1352.94 2201.06C1354.15 2201.11 1356.58 2201.24 1357.79 2201.32 1359.27 2201.98 1362.22 2203.33 1363.7 2204.01L1366.12 2204.01C1367.57 2204.7 1370.45 2206.13 1371.87 2206.81 1373.3 2207.4 1376.17 2208.53 1377.6 2209.11L1379.73 2209.75C1380.52 2210.22 1382.08 2211.17 1382.84 2211.65L1384.85 2211.89 1386.75 2212.57C1387.67 2212.97 1389.49 2213.76 1390.41 2214.16L1392.34 2215.01C1393.29 2215.45 1395.19 2216.38 1396.16 2216.83L1398.22 2217.86C1399.72 2218.36 1402.7 2219.36 1404.2 2219.87 1404.89 2220.47 1406.23 2221.66 1406.89 2222.27L1408.79 2222.93 1411.85 2224.83 1413.8 2225.18C1414.54 2225.71 1415.99 2226.74 1416.73 2227.26L1418.68 2227.71C1419.47 2228.14 1421.06 2228.98 1421.85 2229.43L1423.9 2229.51C1424.43 2230.2 1425.51 2231.57 1426.04 2232.26L1428.07 2233.08C1429.57 2233.69 1432.58 2234.87 1434.08 2235.46 1435.03 2236.04 1436.93 2237.15 1437.88 2237.7L1439.83 2238.78C1440.76 2239.29 1442.57 2240.32 1443.47 2240.82L1445.29 2241.8C1446.13 2242.27 1447.85 2243.22 1448.69 2243.7 1449.38 2244.2 1450.78 2245.26 1451.49 2245.76L1453.31 2246.26C1453.97 2246.76 1455.34 2247.79 1456 2248.3L1457.82 2248.77C1458.61 2249.22 1460.22 2250.09 1461.03 2250.52L1462.7 2251.41C1463.54 2251.86 1465.17 2252.73 1466.02 2253.18L1467.73 2254.06C1468.58 2254.51 1470.26 2255.38 1471.08 2255.8L1472.85 2256.67C1473.72 2257.12 1475.46 2257.97 1476.33 2258.42L1478.18 2259.29C1479.13 2259.74 1480.97 2260.61 1481.92 2261.06L1483.98 2261.93C1485.43 2262.59 1488.3 2263.86 1489.73 2264.49 1491.23 2265.15 1494.26 2266.47 1495.77 2267.13L1498.17 2267.66C1499.75 2268.06 1502.94 2268.85 1504.52 2269.25 1507.47 2268.56 1510.4 2267.9 1513.36 2267.21 1514.2 2266.82 1515.94 2266.05 1516.78 2265.66 1517.47 2265.07 1518.79 2263.94 1519.45 2263.36 1520.03 2262.72 1521.19 2261.48 1521.74 2260.85 1522.27 2260.16 1523.35 2258.81 1523.88 2258.13L1524.93 2256.67C1525.43 2255.93 1526.44 2254.48 1526.96 2253.77 1527.44 2253 1528.39 2251.49 1528.89 2250.75L1529.81 2249.17C1530.26 2248.4 1531.13 2246.87 1531.55 2246.1L1533.11 2245.23 1533.29 2243.51 1533.45 2241.82C1533.56 2241.06 1533.79 2239.47 1533.9 2238.71L1534.03 2237.15C1534.53 2236.62 1535.48 2235.59 1535.98 2235.06L1534.14 2235.14 1532.53 2234.24 1531.21 2233C1530.5 2232.42 1529.05 2231.31 1528.33 2230.73L1526.73 2229.67C1525.91 2229.17 1524.3 2228.19 1523.48 2227.69L1521.77 2226.71C1520.95 2226.21 1519.32 2225.23 1518.47 2224.75 1517.81 2224.17 1516.44 2223.04 1515.76 2222.46L1513.91 2221.82C1513.12 2221.32 1511.51 2220.26 1510.72 2219.76 1510.06 2219.15 1508.77 2217.94 1508.11 2217.33L1506.26 2216.62C1505.5 2216.04 1503.97 2214.9 1503.2 2214.34L1500.14 2212.02C1499.51 2211.39 1498.27 2210.09 1497.64 2209.46L1495.84 2208.64C1495.13 2208 1493.68 2206.79 1492.94 2206.18 1492.23 2205.55 1490.83 2204.28 1490.15 2203.64 1489.46 2203.01 1488.09 2201.72 1487.41 2201.08 1486.75 2200.42 1485.4 2199.13 1484.74 2198.49L1482.13 2195.88C1481.5 2195.22 1480.23 2193.92 1479.6 2193.26 1478.99 2192.6 1477.75 2191.28 1477.12 2190.62 1476.54 2189.96 1475.33 2188.61 1474.72 2187.95 1474.14 2187.26 1473.01 2185.89 1472.43 2185.18L1471.66 2183.51 1469.26 2181.11 1467.15 2178.15C1466.65 2177.38 1465.65 2175.82 1465.15 2175.03L1464.15 2173.37C1463.7 2172.49 1462.8 2170.75 1462.33 2169.88L1461.54 2167.95C1461.25 2166.95 1460.67 2164.96 1460.38 2163.96 1459.77 2160.87 1459.11 2157.8 1458.45 2154.76 1461.54 2152.73 1462.25 2149.96 1460.59 2146.47L1460.38 2144.12C1461.06 2143.17 1462.43 2141.26 1463.12 2140.29L1464.52 2140.97 1467.05 2142.14C1467.6 2142.4 1468.76 2142.95 1469.34 2143.22 1469.92 2143.48 1471.11 2144.04 1471.69 2144.3L1472.95 2144.86 1474.22 2145.52 1475.88 2145.12C1477.2 2144.86 1479.81 2144.3 1481.13 2144.01 1485.06 2144.12 1486.46 2138.97 1484.4 2136.22Z" stroke="#000000" stroke-width="0.24685" stroke-miterlimit="8" fill-rule="evenodd"/></g></svg>