<svg width="617" height="319" xmlns="http://www.w3.org/2000/svg" xmlns:xlink="http://www.w3.org/1999/xlink" xml:space="preserve" overflow="hidden"><defs><clipPath id="clip0"><rect x="1855" y="1619" width="617" height="319"/></clipPath></defs><g clip-path="url(#clip0)" transform="translate(-1855 -1619)"><path d="M2388.97 1620.55 2390.47 1620.5C2391.18 1620.74 2392.61 1621.24 2393.32 1621.47 2393.9 1622 2395.03 1623.08 2395.61 1623.63L2396.61 1625.08 2397.06 1626.82C2397.53 1627.58 2398.48 1629.11 2398.96 1629.88L2399.69 1631.85C2400.33 1633.33 2401.57 1636.28 2402.2 1637.75L2403.15 1639.75 2403.83 1641.7C2404.38 1642.41 2405.49 1643.86 2406.02 1644.57 2406.62 1645.28 2407.81 1646.71 2408.39 1647.39 2409.05 1648.05 2410.39 1649.34 2411.08 1650L2412.53 1651.31C2413.21 1651.95 2414.58 1653.19 2415.29 1653.82 2415.95 1654.45 2417.3 1655.69 2417.98 1656.29L2420.62 1658.82 2423.2 1661.4C2423.83 1662.06 2425.07 1663.4 2425.7 1664.06 2426.34 1664.75 2427.55 1666.12 2428.18 1666.83 2428.76 1667.54 2429.95 1668.96 2430.55 1669.67L2431.42 1671.33C2432 1672.02 2433.19 1673.39 2433.77 1674.07 2434.29 1674.81 2435.35 1676.31 2435.87 1677.07L2436.64 1678.79C2437.19 1679.5 2438.3 1680.92 2438.85 1681.63 2439.38 1682.42 2440.43 1684 2440.93 1684.82L2442.04 1686.5 2444.15 1689.77C2444.7 1690.58 2445.78 1692.19 2446.34 1693.01L2447.44 1694.69C2448 1695.48 2449.1 1697.09 2449.66 1697.88 2450.24 1698.64 2451.4 1700.17 2451.98 1700.94L2453.19 1702.49C2453.77 1703.2 2454.98 1704.62 2455.59 1705.36 2456.22 1705.99 2457.51 1707.26 2458.14 1707.89 2458.83 1708.47 2460.17 1709.6 2460.86 1710.18L2462.25 1711.31C2462.91 1711.87 2464.18 1712.97 2464.83 1713.52 2465.36 1714.1 2466.47 1715.26 2467 1715.84L2468.26 1716.87C2468.66 1717.55 2469.47 1718.98 2469.87 1719.69L2470.5 1724.64C2470.18 1725.3 2469.5 1726.61 2469.16 1727.27 2468.68 1727.8 2467.73 1728.85 2467.26 1729.38L2466.28 1730.49C2464.83 1730.09 2461.91 1729.35 2460.46 1728.99L2458.27 1728.59C2456.82 1728.09 2453.93 1727.06 2452.5 1726.54 2451.08 1725.96 2448.29 1724.77 2446.89 1724.17L2444.78 1723.51C2443.33 1723.01 2440.46 1721.98 2439.04 1721.45L2436.98 1720.77C2435.64 1720.19 2432.92 1719.03 2431.58 1718.42L2429.58 1718.19C2426.31 1718.61 2419.72 1719.42 2416.43 1719.82 2415.72 1720.45 2414.32 1721.72 2413.61 1722.35 2414.4 1722.93 2415.95 1724.09 2416.74 1724.67L2417.77 1726.27C2418.32 1726.9 2419.43 1728.17 2419.98 1728.8L2421.51 1729.67C2422.25 1730.17 2423.75 1731.14 2424.49 1731.65L2426.07 1732.62C2426.89 1733.09 2428.47 1734.02 2429.29 1734.49L2430.92 1735.44C2431.71 1735.89 2433.27 1736.78 2434.06 1737.26L2435.56 1738.15C2436.22 1738.6 2437.53 1739.52 2438.19 1739.99 2438.69 1740.49 2439.72 1741.5 2440.25 1742L2441.3 1742.94C2441.54 1743.6 2442.01 1744.87 2442.25 1745.53L2442.25 1746.89 2441.43 1748C2441.07 1748.53 2440.28 1749.55 2439.91 1750.08L2438.69 1750.71 2436.27 1752.08 2434.74 1752.21C2433.92 1752.45 2432.34 1752.9 2431.55 1753.14L2429.63 1753.19C2428.1 1752.95 2425.04 1752.45 2423.52 1752.19 2422.04 1751.61 2419.06 1750.4 2417.59 1749.82L2415.66 1748.92C2414.79 1748.47 2413.11 1747.58 2412.26 1747.16 2411.55 1746.66 2410.1 1745.71 2409.39 1745.21L2407.7 1744.6C2406.91 1744.21 2405.36 1743.39 2404.57 1743L2402.94 1742.23C2402.17 1741.89 2400.62 1741.26 2399.85 1740.94 2399.09 1740.71 2397.59 1740.26 2396.82 1740.05 2396.11 1740.05 2394.69 1740.07 2393.98 1740.07 2393.21 1740.34 2391.71 1740.84 2390.95 1741.07L2389.36 1741.63C2388.65 1742.05 2387.23 1742.92 2386.54 1743.34 2385.81 1743.84 2384.38 1744.87 2383.67 1745.37 2382.94 1745.92 2381.49 1747.03 2380.77 1747.58 2380.04 1748.16 2378.56 1749.29 2377.82 1749.87L2376.16 1750.77C2375.48 1751.37 2374.11 1752.58 2373.42 1753.16 2372.68 1753.74 2371.21 1754.87 2370.44 1755.43 2369.71 1755.98 2368.18 1757.11 2367.44 1757.67L2365.73 1758.51C2365.04 1759.09 2363.65 1760.22 2362.93 1760.77 2362.17 1761.3 2360.67 1762.33 2359.9 1762.83L2358.16 1763.57C2357.45 1764.09 2356.03 1765.17 2355.29 1765.7 2354.48 1766.2 2352.82 1767.17 2352 1767.65L2350.18 1768.65C2349.28 1769.12 2347.49 1770.05 2346.6 1770.52L2344.67 1771.44C2343.75 1771.86 2341.85 1772.73 2340.93 1773.15L2338.93 1773.94 2336.85 1774.18C2335.95 1774.6 2334.19 1775.47 2333.32 1775.89L2331.15 1776.5 2328.92 1776.79C2325.67 1776.74 2322.88 1777.79 2320.51 1779.97L2318.59 1781C2317.79 1781.5 2316.19 1782.56 2315.37 1783.08 2314.74 1783.66 2313.42 1784.85 2312.76 1785.43 2312.21 1786.03 2311.05 1787.27 2310.47 1787.88 2309.94 1788.51 2308.91 1789.77 2308.39 1790.4L2307.57 1791.96C2307.12 1792.72 2306.23 1794.3 2305.78 1795.07L2304.86 1796.78C2304.43 1797.65 2303.64 1799.41 2303.25 1800.28L2302.54 1802.26C2302.35 1803.26 2302.01 1805.29 2301.83 1806.31 2301.85 1808.1 2301.93 1811.66 2301.98 1813.45L2301.75 1815.79 2303.12 1817.11 2303.96 1818.82C2304.43 1819.59 2305.36 1821.14 2305.8 1821.9 2306.33 1822.59 2307.41 1823.99 2307.97 1824.67 2308.55 1825.33 2309.7 1826.65 2310.28 1827.3 2310.92 1827.94 2312.13 1829.23 2312.74 1829.86 2313.37 1830.49 2314.63 1831.78 2315.26 1832.41 2315.9 1833.07 2317.19 1834.36 2317.82 1834.99L2320.43 1837.6C2321.06 1838.26 2322.38 1839.55 2323.04 1840.21 2323.7 1840.87 2324.99 1842.18 2325.65 1842.84L2328.28 1845.48 2330.92 1848.11C2331.58 1848.77 2332.92 1850.09 2333.58 1850.74L2336.21 1853.38 2338.85 1856.01 2341.48 1858.65 2344.12 1861.28 2346.75 1863.91C2347.41 1864.57 2348.73 1865.89 2349.39 1866.57L2352.02 1869.21 2354.66 1871.84 2357.29 1874.47C2357.95 1875.11 2359.27 1876.42 2359.93 1877.08 2360.56 1877.74 2361.88 1879.03 2362.51 1879.69 2363.17 1880.32 2364.46 1881.59 2365.12 1882.24 2365.75 1882.88 2367.04 1884.11 2367.68 1884.75 2368.34 1885.35 2369.63 1886.59 2370.26 1887.2 2370.92 1887.78 2372.24 1888.96 2372.87 1889.57 2373.55 1890.12 2374.92 1891.28 2375.61 1891.83 2376.37 1892.38 2377.88 1893.46 2378.64 1893.99L2380.27 1895.07 2383.65 1897.07 2385.46 1898.07C2386.39 1898.52 2388.21 1899.47 2389.13 1899.94L2391.16 1900.89C2392.63 1901.55 2395.61 1902.87 2397.09 1903.53 2398.53 1904.16 2401.41 1905.42 2402.86 1906.05L2404.73 1906.82C2405.47 1907.29 2406.89 1908.24 2407.63 1908.71L2409.23 1909.21C2409.87 1909.74 2411.1 1910.77 2411.71 1911.29L2412.79 1912.53C2413.13 1913.24 2413.79 1914.69 2414.13 1915.43 2414.11 1916.25 2414.08 1917.91 2414.08 1918.72 2413.77 1919.46 2413.19 1920.91 2412.9 1921.62 2412.42 1922.23 2411.45 1923.44 2410.97 1924.04 2410.37 1924.54 2409.15 1925.6 2408.55 1926.1L2407.02 1926.76C2406.33 1927.18 2404.94 1928.05 2404.25 1928.47L2402.65 1928.94C2401.99 1929.39 2400.72 1930.31 2400.06 1930.76 2398.19 1930.65 2394.42 1930.5 2392.55 1930.42L2390.26 1929.99C2389.31 1929.68 2387.39 1929.05 2386.44 1928.73L2383.38 1926.83 2381.56 1926.33C2380.75 1925.83 2379.11 1924.89 2378.3 1924.38L2376.61 1923.36C2375.79 1922.83 2374.19 1921.78 2373.37 1921.25 2372.58 1920.7 2370.97 1919.62 2370.15 1919.09L2368.49 1917.96C2367.7 1917.41 2366.15 1916.3 2365.36 1915.75 2364.62 1915.19 2363.12 1914.11 2362.38 1913.59 2361.7 1913.01 2360.35 1911.85 2359.67 1911.29L2358.01 1910.43 2355.06 1908.21C2354.34 1907.66 2352.89 1906.53 2352.18 1905.97 2351.5 1905.4 2350.18 1904.21 2349.52 1903.6L2347.86 1902.71C2347.15 1902.13 2345.7 1900.94 2344.96 1900.36 2344.25 1899.79 2342.83 1898.6 2342.12 1897.99 2341.38 1897.39 2339.93 1896.2 2339.19 1895.6 2338.45 1894.99 2336.93 1893.81 2336.19 1893.2L2334.58 1891.96C2333.84 1891.36 2332.34 1890.15 2331.58 1889.57 2330.86 1888.96 2329.42 1887.78 2328.68 1887.17 2327.97 1886.59 2326.52 1885.41 2325.78 1884.8 2325.04 1884.22 2323.54 1883.03 2322.77 1882.43L2321.19 1881.19C2320.46 1880.58 2318.98 1879.4 2318.24 1878.79 2317.53 1878.19 2316.11 1877.03 2315.4 1876.42 2314.69 1875.84 2313.29 1874.69 2312.6 1874.11 2311.89 1873.53 2310.5 1872.39 2309.81 1871.81 2309.15 1871.24 2307.83 1870.05 2307.2 1869.44L2305.57 1868.52C2304.83 1867.97 2303.35 1866.81 2302.62 1866.23 2301.88 1865.65 2300.38 1864.47 2299.64 1863.89 2298.85 1863.31 2297.29 1862.15 2296.5 1861.57L2294.84 1860.36C2294.05 1859.78 2292.5 1858.62 2291.71 1858.04 2290.94 1857.51 2289.41 1856.41 2288.65 1855.85 2287.97 1855.3 2286.54 1854.17 2285.86 1853.59L2284.14 1852.8C2283.35 1852.27 2281.8 1851.24 2281.01 1850.72 2280.27 1850.17 2278.82 1849.06 2278.08 1848.51L2276.26 1847.74C2275.42 1847.22 2273.71 1846.19 2272.87 1845.66L2271.07 1844.63 2267.7 1842.63C2266.96 1842.13 2265.46 1841.1 2264.72 1840.6L2263.01 1839.95C2262.27 1839.45 2260.85 1838.44 2260.11 1837.94L2258.45 1837.26C2257.82 1836.71 2256.5 1835.63 2255.84 1835.07L2254.26 1834.2C2253.66 1833.55 2252.47 1832.23 2251.86 1831.57 2251.39 1830.75 2250.49 1829.09 2250.02 1828.28 2248.99 1825.59 2248.52 1822.83 2248.6 1819.98 2248.78 1819.09 2249.1 1817.3 2249.28 1816.4 2248.75 1812.08 2249.73 1803.28 2242.8 1804.97 2237.87 1805.29 2232.97 1805.68 2228.09 1805.92 2224.01 1805.63 2220.08 1806.84 2216.66 1808.95L2214.71 1809.84 2211.44 1811.84 2209.86 1812.79C2209.28 1813.4 2208.12 1814.61 2207.54 1815.21L2205.17 1817.59 2204.22 1819.11C2203.67 1819.82 2202.59 1821.25 2202.03 1821.96 2201.48 1822.64 2200.35 1824.01 2199.79 1824.7L2198.95 1826.38C2198.42 1827.17 2197.37 1828.73 2196.84 1829.49 2196.26 1830.23 2195.13 1831.68 2194.55 1832.39L2193.73 1834.15C2193.21 1834.94 2192.13 1836.55 2191.6 1837.34 2191.02 1838.08 2189.86 1839.52 2189.28 1840.26L2188.46 1842.03C2187.94 1842.84 2186.85 1844.42 2186.33 1845.21 2185.75 1845.95 2184.62 1847.43 2184.04 1848.14L2183.22 1849.93 2181.11 1853.09C2180.53 1853.83 2179.4 1855.27 2178.84 1856.01L2178.03 1857.78C2177.53 1858.57 2176.47 1860.17 2175.95 1860.96 2175.39 1861.7 2174.29 1863.2 2173.73 1863.94L2172.94 1865.76C2172.44 1866.63 2171.41 1868.31 2170.89 1869.18L2169.86 1870.95C2169.36 1871.79 2168.36 1873.45 2167.88 1874.29 2167.38 1875.03 2166.38 1876.53 2165.88 1877.27L2165.27 1879C2164.8 1879.74 2163.85 1881.24 2163.4 1881.98L2162.82 1883.75C2162.35 1884.51 2161.4 1886.04 2160.93 1886.8L2160.37 1888.75C2159.74 1890.2 2158.45 1893.1 2157.82 1894.57L2157.05 1896.73C2156.52 1898.23 2155.52 1901.26 2155 1902.76L2154.6 1904.89C2151.68 1907.5 2152.73 1912.01 2156.63 1912.88L2158.26 1914.19C2159.61 1914.88 2162.24 1916.27 2163.56 1916.98L2165.38 1917.88C2166.2 1918.3 2167.8 1919.17 2168.59 1919.62L2170.12 1920.49C2170.78 1920.93 2172.07 1921.86 2172.7 1922.3 2173.23 1922.8 2174.29 1923.83 2174.79 1924.33L2175.89 1925.28 2176.26 1926.65C2176.45 1927.31 2176.81 1928.6 2177 1929.23L2177.08 1930.57C2177.13 1931.23 2177.21 1932.52 2177.26 1933.16L2175.21 1933.31C2172.12 1933.18 2169.52 1934.24 2167.38 1936.5 2165.64 1936.47 2162.14 1936.39 2160.4 1936.37 2156.79 1935.03 2152.99 1934.42 2149.17 1934.66L2147.01 1934.55 2144.85 1933.97C2143.48 1933.29 2140.71 1931.92 2139.34 1931.23 2138.58 1930.55 2137.1 1929.13 2136.34 1928.41 2135.79 1927.68 2134.68 1926.2 2134.1 1925.46L2133.18 1923.88C2132.76 1923.09 2131.89 1921.51 2131.46 1920.72L2130.7 1919.01C2130.31 1918.14 2129.57 1916.43 2129.2 1915.56L2128.49 1913.64 2128.67 1911.53C2128.2 1910 2127.27 1906.95 2126.8 1905.42 2126.56 1902.16 2126.83 1898.94 2127.59 1895.81 2127.91 1894.81 2128.54 1892.83 2128.86 1891.83L2129.62 1889.94C2130.02 1889.09 2130.83 1887.38 2131.23 1886.51L2132.07 1884.83 2133.76 1881.77C2134.21 1881.06 2135.07 1879.66 2135.52 1878.98L2136.1 1877.32C2136.55 1876.58 2137.47 1875.13 2137.95 1874.4L2138.5 1872.5C2139.16 1871.1 2140.45 1868.26 2141.11 1866.84L2141.95 1864.78C2142.37 1863.81 2143.16 1861.83 2143.59 1860.86L2144.38 1858.75C2144.93 1857.2 2146.01 1854.14 2146.56 1852.59L2147.2 1850.45C2147.7 1849.59 2148.7 1847.87 2149.2 1847 2149.33 1845.92 2149.57 1843.76 2149.7 1842.69L2150.38 1840.63C2150.75 1839.71 2151.47 1837.84 2151.83 1836.92L2152.55 1835.02C2152.99 1834.23 2153.92 1832.62 2154.36 1831.83L2154.73 1829.83C2155.37 1828.41 2156.63 1825.59 2157.26 1824.2L2158.11 1822.22C2158.53 1821.35 2159.34 1819.56 2159.77 1818.67L2160.58 1816.87C2161 1816.06 2161.85 1814.4 2162.27 1813.58L2163.09 1811.92 2164.67 1808.76 2165.41 1807.1 2166.8 1805.97 2166.27 1804.34 2165.77 1802.65C2165.51 1801.76 2165.01 1799.99 2164.77 1799.12 2163.43 1798.94 2160.74 1798.6 2159.37 1798.44 2146.88 1797.78 2134.44 1798.04 2121.98 1797.75 2120.79 1797.52 2118.37 1797.04 2117.18 1796.83 2114.68 1794.91 2111.89 1794.28 2108.83 1794.93L2106.8 1794.54C2105.98 1794.07 2104.4 1793.12 2103.61 1792.64 2102.53 1792.62 2100.4 1792.51 2099.34 1792.46L2097.16 1791.93C2094.26 1790.33 2091.33 1790.25 2088.41 1791.69 2087.3 1792.04 2085.11 1792.7 2084.01 1793.04L2081.82 1793.04 2081.11 1794.65 2080.37 1796.25C2079.84 1796.99 2078.76 1798.41 2078.21 1799.12L2077.13 1800.68C2076.63 1801.41 2075.6 1802.91 2075.07 1803.65 2074.55 1804.36 2073.49 1805.76 2072.96 1806.44L2072.2 1808.16C2071.7 1808.92 2070.67 1810.45 2070.17 1811.21 2069.62 1811.95 2068.51 1813.37 2067.96 1814.08L2067.17 1815.82 2065.06 1818.98C2064.48 1819.69 2063.35 1821.14 2062.77 1821.88L2061.95 1823.64C2061.42 1824.43 2060.37 1826.01 2059.82 1826.8 2059.26 1827.54 2058.13 1828.99 2057.55 1829.73L2056.73 1831.47C2056.23 1832.26 2055.18 1833.84 2054.65 1834.63 2054.1 1835.34 2053.02 1836.79 2052.46 1837.5L2051.73 1839.23C2051.23 1840 2050.25 1841.55 2049.78 1842.34 2049.3 1843.05 2048.3 1844.53 2047.83 1845.27L2047.19 1847C2046.75 1847.79 2045.85 1849.38 2045.4 1850.17L2044.98 1852.17 2044.35 1854.22C2042.05 1858.2 2041.98 1862.99 2044.16 1867.07L2044.74 1869.15C2045.09 1870.1 2045.77 1872 2046.14 1872.95L2046.88 1874.87 2047.27 1876.82C2047.72 1877.61 2048.62 1879.22 2049.06 1880.01L2049.88 1881.85C2050.33 1882.72 2051.2 1884.46 2051.62 1885.35L2052.57 1887.14C2053.07 1887.99 2054.07 1889.65 2054.55 1890.49L2055.65 1892.12C2056.21 1892.86 2057.31 1894.33 2057.87 1895.07 2058.5 1895.7 2059.71 1896.97 2060.32 1897.6 2060.98 1898.15 2062.27 1899.28 2062.9 1899.84 2063.58 1900.36 2064.93 1901.37 2065.59 1901.87L2067.25 1902.6C2068.04 1903.05 2069.59 1903.97 2070.38 1904.42L2072.41 1904.89 2074.49 1905.63C2076 1906.29 2079.03 1907.58 2080.53 1908.21L2082.9 1908.32 2085.19 1909.06C2086.77 1909.66 2089.96 1910.85 2091.54 1911.43L2093.6 1912.27C2094.52 1912.72 2096.34 1913.59 2097.26 1914.01L2099 1914.93C2099.79 1915.38 2101.35 1916.33 2102.11 1916.77L2103.56 1917.75C2104.16 1918.27 2105.4 1919.28 2106.01 1919.8 2106.48 1920.35 2107.46 1921.46 2107.93 1922.04 2108.28 1922.67 2108.96 1923.99 2109.28 1924.65 2109.44 1925.41 2109.7 1926.94 2109.83 1927.7 2109.44 1928.36 2108.64 1929.71 2108.22 1930.39 2105.35 1930.44 2103.51 1931.73 2102.69 1934.29 2095.34 1934.66 2088.04 1934.52 2080.79 1933.89 2078.24 1931.73 2075.31 1930.73 2071.99 1930.89 2070.49 1930.36 2067.48 1929.26 2066.01 1928.7L2063.9 1926.39 2062.35 1925.62C2061.63 1925.15 2060.16 1924.23 2059.45 1923.78 2058.76 1923.23 2057.44 1922.15 2056.76 1921.59L2055.15 1920.75C2054.44 1920.17 2053.04 1919.01 2052.33 1918.43 2051.65 1917.8 2050.28 1916.59 2049.59 1915.98 2048.91 1915.35 2047.56 1914.06 2046.88 1913.43 2046.22 1912.8 2044.87 1911.48 2044.22 1910.82 2043.56 1910.16 2042.24 1908.82 2041.58 1908.16 2040.95 1907.48 2039.66 1906.11 2039 1905.42 2038.37 1904.74 2037.1 1903.31 2036.47 1902.63 2035.84 1901.89 2034.6 1900.47 2033.99 1899.73L2033.02 1898.1C2032.38 1897.42 2031.15 1896.1 2030.54 1895.44 2029.93 1894.73 2028.77 1893.28 2028.19 1892.57 2027.59 1891.83 2026.4 1890.41 2025.82 1889.67 2025.24 1888.96 2024.06 1887.51 2023.48 1886.8L2022.55 1885.19C2021.95 1884.56 2020.79 1883.27 2020.21 1882.61 2019.63 1881.93 2018.52 1880.58 2017.97 1879.9 2017.44 1879.24 2016.34 1877.9 2015.78 1877.21 2015.26 1876.53 2014.17 1875.16 2013.65 1874.47 2013.12 1873.71 2012.09 1872.21 2011.57 1871.47L2010.57 1869.79C2010.12 1868.92 2009.22 1867.15 2008.8 1866.26 2008.64 1865.18 2008.35 1863.02 2008.19 1861.91L2008.14 1859.62C2008.43 1858.04 2009.04 1854.85 2009.33 1853.25 2009.56 1852.11 2010.06 1849.82 2010.33 1848.69 2010.8 1847.16 2011.72 1844.11 2012.2 1842.58L2012.83 1840.39C2013.28 1838.87 2014.2 1835.84 2014.65 1834.31 2014.91 1833.2 2015.41 1830.94 2015.65 1829.81 2017.55 1827.2 2018.26 1824.3 2017.81 1821.14 2017.97 1819.43 2018.31 1815.98 2018.5 1814.27 2018.92 1808.37 2023.66 1798.91 2015.86 1796.94L2013.81 1796.3 2011.72 1795.7C2008.64 1794.57 2005.82 1795.09 2003.21 1797.28 2001.58 1797.83 1998.26 1798.94 1996.6 1799.46 1995.68 1799.86 1993.83 1800.62 1992.91 1800.99L1991.07 1801.57C1990.33 1802.05 1988.85 1803.02 1988.11 1803.49 1987.32 1803.94 1985.74 1804.89 1984.93 1805.36L1983.24 1806.31C1982.42 1806.81 1980.79 1807.76 1979.97 1808.26L1978.21 1808.95C1977.47 1809.47 1976.02 1810.53 1975.28 1811.05 1974.44 1811.53 1972.8 1812.53 1971.96 1813.03L1970.19 1814.06C1969.35 1814.53 1967.67 1815.53 1966.8 1816.03L1964.98 1816.72C1964.24 1817.22 1962.71 1818.27 1961.97 1818.8L1960.18 1819.43C1959.44 1819.96 1957.94 1820.98 1957.18 1821.51 1956.36 1822.01 1954.67 1822.98 1953.86 1823.48L1952.07 1824.51C1951.22 1825.01 1949.54 1826.01 1948.67 1826.51L1946.85 1827.22C1946.11 1827.78 1944.61 1828.86 1943.87 1829.38 1943.03 1829.88 1941.37 1830.89 1940.52 1831.41L1938.76 1832.44C1937.91 1832.97 1936.23 1833.97 1935.38 1834.47L1933.57 1835.18C1932.8 1835.73 1931.33 1836.84 1930.59 1837.36 1929.75 1837.89 1928.09 1838.92 1927.27 1839.45L1925.5 1840.53C1924.69 1841.05 1923.03 1842.11 1922.18 1842.63L1920.42 1843.48C1919.71 1844.05 1918.31 1845.21 1917.6 1845.79 1916.86 1846.35 1915.38 1847.45 1914.65 1848.03 1913.91 1848.61 1912.46 1849.77 1911.72 1850.35 1910.98 1850.93 1909.53 1852.11 1908.8 1852.69L1907.19 1853.67C1906.56 1854.3 1905.27 1855.54 1904.63 1856.14 1903.95 1856.75 1902.63 1857.99 1901.97 1858.59L1899.44 1861.12C1898.84 1861.78 1897.65 1863.1 1897.04 1863.76 1896.46 1864.39 1895.3 1865.65 1894.72 1866.28L1893.83 1867.84C1893.28 1868.57 1892.2 1870.02 1891.67 1870.73 1891.14 1871.52 1890.09 1873.08 1889.59 1873.84L1888.51 1875.53C1887.98 1876.4 1886.95 1878.11 1886.42 1878.95 1885.71 1880.4 1884.29 1883.27 1883.58 1884.72L1882.87 1886.93C1881.15 1889.75 1880.89 1892.67 1882.13 1895.73L1883.18 1899.73C1883.5 1900.52 1884.13 1902.13 1884.47 1902.92 1884.92 1903.53 1885.87 1904.71 1886.35 1905.32L1887.5 1906.29C1887.98 1906.87 1888.93 1908.03 1889.4 1908.61 1889.77 1909.29 1890.51 1910.72 1890.9 1911.4 1891.09 1912.27 1891.48 1914.03 1891.67 1914.9L1889.53 1915.17C1885.61 1915.46 1881.71 1915.85 1877.81 1916.27 1876.62 1915.96 1874.22 1915.27 1873.04 1914.93 1871.43 1914.48 1868.19 1913.61 1866.58 1913.16 1866.16 1912.59 1865.29 1911.37 1864.84 1910.79L1863.5 1909.9C1862.92 1909.27 1861.79 1908.06 1861.23 1907.42 1860.81 1906.61 1860.02 1904.97 1859.6 1904.16 1858.78 1901.39 1858.52 1898.6 1858.81 1895.76 1859.1 1894.89 1859.7 1893.15 1859.99 1892.31L1860.05 1890.41 1860.71 1888.62C1861.1 1887.83 1861.86 1886.22 1862.26 1885.41 1862.68 1884.61 1863.47 1883.01 1863.89 1882.22L1864.76 1880.51C1865.19 1879.64 1866.03 1877.93 1866.45 1877.06L1867.29 1875.11C1867.85 1873.61 1868.95 1870.58 1869.51 1869.08 1869.8 1867.94 1870.4 1865.65 1870.69 1864.52 1871.17 1862.97 1872.12 1859.88 1872.59 1858.33L1873.22 1856.14C1873.64 1854.67 1874.49 1851.72 1874.91 1850.27L1875.04 1848.16C1878.68 1846.19 1877.02 1841.58 1873.33 1841.18L1871.69 1840.37C1870.98 1839.84 1869.59 1838.79 1868.87 1838.26 1867.35 1837.94 1864.26 1837.34 1862.71 1837.02L1860.49 1836.89C1860.13 1836.18 1859.39 1834.81 1859.02 1834.1L1857.36 1833.02C1855.86 1830.28 1855.25 1827.38 1855.59 1824.27 1857.15 1821.54 1857.81 1818.64 1857.6 1815.53L1858.33 1813.5C1858.7 1812.61 1859.47 1810.79 1859.86 1809.89L1860.65 1808.16C1861.15 1807.42 1862.1 1805.97 1862.58 1805.23L1863.16 1803.55C1863.66 1802.81 1864.66 1801.36 1865.13 1800.65 1865.69 1799.91 1866.77 1798.49 1867.32 1797.75L1868.51 1796.28C1869.11 1795.59 1870.35 1794.22 1870.98 1793.57 1871.67 1792.91 1873.01 1791.64 1873.7 1791.01L1875.17 1789.75C1875.91 1789.17 1877.33 1787.98 1878.07 1787.4 1878.78 1786.82 1880.21 1785.66 1880.94 1785.08 1881.68 1784.53 1883.16 1783.37 1883.92 1782.82L1885.5 1781.63C1886.27 1781.08 1887.77 1779.95 1888.53 1779.37 1889.27 1778.82 1890.75 1777.66 1891.48 1777.08 1892.25 1776.5 1893.75 1775.31 1894.49 1774.73L1896.07 1773.52C1896.83 1772.92 1898.31 1771.73 1899.05 1771.13 1899.76 1770.52 1901.13 1769.31 1901.84 1768.68 1902.5 1768.07 1903.84 1766.83 1904.53 1766.23 1905.16 1765.59 1906.48 1764.33 1907.14 1763.72 1907.77 1763.09 1909.06 1761.83 1909.69 1761.2 1910.32 1760.54 1911.59 1759.27 1912.22 1758.61 1912.85 1757.98 1914.09 1756.67 1914.7 1756.03 1915.33 1755.35 1916.54 1754.03 1917.15 1753.35 1917.76 1752.66 1918.94 1751.27 1919.55 1750.56 1920.13 1749.79 1921.29 1748.29 1921.87 1747.53L1923.05 1745.87C1923.61 1745.08 1924.71 1743.47 1925.29 1742.65 1925.82 1741.81 1926.9 1740.15 1927.43 1739.31L1928.51 1737.52C1929.03 1736.62 1930.06 1734.88 1930.59 1734.02L1931.62 1732.2C1932.12 1731.36 1933.09 1729.7 1933.59 1728.85 1934.12 1728.12 1935.15 1726.61 1935.67 1725.88L1936.33 1724.11C1936.86 1723.38 1937.94 1721.93 1938.47 1721.19L1939.21 1719.42C1939.71 1718.66 1940.73 1717.08 1941.26 1716.32 1941.81 1715.61 1942.97 1714.18 1943.53 1713.47L1944.37 1711.76C1944.92 1711 1946.03 1709.5 1946.61 1708.73 1947.16 1707.99 1948.3 1706.55 1948.85 1705.81 1949.46 1705.15 1950.7 1703.83 1951.3 1703.17L1952.25 1701.54C1952.86 1700.86 1954.12 1699.49 1954.75 1698.8 1955.41 1698.14 1956.73 1696.85 1957.39 1696.19 1958.1 1695.56 1959.52 1694.3 1960.23 1693.69L1961.79 1692.43C1962.53 1691.85 1964.03 1690.69 1964.77 1690.08 1965.5 1689.53 1966.98 1688.4 1967.72 1687.82 1968.48 1687.27 1970.04 1686.16 1970.8 1685.61L1972.43 1684.47C1973.25 1683.95 1974.83 1682.89 1975.65 1682.34 1976.47 1681.81 1978.1 1680.79 1978.92 1680.26L1980.68 1679.21C1981.53 1678.71 1983.24 1677.73 1984.11 1677.23L1985.87 1676.23C1986.69 1675.78 1988.35 1674.86 1989.19 1674.41L1990.96 1673.81C1991.7 1673.36 1993.17 1672.44 1993.91 1671.96L1995.65 1671.52C1996.41 1671.07 1997.94 1670.2 1998.71 1669.75L2000.5 1668.99C2001.39 1668.59 2003.21 1667.8 2004.14 1667.41L2006.11 1666.59C2007.61 1666.01 2010.57 1664.85 2012.04 1664.27L2014.12 1663.51C2015.12 1663.14 2017.1 1662.43 2018.08 1662.06 2019.18 1661.74 2021.37 1661.09 2022.48 1660.74 2024.06 1660.3 2027.19 1659.37 2028.77 1658.93L2031.04 1658.37C2032.75 1658.37 2036.13 1658.32 2037.81 1658.29L2039.95 1658.51 2040.79 1656.24C2044.27 1655.69 2047.77 1655.45 2051.3 1655.48 2054.86 1655.69 2058.47 1655.66 2062.06 1655.4 2069.38 1655.16 2076.71 1655.48 2084.03 1656.35L2085.03 1658.58 2087.09 1657.98C2090.99 1658.08 2094.94 1658.11 2098.89 1658.08 2102.24 1658.16 2105.56 1658.53 2108.88 1659.24 2113.55 1660.56 2118.42 1661.11 2123.3 1660.85 2127.38 1660.82 2131.52 1661.14 2135.58 1661.98 2140.19 1663.25 2144.96 1663.8 2149.75 1663.51 2154.57 1663.48 2159.42 1663.83 2164.19 1664.67 2168.01 1664.64 2175.66 1664.56 2179.48 1664.54 2182.51 1663.9 2185.59 1663.54 2188.7 1663.46 2191.89 1664.06 2194.81 1663.43 2197.47 1661.56L2199.79 1661.09 2202.14 1660.85C2206.62 1660.77 2215.58 1660.64 2220.08 1660.56 2223.51 1660.56 2226.91 1660.95 2230.31 1661.72 2233.07 1663.59 2236.08 1664.14 2239.37 1663.4 2241.11 1663.59 2244.62 1663.98 2246.36 1664.19 2248.86 1666.33 2251.73 1666.93 2254.92 1666.01L2257.27 1665.7C2264.96 1665.2 2272.97 1665.38 2280.74 1666.01 2283.96 1666.83 2286.94 1666.25 2289.62 1664.25 2290.76 1664.01 2292.97 1663.51 2294.1 1663.25L2300.11 1661.56C2301.22 1661.32 2303.43 1660.85 2304.51 1660.61 2305.99 1660.16 2308.94 1659.24 2310.42 1658.79L2312.55 1658.19C2314 1657.69 2316.9 1656.69 2318.35 1656.21L2320.46 1655.58C2321.91 1655.08 2324.8 1654.08 2326.23 1653.58L2328.36 1652.95C2329.81 1652.45 2332.71 1651.45 2334.16 1650.92L2336.27 1650.31C2337.74 1649.79 2340.67 1648.79 2342.12 1648.26L2344.28 1647.63C2345.75 1647.13 2348.73 1646.1 2350.23 1645.57L2352.42 1644.94C2353.95 1644.39 2357.01 1643.31 2358.53 1642.78L2360.69 1641.99C2362.12 1641.31 2364.96 1639.88 2366.39 1639.17L2368.15 1638.01C2368.89 1637.46 2370.37 1636.33 2371.1 1635.75 2371.71 1635.14 2372.97 1633.96 2373.58 1633.38L2375.9 1631.06 2376.85 1629.67C2377.4 1629.06 2378.51 1627.85 2379.06 1627.24 2379.61 1626.69 2380.75 1625.58 2381.33 1625 2381.91 1624.53 2383.07 1623.53 2383.65 1623.03 2384.28 1622.63 2385.52 1621.84 2386.15 1621.45 2386.86 1621.24 2388.26 1620.79 2388.97 1620.55Z" stroke="#000000" stroke-width="0.24685" stroke-miterlimit="8" fill-rule="evenodd"/></g></svg>