<svg width="594" height="262" xmlns="http://www.w3.org/2000/svg" xmlns:xlink="http://www.w3.org/1999/xlink" xml:space="preserve" overflow="hidden"><defs><clipPath id="clip0"><rect x="990" y="397" width="594" height="262"/></clipPath></defs><g clip-path="url(#clip0)" transform="translate(-990 -397)"><path d="M1233.21 398.916C1241.88 398.361 1250.58 397.62 1259.3 397.753L1261.65 397.859C1264.84 398.149 1268 398.149 1271.19 397.806L1273.64 397.673C1283.29 397.62 1293.3 396.721 1302.68 399.604 1303.76 399.498 1305.98 399.313 1307.06 399.207 1319.28 399.763 1331.56 400.054 1343.79 400.635 1345.03 400.821 1347.46 401.164 1348.67 401.323 1350.06 401.905 1352.83 403.042 1354.23 403.597L1356.39 403.28 1358.52 403.941C1360.03 404.47 1363.06 405.501 1364.56 406.03L1366.72 406.771C1368.22 407.273 1371.23 408.278 1372.73 408.807L1374.73 409.442C1375.55 409.865 1377.18 410.685 1378 411.108L1379.92 411.319 1381.74 412.007C1382.61 412.351 1384.38 413.038 1385.25 413.382L1387.04 414.043C1387.85 414.466 1389.44 415.313 1390.25 415.709L1392.26 416 1394.29 416.714C1395.81 417.243 1398.84 418.354 1400.37 418.883L1402.59 419.57C1404.14 420.073 1407.28 421.078 1408.83 421.58L1411.1 422.109C1412.55 422.691 1415.45 423.854 1416.87 424.436L1419.14 424.278 1421.38 424.886C1424.17 426.763 1427.2 427.451 1430.52 426.975 1432.37 427.292 1436 427.874 1437.85 428.165L1439.32 429.963 1441.51 429.196C1446.25 428.985 1451 428.641 1455.69 427.901 1456.58 427.53 1458.32 426.763 1459.22 426.393 1460.01 425.891 1461.59 424.912 1462.41 424.41L1463.99 423.325C1464.73 422.797 1466.18 421.739 1466.91 421.184 1467.57 420.655 1468.92 419.544 1469.58 419.015 1470.24 418.486 1471.53 417.402 1472.16 416.873 1472.79 416.397 1474.08 415.418 1474.74 414.916 1475.4 414.519 1476.72 413.673 1477.4 413.25 1478.11 412.959 1479.54 412.351 1480.28 412.06L1481.83 411.98C1482.54 412.192 1484.02 412.589 1484.73 412.8 1485.36 413.223 1486.6 414.07 1487.23 414.519L1488.68 415.313 1489.37 416.873C1489.92 417.561 1491.03 418.909 1491.58 419.597L1492 421.607C1492.35 425.838 1492.74 430.043 1493.14 434.274L1492.29 442.419C1492.21 444.191 1492.08 447.735 1492.03 449.507 1492.29 450.644 1492.87 452.971 1493.14 454.134L1493.16 456.329 1493.14 458.445 1494.74 458.868 1496.35 459.477C1496.9 460.111 1498.04 461.381 1498.62 462.015 1499.2 462.624 1500.41 463.866 1500.99 464.501 1501.62 465.109 1502.86 466.353 1503.49 466.96 1504.13 467.542 1505.42 468.759 1506.05 469.341L1508.68 471.668C1509.34 472.223 1510.69 473.334 1511.37 473.889 1512.03 474.418 1513.35 475.529 1514.01 476.058L1515.64 476.878C1516.46 477.354 1518.07 478.332 1518.86 478.808L1520.6 479.813C1521.49 480.263 1523.26 481.215 1524.15 481.691L1526.1 482.616C1527.58 483.277 1530.48 484.6 1531.93 485.261 1533.43 485.843 1536.41 487.033 1537.91 487.615L1540.15 488.144C1541.57 488.699 1544.47 489.81 1545.9 490.365L1548.14 490.153C1549.27 490.391 1551.56 490.92 1552.69 491.185 1555.46 493.062 1558.49 493.618 1561.79 492.851 1565.16 492.613 1568.56 492.719 1571.96 493.142 1575.17 493.882 1578.44 494.279 1581.76 494.332 1581.71 497.664 1581.95 500.97 1582.5 504.275 1582.16 506.127 1581.5 509.802 1581.18 511.654 1580.55 513.108 1579.31 516.07 1578.71 517.525 1578.18 518.344 1577.12 519.957 1576.6 520.777L1575.52 522.364C1574.99 523.052 1573.88 524.453 1573.33 525.141 1572.78 525.776 1571.64 527.045 1571.09 527.679 1570.48 528.261 1569.3 529.425 1568.72 530.007 1568.08 530.562 1566.82 531.646 1566.19 532.175L1563.45 534.185 1561.92 534.952C1561.39 535.507 1560.34 536.671 1559.81 537.226L1557.54 537.041C1556.04 537.649 1553.06 538.866 1551.56 539.501 1550.38 539.739 1548 540.268 1546.82 540.505L1544.45 540.743C1540.1 541.219 1531.37 542.119 1527.03 542.568 1521.78 543.177 1516.49 543.6 1511.21 543.626L1508.79 543.6C1504.13 543.309 1499.51 543.785 1494.93 544.578L1492.82 544.658C1491.9 544.419 1490.03 543.917 1489.1 543.652 1485.31 543.6 1481.54 543.6 1477.77 543.732L1475.43 543.652C1473.61 543.388 1469.97 542.885 1468.15 542.621 1464.28 541.034 1460.06 540.241 1455.9 540.955 1446.81 541.299 1437.79 541.722 1428.73 541.51L1426.36 541.352C1424.96 541.934 1422.11 543.124 1420.69 543.705L1418.74 544.393C1417.84 544.763 1416.08 545.451 1415.21 545.795L1413.47 546.509 1411.76 546.932C1411.05 547.302 1409.62 548.042 1408.88 548.439L1407.28 548.809C1406.57 549.206 1405.17 550 1404.46 550.422L1402.9 551.428C1401.95 551.269 1400.06 550.899 1399.11 550.74 1399.29 551.639 1399.66 553.411 1399.85 554.31 1400.53 554.786 1401.93 555.712 1402.64 556.188L1404.19 557.378C1405.56 557.88 1408.3 558.912 1409.65 559.44L1411.76 560.128C1414.34 561.927 1417.21 562.667 1420.35 562.376 1421.43 562.693 1423.59 563.328 1424.64 563.645 1425.59 563.989 1427.46 564.677 1428.41 564.994L1430.26 565.708C1431.02 566.105 1432.58 566.924 1433.37 567.321L1435.11 567.718C1435.84 568.115 1437.35 568.934 1438.11 569.357L1439.85 569.833C1440.61 570.257 1442.17 571.156 1442.96 571.579L1444.91 572.055 1446.86 572.901C1447.83 573.298 1449.76 574.144 1450.73 574.567L1452.89 575.467C1454.45 576.101 1457.61 577.423 1459.17 578.058L1461.3 578.931C1462.28 579.354 1464.2 580.2 1465.18 580.597L1467.1 581.443C1467.89 581.893 1469.5 582.818 1470.29 583.268L1472.13 583.718C1472.87 584.193 1474.4 585.092 1475.14 585.569L1476.9 586.124C1477.64 586.627 1479.12 587.605 1479.88 588.107L1481.65 588.742C1482.49 589.245 1484.12 590.223 1484.94 590.726L1486.65 591.783C1487.44 592.312 1489.05 593.343 1489.84 593.872 1490.58 594.401 1492.11 595.486 1492.85 596.015L1494.32 597.125C1494.98 597.707 1496.27 598.844 1496.9 599.399 1497.48 599.928 1498.64 601.013 1499.22 601.568 1499.88 601.965 1501.15 602.758 1501.81 603.128 1501.67 604.742 1501.41 607.942 1501.31 609.555 1500.49 610.295 1498.91 611.776 1498.09 612.543 1497.04 608.814 1495.43 608.761 1493.32 612.384L1491.61 613.601C1487.63 614.817 1487.29 616.43 1490.55 618.44L1489.24 619.234 1487.94 619.974 1486.55 620.371 1483.91 619.736 1482.59 619.445C1481.96 619.287 1480.67 618.969 1480.01 618.784L1478.72 618.44C1478.09 618.281 1476.88 617.911 1476.24 617.753L1475.03 617.382C1474.48 617.224 1473.32 616.854 1472.74 616.695L1473.48 618.335 1472.42 619.869C1472.26 621.164 1471.95 623.73 1471.79 625.025L1472.61 626.744 1471.16 625.819C1470.47 625.316 1469.08 624.364 1468.36 623.862 1467.76 623.412 1466.49 622.486 1465.89 622.037 1465.31 621.587 1464.12 620.688 1463.54 620.239 1462.96 619.763 1461.78 618.863 1461.17 618.388L1459.75 617.568C1459.01 617.092 1457.53 616.14 1456.8 615.637 1455.45 614.95 1452.79 613.574 1451.45 612.887L1449.34 612.093C1447.78 611.591 1444.7 610.56 1443.14 610.031 1441.98 609.766 1439.67 609.237 1438.48 608.973 1435.74 607.069 1432.71 606.408 1429.41 607.042 1427.6 606.778 1423.96 606.249 1422.14 605.984 1418.37 604.504 1414.37 603.922 1410.36 604.133 1409.23 603.948 1406.93 603.631 1405.8 603.472 1404.88 603.049 1403.01 602.229 1402.09 601.806 1400.35 601.78 1396.84 601.727 1395.08 601.674 1393.92 601.489 1391.57 601.092 1390.38 600.907 1389.44 600.484 1387.49 599.611 1386.51 599.188L1379.55 598.659 1377.31 598.13C1376.42 597.681 1374.6 596.729 1373.7 596.253 1372.62 596.12 1370.51 595.909 1369.43 595.803 1368.59 595.353 1366.93 594.454 1366.09 594.005L1364.06 593.687 1362.11 592.894C1361.19 592.471 1359.34 591.651 1358.42 591.228L1356.52 590.382C1355.62 589.959 1353.81 589.112 1352.91 588.689L1351.04 587.843C1350.17 587.42 1348.4 586.6 1347.53 586.203L1345.74 585.41C1344.98 584.987 1343.42 584.114 1342.63 583.691L1340.84 583.294C1340.05 582.871 1338.5 581.998 1337.7 581.575L1335.7 581.179 1333.65 580.438C1332.12 579.883 1329.01 578.772 1327.48 578.217L1325.19 577.529 1318.65 575.731C1316.91 575.44 1313.38 574.832 1311.64 574.541 1310.72 574.144 1308.85 573.351 1307.93 572.954 1304.74 572.743 1301.55 572.69 1298.36 572.795 1294.96 572.743 1291.59 572.372 1288.24 571.658 1284.55 570.23 1280.57 569.543 1276.62 569.966L1274.32 569.992C1272.56 569.754 1269.03 569.252 1267.26 569.014 1262.62 567.638 1257.8 567.083 1252.98 567.295 1249.68 567.268 1246.44 566.924 1243.2 566.263 1239.54 564.782 1235.61 564.254 1231.69 564.624 1229.92 564.412 1226.44 563.963 1224.68 563.751 1222.04 561.9 1219.17 561.318 1216.01 562.006 1214.9 561.821 1212.66 561.424 1211.53 561.212 1210 560.816 1206.97 560.022 1205.44 559.599 1204.33 559.361 1202.09 558.885 1200.98 558.647 1199.46 558.224 1196.4 557.378 1194.9 556.955 1193.76 556.717 1191.5 556.214 1190.36 555.976 1188.81 555.553 1185.72 554.707 1184.17 554.283 1183.01 554.019 1180.72 553.49 1179.56 553.226 1176.74 551.454 1173.71 550.951 1170.47 551.718 1168.7 551.692 1165.17 551.692 1163.43 551.666 1161.06 548.571 1159.19 548.836 1157.74 552.485L1156 553.226C1155.21 553.596 1153.65 554.337 1152.89 554.733 1152.18 555.156 1150.78 556.029 1150.1 556.478 1149.41 556.928 1148.01 557.854 1147.3 558.33L1145.8 559.255C1145.06 559.731 1143.56 560.657 1142.8 561.107 1141.98 561.583 1140.37 562.508 1139.55 562.984L1137.68 563.91 1131.78 566.449 1129.62 567.268C1128.14 567.85 1125.22 569.014 1123.74 569.596L1121.9 570.442C1121.08 570.865 1119.47 571.685 1118.66 572.108L1117.15 572.954C1116.44 573.351 1115.05 574.091 1114.36 574.461L1112.88 574.99 1112.73 577.265C1112.59 579.089 1112.33 582.765 1112.23 584.617 1112.2 592.444 1111.73 600.537 1113.99 608.153 1114.39 609.37 1115.15 611.829 1115.52 613.072L1116.23 615.399 1117.84 615.849C1118.52 616.325 1119.92 617.25 1120.61 617.7L1122.06 618.678C1122.74 619.154 1124.11 620.08 1124.8 620.556 1125.43 621.032 1126.75 621.957 1127.41 622.407L1128.88 623.121C1129.51 623.624 1130.75 624.576 1131.38 625.078L1132.76 625.872 1134.97 627.987C1135.47 628.569 1136.47 629.68 1136.97 630.235L1137.97 631.346 1133.65 634.942C1132.57 635.207 1130.44 635.736 1129.38 636 1126.22 635.365 1123.35 635.974 1120.71 637.798 1116.68 638.407 1112.54 638.327 1108.56 637.534 1107.06 637.058 1104.11 636.159 1102.63 635.709L1100.79 634.969C1100.16 634.387 1098.92 633.223 1098.28 632.642L1096.65 631.954 1095.57 630.473C1095.07 629.706 1094.12 628.146 1093.65 627.353L1092.78 625.528C1092.2 624.126 1091.09 621.27 1090.51 619.869L1089.8 617.726C1089.3 616.219 1088.24 613.204 1087.74 611.697L1087.11 609.555 1087.24 607.333C1086.66 605.932 1085.5 603.102 1084.92 601.701L1084.45 599.479 1082.87 593.343C1082.74 592.206 1082.53 589.959 1082.42 588.821 1083.5 585.463 1082.71 582.898 1080.05 581.126 1077.04 578.931 1073.78 577.133 1070.35 575.704 1067.45 574.276 1064.76 574.753 1062.26 577.159L1060.18 577.952 1057.96 577.926C1056.51 578.561 1053.62 579.83 1052.19 580.438L1049.98 581.126C1048.56 581.734 1045.66 582.951 1044.21 583.585L1042.34 584.193C1041.63 584.696 1040.2 585.674 1039.49 586.177 1038.78 586.68 1037.38 587.684 1036.7 588.213L1035.3 589.271C1034.69 589.8 1033.46 590.884 1032.82 591.413L1030.64 593.608 1029.13 593.952 1028.71 596.173 1028.29 598.421C1027.58 601.701 1026.79 604.953 1025.84 608.179 1024.1 612.94 1023.55 618.07 1024.26 623.095 1024.47 627.485 1024.89 636.212 1025.1 640.602 1025.37 641.554 1025.89 643.511 1026.16 644.463 1026.58 645.838 1027.42 648.535 1027.87 649.911 1027.63 651.312 1027.21 654.089 1027 655.49L1024.36 657.5 1020.99 657.395C1020.33 656.998 1018.99 656.257 1018.33 655.861 1017.72 655.464 1016.48 654.644 1015.88 654.247 1015.25 653.798 1014.03 652.925 1013.4 652.476 1012.74 652.026 1011.42 651.1 1010.77 650.625L1009.03 649.937C1006.73 647.901 1004.07 646.896 1001.01 646.869 999.908 646.499 997.668 645.732 996.535 645.362 995.085 644.833 992.134 643.801 990.684 643.273 990.632 642.083 990.579 639.755 990.526 638.566 990.526 637.402 990.5 635.022 990.5 633.858 992.371 631.187 992.951 628.278 992.265 625.105L993.109 620.556C994.954 617.859 995.56 614.923 994.98 611.723L995.929 607.069C996.403 605.482 997.352 602.308 997.826 600.722L998.564 598.5C999.117 596.993 1000.2 593.978 1000.75 592.471L1001.52 590.541C1001.96 589.774 1002.86 588.213 1003.31 587.446L1003.7 585.674C1004.2 584.987 1005.18 583.585 1005.65 582.871L1006.31 581.231C1006.84 580.517 1007.89 579.063 1008.39 578.322 1008.97 577.609 1010.13 576.128 1010.71 575.414L1011.98 573.88C1012.66 573.192 1014.01 571.764 1014.67 571.05L1016.12 569.675C1016.83 569.04 1018.22 567.771 1018.91 567.11 1019.59 566.502 1020.94 565.285 1021.62 564.65 1022.31 564.068 1023.65 562.852 1024.34 562.27 1025.05 561.662 1026.45 560.472 1027.13 559.864 1027.87 559.282 1029.34 558.065 1030.08 557.457L1031.66 556.241C1032.4 555.659 1033.9 554.469 1034.67 553.887 1035.38 553.305 1036.83 552.115 1037.54 551.533 1038.25 550.951 1039.65 549.788 1040.36 549.206L1041.89 548.227C1042.49 547.62 1043.68 546.403 1044.29 545.768 1044.89 545.133 1046.11 543.864 1046.69 543.203 1047.24 542.489 1048.35 541.087 1048.9 540.373 1049.51 539.659 1050.66 538.231 1051.27 537.517 1051.56 536.539 1052.19 534.555 1052.51 533.55L1052.98 531.54C1053.41 530.694 1054.27 529.028 1054.7 528.182L1054.91 526.066 1055.57 523.898C1057.46 521.094 1058.18 518.027 1057.75 514.668 1057.91 510.358 1058.57 506.1 1059.81 501.974 1059.76 500.89 1059.7 498.722 1059.68 497.637 1060.18 484.943 1060.26 472.25 1059.97 459.582L1057.89 459.053C1056.99 459.133 1055.25 459.265 1054.38 459.344 1053.64 459.715 1052.22 460.482 1051.48 460.852L1050.11 461.619C1049.69 462.174 1048.85 463.258 1048.4 463.814 1046.84 464.131 1043.68 464.766 1042.1 465.083 1038.96 465.85 1035.77 465.929 1032.61 465.268 1031.27 464.607 1028.58 463.258 1027.24 462.571 1026.74 461.777 1025.73 460.19 1025.26 459.397L1025.02 457.467C1025.47 454.875 1025.84 452.257 1026.18 449.665 1026.79 449.004 1027.97 447.682 1028.58 447.021L1030.03 446.016 1029.58 447.788 1029.11 449.533C1026.66 451.993 1027.34 456.382 1031.08 457.043 1031.48 460.957 1033.11 461.513 1036.04 458.736 1038.78 457.81 1041.57 457.043 1044.39 456.382 1045.24 456.012 1046.92 455.219 1047.77 454.822 1048.42 454.267 1049.77 453.103 1050.45 452.521 1051.03 451.86 1052.22 450.538 1052.83 449.877L1054.01 448.475C1054.59 447.788 1055.75 446.412 1056.33 445.725 1056.88 445.037 1058.02 443.662 1058.57 442.975 1059.15 442.287 1060.28 440.885 1060.84 440.198 1061.42 439.484 1062.55 438.029 1063.13 437.315L1064.34 435.808C1064.92 435.12 1066.11 433.719 1066.69 433.031 1067.27 432.396 1068.45 431.101 1069.03 430.466 1069.64 429.858 1070.82 428.641 1071.4 428.059 1072.04 427.478 1073.28 426.367 1073.91 425.785 1074.59 425.256 1075.96 424.172 1076.65 423.617L1078.2 422.559C1079.02 422.03 1080.6 420.998 1081.42 420.47 1082.84 419.861 1085.71 418.618 1087.16 418.01 1088.32 417.719 1090.64 417.137 1091.8 416.873 1095.91 416.873 1100 416.212 1103.82 414.704 1105.66 414.44 1109.38 413.937 1111.22 413.673 1112.96 413.647 1116.44 413.593 1118.18 413.593 1119.08 413.144 1120.84 412.271 1121.74 411.848 1122.87 411.663 1125.11 411.346 1126.25 411.161 1129.51 411.69 1132.54 411.108 1135.34 409.362 1136.55 409.151 1138.92 408.728 1140.11 408.516 1141.82 408.49 1145.25 408.384 1146.96 408.331 1147.83 407.908 1149.59 407.035 1150.46 406.612 1151.57 406.453 1153.76 406.11 1154.87 405.924 1158.03 406.586 1160.95 406.03 1163.67 404.311 1165.41 404.073 1168.94 403.597 1170.7 403.359 1174.58 403.756 1178.48 403.254 1182.11 401.825 1191.29 400.741 1200.56 400.715 1209.79 400.133 1217.56 399.71 1225.41 399.472 1233.21 398.916Z" stroke="#000000" stroke-width="0.24685" stroke-miterlimit="8" fill-rule="evenodd"/></g></svg>