<svg width="791" height="471" xmlns="http://www.w3.org/2000/svg" xmlns:xlink="http://www.w3.org/1999/xlink" xml:space="preserve" overflow="hidden"><defs><clipPath id="clip0"><rect x="2669" y="1961" width="791" height="471"/></clipPath></defs><g clip-path="url(#clip0)" transform="translate(-2669 -1961)"><path d="M2885.1 2431.13C2873.92 2430.08 2850.37 2425.86 2842.05 2423.42 2840.64 2423.01 2835.91 2419.39 2831.55 2415.38 2827.19 2411.37 2815.07 2401.75 2804.62 2394 2779.49 2375.33 2766.55 2365.01 2758.02 2356.82L2750.99 2350.06 2746.09 2354.36C2743.4 2356.73 2738.41 2363.49 2735 2369.38 2731.6 2375.29 2726.89 2381.73 2724.53 2383.71 2714.49 2392.15 2696.12 2385.28 2684.82 2368.87 2677.17 2357.75 2675.12 2348.42 2673.75 2318.46 2673.07 2303.44 2671.73 2285.8 2670.77 2279.25 2668.37 2262.72 2668.42 2205.43 2670.85 2194.67 2674.42 2178.83 2678.22 2169.91 2686.16 2158.81 2690.56 2152.65 2697.76 2141.24 2702.17 2133.48 2710.88 2118.09 2724.21 2103.58 2760.93 2069.59 2800.83 2032.67 2820.32 2018.01 2848.13 2004.04 2866.79 1994.68 2873.07 1992.52 2894.01 1988.25 2904.58 1986.1 2921.56 1981.61 2931.76 1978.27 2941.94 1974.94 2955.45 1971.44 2961.77 1970.48 2981.2 1967.54 3008.39 1970.08 3049.06 1978.65 3093.57 1988.04 3100.28 1988.95 3125.21 1988.97 3145.87 1988.99 3148.51 1988.7 3155.4 1985.79 3162.12 1982.95 3166.15 1982.47 3192.45 1981.46 3226.82 1980.13 3233.26 1979.17 3289.17 1966.91 3338.22 1956.15 3367.72 1959.66 3407.3 1980.98 3413.38 1984.26 3419.33 1986.95 3420.48 1986.95 3421.62 1986.95 3427.43 1985.41 3433.38 1983.52 3445.35 1979.72 3454.07 1979.15 3457.83 1981.9 3460.03 1983.51 3460.26 1985.51 3459.81 1999.38 3459.37 2013.14 3458.84 2016.01 3455.51 2022.81 3453.41 2027.06 3449.59 2032.15 3447.02 2034.13L3442.32 2037.7 3444.6 2044.89C3446.34 2050.41 3446.87 2057.35 3446.84 2074.7 3446.81 2095.73 3446.53 2098.14 3442.98 2108.98 3437.56 2125.46 3430.79 2137.69 3421.43 2147.9L3413.35 2156.7 3413.35 2193.66 3408.98 2197.93C3402.1 2204.66 3392.13 2207.7 3376.98 2207.7 3361.52 2207.7 3350.93 2204.38 3345.39 2197.8 3343.43 2195.46 3339.01 2187.94 3335.58 2181.08 3329.08 2168.05 3324.94 2162.45 3321.84 2162.45 3317.07 2162.45 3304.57 2172 3288.15 2188.2L3276.15 2200.04 3276.18 2211.06C3276.23 2235.79 3282.06 2262.59 3290.53 2277.02 3294.48 2283.77 3305.24 2293.61 3313.6 2298.13 3316.77 2299.85 3326.3 2304.24 3334.79 2307.9 3350.74 2314.76 3363.32 2322.45 3369.7 2329.24 3374.32 2334.18 3380.75 2346.89 3380.16 2349.96 3379.9 2351.35 3375.8 2353.94 3369.93 2356.42 3364.54 2358.71 3359.06 2361.5 3357.74 2362.61 3354.26 2365.58 3316.53 2365.32 3301.14 2362.22 3277.02 2357.36 3255.14 2347.93 3235.82 2334.06 3229.87 2329.79 3217.43 2318.41 3208.18 2308.77L3191.36 2291.25 3188.13 2297.81C3185.27 2303.6 3184.92 2306.2 3185.02 2320.12 3185.19 2341.83 3186.46 2344.53 3199.54 2350.75 3205.08 2353.38 3218.25 2358.44 3228.81 2362 3239.37 2365.55 3252.47 2370.64 3257.91 2373.32 3268.04 2378.29 3281.63 2390.15 3281.63 2394 3281.63 2395.15 3276.98 2400.59 3271.29 2406.09 3261.17 2415.88 3260.73 2416.14 3251.05 2417.73 3235.97 2420.23 3193.05 2419.75 3177.36 2416.91 3151.08 2412.16 3132.09 2403.78 3119.56 2391.39 3109.8 2381.75 3106.75 2375.73 3103.9 2360.49 3102.32 2352.08 3099.73 2344.56 3095.53 2336.21 3092.19 2329.57 3088.61 2320.61 3087.58 2316.31 3086.54 2311.99 3084.64 2303.85 3083.35 2298.19 3079.33 2280.67 3074.01 2273.51 3065 2273.51 3060.29 2273.51 3033.99 2280.9 3016.13 2287.25 2981.78 2299.44 2986.1 2298.51 2968.8 2297.53 2953.28 2296.64 2952.89 2296.69 2945.5 2300.54 2939.91 2303.47 2935.17 2307.82 2926.99 2317.56 2910.67 2336.96 2907.3 2339.11 2882.01 2346.3 2875.89 2348.04 2871.38 2350.06 2871.38 2351.07 2871.38 2354.07 2887.29 2360.94 2901.27 2364 2943.07 2373.14 2950.53 2375.8 2957.82 2384.09 2962.64 2389.58 2966.05 2397.11 2966.05 2402.26 2966.05 2410.03 2959.9 2414.53 2940.44 2420.99 2934.52 2422.95 2926.96 2426.07 2923.62 2427.91 2916.32 2431.95 2904.36 2432.94 2885.1 2431.13Z" fill-rule="evenodd"/></g></svg>