<svg width="614" height="401" xmlns="http://www.w3.org/2000/svg" xmlns:xlink="http://www.w3.org/1999/xlink" xml:space="preserve" overflow="hidden"><defs><clipPath id="clip0"><rect x="2819" y="592" width="614" height="401"/></clipPath></defs><g clip-path="url(#clip0)" transform="translate(-2819 -592)"><path d="M3148.34 992.439C3138.31 991.048 3126.96 985.46 3122.3 979.622L3118.33 974.659 3099.1 974.64C3068.74 974.612 3014.15 972.103 2996.13 969.908L2979.65 967.901 2971.93 976.081C2963.33 985.195 2961.87 985.579 2946.65 982.766 2934.07 980.441 2924.89 974.566 2920.29 965.881 2919.38 964.189 2914.99 962.151 2907.69 960.047 2892.95 955.791 2882.04 950.114 2875.37 943.219 2872.31 940.057 2868.63 937.61 2866.96 937.61 2865.34 937.61 2862.42 936.375 2860.51 934.866 2858.59 933.356 2855.41 932.121 2853.46 932.121 2850.46 932.121 2849.9 931.507 2849.9 928.175 2849.9 924.744 2848.86 923.716 2842.01 920.285 2836.78 917.673 2834.28 915.645 2834.61 914.283 2835.86 909.261 2835.33 908.176 2831.36 907.459 2827.61 906.781 2827.17 906.133 2826.5 900.221 2826.03 896.126 2824.8 893.039 2823.19 891.861 2821.02 890.276 2820.76 888.798 2821.46 882.047 2821.91 877.675 2822.87 873.509 2823.6 872.786 2824.43 871.95 2823.83 869.156 2821.96 865.091 2819.2 859.139 2819 856.56 2819 826.712 2819 798.006 2819.25 794.49 2821.4 792.543 2823.1 791 2823.39 789.881 2822.38 788.673 2820.11 785.935 2821.83 756.702 2824.58 751.221 2826.04 748.287 2826.6 744.955 2826.12 741.95 2825.43 737.722 2825.85 736.921 2830.39 733.837 2833.16 731.955 2836.25 730.415 2837.26 730.415 2839.21 730.415 2838.39 725.732 2835.9 722.617 2835.07 721.562 2835.32 719.881 2836.63 717.815 2837.75 716.065 2839.09 711.239 2839.62 707.088 2840.94 696.949 2842.14 695.085 2848.5 693.377 2854.75 691.69 2856.52 689.794 2852.89 688.643 2850.65 687.932 2850.94 687.197 2855.47 682.308 2858.28 679.267 2862.32 673.102 2864.46 668.607 2867.71 661.762 2868.91 660.435 2871.86 660.435 2876.37 660.435 2881.3 656.976 2882.94 652.652 2883.94 650.015 2885.05 649.361 2887.91 649.703 2891.06 650.079 2891.76 649.494 2892.76 645.684 2893.71 641.993 2894.57 641.224 2897.75 641.224 2901.66 641.224 2905.83 637.728 2908.82 631.962 2909.69 630.265 2911.56 628.876 2912.97 628.876 2914.37 628.876 2919.15 626.98 2923.56 624.665 2929.68 621.458 2931.76 619.579 2932.3 616.774 2932.86 613.833 2933.82 613.049 2937.1 612.866 2942.8 612.547 2948.67 611.133 2953.77 608.853 2956.14 607.79 2959.15 606.921 2960.42 606.921 2961.69 606.921 2963.04 605.762 2963.42 604.346 2964.37 600.704 2979.39 598.16 2984.73 600.736 2987.81 602.219 2988.86 602.202 2990.91 600.649 2992.27 599.618 2994.22 598.755 2995.25 598.731 2996.27 598.707 2998.94 597.144 3001.18 595.257 3006.29 590.957 3010.81 590.919 3017.98 595.116L3023.59 598.404 3037.32 595.733C3049.95 593.276 3051.54 593.23 3057.23 595.164 3062.15 596.838 3086.34 601.402 3090.41 601.427 3090.93 601.43 3094.19 603.612 3097.69 606.276 3103.9 611.01 3106.66 611.419 3106.66 607.606 3106.66 604.098 3109 604.213 3121.16 608.32 3135.33 613.108 3141.38 616.89 3144.69 623.043 3146.62 626.616 3147.96 627.503 3151.4 627.503 3164.23 627.503 3180.57 633.383 3189.48 641.196 3194.27 645.397 3194.78 645.546 3197.08 643.459 3200.93 639.98 3202.04 640.681 3205.35 648.681 3207.05 652.783 3209.18 656.746 3210.08 657.49 3211.07 658.309 3215.11 658.442 3220.32 657.828 3229.61 656.733 3229.52 656.67 3230.78 665.244 3231.37 669.263 3233.97 669.218 3236.11 665.152L3238.04 661.465 3241.09 665.752C3244.62 670.705 3246.67 671.183 3247.68 667.296 3248.72 663.322 3250.33 663.919 3252.09 668.924 3253.26 672.299 3253.98 672.925 3255.24 671.668 3257.8 669.106 3262.37 669.747 3267.79 673.427 3270.54 675.292 3273.72 676.458 3274.86 676.021 3276.01 675.584 3278.48 676.24 3280.37 677.478 3283.68 679.643 3283.86 679.605 3285.04 676.518 3286.1 673.745 3286.98 673.388 3291.54 673.915 3294.66 674.274 3298 675.797 3299.72 677.635 3301.81 679.886 3306.56 681.625 3316.88 683.922 3326.88 686.146 3332.08 688.021 3334.25 690.183 3335.97 691.881 3338.23 692.934 3339.29 692.526 3340.4 692.101 3341.9 693.016 3342.78 694.65 3343.98 696.902 3344.85 697.229 3346.83 696.166 3348.53 695.263 3351.86 695.338 3356.89 696.393 3363.48 697.776 3364.61 698.503 3365.97 702.284 3366.84 704.655 3367.57 707.787 3367.63 709.244 3367.72 711.615 3367.88 711.569 3369.21 708.803 3370.03 707.105 3371.45 705.716 3372.36 705.716 3374.04 705.716 3377.15 712.885 3379.74 722.687 3380.5 725.606 3382.19 729.156 3383.48 730.576 3385.38 732.678 3386.13 738.32 3387.49 760.944 3388.66 780.37 3389.83 790.257 3391.38 793.804 3392.76 796.969 3393.83 804.287 3394.21 813.264 3394.61 822.318 3395.88 831.044 3397.65 836.806 3399.22 841.843 3400.49 846.99 3400.49 848.248 3400.49 849.505 3406.09 856.078 3412.94 862.855 3430.81 880.527 3435.16 889.078 3432.1 900.464 3431.26 903.555 3428.72 908.201 3426.45 910.786 3419.08 919.178 3408.23 920.73 3377.47 917.789 3365.18 916.615 3347.58 915.673 3338.34 915.696 3322.42 915.737 3302.02 917.559 3300.49 919.076 3300.11 919.461 3300.61 921.312 3301.62 923.192 3304.07 927.746 3301.87 932.543 3295.85 935.827 3288.41 939.89 3262.99 939.131 3248.76 934.421 3242.73 932.42 3236.8 930.775 3235.6 930.766 3234.38 930.755 3229.49 933.275 3224.72 936.361 3212.78 944.069 3211.29 944.533 3191.81 946.621 3176.24 948.29 3164.33 951.539 3164.33 954.117 3164.33 954.665 3166.18 955.877 3168.43 956.813 3174.48 959.318 3181.45 967.755 3184.75 976.586 3186.36 980.865 3187.66 984.941 3187.66 985.645 3187.66 987.366 3170.82 992.142 3162.27 992.849 3158.49 993.161 3152.22 992.976 3148.34 992.438Z" fill-rule="evenodd"/></g></svg>