<svg width="1263" height="631" xmlns="http://www.w3.org/2000/svg" xmlns:xlink="http://www.w3.org/1999/xlink" xml:space="preserve" overflow="hidden"><defs><clipPath id="clip0"><rect x="940" y="29" width="1263" height="631"/></clipPath></defs><g clip-path="url(#clip0)" transform="translate(-940 -29)"><path d="M1165.94 658.906C1163.18 658.367 1159.45 656.972 1157.68 655.803 1153.76 653.238 1141.08 654.024 1136.32 657.128 1133.54 658.946 1133.24 658.914 1133.24 656.8 1133.24 655.511 1134.53 652.813 1136.11 650.806 1138.68 647.55 1138.74 647.106 1136.69 646.692 1135.42 646.435 1131.2 647.294 1127.29 648.597 1123.39 649.901 1117.43 651.824 1114.05 652.87L1107.9 654.771 1114.65 647.906C1118.37 644.13 1121.08 640.711 1120.68 640.306 1119.76 639.388 1110.8 642.514 1103.13 646.431 1096.71 649.71 1094.5 649.239 1098.03 645.339 1099.28 643.954 1100.31 641.163 1100.31 639.138 1100.31 636.044 1101.5 634.869 1107.75 631.802 1111.84 629.792 1115.7 627.073 1116.32 625.759 1118.01 622.208 1140.69 605.792 1147.35 603.3 1150.53 602.11 1160.56 600.603 1169.65 599.948 1194.51 598.158 1198.55 595.491 1209.4 573.732 1215.78 560.941 1227.66 545.73 1248.75 523.34 1253.13 518.684 1256.72 513.962 1256.72 512.844 1256.72 511.727 1257.6 510.471 1258.68 510.057 1261.53 508.965 1274.55 489.964 1274.55 486.913 1274.55 485.495 1276.02 481.422 1277.82 477.859 1282.06 469.472 1287.36 452.461 1290.34 437.737 1291.64 431.317 1294.45 421.12 1296.59 415.078 1300.93 402.806 1303.87 392.776 1304.03 389.673 1304.09 388.539 1304.65 385.527 1305.27 382.977 1306.1 379.583 1305.9 378.027 1304.54 377.162 1301.86 375.466 1291.84 375.667 1290.05 377.455 1289.03 378.477 1287.76 378.533 1286.14 377.626 1284.38 376.643 1282.49 377.014 1279.13 378.999 1276.6 380.494 1273.53 381.333 1272.31 380.865 1271.09 380.396 1269.4 380.551 1268.55 381.209 1264.84 384.09 1257.71 385.574 1255.68 383.886 1254.07 382.555 1253.33 382.696 1251.94 384.598 1250.99 385.904 1249.31 386.628 1248.21 386.207 1245.52 385.171 1239.64 387.543 1236.08 391.096 1234.46 392.721 1232.26 393.651 1231.1 393.204 1229.95 392.762 1226.27 394.253 1222.9 396.531 1219.54 398.801 1215.88 400.659 1214.78 400.659 1213.31 400.659 1213 401.596 1213.62 404.09 1214.69 408.374 1212.08 408.704 1210.91 404.435 1210.21 401.857 1209.84 401.687 1208.72 403.405 1207.97 404.537 1207.36 406.855 1207.35 408.554 1207.33 410.253 1206.71 411.645 1205.95 411.645 1205.2 411.645 1204.58 410.408 1204.58 408.898 1204.58 407.386 1203.89 406.151 1203.05 406.151 1202.17 406.151 1201.79 407.564 1202.15 409.471 1202.7 412.331 1202.15 412.91 1198.2 413.653 1195.49 414.161 1193.6 415.334 1193.6 416.512 1193.6 417.612 1192.99 418.51 1192.23 418.51 1191.48 418.51 1190.86 416.611 1190.86 414.29 1190.86 410.985 1190.34 410.184 1188.46 410.596 1187.14 410.884 1186.29 412.011 1186.57 413.099 1186.85 414.187 1187.38 416.159 1187.76 417.48 1188.13 418.803 1187.75 419.884 1186.91 419.884 1186.06 419.884 1185.37 418.957 1185.37 417.824 1185.37 416.691 1184.71 415.765 1183.91 415.765 1183.07 415.765 1182.81 416.935 1183.32 418.511 1184.32 421.669 1181.95 422.305 1180.76 419.197 1179.16 415.028 1177.42 417.303 1178.14 422.631 1178.62 426.237 1178.34 428.123 1177.32 428.123 1176.47 428.123 1175.77 426.615 1175.77 424.772 1175.77 422.928 1175.19 421.064 1174.49 420.63 1172.37 419.318 1171.42 422.384 1173.03 425.377 1175.67 430.319 1172.87 431.333 1169.86 426.521 1167.71 423.064 1166.88 422.509 1166.5 424.255 1166.23 425.526 1166.98 428.462 1168.18 430.778 1170.37 435.034 1169.47 436.373 1166.44 433.341 1165.16 432.059 1164.79 432.633 1164.79 435.92 1164.79 438.245 1163.87 440.916 1162.73 441.856 1160.99 443.302 1160.68 443.01 1160.68 439.963 1160.68 437.983 1159.99 436.363 1159.15 436.363 1158.15 436.363 1157.94 438.018 1158.53 441.169 1159.09 444.172 1158.89 445.975 1158 445.975 1157.21 445.975 1156.56 444.497 1156.56 442.689 1156.56 440.882 1155.58 439.027 1154.39 438.569 1151.12 437.312 1151.01 437.466 1152.66 441.085 1153.88 443.78 1153.74 444.872 1151.94 446.676 1150.71 447.91 1149.7 450.233 1149.7 451.841 1149.7 454.115 1149.33 454.397 1148.05 453.116 1145.48 450.536 1144.09 451.176 1144.93 454.558 1145.47 456.735 1144.86 458.159 1142.89 459.376 1140.49 460.863 1140.08 460.766 1140.01 458.689 1139.95 456.96 1139.52 457.248 1138.48 459.707 1137.58 461.865 1136.79 462.476 1136.37 461.352 1135.87 460.016 1135.2 460.191 1133.72 462.038 1131.91 464.301 1131.81 464.147 1132.55 460.264 1133.21 456.809 1132.6 455.194 1129.29 451.645 1126.94 449.135 1124.84 447.878 1124.34 448.686 1123.86 449.461 1122.85 450.095 1122.1 450.095 1121.34 450.095 1121.06 449.559 1121.46 448.906 1121.87 448.251 1120.91 446.552 1119.34 445.13 1114.98 441.182 1093.68 441.542 1085.08 445.707 1081.66 447.365 1078.46 448.721 1077.97 448.721 1077.48 448.721 1073.35 451.132 1068.8 454.078 1055.02 462.99 1043.11 464.323 1025.09 458.965 1018.83 457.104 1017.48 456.083 1015.71 451.849 1014.45 448.808 1013.98 445.149 1014.51 442.339 1014.98 439.827 1014.67 436.479 1013.82 434.891 1012.03 431.539 1013.17 429.616 1015.54 431.992 1018.1 434.554 1019.36 433.911 1019.36 430.038L1019.36 426.459 1023.69 431.068C1028.33 436.007 1030.8 434.637 1027.01 429.226 1023.87 424.746 1024.32 422.273 1029.09 417.738 1034.33 412.75 1040.45 402.588 1039.31 400.752 1038.11 398.807 1032.75 401.108 1025.4 406.724 1022.02 409.311 1015.93 412.805 1011.87 414.489 1005.01 417.334 1004.58 417.783 1005.75 420.865 1006.45 422.689 1007.01 424.451 1007.01 424.779 1007.01 426.456 1003.65 424.885 998.002 420.571 992.789 416.587 990.559 415.763 984.985 415.763 972.659 415.763 953.506 407.448 953.506 402.097 953.506 401.306 954.587 400.592 955.907 400.51 957.228 400.43 955.749 399.788 952.621 399.085 946.06 397.61 939.387 392.075 940.045 388.653 940.294 387.362 943.679 384.128 947.568 381.467 951.457 378.805 959.478 370.797 965.392 363.674 971.305 356.549 978.963 347.589 982.409 343.762 989.899 335.441 1000.6 321.52 1002.77 317.268 1003.63 315.587 1004.6 310.711 1004.93 306.432 1005.48 299.224 1005.22 298.376 1001.47 294.862 996.409 290.134 996.415 288.786 1001.53 280.719 1003.79 277.147 1005.64 273.764 1005.64 273.205 1005.64 272.646 1008.38 267.791 1011.72 262.417 1015.06 257.043 1019.31 249.642 1021.17 245.973 1023.03 242.302 1028.38 235.283 1033.05 230.375 1041.46 221.526 1041.53 221.391 1040.8 214.903 1039.94 207.27 1043.85 190.27 1048.24 182.552 1051.71 176.435 1056.93 172.355 1061.29 172.355 1063.07 172.355 1067.58 174.554 1071.32 177.243 1083.89 186.285 1087.72 187.638 1095.21 185.67 1103.42 183.511 1105.18 182.048 1108.47 174.599 1112.2 166.15 1117.64 159.442 1124.71 154.577 1130.49 150.593 1131.08 150.468 1136.48 152.071 1140 153.118 1144.4 156.095 1148.08 159.919 1155.35 167.481 1158.62 167.177 1166.88 158.175 1169.94 154.833 1173.05 152.1 1173.78 152.1 1174.51 152.1 1175.88 150.864 1176.82 149.354 1177.76 147.844 1179.34 146.607 1180.33 146.607 1181.32 146.607 1184.66 144.444 1187.74 141.8 1190.83 139.157 1194.26 136.994 1195.37 136.994 1196.48 136.994 1198.2 136.014 1199.19 134.815 1201.2 132.391 1221.3 121.946 1225.52 121.132 1227 120.846 1229.02 119.514 1230 118.17 1230.98 116.828 1232.61 115.692 1233.62 115.647 1236.15 115.535 1248.71 109.736 1251.23 107.521 1252.36 106.524 1255.86 105.286 1259.01 104.769 1265.13 103.766 1281.33 95.7697 1284.16 92.3591 1285.1 91.2286 1286.51 90.3036 1287.3 90.3036 1290.02 90.3036 1305.86 81.9589 1306.54 80.165 1306.92 79.1786 1310.09 77.5695 1313.59 76.5893 1317.99 75.3577 1321.35 73.1721 1324.48 69.5098 1326.97 66.5958 1329.88 64.195 1330.94 64.1741 1332 64.1531 1335.29 62.2988 1338.25 60.0541 1341.22 57.8094 1344.41 55.9728 1345.35 55.9728 1346.29 55.9728 1348.91 54.4154 1351.17 52.5116 1355.54 48.8279 1376.22 40.5919 1386.85 38.3057 1390.36 37.5494 1399.1 35.6434 1406.27 34.0701 1413.44 32.4968 1421.89 31.2197 1425.05 31.232 1428.21 31.2442 1431.21 30.5941 1431.7 29.7872 1432.2 28.9804 1433.63 28.7564 1434.87 29.2895 1436.12 29.8223 1447.01 30.472 1459.09 30.7332 1482.9 31.2482 1489.53 31.7441 1490.9 33.1133 1491.39 33.6013 1493.23 34.0008 1494.99 34.0008 1496.87 34.0008 1498.19 34.8214 1498.19 35.9887 1498.19 37.419 1500.21 38.0933 1505.39 38.392 1510.26 38.6723 1512.49 39.3643 1512.25 40.5233 1512.06 41.4678 1513.22 42.24 1514.81 42.24 1518.4 42.24 1531.63 46.6677 1532.26 48.0763 1532.51 48.643 1533.5 49.1064 1534.46 49.1064 1535.41 49.1064 1538.83 50.8819 1542.06 53.0519 1545.29 55.2219 1549.05 56.7056 1550.41 56.3491 1552.36 55.8381 1552.73 56.3098 1552.13 58.5834 1551.51 60.9563 1552 61.4656 1554.89 61.4656 1556.82 61.4656 1558.75 62.0446 1559.19 62.7521 1561.05 65.756 1576.57 71.6191 1588.03 73.6467 1604.39 76.5409 1654.33 76.2971 1665.58 73.2689 1669.72 72.1507 1682.38 69.608 1693.7 67.6179 1735.38 60.2903 1743.73 58.6697 1747.49 57.1741 1751.84 55.4397 1774.46 53.5839 1809.64 52.0764 1830.35 51.1882 1834.96 51.38 1843.25 53.4727 1848.53 54.8065 1860.24 56.5449 1869.27 57.3355 1887.5 58.9316 1893.98 60.3459 1900.55 64.16 1902.99 65.5776 1907.77 67.4529 1911.16 68.3276 1916.57 69.7214 1931.21 75.3768 1945.17 81.471 1947.65 82.5523 1950.89 83.4376 1952.37 83.4376 1953.85 83.4376 1955.07 84.0686 1955.07 84.8401 1955.07 85.6115 1956.77 86.9385 1958.84 87.7891 1972.13 93.2364 1993.39 103.634 1996.56 106.245 1998.63 107.947 2001.72 109.764 2003.42 110.283 2008.13 111.717 2016.99 118.654 2029.83 130.973 2036.23 137.102 2044.22 144.383 2047.6 147.155 2050.98 149.925 2055.75 155.416 2058.2 159.355 2060.65 163.296 2065.88 169.3 2069.81 172.7 2073.74 176.098 2077 179.405 2077.07 180.051 2077.17 181.131 2085.13 190.897 2094.03 200.851 2103.09 210.999 2108.73 218.322 2108.73 219.948 2108.73 220.918 2111.07 225.36 2113.94 229.819 2123.86 245.283 2128.48 265.759 2123.06 270.262 2118.47 274.077 2118.24 276.584 2121.77 284.165 2123.64 288.191 2125.18 293.225 2125.18 295.348 2125.2 300.17 2130.09 315.769 2133.86 323.071 2135.43 326.093 2137.14 331.344 2137.67 334.744 2140.26 351.4 2143.1 363.847 2145.26 367.961 2146.9 371.077 2147.99 377.697 2148.71 388.988 2149.61 402.866 2152.82 435.685 2154.77 450.785 2155.79 458.692 2157.61 467.377 2158.58 468.952 2159.12 469.825 2160.2 474.127 2160.99 478.514 2162.67 487.931 2164.9 495.061 2167.34 498.812 2168.31 500.301 2169.1 502.512 2169.1 503.722 2169.1 504.933 2170.6 507.328 2172.42 509.045 2174.25 510.761 2176.52 514.114 2177.47 516.495 2178.42 518.873 2181.25 522.859 2183.76 525.351 2186.26 527.841 2188.31 530.732 2188.31 531.774 2188.31 532.815 2190.55 537.883 2193.28 543.037 2196.02 548.19 2198.8 554.878 2199.46 557.898 2200.63 563.221 2200.93 565.425 2202.8 582.28 2203.71 590.492 2201.41 603.903 2199.1 603.903 2197.69 603.903 2172.76 620.387 2160.87 629.184 2150.71 636.699 2140.15 641.606 2138.81 639.435 2138.06 638.216 2131.79 638.014 2114.28 638.642 2093.33 639.397 2089.83 639.196 2082.25 636.82 2071.98 633.595 2067.03 633.459 2059.3 636.19 2056.07 637.332 2053.1 637.937 2052.7 637.535 2052.29 637.134 2054.09 634.989 2056.68 632.77 2062.43 627.85 2059.43 627.119 2051.05 631.397 2044.19 634.903 2043.63 632.36 2049.74 625.399 2052 622.818 2053.85 620.344 2053.85 619.902 2053.85 618.547 2049.29 620.608 2044.59 624.09 2040.61 627.036 2040.13 627.125 2040.13 624.922 2040.13 623.565 2045.44 617.462 2051.94 611.361 2065.3 598.803 2075.91 593.606 2092.95 591.278 2106.77 589.39 2112.68 587.382 2115.69 583.555 2118.77 579.638 2119.22 573.694 2116.44 573.694 2115.4 573.694 2114.21 572.447 2113.82 570.923 2112.6 566.279 2101.61 562.46 2086.17 561.316 2071.31 560.216 2050 555.183 2047.53 552.189 2046.69 551.177 2043.7 550.347 2040.88 550.347 2037.05 550.347 2035.59 549.706 2035.1 547.812 2034.63 546.016 2033.51 545.452 2031.27 545.881 2029.53 546.214 2027.69 545.811 2027.18 544.983 2026.67 544.157 2024.75 543.482 2022.91 543.482 2021.06 543.482 2018.81 542.259 2017.86 540.736 2016.92 539.224 2015.4 537.989 2014.48 537.989 2013.57 537.989 2011.27 536.444 2009.39 534.555 2007.5 532.667 2005.02 531.122 2003.88 531.122 2002.74 531.122 2001.15 529.886 2000.34 528.376 1999.54 526.865 1997.97 525.629 1996.86 525.629 1995.76 525.629 1994.85 525.105 1994.85 524.463 1994.85 523.821 1993.01 520.577 1990.76 517.253 1988.51 513.93 1986.66 510.128 1986.65 508.807 1986.64 507.485 1985.7 506.404 1984.57 506.404 1983.43 506.404 1982.51 505.512 1982.51 504.422 1982.51 503.332 1981.22 500.263 1979.65 497.602 1978.09 494.939 1977.17 492.166 1977.62 491.438 1978.07 490.71 1977.73 489.678 1976.87 489.147 1974.67 487.783 1962.22 494.233 1961.45 497.14 1961.06 498.623 1960.01 499.242 1958.73 498.75 1957.48 498.27 1956.07 499.034 1955.2 500.664 1952.64 505.452 1936.38 517.501 1933.81 516.514 1932.16 515.882 1929.8 517.429 1925.74 521.787 1922.59 525.178 1918.63 528.688 1916.96 529.586 1915.28 530.483 1913.91 532.124 1913.91 533.23 1913.91 534.336 1912.67 535.241 1911.16 535.241 1909.39 535.241 1908.42 536.156 1908.42 537.835 1908.42 539.262 1907.23 541.888 1905.77 543.672 1903.47 546.478 1902.73 546.682 1900.3 545.197 1896.57 542.925 1896.21 543.018 1897 546.038 1897.46 547.806 1896.78 548.828 1894.78 549.35 1893.15 549.778 1891.25 551.965 1890.4 554.39 1889.3 557.563 1888.29 558.479 1886.51 557.913 1883.46 556.945 1867.26 572.198 1867.26 576.03 1867.26 577.48 1865.41 580.039 1863.15 581.715 1860.88 583.389 1859.03 585.943 1859.03 587.391 1859.03 588.885 1857.44 590.795 1855.34 591.813 1850.89 593.978 1834.94 613.417 1829.67 623.117 1826.42 629.086 1826.13 630.444 1827.7 632.353 1829.32 634.327 1829.16 634.494 1826.35 633.77 1824.6 633.318 1819.68 634.181 1815.38 635.694 1809.22 637.859 1802.81 638.575 1784.94 639.095 1772.49 639.457 1759.52 640.447 1756.13 641.292 1752.73 642.139 1745.32 642.933 1739.66 643.056 1734 643.18 1724.74 643.451 1719.08 643.658 1707.71 644.072 1702.6 643.169 1696.45 639.644 1692.29 637.264 1684.74 636.888 1680.32 638.839 1678.84 639.494 1677.92 639.318 1677.92 638.38 1677.92 637.545 1678.54 636.861 1679.3 636.861 1680.05 636.861 1680.67 636.255 1680.67 635.513 1680.67 632.968 1674.15 632.493 1669.84 634.724 1666.04 636.69 1663.51 635.553 1666.95 633.428 1668.58 632.414 1668.8 627.248 1667.2 627.248 1666.59 627.248 1664.31 629.102 1662.15 631.368 1657.14 636.599 1654.91 636.718 1658.58 631.556 1661.16 627.93 1661.16 625.875 1658.59 625.875 1658.02 625.875 1655.63 627.497 1653.27 629.479 1647.98 633.936 1646.47 632.895 1650.33 627.459 1654.36 621.8 1653.88 618.778 1649.75 623.815 1646.42 627.886 1646.38 627.895 1646.37 624.638 1646.36 620.21 1659.17 607.908 1666.31 605.495 1669.3 604.483 1674.91 601.529 1678.77 598.93 1687.09 593.331 1695.64 591.621 1716.34 591.42 1724.26 591.343 1734.11 590.566 1738.23 589.695 1744.43 588.381 1746.15 587.35 1748.3 583.651 1750.61 579.671 1750.72 578.193 1749.38 569.919 1748.55 564.818 1747.65 554.386 1747.38 546.734 1747.11 539.082 1746.44 532.095 1745.89 531.206 1744.92 529.637 1741.99 503.694 1742 496.789 1742 494.9 1742.35 489.037 1742.79 483.759 1743.26 478.016 1743.02 473.827 1742.21 473.322 1741.34 472.782 1741.67 468.353 1743.16 460.947 1746.55 443.931 1746.56 443.989 1741.39 443.489 1737.73 443.136 1736.65 443.687 1735.33 446.579 1733.28 451.093 1731.11 451.153 1732.24 446.665 1733.31 442.383 1731.12 442.194 1728.24 446.322L1726.09 449.411 1726.01 446.322C1725.91 441.933 1722.1 442.431 1721.57 446.902 1721.33 448.92 1720.28 450.856 1719.23 451.201 1717.79 451.677 1717.54 450.951 1718.23 448.218 1718.76 446.086 1718.56 444.605 1717.73 444.605 1716.97 444.605 1716.34 445.456 1716.34 446.496 1716.34 447.538 1715.31 449.237 1714.05 450.273 1711.99 451.972 1711.86 451.786 1712.71 448.382 1713.7 444.388 1712.49 443.514 1709.75 446.253 1708.47 447.535 1708.11 447.366 1708.11 445.499 1708.11 443.636 1707.58 443.391 1705.76 444.409 1704.06 445.364 1702.96 445.102 1701.73 443.447 1700.35 441.585 1699.55 441.471 1697.34 442.818 1695.25 444.098 1693.62 444.098 1690.06 442.818 1687.53 441.913 1685.08 440.643 1684.61 439.996 1684.14 439.348 1683.33 439.505 1682.81 440.344 1682.28 441.203 1680.4 441.5 1678.51 441.024 1676.66 440.559 1674.28 440.892 1673.24 441.762 1671.79 442.965 1671.2 442.947 1670.78 441.689 1670.36 440.437 1669.18 440.396 1665.96 441.519 1663.61 442.338 1661.37 442.686 1660.98 442.295 1660.26 441.572 1652.64 440.86 1640.19 440.35 1636.42 440.195 1632.88 439.389 1632.32 438.56 1630.42 435.714 1631.27 445.49 1633.52 452.257 1634.75 455.979 1638.77 465.379 1642.44 473.147 1646.11 480.913 1649.11 488.527 1649.11 490.065 1649.11 491.603 1651.08 495.735 1653.5 499.246 1655.91 502.759 1658.05 507.631 1658.24 510.071 1658.43 512.512 1660.09 516.857 1661.92 519.724 1666.11 526.271 1667.51 536.145 1664.94 541.097 1663.9 543.097 1663.38 545.994 1663.79 547.538 1664.19 549.082 1663.88 550.344 1663.09 550.344 1660.97 550.344 1657.48 558.124 1658.26 561.111 1658.73 562.909 1658.06 563.928 1656.07 564.449 1654.23 564.93 1652.9 566.72 1652.36 569.444 1651.89 571.78 1650.97 573.69 1650.31 573.69 1649.65 573.69 1649.11 574.495 1649.11 575.476 1649.11 578.841 1645.68 584.536 1643.28 585.164 1641.81 585.549 1640.88 587.11 1640.88 589.186 1640.88 592.734 1637.19 602.715 1635.44 603.902 1634.88 604.28 1633.73 605.907 1632.89 607.52 1632.04 609.133 1629.63 610.875 1627.54 611.39 1625.44 611.906 1622.18 613.36 1620.3 614.623 1618.41 615.885 1614.47 617.028 1611.53 617.161 1608.6 617.296 1605.82 617.942 1605.36 618.597 1604.43 619.912 1579.77 618.629 1576.24 617.082 1575.02 616.549 1569.78 617.132 1564.58 618.377 1558.42 619.849 1548.02 620.738 1534.75 620.923 1517.19 621.166 1514.2 621.528 1513.08 623.54 1511.48 626.407 1508.95 626.654 1510.03 623.838 1510.69 622.117 1510.14 622.035 1506.49 623.309 1500.13 625.528 1499.79 623.709 1505.89 620.108 1512.18 616.395 1509.13 614.79 1502.4 618.273 1496.81 621.164 1497.09 619.566 1503.27 613.23 1508.49 607.883 1507.58 606.295 1501.57 610.24 1499.71 611.459 1498.19 611.923 1498.19 611.27 1498.22 606.115 1520.97 582.129 1528.47 579.353 1531.06 578.395 1536.57 576.274 1540.72 574.638 1545.82 572.628 1551.3 571.66 1557.64 571.649 1565.41 571.634 1567.35 571.162 1569.02 568.884 1572.92 563.553 1568.62 555.063 1558.89 548.886 1555.39 546.667 1553.1 544.852 1553.79 544.852 1556.46 544.852 1536.93 526.539 1530.09 522.623 1526.13 520.354 1522.89 517.926 1522.89 517.227 1522.89 516.527 1521.46 515.305 1519.72 514.511 1517.98 513.716 1515.89 511.324 1515.09 509.193 1514.29 507.063 1511.85 504.176 1509.68 502.778 1507.51 501.381 1502.34 496.992 1498.19 493.027 1494.04 489.062 1489.61 485.814 1488.35 485.81 1486.92 485.804 1485.72 484.25 1485.16 481.682 1484.66 479.418 1483.75 477.563 1483.14 477.563 1482.53 477.563 1481.64 476.018 1481.16 474.13 1480.69 472.241 1479.45 470.696 1478.42 470.696 1477.38 470.696 1476.18 469.306 1475.75 467.607 1475.32 465.908 1473.71 463.737 1472.16 462.782 1469.67 461.241 1468.69 461.664 1463.35 466.593 1460.04 469.643 1456.57 473.977 1455.64 476.225 1454.72 478.471 1453.47 480.31 1452.88 480.31 1452.29 480.31 1451.16 482.163 1450.38 484.429 1449.59 486.695 1448.29 488.549 1447.5 488.549 1446.7 488.549 1446.05 489.282 1446.05 490.177 1446.05 491.073 1444.78 493.168 1443.21 494.835 1441.65 496.502 1440.22 498.861 1440.04 500.08 1439.57 503.33 1430.82 511.894 1427.98 511.894 1426.06 511.894 1425.7 512.695 1426.26 515.67 1426.9 519.016 1426.34 519.751 1421.33 522.116 1418.22 523.586 1415.08 525.903 1414.36 527.267 1413.63 528.63 1412.13 529.747 1411.02 529.747 1409.92 529.747 1409.01 530.915 1409.01 532.344 1409.01 533.964 1407.73 535.263 1405.61 535.796 1403.73 536.268 1401.25 538.497 1400.08 540.751 1398.92 543.007 1397.41 544.852 1396.74 544.852 1396.06 544.852 1393.01 547.324 1389.96 550.344 1386.92 553.366 1383.8 555.838 1383.04 555.838 1382.29 555.838 1379.64 557.601 1377.16 559.756 1374.68 561.91 1371.11 564.481 1369.22 565.467 1367.34 566.453 1364.99 568.398 1364 569.788 1363.01 571.18 1361.34 572.316 1360.27 572.316 1359.21 572.316 1357.72 573.482 1356.96 574.905 1356.2 576.328 1354.03 577.883 1352.13 578.359 1350.23 578.836 1347.73 581.078 1346.55 583.367 1345.37 585.648 1343.88 587.184 1343.23 586.783 1342.58 586.381 1340.77 588.226 1339.21 590.879 1337.64 593.532 1334.9 596.26 1333.12 596.938 1331.34 597.616 1328.27 600.079 1326.31 602.411 1324.35 604.741 1322.09 606.648 1321.29 606.648 1320.49 606.648 1319.83 607.267 1319.83 608.021 1319.83 608.777 1318.62 609.395 1317.13 609.395 1315.65 609.395 1313.73 610.715 1312.87 612.326 1311.64 614.626 1311.05 614.856 1310.15 613.391 1309.31 612.037 1308.29 613.111 1306.42 617.287 1304.6 621.346 1303.41 622.62 1302.39 621.596 1301.36 620.571 1300.66 620.583 1300.01 621.635 1299.5 622.455 1297.83 623.127 1296.3 623.127 1294.65 623.127 1293.21 624.266 1292.78 625.912 1292.25 627.938 1291.32 628.465 1289.38 627.849 1287.41 627.223 1286.51 627.771 1285.94 629.947 1285.48 631.719 1284.42 632.607 1283.29 632.174 1282.26 631.777 1281.41 631.905 1281.41 632.457 1281.41 633.469 1277.29 635.968 1272.84 637.647 1271.52 638.146 1270.44 639.1 1270.44 639.766 1270.44 640.434 1268.66 640.979 1266.49 640.979 1264.32 640.979 1261.73 641.959 1260.74 643.156 1259.75 644.352 1256.15 647.247 1252.75 649.588L1246.57 653.844 1223.18 654.178C1200.65 654.5 1189.67 655.797 1184.07 658.794 1181.15 660.358 1173.62 660.406 1165.94 658.909Z" fill-rule="evenodd"/></g></svg>