<svg width="738" height="617" xmlns="http://www.w3.org/2000/svg" xmlns:xlink="http://www.w3.org/1999/xlink" xml:space="preserve" overflow="hidden"><defs><clipPath id="clip0"><rect x="1847" y="878" width="738" height="617"/></clipPath></defs><g clip-path="url(#clip0)" transform="translate(-1847 -878)"><path d="M2381.19 879.106C2386.2 878.289 2391.39 878.289 2396.45 879.159 2401.06 880.24 2405.83 880.899 2410.63 880.794L2412.89 880.873C2414.03 881.057 2416.29 881.4 2417.45 881.584 2420.12 883.35 2423.04 883.957 2426.23 883.35 2427.39 883.587 2429.68 884.036 2430.82 884.246 2432.35 884.668 2435.43 885.512 2436.98 885.933L2439.17 886.382C2440.57 886.988 2443.36 888.147 2444.76 888.727L2446.92 888.596 2449.03 889.281C2450.5 889.861 2453.43 890.968 2454.91 891.522 2456.36 892.181 2459.31 893.472 2460.76 894.104L2462.89 895.08C2464.45 895.502 2467.56 896.319 2469.11 896.714 2469.69 897.294 2470.85 898.48 2471.43 899.06L2473.36 899.64C2474.81 900.272 2477.68 901.511 2479.13 902.144L2481.13 903.066C2482.03 903.515 2483.87 904.411 2484.77 904.859L2486.59 905.782C2487.4 906.229 2489.06 907.126 2489.88 907.574 2490.62 908.048 2492.07 909.024 2492.81 909.498L2494.52 910.104 2497.47 912.107 2499.24 912.766C2500.08 913.241 2501.74 914.216 2502.58 914.717L2504.32 915.745C2505.17 916.22 2506.83 917.221 2507.65 917.722L2510.6 919.936 2512.42 920.674C2513.26 921.201 2514.92 922.256 2515.76 922.809L2517.48 923.943C2518.29 924.496 2519.9 925.603 2520.72 926.157 2521.48 926.71 2523.01 927.817 2523.78 928.345 2524.43 928.951 2525.8 930.137 2526.49 930.717L2528.18 931.587C2528.91 932.167 2530.36 933.326 2531.1 933.906 2531.81 934.486 2533.26 935.646 2533.98 936.226L2536.82 938.545C2537.48 939.151 2538.8 940.39 2539.43 940.997L2541.06 941.946C2541.75 942.552 2543.15 943.791 2543.86 944.397 2544.52 945.029 2545.89 946.295 2546.55 946.927 2547.21 947.586 2548.52 948.93 2549.18 949.589 2549.82 950.275 2551.08 951.672 2551.74 952.384 2552.37 953.122 2553.61 954.624 2554.24 955.362L2555.53 956.996C2556.14 957.761 2557.35 959.316 2557.96 960.08 2558.54 960.845 2559.73 962.373 2560.31 963.138 2560.89 963.902 2562.02 965.405 2562.6 966.169L2563.44 967.909C2564 968.62 2565.15 970.044 2565.71 970.756 2566.24 971.547 2567.24 973.128 2567.76 973.919L2568.48 975.685C2568.98 976.423 2570 977.925 2570.53 978.663L2571.16 980.429C2571.64 981.193 2572.59 982.696 2573.06 983.46L2573.59 985.227C2574.04 985.991 2574.96 987.52 2575.41 988.31L2575.75 990.155C2576.2 990.999 2577.12 992.633 2577.57 993.45L2578.33 995.506C2578.89 997.061 2579.97 1000.17 2580.52 1001.73L2581.21 1003.97 2581.1 1008.5 2581.05 1010.66 2583.42 1011.29C2583.71 1013.3 2584.24 1017.33 2584.5 1019.33 2584.5 1029.38 2584.39 1039.58 2584.47 1049.67L2584.08 1052.1C2583.84 1053.26 2583.34 1055.6 2583.08 1056.76 2582.58 1058.21 2581.6 1061.11 2581.1 1062.56L2580.15 1064.25C2579.6 1064.96 2578.54 1066.36 2577.99 1067.04 2577.28 1067.6 2575.88 1068.65 2575.17 1069.18L2573.43 1070.13 2567.53 1072.03C2563.42 1072.79 2559.22 1072.79 2555.14 1072.45L2554.27 1070.26 2552.13 1070.39C2551.03 1070.44 2548.84 1070.58 2547.73 1070.65L2545.52 1070.07C2544.02 1069.57 2540.99 1068.57 2539.48 1068.07L2537.3 1067.41C2535.82 1066.91 2532.84 1065.88 2531.37 1065.38L2529.2 1064.72C2527.76 1064.22 2524.83 1063.22 2523.35 1062.69L2521.25 1062.09C2519.8 1061.56 2516.9 1060.56 2515.45 1060.06L2513.31 1059.43C2511.86 1058.93 2508.96 1057.92 2507.54 1057.42L2505.41 1056.79C2503.96 1056.29 2501.08 1055.29 2499.63 1054.79L2497.5 1054.15C2496.07 1053.65 2493.18 1052.65 2491.73 1052.15L2489.62 1051.52C2488.17 1051.02 2485.27 1050.02 2483.82 1049.52L2481.71 1048.88C2480.26 1048.38 2477.39 1047.35 2475.97 1046.83L2473.88 1046.14C2472.46 1045.61 2469.64 1044.53 2468.22 1044.01 2466.79 1043.48 2463.97 1042.37 2462.55 1041.82 2461.44 1041.58 2459.25 1041.08 2458.17 1040.84 2456.7 1040.37 2453.75 1039.47 2452.27 1039L2450.11 1038.39C2448.61 1037.94 2445.63 1037.02 2444.13 1036.55 2442.99 1036.28 2440.73 1035.76 2439.62 1035.49 2436.8 1033.57 2433.77 1033.04 2430.53 1033.91 2426.34 1034.39 2422.15 1034.62 2417.95 1034.62 2416.53 1035.2 2413.66 1036.36 2412.24 1036.92 2411.5 1037.47 2410 1038.55 2409.26 1039.08L2407.89 1040.24C2407.28 1040.76 2406.02 1041.84 2405.41 1042.37 2404.88 1042.95 2403.85 1044.14 2403.33 1044.74L2402.54 1046.22C2402.09 1047.01 2401.19 1048.57 2400.77 1049.33L2399.85 1051.12C2399.24 1052.55 2398.06 1055.42 2397.48 1056.84L2396.82 1059C2394.66 1061.53 2393.94 1064.41 2394.66 1067.68L2394.87 1070.07C2395.02 1077.06 2394.92 1084.07 2394.58 1091.11 2393.81 1095.12 2394.44 1099.18 2396.03 1102.92 2396.26 1104.71 2396.76 1108.3 2397.03 1110.09 2396.74 1114.09 2397.37 1118.1 2398.95 1121.82 2399.14 1123 2399.56 1125.4 2399.74 1126.59 2399.82 1128.33 2399.93 1131.81 2400.01 1133.55 2400.43 1134.47 2401.3 1136.31 2401.72 1137.24 2401.88 1138.37 2402.22 1140.66 2402.38 1141.8 2402.43 1143.51 2402.51 1146.96 2402.54 1148.68 2402.93 1149.63 2403.72 1151.47 2404.14 1152.42L2404.78 1156.95 2404.86 1159.25C2404.75 1164.07 2405.38 1168.89 2406.38 1173.64 2406.44 1175.46 2406.57 1179.09 2406.65 1180.89 2404.7 1183.52 2404.17 1186.42 2405.01 1189.61L2405.25 1191.85C2404.96 1193.59 2404.41 1197.1 2404.12 1198.84 2402.56 1202.5 2401.96 1206.45 2402.27 1210.43 2402.04 1212.2 2401.56 1215.79 2401.32 1217.55 2399.82 1221.19 2399.27 1225.12 2399.61 1229.04 2399.37 1230.78 2398.93 1234.32 2398.69 1236.08 2397.19 1239.67 2396.61 1243.57 2396.97 1247.47 2396.74 1249.23 2396.29 1252.74 2396.05 1254.51 2394.55 1258.12 2394 1262.02 2394.34 1265.92 2394.1 1267.69 2393.65 1271.22 2393.42 1272.98 2391.91 1276.57 2391.36 1280.5 2391.7 1284.4 2391.49 1286.16 2391.02 1289.7 2390.81 1291.43 2389.28 1294.99 2388.67 1298.84 2388.91 1302.72 2388.73 1303.88 2388.36 1306.14 2388.17 1307.28 2386.64 1310.83 2386.09 1314.71 2386.43 1318.58 2386.2 1320.35 2385.75 1323.88 2385.51 1325.65 2384.01 1329.26 2383.45 1333.16 2383.8 1337.09 2383.56 1338.85 2383.09 1342.41 2382.85 1344.18 2381.37 1347.79 2380.82 1351.72 2381.19 1355.62 2380.98 1357.38 2380.53 1360.89 2380.32 1362.63 2378.45 1365.19 2377.79 1368.06 2378.37 1371.22L2377.81 1373.41C2377.31 1374.89 2376.34 1377.84 2375.84 1379.34L2375.07 1381.45C2374.49 1382.93 2373.33 1385.83 2372.75 1387.3 2372.12 1388.72 2370.86 1391.57 2370.2 1392.99L2369.35 1394.92C2368.93 1395.82 2368.06 1397.58 2367.64 1398.48L2366.77 1400.24C2366.35 1401.09 2365.45 1402.75 2365.03 1403.59L2364.11 1405.25C2363.66 1406.04 2362.76 1407.57 2362.32 1408.36 2361.82 1409.05 2360.81 1410.44 2360.31 1411.16L2359.6 1412.84C2359.1 1413.63 2358.07 1415.22 2357.57 1415.98L2356.49 1417.64C2355.94 1418.4 2354.86 1419.96 2354.3 1420.72 2353.75 1421.46 2352.62 1422.99 2352.06 1423.73 2351.48 1424.49 2350.32 1426.02 2349.74 1426.79L2348.51 1428.37C2347.9 1429.11 2346.69 1430.56 2346.08 1431.29 2345.45 1431.98 2344.21 1433.35 2343.58 1434.04 2342.94 1434.67 2341.65 1435.96 2341.02 1436.62 2340.36 1437.22 2339.02 1438.46 2338.36 1439.1 2337.67 1439.68 2336.3 1440.86 2335.59 1441.44L2334.01 1442.34 2331.37 1444.66C2330.64 1445.18 2329.16 1446.24 2328.45 1446.79 2327.66 1447.32 2326.1 1448.37 2325.34 1448.9L2323.68 1449.98 2320.41 1451.99 2318.59 1452.59C2317.83 1453.12 2316.32 1454.2 2315.56 1454.73 2314.22 1455.41 2311.5 1456.76 2310.13 1457.42L2308.1 1457.73C2307.28 1458.23 2305.65 1459.18 2304.83 1459.68L2302.78 1460.39C2301.2 1460.89 2298.03 1461.9 2296.45 1462.4L2294.08 1462.95 2291.66 1463.08C2288.26 1462.98 2284.88 1463.03 2281.53 1463.21 2280.27 1463.03 2277.74 1462.66 2276.47 1462.48 2274.81 1462.11 2271.52 1461.42 2269.86 1461.05 2268.7 1460.92 2266.41 1460.68 2265.27 1460.55 2262.53 1457.97 2258.47 1459.1 2256.84 1462.27 2256.23 1462.79 2254.99 1463.82 2254.39 1464.35 2253.83 1464.9 2252.73 1465.98 2252.2 1466.51 2251.67 1467.09 2250.67 1468.25 2250.17 1468.83L2249.12 1470.04C2248.62 1470.62 2247.56 1471.78 2247.03 1472.39L2244.71 1474.71 2243.26 1475.84C2242.37 1476.24 2240.58 1477 2239.68 1477.4L2239.15 1476.16C2238.76 1475.66 2237.97 1474.6 2237.57 1474.07 2234.96 1469.8 2229.85 1472.41 2230.03 1476.89L2229.38 1478.37C2229.22 1479.08 2228.9 1480.53 2228.74 1481.24 2225.71 1474.34 2222.92 1467.48 2220.02 1460.6L2219.23 1458.73C2218.65 1454.23 2213.22 1456.04 2212.48 1459.37 2212.14 1460.21 2211.45 1461.87 2211.11 1462.69 2210.42 1466.96 2209.9 1471.25 2209.37 1475.58L2208.87 1477.58 2207.97 1479.35C2207.74 1480.22 2207.26 1481.9 2207.05 1482.77 2205.39 1482.8 2202.12 1482.9 2200.49 1482.96L2200.28 1480.72C2200.36 1477.55 2199.3 1474.81 2197.14 1472.52 2196.9 1471.41 2196.4 1469.2 2196.17 1468.09L2196.19 1465.88C2195.61 1464.51 2194.45 1461.79 2193.87 1460.42L2193.08 1458.58C2192.66 1457.76 2191.84 1456.12 2191.45 1455.31L2190.74 1453.65C2190.13 1453.07 2188.92 1451.85 2188.31 1451.25 2187.07 1450.43 2184.62 1448.82 2183.38 1448.01L2181.35 1447.14C2180.51 1446.4 2178.82 1444.95 2177.98 1444.24L2175.69 1444.79C2174.53 1444.66 2172.16 1444.42 2170.97 1444.29 2164.3 1443.34 2157.21 1441.15 2151.31 1445.16L2149.59 1446.03C2148.94 1446.56 2147.57 1447.61 2146.88 1448.11 2146.41 1448.82 2145.51 1450.19 2145.06 1450.88L2144.59 1452.72 2143.82 1454.59C2143.32 1456.1 2142.35 1459.08 2141.85 1460.58 2141.56 1461.74 2141 1464.06 2140.71 1465.22 2138.89 1467.99 2138.21 1471.02 2138.66 1474.31 2138.39 1475.47 2137.89 1477.76 2137.66 1478.9 2137.18 1480.35 2136.26 1483.25 2135.81 1484.7L2135.12 1486.49C2134.68 1487.15 2133.73 1488.49 2133.28 1489.15L2132.78 1490.68C2132.12 1491.18 2130.85 1492.18 2130.22 1492.68L2128.62 1493.5C2127.69 1493.34 2125.79 1493.05 2124.85 1492.89L2123.77 1491.23C2123.79 1488.36 2122.79 1485.96 2120.73 1484.01L2119.86 1482.22C2118.86 1481.35 2116.89 1479.61 2115.91 1478.74 2115.31 1478.77 2114.12 1478.79 2113.51 1478.79 2112.99 1479.21 2111.93 1480.06 2111.4 1480.51 2110.88 1480.9 2109.8 1481.69 2109.27 1482.09 2108.72 1482.48 2107.61 1483.25 2107.06 1483.64 2106.48 1483.98 2105.32 1484.7 2104.74 1485.07 2104.13 1485.38 2102.89 1486.07 2102.28 1486.41L2100.99 1487.1C2100.07 1486.25 2098.2 1484.59 2097.25 1483.75L2096.12 1482.77C2095.64 1482.35 2094.67 1481.56 2094.19 1481.14 2093.82 1480.69 2093.09 1479.82 2092.72 1479.4L2092.38 1481.22 2090.69 1482.22C2090.03 1483.38 2088.69 1485.72 2088.03 1486.88 2087.42 1486.83 2086.18 1486.75 2085.55 1486.7L2084.23 1486.59C2083.52 1486.44 2082.1 1486.12 2081.38 1485.96 2079.2 1483.4 2078.93 1479.82 2079.25 1476.66 2080.88 1474.02 2081.49 1471.17 2081.07 1468.12L2081.73 1465.9C2082.25 1464.4 2083.33 1461.37 2083.89 1459.87L2084.73 1457.86C2085.15 1456.97 2086 1455.15 2086.42 1454.25L2087.31 1452.43C2087.76 1451.59 2088.66 1449.93 2089.11 1449.09L2090 1447.43C2090.45 1446.66 2091.37 1445.16 2091.82 1444.39 2092.3 1443.74 2093.22 1442.36 2093.69 1441.71L2094.35 1440.15C2094.77 1439.44 2095.62 1438.04 2096.01 1437.33 2096.38 1436.62 2097.07 1435.2 2097.41 1434.48L2097.78 1432.82C2097.83 1431.98 2097.91 1430.29 2097.94 1429.45L2097.7 1427.66C2097.38 1426.84 2096.78 1425.23 2096.46 1424.41L2095.43 1422.89C2094.88 1422.23 2093.77 1420.88 2093.22 1420.22 2092.59 1419.64 2091.35 1418.48 2090.71 1417.88 2090.06 1417.32 2088.76 1416.22 2088.1 1415.66 2087.5 1415.08 2086.23 1413.95 2085.6 1413.37L2084.07 1412.42C2083.39 1411.81 2082.04 1410.63 2081.36 1410.02 2080.73 1409.42 2079.43 1408.18 2078.78 1407.54 2078.14 1406.91 2076.9 1405.62 2076.3 1404.99 2075.72 1404.3 2074.53 1402.98 2073.95 1402.3L2073.08 1400.77C2072.53 1400.11 2071.4 1398.85 2070.84 1398.19 2070.34 1397.48 2069.34 1396 2068.84 1395.26 2068.34 1394.44 2067.36 1392.78 2066.89 1391.97L2065.91 1390.02C2065.31 1388.41 2064.15 1385.19 2063.54 1383.61 2062.28 1380.34 2061.25 1377.05 2060.43 1373.67L2059.93 1371.33 2059.46 1369.03 2057.8 1368.72C2057.16 1368.14 2055.87 1366.95 2055.24 1366.37L2053.84 1365.21C2053.16 1364.69 2051.76 1363.6 2051.07 1363.08 2050.36 1362.6 2048.97 1361.63 2048.28 1361.13L2046.62 1360.47C2045.88 1359.99 2044.41 1359.07 2043.67 1358.6L2041.9 1357.99C2041.11 1357.49 2039.56 1356.51 2038.77 1356.01L2036.76 1355.46C2035.26 1354.72 2032.31 1353.3 2030.83 1352.56L2028.75 1351.56C2027.83 1351.06 2025.96 1350.06 2025.01 1349.56L2023.19 1348.47C2022.37 1347.95 2020.76 1346.87 2019.95 1346.34 2019.32 1345.71 2018.02 1344.47 2017.39 1343.84L2015.78 1342.89 2014.81 1341.31C2014.2 1340.67 2012.99 1339.41 2012.36 1338.77 2011.83 1338.04 2010.78 1336.59 2010.25 1335.85L2009.54 1334.16C2009.01 1333.45 2007.98 1332 2007.45 1331.29L2006.85 1329.55C2006.37 1328.79 2005.4 1327.28 2004.92 1326.52L2004.42 1324.67C2003.92 1323.88 2002.9 1322.27 2002.39 1321.48 2001.71 1320.03 2000.34 1317.11 1999.65 1315.66L1998.68 1313.6C1998.18 1312.68 1997.23 1310.81 1996.75 1309.86L1995.75 1307.99C1995.25 1307.14 1994.28 1305.43 1993.78 1304.59L1992.7 1302.95C1992.19 1302.22 1991.17 1300.77 1990.64 1300.03 1990.09 1299.4 1989.01 1298.13 1988.45 1297.47 1987.87 1296.89 1986.74 1295.73 1986.16 1295.15 1985.53 1294.57 1984.29 1293.46 1983.66 1292.88 1982.92 1292.38 1981.39 1291.33 1980.65 1290.8L1978.88 1289.72C1977.41 1289.06 1974.48 1287.74 1973.03 1287.09 1971.82 1286.9 1969.37 1286.53 1968.16 1286.35 1963.78 1285.71 1955.08 1284.45 1950.71 1283.82 1949.52 1283.61 1947.13 1283.13 1945.94 1282.89L1944.99 1280.79 1942.91 1280.92C1941.83 1281.08 1939.72 1281.45 1938.66 1281.63 1937.24 1280.89 1934.4 1279.44 1932.97 1278.7L1930.68 1278.1C1929.12 1277.62 1925.99 1276.65 1924.43 1276.17L1922.27 1275.59C1921.4 1275.15 1919.66 1274.2 1918.79 1273.72 1917.71 1273.67 1915.55 1273.54 1914.44 1273.48L1912.33 1273.01C1911.44 1272.54 1909.7 1271.64 1908.8 1271.19 1907.72 1271.14 1905.53 1271.03 1904.43 1270.98L1902.29 1270.51C1901.4 1270.03 1899.66 1269.08 1898.76 1268.58 1897.63 1268.53 1895.33 1268.42 1894.18 1268.37L1891.86 1267.76C1889.06 1265.89 1885.98 1265.08 1882.63 1265.29L1880.31 1264.63C1878.73 1264.1 1875.57 1263.1 1873.99 1262.57L1871.93 1261.86C1871.11 1261.39 1869.51 1260.46 1868.69 1259.99L1866.76 1259.65 1865.03 1258.78C1864.26 1258.33 1862.71 1257.41 1861.94 1256.96 1861.28 1256.43 1859.99 1255.4 1859.33 1254.88L1857.83 1254.08C1857.22 1253.53 1856.01 1252.42 1855.41 1251.9 1854.85 1251.29 1853.74 1250.08 1853.19 1249.5L1852.14 1248.21C1851.72 1247.55 1850.82 1246.26 1850.37 1245.6 1850.03 1244.91 1849.34 1243.51 1849 1242.83L1848.5 1241.27 1848.95 1239.67C1850 1237.14 1851.72 1234.97 1853.51 1232.95L1854.48 1231.92C1854.85 1231.39 1855.64 1230.36 1856.04 1229.83 1858.65 1226.91 1861.57 1224.01 1862.5 1220.06L1862.97 1218.68 1863.47 1217.29C1866.42 1216.84 1869.37 1216.34 1872.33 1215.79L1874.57 1216.18C1878.99 1217.53 1883.58 1218.34 1888.22 1218.74L1890.43 1219.24C1891.94 1219.63 1894.97 1220.48 1896.47 1220.9 1897.79 1221.56 1900.45 1222.82 1901.77 1223.46L1903.87 1223.4C1905.17 1224.06 1907.78 1225.41 1909.07 1226.07L1911.2 1226.09 1913.34 1226.38C1917.26 1226.54 1925.06 1226.86 1928.99 1227.01 1930.84 1226.83 1934.53 1226.49 1936.37 1226.3 1940.54 1226.22 1944.7 1226.07 1948.86 1225.56L1951.21 1225.35C1954.27 1225.09 1957.35 1224.98 1960.44 1225.04L1962.52 1225.25 1964.57 1225.49 1964.63 1224.22 1962.78 1223.82 1960.94 1223.4C1958.96 1221.16 1956.53 1220.29 1953.61 1220.77 1952.53 1220.56 1950.39 1220.13 1949.31 1219.92 1947.81 1219.53 1944.78 1218.76 1943.25 1218.4 1942.14 1218.13 1939.9 1217.6 1938.77 1217.34 1937.24 1216.81 1934.18 1215.81 1932.66 1215.28L1930.55 1214.34C1929.04 1213.91 1926.07 1213.07 1924.56 1212.65 1924.2 1212.04 1923.46 1210.83 1923.11 1210.2L1921.8 1209.22C1921.27 1208.56 1920.19 1207.22 1919.66 1206.53 1918.84 1205.24 1917.21 1202.69 1916.39 1201.39 1911.18 1196.78 1904.27 1194.88 1898.44 1191.35 1897.68 1190.9 1896.13 1190.03 1895.36 1189.58 1894.73 1189.11 1893.46 1188.14 1892.83 1187.63 1892.25 1187.11 1891.12 1186.05 1890.54 1185.53 1889.98 1184.97 1888.85 1183.87 1888.3 1183.31 1887.77 1182.71 1886.66 1181.52 1886.11 1180.94L1884 1178.41C1883.5 1177.75 1882.53 1176.41 1882.02 1175.75L1881.21 1174.27C1880.63 1173.77 1879.44 1172.79 1878.86 1172.29 1878.36 1170.63 1877.36 1167.31 1876.86 1165.65 1876.41 1163.73 1875.54 1159.88 1875.12 1157.93L1875.01 1155.35C1874.94 1151.79 1875.3 1148.28 1876.09 1144.83 1877.54 1140.98 1878.18 1136.89 1877.94 1132.81L1878.47 1128.17 1880.58 1127.46 1880.58 1125.27C1880.58 1124.14 1880.55 1121.84 1880.52 1120.71L1881.29 1118.5C1881.95 1116.94 1883.29 1113.88 1883.98 1112.33 1884.61 1110.8 1885.87 1107.72 1886.51 1106.19 1887.14 1105.66 1888.35 1104.66 1888.96 1104.13L1889.8 1102.58C1890.33 1101.89 1891.38 1100.49 1891.91 1099.78 1892.46 1099.12 1893.6 1097.78 1894.15 1097.12 1894.73 1096.46 1895.89 1095.17 1896.47 1094.51 1897.07 1093.88 1898.23 1092.59 1898.84 1091.95 1899.42 1091.32 1900.58 1090.03 1901.16 1089.4 1901.74 1088.74 1902.9 1087.42 1903.48 1086.76 1904.03 1086.05 1905.14 1084.65 1905.69 1083.97L1906.83 1082.46C1907.38 1081.73 1908.46 1080.28 1909.01 1079.54 1909.54 1078.77 1910.62 1077.22 1911.15 1076.43 1911.89 1075.08 1913.34 1072.37 1914.05 1071.02L1914.84 1068.86C1916.84 1066.28 1917.63 1063.35 1917.21 1060.14 1917.47 1058.35 1917.98 1054.79 1918.21 1053.02 1919.48 1048.43 1920.37 1043.72 1919.87 1038.97L1919.77 1036.49C1919.53 1026.37 1919.58 1016.41 1919.61 1006.34L1919.66 1003.84C1919.79 999.882 1919.64 995.954 1919.4 992.027 1919.06 991.104 1918.4 989.286 1918.08 988.39 1917.82 986.834 1917.32 983.724 1917.08 982.169L1917.71 980.271C1918.27 978.927 1919.4 976.238 1919.95 974.894L1920.48 976.792C1920.9 977.609 1921.77 979.269 1922.19 980.113L1923.22 981.773C1923.69 982.591 1924.67 984.198 1925.14 985.015L1926.09 986.729C1926.54 987.546 1927.44 989.18 1927.89 989.997L1928.52 991.763C1928.99 992.502 1929.94 993.978 1930.42 994.715L1931.02 996.429C1931.5 997.167 1932.44 998.643 1932.92 999.381L1933.53 1001.12C1934 1001.89 1934.97 1003.39 1935.48 1004.13 1935.95 1005 1936.9 1006.68 1937.37 1007.55L1938.38 1009.4C1938.85 1010.32 1939.85 1012.14 1940.35 1013.06L1941.38 1015.01C1941.88 1015.93 1942.86 1017.78 1943.36 1018.7L1944.36 1020.57C1944.83 1021.47 1945.81 1023.21 1946.28 1024.11L1946.91 1025.92C1947.42 1026.66 1948.42 1028.16 1948.89 1028.9L1949.58 1030.59C1950.05 1031.3 1951.03 1032.72 1951.5 1033.44L1952.26 1034.99C1952.79 1035.65 1953.82 1036.94 1954.35 1037.57 1954.93 1038.21 1956.14 1039.47 1956.72 1040.08 1957.48 1040.61 1958.99 1041.66 1959.72 1042.19L1961.54 1043.11C1965.07 1045.9 1969.87 1045.83 1973.64 1043.51L1975.56 1042.77 1978.94 1041.08 1980.6 1040.29C1981.23 1039.76 1982.55 1038.68 1983.21 1038.15 1983.87 1037.57 1985.16 1036.44 1985.82 1035.86 1986.45 1035.26 1987.71 1034.02 1988.35 1033.41 1988.98 1032.72 1990.22 1031.38 1990.82 1030.72 1991.43 1029.96 1992.64 1028.45 1993.22 1027.72L1994.46 1026.08C1995.01 1025.29 1996.17 1023.71 1996.75 1022.92 1997.28 1022.13 1998.34 1020.57 1998.89 1019.78 1999.42 1019.04 2000.47 1017.59 2001 1016.86L2001.71 1015.09C2002.18 1014.33 2003.19 1012.8 2003.69 1012.06L2004.32 1010.27C2004.79 1009.5 2005.72 1007.95 2006.19 1007.18L2006.77 1005.39C2007.24 1004.63 2008.14 1003.07 2008.59 1002.31L2009.14 1000.49C2009.59 999.697 2010.51 998.116 2010.96 997.299L2011.46 995.348 2012.28 993.424C2012.67 992.475 2013.49 990.577 2013.91 989.628L2014.73 987.546C2015.31 986.044 2016.5 983.012 2017.1 981.51L2017.79 979.296C2018.31 977.82 2019.39 974.868 2019.95 973.391L2020.45 971.256C2021.34 970.07 2023.11 967.724 2024.01 966.538L2024.32 964.429 2025.64 965.51C2026.3 965.932 2027.59 966.775 2028.25 967.197 2028.78 967.75 2029.81 968.884 2030.33 969.438L2031.02 970.835C2031.47 971.494 2032.36 972.759 2032.81 973.391L2033.28 975.026C2033.73 975.764 2034.65 977.24 2035.1 977.978 2035.68 979.401 2036.84 982.274 2037.4 983.698L2038.16 985.859C2038.27 986.992 2038.48 989.233 2038.58 990.34 2039.08 991.21 2040.11 992.923 2040.64 993.793L2041.19 995.981C2041.64 997.615 2042.56 1000.83 2043.01 1002.47 2043.33 1003.65 2043.91 1006.05 2044.22 1007.26 2044.7 1008.92 2045.65 1012.22 2046.12 1013.85L2046.75 1016.15C2046.91 1017.25 2047.25 1019.44 2047.44 1020.55 2047.91 1021.34 2048.91 1022.95 2049.39 1023.76L2049.73 1025.61C2050.13 1026.4 2050.92 1027.98 2051.34 1028.74L2052.02 1030.54C2052.39 1031.41 2053.1 1033.15 2053.45 1034.02L2054.16 1035.86 2054.42 1037.79C2054.84 1038.6 2055.69 1040.21 2056.11 1041.03L2056.79 1043C2057.37 1044.45 2058.51 1047.38 2059.09 1048.83L2061.2 1054.84C2061.51 1055.95 2062.12 1058.19 2062.43 1059.29 2062.88 1060.8 2063.75 1063.83 2064.2 1065.33L2064.7 1067.54C2064.09 1070.76 2064.78 1073.69 2066.78 1076.3 2067.73 1083.02 2067.65 1089.71 2066.57 1096.41 2064.54 1099.04 2064.12 1101.89 2065.31 1104.97 2065.68 1106.61 2066.39 1109.9 2066.76 1111.54 2067.81 1112.43 2069.97 1114.25 2071.03 1115.15L2073.19 1115.33C2074.29 1115.54 2076.51 1115.99 2077.62 1116.2 2081.15 1117.63 2085 1118.28 2088.84 1117.81L2091.19 1117.76C2094.48 1117.81 2097.75 1118.18 2100.99 1118.89 2104.68 1120.29 2108.66 1120.97 2112.62 1120.5L2114.96 1120.42C2118.23 1120.5 2121.47 1120.87 2124.69 1121.58 2129.35 1122.87 2134.18 1123.42 2139.03 1123.32 2140.82 1123.53 2144.38 1123.95 2146.17 1124.16 2148.86 1125.98 2151.81 1126.56 2155.02 1125.88 2156.16 1126.11 2158.45 1126.54 2159.58 1126.75 2162.25 1128.56 2165.17 1129.22 2168.36 1128.7L2170.63 1129.12C2172.1 1129.72 2175.03 1130.96 2176.5 1131.6L2178.82 1131.54 2181.04 1132.47C2182.67 1132.97 2185.91 1133.97 2187.55 1134.47 2188.1 1135 2189.23 1136.05 2189.79 1136.58L2191.34 1137.24C2192.03 1137.66 2193.43 1138.5 2194.11 1138.9L2195.64 1139.5C2196.3 1139.9 2197.67 1140.72 2198.35 1141.11 2198.99 1141.48 2200.28 1142.27 2200.91 1142.67L2202.33 1143.3 2203.65 1144.14 2205.07 1143.25C2208.69 1141.88 2209.48 1137.92 2210.03 1134.55L2210.45 1132.89 2208.42 1131.54C2207.31 1126.4 2206.87 1121.11 2206.95 1115.86 2207.58 1112.54 2206.92 1109.51 2205 1106.74L2204.42 1104.55 2204.63 1102.34C2204.07 1100.91 2202.97 1098.07 2202.41 1096.64L2202.04 1094.43C2202.49 1091.24 2201.83 1088.32 2200.01 1085.71 2199.78 1084.57 2199.33 1082.31 2199.09 1081.15L2199.28 1078.88C2199.99 1075.64 2199.41 1072.66 2197.48 1069.97 2196.9 1065.75 2197.06 1061.48 2197.7 1057.34L2199.57 1055.92 2198.72 1053.76C2198.93 1048.72 2199.09 1043.69 2199.12 1038.68L2199.22 1036.2C2199.43 1034.41 2199.83 1030.77 2200.04 1028.96 2200.46 1028.03 2201.33 1026.19 2201.75 1025.27 2201.78 1023.53 2201.81 1020.02 2201.81 1018.28 2202.04 1017.09 2202.47 1014.72 2202.68 1013.54 2203.07 1011.9 2203.89 1008.63 2204.31 1007.03 2204.57 1005.84 2205.15 1003.49 2205.42 1002.33 2205.92 1000.75 2206.89 997.589 2207.37 996.007L2208.08 993.819C2208.58 992.317 2209.61 989.312 2210.11 987.783L2210.77 985.807C2211.19 984.989 2212.06 983.381 2212.48 982.564L2212.74 980.64 2213.51 978.795C2213.9 977.925 2214.67 976.159 2215.06 975.289L2215.91 973.47C2216.33 972.601 2217.2 970.861 2217.62 969.991L2218.52 968.172C2218.96 967.303 2219.86 965.563 2220.31 964.693L2221.26 962.901C2221.76 962.057 2222.71 960.37 2223.18 959.5L2224.18 957.787C2224.68 956.996 2225.71 955.388 2226.21 954.571 2226.74 953.807 2227.77 952.226 2228.29 951.435L2229.4 949.827C2229.93 949.089 2231.04 947.56 2231.59 946.822 2232.14 946.084 2233.25 944.608 2233.8 943.896 2234.38 943.132 2235.52 941.656 2236.1 940.918L2237.28 939.363C2237.89 938.625 2239.07 937.175 2239.68 936.463 2240.29 935.778 2241.5 934.407 2242.11 933.722 2242.71 933.063 2243.95 931.745 2244.56 931.086 2245.19 930.453 2246.45 929.162 2247.06 928.503 2247.72 927.87 2249.01 926.631 2249.67 925.999 2250.33 925.366 2251.67 924.127 2252.36 923.494 2253.04 922.888 2254.47 921.649 2255.18 921.043 2255.92 920.437 2257.42 919.224 2258.18 918.618L2259.82 917.379C2260.61 916.8 2262.16 915.64 2262.95 915.06L2266.01 912.846 2267.7 912.028C2268.38 911.475 2269.78 910.368 2270.46 909.814 2271.23 909.313 2272.73 908.312 2273.5 907.811L2275.18 907.073C2275.89 906.572 2277.34 905.518 2278.06 904.991 2278.87 904.516 2280.51 903.541 2281.32 903.066L2283.09 902.091C2283.96 901.617 2285.73 900.694 2286.62 900.22L2288.47 899.297C2289.36 898.876 2291.18 898.006 2292.08 897.584L2293.97 896.741 2295.95 896.371C2296.77 895.923 2298.38 895.027 2299.19 894.579L2301.09 893.841C2302.04 893.472 2303.94 892.734 2304.89 892.339L2306.99 891.574C2308.58 891.047 2311.71 889.966 2313.29 889.413L2315.59 888.727C2316.72 888.675 2319.01 888.517 2320.15 888.438 2321.04 887.937 2322.81 886.961 2323.7 886.487L2325.89 886.012C2327 886.012 2329.24 885.96 2330.35 885.96 2331.27 885.512 2333.09 884.616 2334.01 884.167 2335.17 883.957 2337.46 883.561 2338.62 883.377 2340.36 883.35 2343.87 883.35 2345.63 883.324 2346.58 882.902 2348.45 882.032 2349.4 881.611 2352.75 880.978 2356.12 880.609 2359.58 880.503 2364.11 880.424 2373.18 880.24 2377.71 880.161L2379.92 881.057 2381.19 879.106Z" stroke="#000000" stroke-width="0.24685" stroke-miterlimit="8" fill-rule="evenodd"/></g></svg>