<svg width="974" height="469" xmlns="http://www.w3.org/2000/svg" xmlns:xlink="http://www.w3.org/1999/xlink" xml:space="preserve" overflow="hidden"><defs><clipPath id="clip0"><rect x="2486" y="0" width="974" height="469"/></clipPath></defs><g clip-path="url(#clip0)" transform="translate(-2486 0)"><path d="M2528.54 467.004C2524.38 465.911 2519.22 464.303 2517.06 463.431 2513.23 461.89 2513.14 461.64 2513.99 454.434 2515.75 439.548 2522.51 431.643 2541.66 422.102 2553.27 416.322 2554.78 415.061 2564.16 403.31 2580.4 383.001 2601.15 361.175 2641.74 321.775L2679.81 284.802 2679.21 278.532C2678.8 274.371 2676.68 269.073 2672.89 262.783 2667.59 254.005 2667.16 252.574 2667.16 243.484 2667.16 232.102 2666.71 231.482 2653.86 225.105 2633.61 215.07 2607.57 213.672 2564.23 220.299 2530.64 225.434 2505.63 225.71 2493.89 221.07 2488.24 218.839 2486 217.231 2486 215.407 2486 211.028 2494.64 196.098 2505.84 181.114 2511.77 173.193 2518.18 163.328 2520.08 159.195 2524.65 149.279 2525.59 134.429 2522.42 122.28L2520.12 113.512 2524.85 108.563C2527.44 105.842 2533.89 97.7153 2539.17 90.5052 2544.44 83.2948 2551.31 75.211 2554.44 72.5424L2560.11 67.6882 2560.11 0 2563.88 0.885697C2565.96 1.37274 2575.87 5.10385 2585.9 9.17698 2595.94 13.2497 2606.76 16.939 2609.94 17.3748 2617.86 18.4593 2626.04 15.9862 2633.58 10.2304 2639.61 5.63274 2640.17 5.47689 2644.96 7.04733 2660.36 12.0877 2669.77 23.8821 2673.18 42.3821L2674.85 51.3971 2683.71 53.2143C2705.46 57.684 2721.92 59.258 2754.31 59.9738 2800.57 60.9958 2822.87 59.0819 2916.94 46.0133 2979.4 37.3378 2989.25 36.4871 3027.43 36.4788 3055.87 36.473 3065.89 36.9738 3076.84 38.9479 3095.66 42.3464 3121.6 51.1302 3135.36 58.7695 3149.86 66.818 3167.95 84.5572 3185.99 108.417 3211.39 142.014 3221.87 150.036 3276.31 177.604 3316.75 198.085 3331.17 207.278 3348.08 223.345 3384.6 258.08 3435.72 328.648 3457.9 374.941 3461.68 382.856 3461.74 382.809 3446.21 386.341 3429.46 390.151 3400.28 389.841 3385.66 385.696 3363.83 379.511 3348.21 370.864 3312.5 345.209 3300.64 336.689 3285.99 326.826 3279.96 323.291 3269.95 317.434 3249.83 308.686 3246.38 308.686 3242.16 308.686 3248 328.538 3255.55 339.914 3258.25 343.968 3267.97 355.23 3277.18 364.941 3287.66 376.017 3295.65 385.822 3298.59 391.251 3302.97 399.319 3303.29 400.759 3303.29 412.525 3303.29 420.246 3302.66 425.761 3301.7 426.731 3299.14 429.3 3281.85 425.698 3271.19 420.371 3257.77 413.662 3247.21 402.297 3229.22 375.215 3207.89 343.114 3197.36 333.565 3176.43 327.359 3166.37 324.374 3141.72 324.274 3139.27 327.209 3136.54 330.503 3138.64 336.692 3146.11 347.313 3149.9 352.711 3153.01 357.703 3153.01 358.408 3153.01 359.112 3150.31 362.874 3147.02 366.766 3143.72 370.659 3134.68 382.175 3126.89 392.36 3107.94 417.18 3096.67 429.686 3084.67 439.228 3073.59 448.026 3058.89 455.558 3047.32 458.357 3033.49 461.705 2999.29 459.465 2999.29 455.21 2999.29 454.427 3001.3 450.005 3003.76 445.385 3009.82 433.95 3022.82 420.552 3041.03 406.935 3060.57 392.314 3068.33 384.345 3073.79 373.251 3077.88 364.979 3078.21 363.258 3078.21 350.552 3078.21 338.489 3077.76 335.839 3074.51 328.914 3069.3 317.801 3059.34 307.928 3039.3 293.989 3012.04 275.035 3007.42 270.769 2992.95 251.265 2992.75 250.992 2986.88 252.405 2979.91 254.403 2956.03 261.251 2939.99 271.936 2915.41 297.351 2879.91 334.07 2867.93 345.376 2856.97 352.497L2845.71 359.81 2848.52 365.32C2850.07 368.35 2861.01 380.766 2872.82 392.912 2897 417.782 2902.71 426.39 2903.97 439.888 2904.4 444.302 2904.18 449.765 2903.52 452.029 2902.36 455.954 2901.95 456.14 2894.87 456.091 2867.65 455.897 2810.13 411.216 2796.01 379.299 2792.1 370.466 2792.83 358.683 2797.92 348.282 2799.96 344.106 2806.94 334.569 2813.44 327.088 2827.47 310.914 2832.33 304.131 2835.99 295.607 2839.57 287.242 2839.43 284.76 2835.21 282.844 2830.1 280.517 2820.63 280.882 2801.48 284.145 2782.3 287.41 2770.99 286.974 2763.71 282.69L2759.19 280.021 2755.1 292.758C2752.86 299.764 2750.59 308.837 2750.07 312.92 2749.54 317.004 2748.65 321.581 2748.08 323.089 2746.04 328.542 2630.74 404.673 2611.17 413.495 2606.26 415.7 2605.56 416.635 2604.77 421.926 2602.66 435.937 2589.38 453.785 2575.39 461.397 2561.61 468.884 2543.78 471.021 2528.53 467.007Z" fill-rule="evenodd"/></g></svg>