<svg width="503" height="563" xmlns="http://www.w3.org/2000/svg" xmlns:xlink="http://www.w3.org/1999/xlink" xml:space="preserve" overflow="hidden"><defs><clipPath id="clip0"><rect x="1119" y="1912" width="503" height="563"/></clipPath></defs><g clip-path="url(#clip0)" transform="translate(-1119 -1912)"><path d="M1156.45 2473.24C1142.76 2469.55 1129.55 2458.63 1122.9 2445.51 1118.43 2436.69 1117.69 2423.53 1121.28 2416.6 1124.31 2410.75 1132.45 2403.96 1140.94 2400.21L1148.14 2397.04 1145.47 2387.72C1137.54 2360.12 1133.98 2323.46 1137.21 2302.71 1141.51 2275.04 1151.53 2250.37 1167.6 2227.86 1178.58 2212.46 1201.91 2189.98 1218.08 2179.18 1262.79 2149.31 1299.75 2145.01 1371.96 2161.27 1389.29 2165.18 1410.75 2165.53 1417.2 2162 1419.64 2160.67 1422.55 2157.82 1423.67 2155.66 1425.64 2151.86 1430.48 2124.06 1429.37 2122.95 1429.06 2122.64 1419.64 2121.18 1408.42 2119.7 1338.67 2110.51 1296.95 2095.57 1281.51 2074.29 1275.49 2065.99 1275.97 2064.98 1286.03 2064.97 1300.26 2064.94 1337.47 2061.23 1355.74 2058.03 1387.55 2052.44 1397.47 2053.69 1428.07 2067.1 1455.27 2079.03 1453.19 2078.73 1461.32 2071.75L1468.24 2065.8 1463.47 2059.55C1453.6 2046.65 1435.41 2018.56 1428.8 2006 1420.55 1990.32 1412.87 1970.04 1410.75 1958.33 1407.72 1941.58 1409.53 1920.82 1414.7 1912.82 1416.35 1910.27 1419.18 1912.43 1447.32 1937.7 1487.81 1974.06 1491.57 1978.26 1501.06 1997.76 1510.6 2017.36 1516.7 2034.11 1519.19 2047.51 1520.73 2055.81 1521.29 2056.86 1524.53 2057.56 1543.9 2061.75 1563.57 2071.18 1574.94 2081.75 1579.58 2086.08 1587.9 2096.26 1593.41 2104.38 1598.92 2112.52 1606.03 2122.25 1609.2 2126.02 1621.89 2141.12 1624.23 2146.62 1620.2 2151.93 1619.11 2153.37 1616.93 2158.42 1615.35 2163.16 1610.83 2176.73 1606.48 2181.59 1592.34 2188.89 1585.54 2192.39 1578.09 2197.41 1575.77 2200.04 1569.37 2207.33 1569.1 2209.58 1570.12 2248.1 1570.6 2266.31 1570.44 2267.78 1566.96 2276.59 1556.06 2304.16 1528.69 2338.99 1505.82 2354.4L1498.69 2359.2 1498.64 2371.55C1498.6 2382.81 1496.08 2408.84 1493.3 2426.65 1492.7 2430.54 1492.71 2434.65 1493.34 2435.77 1493.97 2436.89 1497.73 2438.53 1501.7 2439.41 1505.67 2440.3 1510.62 2441.68 1512.69 2442.45 1518.04 2444.49 1521.97 2451.54 1521.97 2459.07 1521.97 2473.75 1517.81 2475.9 1491.7 2474.73 1468.05 2473.69 1462.16 2470.88 1453.57 2456.6 1448.51 2448.17 1440.78 2427.63 1436.79 2412.02 1435.16 2405.61 1433.6 2400.14 1433.33 2399.86 1433.05 2399.6 1430.96 2400.71 1428.66 2402.33 1419.93 2408.55 1400.22 2415.87 1365.36 2425.85L1359.18 2427.62 1365.36 2428.63C1368.76 2429.18 1377.11 2429.69 1383.91 2429.75 1401.64 2429.9 1425.53 2435.49 1432.75 2441.19 1436.64 2444.27 1443.38 2455.25 1444.96 2461.11 1446.46 2466.67 1445.28 2472.28 1442.59 2472.42 1433.95 2472.88 1320.64 2474.39 1301.48 2474.3 1272.77 2474.17 1267.09 2473.21 1236.91 2463.27L1221.8 2458.3 1208.57 2464.69C1188.66 2474.29 1171.09 2477.17 1156.45 2473.24Z" fill-rule="evenodd"/></g></svg>