<svg width="848" height="762" xmlns="http://www.w3.org/2000/svg" xmlns:xlink="http://www.w3.org/1999/xlink" xml:space="preserve" overflow="hidden"><defs><clipPath id="clip0"><rect x="2779" y="61" width="848" height="762"/></clipPath></defs><g clip-path="url(#clip0)" transform="translate(-2779 -61)"><path d="M2896.22 63.4662C2898.52 63.279 2903.11 62.8428 2905.41 62.6559 2919.47 62.3132 2933.5 62.7804 2947.66 62.6245L2950.68 62.5001C2952.83 62.8428 2957.16 63.5597 2959.35 63.9024 2961.18 64.5569 2964.89 65.8344 2966.76 66.4888L2969.57 67.1119C2971.32 67.7974 2974.84 69.1997 2976.58 69.8852L2979.05 70.8514 2982.54 73.4688 2984.75 73.9988C2985.66 74.5908 2987.43 75.8373 2988.31 76.4604L2990.05 77.8003 2993.29 80.5426C2994.04 81.3215 2995.51 82.8797 2996.26 83.6587L2997.69 85.3413C2998.41 86.1516 2999.81 87.7719 3000.49 88.5822 3001.18 89.4235 3002.55 91.0438 3003.24 91.8855 3003.92 92.6954 3005.26 94.3781 3005.95 95.2195L3006.89 97.2138C3007.63 97.9307 3009.1 99.3641 3009.85 100.05 3010.53 100.922 3011.9 102.605 3012.62 103.446 3013.34 104.288 3014.77 105.939 3015.49 106.781 3016.21 107.622 3017.67 109.274 3018.42 110.115 3019.17 110.956 3020.63 112.608 3021.38 113.449L3022.5 115.506C3023.35 116.16 3025 117.531 3025.81 118.217 3026.62 119.027 3028.27 120.648 3029.08 121.426L3030.83 123.047C3031.64 123.795 3033.26 125.322 3034.07 126.07 3034.85 126.786 3036.38 128.251 3037.16 128.967 3037.87 129.653 3039.34 131.055 3040.05 131.741 3040.74 132.427 3042.14 133.798 3042.83 134.483 3043.52 135.169 3044.86 136.54 3045.54 137.256 3046.23 137.973 3047.57 139.438 3048.25 140.185 3048.94 140.996 3050.31 142.616 3051 143.458 3051.65 144.424 3052.96 146.387 3053.62 147.353L3054.96 149.627C3055.7 151.435 3057.23 155.019 3057.98 156.826 3058.54 159.007 3059.73 163.37 3060.29 165.551 3061.03 167.327 3062.47 170.88 3063.22 172.656 3063.84 173.716 3065.12 175.865 3065.74 176.925L3066.99 178.982C3067.61 179.917 3068.83 181.817 3069.42 182.752 3070.01 183.625 3071.2 185.432 3071.79 186.305L3072.51 188.361C3073.16 189.109 3074.44 190.636 3075.09 191.384 3075.69 192.319 3076.81 194.157 3077.37 195.092L3078.55 197.024C3079.12 197.99 3080.27 199.891 3080.86 200.826L3081.55 203.007C3082.2 203.817 3083.54 205.469 3084.2 206.279 3084.79 207.245 3085.97 209.208 3086.54 210.205L3087.75 212.262C3088.34 213.259 3089.53 215.222 3090.12 216.22L3090.84 218.463C3091.49 219.305 3092.83 220.956 3093.52 221.798 3094.11 222.763 3095.3 224.758 3095.89 225.755L3097.1 227.812C3097.7 228.809 3098.88 230.772 3099.47 231.769L3100.19 234.013C3100.88 234.823 3102.22 236.474 3102.9 237.285 3103.52 238.282 3104.71 240.245 3105.33 241.242L3106.58 243.299C3107.2 244.296 3108.42 246.259 3109.04 247.256 3109.67 248.254 3110.91 250.217 3111.51 251.214L3112.75 253.271C3113.34 254.268 3114.53 256.262 3115.12 257.259L3115.78 259.534C3116.43 260.344 3117.77 262.027 3118.43 262.868L3119.08 265.081C3119.74 265.953 3121.01 267.636 3121.67 268.509 3122.26 269.506 3123.41 271.531 3123.98 272.529L3125.16 274.616C3125.75 275.645 3126.91 277.67 3127.47 278.667L3128.09 280.973C3128.74 281.815 3130.05 283.528 3130.71 284.37L3131.36 286.645C3131.99 287.517 3133.3 289.262 3133.95 290.135 3134.54 291.163 3135.7 293.251 3136.29 294.31L3137.47 296.491C3138.07 297.551 3139.25 299.701 3139.84 300.761L3141.03 302.973C3141.62 304.001 3142.77 306.089 3143.33 307.149L3143.93 309.486C3144.58 310.358 3145.86 312.072 3146.51 312.914L3147.11 315.188C3147.73 316.061 3148.98 317.806 3149.6 318.647L3150.22 320.922C3150.88 321.764 3152.16 323.477 3152.81 324.35 3153.37 325.347 3154.53 327.373 3155.12 328.37L3156.3 330.458C3156.9 331.455 3158.08 333.449 3158.64 334.446L3159.36 336.721C3160.04 337.531 3161.38 339.183 3162.07 339.993 3162.66 340.99 3163.88 342.922 3164.5 343.919L3165.75 345.945 3168.24 349.809C3168.87 350.744 3170.14 352.676 3170.77 353.611L3172.08 355.605C3172.7 356.54 3173.98 358.44 3174.63 359.376 3175.29 360.31 3176.6 362.18 3177.22 363.084L3178.56 365.016C3179.22 365.919 3180.52 367.727 3181.21 368.63 3181.87 369.534 3183.21 371.31 3183.89 372.183 3184.58 373.087 3185.92 374.863 3186.6 375.735L3188.01 377.574C3188.69 378.446 3190.06 380.222 3190.75 381.095 3191.44 381.937 3192.84 383.65 3193.52 384.492 3194.24 385.333 3195.64 387.016 3196.33 387.857 3197.02 388.698 3198.42 390.412 3199.14 391.254L3200.13 393.279C3200.88 393.996 3202.41 395.398 3203.16 396.115 3203.91 396.956 3205.34 398.639 3206.06 399.48 3206.8 400.29 3208.3 401.942 3209.02 402.752 3209.8 403.562 3211.29 405.152 3212.04 405.962 3212.79 406.741 3214.32 408.33 3215.1 409.14 3215.85 409.919 3217.4 411.508 3218.15 412.288L3221.27 415.404C3222.05 416.183 3223.61 417.741 3224.36 418.52L3227.47 421.636 3230.62 424.783 3233.74 427.899 3236.86 431.016 3239.97 434.132 3243.06 437.217 3246.18 440.333 3249.26 443.418C3250.04 444.166 3251.57 445.724 3252.35 446.472 3253.13 447.251 3254.66 448.778 3255.44 449.526 3256.22 450.273 3257.77 451.8 3258.55 452.548 3259.33 453.296 3260.92 454.792 3261.7 455.54 3262.51 456.288 3264.1 457.783 3264.91 458.5 3265.75 459.248 3267.41 460.713 3268.22 461.46 3269.09 462.208 3270.8 463.673 3271.68 464.39L3273.49 465.854C3274.36 466.602 3276.1 468.036 3276.98 468.752L3280.34 471.619C3281.19 472.336 3282.84 473.738 3283.68 474.455 3284.52 475.172 3286.2 476.574 3287.01 477.29 3287.89 478.007 3289.6 479.41 3290.48 480.126L3292.28 481.559C3293.13 482.276 3294.87 483.679 3295.71 484.395 3296.55 485.112 3298.24 486.514 3299.08 487.231 3299.92 487.948 3301.57 489.35 3302.42 490.067L3305.78 492.934C3306.65 493.65 3308.4 495.084 3309.27 495.831L3311.08 497.296C3311.95 498.044 3313.67 499.509 3314.54 500.225 3315.38 500.973 3317.04 502.438 3317.88 503.186 3318.66 503.934 3320.28 505.429 3321.09 506.177 3321.87 506.925 3323.46 508.421 3324.24 509.169 3325.02 509.917 3326.54 511.412 3327.32 512.16 3328.1 512.939 3329.63 514.435 3330.41 515.214 3331.16 515.962 3332.69 517.489 3333.46 518.237 3334.21 519.016 3335.74 520.543 3336.49 521.291 3337.27 522.07 3338.76 523.596 3339.54 524.376 3340.29 525.155 3341.79 526.681 3342.54 527.461 3343.28 528.271 3344.81 529.829 3345.56 530.608 3346.28 531.418 3347.77 533.038 3348.52 533.849 3349.27 534.659 3350.73 536.31 3351.48 537.152 3352.2 538.024 3353.67 539.738 3354.41 540.611L3355.88 542.418C3356.6 543.291 3358.06 545.004 3358.78 545.877 3359.49 546.718 3360.9 548.401 3361.61 549.242 3362.33 550.084 3363.73 551.735 3364.45 552.577 3365.14 553.418 3366.57 555.07 3367.26 555.911 3367.97 556.783 3369.38 558.497 3370.06 559.37L3371.5 561.177C3372.18 562.05 3373.59 563.795 3374.3 564.667 3374.99 565.54 3376.39 567.254 3377.11 568.095 3377.82 568.968 3379.23 570.682 3379.91 571.523 3380.63 572.426 3382.03 574.171 3382.75 575.075L3384.18 576.914C3384.9 577.786 3386.3 579.562 3387.02 580.435 3387.74 581.276 3389.14 583.021 3389.86 583.863 3390.58 584.704 3391.98 586.418 3392.69 587.259 3393.41 588.101 3394.81 589.815 3395.5 590.687L3396.53 592.744C3397.28 593.429 3398.81 594.863 3399.58 595.58 3400.3 596.421 3401.74 598.104 3402.48 598.945 3403.23 599.755 3404.7 601.376 3405.45 602.217 3406.19 602.996 3407.72 604.616 3408.47 605.426 3409.22 606.206 3410.74 607.795 3411.52 608.605 3412.27 609.384 3413.83 610.973 3414.58 611.752 3415.36 612.531 3416.92 614.089 3417.67 614.868 3418.44 615.648 3420 617.174 3420.75 617.953L3423.84 621.038C3424.62 621.786 3426.14 623.344 3426.92 624.092 3427.67 624.84 3429.23 626.367 3430.01 627.146 3430.76 627.894 3432.32 629.39 3433.1 630.138 3433.88 630.885 3435.47 632.381 3436.25 633.129L3439.49 636.121C3440.3 636.869 3441.98 638.333 3442.82 639.081 3443.7 639.829 3445.44 641.293 3446.31 642.041L3448.15 643.506C3449.03 644.254 3450.8 645.718 3451.68 646.435 3452.55 647.152 3454.29 648.585 3455.14 649.333 3456.01 650.019 3457.72 651.452 3458.57 652.169 3459.44 652.885 3461.18 654.288 3462.06 654.973 3462.77 655.721 3464.21 657.248 3464.96 657.996L3467.01 658.962C3467.89 659.647 3469.63 661.05 3470.51 661.735 3471.38 662.452 3473.09 663.854 3473.97 664.54 3474.84 665.225 3476.62 666.627 3477.49 667.313L3480.45 670.273 3482.57 671.24C3483.44 671.894 3485.22 673.265 3486.12 673.951 3487 674.636 3488.77 676.007 3489.68 676.661 3490.43 677.409 3491.92 678.905 3492.67 679.622L3494.79 680.557C3495.66 681.242 3497.44 682.614 3498.34 683.299 3499.25 684.016 3501.02 685.418 3501.9 686.103 3502.83 686.82 3504.64 688.223 3505.54 688.939L3507.45 690.373C3508.38 691.058 3510.19 692.492 3511.09 693.177 3511.97 693.894 3513.74 695.296 3514.62 695.982 3515.49 696.667 3517.24 698.07 3518.11 698.755 3518.83 699.503 3520.26 700.999 3520.98 701.747L3523.03 702.682C3523.88 703.398 3525.56 704.769 3526.4 705.486 3527.21 706.172 3528.86 707.574 3529.67 708.291 3530.52 709.007 3532.14 710.409 3532.98 711.126 3533.82 711.843 3535.47 713.276 3536.31 713.962 3537.19 714.678 3538.9 716.112 3539.77 716.829L3541.58 718.294C3542.45 719.01 3544.17 720.443 3545.04 721.16 3545.88 721.846 3547.57 723.279 3548.41 723.996 3549.25 724.681 3550.93 726.084 3551.75 726.8 3552.62 727.486 3554.3 728.888 3555.17 729.605 3556.05 730.29 3557.82 731.662 3558.7 732.347L3560.57 733.749C3561.47 734.435 3563.28 735.806 3564.18 736.461 3565.09 737.146 3566.9 738.455 3567.8 739.14 3568.55 739.857 3570.08 741.291 3570.82 742.007L3572.97 742.911C3573.91 743.565 3575.75 744.874 3576.68 745.528 3577.62 746.214 3579.49 747.554 3580.42 748.24L3582.39 749.642C3583.32 750.327 3585.19 751.667 3586.13 752.353 3587.03 753.038 3588.87 754.41 3589.78 755.095 3590.53 755.843 3591.99 757.339 3592.71 758.087L3594.76 759.052C3595.61 759.738 3597.26 761.172 3598.07 761.857 3598.85 762.605 3600.41 764.038 3601.19 764.755 3601.9 765.503 3603.4 766.968 3604.12 767.716 3604.83 768.463 3606.24 769.99 3606.92 770.738 3607.61 771.517 3608.95 773.106 3609.63 773.917L3610.48 775.911C3611.16 776.627 3612.57 778.061 3613.25 778.778 3613.84 779.713 3615 781.551 3615.59 782.486L3616.12 784.761C3616.77 785.665 3618.08 787.441 3618.74 788.344L3619.74 790.744C3620.39 792.426 3621.76 795.792 3622.45 797.475 3623.01 798.69 3624.1 801.12 3624.63 802.336 3625.1 803.395 3626.03 805.545 3626.5 806.605L3626.5 808.942C3625.81 809.752 3624.41 811.31 3623.69 812.09 3622.32 812.276 3619.55 812.65 3618.18 812.806 3616.46 812.058 3613.1 810.531 3611.38 809.783 3610.41 809.067 3608.42 807.665 3607.45 806.948 3606.58 806.262 3604.83 804.829 3603.96 804.143 3603.12 803.458 3601.5 802.087 3600.69 801.401 3599.88 800.747 3598.26 799.407 3597.45 798.752 3596.6 798.098 3594.95 796.789 3594.11 796.135L3592.36 794.826C3591.49 794.171 3589.78 792.863 3588.9 792.208 3588.03 791.585 3586.29 790.307 3585.41 789.653 3584.66 788.968 3583.14 787.565 3582.39 786.88L3580.27 786.007C3579.36 785.384 3577.49 784.106 3576.59 783.452 3575.62 782.797 3573.72 781.52 3572.79 780.866L3570.76 779.557C3569.79 778.934 3567.83 777.656 3566.86 777.033 3566.05 776.316 3564.43 774.914 3563.62 774.228L3561.41 773.449C3560.44 772.826 3558.48 771.61 3557.51 771.018 3556.7 770.333 3555.08 768.931 3554.24 768.245L3551.99 767.466C3551 766.874 3549 765.628 3547.97 765.004L3545.92 763.758C3544.89 763.135 3542.89 761.919 3541.89 761.296 3541.05 760.611 3539.4 759.239 3538.56 758.554L3536.31 757.806C3535.35 757.214 3533.38 756.061 3532.42 755.469 3531.58 754.814 3529.92 753.474 3529.08 752.82L3526.84 752.104C3526 751.449 3524.31 750.109 3523.47 749.455L3521.19 748.801C3520.17 748.208 3518.17 746.993 3517.14 746.401L3515.05 745.186C3514.02 744.594 3512 743.409 3511 742.817 3510.13 742.132 3508.44 740.761 3507.6 740.075L3505.33 739.359C3504.3 738.767 3502.3 737.582 3501.27 736.99L3499.19 735.744C3498.19 735.152 3496.19 733.968 3495.16 733.344 3494.35 732.69 3492.67 731.319 3491.83 730.633L3489.58 729.917C3488.59 729.325 3486.59 728.109 3485.59 727.517L3483.54 726.302C3482.54 725.679 3480.57 724.495 3479.61 723.903L3476.37 721.16 3474.15 720.443C3473.22 719.851 3471.32 718.667 3470.35 718.075 3469.54 717.39 3467.95 716.018 3467.17 715.333L3464.96 714.554C3463.96 713.931 3462.03 712.684 3461.06 712.061L3459.03 710.784 3455.17 708.166C3454.2 707.512 3452.3 706.172 3451.33 705.486L3449.37 704.146C3448.43 703.46 3446.59 702.12 3445.66 701.435 3444.76 700.75 3442.98 699.41 3442.11 698.724 3441.2 698.07 3439.46 696.73 3438.55 696.044 3437.83 695.327 3436.34 693.894 3435.62 693.177L3433.53 692.273C3432.66 691.619 3430.91 690.341 3430.04 689.687 3429.14 689.064 3427.39 687.786 3426.49 687.132 3425.74 686.477 3424.21 685.138 3423.46 684.483L3421.38 683.704C3420.47 683.174 3418.63 682.115 3417.7 681.585 3417.04 680.868 3415.67 679.497 3414.98 678.812L3413.05 677.908 3411.87 676.163 3409.22 676.007 3406.47 675.82 3403.92 674.667C3402.08 674.013 3398.37 672.673 3396.53 671.988 3395.06 671.676 3392.17 671.052 3390.7 670.741 3387.77 667.282 3384.25 666.472 3380.13 668.279 3377.95 668.092 3373.59 667.687 3371.4 667.469 3368.63 663.948 3365.23 663.106 3361.18 664.945 3359.78 664.82 3356.94 664.571 3355.5 664.415 3352.85 660.832 3349.52 659.959 3345.5 661.829 3344.06 661.704 3341.23 661.424 3339.82 661.268 3337.3 657.622 3333.96 656.656 3329.88 658.37L3327.26 657.31C3325.48 656.968 3321.9 656.251 3320.12 655.908 3319.41 655.191 3317.94 653.758 3317.22 653.041L3314.95 652.262 3312.73 651.421C3311.58 651.047 3309.3 650.268 3308.18 649.863L3305.69 649.021C3303.97 648.367 3300.51 647.12 3298.77 646.466L3295.99 645.874C3293.62 642.073 3290.44 640.919 3286.49 642.446 3282.28 643.693 3278.1 644.877 3274.11 646.56L3271.8 647.526 3271.49 649.831C3271.33 650.953 3271.05 653.197 3270.93 654.319L3270.62 656.594 3270.31 658.775 3271.86 660.115 3272.74 661.953C3273.39 662.608 3274.73 663.917 3275.39 664.571 3275.89 665.443 3276.85 667.22 3277.35 668.092 3277.85 668.996 3278.88 670.803 3279.38 671.707L3280.09 673.764C3280.78 674.48 3282.15 675.914 3282.84 676.63L3282.68 679.186C3283.12 680.214 3284.02 682.302 3284.46 683.33L3285.02 685.917C3284.99 688.004 3284.99 692.149 3284.96 694.205L3284.4 696.761C3283.93 697.851 3282.99 700.064 3282.56 701.154L3281.28 703.18 3279.5 704.614C3279.1 705.455 3278.29 707.138 3277.88 708.01 3276.85 708.415 3274.79 709.256 3273.77 709.693L3271.62 710.69C3270.46 711.033 3268.19 711.781 3267.03 712.123 3265.01 712.341 3260.95 712.716 3258.93 712.933 3257.12 712.435 3253.5 711.407 3251.73 710.908L3249.26 709.817C3248.17 709.288 3245.96 708.166 3244.87 707.605L3242.78 706.39C3241.81 705.798 3239.91 704.582 3238.95 703.959 3238.07 703.336 3236.29 702.089 3235.42 701.466 3234.71 700.781 3233.3 699.347 3232.59 698.662L3230.59 697.758C3229.78 697.104 3228.16 695.764 3227.35 695.109 3226.57 694.424 3224.98 693.053 3224.17 692.367 3223.39 691.681 3221.77 690.31 3220.99 689.594 3220.18 688.908 3218.56 687.506 3217.75 686.789 3216.9 686.103 3215.25 684.701 3214.41 684.016 3213.73 683.268 3212.29 681.803 3211.6 681.055L3209.58 680.09C3208.74 679.404 3207.05 678.064 3206.21 677.409 3205.4 676.755 3203.72 675.446 3202.88 674.792 3202.04 674.137 3200.35 672.86 3199.48 672.237 3198.76 671.582 3197.27 670.242 3196.52 669.557L3194.43 668.778C3193.46 668.248 3191.53 667.157 3190.56 666.596L3188.44 665.506C3187.38 665.007 3185.23 664.041 3184.14 663.543L3181.8 662.608C3180.59 657.497 3171.86 657.902 3173.98 663.917 3172.76 664.072 3170.3 664.415 3169.05 664.571 3168.27 666.223 3166.71 669.495 3165.9 671.146 3165.62 672.58 3165.09 675.384 3164.81 676.786 3164.16 678.625 3162.91 682.271 3162.29 684.078 3161.98 685.48 3161.38 688.254 3161.07 689.656 3160.2 691.214 3158.48 694.33 3157.64 695.888L3153.78 698.63C3152.69 698.973 3150.5 699.659 3149.41 699.97 3148.23 700.095 3145.86 700.313 3144.67 700.407L3142.37 700.594C3141.37 700.22 3139.38 699.441 3138.35 699.036 3137.47 698.599 3135.76 697.665 3134.89 697.228 3134.14 696.605 3132.7 695.39 3131.96 694.797 3131.3 694.112 3129.96 692.71 3129.27 691.993L3128.25 690.155C3127.5 689.563 3125.94 688.378 3125.16 687.755 3124.63 685.979 3123.57 682.395 3123.04 680.619L3121.17 675.135C3121.36 670.803 3119.42 667.999 3115.37 666.783L3114.34 664.446 3113.22 665.475C3112.78 666.098 3111.91 667.344 3111.51 667.968 3110.7 668.404 3109.14 669.245 3108.36 669.681 3107.58 670.149 3105.99 671.084 3105.18 671.551L3103.4 672.455C3102.75 673.14 3101.44 674.512 3100.78 675.197 3100.06 675.976 3098.63 677.503 3097.88 678.251L3096.45 679.902C3095.73 680.713 3094.36 682.333 3093.64 683.143 3092.99 683.985 3091.65 685.667 3090.96 686.509 3090.34 687.381 3089.03 689.126 3088.41 690.03L3087.1 691.9C3086.47 692.803 3085.23 694.642 3084.6 695.577 3084.01 696.543 3082.83 698.443 3082.2 699.41L3081.02 701.435C3080.46 702.432 3079.3 704.458 3078.74 705.455L3077.62 707.574C3077.06 708.602 3075.97 710.659 3075.44 711.687L3074.35 713.837C3073.82 714.897 3072.76 716.985 3072.2 718.013L3071.14 720.163C3070.61 721.223 3069.55 723.31 3069.02 724.37L3067.96 726.551C3067.43 727.58 3066.37 729.698 3065.84 730.727L3064.74 732.908C3064.21 733.968 3063.15 736.086 3062.59 737.146L3061.5 739.327C3060.97 740.387 3059.88 742.475 3059.32 743.534L3058.23 745.716C3057.67 746.744 3056.58 748.832 3056.02 749.86L3054.89 751.979C3054.33 752.976 3053.24 754.97 3052.71 755.967L3050.22 759.333 3049.59 761.514C3048.97 762.324 3047.69 763.945 3047.04 764.755L3046.41 766.936C3045.85 767.871 3044.7 769.772 3044.14 770.707L3042.92 772.639C3042.33 773.574 3041.15 775.412 3040.55 776.316 3039.96 777.22 3038.75 779.027 3038.15 779.9L3036.91 781.738C3036.28 782.58 3035.07 784.325 3034.44 785.166 3033.79 786.007 3032.48 787.659 3031.82 788.5 3031.11 789.31 3029.64 790.962 3028.93 791.772L3027.3 793.455 3023.81 796.696C3018.83 795.231 3013.09 795.324 3008.97 798.752 3007.42 799.064 3004.33 799.687 3002.77 799.968 3001.02 795.387 2999.12 795.543 2997.03 800.435L2994.73 801.557 2990.86 804.05C2990.11 804.766 2988.56 806.262 2987.81 806.979 2987.12 807.633 2985.72 808.942 2985.03 809.596L2984.13 811.435C2983.47 812.058 2982.13 813.305 2981.48 813.959L2980.61 815.704C2979.98 816.39 2978.7 817.792 2978.05 818.477 2977.46 819.225 2976.24 820.721 2975.62 821.5 2972.03 819.786 2968.48 819.724 2964.96 821.282L2964.18 818.789 2963.4 816.296C2963.37 814.894 2963.27 812.152 2963.24 810.75L2967.73 792.302C2968.67 791.647 2970.54 790.307 2971.47 789.622L2973.12 788.033C2973.9 787.285 2975.46 785.789 2976.21 785.041 2977.02 784.356 2978.58 783.016 2979.36 782.33 2980.17 781.676 2981.76 780.367 2982.57 779.681L2984.5 778.747C2985.19 778.03 2986.56 776.596 2987.25 775.88 2988.03 775.194 2989.65 773.823 2990.43 773.106 2991.24 772.421 2992.79 770.987 2993.57 770.271 2994.35 769.554 2995.91 768.089 2996.69 767.373 2997.44 766.625 2999 765.16 2999.75 764.412 3000.53 763.664 3002.05 762.138 3002.8 761.39 3003.55 760.611 3005.08 759.084 3005.83 758.305 3006.57 757.526 3008.1 755.967 3008.85 755.158 3009.6 754.378 3011.06 752.758 3011.81 751.948 3012.56 751.138 3014.02 749.455 3014.77 748.645 3015.52 747.772 3016.99 746.058 3017.7 745.186L3019.2 743.378C3019.92 742.506 3021.35 740.761 3022.07 739.888 3022.78 739.047 3024.22 737.364 3024.94 736.523 3025.65 735.682 3027.09 733.999 3027.77 733.157 3028.49 732.316 3029.92 730.602 3030.64 729.761 3031.33 728.888 3032.76 727.112 3033.45 726.24L3034.88 724.401C3035.6 723.497 3037 721.721 3037.72 720.818 3038.4 719.945 3039.81 718.2 3040.49 717.327 3041.18 716.455 3042.55 714.678 3043.23 713.806 3043.98 713.058 3045.45 711.562 3046.17 710.815L3047.1 708.696C3047.79 707.823 3049.13 706.016 3049.81 705.143 3050.5 704.239 3051.84 702.432 3052.52 701.528 3053.27 700.781 3054.77 699.254 3055.49 698.506L3056.42 696.356C3057.11 695.452 3058.48 693.645 3059.16 692.741 3059.88 691.837 3061.25 689.999 3061.94 689.095 3062.72 688.347 3064.21 686.82 3064.99 686.072L3065.96 683.922C3066.65 683.019 3068.08 681.242 3068.77 680.339 3069.48 679.466 3070.92 677.69 3071.63 676.817 3072.35 675.945 3073.75 674.2 3074.47 673.327 3075.19 672.611 3076.68 671.177 3077.43 670.46L3078.4 668.497C3079.02 667.687 3080.33 666.035 3080.96 665.225 3081.55 664.446 3082.7 662.826 3083.29 662.047 3083.76 661.206 3084.76 659.585 3085.26 658.775 3085.6 657.902 3086.35 656.189 3086.72 655.347 3086.85 654.412 3087.1 652.543 3087.25 651.639L3087.22 649.707C3087.03 648.803 3086.69 646.996 3086.54 646.061 3086.13 645.251 3085.32 643.63 3084.91 642.789 3084.38 642.073 3083.29 640.577 3082.76 639.829 3082.14 639.143 3080.89 637.772 3080.3 637.087 3079.61 636.401 3078.24 635.061 3077.56 634.376 3076.9 633.69 3075.62 632.319 3075 631.633L3073.16 630.636C3072.38 629.982 3070.85 628.642 3070.08 627.956 3069.33 627.239 3067.77 625.775 3067.02 625.058 3066.24 624.279 3064.71 622.659 3063.93 621.849 3063.15 620.945 3061.63 619.075 3060.85 618.14 3059.98 616.489 3058.2 613.217 3057.33 611.565L3056.36 608.823C3056.7 604.118 3055.27 599.194 3051.31 596.359 3050.34 595.735 3048.38 594.489 3047.41 593.866L3045.6 592.401C3044.7 591.715 3042.95 590.375 3042.08 589.69 3041.33 589.004 3039.81 587.665 3039.06 587.01L3036.94 586.262C3036 585.701 3034.1 584.548 3033.17 583.987L3031.2 582.834C3030.24 582.273 3028.33 581.12 3027.37 580.56 3026.59 579.905 3024.97 578.565 3024.16 577.911L3021.94 577.225C3020.98 576.602 3019.01 575.418 3018.05 574.826L3016.02 573.611C3015.05 572.987 3013.09 571.772 3012.12 571.18 3011.34 570.463 3009.72 569.061 3008.94 568.375L3006.76 567.565C3005.83 566.911 3003.99 565.602 3003.05 564.948 3002.15 564.262 3000.31 562.891 2999.4 562.205L2997.5 560.772 2994.01 557.905C2993.17 557.188 2991.55 555.693 2990.71 554.945 2989.93 554.197 2988.37 552.67 2987.59 551.891 2986.84 551.112 2985.38 549.523 2984.63 548.744 2983.91 547.902 2982.48 546.251 2981.76 545.441L2980.79 543.415C2980.04 542.698 2978.58 541.265 2977.83 540.548 2977.15 539.676 2975.8 537.931 2975.15 537.058 2974.5 536.186 2973.16 534.41 2972.5 533.537L2971.63 531.449C2970.91 530.701 2969.48 529.205 2968.76 528.426 2968.11 527.523 2966.8 525.716 2966.17 524.812 2965.52 523.877 2964.21 522.007 2963.55 521.103L2962.21 519.14C2961.56 518.206 2960.25 516.305 2959.59 515.37 2958.97 514.404 2957.66 512.503 2957.01 511.537L2955.7 509.574C2955.07 508.608 2953.8 506.707 2953.14 505.772 2952.52 504.806 2951.24 502.905 2950.62 501.939L2949.34 499.976C2948.71 499.01 2947.47 497.109 2946.88 496.143 2946.25 495.177 2945.07 493.245 2944.48 492.279L2943.32 490.253C2942.76 489.288 2941.64 487.324 2941.08 486.359L2940.3 484.177 2937.43 481.435 2937.43 479.16C2936.96 478.257 2936.09 476.418 2935.65 475.514L2934.72 473.426C2934 472.71 2932.54 471.276 2931.79 470.528 2931.26 468.659 2930.17 464.888 2929.61 463.019L2928.33 460.339C2927.55 458.531 2926.02 454.885 2925.24 453.078 2924.52 451.333 2923.09 447.874 2922.37 446.129L2921.87 443.449 2921.56 440.707C2920.88 439.118 2919.54 435.939 2918.85 434.35L2918.97 431.545C2918.23 429.863 2916.7 426.435 2915.92 424.721 2915.89 423.319 2915.8 420.452 2915.76 419.05 2914.98 417.305 2913.46 413.877 2912.71 412.163 2912.68 410.73 2912.62 407.925 2912.58 406.523 2914.36 402.036 2913.55 396.707 2909.75 393.528 2909.16 389.602 2908.72 385.676 2908.5 381.718L2908.66 378.571C2908.69 361.525 2908.81 344.449 2909 327.404L2908.87 324.444C2909.03 322.293 2909.28 317.962 2909.4 315.812 2913.24 313.662 2914.49 310.483 2913.21 306.276 2912.99 304.874 2912.62 302.069 2912.43 300.667 2913.24 298.953 2914.86 295.557 2915.67 293.843L2915.58 291.007C2916.42 289.293 2918.07 285.865 2918.91 284.183 2918.88 282.749 2918.88 279.883 2918.88 278.449 2919.69 276.735 2921.31 273.339 2922.12 271.625L2922 268.789C2925.65 266.265 2926.61 262.899 2924.96 258.755 2925.12 257.322 2925.46 254.486 2925.61 253.053 2931.94 243.953 2931.69 237.659 2924.9 234.169 2924.68 232.704 2924.27 229.744 2924.06 228.248 2923.46 226.409 2922.22 222.732 2921.62 220.894L2920.66 218.37 2920.1 215.877C2919.47 214.973 2918.23 213.197 2917.6 212.324 2917.01 211.358 2915.83 209.427 2915.23 208.46L2913.99 206.559C2913.36 205.687 2912.12 203.911 2911.52 203.007 2910.87 202.166 2909.59 200.483 2908.94 199.642 2908.28 198.801 2907 197.118 2906.35 196.276L2905.38 194.313C2904.67 193.596 2903.2 192.194 2902.48 191.508 2901.77 190.667 2900.36 189.016 2899.65 188.206 2898.93 187.395 2897.46 185.775 2896.72 184.965 2895.97 184.154 2894.47 182.565 2893.72 181.755 2892.98 180.976 2891.45 179.387 2890.67 178.577 2889.89 177.797 2888.36 176.208 2887.58 175.429 2886.8 174.619 2885.24 173.061 2884.47 172.282 2883.69 171.503 2882.13 169.945 2881.35 169.135 2880.6 168.387 2879.04 166.829 2878.26 166.081 2877.51 165.302 2875.99 163.806 2875.21 163.058 2874.46 162.31 2872.96 160.814 2872.21 160.098L2869.22 157.231 2866.23 154.489C2865.48 153.834 2863.92 152.495 2863.14 151.84 2862.33 151.217 2860.71 149.939 2859.9 149.316 2859.31 148.537 2858.12 147.01 2857.56 146.231L2855.54 145.14C2854.35 144.735 2852.04 143.894 2850.89 143.489L2848.52 142.149C2846.71 141.401 2843.13 139.905 2841.35 139.126 2839.89 138.815 2836.99 138.191 2835.55 137.88 2831.84 134.296 2826.39 133.361 2821.71 135.356 2819.5 135.137 2815.1 134.701 2812.89 134.514 2809.37 130.744 2803.97 130.027 2799.36 131.803 2797.96 131.647 2795.12 131.398 2793.69 131.242 2792.88 130.557 2791.19 129.154 2790.35 128.438 2789.07 128.406 2786.52 128.344 2785.21 128.313L2784.33 126.225C2783.74 125.353 2782.62 123.608 2782.06 122.735L2780.5 121.177C2781.09 120.648 2782.31 119.619 2782.93 119.089L2783.65 117.438C2784.27 116.752 2785.49 115.443 2786.11 114.789L2787.7 113.636 2789.7 110.52 2796.8 108.526C2798.24 108.121 2801.07 107.279 2802.48 106.874 2807.37 108.463 2812.95 107.715 2816.76 103.976 2820.9 103.727 2825.08 103.54 2829.29 103.384 2833.59 104.786 2836.86 103.509 2839.17 99.551L2841.66 98.6472 2844.13 98.0242C2844.97 97.3697 2846.65 96.0922 2847.49 95.4688 2848.37 94.8147 2850.05 93.5058 2850.92 92.8513 2851.7 92.1969 2853.26 90.8569 2854.04 90.2025 2854.76 89.5484 2856.22 88.2084 2856.97 87.554 2857.69 86.8995 2859.09 85.5906 2859.81 84.9362 2860.52 84.2821 2861.93 82.9732 2862.64 82.3187 2863.36 81.6957 2864.76 80.4178 2865.48 79.7637 2866.23 79.1403 2867.69 77.8938 2868.41 77.2707 2869.22 76.6473 2870.78 75.4322 2871.56 74.8088L2873.62 74.1233C2874.4 73.4688 2876.02 72.1289 2876.83 71.4744L2879.04 70.3838C2880.19 69.8542 2882.47 68.826 2883.59 68.3274 2884.9 67.8598 2887.55 66.956 2888.86 66.4888 2890.7 65.7409 2894.38 64.2452 2896.22 63.4662Z" stroke="#000000" stroke-width="0.291962" stroke-miterlimit="8" fill-rule="evenodd"/></g></svg>