<svg width="241" height="379" xmlns="http://www.w3.org/2000/svg" xmlns:xlink="http://www.w3.org/1999/xlink" xml:space="preserve" overflow="hidden"><defs><clipPath id="clip0"><rect x="1493" y="788" width="241" height="379"/></clipPath></defs><g clip-path="url(#clip0)" transform="translate(-1493 -788)"><path d="M1563.99 789.459C1565.23 789.301 1567.7 788.958 1568.96 788.8L1571.46 788.59C1579.44 788.616 1587.36 788.458 1595.39 788.511L1597.92 788.853C1599.18 789.117 1601.68 789.643 1602.95 789.907 1604.55 790.434 1607.79 791.487 1609.39 792.014L1611.42 792.883 1615 794.673 1616.71 795.595C1617.47 796.069 1619.03 797.017 1619.79 797.491 1620.42 798.018 1621.74 799.098 1622.4 799.624L1623.92 800.441C1624.58 800.994 1625.9 802.126 1626.53 802.706 1627.16 803.311 1628.4 804.523 1629.03 805.128 1629.61 805.787 1630.79 807.13 1631.4 807.788 1631.95 808.499 1633.08 809.948 1633.66 810.685L1634.77 812.265C1635.27 813.029 1636.29 814.583 1636.79 815.347L1637.43 817.085C1637.9 817.796 1638.87 819.218 1639.35 819.929L1639.72 821.72C1640.16 822.483 1641.06 824.037 1641.51 824.827L1642.24 826.776C1642.72 828.356 1643.66 831.49 1644.14 833.044 1645.35 838.074 1645.53 843.393 1644.61 848.503 1643.06 852.242 1642.48 856.272 1642.85 860.327 1642.61 862.118 1642.14 865.673 1641.9 867.464 1640.06 870.334 1639.61 873.416 1640.56 876.708 1640.95 880.105 1641.11 883.555 1641.09 887.005 1641.16 888.242 1641.32 890.718 1641.4 891.956L1641.74 894.3 1643.48 894.879 1644.27 896.591C1644.69 897.407 1645.56 899.013 1645.98 899.83 1646.51 900.594 1647.51 902.121 1648.03 902.885L1649.11 904.491C1649.67 905.229 1650.77 906.704 1651.35 907.441 1651.93 908.126 1653.09 909.521 1653.69 910.206 1654.3 910.864 1655.51 912.208 1656.11 912.866 1656.75 913.524 1657.98 914.841 1658.62 915.499 1659.25 916.158 1660.51 917.448 1661.14 918.107 1661.77 918.792 1663.04 920.108 1663.67 920.793 1664.3 921.451 1665.59 922.821 1666.22 923.505 1666.85 924.19 1668.09 925.586 1668.72 926.271 1669.33 926.982 1670.57 928.404 1671.17 929.141L1672.14 930.774C1672.75 931.432 1673.99 932.749 1674.59 933.407 1675.2 934.118 1676.36 935.541 1676.94 936.252 1677.51 936.989 1678.67 938.411 1679.25 939.122 1679.83 939.86 1680.99 941.308 1681.57 942.046L1682.44 943.705C1683.02 944.389 1684.2 945.732 1684.78 946.417 1685.33 947.155 1686.44 948.656 1686.99 949.419 1687.54 950.209 1688.67 951.79 1689.25 952.58L1690.39 954.291C1690.94 955.134 1692.04 956.793 1692.6 957.61 1693.15 958.452 1694.23 960.138 1694.78 961.007L1695.86 962.798C1696.39 963.641 1697.39 965.352 1697.91 966.195L1698.57 968.038C1699.07 968.802 1700.1 970.303 1700.6 971.067L1701.2 972.831C1701.65 973.569 1702.57 975.096 1703.02 975.834L1703.57 977.572C1703.97 978.309 1704.81 979.81 1705.23 980.574L1705.84 982.207C1706.39 982.786 1707.44 983.971 1707.97 984.551 1708.44 986.157 1709.39 989.344 1709.86 990.924L1710.84 993.109C1711.42 994.637 1712.55 997.692 1713.13 999.219L1713.84 1001.41C1714.29 1002.91 1715.23 1005.88 1715.68 1007.38 1715.89 1008.49 1716.29 1010.73 1716.5 1011.83 1715.68 1015.05 1716.29 1017.94 1718.29 1020.58 1719.52 1040.75 1719.97 1060.98 1721.58 1081.15L1721.6 1083.47 1722.97 1083.83 1724.34 1084.23 1725.29 1085.28C1725.63 1085.84 1726.34 1086.99 1726.68 1087.55L1726.68 1088.89C1726.37 1089.47 1725.76 1090.63 1725.47 1091.21 1725.05 1091.76 1724.24 1092.87 1723.84 1093.42L1722.87 1094.58C1722.37 1095.16 1721.34 1096.34 1720.84 1096.92 1717.71 1098.45 1716.87 1102.59 1719.6 1104.98 1720.08 1106.43 1721.05 1109.33 1721.52 1110.78L1722.31 1112.8C1722.73 1113.75 1723.55 1115.65 1723.95 1116.6L1724.79 1118.6C1725.42 1119.99 1726.71 1122.78 1727.34 1124.18L1727.87 1126.02C1728.29 1126.76 1729.16 1128.24 1729.58 1128.97L1730.05 1130.58C1730.42 1131.29 1731.13 1132.71 1731.47 1133.42L1731.61 1135.03C1731.84 1135.82 1732.26 1137.37 1732.5 1138.14L1732.37 1139.93 1732 1141.75 1731.58 1143.59 1729.42 1143.38C1727.92 1143.96 1724.97 1145.17 1723.5 1145.78 1719.42 1146.28 1715.23 1146.04 1711.26 1145.06 1710.42 1144.64 1708.71 1143.8 1707.86 1143.38L1705.94 1143.19C1705.1 1142.75 1703.44 1141.9 1702.63 1141.48L1700.94 1140.56C1700.18 1140.11 1698.62 1139.22 1697.86 1138.77 1697.15 1138.27 1695.76 1137.29 1695.07 1136.82L1693.41 1136.14C1692.62 1135.69 1691.07 1134.77 1690.31 1134.32L1688.67 1133.4C1687.91 1132.92 1686.36 1132 1685.6 1131.55 1684.88 1131.05 1683.44 1130.08 1682.73 1129.58L1680.88 1128.97C1679.51 1128.26 1676.8 1126.87 1675.46 1126.16L1673.38 1125.31C1672.41 1124.76 1670.49 1123.65 1669.51 1123.1L1667.7 1124.44C1665.25 1126.16 1662.75 1127.89 1660.25 1129.58 1659.62 1130.87 1658.3 1133.48 1657.64 1134.77L1657.12 1136.69C1656.83 1137.56 1656.3 1139.3 1656.01 1140.17L1655.46 1141.88C1655.14 1142.67 1654.51 1144.2 1654.19 1144.99L1654.04 1146.8 1653.67 1148.7C1652.11 1151.09 1651.9 1153.6 1652.98 1156.2L1653.48 1158.02 1655.38 1157.99C1658.48 1158.92 1661.64 1159.73 1664.8 1160.5L1666.43 1161.1C1667.04 1161.6 1668.28 1162.6 1668.91 1163.1L1670.22 1164.03 1667.67 1164.45C1659.98 1164.74 1652.43 1165.37 1644.8 1165.5 1643.61 1165.26 1641.3 1164.79 1640.14 1164.55 1638.66 1164.13 1635.74 1163.26 1634.27 1162.84 1633.19 1162.58 1631.03 1162.05 1629.92 1161.79 1628.45 1161.6 1625.5 1161.21 1624.03 1161.02L1622 1161.94C1621.53 1158.73 1621.05 1155.52 1620.63 1152.33 1621.77 1151.33 1624 1149.3 1625.13 1148.3L1627.21 1148.17C1628.77 1147.99 1631.85 1147.67 1633.4 1147.51 1634.22 1147.17 1635.9 1146.51 1636.72 1146.17 1637.35 1145.51 1638.58 1144.17 1639.19 1143.48L1640.37 1141.85C1640.95 1140.46 1642.14 1137.69 1642.74 1136.29L1643.43 1134.19C1643.93 1132.69 1644.93 1129.71 1645.4 1128.21L1645.93 1126.05C1645.95 1124.55 1646.01 1121.57 1646.03 1120.1L1645.3 1118.28C1644.85 1117.52 1644.01 1115.99 1643.56 1115.23 1642.98 1114.67 1641.8 1113.57 1641.19 1113.01L1639.64 1112.2C1638.87 1111.75 1637.32 1110.88 1636.53 1110.43L1634.87 1109.51C1634.03 1109.09 1632.35 1108.25 1631.53 1107.83L1629.79 1106.98C1629 1106.54 1627.45 1105.67 1626.69 1105.22L1624.92 1104.74C1624.16 1104.32 1622.63 1103.48 1621.87 1103.03L1620.05 1102.56 1618.29 1101.85C1617.42 1101.51 1615.71 1100.79 1614.84 1100.45L1613.05 1099.82 1611.92 1098.37 1610.1 1098.95 1608.26 1099.56C1607.26 1099.85 1605.29 1100.43 1604.29 1100.72 1603.37 1101.82 1601.55 1104.03 1600.66 1105.14 1600.42 1106.25 1599.97 1108.46 1599.76 1109.54 1599.42 1111.07 1598.71 1114.12 1598.37 1115.65 1598.1 1116.75 1597.6 1118.99 1597.34 1120.1 1596.89 1121.6 1595.94 1124.6 1595.5 1126.1L1594.86 1128.24C1594.39 1129.71 1593.44 1132.66 1592.97 1134.11L1592.5 1136.27C1591.97 1137.61 1590.94 1140.32 1590.42 1141.67L1590.68 1143.72 1590.68 1145.78C1587.55 1148.09 1587.86 1149.78 1591.65 1150.78 1592.57 1151.15 1594.44 1151.88 1595.36 1152.23L1597.15 1152.99 1596.47 1154.54 1595.76 1156.1C1595.5 1156.92 1594.92 1158.55 1594.65 1159.36 1593.34 1159.89 1590.71 1160.97 1589.39 1161.52 1586.36 1162.23 1583.28 1162.63 1580.18 1162.71 1575.39 1162.55 1570.62 1163.05 1565.99 1164.18 1561.7 1164.82 1557.36 1164.58 1553.04 1164.39 1552.7 1163.92 1552.01 1162.92 1551.67 1162.42L1550.49 1161.73 1549.25 1161.02C1549.83 1159.6 1550.96 1156.76 1551.51 1155.31 1552.67 1155.28 1554.96 1155.2 1556.12 1155.15 1559.22 1155.52 1561.99 1154.73 1564.41 1152.78 1565.49 1152.52 1567.62 1151.99 1568.67 1151.73 1569.96 1151.07 1572.54 1149.75 1573.86 1149.09 1574.44 1148.38 1575.65 1146.93 1576.26 1146.22L1577.36 1144.54C1577.97 1143.22 1579.2 1140.56 1579.81 1139.22 1580.36 1137.8 1581.44 1134.95 1581.99 1133.53 1582.23 1132.42 1582.73 1130.18 1582.99 1129.05 1584.89 1126.34 1585.52 1123.36 1584.89 1120.12 1584.84 1115.09 1585.41 1110.09 1585.99 1105.09 1587.15 1098.95 1586.47 1093.16 1583.99 1087.73 1583.52 1086.97 1582.57 1085.47 1582.1 1084.7 1581.55 1084.05 1580.39 1082.7 1579.81 1082.02L1578.65 1080.62C1578.1 1079.96 1576.97 1078.62 1576.41 1077.94 1575.83 1077.28 1574.68 1075.99 1574.1 1075.33 1573.49 1074.67 1572.31 1073.35 1571.73 1072.69 1571.12 1072.04 1569.91 1070.69 1569.33 1070.03 1568.73 1069.32 1567.52 1067.95 1566.91 1067.27 1566.31 1066.56 1565.09 1065.11 1564.49 1064.4L1563.57 1062.74C1562.96 1062.08 1561.75 1060.71 1561.15 1060.05 1560.57 1059.32 1559.44 1057.82 1558.86 1057.08 1558.3 1056.31 1557.17 1054.79 1556.59 1054.05L1555.75 1052.31C1555.17 1051.6 1554.04 1050.18 1553.46 1049.49 1552.91 1048.7 1551.86 1047.12 1551.33 1046.36L1550.57 1044.57C1550.01 1043.83 1548.88 1042.36 1548.33 1041.62 1547.83 1040.78 1546.77 1039.12 1546.27 1038.27L1545.22 1036.48C1544.72 1035.61 1543.72 1033.9 1543.22 1033.06L1542.56 1031.22C1542.06 1030.45 1541.06 1028.95 1540.56 1028.19L1539.98 1026.4C1539.51 1025.63 1538.56 1024.13 1538.09 1023.37L1537.62 1021.53C1537.14 1020.76 1536.14 1019.18 1535.67 1018.39 1535.04 1016.97 1533.75 1014.1 1533.11 1012.68L1532.22 1010.65C1531.82 1009.73 1531.01 1007.86 1530.61 1006.91L1529.82 1004.99 1529.59 1002.99C1529.17 1002.17 1528.3 1000.56 1527.88 999.746L1527.22 997.718C1526.72 996.243 1525.72 993.241 1525.22 991.74L1524.51 989.581C1523.98 988.053 1522.95 985.025 1522.45 983.497L1521.77 981.338C1521.3 979.81 1520.32 976.808 1519.85 975.281L1519.3 973.095C1519.77 969.934 1519.08 967.064 1517.24 964.51 1517.06 963.377 1516.66 961.138 1516.48 960.006L1516.5 957.794C1516.93 953.923 1516.27 950.052 1514.82 946.47 1513.82 941.519 1513.77 936.357 1514.69 931.432 1516.58 928.693 1517.19 925.691 1516.56 922.452 1516.82 921.32 1517.35 919.055 1517.61 917.896 1518.14 916.395 1519.22 913.393 1519.74 911.918 1520.4 910.47 1521.72 907.625 1522.35 906.203L1523.27 904.281C1523.72 903.411 1524.61 901.7 1525.03 900.831L1525.95 899.119C1526.4 898.355 1527.3 896.801 1527.74 896.012 1528.22 895.327 1529.19 893.957 1529.67 893.273L1530.35 891.693C1530.8 890.955 1531.72 889.507 1532.17 888.796 1532.67 888.111 1533.61 886.715 1534.11 886.03L1534.8 884.398C1535.25 883.608 1536.14 882.054 1536.56 881.264L1537.43 879.631C1537.83 878.815 1538.62 877.208 1539.01 876.418L1539.69 874.785C1539.96 873.995 1540.54 872.441 1540.83 871.651L1541.33 870.098C1541.62 869.413 1542.25 868.043 1542.56 867.359L1540.62 868.096C1539.85 867.306 1538.35 865.752 1537.59 864.962L1531.9 862.75C1530.8 862.513 1528.59 862.013 1527.45 861.776 1524.85 859.906 1521.98 859.274 1518.82 859.879 1517.72 859.669 1515.45 859.247 1514.32 859.037 1511.79 857.193 1508.98 856.535 1505.87 857.035L1503.77 856.588C1501.66 854.56 1499.13 853.559 1496.24 853.638L1495.03 852.058 1494.5 850.241 1494.95 848.424C1495.26 847.581 1495.87 845.922 1496.18 845.105L1496.92 843.472C1497.34 842.682 1498.13 841.102 1498.53 840.312L1499.4 838.732C1499.84 837.969 1500.74 836.467 1501.19 835.704 1501.69 835.019 1502.69 833.623 1503.19 832.938L1503.92 831.253C1504.45 830.463 1505.5 828.883 1506.03 828.119L1507.16 826.486C1507.74 825.723 1508.9 824.222 1509.5 823.458 1510.08 822.747 1511.29 821.325 1511.9 820.614 1512.5 819.929 1513.74 818.586 1514.37 817.901 1515 817.243 1516.27 815.952 1516.9 815.294 1517.53 814.662 1518.82 813.371 1519.48 812.739 1520.14 812.134 1521.43 810.896 1522.09 810.264 1522.77 809.684 1524.11 808.499 1524.77 807.894 1525.45 807.341 1526.85 806.208 1527.53 805.655L1529.14 804.839C1529.82 804.286 1531.14 803.206 1531.82 802.653 1532.59 802.179 1534.14 801.204 1534.9 800.704L1536.61 799.756C1537.46 799.282 1539.17 798.36 1540.01 797.913L1541.85 796.991C1542.8 796.57 1544.64 795.701 1545.56 795.253L1547.64 794.41C1549.2 793.831 1552.33 792.698 1553.88 792.119L1556.15 791.408 1560.78 791.513 1563.02 791.618 1563.99 789.459Z" stroke="#000000" stroke-width="0.24685" stroke-miterlimit="8" fill-rule="evenodd"/></g></svg>