<svg width="518" height="866" xmlns="http://www.w3.org/2000/svg" xmlns:xlink="http://www.w3.org/1999/xlink" xml:space="preserve" overflow="hidden"><defs><clipPath id="clip0"><rect x="1957" y="1590" width="518" height="866"/></clipPath></defs><g clip-path="url(#clip0)" transform="translate(-1957 -1590)"><path d="M2404.68 2454.02C2402.8 2452.6 2400.03 2452.25 2395.08 2452.79 2388.47 2453.52 2387.79 2453.29 2381.46 2447.97 2377.8 2444.9 2373.4 2442.38 2371.68 2442.38 2368.1 2442.38 2360.79 2434.87 2355.37 2425.6 2350.15 2416.68 2341.37 2394.44 2338.66 2383.28 2336.91 2376.11 2335.4 2372.94 2332.74 2370.97 2330.78 2369.5 2328.16 2367.34 2326.92 2366.14 2323.55 2362.89 2316.15 2348.39 2316.15 2345.05 2316.15 2343.45 2314.28 2339.56 2312 2336.41 2306.94 2329.43 2302.74 2316.23 2305.1 2314.77 2306.24 2314.07 2306.1 2313.31 2304.62 2312.08 2303.49 2311.14 2301.92 2310.76 2301.13 2311.24 2300.34 2311.72 2298.4 2311.21 2296.81 2310.1 2295.06 2308.87 2292.22 2308.34 2289.61 2308.77 2286.41 2309.26 2284.06 2308.53 2280.5 2305.93 2269.67 2297.97 2267.74 2296.99 2265.37 2298.27 2264.09 2298.96 2262.72 2299.2 2262.33 2298.81 2261.94 2298.41 2260.29 2299.79 2258.66 2301.87 2253.9 2307.93 2255.31 2311.9 2263.96 2316.73 2268.9 2319.5 2271.71 2322.05 2272.32 2324.33 2272.82 2326.22 2274.25 2329.75 2275.5 2332.15 2279.94 2340.76 2276.56 2357.63 2269.65 2361.32 2265.24 2363.69 2266.22 2366.05 2272.96 2369.33 2277.24 2371.41 2279.13 2373.18 2279.13 2375.1 2279.13 2377.91 2277.16 2378.85 2275.81 2376.66 2275.41 2376.01 2271.7 2373.87 2267.58 2371.91 2263.46 2369.96 2259.39 2367.04 2258.53 2365.42 2257.15 2362.86 2257.57 2361.92 2261.88 2357.98 2264.58 2355.49 2266.79 2352.24 2266.79 2350.73 2266.79 2348.33 2266.07 2348.07 2260.97 2348.59 2253.79 2349.33 2246.72 2345.37 2244.67 2339.47 2243.09 2334.92 2235.35 2328.45 2231.5 2328.45 2230.09 2328.45 2227.73 2327.54 2226.27 2326.43 2222.83 2323.82 2219.58 2323.8 2217.44 2326.38 2216.5 2327.51 2214.73 2328.45 2213.5 2328.46 2208.91 2328.49 2195.5 2346.41 2195.5 2352.52 2195.5 2355.27 2184.11 2366.88 2181.39 2366.88 2180.16 2366.88 2178.44 2365.55 2177.57 2363.91 2176.08 2361.14 2175.89 2361.11 2174.61 2363.41 2173.85 2364.77 2173.61 2369.06 2174.08 2373.05 2174.91 2380.18 2174.9 2380.22 2171.4 2379.55 2169.32 2379.15 2167.37 2377.53 2166.63 2375.57 2164.87 2370.94 2166.67 2339.57 2168.96 2335.03 2171.14 2330.7 2171.39 2327.07 2169.5 2327.07 2166.71 2327.07 2158.04 2336.15 2154.02 2343.28 2151.11 2348.45 2148.43 2351.32 2145.29 2352.64 2138.12 2355.62 2135.28 2355.07 2133.25 2350.25L2131.46 2345.96 2129.21 2349.18C2127.88 2351.07 2126.96 2355.1 2126.96 2358.99 2126.96 2365.77 2124.32 2368.9 2121.23 2365.81 2118.61 2363.19 2118.29 2352.33 2120.62 2345.46 2121.85 2341.87 2122.86 2337.04 2122.88 2334.71 2122.89 2332.4 2124.11 2328.96 2125.59 2327.07 2130.05 2321.36 2129.16 2320.2 2120.31 2320.2 2113.78 2320.2 2111.29 2320.9 2106.92 2323.98 2103.96 2326.06 2099.1 2328.99 2096.12 2330.5 2093.13 2332.02 2087.18 2336.79 2082.89 2341.14 2078.61 2345.47 2074.47 2349.03 2073.7 2349.03 2072.94 2349.03 2071.9 2350.31 2071.41 2351.86 2070.16 2355.81 2064.77 2357.61 2060.31 2355.58 2057.28 2354.19 2056.47 2354.32 2054.93 2356.43 2053.94 2357.79 2052.72 2361.29 2052.23 2364.23 2051.52 2368.42 2051.94 2370.43 2054.18 2373.57 2060.45 2382.39 2055.54 2385.14 2047.95 2377.07 2044.12 2373 2043.33 2371.13 2043.33 2366 2043.33 2359.42 2041.47 2354.52 2038.95 2354.52 2038.1 2354.52 2034.41 2356.44 2030.75 2358.8 2024.2 2363 2020.5 2363.46 2014.26 2360.78 2010.2 2359.03 2006 2367.51 2006.98 2375.46 2007.61 2380.56 2007.36 2381.98 2005.84 2381.98 2002.16 2381.98 1999.46 2375.58 1999.46 2366.85 1999.46 2357.54 2001.32 2353 2007.57 2347.06 2009.89 2344.85 2011.8 2341.7 2011.8 2340.07 2011.8 2334.36 2034.45 2319.47 2052.7 2313.19 2061.36 2310.2 2073.6 2301.72 2086.91 2289.5 2098.9 2278.47 2101.56 2277.49 2105.8 2282.42 2107.6 2284.52 2110.03 2285.92 2111.42 2285.65 2113.3 2285.28 2112.28 2283.9 2107.05 2279.7 2094.52 2269.64 2087.91 2261.95 2082.02 2250.62 2077.44 2241.81 2074.06 2237.49 2066.44 2230.71 2054.73 2220.31 2048.31 2211.16 2036.77 2188.42 2031.98 2178.99 2025.7 2168.8 2022.81 2165.77 2008.15 2150.45 1999.77 2132.98 1994.67 2107.08 1994.26 2105.01 1993.02 2103.31 1991.91 2103.31 1989.48 2103.31 1981.48 2087.76 1978.39 2077.02 1977.16 2072.74 1976.16 2066.47 1976.16 2063.06 1976.16 2059.67 1974.93 2052.96 1973.43 2048.19 1970.68 2039.4 1969.96 2023.47 1971.93 2014.77 1972.6 2011.78 1971.98 2008.99 1969.71 2004.61 1966.87 1999.18 1966.56 1996.72 1966.56 1979.73 1966.56 1963.52 1966.97 1959.98 1969.47 1954.31L1972.37 1947.74 1967.58 1937.33C1959.6 1919.99 1957.94 1910.91 1957.29 1881.17 1956.72 1855.18 1956.77 1854.64 1959.58 1853.91 1962.96 1853.01 1963.43 1850.73 1960.23 1850.73 1958.51 1850.73 1958.21 1849.88 1958.89 1846.95 1959.38 1844.87 1960.28 1837.61 1960.9 1830.82 1961.63 1822.82 1964.06 1811.94 1967.79 1799.93 1980.34 1759.64 1983.01 1750.71 1983.01 1749.09 1983.01 1748.17 1985.71 1741.77 1989 1734.89 1995.7 1720.89 1996.17 1715.8 1991.14 1711.73 1989.33 1710.26 1986.61 1707.01 1985.09 1704.49 1983.57 1701.99 1980.71 1697.89 1978.73 1695.37 1974 1689.35 1966.58 1666.57 1966.5 1657.84 1966.47 1654.08 1965.55 1648.51 1964.46 1645.5 1963.38 1642.48 1962.48 1638.91 1962.47 1637.56 1962.44 1634.71 1969.97 1619.33 1972.01 1618.06 1972.79 1617.59 1973.42 1615.92 1973.42 1614.37 1973.42 1612.07 1973.98 1611.73 1976.5 1612.54 1978.2 1613.08 1981.74 1613.84 1984.38 1614.21 1987.02 1614.59 1991.03 1616.59 1993.29 1618.67 1995.56 1620.75 2000.23 1623.78 2003.69 1625.41 2010.92 1628.81 2014.34 1632.16 2018.86 1640.31 2023.65 1648.92 2036.44 1662.97 2038.71 1662.09 2041.71 1660.93 2048.72 1664.55 2054.98 1670.48 2055.93 1671.39 2057.06 1671.8 2057.47 1671.37 2058.43 1670.42 2068.01 1673.52 2068.01 1674.78 2068.01 1675.3 2073.01 1675.49 2079.12 1675.21 2088.88 1674.77 2090.73 1675.08 2094.31 1677.73 2098.31 1680.68 2098.75 1680.71 2117.27 1679.19 2131.99 1677.98 2136.96 1678 2139.83 1679.31 2142.75 1680.64 2144.91 1680.64 2150.19 1679.28 2154.13 1678.27 2162.77 1677.76 2171.35 1678 2185.08 1678.41 2185.97 1678.28 2188.01 1675.35 2189.21 1673.66 2191.06 1672.26 2192.15 1672.26 2193.23 1672.26 2194.88 1671.03 2195.82 1669.53 2196.77 1668 2198.88 1666.77 2200.51 1666.77 2204.49 1666.77 2210.25 1659.69 2211.42 1653.35 2212.66 1646.7 2220.19 1632.52 2226.69 1624.6 2229.52 1621.16 2233.07 1615.82 2234.58 1612.71 2236.54 1608.67 2240.02 1605.23 2246.8 1600.65 2252.02 1597.12 2256.83 1593.25 2257.49 1592.07 2260.58 1586.55 2271.85 1592.81 2275.75 1602.23 2277.15 1605.6 2278.72 1610.85 2279.25 1613.9 2279.78 1616.93 2281.01 1621.38 2281.99 1623.78 2283.56 1627.62 2283.39 1629.33 2280.52 1638.19 2278.74 1643.73 2275.47 1651.96 2273.27 1656.48 2269.75 1663.73 2269.39 1665.62 2270.22 1672.26 2270.74 1676.42 2271.44 1683.2 2271.78 1687.35 2272.11 1691.49 2273.26 1696.21 2274.33 1697.85 2275.4 1699.49 2278.13 1706.46 2280.4 1713.35 2283.52 1722.83 2284.21 1726.69 2283.25 1729.22 2281.4 1734.1 2288.76 1760.6 2294.69 1770.41 2295.6 1771.92 2297.83 1776.87 2299.63 1781.4 2301.44 1785.94 2304.35 1791.94 2306.11 1794.75 2307.86 1797.58 2309.29 1800.7 2309.29 1801.71 2309.29 1802.72 2311.84 1807.77 2314.95 1812.92 2318.06 1818.09 2322.52 1827.32 2324.84 1833.44 2328.76 1843.7 2329.09 1845.87 2329.13 1861.92L2329.17 1879.3 2340.14 1887.23C2346.17 1891.6 2353.34 1897.13 2356.07 1899.55 2358.8 1901.96 2365.47 1906.52 2370.89 1909.7 2378.43 1914.1 2382.75 1917.97 2389.24 1926.08 2393.9 1931.94 2401.76 1941.4 2406.69 1947.12 2411.62 1952.86 2417.35 1960.67 2419.42 1964.47 2424.91 1974.59 2434.19 2002.35 2435.02 2011.23 2435.41 2015.44 2436.48 2020.12 2437.39 2021.62 2438.29 2023.13 2440.44 2030.56 2442.16 2038.1 2443.88 2045.65 2446.19 2054.92 2447.29 2058.7 2451.41 2072.83 2454.51 2109.03 2451.94 2112.92 2450.8 2114.65 2450.12 2114.69 2447.67 2113.17 2446.06 2112.17 2444.48 2111.62 2444.16 2111.94 2443.84 2112.26 2444.58 2116.17 2445.81 2120.61 2449.83 2135.21 2450.99 2142.31 2450.68 2150.67 2450.52 2155.19 2451 2161.37 2451.73 2164.39 2452.46 2167.41 2454.37 2176.67 2455.96 2184.98 2458.42 2197.8 2461.75 2209.02 2467.01 2222.05 2471.37 2232.81 2473.99 2255.74 2474.71 2289.31 2475.29 2316.12 2475.23 2316.82 2472.34 2319.18 2470.71 2320.49 2468.23 2321.58 2466.8 2321.58 2463.84 2321.58 2463.48 2323.03 2465.83 2325.4 2466.72 2326.29 2467.06 2327.42 2466.56 2327.92 2465.08 2329.38 2457.95 2325.77 2453.84 2321.48 2451.72 2319.26 2448.81 2317.45 2447.38 2317.45 2445.08 2317.45 2444.89 2318.15 2445.69 2323.29 2446.19 2326.5 2447.17 2330.98 2447.84 2333.23 2450.93 2343.47 2454.59 2360.56 2456.65 2374.42 2457.88 2382.73 2459.88 2395.22 2461.09 2402.16 2464.62 2422.44 2460.54 2443.35 2452.76 2444.87 2449.72 2445.47 2449.92 2442.86 2453.24 2438.63 2458.12 2432.41 2456.75 2412.17 2451.44 2412.17 2450.71 2412.17 2450.58 2415.91 2451.13 2421.09 2451.91 2428.34 2451.72 2430.02 2450.14 2430.02 2449.07 2430.02 2447.41 2428.32 2446.44 2426.24 2444.79 2422.7 2444.61 2422.64 2443.57 2425.22 2441.5 2430.36 2442.08 2434.14 2444.93 2434.14 2448.75 2434.14 2449.67 2436.49 2446.51 2438.19 2442.46 2440.36 2439.35 2439.93 2435.95 2436.74 2433.95 2434.85 2432.26 2434.25 2431.07 2435.03 2430.06 2435.67 2428.01 2436.2 2426.51 2436.2 2421.99 2436.2 2423.39 2439.92 2429.56 2444.25 2434.71 2447.89 2435.75 2448.15 2439 2446.67 2443.16 2444.77 2444.07 2445.16 2442.84 2448.37 2439.73 2456.5 2420.43 2447.94 2416.92 2436.89 2415.61 2432.79 2413.48 2433.57 2413.48 2438.15 2413.48 2440.78 2414.9 2443.58 2417.6 2446.27 2422.63 2451.31 2422.75 2453.03 2418.19 2454.77 2413.23 2456.66 2407.76 2456.35 2404.68 2454.02Z" fill-rule="evenodd"/></g></svg>