<svg width="365" height="551" xmlns="http://www.w3.org/2000/svg" xmlns:xlink="http://www.w3.org/1999/xlink" xml:space="preserve" overflow="hidden"><defs><clipPath id="clip0"><rect x="2635" y="1558" width="365" height="551"/></clipPath></defs><g clip-path="url(#clip0)" transform="translate(-2635 -1558)"><path d="M2702.73 1560.74C2707.18 1560.45 2716.09 1559.82 2720.51 1559.5 2723.25 1561.35 2726.26 1561.98 2729.58 1561.45L2731.84 1561.37 2734.03 1562.03C2735.56 1562.58 2738.56 1563.69 2740.06 1564.24L2742.06 1565.11C2742.96 1565.54 2744.75 1566.41 2745.65 1566.83L2747.41 1567.75C2748.25 1568.22 2749.89 1569.15 2750.73 1569.62L2752.36 1570.65C2753.1 1571.15 2754.58 1572.2 2755.34 1572.71 2756.05 1573.26 2757.45 1574.37 2758.16 1574.92 2758.87 1575.5 2760.27 1576.66 2760.98 1577.24L2762.43 1578.53C2763.11 1579.16 2764.43 1580.45 2765.11 1581.11L2766.12 1582.64C2766.72 1583.27 2767.93 1584.51 2768.54 1585.12 2769.09 1585.8 2770.2 1587.2 2770.75 1587.89 2771.28 1588.6 2772.36 1590.02 2772.91 1590.76L2773.68 1592.42C2774.2 1593.11 2775.28 1594.5 2775.84 1595.21 2776.34 1596.03 2777.31 1597.67 2777.81 1598.48L2778.79 1600.28C2779.29 1601.17 2780.24 1602.94 2780.71 1603.83L2781.66 1605.76C2782.11 1606.68 2782.98 1608.53 2783.42 1609.45L2784.27 1611.4 2784.69 1613.43C2785.14 1614.27 2786.06 1615.93 2786.51 1616.75L2787.27 1618.67C2787.64 1619.6 2788.35 1621.44 2788.72 1622.36L2789.43 1624.29 2789.93 1626.18C2790.48 1626.84 2791.56 1628.14 2792.09 1628.77 2792.56 1630.43 2793.49 1633.72 2793.96 1635.38L2794.94 1637.62C2795.59 1639.13 2796.94 1642.16 2797.6 1643.69L2797.97 1645.74C2798.44 1646.56 2799.36 1648.17 2799.84 1648.98L2800.6 1650.86C2800.97 1651.78 2801.76 1653.57 2802.13 1654.49L2802.89 1656.36 2803.26 1658.34C2803.68 1659.16 2804.58 1660.79 2805 1661.64L2805.74 1663.51C2806.08 1664.43 2806.79 1666.25 2807.16 1667.17L2807.87 1669.07 2808.37 1670.99C2808.9 1671.63 2809.98 1672.92 2810.53 1673.55 2811.01 1675.21 2811.93 1678.5 2812.38 1680.14L2813.35 1682.38C2814.04 1683.91 2815.35 1686.91 2816.01 1688.42L2816.43 1690.44C2816.91 1691.24 2817.86 1692.82 2818.33 1693.61L2819.15 1695.43 2820.83 1698.91 2821.73 1700.67C2822.2 1701.51 2823.1 1703.2 2823.57 1704.05L2824.52 1705.78C2825.02 1706.58 2825.97 1708.18 2826.44 1709 2826.97 1709.79 2827.97 1711.37 2828.47 1712.14L2829.53 1713.8C2830.03 1714.59 2831.08 1716.17 2831.58 1716.96 2832.11 1717.75 2833.19 1719.33 2833.72 1720.1L2834.8 1721.78C2835.35 1722.57 2836.4 1724.18 2836.96 1724.97 2837.51 1725.76 2838.61 1727.37 2839.17 1728.16L2840.28 1729.82C2840.83 1730.64 2841.93 1732.22 2842.49 1733.01L2844.7 1736.07 2845.54 1737.76C2846.12 1738.44 2847.28 1739.81 2847.86 1740.5 2848.42 1741.24 2849.52 1742.71 2850.08 1743.45 2850.65 1744.21 2851.79 1745.69 2852.34 1746.45L2853.24 1748.14C2853.82 1748.83 2855.03 1750.2 2855.61 1750.88 2856.19 1751.65 2857.32 1753.15 2857.87 1753.89 2858.45 1754.65 2859.61 1756.15 2860.19 1756.92L2861.09 1758.63C2861.69 1759.32 2862.88 1760.71 2863.48 1761.4 2864.06 1762.16 2865.2 1763.67 2865.78 1764.4 2866.33 1765.17 2867.49 1766.67 2868.07 1767.43L2868.96 1769.12C2869.54 1769.83 2870.76 1771.2 2871.34 1771.89 2871.89 1772.63 2873.02 1774.13 2873.57 1774.87 2874.15 1775.61 2875.29 1777.11 2875.84 1777.87L2876.71 1779.56C2877.32 1780.24 2878.47 1781.64 2879.08 1782.33L2881.29 1785.38C2881.87 1786.18 2883.03 1787.76 2883.61 1788.55L2884.8 1790.23C2885.35 1791.05 2886.48 1792.66 2887.04 1793.45 2887.59 1794.24 2888.7 1795.77 2889.25 1796.56L2890.07 1798.25C2890.59 1798.96 2891.7 1800.33 2892.25 1801.04 2892.75 1801.78 2893.75 1803.28 2894.25 1804.02L2894.97 1805.71C2895.47 1806.42 2896.52 1807.81 2897.02 1808.53 2897.5 1809.32 2898.47 1810.92 2898.94 1811.72L2899.89 1813.46C2900.37 1814.3 2901.32 1816.01 2901.76 1816.88L2902.71 1818.7C2903.16 1819.6 2904.06 1821.36 2904.5 1822.26L2905.4 1824.13C2905.82 1825.05 2906.69 1826.9 2907.11 1827.82L2907.98 1829.8C2908.61 1831.22 2909.88 1834.09 2910.48 1835.52L2910.77 1837.55C2911.22 1838.34 2912.14 1839.94 2912.62 1840.76L2913.33 1842.77C2913.93 1844.21 2915.12 1847.11 2915.73 1848.56 2916.31 1850.04 2917.44 1852.97 2918.02 1854.41L2918.76 1856.42 2918.91 1858.45C2919.33 1859.24 2920.2 1860.85 2920.63 1861.64L2921.21 1863.64C2921.71 1865.12 2922.68 1868.04 2923.15 1869.52L2923.84 1871.65C2924.34 1873.16 2925.37 1876.13 2925.87 1877.64L2926.55 1879.8C2927.03 1881.3 2927.95 1884.33 2928.42 1885.83 2928.69 1886.94 2929.19 1889.15 2929.45 1890.29 2929.9 1891.76 2930.82 1894.77 2931.27 1896.27L2931.88 1898.43C2932.35 1899.91 2933.27 1902.89 2933.75 1904.39 2933.98 1905.5 2934.48 1907.71 2934.75 1908.84 2935.19 1910.32 2936.12 1913.32 2936.59 1914.83L2937.22 1916.99C2937.72 1918.49 2938.72 1921.47 2939.23 1922.94L2939.88 1925.11C2940.36 1926.61 2941.33 1929.61 2941.81 1931.12L2942.39 1933.28C2942.44 1934.36 2942.57 1936.49 2942.62 1937.57 2943.12 1938.36 2944.1 1940 2944.57 1940.79L2945.07 1942.87C2945.55 1944.35 2946.5 1947.3 2946.94 1948.78L2947.63 1950.94C2948.13 1952.44 2949.16 1955.42 2949.68 1956.92L2950.37 1959.08C2950.92 1960.53 2952.03 1963.46 2952.58 1964.93L2953.32 1966.96C2953.71 1967.88 2954.45 1969.78 2954.85 1970.73L2955.59 1972.79C2956.16 1974.29 2957.35 1977.29 2957.93 1978.82L2958.72 1981.01C2959.38 1982.46 2960.67 1985.39 2961.3 1986.86L2961.83 1988.81C2962.33 1989.58 2963.28 1991.11 2963.75 1991.9L2964.33 1993.64C2964.81 1994.4 2965.73 1995.88 2966.2 1996.61L2966.81 1998.35C2967.31 1999.09 2968.31 2000.59 2968.81 2001.33 2969.28 2002.18 2970.26 2003.81 2970.76 2004.65L2971.79 2006.42C2972.31 2007.26 2973.31 2008.95 2973.84 2009.79L2974.61 2011.59C2975.13 2012.3 2976.24 2013.77 2976.79 2014.48 2977.29 2015.25 2978.32 2016.8 2978.85 2017.59L2979.64 2019.28C2980.19 2019.99 2981.3 2021.39 2981.85 2022.08 2982.38 2022.84 2983.46 2024.37 2983.98 2025.13 2984.54 2025.92 2985.64 2027.48 2986.2 2028.27L2987.36 2029.96C2987.91 2030.75 2989.02 2032.35 2989.54 2033.17 2990.1 2033.96 2991.18 2035.54 2991.73 2036.31L2992.81 2037.94C2993.31 2038.71 2994.29 2040.24 2994.79 2041 2995.21 2041.74 2996.08 2043.19 2996.52 2043.9L2997 2045.48C2997.31 2046.17 2997.92 2047.59 2998.21 2048.3 2998.29 2049.04 2998.42 2050.57 2998.5 2051.33L2998.26 2052.86 2997.42 2054.15C2997.05 2054.79 2996.29 2056.02 2995.92 2056.66 2995.37 2057.16 2994.29 2058.19 2993.73 2058.69L2992.36 2059.4C2991.73 2059.85 2990.44 2060.74 2989.81 2061.22L2988.2 2061.66C2987.46 2062.09 2985.99 2062.96 2985.25 2063.38L2983.46 2064.14C2982.51 2064.48 2980.59 2065.22 2979.64 2065.59 2978.48 2065.91 2976.13 2066.59 2974.95 2066.94 2970.21 2067.09 2960.75 2067.41 2956.01 2067.6 2954.03 2067.28 2950.08 2066.7 2948.1 2066.41 2946.47 2065.91 2943.18 2064.96 2941.52 2064.46L2939.28 2063.69C2937.75 2063.11 2934.72 2061.98 2933.19 2061.43L2931.19 2060.61C2930.27 2060.21 2928.45 2059.42 2927.53 2059.03L2925.74 2058.26C2924.97 2057.82 2923.44 2056.97 2922.65 2056.52L2920.92 2056.1C2920.18 2055.66 2918.7 2054.81 2917.96 2054.39L2916.25 2053.86C2915.51 2053.41 2914.01 2052.52 2913.28 2052.1L2911.54 2051.52C2910.77 2051.07 2909.25 2050.12 2908.48 2049.65L2906.56 2049.09C2905.21 2048.46 2902.5 2047.19 2901.13 2046.56 2900.31 2046.17 2898.71 2045.38 2897.89 2044.98L2895.94 2044.82 2893.94 2044.48C2891.46 2041.53 2889.67 2041.87 2888.62 2045.51L2887.06 2046.75C2886.4 2047.41 2885.11 2048.75 2884.45 2049.43 2883.8 2050.73 2882.51 2053.36 2881.87 2054.65L2881.19 2056.66C2880.9 2057.61 2880.37 2059.5 2880.11 2060.45 2880.11 2064.54 2880.08 2072.71 2880.08 2076.79 2880.34 2077.77 2880.87 2079.72 2881.16 2080.69L2881.77 2082.83C2882.29 2084.33 2883.35 2087.34 2883.88 2088.87L2884.61 2090.97C2885.17 2092.34 2886.3 2095.09 2886.85 2096.48L2887.17 2098.25C2887.46 2098.99 2888.04 2100.44 2888.35 2101.17L2888.8 2102.65C2889.01 2103.36 2889.43 2104.76 2889.64 2105.44L2890.12 2106.87C2889.25 2107.03 2887.48 2107.34 2886.62 2107.5 2885.8 2107.26 2884.19 2106.81 2883.37 2106.58L2881.79 2106 2878.63 2104.73 2877 2104.02C2876.24 2103.65 2874.71 2102.86 2873.94 2102.47L2871.99 2102.18 2869.99 2101.52C2867.3 2099.57 2864.35 2098.83 2861.14 2099.25 2857.72 2099.09 2854.32 2098.67 2851 2097.99 2846.33 2096.61 2841.49 2096.06 2836.69 2096.06 2835.53 2095.9 2833.27 2095.56 2832.11 2095.4 2829.58 2093.5 2826.79 2092.85 2823.7 2093.48L2821.57 2092.98C2820.12 2092.5 2817.2 2091.53 2815.75 2091.05L2813.61 2090.47C2812.11 2090.05 2809.11 2089.18 2807.61 2088.76L2802.94 2088.76C2798.97 2088.13 2794.94 2088.65 2791.22 2090.16 2790.01 2090.34 2787.56 2090.74 2786.35 2090.95L2783.9 2091.08C2779.6 2091 2775.31 2091.05 2771.04 2091.26L2768.49 2091.26C2765.06 2091.16 2761.66 2090.84 2758.32 2090.24 2757.37 2089.81 2755.47 2088.94 2754.52 2088.5 2752.73 2088.47 2749.2 2088.44 2747.44 2088.44 2746.22 2088.21 2743.85 2087.76 2742.67 2087.55 2740.03 2085.78 2737.16 2085.12 2734.08 2085.54L2732.08 2085.18 2729.13 2083.17C2728.23 2082.99 2726.41 2082.65 2725.49 2082.46L2724.44 2081.06 2724.31 2079.43C2724.81 2078.82 2725.78 2077.64 2726.26 2077.06 2726.81 2076.53 2727.94 2075.5 2728.52 2074.97L2729.89 2074.16C2730.5 2073.66 2731.74 2072.63 2732.37 2072.13 2733.05 2071.63 2734.48 2070.63 2735.19 2070.13L2736.79 2069.33C2737.51 2068.81 2738.9 2067.7 2739.61 2067.15 2740.38 2066.62 2741.93 2065.57 2742.7 2065.04L2744.43 2064.22C2745.15 2063.64 2746.59 2062.48 2747.31 2061.9 2748.1 2061.37 2749.65 2060.27 2750.41 2059.71L2752.13 2058.82C2752.81 2058.21 2754.15 2057.03 2754.84 2056.42 2755.55 2055.84 2756.97 2054.65 2757.69 2054.07 2758.37 2053.47 2759.74 2052.25 2760.4 2051.65 2761.06 2051.02 2762.35 2049.78 2762.98 2049.17 2763.59 2048.54 2764.8 2047.3 2765.4 2046.67 2765.96 2046.01 2767.09 2044.74 2767.67 2044.08 2768.2 2043.43 2769.28 2042.08 2769.8 2041.42 2770.3 2040.74 2771.33 2039.34 2771.83 2038.65L2772.52 2036.78 2773.39 2034.83C2773.94 2033.25 2775.02 2030.14 2775.55 2028.56 2775.63 2020.39 2776.39 2012.61 2777.55 2004.68 2777.26 2000.75 2776.71 1992.87 2776.42 1988.92L2775.97 1986.76C2775.23 1985.44 2773.75 1982.83 2773.02 1981.54L2772.2 1979.8C2771.67 1979.14 2770.57 1977.85 2770.04 1977.19 2769.49 1976.56 2768.41 1975.26 2767.88 1974.61 2767.33 1973.97 2766.22 1972.68 2765.64 1972.05 2765.06 1971.42 2763.9 1970.15 2763.32 1969.49 2762.74 1968.86 2761.53 1967.57 2760.95 1966.91 2760.35 1966.25 2759.11 1964.91 2758.5 1964.25 2757.9 1963.54 2756.66 1962.16 2756.05 1961.45 2755.42 1960.72 2754.18 1959.24 2753.55 1958.5L2752.26 1956.92C2751.65 1956.18 2750.41 1954.68 2749.81 1953.94 2749.18 1953.23 2747.96 1951.78 2747.36 1951.07 2746.73 1950.36 2745.51 1948.96 2744.91 1948.27 2744.3 1947.56 2743.12 1946.17 2742.51 1945.48 2741.9 1944.77 2740.72 1943.35 2740.14 1942.63L2739.22 1941.03C2738.61 1940.37 2737.4 1939.05 2736.82 1938.39 2736.24 1937.68 2735.11 1936.23 2734.53 1935.52 2733.95 1934.78 2732.79 1933.3 2732.21 1932.57 2731.6 1931.77 2730.44 1930.22 2729.84 1929.46L2728.65 1927.77C2728.07 1926.98 2726.91 1925.4 2726.33 1924.61 2725.78 1923.84 2724.68 1922.29 2724.12 1921.52L2723.3 1919.83C2722.75 1919.12 2721.67 1917.75 2721.12 1917.07 2720.62 1916.3 2719.62 1914.8 2719.12 1914.06L2718.41 1912.4C2717.88 1911.69 2716.85 1910.29 2716.35 1909.58 2715.88 1908.79 2714.93 1907.21 2714.45 1906.42L2713.51 1904.73C2713.06 1903.89 2712.14 1902.2 2711.66 1901.36L2710.77 1899.62C2710.32 1898.75 2709.45 1897.04 2709.03 1896.17L2708.16 1894.37C2707.74 1893.48 2706.92 1891.68 2706.5 1890.79L2705.65 1888.86C2705.02 1887.44 2703.76 1884.62 2703.13 1883.22 2702.57 1881.8 2701.44 1878.9 2700.86 1877.48L2700.12 1875.37C2699.62 1873.92 2698.65 1870.99 2698.17 1869.52 2697.94 1868.41 2697.46 1866.22 2697.22 1865.12 2696.8 1863.59 2695.93 1860.56 2695.51 1859.05 2695.3 1857.13 2694.91 1853.28 2694.69 1851.36 2694.38 1841.95 2694.17 1832.83 2694.41 1823.52 2694.69 1821.57 2695.22 1817.65 2695.49 1815.7L2697.83 1815.06 2697.75 1812.95 2697.54 1808.53 2698.2 1806.34C2698.67 1804.84 2699.67 1801.81 2700.17 1800.28L2700.83 1798.25C2701.25 1797.43 2702.12 1795.8 2702.55 1794.98L2702.81 1793 2703.57 1791.13C2703.97 1790.26 2704.76 1788.47 2705.15 1787.6L2706 1785.75C2706.42 1784.88 2707.26 1783.12 2707.71 1782.22L2708.58 1780.4C2709.03 1779.51 2709.92 1777.74 2710.37 1776.84L2711.29 1775C2711.74 1774.13 2712.66 1772.34 2713.14 1771.44L2714.08 1769.62C2714.56 1768.73 2715.48 1766.99 2715.96 1766.12L2716.9 1764.32C2717.38 1763.51 2718.3 1761.85 2718.77 1761 2719.25 1760.27 2720.25 1758.79 2720.75 1758.05L2721.38 1756.29C2721.88 1755.55 2722.91 1754.05 2723.41 1753.28L2724.1 1751.44C2724.6 1750.59 2725.57 1748.85 2726.07 1747.98L2727.1 1746.16C2727.6 1745.32 2728.57 1743.61 2729.05 1742.74 2729.58 1741.97 2730.58 1740.44 2731.1 1739.65L2731.74 1737.86C2732.21 1737.1 2733.21 1735.54 2733.68 1734.78L2734.29 1732.99C2734.79 1732.22 2735.74 1730.67 2736.24 1729.9L2736.85 1728.11C2737.35 1727.35 2738.32 1725.79 2738.82 1725.03L2739.45 1723.18C2739.93 1722.31 2740.85 1720.54 2741.32 1719.68L2742.3 1717.8C2742.77 1716.88 2743.72 1715.09 2744.2 1714.17L2745.17 1712.27C2745.62 1711.37 2746.54 1709.55 2747.02 1708.63L2747.94 1706.76C2748.39 1705.86 2749.25 1704.07 2749.7 1703.18L2750.55 1701.33C2750.97 1700.46 2751.78 1698.72 2752.18 1697.85L2752.94 1696.06 2754.63 1692.9 2754.97 1691.02C2755.42 1690.18 2756.37 1688.52 2756.84 1687.7 2756.92 1686.54 2757.08 1684.22 2757.16 1683.06 2757.13 1679.56 2757.24 1676.05 2757.5 1672.6L2757.66 1670.07C2758.37 1664.98 2757.26 1659.92 2755.89 1655.1 2755.66 1653.89 2755.16 1651.49 2754.92 1650.28 2754.37 1648.77 2753.23 1645.79 2752.65 1644.29L2751.84 1642.42 2751.23 1640.66C2750.78 1639.97 2749.89 1638.63 2749.44 1637.97 2748.91 1637.36 2747.86 1636.2 2747.33 1635.62 2746.73 1635.07 2745.54 1633.96 2744.96 1633.41 2744.14 1633.04 2742.51 1632.33 2741.69 1631.98 2738.66 1631.46 2735.66 1630.93 2732.68 1630.4 2727.81 1629.08 2722.75 1629.9 2718.04 1631.25 2713.9 1632.14 2709.74 1632.75 2705.55 1632.77 2703.99 1633.2 2700.91 1634.01 2699.38 1634.43L2697.17 1634.91C2694.06 1634.43 2691.32 1635.23 2688.95 1637.23L2686.84 1637.86 2684.71 1637.52C2683.26 1638.07 2680.36 1639.15 2678.91 1639.71 2670.99 1640.15 2663.21 1640.84 2655.52 1639.39 2653.99 1638.94 2650.94 1638.02 2649.44 1637.57L2647.35 1636.91C2646.04 1636.39 2643.43 1635.3 2642.11 1634.75L2640.66 1633.62C2639.98 1633.12 2638.66 1632.09 2637.98 1631.59L2636.5 1630.77 2637.55 1629.37C2637.98 1628.66 2638.77 1627.27 2639.16 1626.55 2639.74 1626 2640.87 1624.87 2641.45 1624.31L2642.85 1623.47C2643.45 1622.94 2644.67 1621.89 2645.3 1621.36 2645.98 1620.86 2647.33 1619.86 2648.01 1619.33L2649.57 1618.49C2650.23 1617.91 2651.52 1616.78 2652.18 1616.22L2654.91 1613.9C2655.6 1613.3 2656.94 1612.06 2657.63 1611.45 2658.31 1610.82 2659.63 1609.53 2660.29 1608.87 2660.95 1608.18 2662.24 1606.84 2662.87 1606.15L2665.4 1603.31 2667.82 1600.25 2669.06 1598.59C2669.67 1597.82 2670.83 1596.27 2671.43 1595.48 2671.99 1594.74 2673.09 1593.21 2673.65 1592.47 2674.2 1591.76 2675.33 1590.39 2675.91 1589.68L2676.73 1588.02C2677.25 1587.25 2678.31 1585.75 2678.84 1584.99 2679.39 1584.3 2680.52 1582.91 2681.07 1582.22L2681.89 1580.53C2682.44 1579.8 2683.55 1578.29 2684.08 1577.56 2684.63 1576.79 2685.74 1575.29 2686.29 1574.55L2687.45 1573C2688 1572.31 2689.14 1570.91 2689.72 1570.23 2690.3 1569.6 2691.43 1568.36 2692.01 1567.72 2692.61 1567.14 2693.85 1565.98 2694.46 1565.43 2695.17 1564.9 2696.57 1563.82 2697.28 1563.3L2698.96 1562.32C2699.91 1561.93 2701.78 1561.13 2702.73 1560.74M2814.51 2009.11 2811.56 2011.11C2811.01 2011.77 2809.9 2013.14 2809.35 2013.8L2808.42 2015.41C2807.92 2016.01 2806.95 2017.23 2806.45 2017.83L2806.26 2020.44 2805.66 2022.47C2805.16 2023.84 2804.13 2026.56 2803.63 2027.93L2803.63 2030.69C2803.45 2031.93 2803.02 2034.36 2802.84 2035.6 2802.5 2036.18 2801.79 2037.36 2801.44 2037.97 2798.94 2041.74 2798.84 2047.64 2801.84 2051.23 2802.29 2051.7 2803.13 2052.68 2803.58 2053.15L2804.5 2055.23C2804.76 2056.18 2805.32 2058.08 2805.58 2059.03L2806.95 2060.72C2807.61 2060.87 2808.98 2061.19 2809.64 2061.35L2810.95 2062.61C2812.3 2062.67 2814.96 2062.77 2816.3 2062.82 2816.93 2062.46 2818.2 2061.69 2818.83 2061.3L2820.86 2060.64C2821.75 2060.24 2823.6 2059.48 2824.52 2059.08L2826.34 2058.24C2827.16 2057.79 2828.84 2056.89 2829.68 2056.45L2831.34 2055.52C2832.08 2055.05 2833.58 2054.1 2834.32 2053.63L2836.69 2053.07C2837.11 2052.47 2837.93 2051.28 2838.35 2050.67 2838.96 2050.07 2840.17 2048.88 2840.78 2048.3 2841.35 2047.62 2842.46 2046.25 2843.01 2045.56L2844.07 2043.98C2844.57 2043.14 2845.52 2041.47 2845.99 2040.66L2846.89 2038.79C2847.34 2038.21 2848.26 2037.02 2848.71 2036.44 2848.84 2035.07 2849.1 2032.35 2849.23 2030.98 2849.28 2029.85 2849.39 2027.56 2849.47 2026.4 2854.4 2025.4 2849.73 2017.01 2846.2 2020.52L2844.31 2019.47C2843.41 2019.02 2841.62 2018.1 2840.72 2017.65L2838.77 2016.83C2837.43 2016.2 2834.69 2014.93 2833.35 2014.3 2832.77 2013.8 2831.58 2012.82 2831 2012.32L2828.47 2012.24C2828.02 2011.72 2827.16 2010.66 2826.71 2010.14L2824.55 2009.69C2823.05 2009.5 2819.99 2009.13 2818.49 2008.92L2816.41 2008.74C2815.93 2008.84 2814.98 2009 2814.51 2009.11Z" stroke="#000000" stroke-width="0.24685" stroke-miterlimit="8" fill-rule="evenodd"/></g></svg>