<svg width="780" height="594" xmlns="http://www.w3.org/2000/svg" xmlns:xlink="http://www.w3.org/1999/xlink" xml:space="preserve" overflow="hidden"><defs><clipPath id="clip0"><rect x="858" y="891" width="780" height="594"/></clipPath></defs><g clip-path="url(#clip0)" transform="translate(-858 -891)"><path d="M1444.14 897.204C1444.88 896.239 1446.38 894.276 1447.13 893.31 1448.41 893.123 1450.93 892.687 1452.21 892.5 1453.52 892.749 1456.11 893.217 1457.42 893.466 1460.41 895.615 1463.77 896.426 1467.45 895.865L1470.01 896.581C1471.79 897.111 1475.31 898.201 1477.09 898.731L1479.49 899.417 1483.35 901.411 1485.78 901.598 1488.18 902.439C1489.93 903.093 1493.39 904.433 1495.13 905.118L1497.47 906.084C1498.56 906.551 1500.75 907.517 1501.8 908.016L1504.02 909.013C1505.05 909.511 1507.14 910.508 1508.16 911.006L1510.31 912.035C1511.34 912.564 1513.4 913.593 1514.43 914.122L1516.58 915.181C1517.61 915.742 1519.7 916.833 1520.73 917.363L1522.85 918.484C1523.87 919.045 1525.9 920.167 1526.93 920.727L1528.99 921.88C1529.92 922.472 1531.82 923.594 1532.79 924.155 1533.63 924.778 1535.28 925.993 1536.13 926.616L1538.12 927.457C1539.02 928.049 1540.8 929.233 1541.67 929.825 1542.52 930.479 1544.17 931.788 1544.98 932.411L1547 933.377C1547.94 934.031 1549.78 935.34 1550.71 935.994 1551.68 936.648 1553.58 937.957 1554.55 938.642L1556.57 940.013C1557.51 940.667 1559.41 942.007 1560.38 942.661 1561.28 943.315 1563.12 944.562 1564.02 945.216 1564.87 945.87 1566.52 947.179 1567.36 947.833L1569.32 948.768C1570.13 949.422 1571.76 950.762 1572.57 951.447L1574.5 952.413C1575.31 953.099 1576.96 954.407 1577.8 955.062 1578.58 955.747 1580.11 957.118 1580.89 957.803 1581.64 958.489 1583.1 959.922 1583.85 960.639 1584.57 961.386 1585.97 962.882 1586.69 963.629 1587.4 964.47 1588.81 966.153 1589.49 966.994L1590.93 968.895C1591.64 969.861 1593.05 971.823 1593.76 972.789 1594.51 973.942 1596.04 976.185 1596.79 977.307 1597.75 980.859 1599.72 983.725 1602.68 985.906 1603.46 986.716 1605.05 988.305 1605.83 989.115 1606.54 989.832 1608.01 991.265 1608.73 991.982L1610.56 993.01C1611.38 993.664 1613 994.941 1613.81 995.564 1614.55 996.219 1616.08 997.558 1616.83 998.213L1618.64 999.272C1619.45 999.957 1621.04 1001.27 1621.85 1001.95 1622.6 1002.64 1624.12 1004.01 1624.9 1004.66 1625.62 1005.38 1627.06 1006.78 1627.77 1007.47 1628.46 1008.18 1629.83 1009.62 1630.52 1010.33 1631.14 1011.11 1632.39 1012.67 1633.01 1013.42 1633.54 1014.32 1634.63 1016.13 1635.16 1017L1635.53 1019.27C1635.78 1020.46 1636.25 1022.86 1636.5 1024.04 1634.94 1024.94 1631.82 1026.75 1630.3 1027.66 1628.3 1028.28 1624.31 1029.49 1622.32 1030.09L1619.64 1029.84C1617.89 1030.46 1614.4 1031.74 1612.62 1032.39L1609.97 1033.05C1608.16 1033.7 1604.55 1034.98 1602.74 1035.63 1601.59 1036.19 1599.25 1037.28 1598.1 1037.81 1597.16 1038.37 1595.29 1039.43 1594.32 1039.99 1593.58 1040.62 1592.05 1041.83 1591.3 1042.45 1590.61 1043.11 1589.27 1044.39 1588.62 1045.04 1588 1045.69 1586.72 1047.03 1586.09 1047.72L1584.79 1049.09 1581.54 1050.59 1583.66 1051.74C1583.04 1052.8 1581.82 1054.98 1581.2 1056.07 1580.73 1057.16 1579.77 1059.31 1579.27 1060.37 1578.46 1061.96 1576.87 1065.1 1576.06 1066.69L1575.9 1069.25C1573.63 1072.11 1572.69 1075.39 1573.1 1079.03L1572.69 1081.56C1569.07 1084.33 1568.92 1089.53 1572.47 1092.46 1572.69 1094.52 1573.13 1098.66 1573.31 1100.72 1573.47 1102.65 1573.78 1106.57 1573.94 1108.51 1573.59 1110.47 1572.88 1114.33 1572.5 1116.26 1572.07 1117.29 1571.16 1119.32 1570.7 1120.34 1570.17 1121.22 1569.07 1122.99 1568.54 1123.87 1567.95 1124.74 1566.8 1126.45 1566.24 1127.29L1564.99 1129.04C1564.4 1129.88 1563.18 1131.53 1562.56 1132.34 1561.97 1133.15 1560.78 1134.77 1560.19 1135.58 1559.6 1136.39 1558.44 1137.98 1557.88 1138.79 1557.32 1139.6 1556.17 1141.19 1555.61 1141.97L1554.77 1143.87C1554.21 1144.71 1553.08 1146.45 1552.52 1147.29L1551.84 1149.44C1549.5 1151.94 1548.22 1154.9 1548.03 1158.32L1547.29 1160.6C1546.88 1161.63 1546.07 1163.71 1545.66 1164.74L1544.95 1166.95C1544.82 1168.67 1544.54 1172.06 1544.42 1173.78L1544.48 1176.08C1545.1 1175.52 1546.32 1174.43 1546.94 1173.9 1547.5 1173.22 1548.63 1171.85 1549.19 1171.16 1549.72 1170.66 1550.84 1169.63 1551.37 1169.1 1551.93 1168.7 1552.99 1167.89 1553.52 1167.48L1554.61 1166.64C1555.17 1166.27 1556.26 1165.49 1556.82 1165.12L1557.98 1164.34C1558.13 1164.99 1558.48 1166.3 1558.66 1166.95L1559.01 1168.36C1558.91 1169.14 1558.79 1170.72 1558.69 1171.5L1558.57 1173.37C1557.79 1174.74 1556.26 1177.48 1555.51 1178.86 1554.89 1179.7 1553.71 1181.44 1553.08 1182.28 1552.49 1183.16 1551.24 1184.84 1550.62 1185.68L1548.13 1189.17 1546.79 1191.01C1546.13 1191.88 1544.85 1193.66 1544.2 1194.53 1543.58 1195.37 1542.33 1197.08 1541.67 1197.95 1541.02 1198.73 1539.71 1200.32 1539.06 1201.13L1538.06 1203.06C1537.4 1203.94 1536.13 1205.71 1535.5 1206.58L1532.88 1210.2 1531.54 1212.1C1530.89 1212.97 1529.58 1214.75 1528.92 1215.65 1528.27 1216.49 1526.96 1218.24 1526.31 1219.08 1525.65 1219.98 1524.37 1221.76 1523.72 1222.63L1522.38 1224.5C1521.72 1225.37 1520.38 1227.15 1519.73 1228.05 1519.04 1228.95 1517.7 1230.76 1517.02 1231.67 1515.99 1233.1 1513.96 1236 1512.96 1237.43 1512.31 1238.36 1511.06 1240.23 1510.44 1241.17 1509.88 1242.13 1508.73 1244.03 1508.13 1245 1507.63 1246.06 1506.61 1248.18 1506.11 1249.24 1505.64 1250.51 1504.7 1253.04 1504.24 1254.32 1503.8 1255.56 1502.9 1258.05 1502.46 1259.3 1501.87 1260.27 1500.71 1262.2 1500.12 1263.16 1499.59 1264.04 1498.56 1265.78 1498.03 1266.65 1497.5 1267.43 1496.47 1268.99 1495.94 1269.8L1495.2 1271.55C1494.76 1272.36 1493.92 1273.98 1493.51 1274.79L1492.98 1276.59C1492.86 1277.53 1492.61 1279.43 1492.48 1280.36 1492.52 1281.39 1492.58 1283.42 1492.64 1284.44L1492.64 1286.47 1494.35 1287.22C1495.2 1287.62 1496.91 1288.4 1497.75 1288.77 1498.59 1288.99 1500.28 1289.43 1501.09 1289.65L1502.9 1289.77 1504.67 1289.93 1503.52 1291.11C1502.96 1291.7 1501.77 1292.86 1501.18 1293.45 1500.37 1293.88 1498.69 1294.79 1497.88 1295.22 1496.72 1295.41 1494.48 1295.78 1493.33 1295.97 1490.08 1295.5 1486.84 1295.1 1483.6 1294.79 1482.63 1294.35 1480.73 1293.51 1479.77 1293.11 1478.92 1292.67 1477.24 1291.83 1476.4 1291.42 1475.53 1291.14 1473.78 1290.58 1472.91 1290.3 1472 1290.21 1470.13 1290.02 1469.2 1289.96L1467.2 1290.02C1466.27 1290.21 1464.43 1290.61 1463.49 1290.8 1462.65 1291.24 1460.97 1292.14 1460.13 1292.58 1459.35 1293.14 1457.82 1294.29 1457.04 1294.88 1456.32 1295.54 1454.86 1296.84 1454.14 1297.5L1451.31 1300.33C1450.62 1301.08 1449.22 1302.61 1448.53 1303.36 1447.85 1304.17 1446.44 1305.82 1445.76 1306.63L1444.32 1308.34C1443.64 1309.15 1442.27 1310.77 1441.58 1311.58L1440.21 1313.14C1439.62 1313.86 1438.43 1315.29 1437.87 1316.04L1437.03 1317.59C1436.62 1318.28 1435.81 1319.65 1435.41 1320.34 1434.97 1320.96 1434.13 1322.17 1433.69 1322.8L1435.78 1322.67C1435.16 1326.94 1439.87 1329.06 1443.29 1327.13 1444.23 1327.44 1446.16 1328.06 1447.13 1328.34 1447.88 1328.78 1449.44 1329.59 1450.21 1329.99 1450.93 1330.4 1452.37 1331.18 1453.11 1331.55L1454.61 1332.33C1454.55 1334.29 1454.39 1338.22 1454.3 1340.18L1452.33 1340.9C1451.43 1341.4 1449.65 1342.36 1448.75 1342.86L1446.91 1343.98 1444.82 1344.45C1443.95 1345.01 1442.17 1346.07 1441.27 1346.6L1439.02 1347.41C1437.37 1348.1 1434.07 1349.4 1432.42 1350.06L1430.01 1350.37 1426.15 1352.49 1423.78 1353.36C1422.07 1354.05 1418.61 1355.39 1416.89 1356.07L1414.52 1357.01C1413.43 1357.47 1411.28 1358.38 1410.19 1358.81L1407.98 1359.72C1406.89 1360.18 1404.77 1361.06 1403.67 1361.49L1401.4 1362.4C1397.94 1362.65 1395.1 1364.08 1392.86 1366.7 1392.08 1367.47 1390.52 1369 1389.74 1369.75 1389.24 1370.68 1388.18 1372.58 1387.68 1373.52 1386.59 1378.13 1386.16 1382.87 1386.06 1387.6 1385.66 1392.84 1385.72 1398.1 1386.03 1403.4 1386 1408.16 1386.06 1412.96 1386.31 1417.76 1386.62 1418.85 1387.25 1421 1387.56 1422.09L1387.5 1424.43C1387.12 1425.52 1386.41 1427.7 1386.03 1428.76 1385.63 1429.66 1384.78 1431.47 1384.38 1432.4 1383.44 1431.91 1381.6 1430.97 1380.7 1430.5 1379.83 1430.16 1378.08 1429.44 1377.24 1429.1 1376.65 1428.32 1375.53 1426.83 1374.93 1426.08 1374.5 1425.11 1373.62 1423.21 1373.19 1422.28 1372.81 1421.28 1372.07 1419.26 1371.69 1418.26L1371.13 1416.05C1370.91 1414.18 1370.48 1410.5 1370.26 1408.63 1373.5 1405.21 1372.78 1403.21 1368.17 1402.74L1366.39 1401.06C1364.86 1400.59 1361.75 1399.63 1360.22 1399.13L1358.07 1399.57C1357.13 1399.88 1355.23 1400.5 1354.3 1400.84 1353.46 1401.37 1351.77 1402.43 1350.9 1402.96 1349.84 1404.21 1347.69 1406.64 1346.63 1407.88 1343.89 1409.88 1342.51 1412.59 1342.55 1415.99 1342.73 1417.01 1343.14 1419.07 1343.32 1420.13 1342.98 1421.19 1342.33 1423.37 1341.98 1424.43 1341.42 1425.3 1340.3 1427.08 1339.74 1427.95L1339.05 1429.97 1337.71 1431.69C1337.03 1432.44 1335.69 1433.96 1335 1434.74 1334.32 1435.43 1332.94 1436.77 1332.26 1437.45 1331.54 1438.04 1330.14 1439.26 1329.42 1439.85 1328.71 1440.38 1327.24 1441.41 1326.49 1441.94 1325.74 1442.34 1324.19 1443.15 1323.44 1443.56 1322.6 1443.78 1320.94 1444.24 1320.13 1444.46L1318.42 1444.56C1317.61 1444.37 1316.05 1443.99 1315.24 1443.81 1314.62 1443.37 1313.34 1442.5 1312.68 1442.06 1312.25 1441.44 1311.34 1440.16 1310.87 1439.54 1310.66 1438.73 1310.25 1437.17 1310.03 1436.39L1310.03 1434.65C1310.19 1433.81 1310.53 1432.09 1310.72 1431.25 1311.03 1430.44 1311.68 1428.79 1312.03 1427.95L1313.65 1424.58 1314.55 1422.81C1315.05 1421.97 1316.02 1420.25 1316.49 1419.41 1316.95 1418.57 1317.86 1416.86 1318.32 1416.02L1318.89 1413.96C1322.22 1411.5 1322.97 1406.7 1319.98 1403.65L1319.79 1401.25C1319.67 1400.06 1319.42 1397.73 1319.29 1396.54 1319.26 1395.27 1319.2 1392.68 1319.17 1391.37 1320.85 1388.16 1321.38 1384.77 1320.79 1381.21L1321.41 1378.75C1321.72 1377.6 1322.38 1375.33 1322.72 1374.17 1323.22 1372.4 1324.28 1368.78 1324.78 1366.98 1325.21 1365.89 1326.06 1363.7 1326.46 1362.65 1326.96 1361.52 1327.96 1359.34 1328.46 1358.25 1329.08 1357.26 1330.26 1355.29 1330.89 1354.3 1331.29 1352.64 1332.13 1349.34 1332.54 1347.66 1332.82 1347.04 1333.32 1345.76 1333.6 1345.1L1332.82 1343.39 1331.2 1340.03C1330.73 1339.22 1329.8 1337.57 1329.33 1336.72 1328.83 1335.88 1327.8 1334.2 1327.3 1333.36L1326.52 1331.49C1325.93 1330.65 1324.78 1329.03 1324.22 1328.19L1323.06 1326.38C1322.53 1325.51 1321.44 1323.73 1320.91 1322.86L1319.98 1321.05C1319.35 1320.3 1318.11 1318.84 1317.48 1318.12 1316.7 1317.44 1315.21 1316.1 1314.46 1315.41 1311 1311.39 1305.64 1310.18 1300.65 1311.71 1295.91 1311.92 1291.14 1311.64 1286.53 1310.58 1285.38 1310.33 1283.1 1309.8 1281.95 1309.56 1280.98 1309.12 1279.05 1308.22 1278.08 1307.78L1275.71 1307.62 1273.28 1306.91C1271.5 1306.25 1267.95 1304.94 1266.14 1304.26 1265.24 1303.6 1263.43 1302.33 1262.53 1301.67 1261.72 1300.93 1260.16 1299.46 1259.35 1298.74L1257.85 1297.12 1256.6 1295.38C1255.86 1294.73 1254.3 1293.45 1253.55 1292.82 1252.77 1292.11 1251.24 1290.74 1250.49 1290.02L1248.34 1289.02 1246.16 1287.68C1244.42 1287.09 1240.86 1285.91 1239.08 1285.32 1238.34 1284.6 1236.81 1283.17 1236.06 1282.45 1234.88 1282.14 1232.57 1281.55 1231.39 1281.27L1227.02 1279.9 1224.71 1279.3C1222.16 1275.84 1217.11 1275.32 1214.3 1278.74 1210.81 1278.21 1207.69 1279.05 1204.92 1281.23L1202.61 1282.08C1201.52 1282.51 1199.37 1283.35 1198.28 1283.79L1195.94 1284.63C1194.17 1285.19 1190.64 1286.31 1188.87 1286.84 1187.53 1287.15 1184.88 1287.72 1183.54 1288 1179.76 1287.37 1176.34 1288.12 1173.19 1290.27 1171.25 1290.74 1167.42 1291.64 1165.49 1292.08 1164.36 1292.42 1162.09 1293.11 1160.97 1293.45L1158.6 1294.2C1156.88 1294.79 1153.49 1295.97 1151.8 1296.56L1149.28 1297.34C1147.5 1297.87 1143.92 1298.96 1142.14 1299.49 1140.77 1299.77 1138.06 1300.3 1136.68 1300.58 1132.79 1299.8 1129.14 1300.49 1125.77 1302.61 1124.28 1302.79 1121.32 1303.2 1119.82 1303.39 1115.77 1303.48 1111.81 1303.98 1107.88 1304.88 1106.51 1305.13 1103.73 1305.57 1102.36 1305.79L1097.87 1307.41 1095.79 1308.47C1094.88 1309 1093.01 1310.05 1092.11 1310.58 1091.27 1311.18 1089.55 1312.33 1088.71 1312.89 1087.87 1313.51 1086.15 1314.7 1085.31 1315.32L1083.47 1316.53C1082.57 1317.16 1080.79 1318.37 1079.89 1319 1078.98 1319.62 1077.18 1320.9 1076.27 1321.52L1074.31 1322.83C1073.37 1323.45 1071.47 1324.73 1070.54 1325.38 1069.6 1326.04 1067.7 1327.35 1066.76 1328L1064.74 1329.34C1063.8 1329.96 1061.9 1331.27 1060.97 1331.93 1060.03 1332.58 1058.19 1333.86 1057.26 1334.51L1055.23 1335.48C1054.39 1336.13 1052.71 1337.47 1051.86 1338.16 1050.96 1338.78 1049.12 1340.03 1048.22 1340.65L1046.16 1341.58C1045.32 1342.27 1043.63 1343.61 1042.76 1344.26 1041.86 1344.89 1040.02 1346.16 1039.08 1346.79L1037.03 1347.75 1033.66 1350.49C1032.72 1351.12 1030.92 1352.43 1030.01 1353.08L1027.99 1354.14C1027.18 1354.86 1025.55 1356.29 1024.78 1357.01 1023.9 1357.69 1022.19 1359.09 1021.35 1359.81 1020.5 1360.53 1018.85 1361.99 1018.01 1362.74 1017.2 1363.49 1015.55 1364.98 1014.74 1365.73 1013.93 1366.51 1012.31 1368.04 1011.53 1368.78 1010.72 1369.56 1009.1 1371.09 1008.32 1371.87 1007.51 1372.62 1005.92 1374.14 1005.11 1374.92 1004.3 1375.67 1002.67 1377.2 1001.86 1377.94 1001.05 1378.69 999.401 1380.16 998.591 1380.9 997.749 1381.65 996.066 1383.08 995.255 1383.8L993.323 1384.95C992.574 1385.67 991.047 1387.13 990.268 1387.85 989.426 1388.57 987.774 1389.94 986.932 1390.62 986.122 1391.34 984.438 1392.74 983.597 1393.43 982.755 1394.14 981.041 1395.58 980.199 1396.26 979.326 1397.01 977.58 1398.44 976.676 1399.19L974.837 1400.69 971.346 1403.55C970.536 1404.27 968.884 1405.7 968.073 1406.42 967.263 1407.14 965.673 1408.54 964.862 1409.26 964.083 1409.94 962.493 1411.34 961.683 1412.06 960.872 1412.74 959.282 1414.15 958.472 1414.86 957.63 1415.55 955.916 1416.95 955.074 1417.67 954.17 1418.38 952.362 1419.85 951.427 1420.57 950.429 1421.31 948.434 1422.84 947.437 1423.62 946.533 1424.33 944.756 1425.83 943.852 1426.55 943.042 1427.23 941.39 1428.6 940.579 1429.29L939.301 1431.06C938.553 1431.84 937.026 1433.4 936.277 1434.18 935.529 1434.93 934.033 1436.45 933.285 1437.23 932.537 1437.98 931.04 1439.51 930.292 1440.26 929.513 1441 927.985 1442.5 927.237 1443.25 926.458 1443.99 924.868 1445.49 924.089 1446.21 923.278 1446.95 921.657 1448.42 920.847 1449.14 919.974 1449.88 918.259 1451.35 917.418 1452.09L915.579 1453.59C914.737 1454.31 912.992 1455.74 912.15 1456.46 911.339 1457.17 909.687 1458.58 908.877 1459.26 908.098 1459.98 906.477 1461.35 905.697 1462.03 904.887 1462.72 903.297 1464.06 902.487 1464.74 901.645 1465.43 899.993 1466.74 899.151 1467.42 898.247 1468.08 896.439 1469.36 895.535 1470.01L893.54 1471.32C892.542 1471.91 890.547 1473.16 889.55 1473.75L887.43 1474.93C886.401 1475.49 884.313 1476.61 883.284 1477.14L881.165 1478.2C880.136 1478.7 878.11 1479.67 877.081 1480.14L875.024 1481.01C874.057 1481.38 872.094 1482.13 871.127 1482.47L869.163 1483.06 867.293 1483.16C866.42 1483.25 864.737 1483.41 863.864 1483.5L862.212 1483.16C861.588 1482.63 860.341 1481.51 859.718 1480.98L859.5 1479.23 860.061 1477.55C860.466 1476.77 861.245 1475.21 861.651 1474.43 862.181 1473.72 863.24 1472.25 863.739 1471.54 864.363 1470.82 865.578 1469.39 866.171 1468.67 866.857 1467.95 868.197 1466.52 868.852 1465.77 869.569 1465.06 871.003 1463.59 871.719 1462.84 872.468 1462.1 873.964 1460.63 874.712 1459.88L877.829 1456.89C878.609 1456.15 880.229 1454.68 881.04 1453.93 881.85 1453.19 883.534 1451.69 884.344 1450.94L887.835 1447.95 889.706 1446.42C890.579 1445.68 892.324 1444.21 893.197 1443.46 894.039 1442.75 895.691 1441.28 896.501 1440.54 897.312 1439.82 898.902 1438.36 899.712 1437.61 900.491 1436.89 902.081 1435.43 902.861 1434.71 903.64 1433.99 905.199 1432.53 905.978 1431.81 906.788 1431.06 908.378 1429.63 909.189 1428.88 909.999 1428.17 911.62 1426.7 912.462 1425.99 913.303 1425.24 915.018 1423.77 915.891 1423.06L917.73 1421.53C918.602 1420.81 920.317 1419.38 921.19 1418.63 922.031 1417.92 923.684 1416.48 924.525 1415.77L927.767 1412.9C928.609 1412.22 930.23 1410.78 931.072 1410.07 931.913 1409.35 933.597 1407.95 934.438 1407.23 935.342 1406.51 937.119 1405.08 938.023 1404.36L939.924 1402.9C940.828 1402.21 942.667 1400.81 943.603 1400.1 944.475 1399.41 946.252 1398.04 947.125 1397.35L949.089 1396.26C949.868 1395.55 951.427 1394.14 952.206 1393.43 953.017 1392.74 954.669 1391.37 955.479 1390.69 956.29 1389.97 957.911 1388.54 958.69 1387.85 959.501 1387.13 961.09 1385.7 961.87 1384.95 962.68 1384.24 964.27 1382.8 965.049 1382.06 965.829 1381.34 967.45 1379.88 968.229 1379.16 969.039 1378.41 970.692 1376.95 971.502 1376.23L974.868 1373.24 976.676 1371.68C977.549 1370.93 979.233 1369.44 980.074 1368.66 980.916 1367.91 982.537 1366.35 983.347 1365.57 984.158 1364.8 985.748 1363.18 986.558 1362.4L988.241 1360.71C989.052 1359.94 990.704 1358.38 991.515 1357.63L993.447 1356.48C994.195 1355.79 995.723 1354.36 996.471 1353.64 997.344 1352.99 999.058 1351.71 999.931 1351.09 1000.84 1350.43 1002.64 1349.19 1003.55 1348.53L1005.48 1347.29 1007.54 1346.35C1008.35 1345.7 1009.97 1344.45 1010.78 1343.8 1011.65 1343.17 1013.34 1341.96 1014.18 1341.37 1015.02 1340.71 1016.7 1339.43 1017.54 1338.78 1018.42 1338.09 1020.19 1336.72 1021.07 1336.01 1022.47 1334.89 1025.31 1332.64 1026.74 1331.52 1027.64 1330.74 1029.45 1329.12 1030.39 1328.34 1031.32 1327.5 1033.19 1325.85 1034.16 1325.04 1035 1324.29 1036.75 1322.83 1037.62 1322.08 1038.43 1321.4 1040.11 1319.99 1040.92 1319.31 1041.8 1318.62 1043.48 1317.25 1044.32 1316.57L1046.13 1315.2C1047 1314.54 1048.72 1313.2 1049.59 1312.55L1052.96 1309.93 1056.32 1307.31 1058.22 1306.28C1059.03 1305.63 1060.59 1304.26 1061.37 1303.57 1062.24 1302.92 1063.96 1301.61 1064.8 1300.93 1065.67 1300.24 1067.45 1298.84 1068.32 1298.12L1070.16 1296.63C1071 1295.91 1072.72 1294.45 1073.56 1293.7 1074.34 1292.95 1075.9 1291.42 1076.68 1290.64 1077.39 1289.87 1078.86 1288.28 1079.58 1287.47 1080.29 1286.72 1081.73 1285.19 1082.44 1284.41L1083.54 1282.48C1084.22 1281.58 1085.62 1279.77 1086.31 1278.87L1087.81 1277C1088.52 1276.13 1090.02 1274.41 1090.74 1273.54 1091.52 1272.73 1093.04 1271.11 1093.82 1270.3 1094.63 1269.52 1096.25 1267.99 1097.06 1267.21L1098.81 1265.66C1099.62 1264.94 1101.24 1263.48 1102.05 1262.76L1105.04 1259.89C1105.7 1259.21 1107.07 1257.77 1107.76 1257.06 1108.35 1256.34 1109.56 1254.91 1110.19 1254.19 1110.69 1253.47 1111.71 1251.98 1112.24 1251.23L1113.21 1249.74C1113.65 1249.05 1114.55 1247.68 1114.99 1246.99 1115.36 1246.31 1116.14 1245 1116.52 1244.31L1114.4 1244.88C1115.27 1240.67 1113.74 1239.55 1109.81 1241.45L1107.76 1241.85 1105.82 1241.95C1104.98 1242.26 1103.33 1242.91 1102.49 1243.22L1100.59 1242.66C1099.59 1242.41 1097.53 1241.98 1096.53 1241.73L1097.72 1240.51C1098.28 1239.89 1099.4 1238.64 1099.96 1238.02L1101.15 1236.74C1101.74 1236.12 1102.92 1234.91 1103.52 1234.28 1104.14 1233.69 1105.45 1232.48 1106.07 1231.85 1106.79 1231.23 1108.19 1229.92 1108.88 1229.3L1110.44 1227.93C1111.18 1227.18 1112.68 1225.75 1113.43 1225 1114.08 1224.13 1115.42 1222.41 1116.08 1221.54L1117.42 1219.55C1118.04 1218.55 1119.29 1216.49 1119.88 1215.46 1120.51 1214.37 1121.72 1212.13 1122.31 1211.01 1122.91 1209.98 1124.06 1207.96 1124.65 1206.96 1125.21 1205.96 1126.37 1204.03 1126.96 1203.06L1128.14 1201.1C1128.8 1200.29 1130.11 1198.67 1130.76 1197.83L1131.7 1195.9C1132.38 1195.09 1133.78 1193.5 1134.5 1192.72L1136.28 1191.51C1137 1190.76 1138.4 1189.2 1139.12 1188.45 1139.96 1187.7 1141.67 1186.21 1142.54 1185.46L1144.45 1183.84C1145.57 1183.25 1147.78 1182.03 1148.87 1181.44 1149.65 1180.63 1151.18 1179.04 1151.96 1178.23 1152.8 1177.58 1154.45 1176.27 1155.29 1175.62 1156.1 1174.96 1157.72 1173.68 1158.54 1173.03 1159.35 1172.41 1160.97 1171.13 1161.78 1170.47 1162.59 1169.85 1164.27 1168.54 1165.11 1167.92L1166.89 1166.61C1167.73 1165.99 1169.45 1164.71 1170.32 1164.09 1171.16 1163.43 1172.81 1162.12 1173.65 1161.47L1175.4 1160.1C1176.21 1159.41 1177.83 1157.98 1178.67 1157.3 1179.39 1156.42 1180.85 1154.74 1181.6 1153.9 1184.35 1151.25 1185.81 1148.04 1186 1144.27 1186.9 1140.53 1188.24 1136.98 1190.08 1133.65L1191.92 1132.03C1192.48 1131.16 1193.64 1129.38 1194.2 1128.51 1194.94 1127.85 1196.47 1126.48 1197.22 1125.8 1198 1125.17 1199.59 1123.93 1200.37 1123.27L1202.24 1122.37C1203.05 1121.75 1204.67 1120.5 1205.45 1119.88 1206.39 1119.29 1208.26 1118.13 1209.16 1117.54L1211.19 1116.33C1212.15 1115.76 1214.12 1114.61 1215.08 1114.05L1217.2 1113.27C1218.11 1112.68 1219.88 1111.53 1220.76 1110.94L1222.84 1110.25 1226.46 1108.01 1228.64 1107.45C1229.58 1106.85 1231.48 1105.67 1232.41 1105.08 1234.16 1104.27 1237.65 1102.68 1239.4 1101.87L1241.89 1100.72C1243.04 1100.16 1245.32 1099.03 1246.47 1098.47 1247.72 1098.07 1250.21 1097.29 1251.43 1096.88 1252.33 1096.14 1254.17 1094.67 1255.08 1093.96L1257.13 1092.68C1258.07 1092.12 1259.91 1091 1260.84 1090.43L1262.34 1088.75 1264.21 1087.63C1264.96 1086.91 1266.42 1085.48 1267.14 1084.76 1267.92 1084.08 1269.45 1082.68 1270.19 1081.99 1270.97 1081.34 1272.53 1080.06 1273.31 1079.41L1274.65 1077.72 1276.49 1076.6C1277.21 1075.92 1278.7 1074.51 1279.45 1073.8 1280.29 1073.17 1281.98 1071.87 1282.82 1071.24 1283.72 1070.59 1285.53 1069.31 1286.44 1068.69L1288.46 1067.41C1289.46 1066.79 1291.45 1065.57 1292.48 1064.98L1294.6 1063.73C1295.66 1063.14 1297.72 1061.96 1298.78 1061.37L1300.96 1060.12C1301.99 1059.5 1304.08 1058.28 1305.11 1057.66 1306.67 1056.66 1309.72 1054.67 1311.28 1053.7 1312.21 1053.05 1314.09 1051.71 1315.02 1051.05 1315.92 1050.43 1317.73 1049.15 1318.61 1048.53L1320.63 1047.6C1321.44 1046.94 1323.09 1045.66 1323.9 1045.01 1324.87 1044.39 1326.74 1043.14 1327.68 1042.52L1329.67 1041.24C1330.64 1040.62 1332.54 1039.37 1333.51 1038.75L1335.59 1037.78C1336.4 1037.13 1338.09 1035.79 1338.93 1035.13 1339.8 1034.48 1341.61 1033.2 1342.48 1032.58 1343.39 1031.92 1345.16 1030.62 1346.07 1029.96L1348.06 1028.93C1348.87 1028.22 1350.49 1026.85 1351.31 1026.16 1352.18 1025.51 1353.92 1024.17 1354.8 1023.51 1355.7 1022.86 1357.48 1021.52 1358.38 1020.86L1360.41 1019.87C1361.22 1019.15 1362.87 1017.78 1363.71 1017.09 1364.65 1016.44 1366.49 1015.13 1367.42 1014.48 1368.39 1013.82 1370.35 1012.51 1371.32 1011.86L1373.44 1010.52C1374.43 1009.86 1376.43 1008.62 1377.43 1007.96L1379.61 1007.09C1380.48 1006.44 1382.26 1005.16 1383.13 1004.51L1385.19 1003.63C1386.06 1003.01 1387.78 1001.76 1388.62 1001.14 1389.55 1000.55 1391.39 999.365 1392.3 998.774L1394.29 997.839C1395.13 997.185 1396.82 995.907 1397.63 995.253 1398.53 994.63 1400.37 993.383 1401.27 992.729 1402.21 992.075 1404.11 990.766 1405.05 990.112L1407.07 988.772C1408.07 988.118 1410 986.81 1411 986.124 1411.97 985.47 1413.9 984.13 1414.9 983.476L1416.92 982.105C1417.89 981.451 1419.79 980.142 1420.76 979.488L1422.78 978.428C1423.56 977.743 1425.15 976.341 1425.93 975.656 1426.77 974.97 1428.39 973.599 1429.2 972.914 1430.01 972.197 1431.6 970.764 1432.42 970.047 1433.23 969.393 1434.88 968.053 1435.72 967.399L1437.12 965.592 1438.84 964.065 1440.93 963.287C1441.64 962.632 1443.05 961.324 1443.73 960.67L1444.63 958.8C1445.41 958.084 1446.94 956.682 1447.72 955.996 1448.5 955.279 1450.09 953.846 1450.87 953.13L1452.55 951.603C1453.33 950.855 1454.92 949.298 1455.73 948.55L1457.29 946.836C1458.04 945.995 1459.57 944.312 1460.31 943.471 1461.31 942.038 1463.31 939.172 1464.27 937.738 1464.68 936.586 1465.46 934.311 1465.86 933.159 1465.61 932.504 1465.08 931.196 1464.83 930.541 1465.11 929.482 1465.74 927.364 1466.02 926.304 1465.89 925.058 1465.58 922.503 1465.46 921.226L1464.9 918.64 1466.27 919.793C1466.17 918.92 1465.96 917.238 1465.86 916.397L1465.18 914.621 1464.52 912.751C1464.06 911.848 1463.15 910.072 1462.71 909.169 1461.34 908.203 1458.66 906.24 1457.29 905.274L1455.05 904.246C1453.49 903.467 1450.43 901.878 1448.91 901.099L1446.88 900.009C1445.88 899.822 1443.92 899.448 1442.95 899.261L1444.14 897.204M1453.02 1269.08 1450.34 1268.77C1449.65 1269.27 1448.31 1270.27 1447.66 1270.8L1444.17 1272.42 1442.39 1273.32C1441.52 1273.79 1439.8 1274.75 1438.93 1275.22L1436.03 1275.41C1435.35 1276.03 1434.04 1277.25 1433.38 1277.87L1431.23 1278.84C1430.14 1279.3 1427.96 1280.27 1426.9 1280.74L1424.47 1281.73C1419.6 1279.12 1416.24 1280.33 1414.43 1285.38 1412.62 1286 1409 1287.25 1407.2 1287.87 1405.95 1288.24 1403.52 1289.02 1402.27 1289.43 1401.21 1289.83 1399.09 1290.64 1398 1291.08L1395.88 1291.92C1394.85 1292.36 1392.8 1293.23 1391.8 1293.67L1389.58 1294.57C1388.03 1295.26 1384.88 1296.69 1383.29 1297.4L1381.14 1298.46C1380.2 1299.15 1378.36 1300.52 1377.43 1301.21L1375.71 1303.04C1370.48 1303.26 1369.98 1304.94 1374.25 1308.12 1374.43 1309.46 1374.75 1312.17 1374.93 1313.54L1374.68 1319.9C1375.06 1320.71 1375.74 1322.27 1376.09 1323.05L1376.37 1325.69C1376.9 1326.38 1377.96 1327.69 1378.49 1328.34L1378.95 1330.62C1372.44 1330.43 1376.55 1341.93 1381.26 1337 1382.1 1337.57 1383.72 1338.66 1384.53 1339.22L1386.47 1339.28C1387.34 1338.97 1389.15 1338.34 1390.02 1338.03 1390.83 1337.44 1392.45 1336.29 1393.29 1335.73 1394.01 1335.07 1395.45 1333.83 1396.16 1333.17L1398.91 1330.56C1399.62 1329.87 1400.99 1328.47 1401.68 1327.78 1402.4 1327.07 1403.8 1325.63 1404.52 1324.92 1405.26 1324.2 1406.7 1322.73 1407.45 1321.99 1408.19 1321.27 1409.69 1319.78 1410.44 1319.03 1411.19 1318.28 1412.71 1316.82 1413.46 1316.07 1414.24 1315.32 1415.8 1313.82 1416.58 1313.11 1417.39 1312.36 1418.98 1310.86 1419.76 1310.15 1420.57 1309.4 1422.22 1307.94 1423.03 1307.19 1423.91 1306.44 1425.62 1304.94 1426.46 1304.2L1428.27 1302.61C1429.11 1301.83 1430.79 1300.3 1431.64 1299.52L1434.82 1296.35C1435.59 1295.54 1437.12 1293.88 1437.9 1293.04L1439.43 1291.3C1440.18 1290.49 1441.64 1288.87 1442.36 1288.06 1443.08 1287.31 1444.48 1285.81 1445.2 1285.1 1445.88 1284.38 1447.22 1283.01 1447.91 1282.33 1448.53 1281.67 1449.81 1280.36 1450.46 1279.68L1452.93 1278.77C1453.21 1278.03 1453.74 1276.53 1454.02 1275.81 1454.45 1275.03 1455.3 1273.48 1455.73 1272.7L1456.51 1271.02C1456.7 1270.58 1457.07 1269.71 1457.26 1269.3 1456.67 1263.91 1455.26 1263.82 1453.02 1269.08M1345.66 1310.8 1343.11 1310.49 1336.5 1312.86C1334.66 1313.64 1331.01 1315.2 1329.17 1315.97L1330.08 1317.41C1330.48 1318.15 1331.29 1319.62 1331.73 1320.34 1332.13 1321.18 1332.94 1322.83 1333.38 1323.64L1334.44 1325.48C1335.44 1326.79 1337.46 1329.37 1338.46 1330.68L1340.02 1332.24C1340.74 1332.89 1342.2 1334.2 1342.92 1334.85 1343.61 1335.38 1344.98 1336.47 1345.66 1337.04 1346.35 1337.5 1347.72 1338.41 1348.41 1338.87 1348.72 1339.5 1349.37 1340.77 1349.68 1341.4L1351.74 1341.96C1352.12 1341.49 1352.86 1340.52 1353.21 1340.06 1354.33 1338.53 1356.51 1335.48 1357.6 1333.95 1357.35 1331.77 1356.79 1327.41 1356.54 1325.23 1356.42 1324.01 1356.14 1321.55 1356.01 1320.3 1359 1315.94 1358.07 1312.92 1353.27 1311.24 1355.3 1305.79 1344.07 1305.13 1345.66 1310.8Z" stroke="#000000" stroke-width="0.291962" stroke-miterlimit="8" fill-rule="evenodd"/></g></svg>