<svg width="345" height="554" xmlns="http://www.w3.org/2000/svg" xmlns:xlink="http://www.w3.org/1999/xlink" xml:space="preserve" overflow="hidden"><defs><clipPath id="clip0"><rect x="1012" y="799" width="345" height="554"/></clipPath></defs><g clip-path="url(#clip0)" transform="translate(-1012 -799)"><path d="M1163.77 801.159C1164.96 800.843 1167.34 800.237 1168.52 799.948 1173.69 799.737 1178.89 799.632 1184.08 799.5L1186.48 799.79 1188.8 800.264C1190.36 800.711 1193.47 801.607 1195.03 802.081L1197.22 802.712C1198.69 803.213 1201.62 804.239 1203.1 804.74L1205.23 805.398C1207.77 807.399 1210.61 808.057 1213.78 807.373 1218 807.689 1226.46 808.347 1230.68 808.663 1234.69 808.689 1242.71 808.715 1246.72 808.715 1253.5 807.794 1260.33 807.32 1267.16 807.267 1270.16 807.425 1273.17 807.399 1276.2 807.215 1277.05 806.846 1278.74 806.135 1279.58 805.766 1280.61 805.845 1282.67 806.004 1283.72 806.083L1285.65 806.978C1285.51 808.61 1285.3 811.849 1285.2 813.481 1284.51 813.876 1283.19 814.64 1282.51 815.035L1281.16 815.903C1280.56 816.456 1279.37 817.562 1278.76 818.115 1278.05 818.616 1276.57 819.616 1275.86 820.116L1274.23 821.117C1273.43 821.617 1271.85 822.617 1271.03 823.118L1269.29 823.855C1268.56 824.408 1267.11 825.514 1266.39 826.066 1265.58 826.62 1263.97 827.726 1263.18 828.279L1261.49 829.463C1260.7 830.069 1259.14 831.28 1258.35 831.859 1257.61 832.517 1256.19 833.781 1255.45 834.413L1253.63 835.045 1251.84 835.545 1251.41 837.257 1250.86 838.995C1250.25 839.653 1249.04 840.995 1248.46 841.68 1247.85 842.286 1246.67 843.55 1246.06 844.182L1245.14 845.709C1244.58 846.393 1243.47 847.736 1242.92 848.42 1242.37 849.079 1241.29 850.395 1240.73 851.054 1240.18 851.738 1239.1 853.107 1238.54 853.766 1238.02 854.529 1236.96 856.083 1236.43 856.846L1235.33 858.663C1234.72 860.19 1233.48 863.244 1232.85 864.771 1232.98 873.934 1233.03 883.255 1232.66 892.496 1233.19 894.076 1234.24 897.262 1234.77 898.842L1235.54 900.895 1235.93 902.923C1236.38 903.686 1237.3 905.266 1237.78 906.03L1238.62 907.767C1239.04 908.557 1239.89 910.164 1240.34 910.98L1241.02 912.638C1241.55 913.349 1242.55 914.719 1243.05 915.403 1243.58 916.14 1244.61 917.615 1245.11 918.352 1245.66 919.089 1246.8 920.59 1247.35 921.354L1248.54 922.933C1249.12 923.697 1250.31 925.171 1250.89 925.935 1251.49 926.62 1252.71 928.041 1253.31 928.726 1253.94 929.41 1255.16 930.753 1255.79 931.438 1256.42 932.096 1257.66 933.413 1258.3 934.071 1258.9 934.729 1260.17 936.045 1260.8 936.704 1261.43 937.362 1262.67 938.678 1263.31 939.337 1263.94 940.021 1265.18 941.364 1265.81 942.048 1266.42 942.733 1267.66 944.129 1268.29 944.84 1268.93 945.577 1270.16 947.051 1270.77 947.788L1272.06 949.368C1272.67 950.132 1273.88 951.633 1274.49 952.37 1275.07 953.081 1276.28 954.529 1276.86 955.24 1277.47 955.951 1278.63 957.373 1279.21 958.083 1279.79 958.794 1280.95 960.242 1281.51 960.953L1282.4 962.559C1282.96 963.218 1284.12 964.534 1284.7 965.219 1285.22 965.93 1286.31 967.404 1286.86 968.115 1287.41 968.878 1288.49 970.406 1289.05 971.169L1290.18 972.828C1290.74 973.618 1291.82 975.198 1292.34 975.988 1292.9 976.777 1293.98 978.357 1294.53 979.147L1295.64 980.806C1296.17 981.622 1297.22 983.202 1297.75 983.992 1298.31 984.781 1299.36 986.361 1299.89 987.151L1300.97 988.784 1303.08 991.943C1303.61 992.733 1304.66 994.287 1305.19 995.076L1306.27 996.709C1306.8 997.499 1307.83 999.079 1308.35 999.869 1308.88 1000.63 1309.96 1002.21 1310.49 1003L1311.57 1004.63C1312.07 1005.42 1313.13 1007 1313.65 1007.79 1314.18 1008.58 1315.26 1010.16 1315.79 1010.95L1316.87 1012.64C1317.37 1013.43 1318.43 1015.03 1318.96 1015.82 1319.46 1016.61 1320.51 1018.22 1321.01 1019.01L1322.07 1020.7C1322.54 1021.48 1323.54 1023.09 1324.02 1023.88L1324.7 1025.62C1325.21 1026.33 1326.23 1027.75 1326.74 1028.46 1327.18 1029.25 1328.11 1030.83 1328.58 1031.62L1329.5 1033.33C1329.95 1034.18 1330.88 1035.83 1331.32 1036.68L1332.25 1038.44C1332.67 1039.28 1333.57 1040.97 1333.99 1041.84L1334.88 1043.6C1335.28 1044.44 1336.12 1046.16 1336.55 1047.02L1337.39 1048.82C1337.81 1049.71 1338.63 1051.47 1339.03 1052.37L1339.87 1054.32C1340.5 1055.74 1341.77 1058.61 1342.4 1060.03 1342.98 1061.51 1344.17 1064.48 1344.75 1065.96L1345.49 1068.14C1346.01 1069.67 1347.04 1072.7 1347.54 1074.22L1348.12 1076.41C1348.15 1077.51 1348.18 1079.7 1348.2 1080.81 1348.68 1081.65 1349.6 1083.33 1350.08 1084.18 1350.26 1085.28 1350.63 1087.49 1350.79 1088.6 1350.21 1091.76 1350.76 1094.73 1352.45 1097.5L1353.4 1104.55 1353.43 1106.85C1353.14 1111.56 1353.77 1116.27 1354.9 1120.85 1355.85 1133.81 1357.78 1147.24 1355.24 1160.16 1354.82 1161.77 1354.01 1164.98 1353.61 1166.59 1353.85 1171.64 1353.5 1176.78 1352.42 1181.75 1350.52 1184.2 1349.81 1186.99 1350.34 1190.1L1350.34 1192.07 1349.73 1193.84C1349.28 1194.52 1348.41 1195.89 1347.99 1196.58L1347.49 1198.16C1346.94 1198.79 1345.86 1200.08 1345.3 1200.71 1344.06 1201.29 1341.58 1202.42 1340.37 1203L1338.31 1202.95C1337.05 1202.42 1334.49 1201.37 1333.2 1200.84 1333.17 1199.21 1333.09 1195.92 1333.06 1194.26L1333.06 1192.13C1333.51 1191.31 1334.41 1189.63 1334.86 1188.81 1334.86 1187.7 1334.91 1185.54 1334.91 1184.47L1335.49 1182.28C1335.99 1180.75 1336.94 1177.7 1337.44 1176.15L1338.08 1173.93C1339.87 1171.17 1340.4 1168.19 1339.66 1165.01 1339.66 1163.82 1339.63 1161.51 1339.63 1160.32L1339.9 1158.08C1340.71 1154.92 1340.13 1152.05 1338.16 1149.5L1337.68 1147.24C1338.02 1144 1337.23 1141.07 1335.31 1138.47L1334.62 1136.23C1334.12 1134.7 1333.06 1131.62 1332.54 1130.09L1331.88 1128.01 1331.4 1125.99C1330.85 1125.38 1329.74 1124.12 1329.16 1123.49 1328.69 1121.96 1327.68 1118.9 1327.18 1117.38L1326.16 1115.46C1325.68 1114.61 1324.73 1112.9 1324.26 1112.06L1323.6 1110.35C1323.12 1109.66 1322.17 1108.27 1321.7 1107.58 1321.25 1106.87 1320.33 1105.45 1319.88 1104.74L1318.93 1103.26C1318.48 1102.58 1317.56 1101.16 1317.11 1100.47L1316.24 1099.05 1313.81 1096.95C1312.76 1093.68 1311.07 1093.26 1308.67 1095.68 1307.96 1096.1 1306.56 1096.95 1305.85 1097.37 1305.4 1098.05 1304.48 1099.39 1304.03 1100.08 1301.5 1105.32 1300.81 1110.69 1301.94 1116.14 1302.6 1120.04 1303.05 1123.96 1303.32 1127.91L1303.42 1130.2C1303.74 1134.33 1304.37 1142.55 1304.69 1146.66 1305.56 1167.75 1308.2 1189.34 1304.9 1210.35 1303.29 1213.88 1302.76 1217.75 1303.24 1221.62 1303.03 1223.33 1302.6 1226.78 1302.39 1228.49 1302 1230.02 1301.21 1233.12 1300.84 1234.65 1300.52 1235.76 1299.91 1237.99 1299.6 1239.1 1299.07 1240.6 1297.99 1243.6 1297.43 1245.1 1296.78 1246.52 1295.48 1249.37 1294.85 1250.79L1293.95 1252.71C1293.51 1253.58 1292.63 1255.32 1292.19 1256.19L1291.29 1257.9C1290.84 1258.69 1289.94 1260.24 1289.5 1261.03 1289 1261.72 1287.99 1263.11 1287.49 1263.8L1286.78 1265.46C1286.28 1266.22 1285.25 1267.75 1284.72 1268.51L1283.64 1270.09C1283.09 1270.8 1281.98 1272.25 1281.43 1272.96 1280.85 1273.64 1279.74 1274.99 1279.18 1275.65 1278.63 1276.28 1277.5 1277.57 1276.94 1278.2 1276.39 1278.8 1275.28 1280.07 1274.73 1280.7 1274.17 1281.33 1273.09 1282.65 1272.56 1283.28 1272.12 1284.04 1271.25 1285.6 1270.82 1286.36L1270.11 1288.18C1270.01 1291.71 1269.8 1298.74 1269.69 1302.24L1269.82 1304.11 1269.85 1305.92 1272.01 1305.84 1274.31 1305.82C1278.76 1306.53 1287.68 1307.93 1292.13 1308.64 1294.88 1310.45 1297.91 1311.19 1301.23 1310.82L1303.39 1311.48C1304.79 1312.08 1307.59 1313.24 1308.99 1313.85L1310.65 1314.77C1311.31 1315.27 1312.65 1316.25 1313.34 1316.72 1313.87 1317.25 1314.97 1318.3 1315.5 1318.83 1315.98 1319.43 1316.92 1320.67 1317.4 1321.27 1317.32 1323.72 1317.98 1325.96 1319.4 1328.01L1318.93 1329.73C1318.35 1330.33 1317.19 1331.6 1316.58 1332.23 1315.69 1332.41 1313.89 1332.81 1312.99 1332.99 1312.12 1332.91 1310.41 1332.75 1309.57 1332.67L1307.67 1333.17C1306.14 1333.52 1303.1 1334.15 1301.58 1334.49 1300.73 1334.83 1299.02 1335.49 1298.17 1335.83 1297.49 1336.33 1296.12 1337.36 1295.43 1337.89 1294.82 1338.44 1293.64 1339.55 1293.06 1340.1 1292.5 1340.65 1291.42 1341.78 1290.89 1342.34L1289.97 1343.63C1289.36 1344.15 1288.2 1345.16 1287.62 1345.66L1286.54 1346.81C1285.83 1347.16 1284.41 1347.81 1283.69 1348.13L1282.11 1348.45C1281.35 1348.34 1279.82 1348.16 1279.05 1348.05L1277.44 1348C1276.71 1347.71 1275.23 1347.1 1274.46 1346.81 1273.7 1346.47 1272.2 1345.73 1271.43 1345.39 1270.64 1344.94 1269.06 1344.08 1268.27 1343.63 1267.21 1343.5 1265.1 1343.21 1264.05 1343.08L1261.88 1342.84C1259.56 1339.89 1257.53 1340.05 1255.82 1343.36L1254 1344C1253.21 1344.34 1251.6 1345.02 1250.81 1345.37 1250.09 1345.79 1248.7 1346.58 1247.98 1347 1247.3 1347.42 1245.9 1348.24 1245.22 1348.66 1244.42 1349.03 1242.84 1349.82 1242.05 1350.18 1241.05 1350.39 1239.07 1350.79 1238.07 1350.97L1235.99 1351.5C1235.59 1350.89 1234.77 1349.71 1234.35 1349.1L1232.85 1348.21 1231.95 1346.58C1233 1344 1233.19 1341.36 1232.5 1338.7 1232.79 1337.73 1233.35 1335.78 1233.64 1334.81 1233.95 1333.97 1234.64 1332.25 1234.96 1331.38L1235.67 1329.73C1236.01 1328.91 1236.75 1327.33 1237.09 1326.54 1237.33 1325.64 1237.8 1323.91 1238.04 1323.04L1239.1 1316.72 1238.36 1310.51 1237.96 1308.29C1237.88 1307.19 1237.78 1305 1237.7 1303.9L1235.38 1303.29C1230.47 1301.9 1225.54 1300.61 1220.45 1300.13 1215.89 1300.05 1206.76 1299.89 1202.2 1299.82 1200.3 1299.66 1196.5 1299.29 1194.58 1299.13L1193.76 1296.89 1191.6 1296.97C1190.46 1297 1188.2 1297.08 1187.06 1297.1L1184.82 1296.45C1183.32 1295.92 1180.26 1294.87 1178.73 1294.37L1176.75 1293.65C1175.93 1293.23 1174.35 1292.36 1173.53 1291.94L1171.66 1291.65C1170.84 1291.26 1169.23 1290.47 1168.44 1290.07L1166.36 1289.89 1164.12 1289.63C1159.92 1289.26 1151.51 1288.55 1147.32 1288.18 1146.39 1288.49 1144.52 1289.07 1143.6 1289.39L1141.73 1290.18 1139.91 1290.78C1139.22 1291.26 1137.82 1292.23 1137.11 1292.71L1135.69 1293.68C1135.16 1294.26 1134.08 1295.44 1133.52 1296.05 1133.13 1296.73 1132.36 1298.13 1131.97 1298.84L1131.55 1300.5 1131.05 1302.21C1130.52 1302.82 1129.44 1304.03 1128.91 1304.63L1131.02 1304.82C1131.26 1305.87 1131.68 1308 1131.89 1309.08 1132.23 1310.01 1132.89 1311.82 1133.23 1312.74 1133.74 1313.51 1134.74 1315.06 1135.24 1315.82 1135.79 1316.53 1136.9 1317.93 1137.45 1318.64 1138.03 1319.3 1139.2 1320.62 1139.78 1321.27 1140.38 1321.93 1141.54 1323.22 1142.12 1323.85 1142.68 1324.51 1143.81 1325.8 1144.36 1326.43 1144.89 1327.09 1145.92 1328.41 1146.45 1329.07 1146.9 1329.75 1147.77 1331.15 1148.21 1331.83L1148.58 1333.41C1148.85 1334.15 1149.4 1335.62 1149.67 1336.33 1149.64 1337.15 1149.64 1338.76 1149.64 1339.57 1149.32 1340.26 1148.72 1341.63 1148.43 1342.29 1147.79 1342.71 1146.55 1343.52 1145.92 1343.92 1145.13 1344.02 1143.55 1344.23 1142.76 1344.31 1141.94 1344.21 1140.36 1343.97 1139.56 1343.84L1137.93 1343.39 1134.66 1342.34C1131.12 1340.21 1126.77 1340.18 1123.34 1342.55L1121.52 1343.26C1120.71 1343.65 1119.07 1344.39 1118.25 1344.79 1117.49 1345.21 1115.96 1346.08 1115.2 1346.5L1113.59 1347.34C1112.8 1347.71 1111.21 1348.47 1110.42 1348.84 1109.58 1349.13 1107.84 1349.68 1106.99 1349.97L1105.07 1350.29C1104.09 1350.18 1102.14 1350 1101.16 1349.92 1100.4 1349.55 1098.84 1348.79 1098.05 1348.42 1097.39 1348 1096.1 1347.1 1095.44 1346.66 1094.86 1346.18 1093.67 1345.23 1093.07 1344.76 1092.49 1344.26 1091.33 1343.26 1090.72 1342.76 1090.06 1342.23 1088.77 1341.21 1088.11 1340.68 1087.21 1340.36 1085.42 1339.68 1084.52 1339.34 1077.56 1338.73 1070.7 1337.62 1063.93 1336.04 1062.66 1335.86 1060.1 1335.49 1058.84 1335.31L1058.97 1332.94C1059.28 1329.04 1059.68 1325.14 1059.81 1321.27L1061.53 1320.96C1062.24 1320.54 1063.66 1319.69 1064.35 1319.27L1065.98 1318.3C1066.83 1317.85 1068.54 1316.93 1069.41 1316.48L1071.34 1315.61C1072.73 1315.01 1075.58 1313.8 1077.01 1313.19L1078.91 1312.59C1079.51 1311.98 1080.67 1310.8 1081.28 1310.22L1086.87 1308.11 1088.66 1307.24C1089.24 1306.58 1090.43 1305.29 1091.04 1304.66 1091.38 1303.79 1092.12 1302.03 1092.49 1301.16 1092.78 1299.45 1093.36 1296.08 1093.62 1294.37 1094.57 1291.18 1094.1 1288.18 1092.28 1285.39L1091.54 1283.28 1091.14 1281.23C1090.69 1280.44 1089.8 1278.83 1089.35 1278.04L1088.87 1276.22C1088.43 1275.46 1087.56 1273.91 1087.11 1273.14L1086.63 1271.33C1086.13 1270.54 1085.16 1268.93 1084.68 1268.14 1084 1266.77 1082.62 1263.98 1081.96 1262.61L1081.41 1260.64C1080.91 1259.85 1079.93 1258.27 1079.46 1257.5L1079.01 1255.66C1078.56 1254.87 1077.67 1253.29 1077.22 1252.5L1076.43 1250.68C1076.06 1249.79 1075.29 1248 1074.9 1247.1L1074.16 1245.21 1073.89 1243.23C1073.47 1242.39 1072.6 1240.76 1072.18 1239.92L1071.49 1237.89C1070.99 1236.39 1069.96 1233.33 1069.46 1231.83L1068.73 1229.62C1068.2 1228.09 1067.14 1224.99 1066.62 1223.46L1065.9 1221.22C1065.43 1219.62 1064.51 1216.43 1064.06 1214.82 1063.87 1213.59 1063.48 1211.11 1063.29 1209.9 1063.4 1206.48 1063.35 1203.08 1063.19 1199.71L1063.19 1194.63C1063.35 1191.23 1063.4 1187.86 1063.29 1184.49 1063.45 1183.28 1063.79 1180.81 1063.98 1179.59 1065.88 1176.94 1066.59 1174.01 1066.09 1170.8L1066.59 1168.59C1067.06 1167.14 1068.04 1164.19 1068.51 1162.72L1069.12 1160.58C1069.57 1159.11 1070.49 1156.16 1070.94 1154.66 1071.18 1153.58 1071.68 1151.37 1071.94 1150.26 1072.39 1148.79 1073.31 1145.81 1073.79 1144.34L1074.4 1142.18C1074.84 1140.68 1075.77 1137.65 1076.22 1136.15 1076.48 1135.04 1077.03 1132.81 1077.3 1131.67 1077.77 1130.15 1078.69 1127.12 1079.17 1125.59L1079.85 1123.43C1080.3 1121.93 1081.25 1118.96 1081.73 1117.48L1082.26 1115.4C1082.73 1114.59 1083.71 1112.93 1084.18 1112.11 1084.23 1111.03 1084.34 1108.85 1084.39 1107.77L1084.87 1105.58C1085.13 1104.03 1085.68 1100.95 1085.95 1099.39 1085.89 1098.31 1085.76 1096.18 1085.71 1095.1L1085.82 1093.08 1085.95 1091.13 1084.21 1090.55 1083.07 1089.02C1081.83 1085.7 1080.12 1085.44 1077.93 1088.31 1077.22 1088.76 1075.82 1089.63 1075.11 1090.07 1074.45 1090.57 1073.13 1091.55 1072.47 1092.05L1071.1 1093.1C1070.44 1093.65 1069.15 1094.73 1068.49 1095.29 1067.88 1095.89 1066.67 1097.13 1066.04 1097.76 1065.46 1098.45 1064.27 1099.82 1063.66 1100.5L1062.45 1102C1061.84 1102.71 1060.68 1104.16 1060.08 1104.87 1059.52 1105.58 1058.36 1107 1057.81 1107.71 1057.25 1108.43 1056.15 1109.85 1055.59 1110.56 1055.01 1111.22 1053.88 1112.59 1053.3 1113.24L1052.45 1114.9C1051.9 1115.67 1050.82 1117.19 1050.26 1117.96 1049.71 1118.77 1048.66 1120.35 1048.1 1121.17L1047.02 1122.85C1046.49 1123.64 1045.44 1125.25 1044.91 1126.04 1044.38 1126.78 1043.28 1128.23 1042.72 1128.94L1041.98 1130.73C1041.48 1131.54 1040.45 1133.18 1039.93 1133.99L1038.84 1135.73C1038.32 1136.55 1037.26 1138.15 1036.73 1138.97 1036.18 1139.78 1035.13 1141.39 1034.6 1142.18L1033.49 1143.84C1032.94 1144.6 1031.86 1146.16 1031.3 1146.92 1030.77 1147.66 1029.67 1149.1 1029.11 1149.84L1027.98 1151.32C1027.4 1151.92 1026.24 1153.19 1025.63 1153.82 1025.02 1154.34 1023.76 1155.37 1023.13 1155.9L1021.73 1156.66C1021.25 1157.19 1020.3 1158.27 1019.83 1158.79 1018.25 1158.29 1015.08 1157.32 1013.5 1156.82 1013.79 1155.74 1014.4 1153.58 1014.71 1152.47 1016.19 1149.74 1016.56 1146.87 1015.77 1143.89 1016.03 1142.79 1016.53 1140.57 1016.8 1139.47 1017.19 1137.97 1018.01 1134.99 1018.43 1133.49L1018.88 1131.44C1019.38 1130.62 1020.33 1128.99 1020.83 1128.17 1020.88 1127.12 1021.02 1124.96 1021.07 1123.88L1021.62 1121.72C1022.12 1120.22 1023.07 1117.22 1023.57 1115.69L1024.18 1113.51C1024.66 1112.01 1025.58 1108.98 1026.05 1107.45 1026.29 1106.32 1026.82 1104.08 1027.08 1102.98 1027.56 1101.47 1028.48 1098.45 1028.95 1096.95L1029.61 1094.79C1030.11 1093.31 1031.14 1090.34 1031.64 1088.86L1032.33 1086.7C1032.83 1085.2 1033.89 1082.2 1034.39 1080.73L1035.13 1078.57C1035.65 1077.12 1036.73 1074.2 1037.26 1072.75L1038.03 1070.8C1038.4 1069.93 1039.13 1068.17 1039.5 1067.27L1040.22 1065.48C1040.66 1064.72 1041.56 1063.19 1042.01 1062.43L1042.38 1060.48C1043.01 1059.08 1044.25 1056.29 1044.88 1054.9L1045.75 1052.92C1046.18 1052 1047.02 1050.18 1047.44 1049.26L1048.31 1047.39C1048.76 1046.5 1049.63 1044.71 1050.08 1043.81L1050.98 1041.97C1051.42 1041.1 1052.35 1039.34 1052.8 1038.44L1053.77 1036.62C1054.25 1035.76 1055.2 1034.04 1055.67 1033.18L1056.65 1031.41C1057.15 1030.62 1058.1 1028.99 1058.57 1028.2 1059.1 1027.49 1060.15 1026.04 1060.68 1025.33L1061.39 1023.64C1061.9 1022.88 1062.9 1021.35 1063.4 1020.59 1063.95 1019.91 1065.03 1018.48 1065.56 1017.8L1066.35 1016.09C1066.88 1015.32 1067.91 1013.82 1068.44 1013.06 1069.02 1012.35 1070.15 1010.93 1070.7 1010.24L1071.52 1008.5C1072.1 1007.71 1073.21 1006.16 1073.76 1005.37 1074.32 1004.56 1075.45 1002.95 1076.03 1002.16L1077.19 1000.47C1077.77 999.684 1078.91 998.104 1079.49 997.314 1080.04 996.551 1081.12 995.024 1081.67 994.26 1082.26 993.576 1083.42 992.206 1084 991.495L1084.84 989.81C1085.39 989.021 1086.5 987.494 1087.05 986.73 1087.64 985.94 1088.74 984.334 1089.32 983.544L1090.48 981.885C1091.04 981.095 1092.17 979.542 1092.73 978.752 1093.25 977.988 1094.33 976.488 1094.86 975.75 1095.42 975.039 1096.52 973.67 1097.08 972.96L1097.87 971.301C1098.37 970.537 1099.37 969.036 1099.87 968.273 1100.4 967.562 1101.43 966.14 1101.96 965.429L1102.69 963.665C1103.2 962.849 1104.14 961.164 1104.62 960.321L1105.62 958.531C1106.1 957.662 1107.05 955.898 1107.52 955.003L1108.44 953.16C1108.89 952.291 1109.79 950.527 1110.24 949.658L1111.11 947.815C1111.53 946.946 1112.35 945.208 1112.77 944.339L1113.56 942.549C1114.03 941.785 1114.96 940.232 1115.41 939.468L1115.8 937.494C1116.41 936.072 1117.62 933.228 1118.23 931.833L1118.97 929.674C1119.49 928.173 1120.55 925.145 1121.1 923.644L1121.71 921.433C1122.16 919.879 1123.11 916.825 1123.56 915.272 1123.5 910.453 1124.11 905.661 1125.03 900.975 1125.09 897.025 1125.19 889.153 1125.24 885.229 1124.43 878.331 1123.87 871.433 1123.63 864.534L1123.58 861.98C1123.66 857.372 1123.87 848.131 1123.98 843.523L1124.19 841.048C1124.45 839.837 1124.95 837.441 1125.22 836.23 1125.74 835.335 1126.83 833.518 1127.35 832.596 1127.41 831.438 1127.46 829.147 1127.49 827.989L1129.81 825.777 1130.6 824.197C1131.1 823.486 1132.15 822.091 1132.68 821.38 1133.26 820.722 1134.45 819.432 1135.03 818.773 1135.69 818.168 1136.98 816.93 1137.61 816.325 1138.32 815.719 1139.75 814.561 1140.46 813.955L1142.04 812.797C1142.78 812.27 1144.31 811.191 1145.08 810.638 1145.87 810.137 1147.42 809.084 1148.19 808.584L1149.85 807.583C1150.64 807.109 1152.25 806.161 1153.07 805.687L1154.86 805.214C1155.63 804.74 1157.18 803.792 1157.95 803.318L1159.85 802.581C1160.82 802.212 1162.8 801.501 1163.77 801.159Z" stroke="#000000" stroke-width="0.24685" stroke-miterlimit="8" fill-rule="evenodd"/></g></svg>