<svg width="1110" height="846" xmlns="http://www.w3.org/2000/svg" xmlns:xlink="http://www.w3.org/1999/xlink" xml:space="preserve" overflow="hidden"><defs><clipPath id="clip0"><rect x="1501" y="34" width="1110" height="846"/></clipPath></defs><g clip-path="url(#clip0)" transform="translate(-1501 -34)"><path d="M2320.09 36.2766C2325.2 34.9676 2330.53 34.5309 2335.86 34.4999 2341.03 34.6868 2346.26 34.7803 2351.5 34.5933L2354.46 34.6558C2356.73 34.9362 2361.22 35.4974 2363.49 35.7778 2366.76 38.0222 2370.38 38.8328 2374.37 38.2406L2377.11 38.1471 2379.85 38.8014C2381.63 39.5185 2385.21 40.9523 2387.02 41.638L2389.6 41.7005 2392 42.5735C2392.97 43.1033 2394.93 44.1632 2395.9 44.693L2398.11 45.1604C2398.98 45.7215 2400.76 46.8439 2401.66 47.4048L2403.72 48.1219C2404.56 48.7451 2406.21 49.992 2407.05 50.6157L2409.04 51.5197C2409.88 52.2054 2411.57 53.5144 2412.41 54.2004 2413.22 54.8861 2414.81 56.32 2415.62 57.0371 2416.36 57.7848 2417.89 59.2811 2418.64 60.0292 2419.36 60.8398 2420.79 62.4606 2421.51 63.2712 2422.19 64.1442 2423.53 65.8895 2424.18 66.7625L2425.46 68.664C2426.05 69.5991 2427.21 71.4693 2427.77 72.4043L2428.64 74.3683C2429.33 75.054 2430.7 76.3944 2431.38 77.0491 2431.97 79.0127 2433.1 82.9717 2433.69 84.9353 2434.22 86.3382 2435.25 89.1124 2435.77 90.4841 2436.49 92.3232 2437.89 95.9701 2438.58 97.7782L2438.95 100.241C2439.54 101.176 2440.73 103.046 2441.32 103.981L2442.41 106.257C2443.47 107.722 2445.53 110.652 2446.59 112.117 2447.43 112.896 2449.08 114.455 2449.92 115.203L2451.7 116.668C2452.44 117.354 2453.97 118.725 2454.72 119.411L2456.59 120.377C2457.4 121.032 2458.99 122.279 2459.76 122.934 2460.54 123.588 2462.1 124.866 2462.88 125.521 2463.66 126.175 2465.22 127.516 2466 128.17 2466.84 128.856 2468.49 130.196 2469.33 130.882 2470.23 131.568 2472.04 132.971 2472.98 133.657 2474.53 134.685 2477.62 136.743 2479.18 137.771L2481.32 139.112C2482.29 139.735 2484.16 140.982 2485.13 141.636 2485.87 142.291 2487.4 143.663 2488.18 144.317L2489.96 145.315C2490.64 146 2492.04 147.403 2492.76 148.089L2493.76 149.741C2494.35 150.458 2495.53 151.892 2496.16 152.609 2496.65 153.451 2497.71 155.165 2498.21 156.006L2499.24 158.001C2498.83 161.306 2499.46 164.423 2501.14 167.322 2501.3 168.6 2501.67 171.125 2501.86 172.372L2499.96 171.686C2498.96 171.499 2497 171.156 2496 170.969L2493.79 170.751C2490.92 168.787 2487.81 168.008 2484.41 168.382L2481.89 167.665C2480.14 167.104 2476.65 166.013 2474.88 165.482L2472.54 164.735C2471.57 164.267 2469.67 163.301 2468.71 162.833L2466.43 162.615 2464.22 161.836C2463.13 161.43 2460.98 160.682 2459.92 160.308L2457.58 159.591C2456.56 159.061 2454.5 158.033 2453.44 157.503 2452.07 157.503 2449.27 157.534 2447.89 157.534 2443.81 157.752 2439.76 157.721 2435.74 157.503L2432.97 157.191C2431.29 157.783 2427.95 158.999 2426.27 159.622L2424.43 161.056C2423.78 161.805 2422.47 163.363 2421.82 164.111 2421.66 165.015 2421.35 166.854 2421.16 167.758L2421.35 169.659C2421.6 170.533 2422.13 172.247 2422.38 173.12 2422.84 173.868 2423.81 175.395 2424.31 176.174 2424.87 176.891 2426.02 178.325 2426.58 179.042 2427.24 179.759 2428.48 181.193 2429.11 181.91 2429.79 182.627 2431.13 184.092 2431.82 184.809 2432.5 185.588 2433.91 187.085 2434.62 187.864 2435.31 188.674 2436.74 190.264 2437.46 191.075 2438.17 191.916 2439.64 193.631 2440.35 194.504L2441.85 196.343C2442.57 197.246 2443.97 198.992 2444.69 199.896 2445.4 200.738 2446.77 202.483 2447.49 203.325 2448.17 204.198 2449.55 205.912 2450.23 206.785 2450.92 207.689 2452.29 209.466 2452.97 210.37L2454.34 212.271C2455 213.175 2456.31 214.983 2456.96 215.918 2457.58 216.791 2458.83 218.568 2459.45 219.441L2460.36 221.436C2460.98 222.246 2462.23 223.867 2462.85 224.709 2463.41 225.613 2464.56 227.452 2465.16 228.356L2466.31 230.32C2466.87 231.255 2467.99 233.156 2468.55 234.122L2469.7 236.086C2470.23 237.021 2471.29 238.892 2471.82 239.827 2472.35 240.793 2473.35 242.695 2473.88 243.661L2474.84 245.749C2475.28 246.84 2476.15 249.023 2476.59 250.145 2477.09 252.109 2478.08 256.067 2478.61 258.062 2478.52 262.738 2479.33 267.382 2481.17 271.715L2481.76 274.396C2481.14 278.23 2481.92 281.753 2484.13 284.963 2484.44 286.397 2485.03 289.265 2485.31 290.668L2485.81 293.566C2485.66 305.1 2485.81 316.633 2485.56 328.167 2485.44 332.25 2484.88 336.272 2483.88 340.23 2482.04 344.532 2481.51 349.208 2482.04 353.821 2481.82 355.879 2481.36 359.962 2481.11 362.019 2478.74 364.949 2478.05 368.285 2478.99 371.963L2479.24 374.55C2478.99 375.86 2478.46 378.509 2478.21 379.818 2475.97 382.935 2475.22 386.364 2475.9 390.136 2475.65 391.508 2475.16 394.25 2474.91 395.591 2473.04 399.924 2472.32 404.568 2472.69 409.244 2472.41 411.395 2471.82 415.634 2471.54 417.785 2469.83 422.149 2469.17 426.825 2469.49 431.501L2468.74 436.987 2466.37 443.845 2466.71 446.432 2466.18 448.988C2465.53 450.64 2464.16 453.975 2463.47 455.628L2463.63 458.214 2462.91 460.771C2462.29 462.516 2461.1 466.07 2460.51 467.847L2459.73 470.403C2459.11 472.179 2457.9 475.702 2457.27 477.479L2456.49 480.035C2455.87 481.78 2454.62 485.303 2454 487.048L2453.1 489.573C2452.44 491.319 2451.1 494.841 2450.45 496.587 2449.67 498.332 2448.08 501.855 2447.3 503.6L2446.09 506.125C2445.56 508.027 2444.44 511.767 2443.91 513.637 2443.25 514.324 2441.98 515.664 2441.32 516.35L2440.54 518.282C2440.01 519.155 2438.92 520.901 2438.39 521.773L2437.68 523.862C2437.11 524.828 2435.96 526.792 2435.4 527.758L2434.19 529.816C2433.59 530.751 2432.38 532.683 2431.76 533.65 2431.1 534.491 2429.79 536.175 2429.11 537.016L2428.17 539.042C2427.55 539.946 2426.24 541.723 2425.59 542.596 2424.93 543.469 2423.66 545.214 2423 546.056 2422.28 546.867 2420.91 548.456 2420.2 549.235L2419.14 551.199C2418.45 552.041 2417.08 553.787 2416.36 554.628 2415.68 555.501 2414.28 557.184 2413.56 558.057 2412.84 558.899 2411.41 560.644 2410.69 561.486 2409.98 562.39 2408.51 564.167 2407.8 565.07L2406.27 566.972C2405.52 567.845 2404.06 569.59 2403.31 570.463 2402.56 571.305 2401.1 572.957 2400.35 573.799 2399.6 574.609 2398.11 576.199 2397.36 577.009 2396.61 577.789 2395.12 579.379 2394.37 580.158 2393.62 580.937 2392.09 582.496 2391.35 583.275 2390.57 584.023 2389.04 585.582 2388.26 586.361 2387.51 587.14 2385.96 588.699 2385.21 589.447 2384.43 590.226 2382.87 591.785 2382.12 592.564 2381.35 593.374 2379.82 594.933 2379.04 595.712 2378.26 596.523 2376.73 598.113 2375.99 598.892 2375.24 599.702 2373.71 601.323 2372.96 602.134 2372.22 602.944 2370.75 604.565 2370 605.375 2369.29 606.217 2367.85 607.869 2367.11 608.711 2366.39 609.49 2364.9 611.018 2364.15 611.797L2362.99 613.761C2362.25 614.602 2360.81 616.348 2360.1 617.19 2359.38 618.062 2357.92 619.777 2357.2 620.649 2356.48 621.522 2355.08 623.237 2354.36 624.11 2353.68 624.982 2352.31 626.697 2351.62 627.57 2350.91 628.38 2349.5 630.032 2348.82 630.843L2347.76 632.838C2347.14 633.742 2345.86 635.549 2345.24 636.453 2344.58 637.295 2343.27 638.978 2342.62 639.82L2341.68 641.815C2341.09 642.719 2339.94 644.558 2339.35 645.462 2338.76 646.304 2337.57 648.018 2336.95 648.86L2336.14 650.886C2335.55 651.759 2334.39 653.535 2333.8 654.408L2333.05 656.59C2332.56 657.65 2331.53 659.832 2331 660.892L2329.97 663.355C2329.35 665.225 2328.13 669.028 2327.51 670.898 2327.26 672.301 2326.82 675.044 2326.57 676.446 2322.12 678.535 2321.96 680.873 2326.07 683.398 2326.04 685.424 2325.92 689.414 2325.86 691.409 2323.02 694.744 2324.24 699.607 2328.07 701.54 2328.63 702.35 2329.81 704.033 2330.41 704.844 2331.06 705.623 2332.4 707.151 2333.09 707.93L2334.55 709.551C2335.27 710.392 2336.76 712.076 2337.48 712.917 2338.54 714.351 2340.66 717.281 2341.72 718.715L2343.09 720.804C2343.71 721.708 2345.02 723.578 2345.64 724.513L2348.13 728.004 2349.13 729.843C2349.75 730.623 2351.03 732.15 2351.69 732.898L2354.18 736.14C2354.8 736.951 2356.08 738.603 2356.7 739.444 2357.39 740.317 2358.7 742.031 2359.35 742.904 2360 743.871 2361.37 745.741 2362.06 746.676 2362.78 747.736 2364.18 749.824 2364.9 750.884 2365.58 751.819 2366.95 753.721 2367.64 754.687 2368.32 755.56 2369.69 757.274 2370.41 758.147 2371.1 758.958 2372.5 760.579 2373.18 761.389 2373.9 762.168 2375.3 763.727 2376.02 764.537 2376.73 765.317 2378.14 766.844 2378.85 767.623 2379.57 768.403 2381 769.961 2381.72 770.772 2382.44 771.551 2383.9 773.172 2384.62 773.951 2385.36 774.793 2386.86 776.445 2387.58 777.286L2389.13 779.032C2389.91 779.874 2391.44 781.526 2392.22 782.336 2393.03 783.116 2394.62 784.643 2395.43 785.391 2396.3 786.108 2398.01 787.542 2398.89 788.228L2400.76 789.661C2401.63 790.316 2403.4 791.625 2404.31 792.28L2407.55 794.898 2409.54 795.833C2410.45 796.457 2412.28 797.673 2413.19 798.296 2414.15 798.888 2416.05 800.135 2417.02 800.759L2419.04 802.005C2420.07 802.629 2422.07 803.876 2423.06 804.499L2425.12 805.746C2426.09 806.37 2427.99 807.585 2428.95 808.178 2429.89 808.77 2431.79 809.954 2432.72 810.546L2434.65 811.7C2435.56 812.292 2437.36 813.414 2438.24 813.975 2439.05 814.568 2440.67 815.721 2441.51 816.313L2443.44 817.124C2444.37 817.654 2446.21 818.745 2447.15 819.275L2449.14 820.397C2450.14 820.958 2452.16 822.049 2453.16 822.579 2456.06 825.01 2459.39 825.945 2463.16 825.415 2465.31 825.509 2469.61 825.634 2471.76 825.696 2473.57 825.259 2477.21 824.355 2479.05 823.888L2481.42 823.077C2482.51 822.641 2484.66 821.799 2485.75 821.394L2488.05 820.522C2489.74 819.96 2493.1 818.869 2494.78 818.308 2496.03 817.965 2498.55 817.311 2499.8 816.999 2501.58 816.718 2505.1 816.126 2506.87 815.846 2508.87 815.752 2512.85 815.596 2514.85 815.534L2515.72 822.891C2514.47 823.826 2511.95 825.696 2510.67 826.631 2506.34 828.564 2506.37 830.496 2510.74 832.46 2513.2 835.484 2516.38 836.606 2520.21 835.795 2529.46 835.328 2539.06 835.577 2548.43 835.484L2551.36 835.453C2556.38 835.359 2566.47 835.141 2571.49 835.016 2572.61 834.704 2574.85 834.019 2576.01 833.676 2577.22 833.364 2579.65 832.772 2580.87 832.491 2582.05 832.211 2584.39 831.681 2585.57 831.4 2590.09 830.434 2594.89 830.341 2599.41 831.587 2601.18 831.993 2604.73 832.834 2606.48 833.24 2606.91 833.8 2607.76 834.923 2608.19 835.484L2609.5 836.294 2608.32 837.448C2607.72 838.009 2606.51 839.162 2605.92 839.723 2604.52 840.159 2601.74 841.001 2600.34 841.406 2597.26 838.85 2592.86 840.378 2591.71 844.087 2590.99 844.679 2589.56 845.895 2588.84 846.518L2587.41 847.672C2586.6 848.139 2585.04 849.043 2584.26 849.511 2583.42 850.103 2581.8 851.288 2580.96 851.88 2575.7 853.906 2569.99 854.529 2564.45 854.716 2558.65 854.405 2552.86 854.592 2547.22 855.901 2539.15 858.395 2527.84 855.402 2522.7 863.351L2521.36 865.065 2520.11 866.718 2521.02 868.027C2521.27 868.775 2521.77 870.24 2522.05 870.957 2521.98 871.799 2521.86 873.451 2521.8 874.261 2521.36 875.009 2520.49 876.443 2520.05 877.191L2518.34 877.939 2516.41 878.5C2513.95 875.196 2509.08 875.04 2506.53 878.282L2504.04 877.908C2500.92 876.163 2497.59 875.57 2494.07 876.194L2491.58 875.757C2490.52 875.321 2488.37 874.386 2487.31 873.918 2483.75 873.451 2480.2 873.139 2476.68 872.983L2474 872.422C2472.17 871.923 2468.52 870.864 2466.71 870.365L2464.16 869.679C2462.48 869.055 2459.08 867.871 2457.4 867.247 2456.31 866.78 2454.09 865.845 2452.97 865.346 2452.13 864.692 2450.39 863.351 2449.51 862.697 2448.36 859.33 2446.09 857.304 2442.72 856.587 2439.51 855.558 2436.4 854.312 2433.41 852.815L2431.91 850.976 2429.26 851.662 2426.4 851.724C2417.24 851.412 2408.39 851.07 2399.38 850.664L2396.64 850.477 2394.21 849.76 2391.91 848.919 2391.04 851.07 2389.91 853.189 2387.55 854.187C2380.04 854.218 2372.59 854.312 2365.21 854.436L2362.93 853.283C2361.84 852.846 2359.69 851.942 2358.63 851.475 2357.54 850.945 2355.36 849.916 2354.27 849.417 2352.59 845.739 2347.92 845.24 2345.36 848.233 2344.58 848.202 2342.99 848.139 2342.21 848.139L2340.78 847.89C2340.34 847.36 2339.5 846.331 2339.1 845.802L2339.16 844.43C2339.44 843.776 2340.03 842.497 2340.34 841.874L2341 840.409 2344.11 838.414 2346.2 837.572C2348.2 837.261 2352.15 836.606 2354.12 836.263 2356.39 836.076 2360.91 835.702 2363.18 835.515L2366.17 835.422 2387.48 834.424 2390.29 834.362 2391.1 832.616 2392.31 831.058 2393.59 829.592 2393.25 827.878 2392.94 826.163C2392.66 825.384 2392.13 823.826 2391.84 823.046 2391.44 822.36 2390.57 820.927 2390.16 820.241 2389.54 819.649 2388.29 818.464 2387.7 817.872L2386.08 816.874C2385.21 816.345 2383.5 815.285 2382.65 814.723 2381.63 814.194 2379.6 813.134 2378.6 812.573 2377.39 811.949 2374.99 810.734 2373.77 810.11 2371.87 809.455 2368.04 808.146 2366.14 807.492 2365.39 806.837 2363.93 805.497 2363.21 804.811L2361.09 804.063 2356.98 802.068 2354.77 801.008C2353.71 800.478 2351.56 799.387 2350.5 798.857L2348.26 797.797 2344.02 795.678 2341.87 794.649C2340.97 794.088 2339.13 792.966 2338.19 792.405L2336.11 791.812C2335.23 791.22 2333.52 790.098 2332.65 789.506L2330.56 788.789C2329.63 788.197 2327.73 787.074 2326.76 786.513L2324.77 785.297C2323.83 784.674 2321.93 783.427 2321 782.804 2320.03 782.149 2318.13 780.809 2317.2 780.154 2315.73 779.001 2312.77 776.757 2311.31 775.634L2309.41 773.951 2308.19 771.894C2307.41 771.146 2305.89 769.68 2305.14 768.932L2304.33 766.938C2303.71 766.096 2302.49 764.444 2301.87 763.633L2300.75 761.732C2300.18 760.828 2299.06 758.989 2298.53 758.053L2297.32 756.214C2296.73 755.373 2295.57 753.69 2294.98 752.817 2294.33 752.069 2292.99 750.51 2292.33 749.731 2291.55 749.014 2290.03 747.518 2289.25 746.801 2287.78 745.866 2284.86 744.027 2283.39 743.091 2279.53 739.694 2274.36 738.759 2269.5 740.13L2267.19 739.787C2266.13 739.569 2263.98 739.132 2262.92 738.914 2261.89 738.54 2259.87 737.823 2258.84 737.449 2257.59 737.543 2255.07 737.73 2253.79 737.823 2252.52 737.886 2249.9 738.042 2248.59 738.135L2246.13 738.01C2245.1 738.384 2243.08 739.132 2242.05 739.507L2239.65 739.538C2238 740.255 2234.76 741.657 2233.14 742.343 2231.95 742.655 2229.58 743.31 2228.4 743.621L2225.78 744.214C2224.35 744.494 2221.48 745.024 2220.05 745.273 2219.62 744.993 2218.77 744.432 2218.34 744.151L2218.24 745.46 2214.88 745.242C2212.48 745.211 2207.68 745.149 2205.25 745.118 2203.79 744.993 2200.83 744.743 2199.33 744.619 2198.27 744.027 2196.16 742.904 2195.06 742.312 2193.72 742.343 2191.01 742.405 2189.67 742.437L2187 741.751C2185.16 741.19 2181.45 740.068 2179.61 739.507 2178.33 739.101 2175.78 738.353 2174.5 737.979 2173.38 737.574 2171.14 736.795 2169.98 736.421L2167.65 735.641C2166.49 735.298 2164.19 734.582 2163.07 734.239 2159.45 733.678 2155.93 732.805 2152.54 731.62 2151.35 731.277 2148.95 730.591 2147.77 730.249 2146.52 729.874 2144.03 729.158 2142.78 728.783 2141.63 728.41 2139.3 727.599 2138.14 727.225 2136.37 726.57 2132.75 725.261 2130.98 724.638 2129.95 724.17 2127.92 723.235 2126.9 722.767 2125.93 722.331 2124.03 721.427 2123.06 720.96 2122.16 720.398 2120.35 719.245 2119.45 718.653 2118.27 718.403 2115.9 717.905 2114.68 717.655L2112.35 716.907C2111.38 716.408 2109.42 715.411 2108.42 714.912L2105.99 714.694 2103.53 713.852C2101.75 713.198 2098.17 711.951 2096.36 711.328L2093.68 711.047C2089.1 711.452 2079.97 712.263 2075.43 712.668L2073.15 713.51C2072.25 714.008 2070.38 715.037 2069.44 715.567 2068.7 716.19 2067.2 717.437 2066.45 718.092 2065.74 718.715 2064.33 719.993 2063.62 720.648L2062.15 721.832C2061.56 722.549 2060.35 723.921 2059.72 724.606 2059.13 725.355 2057.95 726.789 2057.36 727.505L2056.39 729.282C2055.83 730.155 2054.68 731.838 2054.12 732.711L2053.4 734.955 2052.4 737.262C2051.69 739.07 2050.28 742.655 2049.6 744.432L2048.79 747.113C2048.2 748.983 2047.04 752.754 2046.45 754.625 2046.14 756.027 2045.52 758.771 2045.2 760.173 2044.71 762.044 2043.77 765.815 2043.27 767.686 2042.87 769.743 2042.03 773.889 2041.62 775.946 2041.06 777.723 2039.91 781.245 2039.32 783.022 2038.85 784.83 2037.95 788.415 2037.48 790.223 2038.07 795.085 2039.25 804.78 2039.85 809.643 2040.22 810.671 2041.03 812.728 2041.43 813.757L2041.78 815.908 2044.05 816.282 2046.36 816.687 2048.79 817.248C2053.8 818.776 2059.04 819.586 2064.3 819.805L2066.8 820.179 2068.23 817.965C2069.63 817.747 2072.43 817.373 2073.81 817.186 2075.89 817.155 2080.07 817.092 2082.16 817.03L2086.64 815.035C2088.76 814.848 2093.03 814.474 2095.15 814.287 2097.2 814.568 2101.29 815.098 2103.31 815.347L2105.65 816.376C2106.71 816.5 2108.89 816.718 2109.95 816.843L2109.82 821.706C2108.79 822.329 2106.74 823.607 2105.74 824.231 2101.85 826.756 2102.16 828.564 2106.64 829.624L2109.76 832.117C2110.91 832.304 2113.22 832.678 2114.37 832.865 2116.02 832.304 2119.32 831.213 2120.98 830.683L2123.53 831.12C2125.43 831.369 2129.23 831.899 2131.16 832.149 2132.57 832.273 2135.43 832.522 2136.87 832.616 2138.89 832.928 2143 833.52 2145.06 833.8L2147.49 834.517C2148.55 834.954 2150.64 835.827 2151.66 836.263L2153.63 837.323C2154.44 837.946 2156.09 839.224 2156.9 839.848 2157.61 840.596 2159.08 842.123 2159.8 842.871 2160.57 843.401 2162.1 844.524 2162.85 845.084 2162.91 847.048 2163 851.039 2163.04 853.002L2160.67 852.878 2158.27 852.69C2156.49 852.503 2152.94 852.13 2151.17 851.911 2147.3 852.192 2143.44 852.192 2139.61 851.88 2135.49 851.35 2131.41 851.257 2127.33 851.631 2118.55 851.786 2109.82 851.911 2101.13 851.974L2098.11 851.974C2087.2 851.724 2076.45 851.599 2065.61 852.13L2062.93 851.755 2061.69 853.875C2058.6 858.862 2055.49 863.85 2051.65 868.307L2050.16 872.048C2048.97 871.861 2046.58 871.487 2045.36 871.268L2043.05 870.801C2042.06 870.396 2040.06 869.554 2039.07 869.149 2038.1 868.619 2036.2 867.559 2035.27 867.06L2033.21 865.845C2031.75 864.91 2028.82 863.008 2027.38 862.073 2026.51 861.387 2024.83 860.047 2023.99 859.361 2023.24 858.706 2021.71 857.335 2020.93 856.68 2020.25 855.963 2018.82 854.592 2018.1 853.906 2017.44 853.158 2016.1 851.724 2015.45 851.007L2012.96 847.89C2012.37 847.048 2011.21 845.334 2010.65 844.492L2010.09 842.435C2009.53 841.5 2008.47 839.63 2007.94 838.694 2007.51 837.541 2006.7 835.235 2006.29 834.081 2008.81 830.621 2008.04 828.314 2004.02 827.13 2003.64 826.101 2002.86 824.106 2002.49 823.077L2001.96 820.989C2001.43 820.116 2000.34 818.339 1999.78 817.467 1998.97 815.939 1997.38 812.947 1996.57 811.419L1995.23 809.549C1994.55 808.739 1993.21 807.118 1992.52 806.307 1991.71 805.684 1990.06 804.468 1989.22 803.845L1987.38 802.66C1985.26 798.701 1980.09 797.548 1976.94 801.07 1966.69 801.351 1956.32 802.161 1946.38 799.481 1945.51 798.919 1943.76 797.766 1942.89 797.174L1940.83 796.738 1939.15 795.647C1938.31 795.522 1936.6 795.304 1935.75 795.179 1935.75 790.908 1933.85 790.067 1930.11 792.685L1927.93 792.529 1925.88 792.124C1925.01 792.28 1923.23 792.592 1922.33 792.747L1920.67 793.776C1920.58 792.623 1920.36 790.379 1920.27 789.257L1919.86 787.106C1920.64 786.42 1922.23 785.048 1923.01 784.362L1924.85 783.053C1926.5 782.523 1929.77 781.463 1931.39 780.934 1937.03 779.812 1942.89 779.812 1948.53 780.902 1952.92 782.742 1957.66 783.708 1962.42 783.583 1963.86 783.708 1966.72 783.989 1968.16 784.113 1973.14 784.269 1983.08 784.581 1988.03 784.768 1989.93 784.362 1993.77 783.614 1995.67 783.209L1999.41 781.339C2000.09 780.622 2001.43 779.157 2002.08 778.44L2003.33 776.912C2003.89 776.164 2005.08 774.668 2005.64 773.951 2006.2 773.172 2007.32 771.644 2007.88 770.865 2008.41 769.961 2009.44 768.185 2009.97 767.281L2011.06 765.192C2013.46 762.386 2014.58 759.144 2014.39 755.435 2014.7 754.064 2015.26 751.29 2015.54 749.918 2017.69 746.645 2018.44 743.091 2017.79 739.257L2018.91 733.771C2021.25 730.56 2021.9 727.1 2020.81 723.297 2019.94 717.687 2019.28 712.013 2018.75 706.371L2018.57 703.722 2016.39 703.098C2013.46 702.07 2010.65 700.823 2007.97 699.326 2007.23 698.703 2005.67 697.456 2004.89 696.833L2005.33 699.42C2003.95 699.357 2001.24 699.264 1999.87 699.202 1998 699.607 1994.3 700.448 1992.43 700.885 1991.06 701.166 1988.31 701.695 1986.94 701.945 1983.11 701.29 1979.65 702.039 1976.47 704.221 1975.14 704.47 1972.46 705 1971.12 705.249L1968.5 705.031C1964.76 704.189 1961.43 704.937 1958.47 707.307 1957.1 707.525 1954.42 707.961 1953.05 708.179 1949.24 707.369 1945.75 708.023 1942.51 710.143 1940.4 710.424 1936.16 710.984 1934.04 711.265 1929.37 710.891 1924.69 711.546 1920.36 713.322 1918.31 713.634 1914.23 714.226 1912.2 714.507L1909.55 714.414C1905.13 713.728 1900.67 714.382 1896.56 716.065 1890.73 717.281 1884.75 717.967 1878.8 718.06 1857.68 717.905 1836.58 716.876 1815.49 717.687L1812.44 717.749C1801.63 717.842 1791 718.497 1780.25 718.185 1778.45 718.84 1774.86 720.18 1773.06 720.866L1770.75 721.895C1769.76 722.424 1767.7 723.453 1766.7 723.983L1764.68 725.043C1763.74 725.542 1761.87 726.57 1760.94 727.1L1758.98 727.817C1758.13 728.41 1756.45 729.532 1755.64 730.124 1754.68 730.654 1752.78 731.776 1751.84 732.306L1749.75 733.459C1748.76 734.02 1746.7 735.174 1745.67 735.735L1743.52 736.888C1742.53 737.449 1740.5 738.571 1739.47 739.132L1737.32 739.912C1736.45 740.504 1734.64 741.657 1733.77 742.25L1731.68 742.967C1730.81 743.559 1729.03 744.681 1728.13 745.242L1726.07 745.959C1725.17 746.551 1723.4 747.705 1722.52 748.297 1721.49 748.827 1719.5 749.949 1718.47 750.51L1716.29 751.695C1715.23 752.256 1713.05 753.44 1711.99 754.032L1709.72 755.248C1708.63 755.809 1706.48 756.994 1705.39 757.586L1703.14 758.771C1702.12 759.363 1700.06 760.485 1699 761.077L1696.85 761.825C1695.95 762.449 1694.17 763.633 1693.27 764.226L1691.21 765.005C1690.34 765.597 1688.59 766.782 1687.69 767.374 1686.76 767.935 1684.82 769.088 1683.86 769.649L1681.8 770.834C1680.84 771.426 1678.87 772.549 1677.91 773.141L1675.82 773.92C1674.98 774.512 1673.27 775.728 1672.39 776.32 1671.46 776.85 1669.56 777.91 1668.59 778.44L1666.57 779.469C1665.6 779.967 1663.61 780.934 1662.64 781.401L1660.46 781.775C1659.49 782.243 1657.56 783.178 1656.63 783.645L1654.35 784.3C1650.49 782.586 1645.94 784.02 1643.85 787.698 1642.89 788.228 1640.96 789.257 1639.96 789.786 1639.03 790.379 1637.16 791.532 1636.22 792.124L1634.29 793.371C1633.39 793.963 1631.55 795.21 1630.64 795.802 1629.74 796.426 1627.96 797.673 1627.09 798.296L1625.13 799.294C1624.32 799.948 1622.7 801.257 1621.89 801.881L1618.4 804.374 1616.47 805.341 1613.23 807.959C1612.39 808.551 1610.67 809.798 1609.8 810.422 1608.93 811.014 1607.18 812.23 1606.31 812.853L1604.32 813.663 1600.95 816.157C1599.96 816.687 1597.96 817.747 1596.93 818.246L1594.66 819.306C1593.48 819.742 1591.08 820.646 1589.86 821.114L1587.09 821.831C1584.84 822.329 1580.39 823.358 1578.18 823.857 1577.46 823.576 1576 823.015 1575.28 822.704 1574.66 823.171 1573.41 824.075 1572.79 824.543 1571.67 824.574 1569.36 824.605 1568.24 824.636 1567.05 824.885 1564.66 825.384 1563.47 825.602 1562.76 825.977 1561.29 826.725 1560.57 827.099L1557.86 827.067 1555.28 826.974C1554.19 827.379 1552.01 828.221 1550.95 828.626 1549.64 828.969 1547.05 829.655 1545.74 829.998 1543.97 830.372 1540.45 831.182 1538.67 831.556 1537.58 831.618 1535.46 831.681 1534.4 831.712L1532.38 831.431C1531.54 831.089 1529.79 830.434 1528.92 830.091 1528.2 829.592 1526.77 828.564 1526.02 828.065 1525.4 827.441 1524.09 826.163 1523.44 825.509 1522.81 824.73 1521.6 823.171 1520.98 822.392 1520.1 819.337 1518.48 816.781 1516.08 814.723 1515.49 813.851 1514.31 812.105 1513.72 811.232 1513.16 810.359 1512.03 808.645 1511.47 807.772 1510.91 806.837 1509.85 804.936 1509.29 803.969 1508.79 802.847 1507.77 800.541 1507.24 799.418 1506.61 797.673 1505.3 794.182 1504.65 792.436L1503.96 789.942C1503.68 788.726 1503.12 786.357 1502.87 785.173 1502.78 783.833 1502.59 781.152 1502.5 779.843 1503.84 774.73 1504.87 769.587 1505.68 764.381 1506.11 763.384 1507.02 761.42 1507.48 760.423 1508.05 759.55 1509.2 757.836 1509.76 756.963L1510.38 754.75C1511.32 753.191 1513.12 750.043 1514.06 748.484L1515.4 746.396C1516.12 745.491 1517.49 743.684 1518.17 742.78 1518.89 741.969 1520.32 740.379 1521.04 739.569 1521.79 738.852 1523.28 737.356 1524.03 736.639L1525.8 735.454C1526.52 734.737 1527.95 733.335 1528.67 732.618 1529.45 731.963 1531.01 730.623 1531.79 729.937 1532.57 729.282 1534.15 727.942 1534.93 727.256 1535.74 726.602 1537.36 725.261 1538.17 724.606L1541.54 721.988C1542.41 721.333 1544.19 720.087 1545.09 719.432L1547.02 718.185C1547.99 717.624 1549.89 716.44 1550.82 715.879L1552.75 714.757 1554.78 713.977C1555.56 713.385 1557.15 712.231 1557.93 711.671 1558.71 711.016 1560.23 709.675 1561.01 709.021L1562.63 707.525C1566.99 707.244 1567.62 705.498 1564.5 702.257L1563.07 700.667 1561.98 698.859C1561.38 698.08 1560.23 696.459 1559.67 695.679L1558.3 694.152C1557.46 693.529 1555.84 692.313 1555.03 691.69 1553.5 690.785 1550.42 688.977 1548.89 688.074 1547.33 687.419 1544.25 686.11 1542.72 685.455 1542.57 684.613 1542.25 682.961 1542.13 682.12L1541.35 680.499 1542.97 679.408C1543.5 678.628 1544.53 677.07 1545.06 676.291 1546.87 672.831 1549.2 669.62 1552.16 667.033L1554.13 666.098C1554.59 665.412 1555.56 664.009 1556.06 663.323L1556.12 661.36C1557.05 661.017 1558.86 660.331 1559.76 659.988L1561.35 658.242 1563.41 656.84C1566.93 656.31 1569.98 654.845 1572.57 652.413L1574.91 651.478C1575.97 651.01 1578.12 650.138 1579.21 649.702L1581.42 648.86 1585.78 647.364C1586.96 647.083 1589.36 646.522 1590.55 646.241 1593.48 649.639 1595.72 649.203 1597.31 644.963L1599.64 644.371C1600.77 643.966 1602.95 643.155 1604.04 642.75 1605.69 641.971 1608.99 640.474 1610.64 639.695L1612.89 638.604C1613.94 638.075 1616 637.015 1617.03 636.485L1619.24 635.892C1620.18 635.269 1621.98 634.053 1622.89 633.461 1624.54 632.651 1627.81 630.998 1629.43 630.157L1631.83 629.533C1632.79 628.91 1634.69 627.694 1635.66 627.102L1637.84 626.011C1638.9 625.481 1640.96 624.421 1642.02 623.891L1644.2 623.174C1645.13 622.613 1646.97 621.46 1647.87 620.899L1650.02 620.213C1650.93 619.652 1652.76 618.561 1653.67 618L1655.82 617.345C1656.75 616.784 1658.59 615.662 1659.53 615.101L1661.74 614.477C1662.67 613.885 1664.6 612.701 1665.54 612.109L1667.78 610.987C1668.84 610.394 1670.99 609.241 1672.05 608.649L1674.26 607.433C1675.29 606.841 1677.32 605.625 1678.34 605.001 1679.31 604.409 1681.27 603.193 1682.24 602.57L1684.36 601.697C1685.2 601.043 1686.94 599.733 1687.82 599.079 1688.78 598.487 1690.74 597.24 1691.71 596.647L1693.77 595.369C1694.76 594.777 1696.73 593.53 1697.72 592.938L1699.84 592.065C1700.71 591.442 1702.46 590.164 1703.33 589.54 1704.3 588.979 1706.2 587.857 1707.13 587.265L1709.25 586.517C1710.12 585.893 1711.93 584.709 1712.83 584.085L1715.01 583.431C1715.95 582.838 1717.82 581.623 1718.78 581.03L1720.96 579.877C1722.02 579.316 1724.17 578.194 1725.23 577.633L1727.45 576.417C1728.44 575.856 1730.5 574.703 1731.5 574.11L1733.65 573.269C1734.49 572.614 1736.17 571.367 1737.04 570.744 1737.95 570.12 1739.75 568.936 1740.66 568.312 1741.59 567.689 1743.46 566.411 1744.39 565.788L1746.39 564.478C1747.32 563.855 1749.25 562.577 1750.22 561.922 1751.19 561.299 1753.12 560.021 1754.08 559.398L1756.14 558.088C1757.14 557.496 1759.1 556.249 1760.07 555.625L1762.22 554.784C1763.09 554.161 1764.83 552.883 1765.71 552.228 1766.7 551.636 1768.7 550.451 1769.66 549.89L1771.78 548.674C1772.81 548.082 1774.83 546.929 1775.86 546.368L1778.04 545.588C1778.95 544.996 1780.78 543.812 1781.69 543.219L1783.84 542.534C1784.77 541.972 1786.64 540.85 1787.55 540.289L1789.79 539.728C1790.75 539.167 1792.69 538.014 1793.65 537.453L1795.9 536.424C1796.99 535.894 1799.17 534.865 1800.26 534.336L1802.47 533.245 1804.74 532.496 1808.23 530.003 1810.16 528.943C1810.88 528.195 1812.31 526.73 1813.06 525.982 1813.75 525.109 1815.12 523.363 1815.8 522.49 1817.27 519.311 1818.48 516.007 1819.51 512.64L1820.48 510.302C1820.98 509.274 1821.97 507.216 1822.44 506.219 1823.09 505.408 1824.37 503.787 1825.03 502.977L1825.9 500.982C1826.68 500.171 1828.27 498.582 1829.04 497.771 1830.51 496.711 1833.44 494.592 1834.9 493.501L1837.02 492.16C1837.99 491.506 1839.92 490.228 1840.92 489.604L1844.65 487.111 1846.62 485.833C1847.55 485.24 1849.39 483.994 1850.29 483.401 1851.2 482.778 1853 481.562 1853.91 480.97L1855.93 480.066C1856.77 479.411 1858.46 478.133 1859.27 477.479 1860.23 476.886 1862.16 475.64 1863.1 475.047L1865.15 473.769C1866.15 473.146 1868.11 471.899 1869.11 471.276L1871.23 470.372 1874.72 467.753C1875.65 467.13 1877.49 465.914 1878.43 465.291L1880.48 464.355C1881.36 463.701 1883.04 462.391 1883.91 461.737 1884.81 461.114 1886.68 459.898 1887.59 459.274L1889.64 458.339 1893.01 455.721C1893.94 455.129 1895.78 453.913 1896.68 453.29L1898.74 452.417C1899.58 451.762 1901.3 450.453 1902.14 449.798 1903.1 449.175 1905 447.959 1905.97 447.336L1907.99 446.058 1911.86 443.564C1912.82 442.972 1914.75 441.725 1915.72 441.102L1917.75 439.855C1918.68 439.293 1920.61 438.109 1921.55 437.548L1923.63 436.769C1924.48 436.176 1926.19 434.992 1927.06 434.4 1928.03 433.87 1929.99 432.841 1930.96 432.311L1933.14 431.251 1937.5 429.132 1939.9 428.041C1943.45 427.511 1946.5 425.983 1949.06 423.427 1949.99 422.804 1951.83 421.526 1952.73 420.902 1953.58 420.279 1955.23 419.032 1956.07 418.408 1956.91 417.785 1958.56 416.569 1959.37 415.946 1960.27 415.323 1962.02 414.107 1962.89 413.483L1964.85 412.268C1965.85 411.676 1967.81 410.491 1968.78 409.867L1970.9 408.683C1971.96 408.122 1974.01 406.937 1975.04 406.376L1977.22 405.192C1978.25 404.599 1980.34 403.446 1981.37 402.885L1983.48 401.701C1984.48 401.108 1986.44 399.955 1987.44 399.363L1989.5 398.49C1990.31 397.867 1991.99 396.62 1992.83 395.965 1993.7 395.373 1995.48 394.157 1996.38 393.534 1997.29 392.91 1999.12 391.632 2000.03 390.977L2001.99 389.669C2002.93 389.014 2004.8 387.736 2005.73 387.081 2006.63 386.458 2008.44 385.149 2009.34 384.525L2011.37 383.559C2012.21 382.873 2013.86 381.533 2014.67 380.847 2015.58 380.192 2017.41 378.883 2018.35 378.228L2020.25 376.857C2021.15 376.171 2022.96 374.8 2023.83 374.114 2024.67 373.428 2026.36 372.025 2027.2 371.308 2028.01 370.623 2029.63 369.189 2030.44 368.503 2031.25 367.786 2032.84 366.352 2033.61 365.635 2034.42 364.949 2036.01 363.516 2036.82 362.798 2037.63 362.082 2039.29 360.679 2040.1 359.962L2043.58 357.094 2045.45 355.629C2046.33 354.943 2048.13 353.541 2049.04 352.855 2049.91 352.169 2051.69 350.766 2052.56 350.08 2053.46 349.395 2055.27 347.992 2056.17 347.306L2058.07 345.903 2061.69 343.16C2062.53 342.506 2064.27 341.166 2065.14 340.48 2065.99 339.825 2067.7 338.516 2068.57 337.861L2070.5 336.833C2071.28 336.178 2072.87 334.838 2073.65 334.152 2074.52 333.528 2076.27 332.25 2077.14 331.596 2078.07 330.941 2079.88 329.632 2080.82 328.977L2082.78 327.606C2083.71 326.951 2085.61 325.642 2086.58 324.956 2087.51 324.302 2089.42 322.992 2090.35 322.307L2092.34 320.966C2093.28 320.312 2095.12 319.034 2096.05 318.379 2096.95 317.724 2098.73 316.446 2099.63 315.823L2101.6 314.857C2102.38 314.202 2103.96 312.893 2104.77 312.238 2105.65 311.615 2107.39 310.399 2108.26 309.776 2109.17 309.121 2110.97 307.843 2111.88 307.188L2113.84 305.879C2114.78 305.225 2116.68 303.946 2117.61 303.292L2121.47 300.674 2123.5 299.365C2124.5 298.71 2126.46 297.432 2127.46 296.808 2128.45 296.185 2130.45 294.907 2131.44 294.284L2133.53 293.006C2134.56 292.413 2136.55 291.229 2137.58 290.636L2139.73 289.857C2140.64 289.234 2142.44 288.049 2143.35 287.457L2145.46 286.74C2146.37 286.179 2148.21 285.057 2149.11 284.496L2151.23 283.841C2152.16 283.311 2154 282.22 2154.94 281.659L2157.15 281.098C2158.11 280.568 2160.05 279.446 2161.04 278.916L2163.29 277.918C2164.41 277.42 2166.62 276.453 2167.74 275.986L2170.08 274.988 2172.51 274.552C2173.5 274.022 2175.5 272.931 2176.5 272.401L2178.8 271.497C2179.89 271.03 2182.13 270.157 2183.23 269.72L2185.56 268.816 2187.99 268.505C2189.02 267.975 2191.01 266.915 2192.04 266.385L2194.5 265.512C2196.31 264.764 2199.96 263.299 2201.76 262.582 2203.54 261.772 2207.06 260.119 2208.84 259.309L2211.14 258.124C2212.17 257.563 2214.23 256.41 2215.25 255.849L2217.22 254.633C2218.09 254.072 2219.83 252.919 2220.71 252.358L2223.82 250.114C2224.6 249.583 2226.13 248.492 2226.91 247.963L2228.56 247.09C2229.27 246.529 2230.74 245.406 2231.49 244.814 2232.3 244.191 2233.92 242.975 2234.73 242.352L2236.6 240.949C2237.53 239.39 2239.4 236.305 2240.33 234.777 2240.86 223.431 2241.18 212.053 2242.42 200.769 2241.74 198.961 2240.4 195.314 2239.71 193.506 2238.06 175.925 2238.31 158.095 2240.43 140.545 2241.83 135.028 2242.51 129.355 2242.51 123.682 2242.67 122.341 2243.01 119.692 2243.17 118.351L2245.54 117.447 2245.57 114.891 2245.44 109.53 2246.28 106.88C2246.94 105.072 2248.28 101.456 2248.96 99.6173L2249.96 97.217C2250.49 96.126 2251.49 93.944 2252.02 92.853L2253.08 90.6711C2253.64 89.6735 2254.73 87.6475 2255.26 86.65L2256.41 84.6235C2257 83.7199 2258.16 81.8807 2258.75 80.9767 2259.37 80.1661 2260.68 78.6078 2261.33 77.7972L2262.27 75.8956C2262.95 75.0851 2264.29 73.4333 2264.95 72.6227 2265.63 71.8121 2267.03 70.2224 2267.75 69.4432 2268.47 68.664 2269.9 67.1053 2270.62 66.3261 2271.37 65.5466 2272.83 64.0193 2273.58 63.2401 2274.29 62.492 2275.79 60.9957 2276.54 60.2476 2277.28 59.5305 2278.81 58.0656 2279.56 57.3175 2280.31 56.6004 2281.83 55.1979 2282.61 54.4808 2283.39 53.7951 2284.98 52.4548 2285.76 51.7691L2289.12 49.1504C2290.06 48.5582 2291.93 47.3113 2292.86 46.7191L2295.01 45.5346C2296.23 45.2542 2298.63 44.662 2299.84 44.3812 2300.78 43.7579 2302.61 42.4796 2303.55 41.8253L2305.79 41.0148C2306.88 40.5784 2309.06 39.7368 2310.15 39.3315L2312.58 38.4585C2314.45 37.8977 2318.19 36.8067 2320.09 36.2766Z" stroke="#000000" stroke-width="0.291962" stroke-miterlimit="8" fill-rule="evenodd"/></g></svg>