<svg width="719" height="412" xmlns="http://www.w3.org/2000/svg" xmlns:xlink="http://www.w3.org/1999/xlink" xml:space="preserve" overflow="hidden"><defs><clipPath id="clip0"><rect x="990" y="1461" width="719" height="412"/></clipPath></defs><g clip-path="url(#clip0)" transform="translate(-990 -1461)"><path d="M1582.06 1462.39C1586.27 1461.41 1590.7 1461.23 1595 1461.89 1597.81 1463.73 1600.92 1464.52 1604.32 1464.21L1606.56 1465.13C1608.14 1465.6 1611.3 1466.5 1612.89 1466.95 1613.41 1467.53 1614.49 1468.69 1615.05 1469.27L1616.68 1470.01C1617.5 1470.45 1619.08 1471.38 1619.87 1471.85L1621.53 1472.85C1622.29 1473.38 1623.82 1474.43 1624.58 1474.93 1625.29 1475.49 1626.77 1476.54 1627.48 1477.07 1628.14 1477.68 1629.43 1478.83 1630.09 1479.41L1631.7 1480.34C1632.36 1480.97 1633.73 1482.18 1634.41 1482.79L1636.97 1485.34C1637.57 1486.03 1638.78 1487.37 1639.39 1488.03L1640.31 1489.61C1640.89 1490.25 1642.05 1491.54 1642.61 1492.2 1643.13 1492.93 1644.19 1494.38 1644.71 1495.12 1645.24 1495.89 1646.27 1497.47 1646.79 1498.26L1647.8 1500C1648.3 1500.87 1649.27 1502.63 1649.75 1503.5 1649.98 1504.56 1650.4 1506.64 1650.64 1507.69 1651.19 1508.53 1652.3 1510.22 1652.85 1511.06L1653.59 1513.2C1654.2 1514.73 1655.41 1517.81 1655.99 1519.34L1656.89 1521.42C1657.33 1522.34 1658.23 1524.21 1658.68 1525.14L1659.65 1527.01C1660.15 1527.85 1661.15 1529.56 1661.65 1530.41L1662.73 1532.09C1663.29 1532.86 1664.37 1534.36 1664.9 1535.12 1665.48 1535.81 1666.61 1537.18 1667.19 1537.87 1667.77 1538.52 1668.95 1539.84 1669.56 1540.5 1670.17 1541.13 1671.4 1542.42 1672.01 1543.08 1672.64 1543.72 1673.91 1545.01 1674.51 1545.67 1675.17 1546.3 1676.44 1547.59 1677.09 1548.25 1677.73 1548.91 1679.04 1550.2 1679.68 1550.86L1682.31 1553.49 1684.95 1556.13 1687.58 1558.76C1688.21 1559.42 1689.53 1560.74 1690.19 1561.43 1690.82 1562.08 1692.11 1563.4 1692.75 1564.06 1693.38 1564.72 1694.62 1566.06 1695.25 1566.72 1695.83 1567.38 1697.04 1568.73 1697.65 1569.38 1698.2 1570.07 1699.33 1571.41 1699.91 1572.1L1700.75 1573.63C1701.26 1574.26 1702.28 1575.55 1702.78 1576.18 1703.21 1576.9 1704.05 1578.29 1704.47 1578.98 1704.94 1579.66 1705.89 1581.03 1706.37 1581.72L1707.5 1583.06 1705.89 1584.72C1703.34 1586.44 1700.49 1587.01 1697.36 1586.41L1693.98 1584.62C1692.4 1584.43 1689.24 1584.01 1687.69 1583.83L1685.76 1582.98C1684.92 1582.53 1683.23 1581.67 1682.39 1581.22 1681.6 1580.74 1680.02 1579.77 1679.23 1579.29L1677.65 1578.27C1676.91 1577.74 1675.46 1576.71 1674.72 1576.18 1674.04 1575.68 1672.64 1574.68 1671.96 1574.15 1671.27 1573.65 1669.93 1572.65 1669.24 1572.15 1668.58 1571.65 1667.24 1570.62 1666.58 1570.12L1664.92 1569.33 1661.65 1567.43 1659.86 1566.46C1658.97 1565.96 1657.15 1564.98 1656.23 1564.51L1654.22 1563.48C1652.64 1563.01 1649.51 1562.08 1647.95 1561.64 1647.27 1561.03 1645.87 1559.84 1645.19 1559.26 1644.11 1559.11 1641.95 1558.76 1640.87 1558.61L1638.71 1558.21C1637.78 1557.76 1635.97 1556.89 1635.07 1556.47 1633.28 1556.42 1629.67 1556.34 1627.88 1556.29 1624.35 1556.37 1620.84 1556.31 1617.31 1556.15 1612.31 1555.52 1607.27 1556.29 1602.48 1557.79 1601.32 1558 1599 1558.42 1597.84 1558.63L1595.57 1558.53C1592.44 1557.84 1589.62 1558.5 1587.12 1560.5 1585.98 1560.66 1583.74 1560.95 1582.61 1561.11 1579.45 1560.66 1576.87 1561.64 1574.81 1564.03L1573.21 1565.38 1571.57 1566.56 1571.84 1568.51C1571.86 1569.52 1571.89 1571.55 1571.91 1572.55L1571.7 1574.52 1572.94 1575.79 1573.84 1577.32C1574.29 1578.03 1575.23 1579.45 1575.71 1580.14 1576.26 1580.8 1577.34 1582.06 1577.9 1582.69 1578.5 1583.27 1579.69 1584.48 1580.29 1585.09 1580.95 1585.67 1582.22 1586.83 1582.88 1587.41 1583.48 1588.02 1584.75 1589.23 1585.38 1589.83L1586.93 1590.81C1587.64 1591.42 1589.04 1592.63 1589.75 1593.23 1590.44 1593.87 1591.81 1595.13 1592.52 1595.76 1593.2 1596.4 1594.55 1597.69 1595.23 1598.32 1595.92 1598.95 1597.26 1600.27 1597.92 1600.9 1598.6 1601.56 1599.92 1602.88 1600.61 1603.54L1603.24 1606.17C1603.9 1606.83 1605.24 1608.15 1605.9 1608.81L1608.54 1611.44C1609.2 1612.1 1610.51 1613.45 1611.15 1614.11 1611.81 1614.76 1613.12 1616.11 1613.78 1616.77 1614.44 1617.43 1615.73 1618.8 1616.39 1619.46 1617.02 1620.14 1618.31 1621.51 1618.95 1622.2 1619.58 1622.91 1620.84 1624.3 1621.47 1625.02 1622.08 1625.75 1623.32 1627.2 1623.95 1627.92L1624.87 1629.6C1625.48 1630.29 1626.72 1631.63 1627.32 1632.32 1627.9 1633.05 1629.04 1634.56 1629.62 1635.32 1630.17 1636.08 1631.3 1637.61 1631.88 1638.38L1632.72 1640.12C1633.28 1640.83 1634.44 1642.25 1634.99 1642.96 1635.52 1643.75 1636.55 1645.31 1637.05 1646.1L1637.78 1647.84C1638.31 1648.58 1639.36 1650.03 1639.89 1650.76L1640.52 1652.5C1641.02 1653.24 1642.03 1654.69 1642.53 1655.43 1642.97 1656.27 1643.87 1657.93 1644.32 1658.75L1645.24 1660.54C1645.66 1661.41 1646.53 1663.18 1646.95 1664.07L1647.8 1665.92 1648.09 1667.89C1648.53 1668.71 1649.43 1670.34 1649.88 1671.16L1650.59 1673.16C1651.09 1674.67 1652.09 1677.7 1652.62 1679.2L1653.36 1681.41C1653.83 1682.99 1654.78 1686.21 1655.25 1687.79 1656.02 1691.16 1656.36 1694.62 1656.23 1698.12 1656.25 1699.44 1656.28 1702.07 1656.28 1703.39 1656.62 1708.66 1656.44 1714.01 1655.41 1719.26 1653.3 1721.84 1652.59 1724.76 1653.28 1728.06L1653.38 1730.32 1652.78 1732.56C1652.27 1734.15 1651.3 1737.31 1650.8 1738.89 1650.46 1739.97 1649.72 1742.13 1649.38 1743.21 1649.01 1744.16 1648.27 1746.08 1647.9 1747.03L1647.14 1748.9C1646.72 1749.67 1645.82 1751.25 1645.4 1752.04L1644.98 1753.83C1644.53 1754.57 1643.61 1756.07 1643.16 1756.81L1642.61 1758.57C1642.1 1759.31 1641.1 1760.81 1640.6 1761.55L1639.92 1763.34C1639.42 1764.19 1638.39 1765.87 1637.86 1766.72L1636.76 1768.46C1636.2 1769.25 1635.12 1770.88 1634.57 1771.7L1632.36 1774.76C1631.75 1775.44 1630.56 1776.81 1629.96 1777.47L1629.06 1779.16C1628.46 1779.87 1627.24 1781.32 1626.64 1782.03 1626.01 1782.71 1624.77 1784.11 1624.14 1784.8 1623.5 1785.48 1622.21 1786.83 1621.58 1787.48L1618.95 1790.12C1618.26 1790.78 1616.92 1792.04 1616.26 1792.7 1615.57 1793.31 1614.2 1794.57 1613.52 1795.18 1612.81 1795.79 1611.41 1797 1610.7 1797.6L1609.09 1798.55C1608.43 1799.16 1607.11 1800.34 1606.48 1800.95 1605.77 1801.5 1604.32 1802.64 1603.61 1803.22 1602.87 1803.8 1601.42 1804.93 1600.69 1805.51 1599.9 1806.06 1598.34 1807.22 1597.58 1807.8L1595.89 1808.96C1595.07 1809.54 1593.47 1810.65 1592.65 1811.2 1591.81 1811.76 1590.17 1812.84 1589.33 1813.39L1587.59 1814.47C1586.77 1814.97 1585.11 1815.97 1584.27 1816.47L1582.51 1817.16C1581.77 1817.66 1580.29 1818.69 1579.58 1819.19L1577.84 1819.82C1577.1 1820.29 1575.66 1821.27 1574.92 1821.77 1574.1 1822.22 1572.44 1823.14 1571.62 1823.59L1569.83 1824.54C1568.96 1824.99 1567.2 1825.88 1566.3 1826.36L1564.46 1827.25C1563.54 1827.65 1561.74 1828.46 1560.82 1828.89L1558.95 1829.65 1557.08 1830.2C1556.45 1830.76 1555.24 1831.86 1554.6 1832.44 1553.02 1832.86 1549.81 1833.71 1548.23 1834.13L1546.04 1835.08C1544.51 1835.74 1541.51 1837.03 1540.01 1837.69 1538.56 1838.27 1535.63 1839.4 1534.16 1839.98L1532.16 1840.69 1530.13 1840.85C1529.34 1841.27 1527.73 1842.14 1526.91 1842.56L1524.91 1843.14C1523.41 1843.64 1520.4 1844.64 1518.9 1845.15L1516.72 1845.86C1515.16 1846.38 1512.05 1847.41 1510.5 1847.94L1508.28 1848.6 1506.04 1848.49C1504.57 1849.07 1501.67 1850.23 1500.2 1850.81L1497.98 1851.34 1495.74 1851.18C1494.29 1851.73 1491.37 1852.84 1489.92 1853.39L1487.68 1853.89 1485.47 1853.66C1483.99 1854.18 1481.01 1855.24 1479.54 1855.79 1478.35 1856 1476.03 1856.45 1474.88 1856.66 1473.27 1857.06 1470.05 1857.85 1468.47 1858.24 1467.31 1858.48 1465.02 1858.93 1463.89 1859.17L1461.65 1859.01C1458.49 1858.24 1455.64 1858.9 1453.11 1860.93 1451.98 1861.09 1449.69 1861.46 1448.55 1861.64 1445.34 1860.93 1442.36 1861.51 1439.65 1863.33 1437.86 1863.57 1434.27 1864.01 1432.48 1864.25 1428.5 1863.91 1424.53 1864.49 1420.84 1866.02 1419.1 1866.25 1415.59 1866.76 1413.83 1867.02L1411.59 1866.94C1407.77 1866.41 1403.95 1866.97 1400.36 1868.36 1396.44 1869.15 1392.41 1869.44 1388.4 1869.65L1371.86 1870.81C1364.14 1871.37 1356.47 1872.34 1348.75 1872.5 1330.62 1872.18 1312.52 1872.42 1294.39 1872.47 1291.07 1872.45 1287.78 1872 1284.59 1871.16 1282.04 1869.18 1279.22 1868.6 1276.11 1869.47 1275 1869.26 1272.79 1868.86 1271.68 1868.68 1270.18 1868.28 1267.15 1867.47 1265.65 1867.07 1264.52 1866.81 1262.28 1866.28 1261.17 1866.02 1259.64 1865.52 1256.61 1864.57 1255.08 1864.09L1252.92 1863.38C1251.47 1862.85 1248.55 1861.77 1247.1 1861.25L1245.15 1860.48C1244.25 1860.11 1242.49 1859.38 1241.62 1859.01L1239.83 1858.27C1239.04 1857.85 1237.51 1856.95 1236.74 1856.5L1234.8 1856.11C1233.4 1855.5 1230.58 1854.24 1229.18 1853.6L1227.18 1852.74C1226.26 1852.29 1224.41 1851.42 1223.49 1851L1221.59 1850.1C1220.7 1849.65 1218.91 1848.76 1218.04 1848.31L1216.19 1847.39C1215.32 1846.94 1213.58 1846.01 1212.72 1845.54L1210.98 1844.62C1210.16 1844.14 1208.53 1843.25 1207.71 1842.77 1207 1842.3 1205.52 1841.32 1204.79 1840.85L1203.07 1840.22 1200.12 1838.21 1198.36 1837.56C1197.51 1837.05 1195.85 1836.08 1195.01 1835.61L1193.27 1834.58C1192.43 1834.1 1190.79 1833.1 1189.95 1832.6 1189.21 1832.07 1187.74 1830.99 1187 1830.44L1185.18 1829.73C1184.34 1829.23 1182.68 1828.17 1181.84 1827.67L1180.07 1826.57C1179.25 1826.04 1177.57 1824.99 1176.72 1824.43 1175.91 1823.9 1174.25 1822.85 1173.4 1822.32L1171.69 1821.22C1170.88 1820.72 1169.27 1819.66 1168.48 1819.16L1165.63 1816.95 1163.92 1816.21C1163.16 1815.68 1161.63 1814.68 1160.86 1814.15 1160.18 1813.6 1158.78 1812.49 1158.1 1811.91L1156.38 1811.1C1155.59 1810.54 1154.07 1809.44 1153.3 1808.86L1150.14 1806.54 1148.48 1805.33C1147.72 1804.72 1146.16 1803.53 1145.4 1802.93 1144.66 1802.32 1143.21 1801.14 1142.47 1800.53 1141.76 1799.92 1140.34 1798.74 1139.63 1798.16 1138.92 1797.58 1137.52 1796.42 1136.81 1795.81 1136.15 1795.21 1134.86 1793.99 1134.2 1793.36L1132.59 1792.41C1131.88 1791.81 1130.46 1790.57 1129.75 1789.96 1129.06 1789.33 1127.69 1788.06 1126.98 1787.46 1126.3 1786.8 1124.95 1785.53 1124.27 1784.88 1123.58 1784.24 1122.24 1782.95 1121.58 1782.29 1120.92 1781.63 1119.58 1780.32 1118.92 1779.68 1118.26 1779.02 1116.92 1777.71 1116.26 1777.05L1113.62 1774.41 1110.99 1771.78 1108.35 1769.14C1107.72 1768.48 1106.4 1767.19 1105.74 1766.53 1105.09 1765.9 1103.79 1764.61 1103.14 1763.95 1102.48 1763.32 1101.19 1762.03 1100.53 1761.39 1099.87 1760.79 1098.55 1759.52 1097.89 1758.89 1097.23 1758.28 1095.89 1757.07 1095.23 1756.47 1094.52 1755.89 1093.15 1754.73 1092.44 1754.12 1091.7 1753.57 1090.2 1752.46 1089.46 1751.91L1087.85 1750.83C1087.06 1750.3 1085.51 1749.27 1084.74 1748.77 1084.01 1748.24 1082.53 1747.22 1081.79 1746.69L1079.84 1746.08C1078.42 1745.45 1075.52 1744.21 1074.07 1743.58L1071.94 1742.92C1071.07 1742.39 1069.36 1741.37 1068.49 1740.84 1067.33 1740.73 1065.04 1740.55 1063.9 1740.44L1061.59 1739.78C1059.98 1739.26 1056.71 1738.23 1055.08 1737.7L1052.78 1736.97C1051.2 1736.44 1048.04 1735.38 1046.46 1734.86L1044.38 1734.15C1043.51 1733.7 1041.82 1732.8 1040.98 1732.35L1038.93 1732.12 1037 1731.33C1036.08 1730.93 1034.24 1730.17 1033.34 1729.77L1031.5 1728.95C1030.68 1728.51 1029.1 1727.61 1028.31 1727.16L1026.49 1726.69C1025.73 1726.21 1024.2 1725.29 1023.43 1724.82L1021.67 1724.26C1020.9 1723.74 1019.4 1722.73 1018.64 1722.23L1016.85 1721.55C1016 1721.02 1014.37 1719.99 1013.53 1719.49L1011.84 1718.39C1011.05 1717.81 1009.47 1716.7 1008.7 1716.15 1007.97 1715.57 1006.52 1714.43 1005.78 1713.85 1005.07 1713.27 1003.67 1712.11 1002.96 1711.53L1001.56 1710.3 1000.51 1708.87C999.931 1708.32 998.746 1707.21 998.166 1706.69 997.771 1706 996.98 1704.63 996.559 1703.94 996.058 1703.23 995.031 1701.84 994.53 1701.12 992.87 1697.62 991.79 1693.8 991.5 1689.95 991.737 1688 992.185 1684.13 992.396 1682.2 997.191 1681.49 1006.78 1680.12 1011.58 1679.44 1028.99 1679.15 1046.46 1678.86 1063.88 1679.73 1067.14 1680.38 1070.1 1679.7 1072.76 1677.67 1073.92 1677.43 1076.18 1676.99 1077.34 1676.75L1081.77 1676.64C1082.61 1676.19 1084.3 1675.27 1085.17 1674.82L1087.25 1674.4C1088.3 1674.35 1090.44 1674.22 1091.49 1674.17 1092.33 1673.69 1094.02 1672.77 1094.84 1672.32L1096.92 1671.77C1098.37 1671.27 1101.26 1670.27 1102.71 1669.76L1104.72 1669 1108.4 1667.52 1110.41 1666.79C1111.83 1666.26 1114.73 1665.21 1116.18 1664.65L1118.29 1663.97C1119.68 1663.36 1122.5 1662.17 1123.92 1661.57 1125.35 1661.01 1128.19 1659.93 1129.61 1659.38L1131.67 1658.67C1133.07 1658.06 1135.83 1656.85 1137.2 1656.24 1138.6 1655.72 1141.42 1654.64 1142.82 1654.11L1144.9 1653.4 1150.38 1650.97C1151.8 1650.42 1154.59 1649.37 1155.99 1648.84L1158.07 1648.13C1159.44 1647.52 1162.21 1646.31 1163.58 1645.68 1165 1645.15 1167.82 1644.07 1169.24 1643.52L1171.35 1642.8C1172.75 1642.2 1175.57 1640.96 1176.96 1640.35 1178.44 1639.8 1181.34 1638.69 1182.78 1638.14L1184.89 1637.38C1186.34 1636.82 1189.21 1635.66 1190.66 1635.11L1192.59 1634.35C1193.48 1634 1195.27 1633.26 1196.17 1632.9L1197.99 1632.21 1199.91 1632.03C1200.7 1631.6 1202.28 1630.79 1203.07 1630.37L1205.05 1629.76C1206.55 1629.26 1209.53 1628.23 1211 1627.73L1213.19 1627.02C1214.67 1626.44 1217.67 1625.33 1219.17 1624.78 1220.22 1624.67 1222.39 1624.49 1223.44 1624.38 1224.26 1623.86 1225.86 1622.86 1226.65 1622.33L1228.73 1621.8C1230.24 1621.35 1233.24 1620.46 1234.77 1620.01 1235.88 1619.75 1238.14 1619.22 1239.27 1618.93 1240.83 1618.53 1243.94 1617.74 1245.49 1617.32 1246.65 1617.11 1248.94 1616.69 1250.08 1616.48 1253.24 1617.08 1256.14 1616.48 1258.77 1614.66 1259.9 1614.45 1262.14 1614.05 1263.28 1613.84 1266.41 1614.47 1269.28 1613.87 1271.87 1612.02 1273 1611.81 1275.24 1611.42 1276.37 1611.21 1279.53 1611.89 1282.43 1611.31 1285.09 1609.47 1288.25 1608.76 1291.44 1608.44 1294.68 1608.52 1298.69 1608.94 1302.72 1608.47 1306.46 1607.04 1310.57 1606.07 1314.76 1605.75 1318.98 1605.49L1321.43 1605.36C1328.07 1605.15 1334.73 1604.91 1341.4 1604.67 1342.5 1604.7 1344.72 1604.78 1345.8 1604.83 1354.28 1602.77 1363.4 1602.93 1371.96 1604.36L1373.33 1606.31 1375.41 1605.38C1379.71 1605.44 1388.27 1605.57 1392.57 1605.62L1394.99 1605.73C1398.36 1605.83 1401.68 1606.25 1405 1606.94 1408.74 1608.36 1412.77 1608.91 1416.81 1608.57 1418.57 1608.81 1422.1 1609.23 1423.89 1609.47 1426.5 1611.29 1429.4 1611.87 1432.56 1611.21 1433.69 1611.42 1435.93 1611.81 1437.07 1612 1438.57 1612.42 1441.6 1613.21 1443.1 1613.61 1444.23 1613.84 1446.45 1614.34 1447.55 1614.61 1449.03 1615.05 1452.01 1616 1453.48 1616.45L1455.62 1617.08C1457.06 1617.61 1460.02 1618.64 1461.46 1619.17L1463.57 1619.9C1465.05 1620.46 1467.97 1621.59 1469.45 1622.17 1470.92 1622.83 1473.9 1624.15 1475.4 1624.81L1477.59 1625.81C1479.2 1626.28 1482.41 1627.26 1484.02 1627.76 1484.6 1628.28 1485.81 1629.36 1486.42 1629.92L1488.13 1630.52C1488.89 1630.95 1490.45 1631.82 1491.21 1632.26L1493.03 1632.79C1493.79 1633.26 1495.37 1634.19 1496.16 1634.66L1498.01 1635.24C1498.8 1635.72 1500.41 1636.69 1501.2 1637.17L1503.07 1637.74C1503.86 1638.25 1505.47 1639.22 1506.28 1639.7L1508.13 1640.3 1511.29 1642.2 1513.08 1642.78C1513.87 1643.25 1515.4 1644.18 1516.16 1644.65L1517.93 1645.23C1518.69 1645.68 1520.19 1646.57 1520.96 1647.05L1522.7 1647.57C1523.57 1647.94 1525.28 1648.68 1526.12 1649.05L1527.99 1649.74C1529.68 1653.24 1531.5 1653.4 1533.5 1650.16 1534.55 1649.97 1536.66 1649.63 1537.72 1649.45 1540.38 1654.85 1545.07 1647.42 1539.16 1647.18L1538.98 1645.18C1538.74 1644.25 1538.24 1642.46 1538 1641.54L1537.35 1639.64C1536.82 1638.32 1535.74 1635.69 1535.19 1634.35L1534.58 1632.58C1534.03 1632.05 1532.89 1631 1532.34 1630.5 1531.97 1628.97 1531.26 1625.97 1530.89 1624.44L1529.92 1622.38C1529.28 1620.93 1528.02 1618.09 1527.39 1616.66 1526.83 1615.24 1525.73 1612.37 1525.17 1610.94L1524.46 1608.84C1523.96 1607.41 1522.93 1604.51 1522.41 1603.09L1521.8 1600.98C1521.33 1599.51 1520.43 1596.58 1519.98 1595.13 1519.77 1594.02 1519.38 1591.84 1519.19 1590.73 1520.01 1587.57 1519.43 1584.72 1517.48 1582.17 1517.24 1580.29 1516.8 1576.53 1516.56 1574.66 1516.45 1567.36 1516.4 1560.11 1516.4 1552.89L1516.58 1550.33C1516.74 1549.07 1517.08 1546.54 1517.27 1545.27L1519.46 1544.24 1519.38 1541.98C1519.35 1540.79 1519.32 1538.42 1519.32 1537.23L1520.04 1534.89C1520.59 1533.31 1521.7 1530.09 1522.28 1528.48L1523.04 1526.4C1523.49 1525.59 1524.38 1523.92 1524.83 1523.08L1525.2 1521.21C1525.62 1520.45 1526.52 1518.92 1526.97 1518.15L1527.47 1516.39C1527.94 1515.65 1528.86 1514.12 1529.31 1513.38L1529.92 1511.62C1530.42 1510.88 1531.42 1509.38 1531.92 1508.61L1532.58 1506.8C1533.08 1505.95 1534.11 1504.27 1534.61 1503.4L1535.69 1501.63C1536.24 1500.79 1537.35 1499.13 1537.87 1498.28 1538.45 1497.47 1539.56 1495.83 1540.11 1495.02L1541.27 1493.33C1541.85 1492.56 1543.01 1491.01 1543.59 1490.25 1544.14 1489.51 1545.3 1488.08 1545.86 1487.35 1546.44 1486.66 1547.57 1485.26 1548.12 1484.58 1548.73 1483.95 1549.97 1482.71 1550.57 1482.08L1551.55 1480.52C1552.21 1479.86 1553.5 1478.54 1554.16 1477.91 1554.87 1477.28 1556.26 1476.04 1556.98 1475.41L1558.5 1474.2C1559.24 1473.62 1560.74 1472.51 1561.48 1471.93 1562.22 1471.43 1563.69 1470.38 1564.43 1469.87L1566.09 1469.19C1566.8 1468.71 1568.2 1467.74 1568.91 1467.24L1570.68 1466.84C1571.44 1466.4 1572.99 1465.47 1573.76 1465.03L1575.73 1464.26C1577.32 1463.79 1580.48 1462.86 1582.06 1462.39Z" stroke="#000000" stroke-width="0.24685" stroke-miterlimit="8" fill-rule="evenodd"/></g></svg>