<svg width="1488" height="889" xmlns="http://www.w3.org/2000/svg" xmlns:xlink="http://www.w3.org/1999/xlink" xml:space="preserve" overflow="hidden"><defs><clipPath id="clip0"><rect x="829" y="1536" width="1488" height="889"/></clipPath></defs><g clip-path="url(#clip0)" transform="translate(-829 -1536)"><path d="M1111.59 1539.93 1112.87 1540.99C1113.52 1541.49 1114.8 1542.46 1115.43 1542.96 1116.08 1543.42 1117.39 1544.33 1118.04 1544.8 1118.73 1545.26 1120.07 1546.2 1120.72 1546.64 1121.44 1547.1 1122.84 1548.01 1123.56 1548.44 1124.34 1548.85 1125.9 1549.6 1126.68 1550 1127.55 1550.16 1129.3 1550.5 1130.17 1550.66L1132.07 1550.66C1132.97 1550.5 1134.78 1550.16 1135.65 1550 1136.5 1549.57 1138.12 1548.69 1138.93 1548.26 1139.71 1547.63 1141.23 1546.45 1141.98 1545.86L1143.54 1544.48C1144.32 1543.83 1145.91 1542.49 1146.69 1541.83 1147.59 1541.21 1149.4 1539.93 1150.3 1539.31L1152.64 1538.68C1156.35 1538.34 1160.03 1537.94 1163.71 1537.5L1166.61 1537.69C1167.98 1538.19 1170.72 1539.15 1172.09 1539.65 1173.03 1540.65 1174.93 1542.64 1175.86 1543.64 1176.89 1543.99 1179.01 1544.73 1180.07 1545.11L1180.54 1547.04C1181.04 1547.88 1181.97 1549.54 1182.44 1550.35L1183.16 1552.22C1183.69 1553.06 1184.75 1554.71 1185.28 1555.55L1185.71 1557.61C1186.21 1558.55 1187.24 1560.42 1187.77 1561.35L1188.64 1563.66C1189.3 1565.5 1190.58 1569.12 1191.23 1570.93L1192.13 1573.58C1192.73 1575.48 1193.94 1579.25 1194.57 1581.12L1195.31 1583.77C1195.38 1585.11 1195.5 1587.73 1195.56 1589.04 1196.12 1590.04 1197.28 1592.01 1197.84 1593L1198.31 1595.53C1197.75 1599.18 1198.49 1602.58 1200.58 1605.69 1200.86 1607.04 1201.39 1609.75 1201.67 1611.12 1200.89 1614.89 1201.61 1618.42 1203.76 1621.63 1204.04 1623.72 1204.67 1627.9 1204.98 1629.99 1204.14 1633.76 1204.79 1637.22 1207 1640.43 1207.22 1641.77 1207.72 1644.48 1207.97 1645.83 1207.19 1649.6 1207.88 1653.12 1210.06 1656.33 1210.37 1658.45 1210.99 1662.66 1211.3 1664.78 1210.65 1668.56 1211.4 1672.05 1213.61 1675.23L1214.23 1677.85C1214.33 1679.16 1214.45 1681.75 1214.51 1683.03 1215.11 1683.99 1216.26 1685.96 1216.85 1686.92L1217.44 1689.42C1218.04 1691.23 1219.22 1694.81 1219.81 1696.62L1220.66 1699.21C1221.31 1701.02 1222.68 1704.57 1223.37 1706.35L1224.24 1708.75C1224.68 1709.84 1225.52 1712.06 1225.92 1713.15L1226.76 1715.33 1227.42 1717.51C1228.07 1718.23 1229.35 1719.66 1230.01 1720.38 1230.54 1722.22 1231.63 1725.87 1232.16 1727.71L1233.37 1730.11C1233.9 1731.23 1234.99 1733.45 1235.55 1734.57L1236.61 1736.85C1237.14 1737.94 1238.2 1740.12 1238.7 1741.18L1239.73 1743.46C1240.26 1744.52 1241.26 1746.7 1241.76 1747.76L1242.75 1750 1243.35 1752.28C1243.88 1753.22 1244.97 1755.12 1245.5 1756.05L1246.09 1758.21C1246.62 1759.14 1247.68 1761.04 1248.21 1761.98L1248.74 1764.19C1249.3 1765.19 1250.39 1767.15 1250.95 1768.15L1251.98 1770.46C1252.51 1771.58 1253.57 1773.83 1254.1 1774.95L1255.19 1777.29 1255.94 1779.69C1256.53 1780.62 1257.75 1782.5 1258.37 1783.43L1259.24 1785.52C1259.87 1786.36 1261.15 1788.05 1261.77 1788.89 1262.39 1789.73 1263.64 1791.41 1264.29 1792.26 1264.95 1793.04 1266.26 1794.59 1266.91 1795.37 1267.57 1796.09 1268.91 1797.53 1269.56 1798.24 1270.22 1798.93 1271.52 1800.27 1272.18 1800.95 1272.83 1801.61 1274.11 1802.92 1274.77 1803.57L1275.79 1805.13 1277.91 1804.6 1280.1 1804.04C1284.37 1803.54 1287.33 1800.43 1290.29 1797.68 1292.91 1795.47 1293.94 1792.6 1293.31 1789.04L1293.9 1786.95C1294.4 1786.11 1295.4 1784.49 1295.9 1783.68L1296.49 1781.84C1297.15 1781.19 1298.52 1779.85 1299.17 1779.16 1300.08 1778.6 1301.88 1777.51 1302.79 1776.95 1307.56 1774.36 1312.67 1772.52 1317.84 1770.93L1320.49 1770.99 1321.09 1768.62 1321.74 1766.16C1322.61 1764.29 1324.3 1760.57 1325.14 1758.74 1326.01 1757.11 1327.69 1753.87 1328.53 1752.25 1329.19 1751.41 1330.47 1749.69 1331.12 1748.82 1331.75 1748.07 1333.02 1746.54 1333.65 1745.79 1334.3 1745.11 1335.58 1743.67 1336.2 1742.96 1336.89 1742.27 1338.2 1740.84 1338.85 1740.15 1339.54 1739.37 1340.88 1737.84 1341.56 1737.09L1343.03 1735.47C1343.78 1734.69 1345.27 1733.13 1346.02 1732.39L1349.26 1726.15C1350.1 1725.56 1351.82 1724.34 1352.66 1723.75L1354.03 1722 1356.18 1721.35 1358.43 1721.19 1360.61 1721.63C1361.58 1721.97 1363.51 1722.66 1364.47 1723.03 1365.35 1723.47 1367.06 1724.34 1367.93 1724.78 1368.74 1725.31 1370.33 1726.31 1371.14 1726.8L1372.92 1727.58C1373.73 1728.11 1375.32 1729.14 1376.1 1729.64L1377.85 1730.42 1380.96 1732.17C1381.65 1732.57 1383.05 1733.38 1383.74 1733.82 1384.33 1734.26 1385.54 1735.1 1386.17 1735.54L1387.38 1736.32 1388.19 1734.35C1390.78 1730.08 1391.09 1725 1390 1720.23 1389.32 1714.55 1389.04 1708.78 1390 1703.17 1390.63 1701.49 1391.84 1698.09 1392.46 1696.4L1393.93 1694.56C1394.83 1693.94 1396.64 1692.72 1397.51 1692.1 1398.64 1692.1 1400.91 1692.13 1402.03 1692.13L1404 1693.07C1404.81 1693.63 1406.49 1694.72 1407.33 1695.28 1408.05 1695.93 1409.48 1697.24 1410.2 1697.87 1410.85 1698.62 1412.23 1700.08 1412.88 1700.83L1414.22 1702.45C1414.84 1703.26 1416.12 1704.88 1416.75 1705.69L1419.24 1708.94C1419.83 1709.78 1421.08 1711.46 1421.67 1712.31L1422.89 1714.05C1423.48 1714.89 1424.6 1716.58 1425.16 1717.42L1426.1 1719.13C1426.66 1719.85 1427.78 1721.29 1428.37 1722 1428.96 1722.75 1430.12 1724.22 1430.71 1724.97 1431.36 1725.78 1432.64 1727.43 1433.27 1728.27 1433.95 1727.18 1435.29 1725 1435.98 1723.91 1437.38 1715.14 1438.04 1706.41 1441.06 1698.15 1441.46 1696.28 1442.31 1692.6 1442.74 1690.73 1443.37 1690.17 1444.67 1689.01 1445.3 1688.42L1446.2 1686.74C1446.7 1685.96 1447.73 1684.34 1448.26 1683.56L1449.41 1682C1450.04 1681.31 1451.28 1679.97 1451.91 1679.28 1452.62 1678.75 1454.06 1677.69 1454.74 1677.16 1455.58 1676.85 1457.24 1676.2 1458.05 1675.88 1458.95 1675.79 1460.79 1675.67 1461.72 1675.57 1462.57 1675.79 1464.25 1676.2 1465.06 1676.41L1468.18 1677.91 1469.77 1678.78C1470.58 1679.25 1472.26 1680.16 1473.07 1680.62 1474.35 1684.46 1476.22 1684.68 1478.71 1681.31L1480.05 1679.78C1480.89 1679.38 1482.64 1678.6 1483.48 1678.22 1484.38 1677.91 1486.19 1677.32 1487.1 1677.04 1488.62 1677.1 1491.71 1677.23 1493.27 1677.29 1494.11 1677.72 1495.76 1678.6 1496.57 1679.07 1497.29 1679.63 1498.66 1680.78 1499.38 1681.34 1500 1682.06 1501.25 1683.49 1501.84 1684.18L1502.99 1685.89C1503.55 1686.83 1504.61 1688.7 1505.18 1689.61L1506.2 1691.79C1506.83 1693.53 1508.01 1697.09 1508.6 1698.83 1509.01 1700.96 1509.76 1705.16 1510.16 1707.29 1509.82 1712.09 1510.41 1716.89 1512.09 1721.47 1513.12 1726.4 1513.44 1731.45 1513.75 1736.53L1513.87 1739.5C1513.12 1768.56 1512.97 1797.68 1513.81 1826.77L1513.78 1829.8C1513.4 1839.99 1514.28 1850.75 1511.57 1860.82 1511.75 1862.1 1512.09 1864.66 1512.25 1865.94 1511.41 1875.92 1511 1886.21 1510.29 1896.28 1510.01 1897.68 1509.41 1900.52 1509.1 1901.92 1508.73 1903.73 1508.01 1907.35 1507.64 1909.16 1507.67 1911.15 1507.79 1915.14 1507.86 1917.14 1508.32 1918.82 1509.32 1922.25 1509.79 1923.94L1510.51 1926.34C1510.82 1927.46 1511.5 1929.77 1511.85 1930.89 1513.31 1936.5 1513.68 1942.33 1513.65 1948.13 1513.09 1953.03 1513.68 1957.96 1515.18 1962.63 1515.74 1967.25 1515.52 1971.99 1514.5 1976.57 1514.06 1977.51 1513.19 1979.41 1512.72 1980.34L1512.56 1982.43C1512.16 1983.37 1511.32 1985.21 1510.88 1986.14L1509.98 1988.05C1509.54 1989.04 1508.64 1990.98 1508.2 1991.94L1507.29 1994.13C1504.8 1996.81 1503.77 1999.99 1504.21 2003.61 1504.08 2007.38 1503.87 2011.18 1503.59 2015.02 1503.02 2024.47 1502.37 2034.29 1503.02 2043.89 1503.31 2047.6 1503.59 2051.35 1503.8 2055.09 1503.46 2059.61 1504.43 2064.07 1506.27 2068.25 1506.61 2070.3 1507.33 2074.39 1507.67 2076.45 1508.14 2078.32 1509.07 2082.03 1509.54 2083.9 1509.82 2085.27 1510.38 2087.95 1510.66 2089.32 1510.66 2090.67 1510.69 2093.32 1510.69 2094.66L1510.85 2097.21 1513.19 2097.9 1513.75 2100.36C1514.68 2101.92 1516.52 2105.01 1517.43 2106.57 1519.89 2109.44 1523.04 2110.87 1526.84 2110.87L1529.46 2111.56C1531.17 2112.27 1534.57 2113.65 1536.28 2114.36L1538.81 2114.33 1541.21 2115.14C1542.3 2115.55 1544.48 2116.39 1545.57 2116.8L1547.78 2117.64C1548.75 2118.17 1550.65 2119.2 1551.62 2119.73L1553.93 2120.16 1556.14 2121.1C1557.23 2121.6 1559.38 2122.6 1560.44 2123.09L1562.68 2124.15C1563.74 2124.68 1565.89 2125.78 1566.99 2126.31L1569.2 2127.43C1570.23 2127.96 1572.35 2129.08 1573.38 2129.64L1575.49 2130.77C1576.49 2131.3 1578.46 2132.39 1579.42 2132.95 1580.3 2133.51 1582.04 2134.69 1582.91 2135.26L1584.97 2136C1585.84 2136.6 1587.62 2137.81 1588.49 2138.4L1590.61 2139.18C1591.61 2139.78 1593.57 2140.93 1594.57 2141.49L1596.66 2142.71C1597.63 2143.3 1599.59 2144.45 1600.56 2145.05 1601.43 2145.67 1603.21 2146.95 1604.08 2147.57L1606.23 2148.38C1607.2 2148.98 1609.19 2150.16 1610.16 2150.75L1612.24 2151.97C1613.21 2152.56 1615.14 2153.72 1616.14 2154.31L1619.63 2156.8 1621.78 2157.61C1622.78 2158.21 1624.81 2159.36 1625.8 2159.95L1627.95 2161.17C1628.98 2161.76 1631.04 2162.94 1632.07 2163.51L1634.22 2164.72C1635.19 2165.28 1637.18 2166.44 1638.18 2167 1639.05 2167.62 1640.8 2168.87 1641.67 2169.46L1643.85 2170.24C1644.85 2170.83 1646.87 2171.99 1647.87 2172.55L1649.99 2173.77C1651.05 2174.33 1653.11 2175.48 1654.14 2176.07L1656.26 2177.23C1657.22 2177.76 1659.16 2178.85 1660.12 2179.41 1660.99 2179.94 1662.74 2181.06 1663.61 2181.59L1665.61 2182.28C1666.48 2182.81 1668.26 2183.84 1669.13 2184.34L1671.19 2184.96C1672.09 2185.49 1673.93 2186.55 1674.86 2187.05L1677.23 2187.58 1679.63 2188.51C1681.44 2189.2 1685.09 2190.57 1686.9 2191.26L1689.55 2192.1C1691.42 2192.72 1695.16 2194 1697 2194.63L1699.68 2195.41C1702.79 2197.65 1706.28 2198.49 1710.15 2197.93 1711.49 2198.15 1714.23 2198.59 1715.6 2198.8 1718.57 2201.14 1721.93 2201.92 1725.67 2201.08L1728.29 2200.89C1729.63 2201.14 1732.34 2201.67 1733.68 2201.95 1736.96 2204.07 1740.54 2204.7 1744.44 2203.86 1750.17 2203.76 1756 2204.26 1761.61 2205.82 1762.76 2206.16 1765.07 2206.82 1766.22 2207.16L1768.62 2207.91C1771.46 2210.31 1774.7 2211.15 1778.38 2210.43 1783.06 2210.09 1787.76 2210.09 1792.5 2210.15 1797.39 2209.87 1807.18 2209.31 1812.08 2209 1846.89 2206.32 1881.8 2207.29 1916.68 2207.07L1919.61 2207.04C1930.33 2207.07 1941.24 2207.44 1952.03 2207.1L1954.99 2207.1C1965.62 2207.04 1976.47 2207.1 1987.19 2207.1 2012.9 2207.82 2038.71 2208.06 2064.37 2206.01 2065.64 2206.04 2068.17 2206.1 2069.42 2206.13 2075.03 2204.23 2080.98 2203.64 2086.87 2203.82 2090.74 2204.54 2094.26 2203.76 2097.47 2201.42L2100.02 2200.61C2101.71 2199.9 2105.04 2198.49 2106.73 2197.77L2109.03 2197.43C2109.97 2196.93 2111.81 2195.94 2112.74 2195.44L2114.92 2194.72C2116.05 2194.35 2118.23 2193.6 2119.32 2193.25L2121.75 2192.57 2124.34 2192.26C2128.83 2191.94 2133.38 2191.6 2137.9 2191.2L2142.51 2189.7C2143.85 2189.51 2146.56 2189.11 2147.93 2188.92 2152.76 2189.08 2157.6 2188.42 2162.18 2186.77 2164.45 2186.39 2168.97 2185.65 2171.22 2185.27L2174.24 2184.9C2185.68 2184.93 2197.31 2184.9 2208.81 2185.33 2210.24 2185.61 2213.17 2186.18 2214.61 2186.42 2216.38 2187.02 2219.94 2188.17 2221.68 2188.76L2224.24 2189.48C2226.01 2190.01 2229.54 2191.07 2231.28 2191.6 2232.62 2191.91 2235.27 2192.6 2236.58 2192.94 2238.39 2193.57 2242.04 2194.84 2243.84 2195.47L2246.31 2196.65C2248.11 2197.25 2251.76 2198.43 2253.57 2198.99 2254.1 2199.71 2255.16 2201.11 2255.69 2201.83L2257.34 2202.89C2258.06 2203.54 2259.52 2204.88 2260.24 2205.54 2260.92 2206.32 2262.26 2207.91 2262.92 2208.69 2263.54 2209.66 2264.76 2211.59 2265.38 2212.52L2266.53 2214.8C2267.19 2216.67 2268.47 2220.35 2269.09 2222.22 2269.75 2223.16 2271.05 2225 2271.71 2225.93L2272.55 2228.02C2273.2 2228.83 2274.48 2230.48 2275.11 2231.3 2275.82 2232.14 2277.23 2233.79 2277.94 2234.6L2279.5 2236.28C2280.25 2237.06 2281.78 2238.65 2282.52 2239.43L2283.83 2241.21C2284.64 2241.87 2286.27 2243.14 2287.08 2243.8 2287.95 2244.49 2289.73 2245.83 2290.6 2246.51L2292.56 2247.92C2293.53 2248.57 2295.49 2249.85 2296.46 2250.5L2298.52 2251.78C2299.51 2252.41 2301.48 2253.65 2302.44 2254.28L2304.41 2255.52C2305.28 2256.12 2307.02 2257.36 2307.9 2257.96 2308.58 2258.64 2309.99 2259.98 2310.7 2260.67L2312.32 2261.76C2312.92 2262.51 2314.07 2263.97 2314.63 2264.72L2315.13 2266.53C2315.47 2267.37 2316.13 2269.06 2316.44 2269.9 2316.44 2270.83 2316.5 2272.71 2316.5 2273.64 2316.25 2274.48 2315.72 2276.14 2315.47 2276.98 2314.94 2277.63 2313.88 2278.97 2313.38 2279.66 2312.57 2280.13 2310.98 2281.06 2310.17 2281.53L2308.15 2282.12C2305.12 2280.91 2302.01 2280.62 2298.86 2281.31L2296.55 2280.62C2295.49 2280.25 2293.34 2279.47 2292.28 2279.1L2290.07 2278.29C2289.01 2277.85 2286.83 2277.04 2285.77 2276.63L2283.37 2275.85C2279.5 2273.8 2275.2 2272.71 2270.87 2272.77L2268.4 2272.55 2266.04 2272.11C2265.04 2271.71 2263.07 2270.87 2262.08 2270.43 2256.81 2269.96 2251.57 2270.49 2246.43 2271.46 2234.02 2272.39 2221.65 2272.61 2209.31 2272.08 2200.36 2271.24 2191.7 2270.52 2182.84 2269.99L2180.04 2269.93C2175.18 2269.71 2170.38 2269.24 2165.64 2268.34 2160.15 2266.84 2154.45 2266.38 2148.84 2266.81 2143.01 2266.87 2137.15 2266.25 2131.57 2264.72 2130.32 2264.85 2127.8 2265.1 2126.52 2265.25 2107.35 2264.22 2088.18 2263.6 2068.98 2263.82L2066.08 2263.76C2047 2263.6 2028.02 2263.32 2009.01 2263.38 2000.28 2263.38 1991.55 2263.48 1982.89 2263.66 1969.52 2263.54 1956.21 2263.54 1942.87 2263.66L1940.09 2263.66C1931.43 2264.04 1923.04 2265.13 1914.5 2265.69 1910.82 2265.94 1907.21 2265.88 1903.59 2265.44 1899.2 2262.45 1893.68 2262.54 1889.41 2265.66 1881.65 2266.53 1873.92 2266.91 1866.19 2266.81 1861.42 2266.13 1856.65 2266.75 1852.19 2268.53 1850.01 2268.87 1845.61 2269.59 1843.4 2269.93L1840.44 2270.24C1825.73 2269.99 1811.08 2269.9 1796.4 2269.9L1793.44 2269.87 1790.63 2269.84C1781.97 2270.18 1773.49 2271.15 1764.88 2271.8 1759.59 2272.11 1748.96 2272.71 1743.66 2272.99 1737.58 2272.8 1731.5 2272.77 1725.45 2273.14 1715.79 2273.2 1706.28 2273.14 1696.68 2273.33L1693.66 2273.39C1681.01 2273.39 1668.41 2273.48 1655.79 2273.61 1650.8 2273.27 1645.78 2272.74 1640.95 2271.52 1639.18 2270.96 1635.59 2269.87 1633.81 2269.34 1632.44 2269.24 1629.73 2269.12 1628.36 2269.03 1621.22 2268.12 1614.08 2267.4 1606.95 2266.87L1604.61 2266.16 1603.21 2268.46C1598.31 2268.96 1593.32 2268.96 1588.56 2267.75 1586.65 2267.56 1582.85 2267.22 1580.95 2267.03 1580.11 2266.41 1578.43 2265.1 1577.61 2264.44 1576.24 2264.44 1573.5 2264.47 1572.1 2264.47 1570.63 2264.57 1567.7 2264.72 1566.24 2264.82 1562.37 2264.32 1558.85 2265.19 1555.64 2267.4L1553.27 2267.97C1552.37 2268.53 1550.53 2269.59 1549.59 2270.15L1547.54 2270.8C1546.66 2271.33 1544.89 2272.39 1544.01 2272.92L1541.99 2273.64C1541.11 2274.2 1539.37 2275.36 1538.5 2275.92 1537.5 2276.48 1535.53 2277.57 1534.54 2278.13L1532.39 2279.28C1531.33 2279.88 1529.21 2281.06 1528.18 2281.65L1525.97 2282.84C1524.94 2283.43 1522.88 2284.59 1521.85 2285.15L1519.67 2285.93C1518.8 2286.55 1517.02 2287.77 1516.12 2288.36L1514.03 2289.14C1513.15 2289.73 1511.38 2290.92 1510.51 2291.54 1509.54 2292.1 1507.58 2293.25 1506.61 2293.81L1504.52 2295.03C1503.52 2295.59 1501.53 2296.78 1500.53 2297.37L1498.38 2298.15C1497.48 2298.8 1495.7 2300.05 1494.83 2300.71 1493.8 2301.3 1491.77 2302.45 1490.77 2303.04L1488.56 2304.26C1487.5 2304.85 1485.35 2306.07 1484.29 2306.66L1482.08 2307.88C1481.02 2308.44 1478.96 2309.59 1477.9 2310.15L1475.72 2310.9C1474.82 2311.5 1473.01 2312.65 1472.1 2313.24L1470.05 2313.93C1469.14 2314.46 1467.4 2315.55 1466.49 2316.08L1464.47 2316.73C1463.59 2317.23 1461.82 2318.26 1460.95 2318.79L1458.86 2319.29C1457.92 2319.82 1456.08 2320.85 1455.18 2321.38L1453.03 2322.32 1448.66 2324.19 1446.26 2325.15C1444.42 2325.84 1440.81 2327.18 1439 2327.87L1436.35 2328.8C1434.48 2329.42 1430.77 2330.7 1428.93 2331.36L1426.25 2332.2C1424.41 2332.82 1420.77 2334.1 1418.93 2334.73L1416.31 2335.54C1414.53 2336.13 1411.01 2337.31 1409.23 2337.88L1406.87 2338.65 1404.59 2339.25C1403.94 2339.9 1402.56 2341.21 1401.91 2341.87 1400.16 2342.24 1396.7 2343.02 1394.96 2343.43L1392.71 2344.55C1391.62 2345.02 1389.47 2345.98 1388.38 2346.48L1386.04 2347.42C1384.36 2348.04 1380.93 2349.32 1379.25 2349.94L1376.72 2350.75C1374.98 2351.38 1371.52 2352.56 1369.77 2353.15L1367.25 2353.96C1365.5 2354.56 1362.04 2355.74 1360.3 2356.33L1357.8 2357.11C1356.06 2357.71 1352.63 2358.89 1350.88 2359.48L1348.36 2360.23C1346.61 2360.76 1343.09 2361.85 1341.35 2362.41 1340.01 2362.73 1337.39 2363.32 1336.08 2363.6 1334.3 2364.07 1330.69 2365 1328.88 2365.47 1327.54 2365.72 1324.89 2366.22 1323.55 2366.44 1319.81 2365.66 1316.41 2366.38 1313.32 2368.59 1311.98 2368.84 1309.3 2369.34 1307.93 2369.59 1304.16 2368.81 1300.73 2369.52 1297.58 2371.74 1296.21 2371.99 1293.5 2372.52 1292.16 2372.77 1288.36 2372.08 1284.9 2372.86 1281.78 2375.07 1280.44 2375.36 1277.79 2375.95 1276.45 2376.23L1273.86 2375.82C1272.12 2376.38 1268.66 2377.51 1266.91 2378.07 1265.57 2378.26 1262.83 2378.6 1261.46 2378.79 1256.81 2378.47 1252.2 2379.22 1247.96 2381.12 1246.62 2381.4 1243.91 2382 1242.57 2382.28 1240.7 2382.68 1237.02 2383.46 1235.15 2383.87 1233.81 2384.12 1231.13 2384.59 1229.79 2384.83L1227.11 2385.12C1219.69 2385.58 1212.27 2386.33 1204.91 2387.36L1202.14 2387.61C1200.27 2388.23 1196.53 2389.54 1194.63 2390.2 1185.4 2390.95 1176.08 2391.54 1166.89 2390.23 1165.8 2389.86 1163.55 2389.11 1162.46 2388.73 1158.19 2388.73 1153.89 2388.83 1149.65 2389.11 1148.56 2389.48 1146.38 2390.29 1145.29 2390.7 1143.98 2390.95 1141.33 2391.45 1140.02 2391.69 1138.05 2392.16 1134.16 2393.04 1132.19 2393.47L1129.26 2393.94C1125.37 2393.88 1121.44 2393.97 1117.54 2394.25L1114.8 2394.25 1112.12 2394.03 1111.16 2391.63 1108.41 2391.73C1106.98 2391.85 1104.08 2392.07 1102.65 2392.19 1097.5 2392.1 1092.36 2391.51 1087.37 2390.32 1084.13 2388.11 1080.58 2387.42 1076.74 2388.26 1075.47 2388.05 1072.85 2387.64 1071.57 2387.45 1067.08 2384.46 1061.53 2384.43 1056.98 2387.27 1053.12 2387.98 1049.22 2388.42 1045.29 2388.51 1040.43 2388.48 1035.54 2388.61 1030.67 2388.95L1028.06 2388.42 1026.68 2390.67C1024.6 2390.98 1020.42 2391.6 1018.36 2391.91L1015.62 2391.48C1013.75 2392.04 1010.04 2393.16 1008.17 2393.75 1006.67 2393.94 1003.62 2394.31 1002.12 2394.47 996.605 2394.66 985.602 2395 980.085 2395.16L977.124 2395.19C975.69 2395.16 972.791 2395.06 971.326 2395.03L968.614 2394.69C964.843 2393.69 961.445 2394.41 958.391 2396.84 957.05 2397.12 954.37 2397.65 952.998 2397.93 951.159 2398.37 947.481 2399.3 945.642 2399.74 944.27 2400.02 941.559 2400.52 940.187 2400.77 936.385 2399.96 932.8 2400.58 929.527 2402.7 925.662 2403.17 921.828 2403.14 917.994 2402.64L910.607 2402.64 908.269 2403.2C907.241 2403.54 905.183 2404.26 904.186 2404.6L902.285 2405.48C901.412 2405.91 899.635 2406.76 898.762 2407.16 897.921 2407.6 896.207 2408.5 895.365 2408.94L893.401 2409.38C892.497 2409.9 890.721 2410.9 889.848 2411.4 888.663 2411.84 886.326 2412.65 885.172 2413.09 883.364 2413.68 879.78 2414.89 878.003 2415.49L875.416 2416.27C874.169 2416.64 871.676 2417.33 870.429 2417.7 865.66 2419.13 860.704 2419.95 855.748 2420.32 853.877 2420.76 850.168 2421.66 848.298 2422.1L845.929 2422.6 843.685 2422.47C842.719 2422.72 840.849 2423.22 839.882 2423.5 838.417 2423.13 835.487 2422.41 834.022 2422.03 833.118 2421.88 831.373 2421.5 830.5 2421.35L831.435 2419.98C831.903 2419.32 832.838 2417.98 833.305 2417.3 833.929 2416.64 835.144 2415.33 835.768 2414.68L837.482 2413.49C838.479 2412.96 840.443 2411.93 841.441 2411.43 842.126 2410.59 843.529 2408.94 844.215 2408.1 845.399 2406.76 847.831 2404.11 849.015 2402.76L850.823 2401.39C851.259 2400.55 852.101 2398.84 852.506 2397.99 854.096 2397.25 857.244 2395.72 858.833 2394.94L860.641 2393.35 863.758 2390.23C864.631 2389.57 866.314 2388.33 867.156 2387.67 867.717 2386.61 868.87 2384.46 869.432 2383.37L870.522 2381.12 872.424 2379.38C873.764 2378.19 876.413 2375.82 877.723 2374.64L879.905 2373.95C880.622 2373.3 882.086 2372.02 882.803 2371.4 883.208 2370.37 884.05 2368.37 884.455 2367.37 885.079 2366.62 886.357 2365.1 886.98 2364.35 887.635 2363.63 888.913 2362.23 889.567 2361.51 890.253 2360.76 891.687 2359.3 892.372 2358.55 893.245 2357.74 894.991 2356.12 895.864 2355.34 897.266 2354.18 900.04 2351.91 901.412 2350.75 902.565 2349.35 904.84 2346.57 905.994 2345.2L906.524 2342.58C909.921 2343.49 912.882 2342.61 915.407 2339.9 916.56 2339.5 918.898 2338.69 920.052 2338.25L924.789 2333.88 925.444 2331.79C925.6 2330.77 925.943 2328.74 926.13 2327.71 926.099 2326.06 926.067 2322.75 926.067 2321.1 930.088 2321.57 933.548 2319.2 936.665 2317.01L938.66 2316.05C939.595 2315.58 941.497 2314.61 942.432 2314.15 943.522 2313.74 945.673 2312.9 946.733 2312.49 956.988 2310.34 967.555 2309.97 977.996 2310 983.358 2310.19 988.719 2310.22 994.08 2309.59L997.073 2309.34C998.569 2309.28 1001.59 2309.13 1003.09 2309.03 1004.43 2308.91 1007.17 2308.63 1008.51 2308.5 1009.51 2307.94 1011.44 2306.79 1012.41 2306.19L1014.56 2305.57C1015.46 2305.04 1017.21 2303.95 1018.08 2303.42 1018.99 2302.86 1020.82 2301.77 1021.76 2301.21L1023.66 2300.05C1024.6 2299.49 1026.4 2298.34 1027.34 2297.77 1028.21 2297.18 1029.99 2296.03 1030.89 2295.44L1032.86 2294.59C1033.67 2293.97 1035.35 2292.75 1036.16 2292.16 1037.13 2291.57 1039 2290.45 1039.96 2289.89L1042.02 2288.7C1043.05 2288.14 1045.14 2286.99 1046.17 2286.43L1048.35 2285.27C1049.44 2284.68 1051.56 2283.56 1052.62 2283L1054.89 2281.84C1055.95 2281.28 1058.1 2280.13 1059.19 2279.56L1061.44 2278.41C1062.5 2277.82 1064.62 2276.67 1065.68 2276.1L1067.83 2274.92C1068.83 2274.33 1070.82 2273.17 1071.82 2272.61L1073.88 2271.74 1077.24 2269.24C1078.15 2268.68 1079.92 2267.5 1080.8 2266.91L1082.73 2265.97C1083.54 2265.35 1085.16 2264.07 1085.97 2263.44 1086.84 2262.82 1088.56 2261.6 1089.43 2260.98 1090.3 2260.33 1092.08 2259.05 1092.98 2258.39L1094.82 2257.08C1095.69 2256.43 1097.44 2255.15 1098.28 2254.53 1099.09 2253.87 1100.68 2252.56 1101.49 2251.88L1103.05 2250.53C1103.42 2249.72 1104.2 2248.07 1104.58 2247.26L1108.97 2242.86C1108.66 2241.83 1108.07 2239.78 1107.79 2238.78L1107.73 2236.32C1107.51 2234.51 1107.1 2230.89 1106.88 2229.11 1106.92 2227.8 1107.01 2225.18 1107.04 2223.87 1107.48 2222.22 1108.41 2218.89 1108.85 2217.2 1109.1 2216.14 1109.6 2214.05 1109.85 2212.99 1113.37 2210.72 1113.27 2208.63 1109.57 2206.72 1109.28 2205.76 1108.69 2203.79 1108.41 2202.8 1108.13 2201.77 1107.57 2199.71 1107.29 2198.68 1107.38 2195.19 1107.23 2191.73 1106.85 2188.33 1107.32 2187.58 1108.19 2186.11 1108.66 2185.36L1109.07 2183.59C1109.28 2182.75 1109.72 2181.09 1109.94 2180.25 1110.16 2179.47 1110.56 2177.91 1110.75 2177.13 1110.69 2176.32 1110.56 2174.7 1110.47 2173.89 1110.13 2173.2 1109.38 2171.83 1109.04 2171.15 1108.54 2170.46 1107.54 2169.15 1107.04 2168.5L1105.67 2167.22C1104.92 2166.56 1103.42 2165.28 1102.68 2164.63 1100.71 2162.01 1098.16 2160.26 1095.04 2159.42 1094.23 2158.55 1092.67 2156.83 1091.86 2155.96L1090.43 2153.87C1089.62 2152.16 1088 2148.69 1087.19 2146.98 1086.69 2145.7 1085.75 2143.08 1085.25 2141.8 1084.44 2140.18 1082.79 2136.94 1081.98 2135.32 1081.36 2134.44 1080.17 2132.7 1079.58 2131.83 1078.99 2131.05 1077.83 2129.46 1077.24 2128.68 1076.68 2127.9 1075.56 2126.31 1075 2125.53 1074.41 2124.68 1073.22 2123 1072.66 2122.16 1072.07 2121.19 1070.88 2119.26 1070.29 2118.29L1069.67 2116.14 1069.14 2113.99 1066.74 2113.49 1065.05 2111.59C1063.75 2110.31 1061.16 2107.75 1059.85 2106.47L1059.54 2103.95C1058.6 2102.42 1056.7 2099.33 1055.73 2097.77L1055.11 2095.16C1054.74 2093.22 1054.02 2089.39 1053.65 2087.45 1053.46 2083.68 1053.93 2080 1055.08 2076.45 1055.52 2075.35 1056.42 2073.2 1056.86 2072.14L1057.92 2070.18C1058.45 2069.34 1059.54 2067.65 1060.07 2066.81 1060.6 2066.09 1061.59 2064.6 1062.12 2063.85 1062.59 2063.16 1063.56 2061.82 1064.03 2061.14 1064.49 2060.51 1065.37 2059.27 1065.83 2058.61 1066.27 2058.05 1067.11 2056.93 1067.55 2056.37 1068.05 2055.93 1069.04 2055.02 1069.54 2054.59L1067.67 2054C1065.52 2049.69 1060.44 2048.88 1056.64 2051.47L1054.55 2052.03 1052.46 2052.31C1051.59 2052.72 1049.81 2053.5 1048.94 2053.9L1046.91 2054.56C1045.88 2054.84 1043.8 2055.4 1042.74 2055.68L1040.4 2055.99C1038.53 2055.96 1034.76 2055.84 1032.89 2055.77L1032.05 2053.22 1031.27 2050.69C1030.3 2043.42 1029.33 2036.19 1028.4 2029.05L1028.27 2026.49C1031.33 2023.28 1030.33 2018.39 1026.68 2016.2L1026.09 2013.96C1025.78 2012.9 1025.19 2010.78 1024.88 2009.72L1024.32 2007.5C1023.91 2006.47 1023.16 2004.39 1022.79 2003.36L1021.57 2001.3C1022.04 2000.46 1022.97 1998.74 1023.44 1997.9 1022.69 1996.43 1021.23 1993.47 1020.51 1992.01L1020.45 1989.64C1020.01 1988.64 1019.17 1986.58 1018.74 1985.55 1018.27 1983.68 1017.27 1979.91 1016.77 1978.04 1016.43 1976.88 1015.71 1974.54 1015.37 1973.39L1015.18 1970.93C1015.43 1967.28 1014.37 1964.13 1012 1961.45L1011.22 1959.11C1010.82 1957.99 1010.04 1955.77 1009.67 1954.68L1008.89 1952.31C1008.48 1950.57 1007.7 1947.07 1007.3 1945.33L1007.27 1942.77C1007.36 1941.02 1007.48 1937.53 1007.55 1935.79 1011.01 1933.38 1010.82 1931.33 1006.92 1929.61 1006.49 1928.8 1005.61 1927.21 1005.18 1926.4 1004.8 1925.65 1004.02 1924.09 1003.62 1923.31 1003.28 1922.47 1002.59 1920.72 1002.25 1919.85L1001.75 1917.73C1001.62 1916.02 1001.41 1912.55 1001.28 1910.81L1001.03 1908.22C1000.66 1906.38 999.909 1902.67 999.535 1900.83 999.317 1898.8 998.818 1894.78 998.569 1892.75 997.79 1891.1 996.262 1887.77 995.483 1886.11 995.14 1884.93 994.423 1882.62 994.08 1881.47L993.644 1878.91C993.332 1876.82 992.678 1872.64 992.335 1870.52 992.21 1869.12 991.961 1866.25 991.867 1864.82L992.522 1862.2 993.208 1859.7 991.15 1858.2C991.119 1856.86 991.119 1854.18 991.088 1852.84 990.995 1851 990.776 1847.29 990.652 1845.45L989.935 1843.21C989.529 1842.27 988.75 1840.34 988.345 1839.4 987.878 1838.59 986.911 1836.97 986.413 1836.16 985.945 1835.35 984.948 1833.76 984.449 1832.98 983.919 1832.11 982.89 1830.36 982.36 1829.49 981.737 1827.83 980.49 1824.56 979.867 1822.91 979.649 1821.66 979.181 1819.1 978.932 1817.86 978.776 1816.67 978.433 1814.3 978.246 1813.12 977.965 1811.96 977.435 1809.59 977.155 1808.41 976.843 1807.38 976.251 1805.29 975.94 1804.26 975.565 1803.29 974.817 1801.39 974.443 1800.46L974.007 1798.46C973.633 1797.59 972.885 1795.78 972.511 1794.87L972.386 1792.88C972.136 1791.94 971.638 1790.01 971.388 1789.07L971.202 1786.95C971.295 1785.96 971.451 1783.93 971.544 1782.9L971.264 1780.78C971.295 1779.72 971.326 1777.57 971.357 1776.48L971.295 1774.23 971.42 1772.08C971.233 1771.08 970.828 1769.15 970.641 1768.15L970.267 1766.16C969.768 1765.41 968.77 1763.91 968.272 1763.13 968.053 1761.2 967.617 1757.27 967.399 1755.31 966.557 1751.59 966.495 1747.88 967.181 1744.17 967.399 1743.02 967.866 1740.71 968.085 1739.56L969.893 1738.09C973.82 1735.41 973.602 1733.51 969.269 1732.32L969.082 1729.99C968.895 1728.89 968.459 1726.71 968.272 1725.62L967.742 1723.41 967.679 1721.19C967.336 1720.23 966.651 1718.26 966.308 1717.29L965.934 1715.02C965.996 1713.3 966.152 1709.9 966.245 1708.19L966.651 1706.16C967.087 1705.35 967.991 1703.79 968.427 1703.01L969.83 1701.98C970.672 1701.8 972.324 1701.45 973.165 1701.27L975.004 1701.02C980.366 1704.82 983.514 1696.4 977.186 1695.31L976.906 1692.85C976.282 1691.23 974.973 1687.95 974.319 1686.3 973.82 1684.55 972.822 1681 972.324 1679.25 972.136 1677.91 971.731 1675.23 971.544 1673.89 971.762 1671.96 972.23 1668.12 972.448 1666.19L973.539 1664.04C974.319 1663.26 975.846 1661.7 976.625 1660.92L978.62 1659.89 980.771 1659.33C981.893 1659.2 984.106 1659.02 985.228 1658.89 989.81 1663.01 996.636 1659.86 992.21 1653.84 992.21 1652.65 992.179 1650.28 992.179 1649.1 991.774 1647.45 990.932 1644.08 990.527 1642.4L989.966 1639.93C990.714 1636.44 990.122 1633.23 988.189 1630.27L988.314 1625.28C988.937 1623.72 990.122 1620.6 990.714 1619.04 991.556 1618.39 993.177 1617.01 994.018 1616.33L997.634 1613.58C998.351 1612.27 999.784 1609.62 1000.5 1608.31 999.878 1607.66 998.694 1606.32 998.101 1605.66 998.133 1603.95 998.226 1600.55 998.288 1598.83L997.603 1596.28C997.977 1594.44 998.725 1590.73 999.068 1588.89 999.317 1586.7 999.815 1582.34 1000.06 1580.13 1000.88 1579.6 1002.5 1578.57 1003.28 1578.04 1003.62 1576.91 1004.3 1574.73 1004.62 1573.61 1007.73 1574.08 1010.88 1574.39 1014.03 1574.54 1014.87 1575.11 1016.55 1576.29 1017.43 1576.85 1018.14 1577.54 1019.61 1578.88 1020.33 1579.56L1021.73 1581C1022.38 1581.72 1023.69 1583.09 1024.38 1583.8 1025.03 1584.43 1026.34 1585.71 1027 1586.33 1027.65 1586.89 1029.02 1588.05 1029.68 1588.61 1030.42 1589.07 1031.86 1590.01 1032.61 1590.48 1033.45 1590.7 1035.1 1591.13 1035.94 1591.35L1037.75 1591.44C1038.62 1591.26 1040.34 1590.91 1041.21 1590.73 1041.99 1590.2 1043.55 1589.11 1044.36 1588.58 1044.95 1587.23 1046.17 1584.52 1046.76 1583.15 1046.23 1582.4 1045.17 1580.84 1044.64 1580.06L1045.51 1578.19C1045.6 1577.23 1045.73 1575.26 1045.79 1574.26 1046.17 1572.61 1046.88 1569.27 1047.26 1567.59 1047.54 1566.59 1048.07 1564.57 1048.32 1563.54L1050.31 1563.47C1051.21 1563.13 1053.05 1562.48 1053.96 1562.17L1056.08 1561.79 1058.29 1561.85 1060.41 1562.48C1061.35 1562.91 1063.22 1563.82 1064.15 1564.25 1064.99 1564.82 1066.68 1565.97 1067.52 1566.53 1068.3 1567.19 1069.89 1568.46 1070.67 1569.12 1071.44 1569.8 1072.97 1571.21 1073.75 1571.89 1074.5 1572.64 1076.03 1574.14 1076.81 1574.89 1077.55 1575.64 1079.05 1577.19 1079.8 1577.97 1080.58 1578.79 1082.07 1580.38 1082.82 1581.19 1083.54 1582 1085.03 1583.65 1085.78 1584.46 1086.5 1585.33 1087.93 1587.02 1088.65 1587.89L1089.77 1589.85C1090.49 1590.63 1091.95 1592.22 1092.67 1593 1093.36 1593.88 1094.7 1595.62 1095.38 1596.5 1096.04 1597.37 1097.41 1599.15 1098.06 1600.02L1099.12 1602.02C1099.81 1602.83 1101.18 1604.45 1101.87 1605.23 1102.52 1606.1 1103.83 1607.85 1104.48 1608.72 1105.14 1609.62 1106.45 1611.37 1107.1 1612.24L1108.44 1614.05C1109.07 1614.92 1110.31 1616.61 1110.94 1617.45 1111.53 1618.2 1112.71 1619.76 1113.31 1620.51 1113.84 1621.25 1114.96 1622.75 1115.49 1623.5L1116.39 1625.12C1116.98 1625.74 1118.17 1627.05 1118.79 1627.71 1123.03 1633.48 1129.14 1627.83 1124.46 1622.69L1123.69 1620.38C1122.94 1618.79 1121.44 1615.58 1120.69 1613.99 1120.04 1612.27 1118.76 1608.84 1118.11 1607.13 1117.67 1605.91 1116.8 1603.51 1116.36 1602.33 1115.92 1601.27 1115.08 1599.15 1114.65 1598.09L1113.8 1596 1113.27 1593.91C1112.81 1593.03 1111.84 1591.35 1111.37 1590.48 1110.91 1589.54 1110.03 1587.7 1109.57 1586.77L1108.69 1584.74C1108.29 1583.68 1107.41 1581.53 1106.98 1580.47L1106.17 1578.01C1105.92 1575.89 1105.45 1571.61 1105.23 1569.49 1104.42 1561.07 1104.8 1552.81 1106.32 1544.67 1107.63 1543.49 1110.28 1541.12 1111.59 1539.93Z" stroke="#000000" stroke-width="0.291962" stroke-miterlimit="8" fill-rule="evenodd"/></g></svg>