<svg width="1891" height="1154" xmlns="http://www.w3.org/2000/svg" xmlns:xlink="http://www.w3.org/1999/xlink" xml:space="preserve" overflow="hidden"><defs><clipPath id="clip0"><rect x="1714" y="836" width="1891" height="1154"/></clipPath></defs><g clip-path="url(#clip0)" transform="translate(-1714 -836)"><path d="M3476.06 837.5 3478.37 837.936C3479.55 838.217 3481.89 838.716 3483.07 838.966 3482.89 840.712 3482.54 844.237 3482.36 846.015 3482.01 846.95 3481.3 848.821 3480.96 849.757L3480.74 851.785C3480.24 852.689 3479.18 854.435 3478.68 855.34L3477.47 857.087C3476.84 857.929 3475.56 859.582 3474.94 860.393 3474.26 861.172 3472.89 862.732 3472.23 863.512 3471.48 864.26 3470.02 865.726 3469.3 866.474 3468.52 867.223 3466.97 868.658 3466.19 869.375 3465.34 870.061 3463.72 871.465 3462.88 872.151L3460.95 873.211C3460.17 873.897 3458.58 875.27 3457.77 875.925 3456.9 876.549 3455.12 877.796 3454.22 878.42L3452.2 879.293C3451.32 879.948 3449.64 881.258 3448.77 881.882 3447.8 882.506 3445.84 883.691 3444.84 884.283L3442.72 885.531C3441.7 886.124 3439.61 887.34 3438.55 887.964L3436.4 889.18C3435.4 889.773 3433.35 890.958 3432.35 891.519L3430.17 892.299C3429.29 892.923 3427.52 894.17 3426.65 894.794 3425.65 895.387 3423.66 896.509 3422.66 897.102L3420.54 898.287C3419.48 898.849 3417.42 900.034 3416.36 900.626L3414.21 901.812 3410.23 904.057 3408.11 904.806C3407.23 905.398 3405.49 906.584 3404.62 907.145L3402.59 907.862C3401.72 908.455 3400.01 909.578 3399.13 910.139 3398.17 910.701 3396.24 911.761 3395.27 912.322L3393.15 913.414C3392.12 913.975 3390.04 915.098 3389.01 915.66L3386.83 916.783C3385.74 917.344 3383.62 918.436 3382.56 918.997L3380.31 920.119C3379.25 920.65 3377.1 921.742 3376.05 922.272L3373.8 923.363C3372.71 923.862 3370.56 924.923 3369.5 925.453L3367.29 926.482C3366.23 926.981 3364.11 927.948 3363.05 928.447L3360.87 929.414 3358.66 929.975C3357.76 930.474 3355.95 931.504 3355.04 932.003L3352.96 932.439C3352.02 932.938 3350.22 933.937 3349.28 934.436L3347.13 935.309C3346.04 935.745 3343.86 936.65 3342.8 937.118L3340.37 938.053C3338.53 938.74 3334.82 940.112 3332.98 940.798L3330.31 941.703C3328.4 942.326 3324.57 943.636 3322.67 944.26L3320.02 945.102 3317.31 945.164C3315.66 945.882 3312.33 947.379 3310.64 948.096L3308.37 948.969C3307.37 949.375 3305.35 950.248 3304.35 950.654L3302.42 951.589 3300.58 952.338C3299.83 952.837 3298.37 953.897 3297.62 954.396 3296.97 955.051 3295.66 956.392 3295 957.047 3291.3 958.514 3290.98 960.509 3294.04 963.005 3294.72 963.691 3296.12 965.063 3296.81 965.749 3299.8 969.679 3305 969.773 3308.93 967.153L3311.42 966.591C3313.23 966.092 3316.85 965.126 3318.65 964.627 3320.02 964.346 3322.76 963.784 3324.1 963.504 3326.13 963.441 3330.18 963.285 3332.21 963.223 3333.27 962.693 3335.38 961.695 3336.44 961.164 3337.78 960.977 3340.46 960.541 3341.8 960.322 3345.64 960.915 3349.19 960.198 3352.55 958.17 3353.92 957.89 3356.67 957.297 3358.07 957.016 3359.38 956.985 3362.02 956.954 3363.36 956.923 3364.36 956.361 3366.32 955.207 3367.29 954.646L3369.81 954.116C3371.62 953.617 3375.2 952.588 3377.01 952.089 3378.35 951.745 3381.03 951.09 3382.37 950.747 3384.21 950.186 3387.85 949.094 3389.69 948.533L3392.31 947.784C3394.09 947.161 3397.67 945.944 3399.48 945.352L3402.03 944.541C3403.78 943.917 3407.27 942.701 3408.98 942.108L3411.38 941.328 3413.78 941.172C3414.71 940.673 3416.61 939.675 3417.55 939.176L3419.95 938.428C3421.66 937.773 3425.12 936.4 3426.83 935.714 3428.61 934.997 3432.19 933.594 3433.97 932.876L3436.49 931.847C3438.14 931.036 3441.48 929.445 3443.13 928.634L3445.28 927.855C3446.12 927.293 3447.77 926.139 3448.58 925.547 3449.42 925.016 3451.11 923.956 3451.98 923.426 3452.85 922.896 3454.6 921.804 3455.47 921.274L3457.43 920.213C3458.4 919.714 3460.36 918.654 3461.33 918.155L3463.48 917.126C3464.53 916.658 3466.68 915.691 3467.78 915.223L3470.17 914.318C3471.45 914.194 3474.01 913.913 3475.28 913.788L3479.4 911.418 3481.98 910.826C3485.75 911.106 3489.27 910.202 3492.48 908.112L3495.19 907.426C3496.5 907.332 3499.18 907.207 3500.52 907.114 3501.52 906.521 3503.51 905.367 3504.54 904.775L3507.07 904.12C3508.87 903.527 3512.52 902.373 3514.33 901.78L3516.94 900.907C3518.72 900.221 3522.27 898.818 3524.05 898.131L3526.42 897.133C3527.51 896.634 3529.66 895.636 3530.71 895.137L3532.9 894.139C3533.92 893.609 3536.01 892.58 3537.04 892.081L3539.16 891.02C3540.19 890.521 3542.24 889.461 3543.27 888.931L3545.42 887.839C3546.45 887.309 3548.48 886.248 3549.5 885.687L3551.59 884.595C3552.59 884.096 3554.55 883.036 3555.55 882.537L3557.6 881.82C3558.48 881.258 3560.22 880.198 3561.06 879.636L3563.06 879.012C3563.93 878.482 3565.67 877.484 3566.55 876.954L3568.6 876.455C3569.51 875.925 3571.31 874.896 3572.22 874.396L3574.34 873.461 3578.7 871.589 3581.1 870.623C3583.03 870.03 3586.83 868.907 3588.73 868.315 3590.1 867.691 3592.81 866.412 3594.18 865.757 3597.3 868.751 3600.42 871.745 3603.5 874.865L3602.53 876.86 3601.48 878.825C3600.91 879.73 3599.79 881.508 3599.23 882.412 3598.61 883.192 3597.36 884.814 3596.74 885.625 3596.05 886.404 3594.68 887.933 3594.03 888.712 3593.28 889.461 3591.85 890.989 3591.13 891.738L3588.14 894.732C3587.36 895.48 3585.83 897.008 3585.05 897.757 3584.24 898.475 3582.66 899.972 3581.85 900.72 3581.04 901.437 3579.38 902.903 3578.54 903.621 3577.7 904.338 3575.99 905.742 3575.12 906.459L3573.12 907.519C3572.31 908.205 3570.69 909.609 3569.88 910.326 3568.95 910.95 3567.11 912.229 3566.2 912.884L3564.09 913.788C3563.21 914.474 3561.47 915.816 3560.56 916.502 3559.57 917.094 3557.54 918.342 3556.51 918.966L3554.33 920.244C3553.27 920.868 3551.15 922.085 3550.13 922.709L3547.82 923.519C3546.89 924.143 3545.02 925.39 3544.05 926.046L3541.84 926.763C3540.87 927.387 3539 928.572 3538.04 929.165L3535.82 929.882C3534.86 930.474 3532.96 931.659 3532.02 932.221L3529.81 932.938C3528.85 933.531 3526.94 934.685 3526.01 935.246L3523.8 935.964C3522.86 936.525 3520.99 937.648 3520.06 938.24L3517.88 938.927C3516.97 939.457 3515.1 940.58 3514.17 941.141L3512.02 941.796C3511.12 942.357 3509.28 943.449 3508.34 944.01L3506.16 944.572C3505.2 945.164 3503.33 946.319 3502.39 946.911 3500.68 947.691 3497.25 949.25 3495.54 950.03L3493.14 951.122C3492.05 951.652 3489.8 952.712 3488.68 953.211L3486.38 954.272C3485.29 954.771 3483.07 955.769 3481.95 956.268L3479.58 957.297C3477.93 958.046 3474.6 959.511 3472.95 960.26L3470.64 960.697C3469.71 961.227 3467.9 962.287 3466.97 962.818L3464.85 963.691C3463.79 964.159 3461.67 965.063 3460.61 965.5L3458.27 966.435C3456.56 967.184 3453.16 968.65 3451.45 969.367 3449.73 970.053 3446.28 971.426 3444.56 972.112L3442.16 972.985 3439.76 973.234C3438.83 973.734 3436.93 974.763 3435.99 975.293L3433.59 976.042C3431.91 976.697 3428.48 978.007 3426.77 978.693 3424.96 979.285 3421.41 980.502 3419.6 981.094 3418.33 981.5 3415.71 982.28 3414.43 982.654 3412.75 983.246 3409.42 984.463 3407.76 985.055L3405.93 986.334C3405.21 987.02 3403.81 988.361 3403.12 989.047 3402.84 989.921 3402.25 991.605 3401.97 992.478 3401.94 993.414 3401.81 995.348 3401.75 996.314L3401.59 998.217 3403.87 998.498 3406.21 998.81C3409.57 999.215 3413 999.777 3416.4 1000.46 3418.2 1000.03 3421.79 999.215 3423.56 998.81L3426.18 998.186C3429.95 998.747 3433.38 997.936 3436.55 995.753 3438.67 995.441 3442.91 994.817 3445.03 994.506 3448.86 995.223 3452.41 994.474 3455.72 992.26 3457.06 991.948 3459.77 991.262 3461.11 990.95 3462.88 990.326 3466.4 989.141 3468.18 988.517L3470.52 987.675C3471.58 987.27 3473.73 986.427 3474.79 985.991L3476.97 985.211 3479.24 984.962C3480.18 984.494 3482.08 983.527 3483.01 983.028L3485.38 982.311C3487.16 981.749 3490.71 980.626 3492.48 980.034L3495.07 979.316C3496.38 979.285 3499 979.16 3500.3 979.129 3501.33 978.537 3503.36 977.414 3504.35 976.853 3505.66 976.572 3508.28 976.011 3509.56 975.761 3511.43 975.293 3515.14 974.357 3517.01 973.889 3518.35 973.578 3521.06 972.923 3522.4 972.611 3524.2 972.081 3527.82 971.02 3529.62 970.459L3532.18 969.71 3539.16 967.34 3541.65 966.591C3543.4 965.999 3546.82 964.814 3548.54 964.221L3551.06 963.473C3552.81 962.849 3556.26 961.663 3557.98 961.071L3560.53 960.322C3562.34 959.761 3565.92 958.669 3567.7 958.108 3569.04 957.796 3571.72 957.172 3573.06 956.86 3574.9 956.392 3578.6 955.457 3580.44 954.989 3581.78 954.739 3584.43 954.24 3585.77 953.991L3588.39 954.178C3592.66 954.958 3596.96 955.8 3601.35 956.361 3601.26 958.108 3601.1 961.601 3601.01 963.348 3600.48 964.252 3599.45 966.03 3598.92 966.934 3598.33 967.714 3597.11 969.242 3596.52 970.022 3595.84 970.74 3594.53 972.205 3593.87 972.923L3591.01 975.668C3590.26 976.354 3588.73 977.695 3587.98 978.381L3584.74 981.001 3582.81 981.936C3582.03 982.591 3580.41 983.901 3579.6 984.556 3578.67 985.149 3576.77 986.334 3575.83 986.927L3573.78 988.112C3572.75 988.704 3570.69 989.858 3569.66 990.42L3567.48 991.542C3566.42 992.073 3564.3 993.165 3563.28 993.695L3561.06 994.724C3560 995.223 3557.88 996.221 3556.86 996.689L3554.64 997.656 3552.37 998.061C3551.44 998.591 3549.57 999.621 3548.63 1000.15L3546.45 1000.99 3542.09 1002.74 3539.66 1003.64C3537.85 1004.33 3534.24 1005.67 3532.43 1006.33L3529.81 1007.29C3528 1008.04 3524.42 1009.54 3522.61 1010.29 3520.87 1011.07 3517.41 1012.63 3515.7 1013.41L3513.39 1014.47C3512.36 1015 3510.31 1016.03 3509.28 1016.53L3507.28 1017.55C3506.35 1018.05 3504.45 1018.99 3503.51 1019.46L3501.58 1020.08 3498.22 1022.08 3496.22 1022.45C3495.29 1022.95 3493.48 1023.95 3492.58 1024.42L3490.3 1025.26C3488.53 1025.85 3484.94 1027.04 3483.17 1027.63 3481.8 1028 3479.09 1028.75 3477.75 1029.13 3475.85 1029.62 3472.04 1030.65 3470.14 1031.15 3468.77 1031.5 3466.06 1032.15 3464.69 1032.46 3462.85 1033.02 3459.21 1034.12 3457.37 1034.65L3454.75 1035.43C3452.94 1036.02 3449.36 1037.23 3447.58 1037.86L3444.97 1038.64C3443.16 1039.26 3439.58 1040.57 3437.77 1041.2L3435.22 1042.13C3433.53 1042.91 3430.2 1044.53 3428.52 1045.34L3426.46 1046.59C3425.56 1047.18 3423.78 1048.37 3422.91 1048.96 3422.13 1049.55 3420.6 1050.8 3419.82 1051.43 3419.08 1052.02 3417.61 1053.23 3416.86 1053.83 3416.12 1054.45 3414.62 1055.67 3413.87 1056.26 3413.03 1056.88 3411.41 1058.13 3410.6 1058.76 3409.67 1059.41 3407.83 1060.66 3406.89 1061.31L3404.71 1062.59C3403.06 1063.56 3399.79 1065.43 3398.14 1066.37L3395.92 1067.64C3394.96 1068.24 3393.03 1069.42 3392.06 1070.05 3391.19 1070.61 3389.41 1071.76 3388.54 1072.35L3386.7 1073.26C3385.95 1073.82 3384.43 1075 3383.65 1075.6 3382.84 1076.16 3381.19 1077.28 3380.35 1077.84 3379.44 1078.4 3377.63 1079.56 3376.73 1080.15 3375.05 1080.93 3371.71 1082.49 3370.06 1083.27L3367.48 1084.17C3363.05 1084.67 3358.75 1085.92 3354.89 1088.1L3352.71 1088.98 3350.65 1089.66C3349.94 1090.26 3348.47 1091.38 3347.72 1091.97 3347.1 1092.66 3345.85 1094.06 3345.23 1094.75 3345.6 1096.12 3346.32 1098.83 3346.69 1100.21 3347.38 1101.02 3348.72 1102.61 3349.41 1103.39 3350.87 1104.17 3353.83 1105.66 3355.33 1106.44 3356.54 1106.76 3359 1107.41 3360.22 1107.75 3364.17 1109.69 3368.57 1110.75 3373.02 1109.91L3375.83 1109.72C3394.74 1110.25 3414.46 1107.47 3433.13 1111.78 3434.93 1112.28 3438.52 1113.27 3440.32 1113.77L3440.29 1116.45C3440.04 1120.6 3439.79 1124.78 3439.48 1128.93 3438.83 1129.77 3437.49 1131.39 3436.84 1132.2 3436.15 1132.92 3434.75 1134.36 3434.06 1135.07 3433.31 1135.76 3431.79 1137.1 3431.04 1137.76L3429.26 1138.79C3428.52 1139.47 3426.99 1140.78 3426.24 1141.44 3425.4 1142.06 3423.69 1143.31 3422.84 1143.93L3420.91 1144.9C3420.1 1145.59 3418.51 1146.93 3417.7 1147.58 3416.8 1148.24 3415.02 1149.55 3414.15 1150.2 3413.22 1150.89 3411.38 1152.26 3410.48 1152.95L3408.51 1154.38C3407.61 1155.1 3405.77 1156.47 3404.87 1157.19 3403.99 1157.87 3402.28 1159.28 3401.41 1159.96 3400.57 1160.65 3398.88 1161.99 3398.04 1162.68 3397.2 1163.36 3395.55 1164.67 3394.71 1165.33L3392.84 1166.33C3392.09 1166.98 3390.53 1168.29 3389.79 1168.91 3388.94 1169.51 3387.26 1170.69 3386.45 1171.29 3385.55 1171.88 3383.8 1173.06 3382.93 1173.66L3381 1174.84C3380.06 1175.43 3378.16 1176.59 3377.2 1177.18L3375.24 1178.4C3374.3 1179.05 3372.4 1180.39 3371.47 1181.08 3370.53 1181.89 3368.63 1183.51 3367.7 1184.32 3362.87 1184.51 3361.93 1186.54 3364.86 1190.37 3364.52 1192.37 3363.86 1196.36 3363.52 1198.36L3362.9 1200.85 3362.12 1203.16C3361.56 1204.06 3360.47 1205.9 3359.94 1206.81L3359.38 1208.84C3358.78 1209.62 3357.54 1211.21 3356.91 1212.02L3354.05 1214.89C3353.21 1215.54 3351.56 1216.88 3350.71 1217.57L3348.47 1218.16C3346.98 1219.13 3343.95 1221.06 3342.46 1222.03L3340.24 1223.15C3339.22 1223.68 3337.19 1224.74 3336.16 1225.27L3334.17 1226.4C3333.27 1226.93 3331.43 1227.96 3330.52 1228.49 3329.65 1229.02 3327.88 1230.11 3327 1230.67 3326.04 1231.2 3324.1 1232.29 3323.17 1232.82L3320.93 1233.91C3319.12 1234.66 3315.57 1236.13 3313.76 1236.84 3312.39 1237.31 3309.68 1238.22 3308.31 1238.68 3306.53 1239.46 3302.95 1241.02 3301.14 1241.8L3298.93 1243.02C3297.96 1243.64 3296.06 1244.86 3295.1 1245.45 3294.29 1246.11 3292.6 1247.36 3291.79 1248.01 3290.98 1248.67 3289.43 1249.94 3288.62 1250.6 3287.84 1251.25 3286.22 1252.56 3285.44 1253.22 3284.6 1253.9 3282.91 1255.25 3282.07 1255.93L3280.3 1257.34C3279.42 1257.99 3277.71 1259.33 3276.84 1260.02 3276 1260.67 3274.34 1262.01 3273.54 1262.67 3272.69 1263.32 3271.04 1264.6 3270.23 1265.26L3268.39 1266.29C3267.65 1266.94 3266.12 1268.22 3265.37 1268.88 3264.53 1269.47 3262.91 1270.72 3262.1 1271.31 3261.23 1271.93 3259.48 1273.15 3258.61 1273.77 3257.61 1274.36 3255.65 1275.58 3254.68 1276.21L3252.38 1277.42C3250.6 1278.26 3247.02 1279.98 3245.21 1280.82 3243.93 1281.38 3241.41 1282.51 3240.13 1283.1 3239.04 1283.66 3236.86 1284.75 3235.77 1285.31L3233.68 1286.56 3229.94 1288.93C3229.13 1289.55 3227.45 1290.8 3226.64 1291.43 3225.83 1292.05 3224.24 1293.3 3223.43 1293.95L3220.19 1296.45C3219.32 1297.07 3217.61 1298.29 3216.73 1298.91L3214.86 1300.1C3213.93 1300.63 3212.09 1301.72 3211.16 1302.28L3209.19 1303.09C3208.51 1303.74 3207.14 1305.05 3206.42 1305.71L3203.77 1305.34C3201.93 1305.93 3198.26 1307.11 3196.42 1307.74 3194.27 1307.89 3189.94 1308.24 3187.79 1308.42 3182.77 1306.55 3177.29 1307.27 3173.08 1310.51L3170.99 1311.42C3170.06 1311.89 3168.19 1312.79 3167.25 1313.26 3166.38 1313.79 3164.67 1314.85 3163.8 1315.38L3162.02 1316.44C3161.15 1316.94 3159.37 1317.97 3158.5 1318.5 3157.56 1319.03 3155.73 1320.06 3154.79 1320.59L3152.73 1321.58 3148.37 1323.46 3145.88 1324.3 3143.2 1324.67C3138.18 1324.83 3133.23 1325.02 3128.31 1325.23L3125.41 1324.95 3122.48 1324.36C3118.83 1322.33 3115.06 1321.99 3111.23 1323.33 3107.62 1324.11 3104 1324.86 3100.42 1325.55 3099.45 1325.98 3097.52 1326.92 3096.56 1327.35 3095.84 1328.07 3094.47 1329.51 3093.78 1330.22L3092.51 1331.69C3091.91 1332.38 3090.76 1333.78 3090.17 1334.5L3089.23 1336.09C3088.58 1336.77 3087.3 1338.12 3086.68 1338.8 3085.87 1339.46 3084.28 1340.74 3083.47 1341.39L3081.51 1342.64C3079.73 1343.35 3076.21 1344.76 3074.47 1345.48 3068.36 1346.85 3061.97 1346.91 3055.9 1345.66 3053.9 1345.29 3049.94 1344.57 3047.95 1344.2L3045.27 1343.95 3043.28 1342.33 3041.44 1343.17 3039.54 1343.98 3037.6 1344.6C3036.7 1344.98 3034.93 1345.66 3034.02 1346.04 3033.21 1346.47 3031.59 1347.38 3030.78 1347.85 3030 1348.35 3028.44 1349.37 3027.67 1349.87 3026.89 1350.4 3025.3 1351.5 3024.52 1352.03 3023.65 1352.62 3021.96 1353.74 3021.09 1354.33L3019.16 1355.46C3018.13 1355.99 3016.11 1357.02 3015.08 1357.55L3012.74 1358.54C3010.87 1359.01 3007.13 1359.92 3005.29 1360.38 3003.92 1360.38 3001.21 1360.42 2999.87 1360.42 2998.75 1360.01 2996.54 1359.2 2995.42 1358.79 2994.14 1359.01 2991.58 1359.45 2990.31 1359.67L2987.19 1357.67 2985.04 1357.39C2982.86 1353.46 2980.55 1353.37 2978.09 1357.14 2976.72 1357.23 2973.98 1357.39 2972.61 1357.45 2970.65 1357.92 2966.78 1358.82 2964.85 1359.29L2962.17 1360.17C2960.46 1360.98 2956.97 1362.57 2955.25 1363.38L2953.17 1364.72C2952.26 1365.37 2950.52 1366.72 2949.65 1367.37L2946.78 1370.24C2946.12 1371.02 2944.85 1372.52 2944.19 1373.27 2943.6 1374.04 2942.35 1375.6 2941.73 1376.38L2940.83 1378.38 2939.61 1380.35C2938.99 1381.25 2937.71 1383.12 2937.09 1384.06L2935.75 1385.93C2935.03 1386.77 2933.63 1388.42 2932.91 1389.27 2932.13 1390.01 2930.55 1391.51 2929.77 1392.23L2927.74 1393.13C2926.87 1393.82 2925.19 1395.22 2924.35 1395.91L2922.2 1397.16C2920.61 1398.09 2917.46 1399.93 2915.9 1400.84 2914.97 1401.43 2913.07 1402.61 2912.13 1403.21 2911.23 1403.74 2909.42 1404.83 2908.55 1405.36L2906.55 1405.92C2905.68 1406.39 2903.94 1407.32 2903.06 1407.76 2902 1408.01 2899.95 1408.48 2898.92 1408.73 2897.18 1408.76 2893.72 1408.76 2891.97 1408.79 2890.94 1408.57 2888.92 1408.2 2887.89 1407.98 2886.96 1407.73 2885.12 1407.26 2884.18 1407.04 2883.31 1406.82 2881.5 1406.39 2880.6 1406.17L2878.76 1405.7C2878.11 1405.98 2876.77 1406.58 2876.11 1406.86L2874.21 1406.45 2871.1 1407.57 2869.82 1409.2C2869.13 1410.04 2867.73 1411.69 2867.01 1412.5 2866.14 1414.12 2864.33 1417.34 2863.43 1418.93L2862.37 1421.51C2861.62 1423.39 2860.19 1427.13 2859.44 1429 2858.94 1430.28 2857.95 1432.84 2857.45 1434.15 2856.92 1435.24 2855.86 1437.45 2855.33 1438.54L2854.18 1440.67C2853.58 1441.6 2852.43 1443.47 2851.87 1444.38 2851.28 1445.25 2850.06 1446.93 2849.47 1447.81 2848.82 1448.56 2847.51 1450.08 2846.85 1450.83L2845.83 1452.7C2845.14 1453.51 2843.8 1455.14 2843.12 1455.95 2842.4 1456.76 2841 1458.35 2840.28 1459.16 2839.56 1459.97 2838.13 1461.59 2837.38 1462.4 2836.67 1463.21 2835.2 1464.84 2834.48 1465.65 2833.74 1466.46 2832.3 1468.11 2831.59 1468.92 2830.87 1469.76 2829.44 1471.42 2828.72 1472.23 2828 1473.01 2826.54 1474.57 2825.82 1475.35L2824.7 1477.25C2824.02 1478.12 2822.61 1479.81 2821.93 1480.68 2821.24 1481.52 2819.9 1483.21 2819.22 1484.02 2818.56 1484.86 2817.25 1486.54 2816.6 1487.39 2815.95 1488.17 2814.61 1489.73 2813.95 1490.5L2812.95 1492.44C2812.33 1493.34 2811.12 1495.15 2810.49 1496.06 2809.93 1497.02 2808.75 1498.96 2808.19 1499.92L2807 1502.04 2804.88 1506.41 2803.89 1508.84C2803.05 1510.53 2801.39 1513.9 2800.58 1515.61L2800.37 1518.2C2799.9 1519.42 2799 1521.79 2798.53 1523 2798.03 1524 2797.03 1526.03 2796.53 1527.06 2796.04 1528.03 2795.01 1529.93 2794.51 1530.89 2794.17 1531.99 2793.48 1534.14 2793.14 1535.23 2792.98 1536.57 2792.67 1539.28 2792.51 1540.63 2791.3 1546.36 2792.23 1552.29 2794.29 1557.75L2794.98 1560.34 2795.51 1562.74C2796 1563.67 2797.06 1565.51 2797.59 1566.45L2798.22 1568.48C2798.75 1569.35 2799.74 1571.07 2800.24 1571.91L2800.9 1573.84C2801.39 1574.72 2802.42 1576.4 2802.95 1577.24 2803.42 1578.21 2804.39 1580.14 2804.85 1581.11L2805.82 1583.26C2806.26 1584.38 2807.16 1586.6 2807.63 1587.72L2808.44 1590.28C2808.56 1594.93 2808.72 1599.6 2808.94 1604.31L2808.31 1606.84C2807.91 1607.96 2807.13 1610.21 2806.72 1611.33 2806.41 1612.49 2805.76 1614.79 2805.41 1615.98 2804.64 1624.9 2804.35 1634.22 2802.24 1643.08 2800.02 1646.26 2799.24 1649.76 2799.81 1653.62L2799.03 1656.12C2798.31 1657.71 2796.88 1660.89 2796.16 1662.45L2794.95 1664.29C2794.29 1664.98 2792.95 1666.38 2792.3 1667.07 2791.49 1667.5 2789.87 1668.34 2789.06 1668.75L2787.16 1668.5 2785.22 1668.1 2783.29 1667.5 2781.7 1666.19 2778.96 1663.45 2777.87 1661.86 2775.38 1659.11C2774.79 1658.4 2773.6 1656.9 2773.01 1656.18L2771.95 1654.5C2771.26 1653.84 2769.86 1652.47 2769.15 1651.78 2768.3 1651.13 2766.56 1649.79 2765.72 1649.13L2763.66 1647.76C2761.86 1647.17 2758.27 1645.92 2756.5 1645.33 2755.09 1645.26 2752.26 1645.2 2750.86 1645.17 2749.08 1645.67 2745.47 1646.67 2743.66 1647.14L2741.57 1648.32C2740.67 1648.88 2738.92 1650.04 2738.02 1650.63L2735.15 1653.25C2734.5 1654 2733.19 1655.43 2732.54 1656.15 2731.97 1657.02 2730.79 1658.77 2730.2 1659.64L2729.01 1661.7C2728.39 1663.42 2727.11 1666.82 2726.49 1668.5L2726.02 1671.09C2722.88 1674.27 2723.56 1679.29 2727.11 1681.91L2728.11 1683.97C2728.64 1684.91 2729.67 1686.75 2730.2 1687.65 2730.82 1688.46 2732.04 1690.05 2732.66 1690.83 2733.31 1691.58 2734.65 1693.05 2735.31 1693.76 2735.99 1694.48 2737.4 1695.92 2738.08 1696.6 2738.83 1697.32 2740.32 1698.69 2741.07 1699.38 2741.85 1700.06 2743.44 1701.44 2744.25 1702.12 2745.09 1702.81 2746.84 1704.15 2747.71 1704.84L2749.58 1706.21C2750.51 1706.89 2752.32 1708.24 2753.26 1708.89L2756.99 1711.51 2758.99 1712.82C2759.92 1713.48 2761.82 1714.75 2762.76 1715.41 2763.72 1716.03 2765.62 1717.31 2766.56 1717.94L2768.58 1719.21C2769.52 1719.87 2771.42 1721.12 2772.39 1721.74 2773.32 1722.36 2775.22 1723.58 2776.19 1724.2L2778.18 1725.42C2779.12 1726.01 2781.02 1727.23 2781.95 1727.82 2782.79 1728.45 2784.51 1729.69 2785.35 1730.32L2787.47 1731.16C2788.43 1731.75 2790.36 1732.94 2791.36 1733.53L2793.39 1734.75C2794.35 1735.34 2796.28 1736.52 2797.28 1737.09 2798.15 1737.74 2799.9 1738.99 2800.77 1739.64L2802.89 1740.49 2806.88 1742.86 2808.97 1744.1C2809.93 1744.7 2811.9 1745.88 2812.89 1746.47 2813.76 1747.1 2815.54 1748.38 2816.41 1749.03L2818.59 1749.87 2822.58 1752.24 2824.67 1753.46C2825.67 1754.05 2827.63 1755.21 2828.63 1755.8 2829.5 1756.39 2831.28 1757.61 2832.15 1758.23L2834.27 1759.01C2835.14 1759.64 2836.92 1760.85 2837.82 1761.48L2839.97 1762.29C2840.97 1762.85 2842.99 1764.03 2843.99 1764.63L2846.11 1765.81C2847.07 1766.4 2849.07 1767.59 2850.06 1768.15 2850.94 1768.77 2852.71 1770.05 2853.58 1770.68L2855.73 1771.49C2856.76 1772.05 2858.76 1773.23 2859.75 1773.79L2861.84 1775.01C2862.84 1775.6 2864.83 1776.76 2865.83 1777.35L2867.82 1778.5C2868.7 1779.1 2870.47 1780.22 2871.34 1780.78 2872.09 1781.41 2873.59 1782.59 2874.34 1783.18L2876.05 1784.09C2876.74 1784.74 2878.14 1785.99 2878.85 1786.64 2879.48 1787.39 2880.75 1788.92 2881.41 1789.67 2881.5 1790.82 2881.66 1793.1 2881.72 1794.26 2880.94 1795.19 2879.35 1797.06 2878.57 1798 2876.8 1798.59 2873.25 1799.78 2871.47 1800.37L2869.1 1800.93C2868.04 1801.27 2865.86 1801.93 2864.8 1802.24L2862.56 1802.89C2861.47 1803.24 2859.26 1803.92 2858.17 1804.24L2855.73 1804.86 2853.18 1805.17C2847.57 1805.36 2842.03 1805.7 2836.48 1806.11L2833.83 1806.14C2829.84 1800.46 2823.89 1807.07 2829.81 1810.44L2830.47 1812.31C2830.75 1813.19 2831.34 1814.93 2831.62 1815.81 2831.9 1816.74 2832.46 1818.58 2832.74 1819.52 2832.77 1820.64 2832.83 1822.95 2832.83 1824.1 2832.86 1825.32 2832.9 1827.78 2832.9 1829.03 2831.96 1829.5 2830.06 1830.43 2829.13 1830.9L2827.26 1832.37C2823.8 1832.71 2820.81 1834.05 2818.28 1836.39L2815.91 1837.14 2813.52 1837.23C2812.55 1837.7 2810.59 1838.67 2809.62 1839.14L2807.16 1839.73C2805.26 1840.23 2801.52 1841.16 2799.62 1841.63 2795.16 1843.28 2790.61 1844.56 2786.03 1845.72 2785.01 1846.18 2782.98 1847.12 2781.95 1847.59 2781.14 1848.27 2779.52 1849.62 2778.71 1850.27L2777.12 1851.67C2776.34 1852.33 2774.75 1853.61 2773.94 1854.26 2773.04 1854.86 2771.23 1856.01 2770.33 1856.6 2766.19 1857.6 2762.04 1858.63 2757.99 1859.75 2756.9 1860.22 2754.78 1861.19 2753.72 1861.69L2751.39 1862.34C2750.23 1862.68 2747.99 1863.37 2746.84 1863.74L2744.41 1864.4 2741.91 1864.18C2740.17 1864.68 2736.74 1865.68 2735.03 1866.18L2732.57 1866.33C2731.48 1866.18 2729.29 1865.8 2728.2 1865.65 2727.08 1865.99 2724.78 1866.74 2723.66 1867.11L2721.41 1867.92 2719.07 1867.86 2718.39 1870.01 2717.64 1872.23C2717.08 1873.32 2715.93 1875.53 2715.37 1876.63 2712.5 1879.12 2711.38 1882.15 2712 1885.76 2711.04 1886.14 2709.07 1886.89 2708.11 1887.26L2706.14 1888.6C2702.59 1888.73 2699.48 1889.91 2696.8 1892.19 2695.52 1892.56 2692.96 1893.25 2691.69 1893.59 2690.13 1894.37 2686.98 1895.96 2685.42 1896.74L2683.71 1898.3 2682.03 1899.77 2682.65 1901.64 2682.99 1903.6C2683.27 1904.51 2683.8 1906.38 2684.08 1907.32L2684.89 1909.16C2685.36 1910 2686.3 1911.68 2686.79 1912.52 2687.39 1913.27 2688.6 1914.77 2689.19 1915.52 2689.88 1916.24 2691.25 1917.64 2691.91 1918.33 2692.62 1919.01 2694.09 1920.35 2694.8 1921.04 2695.55 1921.69 2697.01 1923.03 2697.76 1923.69 2698.51 1924.34 2699.94 1925.62 2700.69 1926.28L2702.41 1927.34 2705.52 1929.83C2706.27 1930.46 2707.76 1931.74 2708.51 1932.36 2709.17 1933.08 2710.51 1934.54 2711.16 1935.26L2712.94 1936.54C2713.53 1937.57 2714.71 1939.66 2715.27 1940.69 2715.9 1945.96 2717.11 1956.5 2717.7 1961.77 2717.08 1963.58 2715.83 1967.23 2715.21 1969.04L2715.34 1971.56 2714.31 1973.78C2713.78 1974.75 2712.72 1976.71 2712.19 1977.68L2711.07 1979.49C2710.51 1980.24 2709.32 1981.76 2708.76 1982.54 2708.14 1983.14 2706.89 1984.38 2706.27 1985.01L2703.53 1987C2702.75 1987.32 2701.13 1987.94 2700.35 1988.28 2699.41 1988.34 2697.58 1988.44 2696.67 1988.5 2695.8 1988.19 2694.12 1987.56 2693.24 1987.25 2692.56 1986.54 2691.19 1985.13 2690.5 1984.41L2689.35 1982.45C2689.07 1978.86 2687.85 1975.71 2685.61 1973 2684.86 1971.13 2683.37 1967.42 2682.62 1965.55 2682.12 1964.55 2681.09 1962.58 2680.59 1961.58 2679.97 1960.77 2678.76 1959.18 2678.13 1958.4 2677.45 1957.72 2676.11 1956.34 2675.45 1955.66 2674.71 1955.03 2673.24 1953.79 2672.52 1953.19 2671.62 1952.7 2669.88 1951.7 2669 1951.2L2666.95 1950.29C2663.18 1947.52 2658.16 1947.64 2654.61 1950.67 2653.86 1951.1 2652.36 1951.95 2651.62 1952.38 2650.99 1952.82 2649.75 1953.72 2649.12 1954.19L2648 1955.19C2647.44 1955.69 2646.35 1956.69 2645.82 1957.19L2644.73 1958.22C2644.48 1957.19 2644.01 1955.13 2643.77 1954.1 2646.41 1950.98 2644.39 1946.33 2640.24 1946.52 2636.69 1946.43 2629.62 1946.21 2626.07 1946.11L2624.26 1946.89C2623.45 1947.36 2621.86 1948.3 2621.05 1948.8L2619.43 1949.95C2618 1950.54 2615.1 1951.73 2613.67 1952.32 2614.38 1949.05 2614.79 1945.74 2614.94 1942.4L2615.57 1940.16C2615.94 1939.19 2616.66 1937.23 2617 1936.23L2617.72 1934.36C2618.09 1933.55 2618.81 1931.86 2619.18 1931.05 2619.49 1930.24 2620.12 1928.62 2620.4 1927.81L2620.77 1926.03C2620.65 1925.31 2620.33 1923.88 2620.21 1923.16 2618.81 1922.25 2616 1920.38 2614.6 1919.45 2613.23 1919.32 2610.49 1919.04 2609.12 1918.92L2606.31 1918.61C2600.7 1917.73 2595.1 1917.2 2589.49 1916.58L2587.24 1915.83C2586.34 1915.39 2584.5 1914.52 2583.6 1914.08 2582.82 1913.68 2581.29 1912.84 2580.51 1912.4 2579.74 1911.96 2578.21 1911.09 2577.46 1910.65 2575.06 1907.41 2569.8 1909.09 2570.51 1913.34 2570.61 1914.27 2570.76 1916.2 2570.86 1917.14 2570.51 1918.08 2569.86 1919.95 2569.55 1920.88 2569.11 1921.66 2568.27 1923.28 2567.86 1924.1 2567.3 1924.78 2566.18 1926.18 2565.62 1926.87L2564.59 1928.49 2563.19 1929.86C2562.44 1930.49 2560.92 1931.74 2560.17 1932.36 2559.33 1932.95 2557.64 1934.08 2556.8 1934.64L2554.84 1935.7 2550.73 1937.57C2548.76 1937.79 2544.9 1938.22 2542.94 1938.41L2540.23 1938.5C2533.09 1937.82 2526.05 1938.01 2519.1 1939.07L2516.83 1939.28C2515.83 1939.41 2513.77 1939.63 2512.78 1939.72 2511.78 1939.6 2509.85 1939.41 2508.88 1939.28L2505.77 1937.54C2505.21 1936.82 2504.08 1935.35 2503.52 1934.61L2502.68 1932.73C2502.18 1928.87 2501.12 1925.03 2498.82 1921.88 2498.26 1920.82 2497.1 1918.73 2496.54 1917.7L2495.55 1915.61 2493.58 1915.61 2489.59 1915.36 2487.66 1915.05 2486.57 1916.64 2485.45 1918.26 2484.08 1919.73C2483.33 1920.41 2481.87 1921.85 2481.12 1922.54 2479.75 1923.47 2477.01 1925.31 2475.64 1926.25L2473.52 1927.31C2472.49 1927.78 2470.43 1928.77 2469.4 1929.27L2467.16 1930.21C2465.54 1930.93 2462.27 1932.3 2460.65 1933.02 2459.03 1933.7 2455.85 1935.1 2454.26 1935.79L2450.77 1938.66C2450.09 1939.32 2448.71 1940.69 2448.03 1941.37L2446.91 1942.81 2445.79 1944.15C2445.41 1944.87 2444.7 1946.27 2444.32 1946.96L2443.89 1948.52C2443.11 1948.17 2441.58 1947.49 2440.8 1947.14 2440.12 1946.8 2438.68 1946.11 2438 1945.77 2437.37 1945.33 2436.1 1944.46 2435.47 1944.02L2433.1 1941.9C2432.51 1941.31 2431.33 1940.09 2430.74 1939.5L2429.49 1938.16C2428.84 1937.51 2427.59 1936.17 2426.94 1935.51 2426.22 1934.86 2424.75 1933.58 2424.01 1932.95 2422.73 1928.68 2420.64 1928.18 2417.74 1931.42L2415.19 1931.11C2413.29 1931.42 2409.52 1931.99 2407.65 1932.27 2398.33 1933.2 2389.02 1934.32 2379.95 1932.24 2377.18 1929.21 2373.87 1927.99 2370.04 1928.59 2369.64 1927.71 2368.79 1926 2368.36 1925.12 2367.67 1924.31 2366.3 1922.69 2365.62 1921.88 2364.87 1921.16 2363.44 1919.73 2362.69 1918.98 2361.85 1918.39 2360.1 1917.23 2359.23 1916.64 2357.36 1916.27 2353.59 1915.52 2351.69 1915.14 2349.73 1914.71 2345.74 1913.87 2343.77 1913.43 2342.78 1912.8 2340.85 1911.56 2339.85 1910.96 2338.6 1910.93 2336.11 1910.93 2334.86 1910.9 2334.08 1909.37 2332.53 1906.29 2331.72 1904.76L2330 1902.92 2328.41 1901.05C2326.17 1897.15 2321.78 1895.71 2317.57 1896.24 2315.54 1896.06 2311.49 1895.71 2309.47 1895.53 2304.67 1894.5 2295.04 1892.47 2290.24 1891.44 2290 1887.1 2289.81 1882.8 2289.65 1878.5 2290.31 1878.12 2291.65 1877.34 2292.3 1876.97 2292.8 1876.28 2293.8 1874.88 2294.29 1874.19L2295.26 1872.48C2298.25 1869.17 2297.57 1867.27 2293.14 1866.86 2287.78 1866.11 2282.45 1865.15 2277.34 1863.56 2274.63 1861.37 2271.55 1860.47 2268.15 1860.81L2266.31 1859.53C2265.75 1858.66 2264.57 1856.91 2264.01 1856.04 2264.04 1854.98 2264.07 1852.8 2264.1 1851.74 2264.63 1850.83 2265.69 1849.09 2266.22 1848.18L2267.44 1846.5C2268.09 1845.75 2269.43 1844.22 2270.09 1843.47L2271.74 1842.29C2272.42 1841.6 2273.79 1840.23 2274.45 1839.54 2275.23 1838.92 2276.75 1837.64 2277.53 1836.98 2278.34 1836.36 2279.96 1835.08 2280.77 1834.43L2282.64 1833.43C2283.42 1832.77 2285.01 1831.46 2285.79 1830.81 2286.63 1830.15 2288.38 1828.91 2289.25 1828.28L2292.86 1825.66 2294.82 1824.32C2295.76 1823.7 2297.63 1822.39 2298.59 1821.76 2299.53 1821.11 2301.4 1819.8 2302.33 1819.18L2304.33 1817.83C2305.26 1817.21 2307.16 1815.93 2308.1 1815.31 2309.03 1814.68 2310.93 1813.41 2311.87 1812.75L2313.86 1811.47C2314.8 1810.85 2316.7 1809.57 2317.63 1808.95 2318.6 1808.32 2320.5 1807.04 2321.43 1806.42L2323.46 1805.11C2324.42 1804.48 2326.36 1803.21 2327.32 1802.58 2328.29 1801.96 2330.22 1800.68 2331.19 1800.03L2333.24 1798.75C2334.21 1798.12 2336.14 1796.91 2337.11 1796.28L2339.19 1795.35C2340.03 1794.72 2341.72 1793.44 2342.56 1792.79 2343.49 1792.2 2345.3 1791.01 2346.2 1790.39L2348.2 1789.48C2349.04 1788.86 2350.69 1787.58 2351.53 1786.96L2355.15 1784.59 2357.17 1783.68C2358.01 1783.03 2359.7 1781.75 2360.54 1781.09 2361.47 1780.5 2363.37 1779.25 2364.31 1778.63L2366.33 1777.35C2367.3 1776.73 2369.26 1775.45 2370.23 1774.82 2371.19 1774.17 2373.13 1772.89 2374.09 1772.24L2376.12 1770.89C2377.08 1770.24 2379.01 1768.96 2379.98 1768.31 2380.91 1767.65 2382.82 1766.34 2383.78 1765.69L2385.74 1764.38C2386.68 1763.72 2388.55 1762.41 2389.48 1761.79 2390.39 1761.13 2392.19 1759.85 2393.07 1759.23L2395.06 1758.23C2395.87 1757.58 2397.49 1756.24 2398.27 1755.58 2399.17 1754.93 2400.95 1753.65 2401.82 1753.02 2402.76 1752.34 2404.6 1751 2405.53 1750.34L2407.49 1748.94C2408.43 1748.28 2410.3 1746.94 2411.26 1746.26 2412.17 1745.6 2413.97 1744.26 2414.88 1743.6L2416.9 1742.57C2417.68 1741.89 2419.3 1740.52 2420.11 1739.83 2420.98 1739.21 2422.73 1737.9 2423.6 1737.24 2424.47 1736.62 2426.19 1735.31 2427.06 1734.65L2429.02 1733.65C2429.83 1732.97 2431.42 1731.6 2432.23 1730.91 2433.1 1730.26 2434.88 1728.98 2435.75 1728.32 2436.66 1727.64 2438.5 1726.29 2439.4 1725.61L2441.33 1724.2C2442.27 1723.55 2444.1 1722.18 2445.04 1721.52 2445.94 1720.84 2447.75 1719.46 2448.65 1718.81 2449.59 1718.12 2451.43 1716.75 2452.33 1716.06L2454.29 1714.69C2455.23 1714.01 2457.07 1712.7 2458 1712.01 2458.9 1711.35 2460.68 1710.04 2461.58 1709.39L2463.58 1708.39C2464.39 1707.74 2465.98 1706.36 2466.79 1705.71 2467.69 1705.05 2469.47 1703.78 2470.34 1703.12 2471.27 1702.47 2473.11 1701.12 2474.05 1700.44L2476.01 1699.07C2476.94 1698.38 2478.81 1697.04 2479.72 1696.35 2480.62 1695.7 2482.43 1694.33 2483.3 1693.67L2485.26 1692.58C2486.04 1691.86 2487.6 1690.46 2488.38 1689.74 2489.19 1689.05 2490.81 1687.65 2491.62 1686.93 2492.4 1686.18 2493.96 1684.72 2494.77 1684 2495.51 1683.22 2497.04 1681.66 2497.82 1680.88 2498.57 1680.07 2500.06 1678.45 2500.81 1677.64 2501.53 1676.73 2502.99 1674.99 2503.71 1674.11L2505.17 1672.27C2505.89 1671.4 2507.29 1669.62 2508.01 1668.75 2508.66 1667.91 2510 1666.22 2510.66 1665.38 2511.28 1664.57 2512.56 1662.92 2513.18 1662.08 2513.8 1661.3 2515.05 1659.74 2515.71 1658.96L2516.64 1657.09C2517.2 1656.21 2518.35 1654.47 2518.95 1653.59 2519.54 1652.72 2520.78 1651 2521.41 1650.16L2522.19 1647.88C2522.96 1646.11 2524.55 1642.52 2525.33 1640.74 2525.61 1639.28 2526.14 1636.31 2526.39 1634.85 2527.83 1629.39 2528.29 1623.65 2527.14 1618.13 2526.7 1617.13 2525.8 1615.2 2525.36 1614.23L2524.71 1612.2C2524.21 1611.36 2523.18 1609.68 2522.65 1608.84 2522.15 1607.93 2521.16 1606.15 2520.66 1605.25L2520.01 1603.22C2519.41 1602.32 2518.23 1600.54 2517.64 1599.64L2514.4 1593.15 2513.24 1590.96 2512.37 1588.81C2511.78 1588.03 2510.6 1586.44 2509.97 1585.63 2509.38 1584.91 2508.13 1583.45 2507.51 1582.73L2506.76 1581.02 2504.15 1580.86C2499.32 1581.14 2489.69 1581.7 2484.86 1581.98L2482.3 1582.48C2481.21 1582.92 2479.09 1583.85 2478.03 1584.32L2476.04 1585.54C2475.14 1586.13 2473.36 1587.32 2472.46 1587.91 2471.62 1588.47 2469.93 1589.62 2469.09 1590.19 2468.25 1590.72 2466.51 1591.74 2465.67 1592.27L2463.8 1593.05C2463.11 1593.68 2461.71 1594.93 2461.02 1595.55L2458.41 1595.14C2456.54 1595.58 2452.83 1596.49 2450.96 1596.92L2448.31 1596.92C2447.16 1596.45 2444.91 1595.55 2443.76 1595.11 2442.45 1595.18 2439.77 1595.36 2438.46 1595.43 2437.78 1594.8 2436.38 1593.58 2435.69 1592.96L2433.85 1592.15C2433.01 1591.62 2431.33 1590.56 2430.52 1590.03 2429.74 1589.44 2428.15 1588.25 2427.37 1587.66 2426.72 1586.94 2425.35 1585.51 2424.66 1584.79L2422.92 1583.51C2422.26 1582.54 2420.98 1580.61 2420.36 1579.64L2419.24 1577.27C2418.9 1575.18 2418.24 1571 2417.9 1568.88 2417.96 1567.48 2418.09 1564.64 2418.15 1563.24 2418.58 1562.08 2419.49 1559.84 2419.92 1558.72 2419.74 1557.37 2419.43 1554.69 2419.24 1553.35 2418.55 1549.83 2417.96 1546.33 2417.49 1542.84 2416.96 1541.94 2415.94 1540.19 2415.44 1539.28 2414.5 1539 2412.67 1538.41 2411.73 1538.13L2409.7 1538.19C2408.74 1538.41 2406.87 1538.88 2405.93 1539.13L2404.13 1540C2403.32 1540.5 2401.67 1541.47 2400.86 1541.94 2400.14 1542.53 2398.68 1543.65 2397.93 1544.24 2397.24 1544.84 2395.84 1546.05 2395.15 1546.65 2394.44 1547.24 2393.07 1548.49 2392.38 1549.08 2391.66 1549.7 2390.26 1550.92 2389.55 1551.51 2388.8 1552.13 2387.3 1553.35 2386.52 1553.94 2385.68 1554.57 2383.97 1555.75 2383.13 1556.38L2381.1 1557.59C2379.45 1558.28 2376.12 1559.68 2374.43 1560.37 2370.29 1561.21 2364.68 1561.46 2362.16 1557.34 2361.32 1553.35 2359.66 1549.67 2357.17 1546.52 2356.58 1545.68 2355.4 1543.99 2354.8 1543.12 2354.21 1542.28 2352.97 1540.56 2352.37 1539.69 2351.81 1538.85 2350.72 1537.13 2350.19 1536.26L2349.23 1534.36C2348.85 1533.36 2348.07 1531.3 2347.67 1530.27 2346.77 1526.87 2346.48 1523.44 2346.86 1519.95 2347.26 1518.14 2348.11 1514.46 2348.51 1512.62L2349.29 1510.06C2349.76 1508.25 2350.66 1504.66 2351.13 1502.86 2350.47 1499.3 2349.97 1495.74 2349.66 1492.19L2349.48 1489.66 2346.73 1489.48C2340.85 1488.91 2334.96 1488.26 2329.16 1487.17 2327.14 1486.82 2323.12 1486.17 2321.12 1485.83L2318.91 1484.73 2315.54 1481.99 2314.17 1480.4C2313.58 1479.59 2312.4 1477.97 2311.84 1477.16L2311.34 1475.16C2310.81 1474.29 2309.75 1472.57 2309.22 1471.7L2308.44 1469.42C2307.88 1467.58 2306.79 1463.9 2306.26 1462.06 2305.98 1460.59 2305.48 1457.63 2305.23 1456.13 2305.39 1452.05 2305.45 1447.96 2305.39 1443.91 2305.67 1442.51 2306.23 1439.67 2306.51 1438.26 2306.82 1437.05 2307.47 1434.65 2307.79 1433.43L2308.35 1431C2308.75 1429.94 2309.56 1427.81 2309.97 1426.72 2309.81 1425.48 2309.53 1422.95 2309.41 1421.67 2309.22 1420.42 2308.85 1417.96 2308.66 1416.71 2308.38 1415.62 2307.76 1413.5 2307.44 1412.44L2306.54 1410.47C2306.1 1409.57 2305.2 1407.82 2304.76 1406.92 2304.23 1406.11 2303.24 1404.45 2302.74 1403.61 2302.21 1402.74 2301.12 1400.99 2300.56 1400.12 2299.93 1398.43 2298.69 1395.13 2298.07 1393.48 2297.91 1392.13 2297.6 1389.42 2297.44 1388.05 2297.44 1386.11 2297.38 1382.28 2297.38 1380.35 2296.88 1378.44 2295.88 1374.67 2295.42 1372.8 2294.98 1371.8 2294.14 1369.87 2293.73 1368.87 2293.11 1368.12 2291.9 1366.59 2291.3 1365.81 2290.65 1365.16 2289.31 1363.78 2288.62 1363.13L2287.25 1361.76C2286.6 1361.07 2285.32 1359.73 2284.67 1359.04L2282.17 1356.05 2281.77 1353.99C2281.18 1353.09 2279.96 1351.28 2279.37 1350.37 2276.81 1342.7 2274.73 1334.97 2273.08 1327.14L2273.01 1324.36 2271.02 1323.77 2268.99 1323.11 2267.16 1322.02C2266.28 1321.43 2264.6 1320.24 2263.76 1319.65 2262.17 1319.12 2258.99 1318.06 2257.37 1317.53 2256.56 1316.91 2254.88 1315.69 2254.07 1315.07 2253.38 1314.29 2252.01 1312.67 2251.3 1311.85L2250.11 1309.86C2250.18 1306.15 2249.12 1302.84 2246.97 1299.88 2245.69 1295.07 2245.03 1290.12 2244.88 1285.19 2244.29 1283.44 2243.1 1279.95 2242.51 1278.23L2241.23 1276.27C2240.55 1275.49 2239.24 1273.9 2238.55 1273.12 2237.74 1272.56 2236.09 1271.43 2235.28 1270.84L2233.44 1269.78C2231.23 1265.91 2226.12 1265.16 2223.16 1268.66 2218.05 1269.28 2212.85 1269.31 2207.74 1268.78L2201.76 1268.03C2200.48 1267.57 2197.86 1266.63 2196.58 1266.16 2195.59 1265.6 2193.59 1264.51 2192.59 1263.95 2191.78 1263.35 2190.13 1262.2 2189.32 1261.64 2188.58 1261.05 2187.08 1259.92 2186.33 1259.33 2185.62 1258.77 2184.15 1257.62 2183.43 1257.05L2180.44 1254.68 2177.2 1252.31 2174.99 1251.5C2173.15 1250.88 2169.48 1249.57 2167.64 1248.95 2166.11 1248.73 2163.03 1248.32 2161.5 1248.1 2157.48 1247.23 2153.49 1246.54 2149.44 1246.05L2146.82 1245.2C2145.7 1244.7 2143.49 1243.74 2142.37 1243.24L2140.31 1242.18C2139.41 1241.62 2137.63 1240.52 2136.76 1239.96 2135.95 1239.43 2134.33 1238.34 2133.49 1237.81 2132.71 1237.25 2131.09 1236.16 2130.28 1235.6 2129.47 1235.04 2127.79 1233.91 2126.94 1233.35L2124.73 1232.6C2122.89 1231.98 2119.19 1230.73 2117.35 1230.11L2114.36 1229.67C2109.46 1228.64 2104.57 1227.8 2099.68 1227.08 2098.68 1226.52 2096.63 1225.43 2095.63 1224.9L2093.29 1224.59C2092.23 1224.06 2090.18 1223 2089.15 1222.47L2087 1221.34C2086 1220.75 2083.98 1219.6 2082.98 1219L2080.95 1217.79C2080.02 1217.16 2078.18 1215.95 2077.25 1215.32 2076.47 1214.64 2074.91 1213.23 2074.16 1212.52L2072.23 1211.46 2069.11 1208.46C2068.4 1207.65 2066.93 1206.03 2066.22 1205.25L2065.13 1203.28C2064.41 1202.51 2063.01 1200.91 2062.29 1200.1L2061.29 1198.11C2060.61 1197.3 2059.18 1195.64 2058.49 1194.8L2057.09 1192.96C2056.43 1192.09 2055.19 1190.31 2054.53 1189.44L2052.79 1188.03C2052.04 1187.25 2050.51 1185.66 2049.77 1184.88 2048.99 1184.13 2047.46 1182.64 2046.68 1181.92 2045.9 1181.2 2044.34 1179.8 2043.56 1179.08 2042.75 1178.43 2041.13 1177.09 2040.32 1176.4 2039.48 1175.78 2037.77 1174.53 2036.9 1173.87 2036.06 1173.25 2034.34 1171.94 2033.47 1171.32L2031.16 1170.47 2028.86 1169.23C2027.14 1168.29 2023.78 1166.39 2022.07 1165.42L2019.88 1164.02C2018.95 1163.3 2017.11 1161.87 2016.18 1161.15 2015.4 1160.34 2013.81 1158.75 2013.03 1157.97L2011.53 1156.25C2010.82 1155.44 2009.45 1153.79 2008.76 1152.98L2007.64 1151.17C2006.92 1150.48 2005.52 1149.08 2004.84 1148.36 2004.09 1147.64 2002.59 1146.24 2001.84 1145.52L2000.29 1144.09C1999.51 1143.4 1997.95 1142.06 1997.17 1141.37 1996.39 1140.72 1994.77 1139.44 1993.96 1138.82 1993.09 1138.19 1991.31 1136.98 1990.44 1136.35 1989.38 1135.79 1987.29 1134.67 1986.23 1134.11 1984.27 1133.2 1980.34 1131.36 1978.35 1130.43 1976.42 1129.71 1972.49 1128.24 1970.56 1127.53 1969.94 1126.81 1968.75 1125.41 1968.16 1124.69L1966.45 1123.66C1965.7 1123 1964.21 1121.73 1963.46 1121.1L1962.27 1119.51C1961.59 1118.86 1960.22 1117.55 1959.56 1116.89 1958.91 1116.14 1957.6 1114.71 1956.95 1113.96 1956.26 1113.21 1954.83 1111.68 1954.14 1110.93L1952.61 1109.28C1951.74 1108.53 1950 1107 1949.12 1106.26L1947.04 1104.79C1945.29 1103.95 1941.8 1102.29 1940.06 1101.45 1938.69 1100.99 1935.98 1100.11 1934.6 1099.64 1932.8 1098.99 1929.18 1097.62 1927.38 1096.93L1925.07 1095.9C1924.04 1095.37 1922.02 1094.31 1921.02 1093.78L1919.06 1092.69 1915.57 1090.44C1914.69 1089.85 1912.98 1088.7 1912.14 1088.14 1911.2 1087.54 1909.37 1086.39 1908.43 1085.8 1905.91 1083.36 1902.89 1081.9 1899.43 1081.43L1897.18 1080.34C1896.28 1079.71 1894.5 1078.44 1893.63 1077.81L1891.58 1077.06C1890.73 1076.44 1889.08 1075.13 1888.27 1074.51 1887.52 1073.79 1886 1072.42 1885.25 1071.73 1884.53 1070.98 1883.07 1069.48 1882.35 1068.74L1880.92 1067.14C1880.23 1066.37 1878.86 1064.87 1878.18 1064.09 1877.49 1063.4 1876.09 1061.97 1875.37 1061.25 1874.62 1060.56 1873.13 1059.22 1872.38 1058.54 1871.48 1057.88 1869.73 1056.63 1868.83 1055.98L1866.74 1054.7C1865.06 1053.89 1861.66 1052.3 1859.98 1051.49L1857.36 1050.61C1854.19 1048.28 1850.63 1047.34 1846.74 1047.81 1845.34 1047.5 1842.53 1046.93 1841.13 1046.62 1839.23 1046.06 1835.43 1044.94 1833.56 1044.38L1830.91 1043.47C1829.13 1042.75 1825.61 1041.35 1823.84 1040.63L1821.53 1039.57C1820.5 1039.04 1818.48 1038.01 1817.45 1037.48L1815.49 1036.39C1814.61 1035.86 1812.9 1034.74 1812.03 1034.21 1811.28 1033.62 1809.82 1032.43 1809.07 1031.84L1807.42 1030.9C1806.73 1030.31 1805.39 1029.06 1804.71 1028.47 1804.08 1027.78 1802.9 1026.47 1802.28 1025.79 1801.78 1025.04 1800.78 1023.51 1800.25 1022.73L1799.5 1020.95C1799.28 1020.02 1798.85 1018.12 1798.63 1017.18 1798.41 1016.15 1798.01 1014.06 1797.79 1013.03L1799.13 1012.13C1799.57 1011.53 1800.41 1010.32 1800.84 1009.73 1802.18 1009.76 1804.86 1009.85 1806.23 1009.88 1808.01 1010.04 1811.62 1010.35 1813.43 1010.54L1815.77 1011.13C1816.67 1011.6 1818.54 1012.53 1819.48 1013L1821.84 1013.06 1824.21 1013.78C1826.02 1014.25 1829.63 1015.21 1831.44 1015.68 1835.09 1015.78 1838.73 1016.28 1842.35 1017.15 1845.15 1019.24 1848.17 1019.49 1851.35 1017.93L1853.31 1017.3 1855.21 1016.74C1854.59 1016.46 1853.38 1015.87 1852.78 1015.59 1852.13 1015.25 1850.85 1014.56 1850.2 1014.22L1848.83 1013.31C1848.08 1012.88 1846.58 1012 1845.8 1011.53L1843.9 1010.85 1841.85 1009.88C1840.2 1009.2 1836.89 1007.82 1835.24 1007.14 1833.5 1006.42 1830.01 1004.95 1828.23 1004.21L1825.68 1003.24C1823.9 1002.55 1820.32 1001.18 1818.51 1000.49 1816.8 999.808 1813.34 998.435 1811.62 997.749L1809.26 996.969C1808.32 996.439 1806.42 995.41 1805.45 994.88L1803.12 994.599 1800.84 993.695C1799.75 993.196 1797.57 992.229 1796.45 991.73L1794.08 990.607C1792.27 990.077 1788.6 989.047 1786.79 988.517 1786.04 987.862 1784.55 986.552 1783.83 985.897L1781.62 985.242 1779.44 984.338 1775.2 982.467 1772.99 981.469C1771.93 980.97 1769.81 979.971 1768.75 979.441L1766.57 978.412C1765.51 977.882 1763.42 976.821 1762.36 976.322L1760.18 975.231C1759.15 974.701 1757.07 973.64 1756.01 973.11L1753.86 971.987C1752.8 971.457 1750.74 970.334 1749.68 969.804L1747.56 968.65C1746.57 968.057 1744.54 966.903 1743.54 966.342L1741.52 965.126C1740.58 964.533 1738.71 963.317 1737.81 962.724 1736.91 962.1 1735.16 960.884 1734.29 960.26L1732.51 958.981C1731.73 958.358 1730.21 957.079 1729.43 956.455 1728.74 955.831 1727.37 954.552 1726.69 953.929 1726.09 953.274 1724.88 951.995 1724.29 951.34 1723.76 950.622 1722.73 949.188 1722.2 948.471L1721.33 946.88C1721.02 946.007 1720.45 944.26 1720.14 943.387 1720.52 941.921 1721.23 938.989 1721.61 937.523 1725.03 933.937 1726.75 928.634 1723.32 924.424 1722.85 923.707 1721.95 922.241 1721.51 921.523 1721.02 920.899 1720.02 919.652 1719.52 919.059 1719.05 918.467 1718.05 917.313 1717.59 916.751 1717.06 916.221 1716.03 915.161 1715.5 914.661 1716.9 911.543 1718.27 908.392 1719.58 905.243L1721.3 905.866C1721.98 905.648 1723.35 905.211 1724.04 905.024L1725.03 903.527C1726.37 901.437 1727.62 899.317 1728.8 897.164L1729.74 895.574 1729.15 894.264C1728.9 893.578 1728.43 892.268 1728.18 891.613L1727.71 890.24C1729.3 889.554 1732.42 888.244 1733.98 887.59L1736.1 888.089C1737 888.463 1738.78 889.211 1739.68 889.586L1741.64 889.929C1742.48 890.396 1744.17 891.301 1745.01 891.769L1746.94 892.393C1747.78 892.923 1749.49 893.983 1750.34 894.513L1752.36 895.231C1753.29 895.761 1755.2 896.821 1756.16 897.383L1758.16 898.475C1759.09 899.036 1760.96 900.128 1761.89 900.658 1762.74 901.25 1764.45 902.435 1765.29 903.028L1767.35 903.777C1768.38 904.338 1770.37 905.43 1771.37 905.96L1773.64 907.083C1775.36 907.893 1778.78 909.484 1780.5 910.264 1782.3 910.95 1785.92 912.354 1787.72 913.04 1789.1 913.383 1791.84 914.069 1793.24 914.412 1795.11 914.911 1798.91 915.878 1800.81 916.346 1802.18 916.596 1804.89 917.126 1806.26 917.375 1807.98 918.03 1811.37 919.34 1813.06 919.995L1815.64 919.776 1818.17 920.494C1819.91 921.055 1823.37 922.241 1825.11 922.802L1827.58 923.551C1829.23 924.05 1832.5 925.048 1834.15 925.578 1835.27 925.39 1837.52 925.079 1838.64 924.923 1839.32 924.361 1840.66 923.27 1841.35 922.74L1839.45 922.802 1841.04 923.831C1840.79 923.114 1840.26 921.679 1840.01 920.993 1839.54 920.338 1838.61 919.059 1838.14 918.404 1837.58 917.781 1836.46 916.533 1835.9 915.878 1835.27 915.254 1834.03 913.944 1833.4 913.32 1832.72 912.665 1831.35 911.387 1830.66 910.763L1829.01 909.609C1828.23 908.954 1826.73 907.613 1825.96 906.958 1825.24 906.272 1823.77 904.9 1823.03 904.213 1822.34 903.496 1820.97 902.092 1820.29 901.406 1819.66 900.689 1818.42 899.223 1817.79 898.506 1817.26 897.757 1816.23 896.198 1815.74 895.449L1815.21 893.671C1814.8 892.892 1813.96 891.332 1813.56 890.552L1812.37 889.149C1813.56 888.619 1815.92 887.559 1817.11 887.028 1818.45 886.997 1821.06 886.966 1822.37 886.935 1824.12 887.496 1827.61 888.65 1829.35 889.242L1831.75 890.396C1833.56 890.833 1837.11 891.675 1838.89 892.112 1839.51 892.736 1840.76 893.952 1841.38 894.576L1843.19 895.324 1846.68 897.196 1848.86 897.695C1850.51 898.412 1853.84 899.847 1855.53 900.533L1858.05 901.437C1859.86 902.061 1863.47 903.34 1865.28 903.964L1867.89 904.744C1870.85 907.083 1874.25 908.018 1878.02 907.55L1880.64 908.174C1883.69 910.389 1887.09 911.137 1890.83 910.482 1892.17 910.732 1894.82 911.262 1896.16 911.543 1897.96 912.073 1901.55 913.102 1903.35 913.632L1905.91 914.412C1907.72 914.942 1911.27 916.065 1913.04 916.596L1915.63 917.188C1917.28 917.843 1920.65 919.153 1922.3 919.808L1924.88 919.589 1927.44 920.119C1929.15 920.774 1932.55 922.054 1934.26 922.677L1936.91 922.428C1938.25 922.74 1940.93 923.363 1942.27 923.644 1944.14 924.143 1947.91 925.141 1949.78 925.64L1955.26 926.888C1958.44 929.071 1961.93 929.82 1965.76 929.133 1967.13 929.352 1969.84 929.788 1971.22 930.007 1974.18 932.377 1977.51 933.125 1981.25 932.283L1983.87 932.065C1985.21 932.346 1987.89 932.845 1989.22 933.094 1992.4 935.278 1995.92 935.995 1999.76 935.246 2001.88 935.558 2006.11 936.213 2008.23 936.525 2012.53 938.303 2017.17 938.989 2021.85 938.708 2023.22 938.895 2025.93 939.27 2027.3 939.457 2030.26 941.796 2033.59 942.513 2037.33 941.578L2039.98 941.297C2042.04 941.64 2046.18 942.326 2048.24 942.669 2052.66 944.478 2057.46 945.164 2062.26 944.634 2067.21 944.603 2072.2 944.946 2077.09 946.007 2081.33 947.691 2085.91 948.439 2090.49 947.909L2093.11 947.878C2094.42 948.127 2097.06 948.564 2098.37 948.814 2101.46 950.966 2104.88 951.683 2108.59 950.934 2109.96 951.215 2112.64 951.714 2114.01 951.964 2117.22 954.178 2120.77 954.802 2124.61 953.835 2130.47 953.554 2136.39 954.365 2142.06 955.987 2143.33 955.862 2145.89 955.644 2147.17 955.519 2156.95 956.049 2166.98 956.798 2176.86 956.985L2179.79 957.141C2184.84 957.422 2189.88 957.796 2194.93 958.42 2200.04 958.888 2210.23 959.792 2215.31 960.229 2220.17 960.541 2225.06 960.977 2229.89 961.85 2235.28 963.13 2240.83 963.784 2246.4 963.41L2249.12 963.379C2252.92 963.441 2256.72 963.847 2260.46 964.627 2264.66 966.279 2269.21 967.028 2273.76 966.56L2276.41 966.529C2277.75 966.747 2280.43 967.153 2281.77 967.371 2283.67 967.87 2287.44 968.806 2289.34 969.274 2297.78 968.899 2306.26 968.899 2314.8 969.336 2319.97 969.773 2325.14 969.835 2330.34 969.742 2332.56 969.96 2337.01 970.397 2339.23 970.615 2340.97 971.207 2344.49 972.424 2346.24 973.016L2348.82 972.642 2351.38 973.203C2353.06 973.921 2356.36 975.324 2358.01 976.011L2360.6 975.886 2363.12 976.728C2364.9 977.383 2368.39 978.693 2370.17 979.379 2371.91 980.127 2375.43 981.687 2377.18 982.467L2379.67 983.652C2381.51 984.12 2385.18 985.024 2387.05 985.492 2387.71 986.178 2389.05 987.551 2389.73 988.237L2391.94 988.923C2393.56 989.64 2396.87 991.012 2398.52 991.698L2400.79 992.666C2401.85 993.165 2403.94 994.131 2404.97 994.599L2407.09 995.566C2408.08 996.034 2410.05 997.001 2411.04 997.468L2413.1 998.435C2414.07 998.935 2416.06 999.87 2417.03 1000.37L2419.11 1001.37C2420.14 1001.87 2422.2 1002.86 2423.26 1003.36L2425.53 1004.39C2427.25 1005.14 2430.71 1006.64 2432.42 1007.39 2434.23 1008.1 2437.81 1009.6 2439.62 1010.32L2442.23 1011.29C2444.04 1011.97 2447.66 1013.34 2449.46 1014.06L2451.8 1015C2452.73 1015.59 2454.57 1016.77 2455.51 1017.37L2457.69 1017.93C2458.65 1018.52 2460.55 1019.68 2461.52 1020.24L2463.48 1021.48C2464.39 1022.11 2466.23 1023.36 2467.16 1023.98 2468.03 1024.57 2469.81 1025.82 2470.71 1026.44 2471.59 1027.04 2473.36 1028.25 2474.26 1028.84 2475.11 1029.47 2476.82 1030.68 2477.66 1031.31L2479.72 1032.18C2480.62 1032.77 2482.4 1033.99 2483.3 1034.61L2485.45 1035.39C2486.35 1036.02 2488.19 1037.2 2489.1 1037.83L2491.28 1038.61C2492.18 1039.23 2494.02 1040.48 2494.92 1041.1L2497.07 1041.94C2497.98 1042.63 2499.72 1044 2500.59 1044.69L2502.71 1045.66C2503.62 1046.37 2505.45 1047.78 2506.36 1048.49 2507.2 1049.24 2508.88 1050.77 2509.75 1051.52 2510.53 1052.3 2512.15 1053.89 2512.93 1054.7 2513.68 1055.51 2515.18 1057.16 2515.92 1058.01 2516.61 1058.88 2517.98 1060.6 2518.67 1061.47L2519.63 1063.46C2520.25 1064.31 2521.53 1065.96 2522.19 1066.8L2522.93 1068.8C2523.49 1069.67 2524.62 1071.39 2525.18 1072.23L2525.74 1074.32C2526.27 1075.22 2527.33 1077.03 2527.86 1077.94L2528.82 1080.09C2529.29 1081.15 2530.19 1083.33 2530.66 1084.39L2531.63 1086.79C2532.31 1088.6 2533.65 1092.19 2534.31 1094L2535.21 1096.62C2535.8 1098.46 2536.96 1102.17 2537.55 1104.04 2537.89 1105.38 2538.54 1108.1 2538.89 1109.44 2539.39 1111.28 2540.38 1114.96 2540.85 1116.8 2541.16 1118.14 2541.75 1120.82 2542.06 1122.16 2542.53 1123.97 2543.53 1127.59 2544.03 1129.4 2544.31 1130.74 2544.9 1133.42 2545.18 1134.76 2545.65 1136.6 2546.58 1140.25 2547.05 1142.09 2547.3 1143.46 2547.8 1146.18 2548.05 1147.55 2547.39 1151.36 2548.14 1154.85 2550.35 1158.06L2551.47 1163.55C2551.44 1164.89 2551.32 1167.57 2551.26 1168.91L2551.26 1171.5 2553.66 1172.38C2553.87 1173.69 2554.28 1176.34 2554.47 1177.65L2556.21 1185.13C2556.49 1186.51 2557.02 1189.22 2557.3 1190.59 2556.58 1194.37 2557.33 1197.86 2559.58 1201.01 2559.86 1202.35 2560.45 1205.03 2560.76 1206.37 2561.2 1208.18 2562.13 1211.86 2562.6 1213.67 2562.85 1215.01 2563.35 1217.66 2563.56 1219 2562.85 1222.68 2563.6 1226.02 2565.84 1229.05L2566.46 1231.64C2565.81 1235.29 2566.62 1238.62 2568.92 1241.62 2569.2 1242.96 2569.8 1245.58 2570.11 1246.92 2570.61 1248.73 2571.57 1252.38 2572.07 1254.19 2572.35 1255.53 2572.94 1258.21 2573.25 1259.55 2573.75 1261.39 2574.75 1265.07 2575.25 1266.94 2575.56 1268.28 2576.15 1270.97 2576.46 1272.31 2576.99 1274.15 2578.02 1277.8 2578.55 1279.6L2579.17 1282.19C2579.24 1283.47 2579.39 1286.06 2579.45 1287.34 2580.05 1288.31 2581.2 1290.21 2581.79 1291.18L2582.38 1293.64C2582.94 1295.42 2584.07 1298.97 2584.63 1300.75L2585.41 1303.34C2586 1305.15 2587.15 1308.77 2587.71 1310.58L2588.43 1313.13C2588.49 1314.44 2588.65 1317 2588.74 1318.28 2589.3 1319.25 2590.48 1321.15 2591.05 1322.12L2591.64 1324.55C2592.2 1326.29 2593.29 1329.79 2593.85 1331.53L2594.6 1334.06C2595.16 1335.87 2596.25 1339.46 2596.81 1341.23 2597.12 1342.54 2597.78 1345.19 2598.09 1346.51 2598.65 1348.31 2599.74 1351.87 2600.27 1353.68L2600.99 1356.27C2601.51 1358.11 2602.51 1361.79 2603.04 1363.63 2603.35 1365.78 2604.01 1370.05 2604.32 1372.17 2603.63 1376.1 2604.38 1379.78 2606.53 1383.15L2607.78 1388.77 2608.4 1394.13C2609.02 1395.13 2610.24 1397.09 2610.86 1398.06L2611.8 1400.31C2612.33 1401.37 2613.35 1403.43 2613.85 1404.45L2615.01 1406.51C2615.57 1407.45 2616.72 1409.35 2617.28 1410.29 2617.9 1411.19 2619.12 1412.94 2619.74 1413.84L2620.77 1415.71C2621.43 1416.49 2622.76 1418.05 2623.45 1418.8 2624.14 1419.61 2625.48 1421.23 2626.16 1422.04 2626.88 1422.86 2628.31 1424.45 2629 1425.26 2629.74 1426.04 2631.21 1427.66 2631.96 1428.44 2632.7 1429.25 2634.2 1430.84 2634.98 1431.65 2635.73 1432.46 2637.25 1434.05 2638 1434.86 2638.78 1435.67 2640.31 1437.3 2641.05 1438.11 2641.8 1438.92 2643.33 1440.54 2644.08 1441.38 2644.86 1442.19 2646.35 1443.81 2647.1 1444.66L2648.38 1446.5C2649.12 1447.21 2650.68 1448.65 2651.43 1449.37 2652.21 1450.12 2653.74 1451.58 2654.48 1452.33 2655.2 1453.05 2656.67 1454.51 2657.41 1455.23L2659.22 1456.38C2660.06 1457.04 2661.71 1458.38 2662.55 1459.04 2663.36 1459.66 2665.05 1460.91 2665.89 1461.56 2666.7 1462.19 2668.35 1463.43 2669.16 1464.06L2671.22 1464.96C2672.28 1465.49 2674.36 1466.55 2675.39 1467.08L2677.79 1468.08C2679.69 1468.45 2683.49 1469.23 2685.39 1469.64L2693.37 1468.39C2694.4 1468.05 2696.48 1467.3 2697.51 1466.93 2698.29 1466.3 2699.85 1465.09 2700.63 1464.46 2701.28 1463.84 2702.62 1462.53 2703.28 1461.87 2703.87 1461.16 2704.99 1459.75 2705.58 1459.04L2706.49 1457.29 2708.48 1453.67 2709.54 1451.71C2709.98 1450.65 2710.91 1448.52 2711.38 1447.46 2711.85 1446.22 2712.72 1443.72 2713.19 1442.51 2715.55 1439.26 2716.46 1435.67 2715.96 1431.71 2715.96 1426.57 2716.43 1421.45 2717.14 1416.37 2717.77 1411.35 2719.01 1401.3 2719.6 1396.28L2720.73 1390.79 2722.72 1383.56 2723.56 1381.03C2724.18 1379.32 2725.43 1375.92 2726.05 1374.2L2726.96 1371.92C2727.39 1370.86 2728.27 1368.81 2728.7 1367.74L2729.54 1365.62C2730.07 1364.72 2731.13 1362.91 2731.66 1362.01L2732.13 1359.7C2732.91 1358.08 2734.44 1354.8 2735.18 1353.15L2736.27 1350.87C2736.8 1349.84 2737.86 1347.78 2738.39 1346.75L2739.48 1344.7C2740.01 1343.79 2741.1 1341.92 2741.63 1341.02 2742.16 1340.11 2743.19 1338.33 2743.72 1337.43L2744.78 1335.59 2746.9 1332.1C2747.46 1331.25 2748.55 1329.57 2749.11 1328.73L2749.8 1326.54C2750.51 1324.83 2751.98 1321.43 2752.69 1319.71 2753.04 1318.31 2753.75 1315.53 2754.1 1314.13 2756.06 1309.58 2756.9 1304.68 2756.81 1299.75 2757.21 1297.57 2757.99 1293.2 2758.4 1291.02 2759.02 1289.24 2760.3 1285.66 2760.92 1283.88L2761.98 1281.73C2762.51 1280.79 2763.57 1278.95 2764.1 1278.05 2764.63 1277.17 2765.66 1275.49 2766.15 1274.65L2767.25 1272.96C2767.77 1272.18 2768.87 1270.59 2769.4 1269.81 2769.96 1269 2771.05 1267.38 2771.61 1266.57 2772.14 1265.63 2773.2 1263.79 2773.76 1262.86L2774.88 1260.67C2775.56 1258.83 2776.94 1255.21 2777.62 1253.41 2778.18 1251.22 2779.33 1246.89 2779.9 1244.74 2780.55 1242.83 2781.89 1239.03 2782.58 1237.13L2783.67 1234.75C2784.23 1233.69 2785.35 1231.6 2785.91 1230.54L2787.06 1228.52C2787.65 1227.64 2788.81 1225.83 2789.4 1224.93 2789.96 1224.09 2791.11 1222.44 2791.67 1221.59 2792.23 1220.78 2793.36 1219.16 2793.92 1218.35 2794.48 1217.54 2795.6 1215.95 2796.16 1215.14L2797 1213.27C2797.56 1212.39 2798.68 1210.71 2799.24 1209.83L2799.99 1207.81C2800.58 1206.87 2801.74 1205.03 2802.33 1204.13L2803.05 1201.76C2803.89 1200.01 2805.54 1196.52 2806.38 1194.77L2807.5 1192.28C2808.06 1191.15 2809.15 1188.88 2809.71 1187.72L2810.84 1185.41C2811.4 1184.35 2812.52 1182.2 2813.08 1181.14L2814.2 1179.02C2814.76 1178.02 2815.85 1176.09 2816.41 1175.09 2817 1174.25 2818.22 1172.5 2818.81 1171.66L2819.62 1169.57C2820.18 1168.6 2821.34 1166.67 2821.9 1165.7L2823.11 1163.68C2823.67 1162.71 2824.86 1160.81 2825.42 1159.84 2826.07 1158.97 2827.32 1157.22 2827.94 1156.38L2828.78 1154.22C2829.41 1153.26 2830.62 1151.26 2831.21 1150.26L2832.46 1148.21C2833.08 1147.24 2834.3 1145.3 2834.89 1144.34 2835.54 1143.46 2836.85 1141.75 2837.48 1140.91L2838.38 1138.85C2838.97 1137.94 2840.22 1136.1 2840.81 1135.2 2841.5 1134.36 2842.8 1132.7 2843.49 1131.86L2844.46 1129.8C2845.11 1128.9 2846.45 1127.06 2847.1 1126.12 2847.79 1125.19 2849.16 1123.32 2849.81 1122.35L2851.25 1120.38C2851.96 1119.48 2853.34 1117.64 2854.05 1116.7 2854.74 1115.83 2856.11 1114.08 2856.79 1113.21 2857.48 1112.37 2858.82 1110.65 2859.47 1109.81 2860.19 1109.06 2861.62 1107.5 2862.34 1106.76L2863.46 1104.85C2864.18 1104.04 2865.58 1102.42 2866.3 1101.61 2867.04 1100.83 2868.51 1099.27 2869.26 1098.49 2870.04 1097.71 2871.56 1096.21 2872.34 1095.43 2873.12 1094.72 2874.74 1093.22 2875.55 1092.5 2876.42 1091.78 2878.14 1090.32 2879.01 1089.6L2880.85 1088.14 2884.46 1085.39C2885.33 1084.74 2887.14 1083.39 2888.01 1082.71 2888.95 1082.05 2890.82 1080.74 2891.72 1080.09L2893.72 1078.78C2894.68 1078.19 2896.58 1076.94 2897.55 1076.31L2899.67 1075.47C2900.54 1074.82 2902.25 1073.54 2903.13 1072.91 2904.12 1072.32 2906.15 1071.14 2907.15 1070.54L2909.33 1069.33C2910.39 1068.74 2912.54 1067.52 2913.6 1066.93L2915.84 1065.68C2916.9 1065.12 2919.02 1063.93 2920.08 1063.37L2922.35 1062.59C2923.29 1062 2925.16 1060.78 2926.09 1060.16L2928.27 1059.44C2929.21 1058.85 2931.11 1057.69 2932.04 1057.1L2934.22 1056.38C2935.19 1055.82 2937.06 1054.67 2937.99 1054.08L2940.2 1053.36C2941.14 1052.8 2943.04 1051.64 2943.97 1051.08L2946.16 1050.36C2947.09 1049.8 2948.99 1048.68 2949.93 1048.12L2952.08 1047.43C2953.01 1046.87 2954.85 1045.75 2955.78 1045.19L2957.9 1044.56C2958.84 1044 2960.68 1042.91 2961.58 1042.35L2963.79 1041.79C2964.73 1041.2 2966.63 1040.04 2967.56 1039.45 2969.31 1038.67 2972.73 1037.14 2974.48 1036.39L2976.91 1035.3C2978.06 1034.77 2980.37 1033.74 2981.52 1033.21L2983.95 1032.18C2985.66 1031.43 2989.03 1029.94 2990.71 1029.19L2993.05 1028.78C2993.95 1028.25 2995.79 1027.19 2996.69 1026.63L2998.84 1025.79C2999.87 1025.32 3001.99 1024.42 3003.05 1023.98L3005.39 1023.04C3007.1 1022.3 3010.53 1020.83 3012.24 1020.08 3014.05 1019.36 3017.63 1017.9 3019.44 1017.18L3021.99 1016.18C3023.74 1015.43 3027.2 1013.91 3028.94 1013.16L3031.31 1012.66C3032.25 1012.1 3034.12 1010.97 3035.08 1010.41L3037.23 1009.41C3038.29 1008.91 3040.38 1007.92 3041.44 1007.39L3043.59 1006.33C3044.65 1005.8 3046.7 1004.74 3047.76 1004.21L3049.88 1003.14C3050.88 1002.61 3052.84 1001.59 3053.84 1001.06L3055.93 1000.34C3056.8 999.808 3058.54 998.716 3059.42 998.186L3061.41 997.531C3062.25 997.032 3064 996.003 3064.87 995.504L3066.92 994.973C3067.83 994.443 3069.64 993.445 3070.54 992.915L3072.66 992.01C3073.75 991.542 3075.9 990.607 3076.99 990.139L3079.39 989.172C3081.2 988.517 3084.81 987.145 3086.62 986.459L3089.27 985.554C3091.1 984.93 3094.81 983.652 3096.68 982.997L3099.3 982.155C3101.14 981.593 3104.78 980.408 3106.62 979.815L3109.21 979.098C3110.52 979.036 3113.1 978.911 3114.38 978.817 3115.34 978.225 3117.28 977.071 3118.27 976.478L3120.77 975.917C3122.6 975.387 3126.25 974.357 3128.09 973.827L3133.57 972.455C3135.44 971.925 3139.24 970.864 3141.14 970.334L3143.79 969.679C3145.1 969.617 3147.72 969.461 3149.06 969.398L3153.05 967.153 3155.54 966.622C3156.79 966.56 3159.31 966.435 3160.59 966.342 3161.58 965.812 3163.58 964.689 3164.57 964.128L3167.07 963.504C3168.91 962.911 3172.52 961.788 3174.36 961.196L3177.01 960.354C3178.88 959.73 3182.62 958.451 3184.48 957.827L3187.16 956.954C3189.03 956.268 3192.74 954.895 3194.58 954.209L3197.13 953.305 3199.72 953.149 3202.21 953.055 3203.24 950.966 3205.49 950.186C3206.54 949.78 3208.73 948.938 3209.79 948.502L3212.06 947.66 3214.4 947.223C3215.36 946.724 3217.33 945.695 3218.29 945.196L3220.53 944.291C3221.63 943.854 3223.81 942.981 3224.9 942.513L3227.14 941.64 3229.48 941.204C3230.47 940.705 3232.41 939.675 3233.37 939.176L3235.62 938.303C3236.71 937.866 3238.86 936.993 3239.95 936.587L3242.22 935.714 3244.62 935.434C3245.62 934.935 3247.61 933.905 3248.61 933.375L3251.1 932.564C3252.94 931.94 3256.65 930.662 3258.49 930.007L3261.17 929.102C3263 928.385 3266.65 927.012 3268.49 926.326L3270.92 925.39C3272.04 924.923 3274.25 924.018 3275.34 923.582L3277.62 922.677 3279.89 922.303C3280.86 921.804 3282.73 920.774 3283.66 920.244L3285.87 919.371C3286.93 918.903 3289.11 917.937 3290.2 917.469L3292.54 916.44 3299.15 913.071C3300.14 912.447 3302.17 911.262 3303.2 910.67L3305.19 909.422C3306.13 908.86 3308 907.675 3308.93 907.083 3309.8 906.521 3311.58 905.367 3312.45 904.806L3314.41 903.995C3315.26 903.433 3316.91 902.279 3317.72 901.687 3318.68 901.157 3320.58 900.128 3321.52 899.597L3323.61 898.599 3325.88 898.069C3326.82 897.508 3328.75 896.416 3329.68 895.854L3331.99 894.888C3333.11 894.42 3335.42 893.484 3336.57 893.017L3339.09 892.018C3340.93 891.301 3344.67 889.897 3346.51 889.18L3349.06 888.244 3351.59 887.87C3352.58 887.34 3354.61 886.28 3355.61 885.749L3357.88 884.876C3359 884.439 3361.18 883.566 3362.27 883.098L3364.55 882.225 3366.89 881.82C3367.85 881.289 3369.78 880.291 3370.75 879.792L3372.96 878.95C3374.02 878.545 3376.14 877.734 3377.2 877.297L3379.35 876.486 3381.53 875.863C3382.28 875.239 3383.74 873.96 3384.46 873.336 3386.36 872.868 3390.16 871.901 3392.06 871.434L3394.65 870.248C3396.45 869.469 3400.07 867.909 3401.91 867.098L3409.14 864.229 3411.72 863.262C3413.44 862.513 3416.86 861.048 3418.58 860.299L3420.91 859.862C3421.85 859.332 3423.75 858.241 3424.68 857.711L3426.83 856.837C3427.89 856.4 3430.01 855.496 3431.04 855.059L3433.25 854.155 3435.56 853.718C3436.52 853.219 3438.46 852.221 3439.39 851.691L3441.6 850.849C3442.66 850.443 3444.81 849.601 3445.87 849.164L3448.08 848.322 3450.3 847.73C3451.04 847.106 3452.54 845.828 3453.32 845.204 3455.19 844.705 3458.93 843.706 3460.8 843.239L3463.29 842.085C3464.97 841.367 3468.37 839.933 3470.05 839.215L3472.36 839.184C3473.29 838.779 3475.16 837.936 3476.06 837.5Z" stroke="#000000" stroke-width="0.291962" stroke-miterlimit="8" fill-rule="evenodd"/></g></svg>