<svg width="452" height="633" xmlns="http://www.w3.org/2000/svg" xmlns:xlink="http://www.w3.org/1999/xlink" xml:space="preserve" overflow="hidden"><defs><clipPath id="clip0"><rect x="2883" y="924" width="452" height="633"/></clipPath></defs><g clip-path="url(#clip0)" transform="translate(-2883 -924)"><path d="M3103.07 926.871C3104.17 926.633 3106.42 926.185 3107.55 925.974L3110.03 925.763C3117.15 925.658 3124.38 925.579 3131.63 925.5L3134.19 925.79C3135.43 925.974 3137.94 926.37 3139.2 926.58 3140.76 927.081 3143.9 928.109 3145.45 928.61L3147.75 928.347 3150.02 929.032C3151.6 929.638 3154.79 930.824 3156.38 931.404L3158.59 932.406C3160.2 932.959 3163.42 934.04 3165.03 934.567 3165.58 935.147 3166.66 936.281 3167.19 936.86L3168.75 937.599C3169.48 938.047 3170.94 938.969 3171.65 939.444 3172.31 939.971 3173.63 941.052 3174.26 941.605L3175.84 942.475C3176.5 943.055 3177.85 944.241 3178.53 944.847 3179.17 945.506 3180.46 946.798 3181.12 947.457 3181.75 948.168 3182.99 949.592 3183.62 950.33L3184.89 951.885C3185.47 952.649 3186.66 954.178 3187.26 954.969 3187.84 955.733 3188.98 957.262 3189.56 958.053 3190.11 958.844 3191.25 960.478 3191.8 961.295L3192.91 963.035C3193.44 963.878 3194.46 965.539 3194.99 966.383L3195.68 968.201C3196.18 968.966 3197.21 970.468 3197.74 971.233L3198.34 972.998C3198.82 973.737 3199.74 975.265 3200.21 976.003L3200.77 977.77C3201.24 978.534 3202.17 980.063 3202.64 980.827L3203.12 982.672C3203.59 983.489 3204.59 985.071 3205.07 985.862 3205.75 987.338 3207.1 990.237 3207.76 991.687L3208.73 993.743C3209.21 994.692 3210.13 996.59 3210.58 997.539L3211.53 999.463C3212.01 1000.39 3212.93 1002.2 3213.38 1003.1L3214.33 1004.97C3214.8 1005.84 3215.72 1007.58 3216.2 1008.45L3217.15 1010.22C3217.62 1011.06 3218.55 1012.69 3219 1013.51L3219.68 1015.25C3220.18 1015.96 3221.18 1017.39 3221.71 1018.1 3222.19 1018.86 3223.16 1020.42 3223.66 1021.21L3224.69 1022.87C3225.19 1023.66 3226.22 1025.24 3226.72 1026.06 3227.25 1026.85 3228.33 1028.43 3228.86 1029.25L3229.97 1030.94C3230.5 1031.73 3231.58 1033.33 3232.1 1034.15 3232.66 1034.94 3233.74 1036.52 3234.29 1037.34L3235.4 1039C3235.96 1039.79 3237.01 1041.37 3237.56 1042.19 3238.09 1042.96 3239.15 1044.48 3239.68 1045.27L3240.44 1046.99C3240.97 1047.7 3242.08 1049.12 3242.63 1049.83 3243.13 1050.63 3244.16 1052.26 3244.66 1053.05L3245.72 1054.79C3246.22 1055.61 3247.22 1057.27 3247.75 1058.11L3248.46 1059.9C3248.99 1060.64 3250.07 1062.12 3250.6 1062.86 3251.1 1063.67 3252.1 1065.33 3252.6 1066.18L3253.66 1067.92C3254.16 1068.76 3255.16 1070.45 3255.66 1071.26L3256.37 1073.08C3256.93 1073.82 3257.98 1075.32 3258.54 1076.06 3259.04 1076.88 3260.04 1078.54 3260.54 1079.38L3261.59 1081.15C3262.1 1081.99 3263.1 1083.65 3263.63 1084.5L3264.31 1086.34C3264.87 1087.08 3265.95 1088.56 3266.5 1089.32 3267 1090.14 3268.03 1091.8 3268.53 1092.64L3269.59 1094.41C3270.11 1095.22 3271.14 1096.91 3271.64 1097.76L3272.41 1099.55C3272.94 1100.26 3274.02 1101.74 3274.57 1102.45 3275.07 1103.24 3276.08 1104.82 3276.58 1105.58L3277.32 1107.35C3277.84 1108.06 3278.95 1109.54 3279.48 1110.28 3280.01 1111.09 3281.04 1112.75 3281.54 1113.57L3282.59 1115.34C3283.12 1116.18 3284.15 1117.87 3284.68 1118.71L3285.39 1120.56C3285.94 1121.29 3287.02 1122.8 3287.58 1123.53 3288.08 1124.38 3289.11 1126.04 3289.61 1126.88L3290.69 1128.65C3291.19 1129.46 3292.22 1131.15 3292.75 1132L3293.49 1133.79C3294.04 1134.5 3295.12 1135.95 3295.65 1136.69 3296.15 1137.45 3297.15 1139.01 3297.65 1139.77L3298.39 1141.51C3298.92 1142.22 3300.03 1143.67 3300.55 1144.38 3301.08 1145.2 3302.11 1146.81 3302.64 1147.63L3303.72 1149.34C3304.25 1150.18 3305.3 1151.84 3305.86 1152.66 3306.38 1153.48 3307.47 1155.14 3307.99 1155.96L3309.1 1157.7C3309.6 1158.51 3310.66 1160.12 3311.18 1160.94L3311.95 1162.68C3312.5 1163.36 3313.58 1164.76 3314.11 1165.44 3314.61 1166.18 3315.64 1167.63 3316.14 1168.37 3316.67 1169.11 3317.7 1170.61 3318.23 1171.35L3319.31 1172.93C3319.81 1173.7 3320.84 1175.2 3321.34 1175.94 3321.84 1176.67 3322.87 1178.15 3323.37 1178.89L3324.4 1180.44C3324.9 1181.18 3325.88 1182.68 3326.35 1183.42 3326.85 1184.19 3327.88 1185.74 3328.38 1186.51 3328.99 1187.88 3330.26 1190.62 3330.89 1191.99 3331.34 1193.65 3332.21 1196.94 3332.66 1198.6 3332.84 1200.16 3333.21 1203.3 3333.39 1204.85 3333.42 1205.98 3333.47 1208.28 3333.5 1209.44 3332.44 1209.2 3330.33 1208.78 3329.28 1208.57 3327.14 1206.7 3324.69 1205.59 3321.95 1205.22L3320.63 1203.85C3320.02 1203.24 3318.81 1201.98 3318.23 1201.35 3317.65 1200.77 3316.49 1199.58 3315.91 1199 3315.33 1198.39 3314.17 1197.21 3313.58 1196.63 3313 1196.02 3311.82 1194.81 3311.21 1194.2 3310.6 1193.57 3309.39 1192.33 3308.76 1191.72 3308.12 1191.07 3306.86 1189.8 3306.23 1189.17L3303.64 1186.58C3303.01 1185.93 3301.69 1184.63 3301.03 1183.98L3298.39 1181.34C3297.73 1180.68 3296.39 1179.36 3295.73 1178.7 3295.07 1178.04 3293.72 1176.73 3293.06 1176.07 3292.38 1175.41 3291.03 1174.12 3290.35 1173.46 3289.66 1172.83 3288.29 1171.53 3287.63 1170.9 3286.92 1170.27 3285.55 1169.03 3284.83 1168.4 3284.15 1167.82 3282.72 1166.6 3282.01 1166.02 3281.35 1165.42 3280.03 1164.18 3279.35 1163.57L3277.71 1162.65C3276.97 1162.07 3275.47 1160.94 3274.73 1160.36 3273.99 1159.8 3272.52 1158.67 3271.75 1158.12 3271.06 1157.51 3269.69 1156.35 3269.01 1155.74L3267.27 1154.87C3266.5 1154.29 3264.92 1153.16 3264.13 1152.58 3263.34 1152 3261.7 1150.87 3260.91 1150.29L3259.19 1149.08C3258.4 1148.52 3256.79 1147.36 3256 1146.78 3255.24 1146.26 3253.71 1145.15 3252.94 1144.62 3252.26 1144.04 3250.86 1142.93 3250.17 1142.38L3248.51 1141.56C3247.77 1141.06 3246.32 1140.06 3245.58 1139.56 3244.9 1139.06 3243.55 1138.06 3242.87 1137.53L3241.34 1136.79C3240.65 1136.37 3239.25 1135.47 3238.57 1135.05 3237.91 1134.66 3236.59 1133.84 3235.93 1133.44L3234.64 1132.65C3234 1132.47 3232.74 1132.1 3232.1 1131.89L3230.79 1131.94C3231.23 1132.21 3232.16 1132.76 3232.61 1133.02L3231.21 1134.66 3231.21 1140.19C3231.52 1141.25 3232.16 1143.36 3232.47 1144.38 3232.92 1145.83 3233.85 1148.73 3234.29 1150.18L3234.9 1152.29C3235.4 1153.74 3236.38 1156.64 3236.88 1158.09L3237.51 1160.23C3237.99 1161.73 3238.91 1164.68 3239.39 1166.18 3239.62 1167.29 3240.15 1169.5 3240.39 1170.61 3240.86 1172.11 3241.76 1175.09 3242.23 1176.59L3242.84 1178.76C3243.32 1180.23 3244.26 1183.21 3244.74 1184.71L3245.24 1186.9C3244.77 1190.06 3245.45 1192.94 3247.32 1195.55 3247.54 1196.68 3247.93 1198.95 3248.14 1200.08 3248.09 1201.74 3247.96 1205.04 3247.91 1206.7L3247.75 1208.75 3249.96 1209.39C3250.65 1212.73 3251.02 1216.11 3251.12 1219.53 3250.7 1242.28 3250.94 1265.05 3250.99 1287.83 3250.99 1291.2 3250.54 1294.52 3249.62 1297.82 3247.64 1300.32 3246.98 1303.17 3247.64 1306.36L3247.03 1308.47C3246.59 1309.94 3245.66 1312.87 3245.21 1314.35L3244.61 1316.35C3244.16 1317.14 3243.29 1318.77 3242.84 1319.56L3242.63 1321.65 3241.76 1323.7C3241.34 1325.26 3240.52 1328.34 3240.12 1329.9 3239.57 1330.53 3238.49 1331.8 3237.93 1332.45L3237.43 1334.35 3236.69 1336.22 3235.22 1339.91 3234.43 1341.81C3233.95 1342.66 3233 1344.29 3232.53 1345.13L3232.1 1347.22C3231.45 1348.72 3230.13 1351.75 3229.47 1353.25L3228.57 1355.36C3228.15 1356.34 3227.28 1358.29 3226.86 1359.26L3226.01 1361.21C3225.54 1362.03 3224.59 1363.66 3224.11 1364.48L3223.66 1366.35C3223.19 1367.14 3222.24 1368.7 3221.79 1369.46L3221.21 1371.28C3220.74 1372.05 3219.76 1373.57 3219.26 1374.34L3218.63 1376.13C3218.1 1376.9 3217.07 1378.4 3216.54 1379.16L3215.8 1380.93C3215.3 1381.75 3214.25 1383.33 3213.75 1384.12 3213.17 1384.83 3212.01 1386.23 3211.42 1386.94L3210.58 1388.68C3210 1389.42 3208.81 1390.92 3208.23 1391.68 3207.65 1392.42 3206.47 1393.87 3205.86 1394.61 3205.25 1395.35 3204.04 1396.82 3203.43 1397.56 3202.83 1398.33 3201.59 1399.85 3200.98 1400.62L3199.69 1402.2C3199.08 1402.94 3197.81 1404.44 3197.18 1405.18 3196.57 1405.89 3195.31 1407.29 3194.7 1408 3194.07 1408.66 3192.8 1410.03 3192.17 1410.69 3191.54 1411.35 3190.27 1412.69 3189.64 1413.35 3188.98 1414.01 3187.71 1415.3 3187.05 1415.96 3186.42 1416.62 3185.1 1417.94 3184.47 1418.6 3183.81 1419.23 3182.51 1420.55 3181.86 1421.2 3181.2 1421.86 3179.88 1423.16 3179.22 1423.81 3178.58 1424.47 3177.27 1425.79 3176.61 1426.45 3175.95 1427.11 3174.63 1428.4 3173.97 1429.06 3173.31 1429.72 3172.02 1431.04 3171.36 1431.7 3170.7 1432.35 3169.38 1433.65 3168.72 1434.31 3168.09 1434.94 3166.77 1436.26 3166.11 1436.89 3165.45 1437.55 3164.16 1438.81 3163.5 1439.47 3162.81 1440.1 3161.49 1441.37 3160.83 1442 3160.15 1442.63 3158.8 1443.9 3158.12 1444.53 3157.43 1445.17 3156.03 1446.4 3155.32 1447.04 3154.58 1447.67 3153.1 1448.91 3152.37 1449.54L3150.78 1450.83C3150.04 1451.46 3148.54 1452.7 3147.8 1453.31 3147.09 1453.94 3145.69 1455.18 3144.98 1455.81 3144.29 1456.45 3142.92 1457.71 3142.24 1458.32 3141.58 1458.95 3140.23 1460.22 3139.57 1460.85 3138.89 1461.48 3137.57 1462.72 3136.91 1463.35 3136.25 1463.99 3134.9 1465.22 3134.24 1465.83 3133.58 1466.44 3132.24 1467.65 3131.58 1468.26 3130.92 1468.84 3129.58 1469.99 3128.92 1470.6L3127.44 1471.58C3126.83 1472.16 3125.67 1473.34 3125.06 1473.92 3124.51 1474.56 3123.35 1475.79 3122.77 1476.43 3122.24 1477.11 3121.19 1478.54 3120.66 1479.22 3117.52 1481.14 3116.68 1485.34 3119.16 1488.21 3119.66 1489.79 3120.61 1492.98 3121.08 1494.59 3121.48 1495.46 3122.24 1497.2 3122.64 1498.07 3123.17 1498.78 3124.19 1500.23 3124.72 1500.94 3125.28 1501.6 3126.36 1502.89 3126.91 1503.55 3127.47 1504.18 3128.57 1505.45 3129.13 1506.08 3129.68 1506.71 3130.82 1508 3131.37 1508.66 3131.92 1509.32 3133.03 1510.69 3133.58 1511.35 3134.14 1512.09 3135.22 1513.57 3135.77 1514.3L3136.88 1515.94C3137.41 1516.73 3138.46 1518.34 3138.99 1519.15L3140.07 1520.81C3140.6 1521.61 3141.68 1523.16 3142.24 1523.95L3143.4 1525.45C3143.98 1526.14 3145.16 1527.51 3145.74 1528.2L3148.28 1530.52 3150.02 1531.31C3151.36 1531.94 3154.03 1533.18 3155.35 1533.81L3157.56 1533.81 3159.86 1533.97C3163.73 1534.73 3167.8 1534.47 3171.59 1533.18 3173.44 1532.91 3177.16 1532.41 3179.01 1532.18 3183.1 1532.39 3187.18 1531.78 3191.06 1530.28 3192.91 1530.01 3196.63 1529.54 3198.5 1529.3L3200.93 1529.33C3204.14 1529.54 3207.42 1529.62 3210.71 1529.57 3211.87 1529.75 3214.25 1530.12 3215.41 1530.3 3216.86 1530.8 3219.76 1531.81 3221.24 1532.33L3222.98 1533.36C3223.66 1534.05 3225.01 1535.36 3225.7 1536.05L3226.72 1537.76C3227.3 1539.13 3228.44 1541.85 3229.02 1543.22L3229.52 1545.33C3230.34 1546.51 3232 1548.89 3232.82 1550.07L3231.81 1551.89C3231.23 1552.84 3230.1 1554.69 3229.55 1555.61L3227.36 1556.27C3200.77 1555.77 3173.84 1557.9 3147.43 1554.66 3144 1553.13 3140.31 1552.58 3136.65 1552.87L3134.61 1552.74 3134.24 1550.81 3132 1550.76C3130.16 1550.79 3126.46 1550.84 3124.62 1550.86 3115.25 1551.07 3106.26 1550.97 3097 1550.94L3094.52 1550.92C3087.95 1550.49 3081.44 1550.26 3074.97 1550.18 3075.63 1546.91 3074.71 1544.12 3072.15 1541.85 3071.41 1538.55 3071.07 1535.26 3071.12 1531.94 3071.47 1527.98 3070.78 1524.03 3068.96 1520.55 3068.62 1519.52 3067.91 1517.52 3067.56 1516.49 3067.14 1515.68 3066.32 1513.99 3065.93 1513.17L3064.9 1511.64C3064.37 1510.98 3063.29 1509.64 3062.76 1508.98L3060.12 1506.77 3058.59 1505.69C3057.72 1505.32 3055.98 1504.55 3055.11 1504.18 3053.42 1503.89 3050.07 1503.29 3048.39 1503 3042.03 1501.86 3035.67 1501.07 3029.34 1500.68L3027.2 1500.15 3026.1 1502.02C3024.38 1502.28 3020.95 1502.86 3019.21 1503.15 3015.94 1502.52 3012.93 1503.13 3010.19 1504.95 3009 1505.16 3006.63 1505.58 3005.44 1505.82 3002.12 1505.37 2999.14 1506.13 2996.47 1508.08L2994.21 1508.77C2992.68 1509.35 2989.64 1510.51 2988.14 1511.06L2986.13 1511.91 2984.16 1512.43C2983.42 1512.91 2981.91 1513.91 2981.18 1514.38 2980.38 1514.88 2978.8 1515.83 2978.01 1516.33L2976.38 1517.36C2975.61 1517.89 2974.08 1518.92 2973.32 1519.44 2972.6 1520 2971.13 1521.08 2970.39 1521.63 2969.68 1522.19 2968.2 1523.29 2967.49 1523.85L2965.85 1524.74C2965.16 1525.32 2963.82 1526.48 2963.16 1527.06 2962.42 1527.62 2960.97 1528.72 2960.26 1529.3 2959.52 1529.86 2958.04 1530.99 2957.3 1531.54L2955.67 1532.44C2955.01 1533.02 2953.66 1534.18 2953 1534.79L2950.16 1537C2949.44 1537.55 2948.02 1538.66 2947.31 1539.24 2946.57 1539.79 2945.12 1540.93 2944.41 1541.48L2942.88 1542.61C2942.16 1543.14 2940.74 1544.22 2940 1544.75 2939.31 1545.28 2937.92 1546.3 2937.23 1546.83 2936.52 1547.33 2935.09 1548.36 2934.38 1548.86L2932.8 1549.86C2932.01 1550.39 2930.4 1551.42 2929.61 1551.92 2928.13 1552.52 2925.23 1553.76 2923.75 1554.37 2916.79 1555.53 2909.88 1555.74 2903.02 1555.03 2901.44 1554.61 2898.27 1553.82 2896.69 1553.42 2895.58 1553.16 2893.36 1552.68 2892.26 1552.45 2890.86 1551.89 2888.04 1550.84 2886.61 1550.31L2884.71 1549.44C2884.45 1548.47 2883.95 1546.51 2883.71 1545.54L2883.5 1543.69 2883.5 1541.93C2883.92 1541.24 2884.79 1539.87 2885.21 1539.19 2885.66 1538.55 2886.56 1537.29 2887.03 1536.66 2887.51 1536.08 2888.46 1534.86 2888.96 1534.26L2889.78 1532.86C2890.28 1532.23 2891.28 1530.91 2891.78 1530.28 2892.28 1529.59 2893.31 1528.27 2893.84 1527.62 2894.34 1526.88 2895.37 1525.43 2895.9 1524.72L2896.98 1523.11C2897.48 1522.29 2898.51 1520.63 2899.04 1519.79 2899.62 1518.31 2900.83 1515.36 2901.41 1513.86 2901.44 1510.48 2901.65 1507.13 2902.1 1503.81 2902.97 1500.49 2902.54 1497.41 2900.78 1494.51 2900.54 1492.74 2900.06 1489.21 2899.8 1487.44L2899.77 1485.15C2899.99 1480.43 2899.41 1475.74 2898.38 1471.18L2898.38 1453.28C2899.51 1448.54 2900.04 1443.66 2899.93 1438.84 2900.12 1437.13 2900.49 1433.7 2900.7 1431.99 2901.12 1431.12 2901.96 1429.38 2902.39 1428.48 2902.44 1426.85 2902.54 1423.52 2902.6 1421.86L2903.07 1419.65C2904.87 1416.96 2905.55 1414.04 2905.05 1410.85 2905.26 1409.69 2905.68 1407.37 2905.87 1406.21 2906.29 1404.63 2907.11 1401.49 2907.5 1399.91 2907.77 1398.77 2908.29 1396.48 2908.56 1395.35 2909.06 1393.82 2910.01 1390.73 2910.48 1389.18L2911.17 1386.99C2911.64 1385.49 2912.62 1382.46 2913.12 1380.95L2913.73 1378.85C2914.26 1378 2915.28 1376.34 2915.81 1375.5 2915.94 1374.42 2916.21 1372.2 2916.34 1371.1 2916.92 1369.59 2918.08 1366.56 2918.66 1365.06L2919.45 1363.03C2919.9 1362.21 2920.82 1360.58 2921.27 1359.76L2921.64 1357.92C2922.12 1357.15 2923.01 1355.62 2923.49 1354.86L2924.02 1353.09C2924.52 1352.33 2925.52 1350.83 2926.02 1350.09L2926.71 1348.27C2927.21 1347.43 2928.24 1345.77 2928.76 1344.92L2929.87 1343.18C2930.4 1342.37 2931.51 1340.73 2932.06 1339.94 2932.61 1339.15 2933.7 1337.62 2934.25 1336.86 2934.86 1336.17 2936.04 1334.77 2936.62 1334.09L2937.49 1332.4C2938.07 1331.66 2939.26 1330.19 2939.84 1329.45 2940.42 1328.74 2941.58 1327.29 2942.19 1326.55 2942.77 1325.84 2943.93 1324.42 2944.51 1323.7 2945.12 1323.04 2946.33 1321.73 2946.96 1321.07L2947.91 1319.43C2948.52 1318.72 2949.73 1317.3 2950.34 1316.59 2950.95 1315.87 2952.19 1314.5 2952.79 1313.79 2953.43 1313.11 2954.67 1311.74 2955.27 1311.02 2955.91 1310.34 2957.15 1308.94 2957.75 1308.26 2958.39 1307.55 2959.62 1306.12 2960.23 1305.38 2960.86 1304.65 2962.1 1303.14 2962.71 1302.38L2964 1300.8C2964.61 1300.03 2965.85 1298.53 2966.48 1297.77 2967.06 1297.05 2968.28 1295.6 2968.88 1294.87 2969.46 1294.16 2970.65 1292.71 2971.23 1291.99 2971.81 1291.28 2972.95 1289.83 2973.53 1289.12 2974.11 1288.44 2975.29 1287.09 2975.87 1286.41L2976.74 1284.74C2977.32 1284.01 2978.43 1282.5 2978.99 1281.77 2979.57 1281.08 2980.78 1279.74 2981.36 1279.05L2982.28 1277.39C2982.89 1276.65 2984.08 1275.2 2984.68 1274.49 2985.32 1273.78 2986.56 1272.38 2987.19 1271.7 2987.82 1271.01 2989.09 1269.67 2989.72 1269.01L2992.36 1266.37C2993.05 1265.74 2994.39 1264.47 2995.05 1263.84 2995.76 1263.21 2997.19 1261.94 2997.87 1261.34 2998.64 1260.71 3000.14 1259.47 3000.88 1258.83L3002.49 1257.6C3003.25 1256.99 3004.78 1255.78 3005.55 1255.2 3006.29 1254.62 3007.79 1253.43 3008.53 1252.85 3009.27 1252.3 3010.77 1251.16 3011.51 1250.61L3013.2 1249.77C3013.88 1249.19 3015.26 1248.08 3015.94 1247.5 3016.71 1247 3018.24 1245.94 3019 1245.44L3020.74 1244.71C3021.45 1244.15 3022.93 1243.07 3023.64 1242.52 3024.49 1242.02 3026.15 1241.02 3026.99 1240.49L3028.81 1239.46C3029.71 1238.96 3031.48 1237.93 3032.37 1237.43L3034.19 1236.4C3035.04 1235.9 3036.75 1234.95 3037.6 1234.45L3039.36 1233.79C3040.08 1233.29 3041.53 1232.32 3042.24 1231.82L3043.88 1231.16C3044.59 1230.68 3045.96 1229.73 3046.64 1229.26 3047.38 1228.81 3048.89 1227.89 3049.63 1227.44 3050.47 1226.99 3052.1 1226.04 3052.95 1225.6L3054.85 1224.65C3056.38 1224.07 3059.46 1222.88 3060.99 1222.3 3062.18 1222.01 3064.53 1221.4 3065.69 1221.09 3067.46 1221.11 3070.94 1221.17 3072.68 1221.19L3074.84 1221.43 3075.61 1219.22C3079.91 1218.45 3084.26 1218.14 3088.66 1217.93 3096.47 1217.53 3104.68 1217.53 3112.64 1217.06 3113.75 1217.08 3115.99 1217.16 3117.1 1217.19 3122.08 1215.66 3127.33 1215.24 3132.56 1215.32 3134.4 1215.34 3138.07 1215.39 3139.89 1215.42L3142.18 1215.53 3143 1213.47C3144.14 1213.26 3146.4 1212.81 3147.56 1212.6 3149.09 1212.07 3152.21 1211.02 3153.74 1210.52L3155.77 1209.67C3156.67 1209.25 3158.49 1208.38 3159.38 1207.96L3161.15 1207.04C3161.97 1206.56 3163.58 1205.62 3164.39 1205.14L3165.92 1204.11C3166.64 1203.59 3168.03 1202.58 3168.72 1202.06 3169.33 1201.5 3170.57 1200.4 3171.17 1199.84 3171.73 1199.24 3172.86 1198 3173.44 1197.39 3173.94 1196.68 3175 1195.26 3175.5 1194.54L3176.55 1192.94C3177.03 1192.07 3177.95 1190.35 3178.4 1189.48L3179.3 1187.48C3179.77 1185.9 3180.77 1182.76 3181.28 1181.18 3181.46 1179.39 3181.88 1175.8 3182.09 1174.01 3186.02 1172.11 3186.02 1170.27 3182.12 1168.53 3181.78 1165.26 3181.67 1161.99 3181.83 1158.75 3182.51 1155.45 3181.91 1152.45 3180.06 1149.71L3179.4 1147.47C3178.88 1145.97 3177.85 1142.96 3177.32 1141.43L3176.63 1139.27C3176.03 1137.82 3174.81 1134.95 3174.21 1133.5 3173.57 1132.07 3172.33 1129.25 3171.7 1127.83L3170.83 1125.91C3170.41 1125.04 3169.56 1123.27 3169.14 1122.4L3168.27 1120.61C3167.85 1119.74 3166.98 1118.03 3166.56 1117.18L3165.69 1115.39C3165.24 1114.52 3164.34 1112.81 3163.89 1111.94L3163 1110.12C3162.52 1109.27 3161.6 1107.53 3161.15 1106.66L3160.2 1104.87C3159.75 1104.03 3158.83 1102.37 3158.38 1101.52L3157.75 1099.76C3157.25 1099.02 3156.27 1097.54 3155.77 1096.81L3155.11 1095.09C3154.61 1094.38 3153.61 1092.91 3153.1 1092.19 3152.6 1091.38 3151.63 1089.74 3151.13 1088.95L3150.1 1087.21C3149.57 1086.39 3148.54 1084.73 3148.01 1083.89 3147.49 1083.07 3146.4 1081.41 3145.88 1080.6L3144.77 1078.86C3144.24 1078.01 3143.19 1076.38 3142.66 1075.56L3141.89 1073.79C3141.34 1073.08 3140.23 1071.66 3139.68 1070.95 3139.15 1070.16 3138.1 1068.6 3137.57 1067.84 3137.01 1067.02 3135.93 1065.39 3135.38 1064.6L3134.27 1062.86C3133.72 1062.01 3132.64 1060.35 3132.11 1059.53L3131.32 1057.74C3130.74 1057 3129.63 1055.55 3129.05 1054.82 3128.55 1054.03 3127.49 1052.47 3126.96 1051.68L3126.17 1049.94C3125.62 1049.2 3124.51 1047.78 3123.93 1047.04 3123.43 1046.25 3122.37 1044.69 3121.85 1043.9L3121.06 1042.16C3120.5 1041.45 3119.39 1040 3118.84 1039.29 3118.31 1038.5 3117.28 1036.95 3116.76 1036.15L3116.02 1034.41C3115.46 1033.68 3114.36 1032.23 3113.83 1031.49 3113.3 1030.67 3112.3 1029.04 3111.77 1028.25L3110.74 1026.51C3110.24 1025.69 3109.26 1024.06 3108.76 1023.24L3108.08 1021.5C3107.58 1020.79 3106.57 1019.34 3106.07 1018.63 3105.6 1017.83 3104.7 1016.25 3104.25 1015.46L3103.33 1013.78C3102.88 1012.93 3102.01 1011.27 3101.56 1010.43L3100.69 1008.64C3100.27 1007.77 3099.4 1005.97 3098.98 1005.1L3098.13 1003.15C3097.5 1001.76 3096.21 998.909 3095.57 997.512 3094.99 996.036 3093.86 993.137 3093.28 991.687L3092.51 989.578C3092.04 988.076 3091.06 985.071 3090.59 983.568 3090.38 982.435 3089.96 980.168 3089.75 979.008 3090.43 975.687 3089.82 972.63 3087.93 969.835 3087.21 962.639 3087.19 955.47 3087.9 948.353L3090.22 947.588 3090.06 945.427C3089.93 944.32 3089.69 942.08 3089.56 940.946L3089.14 938.627C3089.19 938.126 3089.3 937.124 3089.32 936.623L3090.27 934.567 3091.22 932.564C3091.93 931.72 3093.39 930.034 3094.12 929.19L3095.71 927.688 3094.92 929.058C3095.68 928.821 3097.18 928.373 3097.95 928.162L3099.69 928.136 3103.07 926.871M3092.57 1497.25C3091.43 1497.22 3089.14 1497.17 3088 1497.12 3086.47 1497.38 3083.42 1497.88 3081.89 1498.15L3080.06 1499.36C3079.77 1500.04 3079.25 1501.36 3078.96 1502.02 3074.39 1502.47 3074.1 1503.84 3078.09 1506.13L3078.51 1508.29C3078.88 1509.82 3079.59 1512.85 3079.93 1514.38L3080.78 1516.33C3081.38 1516.62 3082.6 1517.23 3083.18 1517.55 3083.76 1518.15 3084.89 1519.39 3085.47 1520L3086.79 1521.16C3087.48 1521.66 3088.88 1522.69 3089.56 1523.21 3090.35 1523.69 3091.91 1524.64 3092.7 1525.11L3094.52 1526.03C3096 1526.56 3098.95 1527.62 3100.43 1528.14 3103.41 1529.04 3106.5 1529.43 3109.66 1529.36 3110.29 1529.46 3111.59 1529.7 3112.22 1529.8 3115.99 1533.31 3119.45 1525.27 3114.49 1524.8L3114.01 1522.77C3113.46 1522.34 3112.38 1521.53 3111.85 1521.13 3111.43 1520.39 3110.64 1518.97 3110.24 1518.23L3109.9 1515.83C3109.32 1515.36 3108.18 1514.41 3107.6 1513.94 3107.13 1513.2 3106.15 1511.75 3105.65 1511.04L3105.15 1508.58C3104.54 1508.14 3103.33 1507.21 3102.72 1506.77 3102.2 1506.08 3101.11 1504.71 3100.59 1504.02L3100.19 1501.63C3099.66 1501.15 3098.58 1500.2 3098.05 1499.7L3096.42 1497.94C3095.71 1493.56 3094.41 1493.32 3092.57 1497.25Z" stroke="#000000" stroke-width="0.24685" stroke-miterlimit="8" fill-rule="evenodd"/></g></svg>