<svg width="1177" height="850" xmlns="http://www.w3.org/2000/svg" xmlns:xlink="http://www.w3.org/1999/xlink" xml:space="preserve" overflow="hidden"><defs><clipPath id="clip0"><rect x="2439" y="1626" width="1177" height="850"/></clipPath></defs><g clip-path="url(#clip0)" transform="translate(-2439 -1626)"><path d="M3134.32 1627.78C3136.56 1627.78 3141.08 1627.72 3143.32 1627.69 3147.25 1628.15 3151.21 1628.09 3155.2 1627.5 3159.19 1627.62 3163.18 1627.84 3167.23 1628.12 3169.03 1628.84 3172.62 1630.24 3174.43 1630.93 3175.7 1631.37 3178.23 1632.21 3179.47 1632.64L3182.19 1633.3C3183.9 1638.26 3189.63 1639.88 3194.22 1637.82L3197.14 1637.76C3197.86 1638.44 3199.29 1639.88 3200.01 1640.56L3202.16 1641.34C3203.1 1641.87 3204.97 1642.93 3205.9 1643.5 3206.65 1644.15 3208.18 1645.46 3208.92 1646.11L3210.92 1646.93C3211.6 1647.67 3212.98 1649.17 3213.66 1649.92 3214.47 1650.48 3216.16 1651.63 3216.97 1652.19 3217.71 1652.97 3219.15 1654.53 3219.86 1655.31 3220.58 1656.12 3221.98 1657.81 3222.7 1658.65 3223.35 1659.55 3224.69 1661.39 3225.38 1662.3L3226.69 1664.29C3227.34 1665.32 3228.59 1667.32 3229.21 1668.31L3230.46 1670.43C3231.08 1671.46 3232.27 1673.52 3232.89 1674.55L3234.11 1676.61C3234.7 1677.61 3235.88 1679.54 3236.51 1680.54L3237.72 1682.44C3238.34 1683.31 3239.56 1685.09 3240.15 1685.96 3240.81 1686.77 3242.05 1688.39 3242.71 1689.24 3243.36 1690.02 3244.67 1691.64 3245.32 1692.45 3246.01 1693.32 3247.41 1695 3248.1 1695.88 3248.82 1696.81 3250.28 1698.71 3251 1699.65 3251.96 1701.15 3253.96 1704.17 3254.92 1705.7L3256.36 1707.98C3257.01 1709 3258.35 1711.06 3259.04 1712.09 3259.69 1713.06 3261 1714.96 3261.66 1715.93L3262.96 1717.8C3263.62 1718.67 3264.86 1720.42 3265.49 1721.26 3266.11 1722.07 3267.33 1723.69 3267.95 1724.47 3268.54 1725.25 3269.76 1726.81 3270.35 1727.62 3270.94 1728.4 3272.13 1729.99 3272.72 1730.8L3273.47 1732.76C3274.12 1733.51 3275.43 1735.01 3276.08 1735.76L3277.27 1737.63C3277.86 1738.56 3279.04 1740.4 3279.64 1741.31 3280.26 1742.27 3281.48 1744.14 3282.1 1745.11 3282.72 1746.14 3283.91 1748.23 3284.53 1749.26L3285.75 1751.6C3286.49 1753.31 3287.96 1756.71 3288.71 1758.39L3289.49 1761.04 3289.49 1763.76 3289.3 1766.38 3291.48 1768.03C3291.98 1772.92 3292.48 1777.85 3293.01 1782.81 3290.92 1789.07 3290.79 1796.12 3294.19 1802.05L3294.07 1805.07 3293.88 1807.94C3294.32 1809.78 3295.13 1813.43 3295.53 1815.27L3295.53 1817.85C3296.06 1818.79 3297.12 1820.69 3297.65 1821.66 3298.12 1823.65 3299.05 1827.68 3299.52 1829.67L3300.27 1832.41C3300.52 1834.29 3301.05 1838 3301.3 1839.87L3301.61 1842.45C3302.23 1843.39 3303.48 1845.29 3304.07 1846.23 3304.41 1848.29 3305.04 1852.4 3305.38 1854.43 3305.32 1856.58 3305.16 1860.88 3305.1 1863L3304.94 1865.75 3307.4 1866.96C3307.75 1870.83 3308.12 1874.73 3308.56 1878.65 3305.1 1887.23 3305.78 1894.96 3310.58 1901.82 3310.43 1903.26 3310.12 1906.12 3309.96 1907.59 3309.59 1909.37 3308.81 1912.98 3308.43 1914.79 3307.84 1915.7 3306.69 1917.57 3306.1 1918.47L3305.94 1921.15C3305 1934.31 3304.85 1947.5 3304.51 1960.78 3300.58 1963.28 3299.89 1966.52 3302.51 1970.51L3302.29 1973.25 3301.55 1978.74C3300.92 1980.52 3299.71 1984.1 3299.11 1985.88 3299.02 1987.32 3298.83 1990.18 3298.74 1991.62 3297.93 1993.36 3296.37 1996.83 3295.56 1998.57L3295.75 2001.41C3294.97 2003.16 3293.35 2006.62 3292.54 2008.36 3292.48 2009.8 3292.32 2012.7 3292.23 2014.13 3291.45 2015.91 3289.89 2019.49 3289.11 2021.27L3288.18 2024.02C3287.83 2025.82 3287.09 2029.47 3286.71 2031.31 3285.93 2031.84 3284.34 2032.9 3283.56 2033.43L3282.38 2035.21 3280.79 2036.58 3281.1 2039.11 3281.35 2041.76 3280.23 2044.19C3279.54 2045.97 3278.14 2049.46 3277.46 2051.23L3276.74 2053.98C3276.05 2055.73 3274.68 2059.15 3274 2060.87L3273.06 2063.33C3272.56 2064.46 3271.6 2066.7 3271.13 2067.82L3270.19 2070.13C3269.79 2071.25 3268.92 2073.47 3268.51 2074.59L3267.73 2077.02C3263.34 2080.54 3262.25 2086.41 3264.3 2091.55L3263.52 2093.95 3261.9 2098.44 3261.06 2100.72C3260.63 2101.84 3259.79 2104.08 3259.38 2105.21 3258.98 2106.42 3258.2 2108.92 3257.79 2110.17L3255.3 2116.65 3254.24 2118.96C3253.71 2120.02 3252.62 2122.11 3252.09 2123.14 3251.59 2124.2 3250.56 2126.28 3250.03 2127.35L3249.03 2129.62C3245.14 2132.37 3243.77 2137.48 3246.07 2141.75 3245.85 2143.15 3245.45 2145.93 3245.26 2147.33 3244.7 2149.14 3243.64 2152.69 3243.08 2154.5 3243.3 2156.56 3243.7 2160.65 3243.89 2162.7L3244.14 2165.29 3246.82 2165.17C3258.98 2164.92 3271.25 2164.85 3283.53 2164.64 3309.18 2164.29 3334.77 2163.33 3360.48 2163.05L3363.47 2163.14C3416.11 2163.39 3468.96 2166.1 3521.54 2161.58 3546.62 2160.21 3571.77 2160.52 3596.89 2162.36 3598.05 2162.77 3600.32 2163.64 3601.47 2164.07 3602.22 2165.04 3603.72 2166.97 3604.47 2167.94 3605.03 2169.59 3606.12 2172.9 3606.68 2174.55 3607.27 2176.42 3608.45 2180.13 3609.05 2182 3609.45 2183.06 3610.29 2185.22 3610.73 2186.31L3611.57 2188.43C3611.98 2189.46 3612.75 2191.48 3613.16 2192.48 3613.38 2193.57 3613.78 2195.72 3614 2196.78 3614.16 2199.87 3614.31 2202.99 3614.5 2206.17 3614.16 2207.07 3613.44 2208.94 3613.1 2209.88L3613.19 2212.03C3612.57 2212.93 3611.35 2214.71 3610.73 2215.58 3609.7 2216.11 3607.61 2217.14 3606.58 2217.67L3603.97 2218.08C3593.03 2219.11 3582.49 2220.04 3571.68 2220.85 3570.43 2221.29 3567.94 2222.23 3566.69 2222.69 3551.24 2222.97 3535.65 2222.47 3520.29 2222.38 3519.01 2221.94 3516.46 2221.07 3515.18 2220.64 3500.62 2220.29 3486.23 2219.86 3471.8 2220.51 3470.55 2220.95 3468.09 2221.88 3466.87 2222.35 3442.16 2222.91 3417.48 2222.97 3392.83 2223.19 3391.05 2222.32 3387.5 2220.54 3385.69 2219.67 3353.59 2219.92 3321.49 2219.82 3289.45 2219.95 3287.55 2220.64 3283.72 2222.04 3281.82 2222.72 3277.67 2222.57 3273.59 2222.47 3269.51 2222.41L3268.98 2219.42C3265.4 2220.32 3258.26 2222.1 3254.67 2223.01L3252.09 2223.63C3250.87 2224 3248.44 2224.75 3247.23 2225.09 3243.95 2226.44 3240.74 2227.84 3237.6 2229.27 3236.63 2229.93 3234.67 2231.24 3233.7 2231.92 3232.98 2232.76 3231.49 2234.51 3230.77 2235.35L3229.43 2237.22 3227.31 2238.06 3226.75 2240.09 3226.19 2242.12C3225.63 2242.93 3224.51 2244.52 3223.95 2245.3L3222.82 2246.83C3222.26 2247.51 3221.14 2248.85 3220.61 2249.54 3220.02 2250.07 3218.9 2251.19 3218.31 2251.72 3217.74 2252.19 3216.59 2253.09 3216 2253.56 3215.41 2253.97 3214.22 2254.75 3213.6 2255.15L3212.35 2255.96 3211.48 2254.28 3210.61 2252.59 3209.74 2250.88 3210.64 2249.23C3210.89 2248.39 3211.39 2246.73 3211.64 2245.92L3211.45 2243.93C3211.36 2242.4 3211.14 2239.31 3211.04 2237.78 3210.76 2236.82 3210.17 2234.88 3209.89 2233.92 3206.81 2232.76 3200.6 2230.43 3197.52 2229.27L3195.59 2231.27C3194.18 2231.17 3191.41 2230.99 3190.01 2230.89L3188.32 2228.84 3185.89 2229.33 3183.34 2229.62 3180.69 2229.77C3179.79 2223.44 3171.34 2223.82 3169.31 2229.18 3145.88 2228.68 3122.38 2229.55 3099.26 2233.33L3096.36 2233.67C3096.14 2235.7 3095.77 2239.75 3095.55 2241.74 3095.67 2245.55 3095.73 2249.38 3095.73 2253.25 3095.27 2254.5 3094.36 2256.96 3093.9 2258.21 3092.24 2286.21 3093.49 2314.3 3095.36 2342.3 3095.89 2358.61 3096.17 2374.79 3096.64 2391.16 3094.52 2396.8 3095.3 2403.07 3099.01 2407.93 3098.95 2417.13 3098.57 2426.08 3098.7 2435.47 3098.04 2437.18 3096.73 2440.64 3096.08 2442.36L3095.8 2445.13 3094.96 2447.75C3094.11 2449.28 3092.4 2452.3 3091.56 2453.83 3090.84 2454.7 3089.44 2456.48 3088.75 2457.35 3088.07 2458.13 3086.76 2459.66 3086.07 2460.44 3085.45 2461.16 3084.17 2462.59 3083.55 2463.31 3082.9 2464.03 3081.62 2465.49 3080.96 2466.21 3080.28 2467.02 3078.94 2468.61 3078.25 2469.39 3077.54 2470.32 3076.16 2472.16 3075.48 2473.07 3074.45 2473.69 3072.39 2474.91 3071.36 2475.5L3065.97 2475.5C3064.23 2474.85 3060.77 2473.57 3059.02 2472.94L3056.62 2471.67C3055.53 2471.07 3053.35 2469.86 3052.23 2469.26 3051.05 2468.95 3048.61 2468.36 3047.4 2468.08L3044.72 2468.05C3043.72 2462.93 3041.91 2462.62 3039.3 2467.05L3036.99 2466.71C3035.99 2467.05 3034.03 2467.71 3033.03 2468.05 3029.64 2468.2 3026.24 2468.36 3022.9 2468.55L3020.32 2468.27 3017.73 2467.99C3016.51 2467.64 3014.11 2466.96 3012.9 2466.65 3011.34 2465.9 3008.19 2464.4 3006.6 2463.65L3004.36 2462.4C3003.39 2461.75 3001.43 2460.41 3000.47 2459.75 2999.75 2458.79 2998.35 2456.85 2997.63 2455.89L2996.32 2453.67C2995.63 2452.02 2994.23 2448.65 2993.55 2447L2993.67 2444.16C2995.01 2439.83 2993.92 2436.49 2990.34 2434.12 2990.59 2428.76 2991.12 2418.04 2991.36 2412.67L2993.83 2411.27 2993.48 2408.59C2993.39 2406.47 2993.2 2402.23 2993.11 2400.11 2993.3 2398.7 2993.67 2395.93 2993.83 2394.53L2996.29 2393.47 2996.41 2390.78C2996.44 2389.35 2996.48 2386.54 2996.48 2385.14L2996.54 2382.33C2997.16 2381.4 2998.41 2379.56 2999.06 2378.66 2999.16 2377.31 2999.37 2374.6 2999.47 2373.23L2999.72 2370.42C3003.18 2367.56 3003.99 2364.13 3002.15 2360.07 3002.4 2357.89 3002.86 2353.52 3003.11 2351.34 3006.73 2347.79 3007.48 2342.42 3005.39 2337.93 3005.61 2335.81 3006.01 2331.54 3006.2 2329.39 3009.88 2325.96 3010.62 2320.63 3008.6 2316.17 3008.66 2314.02 3008.82 2309.72 3008.88 2307.53 3012.62 2305.04 3013.71 2301.7 3012.12 2297.49 3012.25 2292.16 3012.43 2281.47 3012.56 2276.14 3013.12 2274.23 3014.27 2270.43 3014.86 2268.53 3014.43 2263.07 3014.02 2257.68 3013.55 2252.28 3013.31 2251.16 3012.84 2248.98 3012.62 2247.86 3012.25 2246.83 3011.53 2244.77 3011.15 2243.74 3010.38 2242.15 3008.82 2239.03 3008.01 2237.44L3006.95 2235.29 3004.2 2234.88C2987.5 2232.7 2970.67 2231.83 2953.91 2231.36 2927.95 2230.11 2901.92 2228.21 2875.96 2229.8 2874.75 2230.27 2872.29 2231.21 2871.04 2231.67 2852.87 2232.08 2834.7 2232.42 2816.59 2232.86L2813.63 2232.8C2791.04 2232.64 2768.48 2233.45 2745.94 2234.54 2733.67 2234.92 2721.39 2235.38 2709.2 2235.98L2706.3 2236.04C2697.48 2231.77 2690.19 2232.52 2684.39 2238.22 2672.08 2238.25 2659.81 2238.35 2647.56 2238.5 2646.75 2232.83 2638.96 2232.58 2638.74 2238.66 2629.64 2238.84 2620.32 2238.78 2611.38 2239.22 2593.83 2239.66 2576.35 2240.4 2558.89 2241.21 2556.65 2241.25 2552.13 2241.34 2549.89 2241.37 2545.99 2240.68 2542.16 2240.81 2538.33 2241.71 2528.14 2242.27 2517.69 2241.93 2507.6 2242.24 2505.63 2242.68 2501.71 2243.52 2499.71 2243.96 2498.28 2243.9 2495.35 2243.77 2493.92 2243.71 2491.95 2239.81 2488.93 2238.63 2484.82 2240.06 2483.85 2239.44 2481.92 2238.16 2480.95 2237.5 2480.05 2236.91 2478.24 2235.76 2477.34 2235.17 2476.56 2234.54 2475.06 2233.26 2474.31 2232.64L2472.29 2231.98C2471.54 2231.33 2470.04 2230.08 2469.3 2229.46L2467.27 2228.77C2466.37 2228.21 2464.59 2227.03 2463.72 2226.44L2460.1 2223.94C2459.14 2223.25 2457.24 2221.91 2456.3 2221.26 2455.43 2220.54 2453.71 2219.11 2452.84 2218.42L2451.22 2216.86C2450.47 2216.11 2448.98 2214.65 2448.23 2213.9 2447.57 2213.12 2446.2 2211.59 2445.55 2210.81 2444.93 2209.97 2443.74 2208.29 2443.12 2207.45 2442.78 2206.42 2442.06 2204.36 2441.72 2203.33 2441.09 2199.25 2440.63 2195.16 2440.5 2191.11 2440.94 2190.3 2441.84 2188.74 2442.28 2187.96 2452.53 2186.03 2462.97 2184.19 2473.38 2182.97 2486.78 2182.41 2500.15 2182.41 2513.64 2182.35 2518.1 2183.91 2521.47 2182.75 2523.71 2178.85 2525.83 2179.07 2530 2179.48 2532.12 2179.7 2532.84 2185.31 2540.76 2185.15 2540.73 2179.26 2551.01 2178.92 2561.11 2178.29 2571.52 2178.07 2581.64 2177.89 2592.05 2178.54 2602.31 2178.42L2607.29 2176.67C2633.78 2176.02 2660.24 2175.92 2686.79 2175.14 2696.8 2174.68 2707.14 2174.58 2717.27 2174.05 2721.17 2173.87 2725.06 2173.68 2729.02 2173.55 2730.77 2174.05 2734.32 2175.02 2736.1 2175.52 2735.69 2181.41 2743.86 2181.04 2744.11 2175.58L2746.6 2175.36C2747.75 2175.11 2750.09 2174.61 2751.24 2174.36L2758.72 2173.87C2759.72 2174.21 2761.68 2174.93 2762.68 2175.27L2761.4 2173.58C2767.35 2172.93 2773.37 2172.43 2779.42 2172.09 2824.79 2171.4 2870.63 2176.92 2915.82 2170.65 2917.22 2170.31 2920.03 2169.66 2921.4 2169.31 2921.4 2167.94 2921.34 2165.2 2921.31 2163.86 2920.96 2162.64 2920.28 2160.18 2919.97 2158.96L2919.06 2156.44C2920.4 2152.13 2919.16 2149.08 2915.35 2147.21L2915.82 2144.34C2915.7 2138.79 2915.42 2127.72 2915.26 2122.17 2915.54 2118.24 2915.82 2114.31 2916.16 2110.41L2918.63 2109.2 2918.32 2106.49C2919.03 2102.65 2919.03 2098.88 2918.32 2095.11 2918.53 2093.8 2919 2091.18 2919.22 2089.87 2919.87 2088.96 2921.12 2087.19 2921.74 2086.28L2922.12 2083.76C2922.4 2081.89 2923.02 2078.14 2923.3 2076.27 2923.77 2071.07 2924.7 2060.65 2925.14 2055.44 2925.58 2054.17 2926.48 2051.61 2926.92 2050.3 2926.98 2042.22 2927.17 2034.18 2927.48 2026.2 2927.63 2023.98 2927.95 2019.56 2928.1 2017.31 2931.65 2014.6 2932.56 2011.17 2930.78 2007.02 2930.97 2004.87 2931.34 2000.54 2931.53 1998.35 2934.99 1995.61 2935.77 1992.24 2933.87 1988.25 2934.02 1986.88 2934.4 1984.14 2934.55 1982.76L2936.98 1981.77 2937.08 1979.08C2937.05 1977.71 2936.98 1974.91 2936.98 1973.53 2937.17 1972.13 2937.54 1969.29 2937.76 1967.89 2938.32 1966.11 2939.45 1962.53 2940.01 1960.75L2940.47 1958.04C2941.16 1957.1 2942.56 1955.23 2943.25 1954.3 2943.31 1952.96 2943.4 1950.27 2943.47 1948.9L2943.4 1946.13C2944.18 1944.44 2945.8 1941.05 2946.58 1939.36L2946.46 1936.52C2947.27 1934.87 2948.92 1931.5 2949.73 1929.85L2949.51 1927.05C2950.35 1925.46 2952.04 1922.31 2952.88 1920.72L2953.47 1918.13 2955.34 1913.51 2955.93 1910.96C2956.77 1909.37 2958.42 1906.22 2959.27 1904.63L2959.05 1901.85C2959.89 1900.17 2961.54 1896.86 2962.35 1895.18L2962.2 1892.37C2963.01 1890.69 2964.69 1887.35 2965.5 1885.67L2965.37 1882.86C2966.12 1881.24 2967.65 1878 2968.43 1876.38L2968.83 1873.79C2969.36 1872.82 2970.45 1870.89 2971.01 1869.89L2971.17 1867.37 2971.67 1864.78C2972.29 1863.06 2973.57 1859.63 2974.19 1857.89 2974.44 1856.49 2974.91 1853.65 2975.13 1852.24 2975.78 1850.41 2977.06 1846.76 2977.72 1844.95L2978.37 1842.14C2979.05 1840.4 2980.43 1836.9 2981.11 1835.16L2982.11 1832.73C2982.64 1831.6 2983.7 1829.42 2984.23 1828.33L2985.35 1826.18C2985.76 1825.24 2986.6 1823.37 2987.03 1822.44L2986.94 1820.16C2987.72 1819.51 2989.21 1818.2 2989.96 1817.54L2990.8 1815.33C2991.33 1814.27 2992.39 1812.12 2992.92 1811.06 2993.83 1809.53 2995.6 1806.44 2996.51 1804.91L2997.85 1802.67C2998.5 1801.67 2999.81 1799.64 3000.43 1798.65 3001.09 1797.71 3002.4 1795.87 3003.02 1794.94 3003.68 1794.03 3004.92 1792.22 3005.58 1791.32L3006.85 1789.48C3007.48 1788.61 3008.72 1786.83 3009.35 1785.96 3010 1785.08 3011.25 1783.34 3011.9 1782.46L3013.18 1780.69C3013.8 1779.81 3015.08 1778.1 3015.74 1777.26 3016.39 1776.42 3017.67 1774.73 3018.32 1773.89 3018.98 1773.05 3020.29 1771.36 3020.94 1770.52 3021.63 1769.62 3022.97 1767.84 3023.62 1766.97L3024.99 1765.1C3025.68 1764.19 3027.05 1762.35 3027.73 1761.45 3028.42 1760.54 3029.82 1758.7 3030.54 1757.8L3031.97 1755.96C3032.69 1755.09 3034.12 1753.34 3034.84 1752.47 3035.59 1751.69 3037.05 1750.07 3037.8 1749.26 3038.55 1748.51 3040.08 1747.01 3040.82 1746.23L3043.94 1743.36 3045.84 1742.34C3046.49 1741.59 3047.77 1740.12 3048.43 1739.37 3049.18 1738.69 3050.61 1737.28 3051.36 1736.57 3052.01 1735.85 3053.35 1734.38 3054.04 1733.67 3054.66 1732.89 3055.94 1731.36 3056.59 1730.58 3057.34 1729.86 3058.84 1728.46 3059.58 1727.74 3064.48 1727.09 3064.63 1719.89 3059.4 1719.79 3059.02 1718.76 3058.28 1716.67 3057.9 1715.65 3057.34 1714.87 3056.22 1713.31 3055.66 1712.53L3053.82 1711.47C3053.13 1710.63 3051.82 1708.97 3051.14 1708.13L3050.64 1703.52C3051.23 1702.61 3052.45 1700.77 3053.04 1699.84 3053.91 1699.18 3055.72 1697.87 3056.59 1697.19L3058.65 1695.88C3060.11 1695.13 3063.04 1693.6 3064.54 1692.85 3066.1 1688.33 3067.72 1683.84 3069.31 1679.38 3073.17 1677.48 3074.39 1674.49 3072.98 1670.4 3073.61 1669.44 3074.89 1667.53 3075.54 1666.57 3076.13 1665.7 3077.32 1663.92 3077.94 1663.01 3078.59 1662.33 3079.94 1660.89 3080.59 1660.21L3081.37 1658.24C3081.99 1657.43 3083.27 1655.81 3083.89 1655L3085.2 1653.38C3085.86 1652.6 3087.2 1651.07 3087.85 1650.32 3088.6 1649.61 3090.03 1648.2 3090.75 1647.49L3092.65 1646.58C3093.34 1645.9 3094.71 1644.49 3095.39 1643.78 3096.33 1643.21 3098.17 1642.06 3099.07 1641.47L3101.06 1640.31C3102.06 1639.78 3104.09 1638.72 3105.08 1638.19L3107.2 1637.07C3108.11 1636.36 3109.92 1634.86 3110.82 1634.11 3115.24 1637.13 3120.95 1634.76 3123.78 1630.71L3126.68 1630.24C3128.58 1629.62 3132.42 1628.4 3134.32 1627.78M2974.82 2136.98 2973.13 2138.57 2972.76 2141.25C2966.53 2143.5 2965.03 2155.78 2970.2 2159.74L2970.67 2162.33C2970.86 2163.98 2971.2 2167.32 2971.36 2168.97L2974.54 2169.28C2986.35 2172.21 2998.31 2172.93 3010.47 2171.43 3010.44 2170.69 3010.44 2169.22 3010.41 2168.47L3012.81 2166.88C3019.26 2169.53 3017.36 2157.56 3011.68 2160.15 3011.19 2159.3 3010.16 2157.59 3009.66 2156.75L3009 2154.35C3008.51 2153.79 3007.51 2152.69 3006.98 2152.13L3004.58 2151.32 3001.59 2148.83C3001.09 2148.11 3000.12 2146.65 2999.62 2145.93L2996.79 2145.24C2996.29 2144.53 2995.26 2143.12 2994.76 2142.41L2991.93 2141.75 2990.31 2140.47C2989.46 2139.94 2987.81 2138.91 2986.97 2138.38L2984.35 2136.26 2981.67 2136.7C2980.74 2136.76 2978.84 2136.95 2977.9 2137.01 2977.12 2137.01 2975.6 2136.98 2974.82 2136.98Z" stroke="#000000" stroke-width="0.291962" stroke-miterlimit="8" fill-rule="evenodd"/></g></svg>