<svg width="648" height="795" xmlns="http://www.w3.org/2000/svg" xmlns:xlink="http://www.w3.org/1999/xlink" xml:space="preserve" overflow="hidden"><defs><clipPath id="clip0"><rect x="774" y="1" width="648" height="795"/></clipPath></defs><g clip-path="url(#clip0)" transform="translate(-774 -1)"><path d="M849.877 3.27892 852.589 2.4999 855.332 2.87371 856.454 5.46044C856.828 7.393 857.607 11.195 857.982 13.0961 858.387 17.054 858.761 21.0118 859.135 24.9701 857.078 29.6135 857.888 35.0676 861.442 38.7451 861.785 40.9267 862.47 45.2897 862.813 47.5023 863.374 49.31 864.528 52.9251 865.089 54.7638L865.868 57.2881 866.118 59.9062 866.305 62.4616 868.331 63.3965 869.173 65.4845C869.609 66.4819 870.513 68.4454 870.981 69.4114L871.947 71.3439C872.477 72.2788 873.506 74.1176 874.004 75.0211L875.064 76.8912C875.438 77.8571 876.249 79.7897 876.623 80.7556L877.714 82.5943 878.743 84.4641 881.299 84.62 883.107 86.4901C884.728 87.394 887.939 89.1703 889.56 90.0742L892.366 90.6349C894.984 94.2503 898.382 95.2162 902.559 93.5334 903.993 93.6892 906.892 94.032 908.357 94.2189 911.069 97.7405 914.529 98.7068 918.738 97.055L921.543 97.7405C923.32 98.4575 926.843 99.86 928.62 100.577L931.051 101.699C932.142 102.259 934.293 103.413 935.384 103.974L937.504 105.158C938.439 105.75 940.372 106.903 941.307 107.495 942.056 108.15 943.49 109.521 944.206 110.207L946.139 111.017C946.919 111.64 948.415 112.918 949.163 113.573 949.88 114.196 951.314 115.505 952.031 116.159 952.717 116.845 954.088 118.185 954.774 118.871 955.46 119.588 956.831 121.021 957.517 121.707 958.172 122.486 959.512 124.044 960.167 124.823 960.822 125.665 962.1 127.379 962.723 128.251L964.001 130.121C964.594 131.087 965.809 132.988 966.402 133.954L967.337 136.136C968.116 136.884 969.675 138.349 970.454 139.066 970.984 140.905 972.075 144.582 972.605 146.421L973.353 149.194C973.447 150.597 973.634 153.371 973.727 154.773 974.319 155.739 975.535 157.703 976.159 158.669 976.346 164.091 976.782 174.968 977 180.391 973.478 182.853 972.418 186.219 973.883 190.488L973.758 196.222C973.01 197.999 971.545 201.489 970.797 203.235L970.984 206.071C970.205 207.785 968.615 211.151 967.835 212.834L967.867 215.639 966.09 215.95 966.152 218.132 967.898 218.381C967.929 219.815 967.96 222.619 967.96 224.022 968.708 225.736 970.236 229.164 970.984 230.878L970.828 233.745C971.67 235.428 973.384 238.856 974.226 240.571 974.881 242.44 976.19 246.18 976.876 248.082 976.969 249.609 977.187 252.663 977.312 254.19 974.538 258.802 975.036 264.443 976.813 269.305L976.533 271.954 974.631 273.699 975.192 276.13 975.66 278.686C976.065 282.176 976.533 285.698 977 289.188 977.406 290.31 978.185 292.616 978.559 293.738L979.712 295.827C980.336 296.761 981.614 298.6 982.237 299.504 982.985 300.283 984.482 301.81 985.199 302.589 985.885 303.337 987.194 304.802 987.849 305.55L989.781 306.516C990.592 307.17 992.244 308.479 993.086 309.103 993.896 309.757 995.58 311.066 996.421 311.721 997.138 312.406 998.572 313.84 999.289 314.525L1001.32 315.461C1002.19 316.115 1003.9 317.455 1004.78 318.109 1005.65 318.795 1007.36 320.166 1008.24 320.852 1009.14 321.538 1010.92 322.94 1011.82 323.626L1013.66 325.059C1014.56 325.745 1016.37 327.147 1017.24 327.864 1018.12 328.55 1019.89 329.952 1020.77 330.638 1021.64 331.355 1023.42 332.726 1024.29 333.443 1025.19 334.097 1027.03 335.469 1027.94 336.154L1029.87 337.526C1030.81 338.18 1032.64 339.489 1033.58 340.143 1034.51 340.766 1036.39 342.045 1037.32 342.668 1038.13 343.322 1039.75 344.631 1040.56 345.317L1042.74 346.033C1043.62 346.657 1045.3 347.935 1046.14 348.558L1048.36 349.181C1049.23 349.804 1050.91 351.082 1051.75 351.737L1054.09 352.36C1055.12 352.921 1057.21 354.043 1058.27 354.604L1060.45 355.788C1061.54 356.38 1063.69 357.565 1064.78 358.157L1067.03 359.341C1068.09 359.964 1070.24 361.149 1071.3 361.741L1073.48 362.987 1077.6 365.356C1078.41 366.042 1080.06 367.444 1080.87 368.13L1083.11 368.878C1084.05 369.501 1085.92 370.716 1086.89 371.34 1087.63 372.057 1089.19 373.459 1089.94 374.176L1092.09 375.017C1093 375.672 1094.77 377.012 1095.68 377.666 1096.55 378.321 1098.33 379.661 1099.2 380.346 1099.95 381.094 1101.38 382.559 1102.13 383.307L1104.19 384.242C1105.03 384.959 1106.74 386.361 1107.58 387.047 1108.43 387.732 1110.08 389.166 1110.92 389.852 1111.73 390.538 1113.41 391.94 1114.22 392.626 1115.07 393.311 1116.78 394.651 1117.62 395.337 1118.53 395.96 1120.3 397.207 1121.21 397.861 1121.89 398.578 1123.3 400.074 1123.98 400.822L1126.04 401.788C1126.91 402.474 1128.66 403.814 1129.53 404.499L1131.96 405.278C1133.71 406.089 1137.2 407.678 1138.94 408.489L1141.25 409.953C1142.31 410.67 1144.37 412.072 1145.4 412.758 1146.33 413.444 1148.2 414.846 1149.11 415.532 1149.98 416.217 1151.73 417.589 1152.6 418.306 1153.44 418.991 1155.12 420.363 1155.97 421.017L1157.65 422.419 1160.89 425.162 1161.86 427.063C1162.57 427.718 1163.98 429.057 1164.69 429.712L1166.66 430.585C1167.44 431.333 1168.96 432.829 1169.71 433.608 1170.49 434.387 1172.05 435.976 1172.86 436.786L1174.48 438.469 1177.85 441.711 1179.63 443.331C1180.47 444.11 1182.18 445.637 1183.02 446.385 1183.87 447.133 1185.52 448.629 1186.36 449.377 1187.2 450.094 1188.85 451.527 1189.66 452.244 1190.51 452.961 1192.19 454.364 1193.03 455.049 1193.72 455.797 1195.12 457.293 1195.84 458.041L1197.83 459.007C1198.67 459.724 1200.36 461.126 1201.17 461.812 1202.01 462.529 1203.63 463.931 1204.47 464.617 1205.28 465.334 1206.96 466.768 1207.78 467.484 1208.62 468.201 1210.33 469.635 1211.17 470.32 1212.05 471.037 1213.82 472.471 1214.7 473.187L1216.53 474.652C1217.44 475.338 1219.22 476.771 1220.12 477.488 1220.99 478.174 1222.74 479.576 1223.61 480.262L1227.1 483.004C1227.85 483.752 1229.28 485.217 1230.03 485.965L1232.12 486.9C1232.99 487.586 1234.74 488.926 1235.61 489.611 1236.49 490.328 1238.2 491.731 1239.07 492.416 1239.95 493.133 1241.72 494.598 1242.6 495.315L1244.43 496.78C1245.28 497.528 1246.99 499.023 1247.86 499.771 1248.67 500.551 1250.26 502.109 1251.07 502.888 1251.82 503.729 1253.35 505.35 1254.13 506.16 1254.85 507.002 1256.28 508.716 1257 509.588L1257.9 511.707 1260.89 514.699 1261.8 516.85C1262.55 517.598 1264.04 519.125 1264.76 519.904 1265.48 520.777 1266.88 522.522 1267.6 523.394 1268.31 524.267 1269.78 525.95 1270.53 526.792 1271.24 527.633 1272.74 529.285 1273.49 530.095 1274.24 530.905 1275.7 532.526 1276.45 533.336 1277.2 534.115 1278.66 535.705 1279.41 536.484 1280.13 537.294 1281.59 538.852 1282.31 539.631 1283.03 540.442 1284.46 542 1285.18 542.779 1285.86 543.59 1287.24 545.179 1287.95 545.989L1288.95 547.89C1289.67 548.545 1291.13 549.885 1291.85 550.539 1292.53 551.318 1293.94 552.877 1294.65 553.656L1297.65 556.648C1298.49 557.396 1300.14 558.86 1300.98 559.608 1301.98 560.263 1303.98 561.634 1304.97 562.32L1307.31 563.691C1309.09 564.47 1312.64 566.059 1314.42 566.839L1317.22 567.68C1318.91 568.459 1322.34 569.955 1324.05 570.703L1326.79 571.046 1329.29 571.887C1330.44 572.386 1332.75 573.321 1333.9 573.789L1336.21 574.786C1337.08 575.378 1338.86 576.593 1339.73 577.217L1341.91 577.746 1343.75 578.9C1344.59 579.492 1346.28 580.676 1347.12 581.237 1347.84 581.892 1349.3 583.169 1350.02 583.824 1350.67 584.54 1352.01 585.974 1352.67 586.691L1353.95 588.187C1354.57 588.997 1355.79 590.555 1356.41 591.335 1356.97 592.207 1358.06 593.952 1358.62 594.825 1359.06 595.854 1359.9 597.942 1360.34 598.97L1361.12 601.37C1361.15 603.209 1361.18 606.824 1361.21 608.631L1361.58 611.374C1355.85 612.246 1357.44 620.1 1362.92 619.29 1363.67 620.162 1365.17 621.845 1365.92 622.687 1366.38 623.528 1367.29 625.242 1367.76 626.084L1369.41 627.393C1370.22 627.954 1371.84 629.044 1372.68 629.574L1374.83 630.104C1375.55 630.977 1377.04 632.722 1377.76 633.594L1380.13 637.957C1381.16 638.456 1383.19 639.485 1384.18 639.983L1386.49 641.292C1387.89 642.196 1390.7 644.035 1392.1 644.939L1394.81 645.157 1397.59 645.375C1399.21 646.029 1402.45 647.401 1404.07 648.055L1406.82 648.304 1409.47 648.834C1411.21 649.146 1414.67 649.769 1416.39 650.081L1418.44 651.608C1418.94 652.543 1419.97 654.413 1420.5 655.348L1420.47 657.529C1419.81 658.215 1418.57 659.555 1417.91 660.21 1412.61 660.895 1407.25 660.739 1401.92 660.646 1388.92 660.272 1375.95 659.649 1362.95 659.773 1356.63 659.804 1350.27 660.178 1343.97 660.864 1340.2 660.77 1332.69 660.521 1328.91 660.397L1326.2 661.331C1324.33 661.893 1320.56 662.983 1318.69 663.544 1313.73 663.513 1308.81 663.482 1303.91 663.389L1302.76 660.895 1300.14 661.394C1295.59 660.116 1290.88 659.649 1286.21 659.836 1284.96 659.68 1282.47 659.399 1281.25 659.243 1280.56 658.495 1279.19 656.999 1278.51 656.251 1273.21 653.821 1267.19 653.758 1261.7 655.503L1258.71 655.503C1249.24 655.254 1239.73 655.161 1230.31 654.818 1226.1 652.886 1222.74 653.821 1220.21 657.623L1217.44 657.218C1215.76 656.906 1212.36 656.283 1210.64 655.971L1208.37 656.844C1207.37 657.218 1205.34 657.997 1204.31 658.371 1203.41 658.901 1201.57 659.898 1200.67 660.428L1198.73 661.456 1194.99 663.949C1193.37 664.386 1190.16 665.227 1188.54 665.664 1184.33 666.91 1180.12 668.188 1175.98 669.559L1173.52 670.245 1172.24 672.395 1170.65 674.359C1169.9 675.356 1168.4 677.319 1167.66 678.285 1167.28 679.314 1166.47 681.308 1166.07 682.337L1163.91 682.835C1163.1 683.459 1161.48 684.674 1160.67 685.298L1158.52 686.326C1157.43 686.887 1155.25 687.946 1154.16 688.476L1151.79 689.723C1149.95 690.066 1146.27 690.689 1144.43 691.032L1141.69 691.811C1137.79 690.533 1134.02 690.751 1130.31 692.465L1127.47 692.123 1124.73 691.562C1122.92 691.063 1119.27 690.097 1117.44 689.598L1114.72 689.006C1113.76 688.352 1111.76 687.043 1110.76 686.357L1105.28 686.357C1101.47 686.45 1097.64 686.513 1093.84 686.575 1089.07 686.046 1086.7 688.134 1086.7 692.808 1086.51 695.021 1086.14 699.384 1085.98 701.597 1084.95 713.128 1084.17 724.69 1083.58 736.284L1083.86 739.026 1084.08 741.769C1079.44 744.667 1079.78 746.475 1085.14 747.16 1089.85 747.191 1094.55 747.347 1099.26 747.472 1100.6 747.472 1103.25 747.472 1104.56 747.441 1105.5 746.818 1107.34 745.571 1108.24 744.948L1110.55 744.106C1111.61 743.639 1113.69 742.642 1114.72 742.174L1116.94 741.332C1118.06 741.177 1120.27 740.865 1121.39 740.709 1124.79 740.647 1128.1 740.179 1131.37 739.338L1133.86 739.774C1134.08 741.613 1134.49 745.322 1134.71 747.16 1133.49 747.597 1131.12 748.438 1129.9 748.843 1124.51 749.498 1121.18 755.45 1123.3 760.437 1122.24 760.904 1120.15 761.839 1119.09 762.275L1117.09 763.927C1115.47 764.613 1112.23 765.953 1110.61 766.639 1109.21 766.826 1106.46 767.137 1105.06 767.293 1100.63 765.267 1095.3 765.953 1092 769.693 1087.1 769.973 1082.24 770.285 1077.38 770.597 1071.74 768.446 1065.41 769.132 1060.54 772.778 1056.62 773.09 1052.72 773.402 1048.79 773.713 1043.37 771.407 1037.23 772.498 1032.83 776.393 1031.62 776.736 1029.15 777.453 1027.94 777.827 1026.85 778.201 1024.63 778.98 1023.54 779.354L1021.2 779.603C1020.3 780.164 1018.46 781.286 1017.53 781.847L1015.06 782.501C1011.1 780.601 1007.89 781.473 1005.46 785.088 1003.28 785.369 998.978 785.93 996.827 786.179 994.956 786.771 991.278 787.924 989.438 788.516L986.602 788.891C981.053 786.958 974.912 787.893 970.516 791.945L967.742 792.443C965.934 792.942 962.349 794.002 960.541 794.5 956.177 794.064 951.781 793.627 947.417 793.16 946.326 792.848 944.175 792.225 943.084 791.914 942.024 791.508 939.967 790.729 938.907 790.324 937.598 785.743 936.101 785.681 934.387 790.137L930.895 791.883C930.085 792.319 928.495 793.191 927.716 793.627L925.752 793.16C925.721 791.477 925.721 788.112 925.721 786.428 925.721 785.307 925.689 783.094 925.689 782.003 926.531 781.504 928.183 780.538 929.025 780.071L930.396 778.326C929.43 777.515 927.529 775.863 926.562 775.022L921.076 773.651C919.268 774.243 915.652 775.49 913.844 776.082 904.866 776.331 895.888 776.487 886.91 776.767 882.764 774.991 879.335 775.894 876.561 779.416L873.693 779.198C872.29 779.292 869.484 779.51 868.082 779.634L865.307 780.164C863.499 780.788 859.945 782.065 858.137 782.689L855.301 782.128C853.898 782.159 851.061 782.221 849.658 782.252 848.224 782.626 845.357 783.312 843.923 783.686 841.99 783.966 838.124 784.559 836.16 784.87 834.695 784.839 831.796 784.777 830.331 784.745 828.398 784.403 824.595 783.686 822.693 783.312L819.826 783.218C820.075 777.173 812.157 777.204 811.222 782.657 809.819 782.564 807.045 782.439 805.673 782.346 803.709 782.159 799.813 781.722 797.849 781.536 796.82 781.785 794.763 782.252 793.734 782.501L791.676 782.876C790.741 783.125 788.84 783.655 787.905 783.904 787.25 784.528 786.003 785.805 785.38 786.46L784.725 788.392 783.291 786.46C782.387 785.805 780.61 784.496 779.706 783.873L778.927 781.504C779.425 779.946 780.423 776.892 780.922 775.365 781.95 774.897 784.008 773.994 785.036 773.526 785.66 772.591 786.969 770.721 787.624 769.786 789.37 769.475 792.892 768.883 794.669 768.571L797.412 767.574C802.587 767.044 812.936 766.015 818.08 765.485L820.823 765.205 823.348 765.049C824.501 764.8 826.808 764.301 827.993 764.052L830.424 764.114 832.825 764.27 834.446 762.151C840.12 761.122 845.793 760.032 851.466 758.941 852.744 758.598 855.332 757.944 856.641 757.6 857.95 757.383 860.6 756.884 861.94 756.666 862.813 755.949 864.528 754.515 865.401 753.798L867.489 753.393C868.269 752.832 869.796 751.71 870.575 751.149 871.542 750.682 873.474 749.747 874.472 749.28L876.748 748.937C877.683 748.345 879.553 747.191 880.52 746.599 881.766 746.194 884.323 745.353 885.601 744.917 887.409 744.324 890.994 743.109 892.802 742.517L895.452 741.769 898.133 741.582C899.161 741.052 901.281 739.961 902.31 739.4L904.928 738.652C906.643 738.06 910.072 736.876 911.786 736.284L914.031 734.912 916.244 733.666C916.836 732.793 918.052 731.017 918.644 730.144 919.517 729.708 921.325 728.866 922.198 728.461 925.845 725.313 924.754 719.766 921.076 717.179 920.951 715.808 920.639 713.128 920.484 711.788L920.421 709.076C919.86 707.425 918.738 704.152 918.177 702.5L917.927 699.665C917.242 697.857 915.901 694.242 915.246 692.465 915.122 691.001 914.872 688.134 914.779 686.7 913.968 684.955 912.41 681.495 911.599 679.75L911.786 676.914C910.945 675.231 909.292 671.865 908.451 670.151L908.638 667.315C907.827 665.601 906.206 662.142 905.396 660.428 905.302 658.994 905.146 656.096 905.084 654.662 904.336 652.855 902.871 649.239 902.123 647.463L901.562 644.627C900.813 642.913 899.286 639.453 898.538 637.708L897.322 635.371C896.699 634.311 895.483 632.254 894.859 631.226L893.55 629.262C892.927 628.39 891.649 626.645 890.994 625.803 890.339 625.024 889.03 623.497 888.375 622.718 887.721 622.001 886.411 620.536 885.757 619.819 885.071 619.103 883.73 617.7 883.076 616.983 882.39 616.298 881.018 614.864 880.333 614.148 879.615 613.431 878.213 611.997 877.496 611.249 876.779 610.501 875.345 609.036 874.628 608.289 873.88 607.509 872.415 605.951 871.666 605.172 870.918 604.361 869.453 602.772 868.705 601.962L865.712 598.596C864.995 597.692 863.53 595.947 862.782 595.043L861.317 593.173 858.449 589.558C857.763 588.654 856.361 586.878 855.675 586.005 855.02 585.101 853.68 583.294 853.025 582.39L852.215 580.271C851.498 579.492 850.126 577.933 849.44 577.185 848.848 576.219 847.663 574.349 847.071 573.383L846.385 571.171C845.731 570.36 844.39 568.709 843.736 567.867L842.582 565.841C841.959 564.875 840.743 562.912 840.151 561.946L838.872 560.014C838.218 559.141 836.909 557.333 836.254 556.461 835.537 555.619 834.103 553.968 833.386 553.157L830.237 550.009 828.492 548.451C827.494 547.859 825.499 546.644 824.501 546.052 824.19 545.023 823.504 542.935 823.192 541.906 822.132 541.127 820.075 539.6 819.046 538.821L817.394 536.889C816.677 535.985 815.243 534.147 814.526 533.243 813.872 532.339 812.593 530.563 811.97 529.659 811.409 528.724 810.287 526.854 809.757 525.919L808.79 523.831C808.042 523.145 806.515 521.743 805.767 521.057 805.205 519.281 804.083 515.697 803.522 513.92 802.961 512.674 801.839 510.212 801.278 508.965L800.623 506.378 800.031 503.916 798.098 503.355C797.475 502.545 796.259 500.987 795.635 500.176 794.981 499.46 793.64 497.964 792.955 497.247L791.552 495.72C790.804 494.941 789.37 493.413 788.622 492.634 787.936 491.7 786.595 489.861 785.909 488.957L784.507 486.806C783.727 485.186 782.2 481.882 781.452 480.231L780.797 477.551 780.547 474.777C779.893 473.063 778.583 469.697 777.96 468.014 777.617 466.612 776.994 463.807 776.682 462.404 780.142 458.259 778.771 452.182 774.5 449.221L774.5 437.005C778.771 434.48 779.55 431.145 776.9 427.063L777.648 424.289C778.365 422.575 779.799 419.085 780.516 417.339L780.891 414.659C781.545 413.693 782.885 411.761 783.54 410.795 783.54 409.455 783.509 406.774 783.509 405.403 783.665 404.032 783.914 401.258 784.07 399.887 784.507 398.64 785.38 396.147 785.816 394.932 786.096 385.925 786.159 376.981 786.377 368.005 786.689 363.081 786.938 358.126 787.188 353.201 787.936 351.456 789.401 347.935 790.149 346.189L789.9 343.353C790.772 341.702 792.487 338.398 793.36 336.746L793.36 333.91C794.139 332.196 795.667 328.737 796.415 326.992L796.633 324.062C797.537 312.437 798.379 300.813 799.158 289.22L799.158 286.414C799.376 285.043 799.844 282.301 800.062 280.93 800.685 279.278 801.963 275.974 802.587 274.354L803.616 272.016C804.083 270.988 805.05 268.868 805.517 267.84 806.078 266.968 807.232 265.253 807.824 264.412L808.198 262.012 808.822 259.581C809.538 257.961 811.004 254.751 811.752 253.13L811.689 250.325C812.5 248.642 814.152 245.245 814.963 243.563L814.838 240.727C815.648 239.012 817.269 235.553 818.08 233.839L818.205 228.105C819.015 226.359 820.636 222.9 821.446 221.186L821.384 218.319C822.163 216.574 823.753 213.114 824.564 211.369L824.876 208.533C825.561 206.85 826.964 203.453 827.65 201.739L828.741 199.37C828.99 198.279 829.52 196.129 829.77 195.038L829.24 192.638 832.607 190.395C834.976 186.748 834.134 184.037 830.081 182.26L829.739 179.612C829.458 178.334 828.897 175.809 828.616 174.532 827.899 163.53 827.338 152.467 826.715 141.465 826.185 139.689 825.125 136.105 824.595 134.329L823.629 131.929C823.13 130.838 822.163 128.656 821.696 127.597L820.73 125.384C820.262 124.324 819.264 122.205 818.766 121.146L817.893 118.808C817.145 117.281 815.617 114.258 814.869 112.731L815.43 110.082C816.521 109.054 818.672 106.966 819.732 105.937L821.353 106.529C822.07 106.841 823.566 107.464 824.314 107.776L824.626 109.459C825.094 110.02 825.998 111.173 826.465 111.765L827.962 112.482 829.24 113.541 830.986 113.729C831.858 113.884 833.604 114.196 834.477 114.352L836.254 114.663C835.88 110.799 835.132 103.101 834.789 99.2365 834.446 93.1592 834.134 87.0508 833.573 81.0049 840.431 80.1325 837.813 71.6243 833.386 69.2869L832.825 66.6067C832.17 65.0173 830.83 61.8695 830.144 60.2801 830.518 59.1583 831.204 56.9143 831.578 55.7922 832.295 55.2314 833.729 54.0783 834.446 53.5172L836.534 53.6106C837.439 54.0783 839.278 54.9821 840.213 55.4494L841.772 57.1636C841.616 58.3479 841.242 60.7163 841.055 61.9319 841.585 62.8978 842.645 64.8614 843.174 65.8277L844.39 68.1337C844.889 69.7231 845.918 72.9644 846.416 74.5538L846.666 76.9222C847.196 77.7016 848.224 79.2596 848.754 80.039 849.627 80.1635 851.404 80.3504 852.308 80.4438L850.999 78.9793 852.277 80.4752 852.277 76.5484 851.435 74.3979C850.843 73.463 849.627 71.5619 849.004 70.5959 849.035 69.3179 849.128 66.7312 849.16 65.4535 854.927 65.1418 855.02 57.1947 849.16 56.9453 849.191 39.0565 849.128 21.1367 849.877 3.27892M978.434 683.989 976.813 685.64C975.504 686.669 972.854 688.726 971.514 689.754 970.922 691.468 969.675 694.896 969.051 696.61 968.085 700.475 967.617 704.402 967.742 708.422 962.567 707.518 962.879 718.364 967.929 717.616 968.334 719.86 969.114 724.285 969.488 726.529 969.675 727.807 969.986 730.362 970.173 731.64L969.675 734.414 970.89 737.094C964.625 737.125 966.246 751.181 972.418 749.965L973.478 752.209C974.132 753.082 975.473 754.889 976.159 755.793 977.063 756.416 978.84 757.663 979.744 758.286 977 764.582 990.187 765.454 989.189 759.065L992.182 759.315C992.93 758.847 994.458 757.912 995.237 757.414L998.292 757.383C999.071 756.821 1000.6 755.731 1001.38 755.201L1003.78 754.297C1005.59 753.612 1009.2 752.178 1010.98 751.461L1013.54 750.433C1014.72 749.903 1017.09 748.843 1018.27 748.313L1020.77 747.098C1022.64 746.475 1026.38 745.197 1028.28 744.542L1030.81 743.732C1031.24 743.046 1032.18 741.675 1032.64 740.99 1033.49 740.429 1035.2 739.338 1036.07 738.808L1037.76 737.562C1038.51 736.907 1040.03 735.598 1040.78 734.944 1041.44 734.164 1042.71 732.637 1043.37 731.889 1043.93 731.204 1045.11 729.832 1045.67 729.147L1045.77 726.155 1046.39 721.169C1046.17 719.268 1045.74 715.434 1045.49 713.533 1044.99 711.663 1043.96 707.861 1043.43 705.991 1043.03 704.963 1042.18 702.968 1041.78 701.94 1041.34 701.036 1040.5 699.228 1040.09 698.325L1039.81 695.551C1043.24 692.185 1038.94 683.583 1034.2 686.139L1032.27 684.518 1030.4 682.274C1024.76 677.257 1014.16 677.163 1008.27 681.308L1005.59 681.339C1003.75 681.495 1000.1 681.776 998.292 681.9L995.736 681.869C994.987 681.495 993.522 680.716 992.774 680.342 991.278 680.529 988.285 680.872 986.789 681.028 985.635 681.246 983.36 681.682 982.206 681.9 981.271 682.43 979.37 683.459 978.434 683.989Z" stroke="#000000" stroke-width="0.291962" stroke-miterlimit="8" fill-rule="evenodd"/></g></svg>