<svg width="737" height="577" xmlns="http://www.w3.org/2000/svg" xmlns:xlink="http://www.w3.org/1999/xlink" xml:space="preserve" overflow="hidden"><defs><clipPath id="clip0"><rect x="1831" y="949" width="737" height="577"/></clipPath></defs><g clip-path="url(#clip0)" transform="translate(-1831 -949)"><path d="M2269.03 1519C2257.69 1515.35 2246.4 1512.34 2243.94 1512.31 2241.49 1512.28 2233 1509.12 2225.06 1505.29 2215.91 1500.86 2210.2 1499.67 2209.42 1502.03 2208.72 1504.12 2206.2 1503.04 2203.68 1499.58 2200.78 1495.61 2199.58 1486.04 2200.33 1472.74 2200.97 1461.37 2200.73 1455.55 2199.79 1459.8 2198.85 1464.06 2196.54 1467.54 2194.66 1467.54 2190.59 1467.54 2194.48 1453.07 2199.4 1449.91 2201.45 1448.58 2201.5 1447 2199.51 1445.76 2194.2 1442.48 2198.87 1422.9 2205.84 1419.17 2209.4 1417.26 2212.31 1414.15 2212.31 1412.26 2212.31 1410.1 2209.66 1410.24 2205.15 1412.66 2201.2 1414.77 2197.11 1415.64 2196.06 1414.58 2194.27 1412.8 2192.53 1386.59 2191.8 1350.59 2191.27 1324.55 2184.41 1343.51 2183.4 1373.79 2182.86 1390.07 2181 1400.59 2178.52 1401.42 2176.31 1402.16 2174.5 1399.81 2174.5 1396.21 2174.5 1392.61 2169.98 1384.6 2164.45 1378.4L2154.4 1367.13 2153.28 1376.92C2152.22 1386.18 2151.32 1386.67 2136.69 1386.05L2121.22 1385.39 2138.41 1393.58C2147.86 1398.08 2157.4 1401.86 2159.59 1401.97 2161.78 1402.09 2166.81 1408.86 2170.76 1417.03 2179.69 1435.49 2180.98 1486.09 2172.91 1501.69 2167.89 1511.41 2158.65 1517.69 2152.16 1515.78 2146.02 1513.98 2124.11 1515.85 2112.59 1519.15 2105.58 1521.16 2099.26 1521.16 2095.82 1519.14 2091.45 1516.59 2092.46 1515.83 2100.6 1515.56 2112.49 1515.16 2122.63 1511.69 2122.81 1507.96 2122.89 1506.54 2122.94 1503.06 2122.94 1500.22 2122.94 1497.38 2125.26 1495.06 2128.1 1495.06 2130.94 1495.06 2133.26 1498.05 2133.26 1501.71 2133.26 1510.04 2148.28 1512.64 2161.14 1506.52 2170.88 1501.89 2174.39 1489.67 2174.46 1460.23 2174.55 1422.02 2167.42 1412.04 2127 1393.83 2098.97 1381.2 2097.58 1380.95 2058.25 1381.28 2017.89 1381.63 1998.8 1385.15 1988.47 1394.16 1985.4 1396.83 1975.3 1400.22 1966.03 1401.69 1956.76 1403.15 1943.95 1406.96 1937.57 1410.15 1924.26 1416.8 1923.58 1416.94 1923.58 1413.14 1923.58 1408.78 1946.82 1398.76 1957.21 1398.64 1962.35 1398.58 1972.73 1394.72 1980.3 1390.06 1987.86 1385.39 1996.75 1381.58 2000.06 1381.57 2003.37 1381.56 2006.08 1380.22 2006.08 1378.61 2006.08 1376.99 1995.63 1374.62 1982.87 1373.35 1970.11 1372.08 1954.73 1370.14 1948.7 1369.05 1938.63 1367.23 1937.3 1368.09 1932.55 1379.46 1928.82 1388.39 1925.25 1391.87 1919.79 1391.87 1912.39 1391.87 1912.36 1391.69 1918.5 1384.91 1922.3 1380.71 1923.53 1376.76 1921.61 1374.95 1918.6 1372.12 1892.81 1374.5 1868.43 1379.86 1861.68 1381.35 1858.2 1381.01 1859.45 1378.99 1860.57 1377.18 1875.84 1373.78 1893.39 1371.43 1935.6 1365.79 1938.21 1364.73 1923.58 1359.18 1892.27 1347.29 1871.74 1342.87 1859.18 1345.3 1831.87 1350.58 1825.05 1350.63 1840.73 1345.42 1849.04 1342.67 1856.53 1339.72 1857.39 1338.86 1858.24 1338.01 1852.45 1334 1844.53 1329.95 1836.6 1325.9 1830.99 1321.71 1832.06 1320.64 1833.13 1319.57 1837.53 1320.98 1841.84 1323.76 1851.09 1329.73 1905.2 1350.64 1910.99 1350.48 1913.19 1350.42 1910.74 1347.2 1905.54 1343.32 1890.45 1332.05 1894.62 1329.22 1910.69 1339.81 1926.12 1349.97 1966.59 1364.38 1979.51 1364.31 1985.89 1364.27 1983.52 1360.78 1965.33 1343.46 1953.32 1332.01 1944.26 1321.87 1945.21 1320.93 1946.15 1319.98 1953.65 1325.68 1961.89 1333.57 1985.17 1355.91 1996.18 1363.08 2013.62 1367.31 2033.32 1372.1 2067.95 1372.46 2067.95 1367.9 2067.95 1366.06 2059.06 1357.94 2048.19 1349.84 2030.79 1336.88 2026.26 1335.11 2010.38 1335.11 2000.45 1335.11 1992.33 1333.95 1992.33 1332.53 1992.33 1331.11 2000.06 1329.95 2009.52 1329.95 2018.97 1329.95 2026.69 1328.79 2026.66 1327.37 2026.61 1324.23 2004.07 1309.31 1999.37 1309.31 1997.52 1309.31 1989.38 1307.08 1981.28 1304.36 1962.3 1297.98 1931.16 1296.99 1903.06 1301.87 1890.83 1304 1879.53 1304.44 1877.95 1302.86 1875.38 1300.29 1904.61 1295.4 1932.18 1293.78 1948.87 1292.81 1946.35 1287.68 1923.27 1275.68 1911.34 1269.49 1898.86 1261.94 1895.52 1258.92 1891.28 1255.08 1886.56 1254.17 1879.88 1255.88 1860.86 1260.74 1841.09 1261.91 1841.09 1258.17 1841.09 1256.14 1843.39 1255.37 1846.2 1256.45 1852.17 1258.75 1885.77 1251.31 1885.77 1247.7 1885.77 1241.97 1871.38 1230.53 1859.3 1226.66 1852.12 1224.36 1844.7 1220.9 1842.81 1218.96 1840.48 1216.56 1841.41 1216.15 1845.71 1217.67 1849.19 1218.9 1855.94 1220.88 1860.7 1222.08 1868.34 1224 1869.08 1223.39 1867.02 1216.91 1863.37 1205.39 1867.15 1208.23 1876.67 1224.17 1890.04 1246.56 1907.32 1263.32 1927.56 1273.53 1937.66 1278.63 1952.89 1286.35 1961.39 1290.68 1969.9 1295.02 1977.3 1297.36 1977.83 1295.88 1979.62 1290.89 1965.83 1263.03 1949.65 1238.95 1933.13 1214.39 1908.83 1196.29 1889.21 1193.94 1868.75 1191.49 1857.39 1189.17 1855.33 1187.02 1854.11 1185.75 1862.93 1185.82 1874.92 1187.19 1896.15 1189.6 1896.63 1189.48 1892.97 1182.64 1888.27 1173.84 1888.06 1157.96 1892.65 1157.96 1894.54 1157.96 1896.09 1162.76 1896.09 1168.63 1896.09 1180.29 1910.27 1196.57 1929.02 1206.43 1939.25 1211.82 1960.2 1239.56 1977.68 1270.9 1982.57 1279.67 1990.53 1289.97 1995.36 1293.78 2006.34 1302.45 2020.4 1309.89 2022.26 1308.03 2023.04 1307.25 2020.48 1296.91 2016.59 1285.04 2012.7 1273.17 2009.62 1261.01 2009.75 1258.01 2009.87 1255.01 2012.05 1259.22 2014.59 1267.36 2028.24 1311.1 2036.34 1324.06 2062.09 1343.29 2086.1 1361.23 2108.56 1373.19 2133.11 1381.1 2148.85 1386.17 2153.34 1381.8 2147.72 1366.89 2145.06 1359.85 2144.77 1355.35 2146.93 1354.63 2148.96 1353.95 2148.23 1349.4 2145.15 1343.44 2138.79 1331.14 2135.67 1330.24 2140.13 1341.99 2141.93 1346.72 2142.1 1350.59 2140.52 1350.59 2138.93 1350.59 2135.04 1343.81 2131.88 1335.53 2124.44 1316.01 2119.19 1311.79 2090.88 1302.51 2069.98 1295.66 2065.73 1295.28 2052.11 1299.1 2032.96 1304.46 2028.55 1301.59 2047.3 1295.97 2054.88 1293.7 2061.07 1291.16 2061.07 1290.33 2061.07 1289.5 2054.08 1282.37 2045.54 1274.48 2024.35 1254.94 2028.62 1253.6 2051.83 1272.52 2068.83 1286.37 2113.63 1306.02 2118.07 1301.58 2121.95 1297.7 2105.75 1270.78 2095.29 1263.73 2088.91 1259.43 2076.95 1247.03 2068.7 1236.17 2055.54 1218.84 2052.27 1216.44 2041.82 1216.44 2035.27 1216.44 2024.37 1218.76 2017.58 1221.6 2000.92 1228.56 1990.93 1227.66 2006.08 1220.56L2018.11 1214.92 2006.94 1213.74C2000.79 1213.09 1995.77 1211.23 1995.77 1209.6 1995.77 1207.98 2007.67 1207.55 2022.23 1208.65L2048.69 1210.65 2041.43 1198.93C2037.44 1192.48 2029.01 1183.78 2022.7 1179.6 2016.39 1175.41 2005.96 1168.06 1999.51 1163.26 1987.02 1153.95 1972.34 1152.1 1960.66 1158.35 1955.36 1161.19 1949.99 1161.13 1939.93 1158.11 1932.46 1155.87 1927.2 1153.2 1928.23 1152.17 1929.26 1151.13 1934.73 1151.9 1940.38 1153.87 1948.49 1156.7 1954.16 1156.12 1967.2 1151.11 1976.9 1147.39 1981.6 1144.1 1978.58 1143.16 1975.75 1142.27 1966.99 1139.8 1959.13 1137.67 1951.28 1135.54 1939.79 1129.07 1933.61 1123.3 1927.43 1117.52 1918.4 1110.6 1913.53 1107.92 1902.21 1101.68 1883.15 1085.76 1886.96 1085.74 1888.56 1085.73 1894.65 1089.13 1900.48 1093.29 1907.52 1098.3 1910.46 1099.17 1909.22 1095.87 1900.95 1073.92 1903.08 1066.63 1911.72 1087.32 1918.61 1103.82 1936.78 1123.68 1950.06 1129.23 1961.06 1133.83 1982.02 1135.64 1982.02 1131.99 1982.02 1125.41 1969.61 1108.54 1955.87 1096.44 1947.03 1088.65 1941.89 1082.28 1944.44 1082.28 1946.99 1082.28 1954.94 1088.01 1962.11 1095.02 1969.28 1102.03 1975.14 1105.8 1975.14 1103.41 1975.14 1095.43 1964.08 1065.08 1961.17 1065.08 1957.3 1065.08 1937.24 1043.39 1939.25 1041.38 1940.13 1040.5 1945.68 1044.32 1951.58 1049.86L1962.33 1059.92 1960.3 1046.17C1958.44 1033.56 1958.69 1032.97 1963.27 1039.08 1966.02 1042.76 1968.3 1050.5 1968.35 1056.28 1968.39 1062.07 1972.25 1076.09 1976.93 1087.44 1981.6 1098.79 1985.43 1110.6 1985.44 1113.68 1985.48 1129.95 2007.93 1160.27 2024.13 1165.95 2033.79 1169.34 2031.59 1152 2019.83 1132.16 2007.43 1111.24 2006.52 1104.38 2018 1118.4L2026.46 1128.72 2026.58 1106.78C2026.68 1088.45 2024.96 1081.8 2016.14 1066.36 2010.33 1056.2 2004.53 1047.84 2003.25 1047.78 1998.93 1047.58 1981.21 1030.35 1983.23 1028.32 1984.34 1027.22 1989.22 1028.93 1994.09 1032.12L2002.94 1037.92 1993.97 1020.2C1989.03 1010.46 1985.68 1001.79 1986.53 1000.95 1988.4 999.078 2005.45 1029.26 2016.44 1053.91 2029.05 1082.18 2035.67 1074.75 2024.95 1044.36 2018.64 1026.43 2014.18 988.773 2019.24 995.986 2021.94 999.842 2022.93 999.133 2024.02 992.546 2024.78 987.985 2026.5 995.085 2027.85 1008.33 2029.2 1021.57 2031.76 1043.24 2033.55 1056.48 2035.34 1069.73 2037.52 1096.04 2038.41 1114.96 2040.35 1156.58 2045.24 1179.95 2054.51 1191.95 2058.34 1196.91 2068.73 1210.88 2077.6 1223 2086.47 1235.13 2097.23 1247.33 2101.51 1250.11L2109.29 1255.17 2107.48 1193.67C2105.47 1124.93 2103.42 1101.07 2098.78 1092.4 2097.05 1089.16 2086.69 1080.63 2075.77 1073.45 2056.24 1060.59 2049.79 1054.6 2052.52 1051.86 2053.29 1051.09 2058.74 1054.53 2064.63 1059.5 2077.23 1070.11 2085.54 1071.59 2076.53 1061.62 2073.09 1057.83 2071.31 1053.7 2072.56 1052.45 2073.8 1051.2 2075.3 1050.82 2075.88 1051.61 2089.14 1069.61 2100.08 1082.28 2102.35 1082.28 2105.31 1082.28 2111.26 1024.18 2109.57 1011.77 2109.06 1007.98 2106.55 1001.63 2104.01 997.651 2101.47 993.671 2098.48 984.384 2097.36 977.012 2095.57 965.159 2095.78 964.605 2099.15 972.21 2108.85 994.115 2113.94 1003.17 2116.54 1003.17 2120.55 1003.17 2133.26 977.274 2133.26 969.111 2133.26 965.365 2134.81 961.34 2136.7 960.171 2143.76 955.806 2139.77 974.59 2129.51 994.084 2113.49 1024.49 2107.59 1069.27 2113.22 1117.66 2118.71 1164.77 2123.53 1165.42 2138.05 1121.02L2148.43 1089.24 2138.27 1078.03C2128.68 1067.44 2119.51 1053.57 2119.51 1049.65 2119.51 1043.98 2127.16 1049.35 2130.46 1057.35L2134.36 1066.8 2136.46 1056.48C2138.8 1045 2141.57 1047.46 2145.16 1064.22 2146.48 1070.37 2148.6 1075.4 2149.88 1075.4 2154.37 1075.4 2160.09 1056.28 2161.74 1035.74 2163.09 1018.87 2162.19 1013.49 2156.93 1006.98 2153.36 1002.57 2150.57 994.111 2150.72 988.171 2150.98 977.607 2151.1 977.69 2156.16 991.992 2161.14 1006.06 2167.14 1011.26 2168.09 1002.31 2168.33 999.945 2169.49 1003.31 2170.66 1009.78 2172.83 1021.78 2181.38 1028.95 2181.38 1018.77 2181.38 1015.68 2183.71 1008.63 2186.57 1003.12 2192.58 991.48 2193.35 983.293 2190.47 961.894 2188.38 946.467 2188.39 946.453 2192.34 958.455 2197.61 974.491 2197.36 974.37 2205.58 964.959 2213.67 955.689 2213.42 956.889 2202.4 980.239 2198.09 989.382 2195.26 997.572 2196.13 998.435 2196.99 999.302 2203.29 996.712 2210.12 992.68 2219.21 987.311 2223.5 981.752 2226.15 971.901 2230.39 956.146 2234.75 953.708 2231.74 968.774 2229.4 980.493 2231.39 981.56 2240.4 973.4 2243.86 970.267 2246.69 969.183 2246.69 970.989 2246.69 972.795 2234.19 982.526 2218.92 992.612 2190.42 1011.42 2184.8 1018.71 2187.57 1033.25 2189.02 1040.8 2190.36 1041.38 2201.6 1039.33 2217.49 1036.43 2229.02 1028.97 2232.74 1019.19 2236.01 1010.56 2245.87 1001.2 2248.7 1004.03 2249.71 1005.05 2246.58 1009.84 2241.74 1014.69 2225.82 1030.62 2232.19 1035.96 2252.3 1023.53 2258.67 1019.59 2263.88 1017.87 2263.88 1019.7 2263.88 1023.97 2247.02 1031.78 2220.91 1039.6 2191.09 1048.52 2190.88 1048.79 2193.62 1075.14 2194.92 1087.58 2196.42 1098.27 2196.96 1098.89 2197.98 1100.05 2225.97 1070.58 2230.18 1063.92 2231.49 1061.83 2233.6 1061.16 2234.85 1062.41 2236.11 1063.67 2228.28 1075.15 2217.44 1087.93L2197.75 1111.16 2199.36 1136.34C2200.25 1150.19 2201.7 1162.24 2202.59 1163.13 2203.47 1164.01 2210.22 1161.66 2217.58 1157.91 2224.93 1154.15 2232.72 1151.08 2234.86 1151.08 2237.01 1151.08 2241.59 1144.82 2245.05 1137.16 2248.49 1129.5 2253.6 1121.96 2256.39 1120.4 2260.4 1118.15 2261.33 1110.26 2260.86 1082.47 2260.45 1057.71 2261.39 1048.07 2264.05 1049.72 2266.13 1051.01 2267.5 1057.7 2267.09 1064.59 2266.69 1071.49 2266.57 1089.23 2266.83 1104.02 2267.3 1130.16 2267.53 1130.85 2275.05 1128.74L2282.78 1126.57 2275.49 1132.81C2266.65 1140.37 2261.65 1161.41 2268.7 1161.41 2275.64 1161.41 2297.81 1127.07 2299.8 1113.25 2300.75 1106.63 2304.66 1090.4 2308.48 1077.21 2315.8 1051.96 2317.84 1011.95 2312 1008.34 2310.11 1007.17 2308.56 1003.79 2308.56 1000.83 2308.56 996.64 2309.61 996.323 2313.31 999.402 2316.98 1002.45 2318.53 1002.15 2320.08 998.102 2321.19 995.215 2323.74 992.856 2325.76 992.856 2328.2 992.856 2328.34 994.889 2326.17 998.937 2324.39 1002.28 2321.87 1018.15 2320.57 1034.2 2319.28 1050.24 2315.28 1073.6 2311.67 1086.1 2308.07 1098.61 2305.11 1112.53 2305.09 1117.06 2305.05 1127.06 2288.28 1156.97 2277.13 1166.92 2272.68 1170.89 2264.14 1180.18 2258.16 1187.55 2252.19 1194.93 2241.7 1207.15 2234.86 1214.72 2208.91 1243.45 2199.3 1276.59 2198.75 1339.21 2198.45 1374.19 2206.35 1371.58 2238.33 1326.17 2252.64 1305.87 2257.35 1295.89 2259.46 1281.46 2262.11 1263.25 2260.13 1231.41 2255.1 1211.63 2253.29 1204.51 2253.69 1202.36 2256.5 1204.09 2258.67 1205.43 2260.44 1209.44 2260.44 1213 2260.44 1226.7 2267.01 1222.58 2272.75 1205.29 2276.06 1195.34 2279.39 1189.1 2280.17 1191.41 2280.94 1193.73 2278.37 1204.66 2274.45 1215.72 2270.22 1227.61 2267.34 1244.15 2267.39 1256.23L2267.46 1276.64 2282.46 1252.56C2290.71 1239.31 2305.47 1219.73 2315.25 1209.05 2331.56 1191.24 2333.75 1186.8 2341.53 1155.73 2350.62 1119.44 2352.74 1086.72 2348.23 1052.19 2346.21 1036.76 2346.52 1030.69 2349.33 1030.69 2351.78 1030.69 2353.24 1037.75 2353.24 1049.61 2353.24 1060.01 2354.59 1068.53 2356.23 1068.53 2359.6 1068.53 2370.43 1032.43 2370.43 1021.21 2370.43 1017.19 2372.08 1012.88 2374.09 1011.63 2378.48 1008.92 2376.41 1021.83 2364.83 1069.23 2355.39 1107.91 2355.17 1110.38 2361.91 1101.45 2369.79 1091.03 2371.85 1097.8 2364.11 1108.67 2357.03 1118.62 2343.97 1170.46 2347.62 1174.12 2350.76 1177.25 2385.1 1146.49 2395.95 1130.82 2402.71 1121.06 2405.94 1111.77 2406.54 1100.39 2407.01 1091.38 2407.59 1081.29 2407.82 1077.98 2408.05 1074.67 2409.86 1071.96 2411.83 1071.96 2414.08 1071.96 2414.58 1076.48 2413.17 1084 2410.38 1098.9 2413.35 1099.11 2427.84 1085.05 2434.08 1079 2439.18 1075.59 2439.18 1077.47 2439.18 1079.35 2432.99 1086.93 2425.43 1094.32 2417.87 1101.71 2411.68 1109.44 2411.68 1111.49 2411.68 1113.54 2408.61 1121.25 2404.86 1128.62 2401.1 1135.98 2398.64 1142.61 2399.38 1143.36 2400.12 1144.1 2405.66 1142.16 2411.68 1139.04 2417.7 1135.92 2423.49 1134.23 2424.53 1135.27 2425.57 1136.32 2418.86 1140.77 2409.6 1145.16 2400.35 1149.56 2388.13 1157.31 2382.46 1162.37 2376.79 1167.44 2364.67 1177.84 2355.53 1185.48 2337.91 1200.22 2300.47 1243.88 2303.16 1246.57 2305.59 1249 2336.48 1237.76 2342.65 1232.19 2351.92 1223.83 2397.6 1208.62 2393.5 1215.26 2392.4 1217.05 2383.66 1220.65 2374.09 1223.26 2355.11 1228.43 2351.16 1233.6 2366.13 1233.69 2376.57 1233.74 2386.94 1238.9 2383.52 1242.32 2382.31 1243.53 2378.21 1242.84 2374.39 1240.79 2370.57 1238.75 2364.44 1237.07 2360.77 1237.07 2352.31 1237.07 2318.43 1251.99 2302.88 1262.56 2292.21 1269.82 2260.44 1312.89 2260.44 1320.1 2260.44 1325.63 2230.31 1369.56 2219.62 1379.61 2203.4 1394.86 2206.61 1396.55 2229.7 1384.89 2244.36 1377.48 2257.32 1373.84 2273.52 1372.58 2310.2 1369.72 2309.44 1370.16 2320 1345.89 2325.31 1333.69 2332.65 1321 2336.3 1317.69 2339.95 1314.39 2342.96 1308.44 2342.98 1304.48 2343.05 1293.85 2346.77 1281.79 2349.97 1281.79 2351.51 1281.79 2351.35 1286.72 2349.63 1292.74 2345.34 1307.7 2348.04 1308.86 2360.16 1297.24 2365.81 1291.81 2370.43 1289.12 2370.43 1291.24 2370.43 1293.36 2363.47 1300.8 2354.97 1307.77 2346.46 1314.75 2339.5 1321.79 2339.5 1323.42 2339.5 1325.04 2346.84 1325.41 2355.83 1324.24 2364.8 1323.06 2371.28 1323.06 2370.21 1324.24 2369.14 1325.42 2359.92 1327.58 2349.72 1329.05 2332.31 1331.56 2330.86 1332.52 2326.24 1344.67 2323.54 1351.79 2322.2 1358.5 2323.28 1359.58 2324.35 1360.66 2335.79 1354.12 2348.69 1345.05 2361.59 1335.99 2379.88 1323.56 2389.34 1317.44 2419.39 1297.98 2421.35 1295.98 2432.37 1273.57 2446.26 1245.33 2452.09 1209.77 2449.61 1168.28 2448.27 1145.77 2449.08 1137.32 2452.6 1137.32 2454.31 1137.32 2454.89 1143.42 2453.89 1150.87 2452.01 1164.93 2455.16 1184.39 2458.74 1180.8 2461.89 1177.65 2476.44 1140.76 2478.84 1129.85 2480.01 1124.5 2482.32 1120.12 2483.97 1120.12 2487.75 1120.12 2481.29 1140.77 2465.34 1179.65 2454.37 1206.43 2450.1 1223.32 2454.31 1223.32 2455.08 1223.32 2465.26 1213.64 2476.95 1201.82 2503.38 1175.07 2502.96 1180.96 2476.43 1208.97 2455.33 1231.25 2449.49 1240.08 2449.49 1249.75 2449.49 1253.18 2444.8 1265.89 2439.09 1277.98 2433.37 1290.07 2429.2 1300.48 2429.83 1301.1 2430.45 1301.73 2443.25 1297.68 2458.27 1292.1 2487.65 1281.2 2498.37 1271.91 2515.79 1242.22 2521.07 1233.24 2526.37 1226.88 2527.58 1228.08 2528.79 1229.29 2526.4 1234.84 2522.29 1240.42 2506.32 1262.03 2520.09 1264.46 2542.29 1243.95 2550.49 1236.39 2560.33 1230.19 2564.16 1230.19 2569.12 1230.19 2566.47 1233.16 2555 1240.44 2546.12 1246.07 2538.86 1252.14 2538.86 1253.93 2538.86 1255.72 2533.8 1258.85 2527.61 1260.89 2521.43 1262.93 2508.89 1270.79 2499.74 1278.36L2483.11 1292.11 2498.09 1292.47C2510.64 1292.78 2508.89 1293.5 2487.3 1296.92 2473.12 1299.16 2456.88 1303.47 2451.21 1306.48 2445.54 1309.5 2432.39 1313.76 2421.99 1315.95 2411.59 1318.15 2397.4 1324.13 2390.45 1329.24 2372.93 1342.14 2336.3 1372.62 2337.22 1373.53 2337.63 1373.95 2350.03 1375.02 2364.78 1375.92 2395.98 1377.83 2407.49 1374.65 2419.91 1360.71 2424.86 1355.14 2430.64 1350.59 2432.75 1350.59 2437.52 1350.59 2431.23 1359.5 2418.8 1370.35 2407.56 1380.17 2412.28 1380.31 2447.71 1371.24 2477.97 1363.5 2478.49 1363.17 2504.02 1335.86 2526.1 1312.24 2532.29 1312.14 2511.53 1335.73 2503.59 1344.76 2498.52 1352.61 2500.26 1353.19 2504.24 1354.52 2545.02 1331.69 2554.55 1322.81 2558.45 1319.17 2563.86 1316.2 2566.58 1316.21 2576.68 1316.24 2527.82 1351.77 2494.85 1368.36 2474.49 1378.6 2475.49 1379.61 2509.86 1383.28 2521.33 1384.51 2532.93 1387.04 2535.64 1388.9 2539.18 1391.32 2537.65 1391.74 2530.26 1390.37 2524.59 1389.32 2508.77 1386.91 2495.1 1385.02 2481.43 1383.13 2469.05 1381.24 2467.6 1380.82 2462.33 1379.29 2442.15 1388.33 2444.03 1391.38 2445.1 1393.1 2456.04 1396.41 2468.35 1398.74 2480.66 1401.06 2490.74 1404.44 2490.74 1406.25 2490.74 1408.05 2488.03 1408.68 2484.72 1407.64 2481.41 1406.59 2470.35 1404.16 2460.14 1402.24 2449.93 1400.31 2439.55 1397.04 2437.06 1394.98 2434.43 1392.79 2410.09 1390.57 2378.55 1389.66 2348.84 1388.8 2323.66 1387.57 2322.57 1386.93 2321.48 1386.29 2304.42 1387.16 2284.66 1388.85 2244.28 1392.32 2231.27 1398.35 2218.7 1419.39 2213.04 1428.86 2211.53 1437.04 2211.61 1457.74 2211.73 1489.27 2218.56 1503.71 2231.78 1500.38 2236.57 1499.18 2243.33 1500.65 2248.42 1503.98 2253.66 1507.42 2257 1508.12 2257 1505.77 2257 1503.66 2259.92 1501.94 2263.49 1501.94 2267.49 1501.94 2269.8 1504.18 2269.51 1507.76 2269.19 1511.69 2273.13 1514.77 2281.64 1517.22 2295.07 1521.09 2302.62 1526.14 2294.53 1525.83 2291.84 1525.73 2280.37 1522.66 2269.03 1519ZM2423.71 1384.99C2424.87 1383.09 2422.55 1381.55 2418.55 1381.55 2414.54 1381.55 2412.23 1383.09 2413.39 1384.99 2414.56 1386.88 2416.88 1388.42 2418.55 1388.42 2420.22 1388.42 2422.54 1386.88 2423.71 1384.99ZM2337.77 1381.55C2336.6 1379.65 2334.1 1378.11 2332.21 1378.11 2330.32 1378.11 2329.73 1379.65 2330.9 1381.55 2332.07 1383.44 2334.57 1384.99 2336.46 1384.99 2338.35 1384.99 2338.94 1383.44 2337.77 1381.55ZM2350.45 1382.64C2347.97 1381.64 2345 1381.77 2343.86 1382.91 2342.72 1384.05 2344.75 1384.86 2348.37 1384.71 2352.37 1384.55 2353.19 1383.73 2350.45 1382.64ZM2364.2 1382.64C2361.72 1381.64 2358.75 1381.77 2357.61 1382.91 2356.47 1384.05 2358.5 1384.86 2362.12 1384.71 2366.12 1384.55 2366.94 1383.73 2364.2 1382.64ZM2286.44 1377.74C2288.09 1375.07 2284.39 1374.55 2274.06 1376 2254.5 1378.73 2252.43 1381.55 2269.97 1381.55 2277.73 1381.55 2285.15 1379.83 2286.44 1377.74ZM2086.04 1366.35C2059.97 1349.17 2058.51 1348.55 2067.69 1358.63 2072.27 1363.67 2077.41 1367.79 2079.1 1367.79 2080.8 1367.79 2084.5 1370.11 2087.34 1372.95 2090.18 1375.78 2095.06 1378.11 2098.19 1378.11 2101.32 1378.11 2095.85 1372.82 2086.04 1366.35ZM2225.87 1358.75C2225.98 1356.61 2228.38 1352.94 2231.22 1350.59 2234.05 1348.23 2236.37 1344.8 2236.37 1342.95 2236.37 1339 2205.77 1371.62 2205.57 1375.79 2205.5 1377.35 2209.99 1375.03 2215.56 1370.63 2221.13 1366.23 2225.77 1360.88 2225.87 1358.75ZM2298.89 1375.76C2296.41 1374.76 2293.44 1374.88 2292.3 1376.03 2291.16 1377.17 2293.19 1377.98 2296.81 1377.83 2300.82 1377.67 2301.63 1376.85 2298.89 1375.76ZM2322.31 1374.67C2322.31 1372.77 2324.07 1371.23 2326.23 1371.23 2331.36 1371.23 2363.55 1346.63 2363.55 1342.71 2363.55 1341.04 2356.2 1344.93 2347.23 1351.34 2338.24 1357.75 2326.64 1364.81 2321.45 1367.04 2311.3 1371.37 2308.69 1378.11 2317.15 1378.11 2319.99 1378.11 2322.31 1376.56 2322.31 1374.67ZM2180.62 1347.98C2182.92 1333.3 2184.81 1309.29 2184.81 1294.63L2184.81 1267.96 2161.61 1242.82C2139.8 1219.17 2129.82 1200.44 2129.82 1183.12 2129.82 1178.39 2128.97 1178.08 2125.52 1181.55 2122.51 1184.57 2121.42 1197.32 2121.89 1224.03 2122.42 1254.61 2124.31 1267.52 2131.42 1288.96 2140.35 1315.9 2169.56 1374.67 2174.03 1374.67 2175.34 1374.67 2178.31 1362.66 2180.62 1347.98ZM2047.33 1338.56C2042.9 1333.84 2038.4 1330.85 2037.33 1331.92 2036.27 1332.99 2039.24 1336.81 2043.93 1340.43 2055.68 1349.46 2056.92 1348.77 2047.33 1338.56ZM2190.32 1324C2189.18 1322.86 2188.37 1324.89 2188.52 1328.51 2188.69 1332.52 2189.5 1333.34 2190.6 1330.59 2191.59 1328.11 2191.47 1325.14 2190.32 1324ZM2125.28 1293.87C2119.27 1275.92 2112.42 1261.22 2110.06 1261.19 2107.7 1261.17 2099.22 1255.35 2091.21 1248.25 2079.9 1238.23 2077.86 1237.27 2082.06 1243.95 2085.03 1248.68 2093.08 1256.26 2099.94 1260.8 2109.08 1266.84 2114.02 1273.73 2118.44 1286.6 2121.76 1296.25 2124.69 1306.83 2124.95 1310.11 2125.37 1315.37 2132.3 1326.51 2135.16 1326.51 2135.74 1326.51 2131.3 1311.82 2125.28 1293.87ZM2194.74 1284.37C2195.02 1262.35 2194.1 1254.14 2191.75 1257.71 2187.53 1264.12 2187.12 1316.19 2191.29 1316.19 2192.96 1316.19 2194.51 1301.87 2194.74 1284.37ZM2268.77 1291.7C2267.72 1290.01 2269.29 1287.69 2272.24 1286.56 2275.2 1285.42 2277.61 1282.58 2277.61 1280.24 2277.61 1277.89 2280.55 1273.32 2284.13 1270.08 2287.71 1266.83 2291.39 1260.29 2292.29 1255.53 2294.36 1244.7 2292.11 1247.12 2274.53 1274.58 2259.97 1297.33 2256.63 1306.43 2265.55 1299.02 2268.36 1296.68 2269.81 1293.39 2268.77 1291.7ZM2188.64 1248.25C2193.16 1178.77 2189.2 1141.76 2175.51 1125.34 2170.23 1119 2163 1109.65 2159.45 1104.56L2153 1095.31 2143.53 1124.79C2130.91 1164.06 2129.13 1171.72 2132.63 1171.72 2136.83 1171.72 2143.56 1155.74 2143.56 1145.76 2143.56 1141.12 2145.18 1137.32 2147.15 1137.32 2151.46 1137.32 2148.16 1157.76 2141.11 1174.66 2132.81 1194.55 2143.51 1220.79 2169.05 1243.24 2183.26 1255.72 2188.07 1256.96 2188.64 1248.26ZM2210.3 1241.75C2212.07 1237.14 2211.55 1236.86 2207.48 1240.24 2203.35 1243.67 2202.27 1242.72 2201.18 1234.71 2200.1 1226.78 2199.37 1226.12 2197.13 1231.05 2193.64 1238.72 2196.88 1247.39 2203.24 1247.39 2205.93 1247.39 2209.11 1244.85 2210.3 1241.75ZM2312.43 1222.46C2316.17 1215.43 2316.02 1215.16 2310.83 1219.43 2307.69 1222.03 2305.11 1225.51 2305.11 1227.17 2305.11 1232.43 2308.17 1230.46 2312.43 1222.46ZM2232.94 1202.66C2246.62 1187.22 2255.36 1173.95 2257.28 1165.68 2263.07 1140.71 2262.36 1140.15 2240.67 1152.63 2206.56 1172.25 2203.53 1176.57 2204.87 1203.54 2205.5 1216.3 2207.27 1226.75 2208.81 1226.75 2210.34 1226.75 2221.21 1215.91 2232.94 1202.66ZM2198.96 1200.62C2196.43 1189.82 2195.75 1188.99 2195.47 1196.37 2195.11 1205.9 2198.4 1217.74 2200.76 1215.38 2201.5 1214.64 2200.69 1207.99 2198.96 1200.62ZM2329.18 1203.55C2329.18 1202.61 2326.86 1203.76 2324.02 1206.12 2321.19 1208.47 2318.86 1211.17 2318.86 1212.12 2318.86 1213.06 2321.19 1211.91 2324.02 1209.56 2326.86 1207.2 2329.18 1204.5 2329.18 1203.55ZM2196.55 1153.19C2195.24 1138.79 2192.67 1127 2190.84 1127 2189 1127 2188.39 1130.54 2189.48 1134.88 2190.57 1139.22 2192.5 1151.64 2193.77 1162.49 2197.15 1191.24 2199.33 1183.93 2196.55 1153.19ZM2122.94 1163.12C2122.94 1160.28 2121.39 1157.96 2119.5 1157.96 2117.61 1157.96 2116.07 1160.28 2116.07 1163.12 2116.07 1165.95 2117.61 1168.27 2119.5 1168.27 2121.39 1168.27 2122.94 1165.95 2122.94 1163.12ZM2259.18 1128.04C2257.77 1126.63 2255.18 1127.75 2253.42 1130.54 2248.13 1138.91 2249.72 1142.63 2255.93 1136.42 2259.13 1133.22 2260.59 1129.45 2259.18 1128.04ZM2186.31 1101.85C2185.24 1093.93 2182.99 1080.47 2181.31 1071.96 2179.63 1063.45 2177.27 1049.9 2176.07 1041.86 2173.45 1024.3 2167.62 1022.43 2167.62 1039.16 2167.62 1045.71 2164.63 1058.67 2160.97 1067.95 2153.62 1086.6 2154.52 1089.54 2173.83 1110.54 2184.89 1122.56 2188.75 1119.87 2186.31 1101.86Z" fill-rule="evenodd"/></g></svg>