<svg width="1558" height="2213" xmlns="http://www.w3.org/2000/svg" xmlns:xlink="http://www.w3.org/1999/xlink" xml:space="preserve" overflow="hidden"><defs><clipPath id="clip0"><rect x="1421" y="131" width="1558" height="2213"/></clipPath></defs><g clip-path="url(#clip0)" transform="translate(-1421 -131)"><path d="M2168 1569.99 2171 1569.99 2171 1576.99 2168 1576.99Z" fill="#FFFFFF" fill-rule="evenodd"/><path d="M1597 1422.99 1676 1422.99 1676 1614.99 1597 1614.99Z" fill="#FFFFFF" fill-rule="evenodd"/><path d="M1645 1508.99 1707 1508.99 1707 1559.99 1645 1559.99Z" fill="#FFFFFF" fill-rule="evenodd"/><path d="M1663 1542.99 1666 1542.99 1666 1545.99 1663 1545.99Z" fill="#FFFFFF" fill-rule="evenodd"/><path d="M2293.94 789C2119.92 1035.91 1882.24 1115.96 1754.88 1436.69 1627.5 1757.44 1816.87 1998.29 2080.56 2165.63L2438.95 2335.19 2452 2335.31 1913.08 2344 1733.58 2126.27C1213.6 1310.73 2031 985.891 2293.95 789L2293.95 789Z" fill-rule="evenodd"/><path d="M2687.21 470.494C2631.17 484.789 2557.45 486.397 2531.01 521.928 2587.86 527.342 2626 539.248 2658.79 553.015 2604.8 555.097 2555.32 553.31 2510.47 583.956 2539.45 610.948 2552.43 635.116 2562.31 658.743 2536.19 643.124 2510.14 627.454 2474.68 617.61 2458.61 654.13 2395.03 674.324 2350.12 701.261 2367.14 619.552 2405.38 589.779 2445.35 505.883 2589.62 291.798 2685.19 334.622 2790.67 325.097 2746.2 364.536 2647.19 373.139 2603.19 432.345 2649.5 439.829 2687.04 449.82 2687.2 470.499ZM2539.29 1568.99C2602.37 1477.52 2689.65 1395.98 2643.71 1261.07 2628.26 1209.3 2614.11 1162.4 2525.04 1075.56 2447.23 986.884 2374.85 926.914 2297.75 865.189 2314.52 911.595 2327.63 963.717 2337.51 1007.33 2345.92 1044.45 2325.45 1080.93 2306.64 1116.98L2352.5 1092.72 2323.44 1299.76C2367.44 1274.38 2398.15 1227.62 2424.53 1173.92 2463.84 1176.93 2432.81 1284.93 2426.54 1355.99 2465.64 1344.37 2480.86 1316.62 2506.44 1295.87 2519.41 1321.01 2478.46 1402.85 2476.49 1465.65 2493.38 1466.36 2538.96 1402.37 2549.28 1419.54 2559.81 1437.02 2534.96 1535.98 2539.29 1569ZM2978.61 897.671C2987.91 795.537 2829.28 651.099 2496.2 738.308 2442.84 740.15 2401.2 757.542 2321.08 787.48 2376.78 791.797 2429.11 790.976 2451.67 791.808 2483.52 792.98 2465.16 811.307 2497.64 844.287 2508.32 775.395 2586.39 886.472 2631.96 910.78 2634.87 884.788 2633.27 843.792 2650.55 839.073 2668.36 834.206 2705.72 866.591 2754.23 906.645 2766.03 890.545 2773.59 869.08 2766.93 829.569 2897.34 893.378 2914.3 869.472 2978.63 897.677ZM2268.82 690.716C2260.19 578.216 2465.22 221.364 2115.95 131 2148.95 183.926 2139.84 248.659 2203.45 311.966 2173.32 310.493 2146.37 302.391 2112.25 309.21 2129.78 335.34 2144.73 360.102 2189.9 400.912 2175.41 402.96 2156.01 402.833 2094.77 384.145 2114.54 413.249 2122.91 442.378 2168.93 471.426 2192.55 488.78 2200.6 504.8 2140.98 515.019 2172.77 533.993 2222.57 541.805 2231.72 574.779 2228.63 618.163 2252.33 653.35 2268.84 690.733ZM2245.14 782.637C2244.38 764.626 2246.37 730.096 2229.08 702.567 2128.89 543.067 1921.38 298.97 1591.7 480.029 1684.54 503.903 1788.11 524.056 1858.75 555.644L1783.68 600.448C1856.96 604.968 1950.89 604.751 1971.91 621.257 1930.19 654.914 1877.83 675.063 1824.71 694.256 1918.01 717.375 1996.16 721.266 2052.32 697.274 2047.44 711.611 2035.05 725.965 2015.94 740.336 2052.15 737.521 2091.85 714.959 2124.33 733.279 2137.48 770.143 2202.95 767.641 2245.16 782.644L2245.16 782.644ZM2205.79 830.508C2172.48 827.383 2147.87 829.301 2103.12 805.684 1559.5 668.539 1488.5 837.822 1421 1023.16 1526.67 955.306 1615.19 911.138 1686.31 890.996L1668.36 1005.56C1728.71 954.161 1790.21 901.49 1816.55 887.717 1822.71 883.599 1842.68 887.933 1842.72 901.747 1813.48 957.788 1804.59 999.275 1790.39 1044.56 1852.45 1000.22 1931.33 955.395 1949.35 908.432 1965.48 901.063 1974.53 919.14 1970.53 959.262 1995.68 940.956 2007.16 913.42 2022.25 888.318 2086.07 900.527 2147.18 880.223 2205.83 830.528Z" fill-rule="evenodd"/></g></svg>