<?xml version="1.0" encoding="UTF-8"?>
<svg width="478.12" height="241.88" version="1.1" viewBox="0 0 478.125 241.875" xmlns="http://www.w3.org/2000/svg">
 <path d="m0.46357 240.93c-1.4559-2.3556 0.46959-4.2108 4.48-4.3164 5.4677-0.14398 32.696-11.326 42.4-17.412 1.0312-0.64681 3.5625-2.2368 5.625-3.5333s4.5604-2.7857 5.551-3.3092c2.8505-1.5066 2.6624-2.818-0.41995-2.9279-3.0018-0.107-4.9194-1.301-3.1251-1.946 0.58761-0.21121 4.4367-3.6339 8.5536-7.606 4.1168-3.9721 9.3314-8.873 11.588-10.891 3.9821-3.5612 4.02-3.6471 1.2902-2.9235-7.7587 2.0566-14.272 2.1147-8.2031 0.0732 2.1526-0.72408 7.3326-5.5932 11.967-11.248 2.0436-2.494 5.8298-6.6264 8.4136-9.1832l4.698-4.6486-3.9844 0.64777c-5.0384 0.81912-4.9917 0.41277 0.57071-4.9605 2.5053-2.4202 8.4039-8.1177 13.108-12.661 4.8977-4.7305 7.6587-7.974 6.4605-7.5896-13.155 4.2204-12.524 2.2627 4.0013-12.418 4.8252-4.2865 12.929-8.9945 14.166-8.2301 0.45892 0.28363 0.83441 0.048 0.83441-0.52368 0-0.71607-1.7497-0.84142-5.625-0.40299-10.057 1.1378 0.65422-9.528 14.677-14.614 2.6193-0.95012 3.5883-1.3476 9.2297-3.786l2.8125-1.2157-2.8125-0.66516c-1.5469-0.36584-4.1836-0.71507-5.8594-0.77608-3.5382-0.1288-4.0204-1.9537-0.93018-3.5205 1.1561-0.58618 6.2287-3.2229 11.272-5.8594s10.001-4.7936 11.016-4.7936c1.0149 0 1.8453-0.38479 1.8453-0.8551 0-0.4703 1.6893-1.1405 3.754-1.4893 5.2426-0.88573 3.9268-2.0049-3.2623-2.7748-12.319-1.3192-0.0312-8.5025 24.352-14.236 2.636-0.61986 2.5036-0.71814-2.1094-1.566-4.9816-0.91567-7.0317-3.4416-2.8125-3.4654 1.1602-0.0066 4.552-1.2507 7.5374-2.7647 6.3222-3.2064 14.647-6.2211 19.65-7.1158 4.8767-0.87216 4.399-1.9052-1.701-3.6785-10.439-3.0346 8.1672-12.627 24.62-12.693 5.5671-0.02242 6.9424-1.486 2.544-2.7072-2.0166-0.55991-4.1939-1.0204-4.8384-1.0232-1.3391-6e-3 -1.5765-1.5195-0.35671-2.2734 0.44836-0.2771 3.0851-0.76627 5.8594-1.0871 2.7743-0.32078 7.9973-1.2631 11.607-2.0941 3.6094-0.83095 9.4579-1.4474 12.997-1.3699l6.4342 0.14095-3.856-2.8358c-4.9433-3.6353-4.852-4.2807 0.59708-4.2197 2.4492 0.02742 9.1282-0.3054 14.842-0.73961 7.3054-0.55515 11.897-0.45628 15.469 0.3331 8.8199 1.9491 9.2984 2.0071 9.2984 1.1272 0-0.47368-1.6875-3.1071-3.75-5.852-4.6549-6.1951-1.5765-9.3548 4.3471-4.4618 0.98118 0.81048 3.6577 1.5052 19.559 5.0768 3.0938 0.69488 7.1016 1.6838 8.9062 2.1975 5.0546 1.4389 11.477 3.0014 14.066 3.4223 15.986 2.598 36.039 7.9853 50.153 13.474 14.146 5.5008 12.041 4.9698 24.208 6.1056 5.3013 0.49485 15.215-1.4076 23.415-4.4934 3.1981-1.2036 8.1351-2.9491 10.971-3.8791 2.8359-0.92994 7.5922-2.8572 10.57-4.2829 2.9773-1.4257 6.6019-2.8532 8.0548-3.1723l2.6415-0.58018-1.0235 6.0963c-1.2069 7.1884-1.1631 7.1387-8.9923 10.192-35.439 13.82-35.61 13.905-43.961 21.996-9.8364 9.5294-13.654 17.704-16.528 35.393-1.4786 9.1009-7.2058 31.045-9.2978 35.625-0.70655 1.5469-2.4161 5.5547-3.799 8.9062-4.3801 10.616-6.0591 12.075-8.0046 6.9581-1.2176-3.2026-3.5183-1.9452-5.9688 3.2622-10.599 22.522-19.316 32.249-19.316 21.552 0-5.558-1.0635-5.8422-3.8175-1.0203-2.7404 4.7983-21.469 24.56-23.276 24.56-1.2688 0-1.3716-7.7313-0.15906-11.959 1.1902-4.1499 0.85782-3.9145-3.9798 2.8187-5.1856 7.2175-8.617 10.475-17.049 16.184-3.6094 2.4438-7.5686 5.2339-8.7983 6.2002-4.1935 3.2951-5.4994 1.1877-2.884-4.654l1.7411-3.8889-4.8732 3.6403c-2.6802 2.0022-6.9826 4.7505-9.5607 6.1075s-6.5859 3.6891-8.9062 5.1824c-4.7898 3.0827-12.538 5.0901-10.596 2.7453 0.61753-0.74571 1.5255-3.1481 2.0177-5.3386l0.89487-3.9828-4.3614 2.5199c-2.3988 1.3859-7.5255 4.7207-11.393 7.4105-14.112 9.816-19.191 10.035-14.147 0.61002 0.55126-1.03-5.1538 1.4439-15.22 6.6-18.383 9.4163-20.229 9.8156-17.518 3.7896 2.0609-4.5799 2.0729-4.567-2.0462-2.2111-2.7279 1.5602-18.397 7.5374-26.674 10.175-4.492 1.4315-5.3446 0.21462-2.639-3.7669 2.2708-3.3417 1.462-4.0151-1.9121-1.5922-9.0848 6.5238-30.193 10.013-25.652 4.2408l2.0598-2.6186-2.2663 0.70315c-1.2464 0.38673-4.2275 1.6886-6.6244 2.8932-12.124 6.0925-25.241 7.0286-21.648 1.545l1.4014-2.1388-4.3636 1.8705c-3.8746 1.6609-18.947 6.0985-24.055 7.0821-2.4049 0.46315-3.2466-1.5649-1.7839-4.2981 0.9288-1.7355 0.88991-2.0026-0.22904-1.5732-12.108 4.6462-23.956 7.0189-26.976 5.4023l-2.0703-1.108 2.1975-2.4137c1.8376-2.0184 1.9125-2.311 0.45746-1.7861-2.5522 0.92051-27.02 5.1183-39.185 6.7228-12.108 1.5969-25.726 1.8231-26.58 0.44142zm27.661-4.1811c7.2214-0.79994 19.713-3.3292 28.594-5.7894 5.1562-1.4285 11.273-2.6176 13.594-2.6424 4.6636-0.05 6.9261-1.0319 5.9642-2.5883-0.39163-0.63368-0.18863-0.74548 0.53808-0.29634 0.73336 0.45324 2.5225-0.60245 4.8151-2.8411 2.0065-1.9593 3.9416-3.2689 4.3002-2.9104 0.94501 0.945-4.2727 6.1392-8.1936 8.1566-2.9452 1.5154-9.4077 8.4134-7.8822 8.4134 1.8987 0 10.472-3.2778 11.332-4.3326 0.56661-0.6948 1.2401-1.0534 1.4967-0.79678 0.25657 0.25656 1.9373-0.14807 3.735-0.8992 3.1308-1.3082 5.0966-2.7761 13.102-9.7836 5.1068-4.4705 4.4957-2.1225-0.69215 2.6596-4.2727 3.9384-4.2808 3.9575-1.4062 3.3262 3.607-0.79223 3.9679 1.7691 0.93963 6.669-2.1746 3.5186-1.7067 3.8398 2.4202 1.6614 1.5469-0.81653 3.4453-1.6174 4.2188-1.7798 0.77344-0.16236 4.3594-1.6835 7.9688-3.3803s7.145-3.1844 7.8569-3.3057c0.71191-0.12133 1.7455-0.67171 2.2969-1.2231 2.3691-2.3691 3.5696-1.1006 2.9388 3.1054-0.92067 6.1395 11.357 2.706 24.96-6.98l2.6423-1.8815 1.4923 2.2775c0.95391 1.4558 1.2711 3.1589 0.87912 4.7205-1.0262 4.0887 16.461-2.4547 23.496-8.792 4.1386-3.7278 8.6485 1.087 5.2825 5.6397-2.5016 3.3837-2.5409 4.6234-0.12627 3.9919 1.0312-0.26968 1.875-0.8879 1.875-1.3738 0-0.48592 0.33382-0.67718 0.74181-0.42503 1.0815 0.66842 13.309-5.6 23.937-12.271 6.4989-4.0794 9.0146-1.1215 4.3203 5.0797-3.031 4.0039-3.5855 5.9538-1.1082 3.8968 0.90235-0.74925 3.9609-2.5623 6.7969-4.029 7.4851-3.8712 20.482-11.722 21.123-12.759 0.98648-1.5962 3.5047-1.0257 2.8622 0.64843-0.49741 1.2962-0.36182 1.3491 0.85985 0.33516 2.478-2.0566 2.7864-0.14359 0.67692 4.1984-1.5309 3.1511-1.6871 4.0288-0.64556 3.6291 0.75553-0.28992 1.3737-0.90387 1.3737-1.3643s0.57512-0.8372 1.278-0.8372c1.6023 0 17.362-10.414 19.746-13.048 1.942-2.1459 5.2094-2.631 5.2544-0.78014 0.0158 0.65037 0.45376 0.44176 0.98408-0.46875 0.52557-0.90234 1.3565-1.6406 1.8465-1.6406 1.3037 0 1.0873 2.5669-0.41771 4.9549-0.71975 1.142-1.6028 3.0598-1.9623 4.2617l-0.65363 2.1853 4.0716-2.4221c2.2394-1.3321 5.1263-2.9483 6.4154-3.5915 4.4748-2.2328 13.608-8.9338 16.256-11.927l2.6623-3.0093 1.8472 1.9827c1.1292 1.2121 1.6431 2.7032 1.322 3.8364-0.28883 1.0195-0.78272 2.7548-1.0975 3.8561-0.50938 1.7821 4.5047-1.212 8.0724-4.8203 0.25781-0.26075 2.0508-1.6533 3.9844-3.0946s3.5156-3.2318 3.5156-3.979 0.37821-1.3585 0.84046-1.3585c2.0892 0 19.439-31.687 23.604-43.108 1.1314-3.1031 2.3931-5.642 2.8036-5.642 1.8878 0-4.8944 16.743-11.583 28.594-2.0371 3.6094-4.742 8.4609-6.0109 10.781l-2.3071 4.2188 3.4604-4.0141c4.7204-5.4757 6.5017-4.2302 5.5595 3.8875l-0.65208 5.6184 5.0334-4.3238c4.8744-4.1872 8.7309-8.1992 7.8815-8.1992-0.22814 0 0.52904-1.0184 1.6826-2.2632 1.1536-1.2448 2.7003-3.4596 3.4371-4.9219 5.4202-10.757 8.4416-10.489 10.477 0.93077 0.47685 2.6758 12.676-19.167 15.041-26.93 0.61979-2.0349 1.837-3.8424 2.7479-4.0806 0.89938-0.23519 1.7737-1.1226 1.9428-1.972 0.25451-1.2779 0.73875-1.1166 2.8061 0.9345l2.4985 2.4789 1.9534-4.1556c5.7048-12.136 9.6007-25.279 10.937-36.896 1.9332-16.802 6.7018-28.689 14.879-37.088 2.5781-2.6483 5.8428-6.1016 7.2549-7.674 2.9105-3.2411 10.492-7.8253 19.464-11.768 3.3516-1.4731 7.3594-3.2378 8.9062-3.9216 3.672-1.6232 15.733-5.1725 17.577-5.1725 0.9576 0 1.5832-1.1728 1.8752-3.5156 0.5372-4.3092 0.64863-4.1724-2.1963-2.6965-5.5568 2.8829-23.757 9.9621-25.612 9.9621-1.1156 0-3.6996 0.88257-5.7422 1.9613-6.9815 3.6869-25.163 2.9484-34.397-1.397-9.1-4.2825-14.243-6.2666-20.866-8.0491-3.6169-0.97354-10.162-2.8125-14.545-4.0866-4.3828-1.2741-9.8672-2.5338-12.188-2.7994-2.3203-0.2656-7.8047-1.3232-12.188-2.3503-11.513-2.698-22.583-5.0067-25.489-5.3159-1.3863-0.1475-3.7977-0.9053-5.3586-1.684s-4.5743-1.7092-6.6964-2.0677l-3.8584-0.65186 2.6033 4.0797c1.4318 2.2438 3.3646 4.9506 4.2951 6.0151 3.0394 3.477 1.2707 3.9291-5.3394 1.3647-7.9098-3.0686-35.851-4.1233-36.223-1.3672-0.1166 0.86338 3.541 3.3657 7.4017 5.0638 1.1639 0.51195 2.0077 1.4301 1.875 2.0403-0.13268 0.61021 0.81345 1.4488 2.1025 1.8635 1.6415 0.52808 1.0797 0.62476-1.875 0.32267-2.3203-0.23724-5.6243-0.41819-7.3423-0.40211s-2.8951-0.34046-2.6158-0.79231c1.0809-1.7489-11.424-1.8924-21.214-0.24343-6.6556 1.1211-9.9228 2.8709-5.3605 2.8709 3.1403 0 8.4074 2.613 8.4074 4.1709 0 1.1695-1.2386 1.4555-6.3281 1.4612-5.55 0.0062-9.4346 0.44714-21.328 2.4209-1.5469 0.2567-4.5 0.94118-6.5625 1.5211-2.0625 0.57988-4.316 1.1625-5.0078 1.2948-2.5382 0.48531-2.0892 1.203 1.883 3.0098 6.1565 2.8003 8.1575 4.6048 6.406 5.7767-0.77344 0.51753-1.0055 0.94742-0.51563 0.95532 3.1376 0.05058-1.8408 1.8335-6.458 2.3128-3.0621 0.31786-6.0152 0.93673-6.5625 1.3753-0.54729 0.43853-2.3662 1.0905-4.042 1.4488-1.6758 0.35832-3.0469 1.0647-3.0469 1.5698 0 0.50509-0.40948 0.66526-0.90997 0.35595-0.50048-0.30932-2.2621 0.1368-3.9146 0.99138l-3.0047 1.5538 3.1686 1.3323c4.0573 1.706 4.4301 2.1204 2.809 3.1223-0.77475 0.47882-2.0248 0.44853-2.9986-0.07267-1.3121-0.70219-1.5532-0.58938-1.1251 0.52626 0.61387 1.5997 0.99847 1.4451-10.431 4.1935-4.6406 1.1159-9.6625 2.6395-11.16 3.3857-1.4972 0.74619-3.2902 1.3567-3.9844 1.3567-3.0595 0-0.7984 1.6591 4.3717 3.2078 9.3033 2.7868 8.8056 3.802-3.7589 7.6677-4.3828 1.3484-9.6562 3.3319-11.719 4.4076-2.0625 1.0757-4.1719 1.9794-4.6875 2.0083-4.2891 0.23973-5.0465 3.7376-0.95859 4.4272 2.23 0.37617 5.1773 2.6892 5.1773 4.0632 0 0.5445-3.6914 2.4086-8.2031 4.1425-19.274 7.4073-23.511 10.326-15.061 10.374 10.634 0.0607 9.1146 2.1503-7.705 10.599-9.9501 4.998-14.081 7.5994-15.853 9.9837-2.1234 2.8568-2.1829 3.1318-0.52168 2.4118 3.9613-1.7169 10.781-1.7281 10.781-0.0177 0 1.7639-3.5365 5.0832-5.4672 5.1314-2.5988 0.0649-18.438 14.07-19.197 16.975-0.55738 2.1314-0.04284 2.1978 3.1021 0.39992 2.3738-1.357 5.5168-1.923 4.3831-0.78938-0.33927 0.33928-0.13149 1.2017 0.46175 1.9165 1.12 1.3495-3.3315 6.0881-6.8701 7.3132-1.8921 0.65504-16.002 16.501-15.31 17.193 0.27036 0.27035 0.99077-8e-3 1.6009-0.61783 1.5705-1.5705 4.4844-1.3776 4.4844 0.29688 0 1.7536-0.6097 1.8326 7.3712-0.95574 8.2438-2.8802 25.467-7.2997 26.076-6.691 0.24311 0.24311-2.015 1.1201-5.0181 1.9488-14.561 4.0183-19.888 5.6244-24.098 7.2648-2.5163 0.98069-4.7754 1.5827-5.0203 1.3378-0.39272-0.39271-1.9414 1.1279-6.0933 5.9826-0.65254 0.76301-1.0944 1.6718-0.982 2.0196 0.11244 0.34775-1.3976 1.2733-3.3556 2.0567s-4.8848 2.9332-6.5039 4.7773-3.5192 3.3529-4.2225 3.3529-1.2786 0.6609-1.2786 1.4687c0 1.4696 0.14206 1.4657 6.0156-0.16443 3.5855-0.99508 2.5312 2.2571-2.3438 7.23-2.4492 2.4984-4.8418 4.5534-5.3168 4.5667-0.47502 0.0132-1.5297 0.60074-2.3438 1.3055-3.3982 2.9421-29.69 15.403-38.752 18.367-7.3723 2.4109-7.6435 3.892-0.49047 2.6783 2.7227-0.462 6.4269-1.0036 8.2316-1.2035zm73.125-6.62c0-0.27334 2.3202-3.232 5.156-6.5748s5.6795-6.9161 6.3193-7.9405c1.2099-1.9374 2.5872-2.4798 2.5872-1.0189 0 1.2662-12.123 16.031-13.162 16.031-0.49511 0-0.9002-0.22364-0.9002-0.49698zm8.4375-1.0072c0-0.64055 7.9997-11.362 9.3703-12.558 0.29536-0.25781 2.1556-2.4727 4.1338-4.9219 4.0562-5.0219 6.5064-6.081 3.2533-1.4062-6.6221 9.516-16.757 20.939-16.757 18.886zm20.625-2.4348c8.0667-7.8248 17.048-15.855 15.517-13.874-2.7057 3.502-13.838 14.073-15.986 15.18-1.4582 0.75173-1.354 0.46121 0.46875-1.3069zm-45.912-0.41833c1.2749-0.84965 4.1021-3.2491 6.2827-5.3322s4.29-3.4566 4.6875-3.0523c1.0828 1.1012-8.9373 9.9293-11.27 9.9293-1.9447 0-1.9337-0.0563 0.29977-1.5448zm-30.963-0.59184c0.25781-0.28071 4.4766-1.8462 9.375-3.4788 9.7789-3.2593 26.25-10.954 26.25-12.264 0-0.45488 1.582-1.6269 3.5156-2.6045 9.3766-4.7406 14.402-7.9342 13.431-8.5346-1.3766-0.85081 1.1134-3.1105 6.5627-5.9555 2.2809-1.1908 7.522-4.317 11.647-6.9469 6.6008-4.2084 15.722-8.346 10.446-4.7386-6.3152 4.3181-16.757 11.046-20.524 13.225-5.8043 3.357-5.6426 3.8703 0.46875 1.4879 8.705-3.3935 16.129-8.1242 41.082-26.179 2.4942-1.8047 6.8747-4.9043 9.7344-6.888s5.1995-3.9192 5.1995-4.301c0-0.38183 2.2148-1.7845 4.9219-3.1171 2.707-1.3326 5.7656-3.194 6.7969-4.1365 1.0312-0.94251 3.4835-2.5574 5.4494-3.5886 1.966-1.0312 4.2462-2.6133 5.0672-3.5156 0.821-0.90234 1.8509-1.6406 2.2888-1.6406s4.2425-2.3203 8.4548-5.1562 8.0478-5.1562 8.5233-5.1562c0.47551 0 1.9844-0.77651 3.353-1.7256 1.3686-0.94907 5.8635-3.5293 9.9885-5.7338s9.8203-5.4063 12.656-7.1151c17.693-10.661 36.987-19.934 63.339-30.442 11.828-4.7162 22.842-9.177 24.477-9.9128 1.6346-0.73584 4.2713-1.5978 5.8594-1.9154 1.588-0.31761 2.8874-0.8546 2.8874-1.1933 0-0.33871 1.0688-0.70429 2.375-0.8124s3.5211-0.78889 4.9219-1.5128c4.5202-2.3362 21.06-8.5915 29.734-11.245 4.6406-1.4198 16.132-5.1113 25.536-8.2035 15.878-5.2206 17.245-5.5196 19.146-4.1879 1.9646 1.376 1.9745 1.4581 0.24501 2.0251-0.9914 0.32501-3.701 1.358-6.0213 2.2955s-5.9062 1.9842-7.9688 2.326c-3.4057 0.56443-25.015 7.2219-44.062 13.575l-7.5 2.5015-4.7739 7.1274c-6.5416 9.7666-14.984 31.543-20.002 51.592-3.9842 15.919-13.013 32.83-23.014 43.104-5.4383 5.5869-5.8006 4.0788-0.56311-2.3438 6.1071-7.4889 5.7004-6.9328 9.0851-12.422 7.5244-12.202 9.7085-17.66 12.944-32.344 0.85212-3.8672 2.1426-8.2969 2.8677-9.8438 0.72515-1.5469 2.6325-7.0312 4.2386-12.188 3.3432-10.733 7.8418-20.138 12.636-26.417 4.3244-5.6635 4.513-5.6498-8.4782-0.61608-6.1548 2.3848-13.3 5.1002-15.878 6.0341-5.2787 1.9122-18.996 6.9713-23.777 8.7689-7.7772 2.9244-19.38 23.919-24.893 45.042-1.2112 4.6406-2.9086 10.125-3.772 12.188-0.8634 2.0625-2.5738 6.7372-3.8008 10.388-2.8271 8.412-12.097 23.998-18.838 31.673-4.1299 4.7024-3.4995 1.923 0.85504-3.7697 5.9764-7.813 16.569-27.369 16.569-30.59 0-0.75339 0.81474-3.2164 1.8106-5.4734 0.9958-2.257 2.9408-8.3223 4.3221-13.479s3.3357-11.221 4.343-13.476 2.6804-6.255 3.7179-8.8874c1.5786-4.005 7.8013-14.428 11.47-19.213 0.70506-0.91955-0.0419-0.83238-2.7377 0.31951-2.039 0.87124-4.3401 1.8102-5.1136 2.0866-1.3269 0.47417-7.6679 3.2931-15 6.6683-4.3405 1.9981-26.822 14.585-31.355 17.555-2.994 1.9617-9.2873 11.142-12.572 18.339-5.4822 12.014-6.9005 15.45-8.2732 20.046-5.0298 16.841-21.883 44.531-27.103 44.531-0.77081 0 0.35635-1.8014 2.6531-4.24 7.284-7.7342 22.275-36.327 22.275-42.486 0-2.5745 11.319-25.402 14.484-29.211 2.8134-3.3858 2.1969-3.584-2.4673-0.79314-2.7419 1.6406-6.8837 4.0052-9.204 5.2545s-4.8516 2.82-5.625 3.4903c-0.77344 0.67028-3.0938 2.1011-5.1562 3.1796-2.6185 1.3692-5.023 3.9294-7.9688 8.4849-7.8833 12.191-15.228 22.656-15.624 22.26-0.51043-0.51044 3.4332-7.0171 10.349-17.075 5.5902-8.1302 6.3896-10.394 2.4696-6.9944-1.1928 1.0345-2.551 1.8809-3.0181 1.8809-0.46715 0-0.61296 0.38253-0.32401 0.85007 0.28896 0.46754-0.31895 0.62927-1.3509 0.35941-1.0388-0.27166-1.8763-0.0294-1.8763 0.54288 0 0.56844-1.7196 2.1715-3.8212 3.5623-2.2696 1.5019-4.7086 4.2673-6.0066 6.8102-2.6564 5.2041-7.9518 12.596-8.5763 11.971-0.24946-0.24946 0.98397-2.7145 2.7409-5.4778 4.8113-7.5672 5.818-9.6288 4.2724-8.7491-3.1876 1.8142-7.3592 5.3167-7.3592 6.1788 0 0.52379-1.0766 2.3639-2.3926 4.0892-1.3159 1.7252-3.8512 6.8651-5.6341 11.422-6.0005 15.337-14.209 29.502-20.746 35.802-4.5121 4.3481-3.248 0.99465 2.4891-6.6036 6.4646-8.5618 9.6622-14.425 13.997-25.664 1.5944-4.1343 4.1675-9.5174 5.7181-11.962 3.632-5.727 3.5507-6.1544-0.49465-2.6025-1.8226 1.6003-3.6768 2.9096-4.1205 2.9096-0.44364 0-1.9542 2.1946-3.3567 4.877-2.7047 5.1726-8.0042 12.265-8.6683 11.601-0.21787-0.21788 1.3292-2.9368 3.4379-6.042s3.834-5.9284 3.834-6.2738c0-1.3295-14.862 9.3804-16.337 11.773-1.6218 2.6307-12.08 13.127-13.079 13.127-0.54667 0 1.5-2.5202 4.5481-5.6005s5.3312-5.8113 5.0736-6.0689c-0.82752-0.82752-7.1306 4.0041-12.158 9.3193-2.6854 2.8394-5.3311 5.1626-5.8793 5.1626-0.54818 0 0.86104-1.8929 3.1316-4.2064l4.1283-4.2064-2.9956 1.1307c-1.6476 0.62189-2.9956 1.485-2.9956 1.918 0 0.43301-0.39595 0.54259-0.8799 0.24349-1.0337-0.63884-8.382 3.2317-16.845 8.8725-7.1562 4.77-22.6 12.227-30.85 14.896-6.281 2.0319-13.145 3.505-12.363 2.6532zm87.75-3.3458c4.6524-3.3974 15.455-14.824 18.817-19.905 1.4181-2.1429 2.7377-3.4181 2.9324-2.8339 1.1972 3.5916-19.598 25.408-24.219 25.408-0.65281 0 0.4584-1.2015 2.4694-2.6699zm18.215 2.1777c0.0298-1.0088 4.1421-5.517 20.805-22.808 13.666-14.182 15.407-14.516 2.7144-0.52218-11.125 12.267-23.557 24.598-23.52 23.33zm-35.492-3.687c1.3667-1.2673 4.2995-5.0642 6.5174-8.4375 3.4514-5.2496 5.5098-7.3782 5.5098-5.6978 0 3.295-10.451 16.44-13.071 16.44-1.0128 0-0.70266-0.68443 1.0442-2.3042zm63.59-2.7234c0-0.18703 3.4805-4.7775 7.7344-10.201s9.1294-11.856 10.835-14.294c1.7051-2.4383 3.3377-4.1957 3.628-3.9054s-1.2729 3.1843-3.4737 6.4311c-7.7048 11.367-18.723 24.295-18.723 21.969zm-24.084-8.0309c3.906-4.0884 8.1636-9.1154 9.4614-11.171 2.4933-3.9496 4.3105-5.6111 4.3105-3.9411 0 3.1426-16.789 22.546-19.508 22.546-0.7512 0 1.83-3.345 5.736-7.4334zm-94.978 5.6216c0-0.48088 0.94922-1.1381 2.1094-1.4606 3.9735-1.1043 9.1406-3.5746 9.1406-4.37 0-0.43731 0.94922-0.7817 2.1094-0.76531 2.089 0.0295 2.0912 0.0442 0.23438 1.5112-4.2234 3.3367-13.594 6.8417-13.594 5.0847zm108.4-1.7038c1.4828-1.418 2.8613-2.1875 3.0634-1.7101 0.40875 0.96554-3.3166 4.2883-4.8079 4.2883-0.52331 0 0.2617-1.1602 1.7445-2.5781zm24.866-2.8125c2.3579-2.4492 7.56-8.4609 11.56-13.359 9.0027-11.024 8.926-10.941 8.926-9.6248 0 2.443-21.716 27.437-23.839 27.437-0.51386 0 0.99489-2.0039 3.3528-4.4531zm23.739-4.6875c1.8878-2.4492 6.0159-7.9241 9.1735-12.166 5.947-7.9898 8.5813-9.8811 3.9735-2.8527-4.1754 6.3689-14.743 19.472-15.703 19.472-0.4818 0 0.66859-2.0039 2.5564-4.4531zm-152.84 2.0796c1.0009-0.75704 2.3278-1.3764 2.9487-1.3764s4.1031-1.2656 7.7382-2.8125c6.6976-2.8501 9.7404-3.5795 8.0714-1.9349-1.4732 1.4517-16.627 7.5621-18.675 7.5301-1.8752-0.0293-1.8764-0.0503-0.08365-1.4062zm160.84-0.29364c0-0.43571 0.89139-1.5959 1.9809-2.5781 2.093-1.887 7.8726-9.3639 12.516-16.191 3.4517-5.0754 4.2987-3.5432 1.0787 1.9513-4.7955 8.1829-15.575 19.823-15.575 16.818zm-129.11-2.2547c1.1417-1.1602 2.2212-1.7788 2.3989-1.3747 0.47236 1.0743-1.7525 3.4841-3.2168 3.4841-0.80994 0-0.51863-0.75127 0.81791-2.1094zm111.3 1.4528c3e-3 -0.41234 1.1625-2.0153 2.5781-3.5622 6.6656-7.2838 20.444-25.481 23.391-30.892 2.3799-4.3702 2.9328-2.8763 0.60752 1.6415-1.9658 3.8193-9.6498 15.142-13.131 19.35-8.9952 10.871-13.456 15.338-13.445 13.462zm-142.04-4.9685c-0.31867-0.51563 0.30617-0.9375 1.3885-0.9375s6.335-1.4766 11.672-3.2812c9.6298-3.256 13.872-4.1692 10.656-2.2937-6.5311 3.8082-22.652 8.2349-23.717 6.5125zm172.03 0.0172c0-0.47383 0.5695-1.1989 1.2656-1.6112 2.2148-1.312 13.183-15.538 16.48-21.375 4.0128-7.1041 4.9616-5.2226 1.0589 2.0997-4.7235 8.8622-18.804 24.502-18.804 20.886zm9.375-1.8369c0-0.48519 0.41047-1.1358 0.91214-1.4459 1.4763-0.91239 21.91-29.37 26.779-37.294 2.4595-4.003 4.6464-7.1035 4.8598-6.8901 1.1289 1.1289-8.018 16.187-17.088 28.131-3.0906 4.0699-6.463 8.5332-7.4942 9.9184-5.2024 6.988-7.9688 9.6198-7.9688 7.5809zm17.715-12.946c8.5485-10.808 14.623-19.304 21.371-29.889 0.95586-1.4995 1.1247-1.5303 1.1719-0.21389 0.143 3.9893-29.075 42.993-32.206 42.993-0.29295 0 4.0556-5.8008 9.6634-12.891zm8.5351 10.583c0-1.0925 13.332-20.298 13.78-19.85 0.44916 0.44915-7.9992 14.378-11.307 18.642-1.199 1.5456-2.4723 2.1677-2.4723 1.2078zm-0.19931-9.6454c3.8899-4.7299 8.1224-10.879 16.147-23.459 2.721-4.2655 5.1428-7.5601 5.3816-7.3212 1.0624 1.0624-14.219 25.045-20.12 31.577-4.683 5.1835-5.8054 4.5485-1.409-0.79722zm29.472 0.46875c1.1817-1.8283 8.4925-14.274 12.529-21.328 0.73752-1.2891 4.1244-7.5369 7.5264-13.884 3.402-6.3472 6.4096-11.316 6.6835-11.042 1.6404 1.6404-24.703 48.313-27.291 48.352-0.44602 7e-3 -0.19741-0.93711 0.55247-2.0973zm-220.38-1.125c0.91277-0.95979 21.602-7.0656 23.765-7.0138 1.0312 0.0247-2.6912 1.4702-8.2722 3.2122-11.209 3.4988-16.422 4.7778-15.493 3.8016zm217.7-7.3125c3.0886-4.8601 4.4223-7.1682 12.542-21.705 5.1419-9.2057 6.9483-11.982 7.4614-11.469 0.58521 0.5852-7.2538 15.905-13.072 25.546-7.349 12.178-7.6119 12.549-8.8897 12.549-0.68506 0 0.12591-2.0378 1.9588-4.9219zm-10.651 2.5402c0-0.93 4.092-6.0558 4.8344-6.0558 0.98435 0-0.0971 2.8915-1.8409 4.9219-1.3516 1.5738-2.9934 2.1957-2.9934 1.1339zm-210.75-4.6788c0.87466-0.87466 41.181-12.744 42.164-12.417 1.5637 0.52123-37.695 12.915-40.909 12.915-0.96417 0-1.5289-0.22412-1.255-0.49804zm52.783-1.9441c1.5469-1.3061 3.8672-3.0787 5.1562-3.9391 1.2891-0.8604 5.5452-3.8899 9.458-6.7322l7.1143-5.1678-8.9893 0.24682c-14.834 0.40732-29.208 1.9738-36.401 3.9673-3.7306 1.0338-7.632 1.8796-8.6698 1.8796s-1.8869 0.44677-1.8869 0.99283-0.48211 0.69487-1.0714 0.3307c-5.1389-3.176 19.29-8.5478 42.088-9.255 10.931-0.33911 17.16-0.93342 19.219-1.8336l3.0455-1.3319-4.5085-0.0765c-2.8881-0.0489-4.2902-0.42951-3.9014-1.0588 0.33391-0.54028 2.7846-0.89611 5.446-0.79074 4.3191 0.17101 5.4683-0.24099 10.698-3.8355 6.2711-4.3101 7.0995-5.5796 3.75-5.7466-1.1602-0.0578 0.01-0.5852 2.5999-1.1719 3.9646-0.89799 8.8993-3.6922 13.103-7.4194 0.56662-0.50238-0.17515-0.74507-1.875-0.61347-6.7316 0.52112-7.7574-0.38644-1.2192-1.0787 3.9701-0.42035 8.5603-1.5244 10.201-2.4534 9.0395-5.1201 9.0397-5.1219 0.38094-4.9696-4.118 0.0724-7.9092 0.049-8.4248-0.0519-2.0304-0.39756 7.837-1.6889 13.406-1.7544 4.6974-0.0552 11.44-1.9065 11.437-3.1404-1.9e-4 -0.11567-7.7258-0.3339-17.168-0.48498-27.013-0.43219-42.458 0.99045-65.566 6.0395-6.157 1.3453-1.8571-1.3061 5.1562-3.1795 14.993-4.0048 18.273-4.3032 49.531-4.5057 16.801-0.10888 31.567-0.51918 32.812-0.91178 3.5468-1.1176 9.2383-5.2192 6.9529-5.0106-1.0312 0.0941-3.1406 0.068-4.6875-0.058l-2.8125-0.22912 2.8125-0.87627c1.5469-0.48195 4.2891-0.82669 6.0938-0.76608 4.8903 0.16422 4.8958 0.1625 9.8946-3.0678l4.6367-2.9963-6.5625-1.173-6.5625-1.173 7.9553 0.45965c7.3547 0.42495 8.3344 0.26197 12.977-2.1588l5.0216-2.6185-6.1767-0.54351c-9.449-0.83145-8.6194-1.9186 1.3441-1.7613 8.5146 0.13442 12.16-0.4169 12.16-1.8391 0-0.36411-1.793-0.76352-3.9844-0.88759-2.1914-0.12406-5.4609-0.60249-7.2656-1.0632-2.2317-0.56969-0.27846-0.6699 6.1068-0.31328 9.3468 0.52201 21.814-2.1664 14.518-3.1306-9.1422-1.2082-17.344-2.4992-22.969-3.6152-18.094-3.5903-53.327-4.6653-65.596-2.0014-8.3136 1.805-9.9591 0.91301-2.7398-1.4852 7.45-2.4748 47.547-2.7359 59.429-0.387 0.77344 0.1529 5.625 1.0041 10.781 1.8915 5.1562 0.88744 11.66 2.0193 14.453 2.5153 8.4555 1.5015 13.729 1.1175 18.601-1.3544 2.4454-1.2409 6.4819-3.0773 8.9699-4.0809l4.5237-1.8247-10.617-1.635c-5.8396-0.89918-12.516-1.9687-14.836-2.3766-7.9-1.3889 1.0225-1.0598 11.921 0.43965 17.525 2.4112 17.459 2.4151 28.841-1.7222l3.7303-1.356-3.7303-0.97436c-6.5389-1.7081-18.1-3.9011-20.566-3.9011-1.3108 0-2.3833-0.44772-2.3833-0.99494 0-1.1443 4.426-0.63407 17.681 2.0383 9.6122 1.9379 14.731 2.237 15.552 0.90854 0.55881-0.90416-8.7-3.2721-17.062-4.3635-2.707-0.35334-4.9219-1.0291-4.9219-1.5016 0-0.90585 3.0629-0.50332 13.125 1.7249 11.669 2.584 14.119 2.587 20.186 0.02429 5.5055-2.3254 5.5501-2.3741 2.7828-3.0356-1.5469-0.36976-7.3477-1.8824-12.891-3.3613-5.543-1.479-14.613-3.8967-20.156-5.3727s-14.086-3.1851-18.984-3.798-12.281-1.5575-16.406-2.0992c-6.2294-0.81798-20.229-1.5423-33.75-1.7462-2.5482-0.03843-2.641-0.14191-0.98761-1.1011 3.654-2.1198 35.528-0.78499 51.144 2.1418 17.834 3.3427 28.082 5.7983 31.159 7.4664 0.89535 0.4854 2.2648 0.88254 3.0432 0.88254 0.77837 0 3.9399 0.87373 7.0257 1.9416s6.0406 1.6758 6.5662 1.3509c0.52567-0.32488 0.95577-0.18595 0.95577 0.30874s1.2899 0.81014 2.8665 0.70099 3.06 0.11463 3.2965 0.49729c0.3836 0.62067 5.0808 0.20662 5.7986-0.51113 0.15678-0.15678-4.3905-2.1278-10.105-4.3801-5.7146-2.2523-10.027-4.2162-9.5821-4.3644 0.44444-0.14815 5.3234 1.4267 10.842 3.4996 11.402 4.2827 13.784 4.5241 18.691 1.8939 1.9241-1.0312 4.5546-1.875 5.8455-1.875 5.2653 0 1.6692-2.0287-10.075-5.6837-14.985-4.6638-15.28-4.7774-10.565-4.0785 2.0524 0.30425 8.9824 2.2205 15.4 4.2583 7.8923 2.5061 12.525 3.517 14.315 3.1237 3.8447-0.84444 3.2624-1.7952-1.9116-3.1213-6.4862-1.6624-24.6-7.7405-21.223-7.1213 1.5469 0.28359 8.5078 2.1893 15.469 4.2349l12.656 3.7193 7.0312-2.1961 7.0312-2.1961-4.2188-0.6893c-10.71-1.7499-27.749-7.1125-26.168-8.2359 1.0548-0.74962 0.99401-0.83498-0.29914-0.41986-0.89275 0.28659-6.1662-1.4072-11.719-3.7641-5.5526-2.3568-12.627-4.8656-15.721-5.5751l-5.625-1.2899 5.1562 0.38993c2.994 0.22642 14.002 3.3316 26.25 7.4049 21.693 7.2142 27.562 8.6272 34.453 8.2938 2.1914-0.10602 3.9844 0.23224 3.9844 0.7517s-1.35 0.94447-3 0.94447c-2.0259 0-2.6916 0.3084-2.0502 0.9498 1.0719 1.0719 6.9444-0.57345 8.0508-2.2557 0.36127-0.54933 2.0488-0.89515 3.75-0.76849s3.7259-0.19207 4.4994-0.70829c1.1532-0.76971 1.0374-0.94118-0.64373-0.95295-3.9722-0.02782-24.424-5.4989-31.903-8.5342-6.6385-2.6944-5.805-3.2488 1.2209-0.81215 11.125 3.8584 30.036 8.3886 35.029 8.3915 3.101 0.0018 4.7593 0.33877 4.2188 0.85722-1.3491 1.294-16.905 7.0604-24.328 9.0183-3.6094 0.95198-6.7734 1.9828-7.0312 2.2906-0.25781 0.30786-2.5781 1.0359-5.1562 1.618-10.484 2.3668-19.828 5.2992-22.176 6.9592-1.3687 0.96778-3.3726 1.7596-4.4531 1.7596-1.0806 0-1.9646 0.42188-1.9646 0.9375s-0.62183 0.9375-1.3818 0.9375c-1.8325 0-12.637 4.1849-29.087 11.266-4.098 1.7641-17.761 6.5401-20.101 7.0264-2.1408 0.44494-10.758 4.362-11.306 5.1389-0.41033 0.58252-8.6658 4.4265-22.5 10.477-7.5486 3.3012-12.582 5.8864-16.575 8.5136-2.1554 1.418-4.3186 2.5781-4.8071 2.5781-0.48849 0-1.3876 0.60182-1.9981 1.3374-0.61046 0.73555-4.3535 2.9504-8.3179 4.9219s-7.4189 3.7961-7.6767 4.0547c-0.25781 0.25864-1.7344 1.0866-3.2812 1.84-1.5469 0.75336-5.7656 3.2434-9.375 5.5335s-9.9375 6.214-14.062 8.7198c-10.21 6.2023-10.983 6.7022-12.449 8.0458-0.70313 0.64453-1.6778 1.1719-2.1659 1.1719s-12.252 8.0156-26.142 17.812c-23.156 16.333-31.155 21.47-23.931 15.37zm201.09-1.8824c0-0.50897 0.40229-1.3277 0.89399-1.8194 0.49169-0.49169 3.4382-5.955 6.5478-12.141 6.302-12.536 7.7915-12.446 1.9332 0.11675-2.0625 4.4228-3.75 8.3426-3.75 8.7106s-1.2656 1.8816-2.8125 3.3636-2.8125 2.2781-2.8125 1.7692zm-142.91-5.7009c-0.7428-1.9357 4.5946-12.742 12.647-25.607 6.6914-10.69 8.8521-11.987 2.7569-1.6551-9.7141 16.466-13.814 24.425-13.399 26.012 0.57441 2.1965-1.2143 3.3119-2.0053 1.2505zm139.16 0.2934c0-0.82492 2.3164-5.1238 10.921-20.268 3.0762-5.4141 6.6024-12.375 7.8358-15.469 2.7436-6.8817 4.1807-8.7216 3.2951-4.2188-1.5413 7.8366-22.052 44.999-22.052 39.955zm-220.73-12.662c2.1445-2.0013 29.484-7.326 29.484-5.7424 0 0.52172-0.88148 0.94858-1.9589 0.94858-1.0774 0-7.4359 1.2656-14.13 2.8125-13.137 3.0356-14.787 3.2797-13.396 1.9814zm249.8-1.3537c0-0.93824 2.2042-5.661 4.2308-9.0652 1.9412-3.2606 9.0026-19.789 12.14-28.416 2.9748-8.1796 2.6343-3.7639-0.43356 5.6228-4.3345 13.262-15.937 36.456-15.937 31.859zm-135.94-1.1988c0-2.1229 16.689-27.115 17.539-26.265 0.24083 0.24083-3.4424 6.272-8.185 13.403-9.5805 14.405-9.3541 14.093-9.3541 12.862zm13.125-0.0689c0-0.70735 12.27-23.224 15.489-28.422 1.1173-1.8047 2.7637-4.478 3.6588-5.9407 3.8851-6.3487 2.0762-1.0336-2.0645 6.0662-2.5159 4.3138-7.2164 12.589-10.446 18.39-5.452 9.7938-6.6373 11.563-6.6373 9.9068zm-137.81-0.9603c1.2891-0.22415 5.0391-1.2258 8.3334-2.2258 9.9037-3.0065 17.643-4.5833 24.763-5.0452l6.7469-0.43764-5.1562 0.9488c-7.3822 1.3584-16.276 3.3884-24.312 5.5491-3.8323 1.0305-8.262 1.8161-9.8438 1.7459-2.5305-0.11234-2.5944-0.17662-0.53215-0.5352zm255.26-2.2347c0.89604-1.2423 2.0097-3.1024 2.4748-4.1336 5.1229-11.358 14.301-29.678 14.679-29.3 1.4562 1.4562-14.817 34.37-17.423 35.239-1.059 0.35303-0.99954-0.0472 0.26837-1.805zm-139.66-1.0838c0.84891-2.3661 10.112-15.93 10.567-15.475 0.3631 0.36308-9.1478 15.328-10.513 16.542-0.35311 0.31393-0.37762-0.16617-0.0545-1.0669zm32.536-3.7738c-0.0227-1.3421 7.6016-15.881 8.0782-15.404 0.25957 0.25957-1.4491 3.9946-3.797 8.3001s-4.2745 7.5024-4.2812 7.1042zm-116.13-4.8758c1.2285-1.2284 30.581-6.1594 35.963-6.0413 3.2977 0.0723-1.1137 1.463-7.0312 2.2166-2.8359 0.36115-10.055 1.4692-16.042 2.4624-11.255 1.867-13.648 2.1199-12.89 1.3623zm223.12-4.9472c1.5231-1.6714 3.5929-6.6993 5.8855-14.297 11.158-36.978 16.371-48.806 27.682-62.812 3.9879-4.9384 1.6853 0.39504-3.647 8.4475-6.377 9.63-8.6277 14.324-10.35 21.585-0.66851 2.8178-1.5122 5.3343-1.875 5.5921-0.85578 0.60828-6.5728 15.507-6.5537 17.079 0.0796 6.584-9.183 26.983-12.252 26.983-0.75656 0-0.32436-1.0028 1.1111-2.5781zm-226.06-0.62134c0-1.979 39.859-8.2345 50.48-7.9223 4.9897 0.14667 3.7501 0.33845-17.199 2.661-5.6719 0.62881-15.328 2.1569-21.457 3.3958-12.279 2.4817-11.824 2.41-11.824 1.8655zm172.7-3.363c0.26373-0.77344 1.2078-3.9375 2.098-7.0312 2.32-8.063 7.5978-20.51 11.598-27.354 5.4045-9.2455 5.2042-6.9282-0.3183 3.6822-2.7508 5.2852-6.574 14.25-8.4959 19.922-1.9219 5.6719-3.9145 10.734-4.4281 11.25-0.62119 0.62371-0.7732 0.46681-0.4542-0.46875zm-15.192-1.7709c-0.0147-1.6932 13.648-28.189 17.799-34.519 4.7478-7.2388 4.5957-5.2032-0.23885 3.1961-2.315 4.022-6.1188 11.11-8.4528 15.75-5.7299 11.393-9.0941 17.145-9.1077 15.573zm-30.011-1.4136c0-1.0708 7.9345-13.109 12.182-18.482 2.0658-2.6134 3.7559-4.3525 3.7559-3.8647s-1.536 2.8985-3.4134 5.3572-5.4633 7.446-7.9688 11.083c-2.5054 3.637-4.5554 6.295-4.5554 5.9067zm123.14-2.2061c0.72443-1.418 2.7392-8.0625 4.4772-14.766 3.3829-13.047 5.0368-12.864 2.1608 0.23963-2.1867 9.963-4.939 17.104-6.5922 17.104-1.1812 0-1.1873-0.34387-0.0458-2.5781zm-102.52-8.9916c0-1.3027 9.535-15.618 10.403-15.618 1.3691 0 1.0684 0.62433-3.5013 7.2699-4.6851 6.8134-6.9015 9.4943-6.9015 8.3479zm40.085-5.4548c-0.47325-1.3513 11.711-26.492 13.321-27.487 0.53272-0.32924 0.96858-0.41538 0.96858-0.19142 0 1.6493-13.946 28.662-14.29 27.679zm38.277-4.3036c0.83155-1.9336 1.8324-4.5703 2.2241-5.8594 1.545-5.0845 19.618-38.859 20.384-38.093 0.23348 0.23348-1.0763 3.31-2.9105 6.8367-1.8343 3.5267-7.1538 14.111-11.821 23.522-7.7505 15.626-11.629 22.321-7.8763 13.594zm-214.3 0.82948c0-1.5168 14.904-4.0165 30.19-5.0634 8.062-0.55215 5.635 0.82889-2.7423 1.5604-7.1628 0.6255-22.582 2.9855-25.807 3.9498-0.90234 0.26983-1.6406 0.0687-1.6406-0.44689zm200.62-1.1788c0-1.3729 13.835-25.884 15.025-26.62 1.5706-0.97065 1.105 0.0063-6.6784 14.013-7.4229 13.358-8.3471 14.754-8.3471 12.607zm-200.56-3.5264c1.4726-0.94952 29.107-6.828 37.906-8.0634 9.8158-1.3782 3.0118 0.4604-15.166 4.0982-10.394 2.0801-20.093 4.0363-21.554 4.3472-1.9956 0.42476-2.2905 0.32985-1.1866-0.38196zm194.85-6.2669c1.7027-3.0583 3.7526-6.1933 4.5555-6.9668 0.8029-0.77344 0.48074 0.28125-0.71589 2.3438s-2.768 4.9018-3.492 6.3095c-0.72397 1.4077-1.7949 2.8553-2.3798 3.2168-0.58494 0.36151 0.32956-1.845 2.0322-4.9032zm-178.44-4.9855c-1.0788-1.7456 15.793-3.5383 44.934-4.7746 26.166-1.11 28.152-1.14 27.427-0.41454-0.29818 0.29818-12.805 1.1281-27.794 1.8443-23.722 1.1335-33.534 2.0117-41.997 3.7593-1.1286 0.23302-2.285 0.0465-2.5699-0.41448zm229.55-3.3875c1.2601-5.3587 14.08-29.428 15.12-28.388 0.37138 0.37139-14.063 29.614-15.082 30.555-0.38492 0.35535-0.40224-0.61953-0.0385-2.1664zm-6.6144-2.6562c0.9638-3.8401 12.506-22.774 13.361-21.918 0.22068 0.22067-1.3121 3.2214-3.4061 6.6682s-5.0845 8.7803-6.6455 11.852c-2.955 5.815-4.25 7.1445-3.3096 3.3978zm-197.69-12.586c1.1504-1.1672 20.156-2.1308 20.156-1.0219 0 0.43716-1.4129 0.79485-3.1398 0.79485s-6.473 0.2651-10.547 0.58912c-5.0055 0.39811-7.1031 0.28071-6.4696-0.36208zm2.6304-7.1281c2.5554-1.0062 35.614-0.95406 39.834 0.06283 1.7961 0.43286-6.3243 0.74502-19.401 0.7458-13.594 8.18e-4 -21.676-0.31904-20.433-0.80864zm49.401-4.5029c-2.8359-0.47976-10.43-1.4295-16.875-2.1104-7.2185-0.76269-9.9079-1.2857-7.0033-1.3619 4.7982-0.12588 23.718 1.9962 31.378 3.5195 6.0707 1.2072-0.32307 1.167-7.5-0.04715zm16.797-3.9523c-0.21485-0.19596-9.25-1.1026-20.078-2.0147s-20.109-2.0668-20.625-2.566c-1.4207-1.3754 37.398 2.1372 44.062 3.9872l2.8125 0.78069-2.8906 0.08455c-1.5898 0.0465-3.0664-0.07578-3.2812-0.27174zm-27.578-18.382c2.0625-0.43663 10.922-1.0157 19.688-1.2869 10.397-0.3216 13.656-0.22943 9.375 0.26515-9.8256 1.1351-33.536 1.9687-29.062 1.0217zm56.25-2.8242c-2.552-0.64938-2.5954-0.71983-0.46875-0.76069 1.2891-0.02477 3.1875 0.31754 4.2188 0.76069 2.3117 0.99335 0.15382 0.99335-3.75 0zm46.406-1.0234c-2.3203-1.0558-11.887-4.4593-21.26-7.5632-9.3727-3.1039-17.241-6.164-17.485-6.8002-0.24415-0.63624 7.4244 1.6506 17.041 5.0819 18.128 6.4681 26.391 9.8249 26.391 10.721 0 0.70629 0.0859 0.73265-4.6875-1.4394zm-62.344-1.0273c-11.078-1.1021-14.831-1.712-14.231-2.3123 0.58305-0.58306 19.353 1.3293 24.074 2.4528 4.2557 1.0126 1.3266 0.9708-9.8438-0.14051zm11.605-4.4791c-1.3517-0.40898-6.6251-1.063-11.719-1.4534-14.126-1.0827-14.784-1.1507-16.292-1.6837-0.77344-0.27336-2.0391-0.69972-2.8125-0.94746-1.9533-0.62567 11.073 0.21342 20.233 1.3033 6.8743 0.81791 17.843 3.4836 14.454 3.5128-0.77344 0.0067-2.5122-0.32251-3.8638-0.73149zm39.489-3.368c-6.4453-2.2571-14.988-4.8222-18.984-5.7002-3.9961-0.87802-7.2656-1.9545-7.2656-2.3921s0.94922-0.57994 2.1094-0.31624c1.1602 0.26371 4.1439 0.91321 6.6306 1.4433 4.4972 0.95876 27.014 8.8209 29.698 10.369 2.7518 1.588-0.6265 0.64432-12.188-3.4042zm75.703 3.6265c-0.90234-0.23581-1.6406-0.84458-1.6406-1.3528s0.45492-0.64293 1.0109-0.29929c0.55603 0.34364 2.1381 0.96509 3.5156 1.381 2.7292 0.82399 0.15505 1.0658-2.886 0.27112zm-101.02-2.7833c-0.77344-0.25796-1.994-0.65646-2.7123-0.88556-0.71833-0.2291-1.1034-0.61922-0.85565-0.86695 0.24773-0.24773 2.1011 0.15435 4.1186 0.89351 3.3129 1.2138 2.8198 1.9831-0.5506 0.859zm-9.375-2.1955-2.3438-0.7506 2.3438-0.0791c1.2891-0.0435 2.9766 0.32986 3.75 0.82969 1.7907 1.1572-0.1366 1.1572-3.75 0z"/>
</svg>
