<?xml version='1.0' encoding='utf-8'?>
<svg xmlns="http://www.w3.org/2000/svg" width="740.833mm" height="740.833mm" version="1.0" style="shape-rendering:geometricPrecision; text-rendering:geometricPrecision; image-rendering:optimizeQuality; fill-rule:evenodd; clip-rule:evenodd" viewBox="0 0 74083 74083"> <defs> <style type="text/css">  .fil0 {fill:#333333}  </style> </defs> <g id="Layer_x0020_1"> <metadata id="CorelCorpID_0Corel-Layer"/> <path class="fil0" d="M17289 67792c23,-24 66,-52 65,-77 -1,-25 -45,-50 -71,-74 -25,36 -51,73 -76,111 25,12 50,25 82,40zm-6172 -21052c19,-45 127,-75 189,-67 71,9 67,93 -15,165 -27,23 -51,45 -75,66 -202,179 -280,242 -99,-164zm-1093 558c-21,-32 -57,-62 -61,-95 -9,-92 43,-142 137,-141 106,1 164,63 115,140 -34,50 -125,64 -191,96zm32216 -21307c-23,-10 -64,-20 -65,-33 -3,-30 11,-88 22,-89 80,-8 94,39 43,122zm131 1062c43,-39 93,-116 126,-108 54,11 97,76 145,119 -28,25 -62,75 -84,70 -64,-15 -124,-52 -187,-81zm405 -2798c4,36 26,89 10,107 -206,227 -413,454 -634,666 -25,24 -156,-15 -198,-62 -139,-154 -143,-398 -24,-527 159,-174 345,-306 581,-357 90,-20 262,86 265,173zm1359 12973c23,11 65,23 65,32 -2,30 -19,59 -30,88 -21,-11 -59,-22 -59,-33 -1,-29 15,-58 24,-87zm-30437 -29557c-27,21 -53,43 -80,64 -21,-26 -60,-56 -57,-80 2,-26 48,-45 74,-66 21,26 42,54 63,82zm4029 1750c-23,-26 -46,-53 -69,-81 28,-21 57,-63 82,-60 26,2 47,48 70,76 -28,21 -55,42 -83,65zm740 318c23,28 47,54 70,82 -28,22 -57,65 -83,62 -26,-3 -47,-49 -71,-76 28,-22 56,-45 84,-68zm-7700 1552c-23,20 -57,63 -69,58 -91,-41 -88,-91 6,-122 12,-5 42,42 63,64zm4881 -3398c-31,66 -62,131 -93,197 -26,-29 -58,-53 -76,-86 -48,-90 -20,-158 80,-178 24,-4 59,43 89,67zm226 5175c101,-18 296,8 303,43 43,209 -116,222 -262,189 -317,-67 -489,-156 -41,-232zm-661 -90c-13,-30 -5,-80 14,-109 19,-32 62,-67 93,-66 551,33 165,773 -107,175zm6460 -6746c-131,38 -302,-112 -278,-241 5,-27 48,-61 79,-70 148,-39 291,82 270,229 -4,31 -47,55 -71,82zm-5141 908c30,-23 58,-60 91,-63 166,-24 245,74 221,276 -4,33 -36,85 -62,88 -104,17 -265,-184 -250,-301zm515 4614c-69,104 -171,134 -290,99 -34,-10 -73,-47 -85,-81 -35,-91 77,-255 182,-247 67,5 135,62 190,110 20,17 3,77 3,119zm2487 -763c-48,38 -102,114 -146,108 -123,-15 -210,-104 -199,-233 3,-43 96,-114 144,-111 131,9 185,112 201,236zm1180 -2415c-16,19 -32,57 -59,70 -23,10 -70,4 -88,-15 -77,-78 -150,-160 -217,-247 -14,-19 -3,-73 15,-98 17,-26 67,-56 87,-47 146,60 260,154 262,337zm-2411 -2346c-63,35 -132,108 -186,98 -102,-19 -202,-77 -286,-140 -14,-11 34,-155 85,-193 133,-101 275,-48 370,120 18,32 12,76 17,115zm-693 6847c-62,-72 -50,-212 -57,-322 -2,-22 57,-61 92,-67 33,-6 80,10 108,34 91,78 548,1166 -143,355zm-7097 -129c-9,-132 148,-259 312,-251 115,6 221,131 191,232 -36,121 -139,160 -250,173 -118,14 -246,-71 -253,-154zm12160 -7285c-59,39 -117,108 -179,113 -123,10 -222,-56 -286,-169 -61,-109 -14,-254 96,-279 213,-47 400,122 369,335zm-3268 4445c-23,-29 -56,-55 -66,-86 -54,-182 35,-302 186,-379 61,-30 139,-26 209,-38 8,71 46,159 17,209 -58,101 -149,183 -233,265 -25,22 -75,20 -113,29zm-1996 573c167,17 330,25 437,169 23,31 52,92 39,108 -43,54 -116,141 -156,131 -229,-59 -453,-141 -675,-223 -32,-11 -49,-62 -72,-95 65,-32 127,-83 196,-97 76,-15 160,4 231,7zm-2638 667c-192,-45 -294,-231 -245,-454 8,-34 45,-82 73,-86 67,-10 157,-21 203,13 134,102 167,262 137,419 -8,45 -110,73 -168,108zm7327 -4230c-4,37 0,78 -16,108 -200,381 -441,401 -721,61 -96,-117 -67,-224 75,-246 192,-28 385,-118 579,-7 33,19 56,57 83,84zm-8827 3444c-28,-25 -62,-47 -83,-77 -132,-189 -141,-370 -19,-539 101,-139 263,-224 404,-141 246,142 445,23 666,-34 46,-12 116,65 170,107 3,2 -39,62 -59,96 -218,371 -653,405 -970,623 -19,14 -72,-21 -109,-35zm9523 -2333c34,19 94,35 99,60 11,67 27,164 -10,203 -187,202 -385,397 -593,577 -41,35 -167,24 -219,-14 -126,-93 -237,-209 -346,-324 -94,-100 -68,-227 45,-289 282,-155 567,-298 905,-230 39,8 79,10 119,17zm-5716 47131c-28,62 -57,124 -85,186 -25,-26 -76,-59 -72,-77 15,-64 49,-123 76,-183 27,24 54,49 81,74zm5093 -136c-26,55 -53,111 -80,165 -20,-26 -49,-50 -59,-81 -10,-30 -11,-72 3,-99 13,-28 49,-46 75,-67 21,28 41,55 61,82zm-2266 -629c37,46 101,91 97,129 -5,51 -64,95 -100,143 -22,-29 -65,-60 -61,-85 9,-62 39,-120 64,-187zm-2111 48c-30,68 -44,156 -95,202 -65,62 -232,-88 -217,-212 8,-68 58,-144 112,-190 92,-80 198,27 200,200zm2917 -37514c-12,35 -12,88 -36,103 -63,41 -110,-4 -107,-111 1,-28 47,-53 73,-79 23,29 46,58 70,87zm2182 -197c-26,25 -53,49 -79,74 -29,-61 -64,-122 -82,-186 -4,-14 59,-70 78,-63 86,23 112,89 83,175zm11261 -1066c-31,7 -68,26 -92,16 -22,-9 -31,-50 -46,-77 29,-8 65,-28 86,-18 24,13 35,51 52,79zm-961 1476c-54,43 -108,121 -160,120 -197,-5 -347,-191 -325,-382 4,-33 30,-80 55,-89 66,-20 156,-53 204,-25 138,79 207,217 226,376zm-12233 1283c-55,-46 -136,-83 -160,-142 -26,-66 -28,-188 12,-221 152,-121 324,-218 491,-319 20,-13 67,0 88,16 27,23 61,64 58,95 -21,255 -143,449 -371,569 -30,16 -77,2 -118,2zm13820 -1330c-24,74 -33,158 -78,215 -43,53 -123,106 -187,106 -56,0 -152,-68 -159,-117 -35,-226 -17,-462 -156,-666 -7,-10 29,-71 52,-78 71,-15 156,-41 215,-16 255,108 340,274 313,556zm1289 -525c-44,161 -87,395 -174,611 -40,99 -159,177 -259,231 -53,30 -161,14 -213,-24 -54,-39 -100,-130 -98,-197 7,-375 222,-664 425,-952 36,-52 138,-60 212,-76 8,-3 40,64 49,102 19,76 30,154 58,305zm2606 26718l0 0c65,62 64,126 -14,174 -76,48 -156,27 -173,-58 -19,-96 44,-132 140,-102l40 -12 1 0 1 0 0 0 1 -1 1 0 0 0 1 0 0 0 1 0 0 0 0 -1 0 0 1 0 0 0 0 0zm-113 4186c-27,-32 -76,-66 -72,-86 16,-67 52,-129 80,-193 26,27 77,58 72,78 -14,66 -49,128 -80,201zm2218 -685c-4,3 -61,-41 -58,-52 154,-548 124,-1 58,52zm-2631 -1192c-11,35 -14,88 -37,100 -74,37 -114,-7 -92,-110 7,-32 47,-58 71,-85 20,31 39,64 58,95zm6128 -3037c-17,100 -68,141 -164,106 -23,-9 -41,-57 -44,-89 -55,-512 310,-606 208,-17zm719 -309c24,-59 67,-112 102,-167 24,53 63,104 69,159 12,101 -44,140 -131,98 -23,-13 -49,-69 -40,-90zm-2994 6359c38,8 91,5 111,29 48,56 122,137 109,189 -22,84 -128,106 -198,47 -53,-45 -81,-124 -107,-192 -4,-12 55,-48 85,-73zm1705 -7241c62,-95 109,-199 187,-269 38,-33 158,-21 201,17 34,29 28,138 1,194 -32,66 -99,142 -163,156 -58,13 -132,-54 -226,-98zm-8600 10310c-31,21 -74,52 -103,45 -100,-27 -136,-104 -79,-184 566,-799 464,-69 182,139zm1408 1024c11,-10 61,23 92,37 -55,96 -96,208 -174,280 -329,318 -99,-152 82,-317zm112 5535c-36,-12 -79,-14 -106,-36 -94,-78 -57,-232 65,-270 28,-8 74,-1 96,17 87,74 51,255 -55,289zm779 -9693c11,138 -120,314 -251,346 -23,5 -76,-21 -77,-37 -9,-108 -28,-223 0,-324 14,-52 115,-108 179,-111 49,-1 99,81 149,126zm3965 -1050c56,-44 139,-85 203,-77 57,8 136,81 145,135 10,58 -34,149 -83,190 -811,670 -615,32 -265,-248zm-8534 3635c-49,42 -155,51 -223,31 -63,-18 -137,-86 -157,-148 -22,-65 -14,-188 29,-219 769,-540 1058,-282 351,336zm9420 -10791c-52,248 -197,422 -432,516 -24,10 -72,-5 -91,-25 -24,-24 -49,-72 -41,-100 63,-247 196,-431 469,-463 28,-3 62,46 95,72zm-3232 12171c-45,297 -261,482 -449,685 -16,18 -81,13 -106,-6 -28,-20 -53,-69 -50,-103 19,-249 120,-467 301,-635 43,-39 144,-25 216,-18 32,3 59,49 88,77zm-2346 -3102c-4,37 8,91 -12,110 -142,130 -285,261 -438,377 -81,61 -158,23 -187,-77 -10,-35 -12,-79 -1,-113 87,-264 305,-338 548,-367 27,-4 59,45 90,70zm-1959 -329c-28,-26 -81,-54 -80,-79 16,-341 236,-546 499,-717 13,-9 64,20 83,43 20,26 38,69 31,99 -49,229 -135,442 -326,590 -53,41 -137,44 -207,64zm6212 -3935c-31,96 -53,212 -105,315 -84,166 -323,257 -357,155 -32,-100 -36,-227 0,-323 40,-104 129,-197 217,-269 39,-31 132,-7 196,8 21,5 28,63 49,114zm2456 -1384c-35,354 -113,653 -323,904 -25,29 -61,50 -92,74 -35,-53 -110,-121 -97,-158 92,-260 199,-513 307,-767 12,-26 68,-33 98,-55 82,-62 114,-51 107,2zm-10204 9314c-87,241 -273,389 -493,491 -49,21 -165,-11 -199,-58 -157,-213 -40,-493 211,-529 119,-17 238,-41 357,-40 104,1 145,60 124,136zm3908 967c-150,20 -339,-134 -339,-275 2,-250 339,-557 568,-510 30,5 63,36 79,64 202,354 66,670 -308,721zm2013 -5669c-7,39 -5,82 -21,116 -102,210 -351,161 -501,283 -122,99 -229,217 -355,311 -63,46 -141,1 -177,-93 -13,-34 -6,-84 10,-118 169,-353 486,-511 842,-600 55,-13 134,65 202,101zm961 3502c-27,-127 54,-219 158,-280 198,-115 411,-93 526,61 41,55 71,150 52,210 -33,108 -96,211 -168,301 -554,692 -294,966 -568,-292zm835 -2601c-154,128 -340,153 -416,45 -76,-108 -66,-214 4,-325 1251,-2006 726,19 412,280zm1919 -1457c42,-213 99,-435 269,-616 74,-79 220,-66 293,48 139,212 137,385 -14,521 -115,105 -234,206 -359,298 -57,43 -132,61 -199,90 -7,-71 -18,-140 -19,-211 0,-38 16,-76 29,-130zm-2968 3218c-33,-65 -106,-140 -92,-193 120,-462 451,-702 899,-794 34,-8 136,101 129,141 -88,462 -350,766 -826,858 -35,8 -73,-7 -110,-12zm-41 2563c-138,223 -373,292 -625,265 -48,-5 -131,-117 -120,-157 118,-443 -65,-663 356,-874 796,-404 494,595 389,766zm4677 -8146c-264,294 -234,732 -442,1071 -57,94 -160,170 -259,220 -42,23 -166,-20 -187,-64 -148,-312 -105,-626 77,-905 128,-197 303,-364 464,-538 91,-98 271,-109 302,-26 25,67 28,142 45,242zm-6029 10714c-28,-66 -91,-141 -83,-205 41,-322 100,-636 -93,-937 -76,-118 5,-228 87,-318 139,-153 310,-250 512,-298 97,-24 250,102 240,204 -7,78 6,164 -19,237 -143,421 -293,837 -445,1252 -11,29 -53,52 -85,62 -35,11 -75,3 -114,3zm2937 -4714c-62,-46 -157,-82 -178,-142 -38,-108 -74,-249 -35,-345 162,-397 347,-785 537,-1169 29,-59 128,-103 200,-110 69,-8 166,21 209,72 38,43 50,157 19,203 -91,127 -192,259 -319,344 -296,201 -327,400 -98,683 101,125 27,295 -124,405 -55,40 -140,40 -211,59zm-1025 -3398c4,-111 27,-19 -4,44 -123,249 -267,489 -399,733 -80,149 -60,294 -12,457 30,97 11,260 -54,328 -272,286 -503,622 -872,800 -60,29 -151,2 -226,-11 -88,-16 -105,-220 -30,-307 26,-30 45,-67 72,-96 54,-58 102,-132 169,-166 563,-290 742,-788 789,-1377 19,-235 106,-464 182,-690 19,-56 108,-104 175,-122 104,-31 220,97 210,407zm269 6934c-107,-54 -223,-30 -315,53 -117,106 -226,224 -327,346 -113,136 -71,267 142,342 114,40 265,97 205,199 -240,413 -513,805 -784,1199 -65,97 -156,184 -254,246 -55,35 -150,18 -225,6 -26,-3 -49,-56 -65,-90 -90,-196 -98,-431 6,-581 371,-536 437,-1191 735,-1751 135,-254 290,-476 519,-650 134,-102 287,-97 417,48 106,118 210,242 290,378 31,53 19,164 -19,216 -37,51 -129,68 -201,83 -33,8 -74,-25 -124,-44zm-11589 -23836c-65,-48 0,0 0,0zm-2561 -9961c12,11 -19,92 -25,91 -447,-43 -30,-146 25,-91zm2378 9850c-18,-1 -46,-59 -50,-93 -4,-34 5,-91 28,-103 76,-43 141,-13 176,75 52,129 72,121 -154,121zm1753 13932c-27,5 -68,24 -76,13 -20,-22 -34,-60 -30,-89 4,-29 34,-56 52,-82 22,19 55,35 62,59 9,30 -5,66 -8,99zm-4197 -4568c-7,-34 -23,-71 -17,-103 3,-14 53,-17 81,-26 10,36 21,72 32,108 -32,7 -64,14 -96,21zm2834 -3438c8,22 16,43 23,65 -30,8 -76,34 -87,22 -58,-57 -33,-89 64,-87zm-1226 -1392c-17,60 -32,120 -55,178 -3,7 -66,3 -68,-5 -16,-59 -33,-122 -32,-183 1,-21 53,-59 80,-57 26,2 50,43 75,67zm-822 -705c11,32 36,67 30,95 -24,103 -75,114 -121,27 -13,-24 2,-70 19,-98 10,-16 47,-16 72,-24zm-3430 -22c-15,-25 -45,-52 -42,-76 11,-95 53,-118 99,-59 17,22 23,66 14,93 -7,20 -46,29 -71,42zm4668 -1149c-22,6 -58,26 -65,19 -20,-20 -43,-56 -39,-81 15,-89 63,-103 116,-30 13,19 -7,60 -12,92zm-4708 -449c45,36 87,70 130,104 -40,50 -79,99 -119,147 -26,-25 -75,-53 -73,-73 8,-60 38,-115 62,-178zm5353 -3373c30,0 73,-13 86,1 64,73 46,136 -47,161 -18,6 -65,-39 -72,-66 -6,-29 21,-66 33,-96zm-2167 9166c-23,29 -39,72 -69,86 -60,26 -159,72 -183,49 -45,-43 -75,-136 -60,-197 12,-52 92,-92 150,-123 25,-14 70,7 106,16 106,26 125,84 56,169zm2542 9646c-85,-162 -173,-322 -253,-486 -10,-21 13,-79 37,-95 85,-56 144,-37 177,41 72,174 -116,368 42,535l-2 4 2 -4c-62,150 -117,-82 -97,77 31,245 111,464 291,633 92,87 215,86 330,25 102,-53 115,-176 22,-311 -44,-66 -119,-111 -157,-179 -36,-63 -68,-149 -55,-216 20,-102 95,-104 187,-71 158,56 312,39 452,-73 92,-76 190,-151 298,-199 61,-27 172,-28 218,11 152,127 290,274 420,424 61,69 115,101 209,77 73,-18 130,-183 91,-305 -49,-153 -88,-311 -158,-453 -216,-437 -153,-866 44,-1279 121,-251 294,-477 444,-714 139,-218 191,-467 53,-684 -448,-703 -205,-1582 -607,-2295 -35,-62 -7,-159 -11,-239 -31,-526 -5,-1045 195,-1542 125,-314 139,-637 -16,-936 -179,-347 -170,-694 -79,-1054 48,-195 58,-410 149,-583 389,-743 98,-1394 -238,-2044 -19,-35 -44,-68 -69,-100 -332,-426 -438,-941 -570,-1446 -79,-300 44,-553 187,-797 123,-211 351,-283 625,-212 419,108 451,117 554,-263 89,-330 348,-534 484,-819 24,-49 -33,-146 -69,-212 -44,-79 -118,-77 -209,-39 -244,102 -300,367 -474,528 -52,47 -158,97 -208,75 -100,-46 -205,-125 -258,-218 -55,-100 -70,-231 -73,-348 -8,-280 2,-562 4,-842 0,-121 3,-241 -1,-361 -4,-112 -176,-320 -285,-357 -135,-45 -223,35 -318,109 -91,71 -183,145 -284,199 -85,47 -178,9 -197,-85 -172,-870 -295,-750 196,-536 125,54 242,30 322,-69 73,-93 105,-217 178,-311 161,-204 503,-157 584,75 26,74 36,155 55,232 27,116 51,232 86,344 9,31 64,77 76,71 69,-33 171,-66 190,-124 138,-420 -18,-904 -360,-1167 -125,-97 -298,-168 -368,-294 -275,-500 -462,-1027 -287,-1613 30,-101 157,-194 268,-161 496,142 546,309 406,-178 -55,-189 -155,-367 -207,-558 -31,-111 -19,-238 0,-354 12,-69 61,-154 119,-186 57,-33 168,-36 218,-1 393,280 1076,969 575,62 -116,-212 -257,-410 -401,-605 -96,-127 -226,-231 -322,-358 -434,-582 -636,-1206 -343,-1921 279,-685 208,-1325 -216,-1944 -182,-266 -386,-1269 -662,-865 -111,163 -159,412 -307,499 -361,210 -382,469 -260,815 52,148 70,314 73,472 3,195 -55,425 -193,106 -63,-148 -117,-298 -179,-446 -53,-123 -153,-184 -285,-161 -134,24 -188,127 -213,252 -16,80 -38,157 -61,234 -29,99 -94,145 -170,103 -66,-34 -152,-84 -170,-145 -86,-290 -51,-601 183,-780 385,-291 546,-679 630,-1120 12,-65 -29,-168 -81,-205 -35,-26 -169,10 -193,55 -115,209 -201,436 -312,649 -132,254 -438,279 -581,50 -85,-137 -141,-291 -218,-432 -82,-148 -279,-125 -379,39 -87,143 -147,297 -62,453 76,140 186,260 272,395 108,171 56,351 -146,518 -103,85 -606,-364 -613,-376 -431,-761 -44,-692 379,-2168 17,-58 -33,-172 -85,-204 -56,-34 -164,-25 -229,5 -267,129 -386,401 -567,614 -76,89 -173,245 -247,237 -295,-29 -538,139 -813,164 -88,9 -225,-188 -175,-270 104,-167 235,-318 332,-490 27,-48 -8,-160 -52,-209 -46,-53 -144,-102 -208,-91 -112,21 -247,63 -315,145 -284,340 -558,688 -811,1049 -218,311 -292,677 -170,1040 213,629 242,1258 112,1906 -62,314 -83,636 -114,956 -11,123 32,234 148,306 136,83 279,162 399,265 41,35 52,162 20,208 -32,47 -138,74 -204,62 -414,-68 -449,-49 -479,272 -37,400 -97,797 -20,1203 185,959 193,1923 -3,2882 -137,668 -36,1367 -283,2019 -24,64 22,156 44,233 33,115 64,219 -51,315 -124,105 -239,230 -226,405 33,451 -77,884 -173,1314 -81,356 -141,709 -150,1074 -10,357 -74,718 187,1028 34,42 15,173 -27,226 -287,371 -96,780 -104,1172 -4,177 76,297 214,402 482,364 965,725 1191,1330 52,136 209,236 324,345 349,333 762,620 1040,1005 537,747 1196,1417 1554,2289 41,100 168,163 250,247 54,56 139,116 143,179 19,359 128,712 20,1077 -160,539 -307,1083 -446,1626 -144,561 -391,1046 -841,1435 -303,260 -569,568 -822,877 -182,223 -280,487 -158,789 235,578 832,873 1097,1432 64,134 205,261 342,327 424,201 673,555 914,929 23,36 137,24 207,15 27,-4 54,-56 71,-90 104,-204 65,-400 -85,-554 -243,-252 -266,-476 24,-704 170,-135 217,-331 239,-536 47,-449 241,-846 433,-1247 117,-242 331,-170 505,-232zm584 -12619c0,-34 18,-68 28,-102 21,10 56,17 60,33 35,128 -87,249 -88,69zm-3232 -13319c-9,141 -114,250 -165,179 -38,-53 -67,-134 -56,-194 12,-61 78,-110 121,-164 33,59 67,120 100,179zm-851 -61c-29,-26 -78,-48 -85,-79 -30,-123 -10,-239 92,-323 3,-3 74,48 78,78 9,77 5,158 -9,233 -6,34 -50,61 -76,91zm729 5245c-23,-62 -53,-123 -66,-187 -6,-28 19,-71 43,-92 66,-60 131,81 91,214 -7,27 -44,43 -68,65zm-2149 7740c-26,93 -93,183 -155,270 -18,25 -66,30 -101,46 -25,-69 -77,-139 -71,-205 11,-126 104,-198 231,-203 27,-1 104,61 96,92zm1775 -11570c-14,130 -119,209 -223,154 -57,-31 -117,-84 -139,-142 -39,-97 56,-203 188,-229 108,-22 188,78 174,217zm575 5316c27,3 79,3 80,9 16,112 31,226 32,339 0,24 -75,75 -86,67 -118,-78 -111,-197 -84,-315 8,-37 38,-67 58,-100zm-1124 -1276c-17,128 -30,230 -44,334 -25,-13 -72,-26 -72,-40 -5,-74 -2,-150 10,-223 3,-20 48,-34 106,-71zm2231 -959c33,114 -24,183 -178,226 -117,32 -215,-44 -228,-170 -14,-134 59,-206 175,-240 109,-33 187,32 231,184zm1244 11472c-38,66 -93,159 -148,253 -38,-104 -92,-204 -109,-311 -10,-68 28,-148 56,-217 13,-33 53,-55 80,-82 24,30 59,57 70,91 21,73 30,149 51,266zm-5398 -1359c37,173 -139,408 -306,403 -29,-2 -64,-37 -83,-66 -68,-103 -72,-225 20,-299 75,-62 189,-80 288,-105 20,-5 54,43 81,67zm2515 -11565c11,-73 17,-149 35,-221 39,-161 211,3 223,43 31,102 35,220 15,324 -27,138 -178,139 -265,-35 -15,-30 -6,-73 -8,-111zm2757 10484c-47,63 -90,128 -144,185 -25,25 -77,48 -107,39 -30,-9 -61,-54 -71,-89 -37,-130 16,-232 125,-302 32,-20 81,-33 114,-23 98,28 124,98 83,190zm13 -7781c-55,28 -90,60 -123,58 -129,-6 -230,-91 -242,-206 -10,-99 54,-208 86,-313 52,52 120,95 154,156 54,95 85,204 125,305zm-353 5758c112,-4 194,87 212,237 18,148 -60,270 -175,244 -105,-24 -232,-74 -288,-154 -68,-97 120,-322 251,-327zm-1183 -8597c58,-120 239,-197 276,-125 33,64 55,147 46,217 -37,270 -660,608 -322,-92zm-2498 6746c-16,150 -20,305 -161,417 -96,79 -267,76 -288,-24 -32,-150 -57,-302 -70,-455 -11,-145 95,-203 215,-221 158,-25 299,111 304,283zm3985 14534c1,90 -170,213 -259,167 -99,-51 -194,-127 -261,-214 -76,-98 -44,-328 22,-328 68,2 145,15 202,49 98,61 188,138 274,216 22,20 15,73 22,110zm1286 -2637c-21,-24 -61,-47 -63,-73 -21,-262 126,-552 336,-663 26,-14 75,5 108,19 84,37 125,116 75,193 -105,162 -228,313 -348,463 -23,29 -67,39 -108,61zm-2757 -11472c-28,212 -51,410 -84,607 -4,28 -56,54 -91,66 -22,6 -71,-12 -77,-30 -107,-309 -109,-627 -44,-942 11,-52 112,-90 178,-121 12,-5 72,49 78,82 21,115 29,232 40,338zm2122 1910c-133,-200 -127,-407 11,-546 129,-130 384,-170 553,-82 24,13 52,57 47,80 -9,46 -466,774 -611,548zm1865 10869c-28,43 -75,148 -153,220 -38,35 -135,16 -202,5 -28,-4 -70,-56 -69,-85 9,-190 23,-382 44,-572 11,-103 65,-141 134,-108 33,15 65,39 91,66 111,113 180,246 155,474zm-3617 -17345c128,42 225,178 190,268 -88,226 -209,429 -416,568 -32,20 -87,38 -115,24 -27,-14 -42,-68 -47,-107 -35,-253 60,-475 187,-681 30,-46 133,-49 201,-72zm-2066 2870c-32,-15 -77,-23 -95,-48 -145,-206 -149,-420 -20,-635 17,-27 58,-45 91,-59 85,-38 141,-5 183,83 86,182 105,369 12,549 -27,52 -113,75 -171,110zm2840 9622c26,515 -38,922 -205,1265 -14,29 -74,56 -105,50 -30,-8 -63,-53 -75,-90 -89,-255 138,-445 144,-685 4,-192 -85,-399 73,-572 26,-28 71,-67 97,-60 29,6 48,59 71,92zm-3469 -1484c-6,19 -68,39 -93,30 -34,-12 -67,-50 -82,-84 -15,-35 -6,-80 -10,-119 -46,-498 840,-1823 185,173zm5662 -6413c-22,153 -42,271 -57,389 -13,103 -68,143 -170,118 -37,-10 -82,-16 -107,-40 -293,-280 -326,-679 -83,-955 57,-64 294,-24 315,56 39,153 73,308 102,432zm-6001 -8766c7,-157 11,-312 24,-467 2,-24 50,-67 60,-63 71,31 160,56 201,114 175,249 134,524 40,788 -18,53 -126,102 -194,103 -49,2 -137,-73 -145,-123 -17,-115 4,-235 9,-354 2,2 3,2 5,2zm3340 8540c53,-132 112,-322 200,-497 106,-211 350,-206 473,0 69,116 57,235 -34,328 -137,139 -355,188 -432,399 -37,104 -115,127 -146,63 -32,-70 -34,-153 -61,-293zm1977 -7691c-64,-37 -167,-61 -186,-114 -51,-145 -78,-301 -91,-455 -12,-134 80,-219 204,-249 189,-47 434,110 454,280 25,215 -157,472 -381,538zm-2576 -1122c53,422 -99,765 -404,1047 -27,26 -78,53 -106,43 -27,-9 -44,-61 -58,-98 -13,-35 -27,-76 -23,-112 38,-356 184,-669 405,-946 19,-24 80,-31 113,-20 30,12 49,57 73,86zm1648 3098c46,-198 80,-391 139,-575 20,-64 103,-108 161,-153 5,-4 62,36 69,63 80,302 159,603 230,907 33,139 -69,284 -232,370 -76,40 -163,34 -197,-53 -69,-179 -114,-368 -170,-559zm356 2093c52,-368 154,-710 495,-922 33,-20 97,-47 111,-34 50,49 125,120 118,170 -48,318 -113,634 -179,948 -35,165 -223,283 -359,236 -125,-44 -210,-231 -186,-398zm1298 -5771c-23,131 -40,249 -65,366 -22,106 -80,137 -161,98 -35,-16 -82,-24 -103,-52 -49,-62 -110,-128 -122,-200 -53,-315 -97,-630 -126,-948 -6,-64 84,-199 97,-196 102,32 221,68 287,144 75,86 116,210 141,325 33,153 37,315 52,463zm-3387 8220c-41,-66 -56,-149 -71,-226 -152,-779 870,-2614 726,-918 -9,106 -60,254 -140,299 -595,335 -160,1403 -515,845zm-3094 -1309c75,-250 133,-478 218,-697 19,-48 133,-85 201,-82 63,4 163,60 176,110 100,395 27,775 -150,1135 -26,54 -120,112 -176,107 -59,-6 -140,-76 -161,-136 -53,-144 -76,-299 -108,-437zm358 -2157c-6,84 -19,282 -38,479 -2,25 -50,70 -58,67 -69,-35 -170,-61 -193,-118 -197,-489 -276,-993 -93,-1508 9,-28 57,-65 76,-60 69,19 168,37 193,88 150,295 126,618 113,1052zm2886 12821c4,-29 -28,205 -68,435 -5,31 -55,76 -79,74 -73,-9 -174,-15 -208,-63 -65,-93 -112,-209 -130,-321 -74,-472 225,-826 404,-1219 11,-25 65,-43 99,-42 21,0 62,57 57,65 -169,258 -43,537 -75,1071zm2634 -14412c7,-79 13,-159 22,-237 40,-329 199,-584 346,-557 258,50 503,469 422,758 -64,228 -161,448 -249,668 -41,104 -215,113 -284,9 -86,-130 -166,-265 -229,-406 -31,-68 -20,-157 -28,-235zm-411 20687c-45,-312 12,-619 155,-914 96,-197 249,-310 462,-322 65,-4 139,47 199,87 17,11 11,81 -5,113 -48,108 -95,219 -165,312 -70,95 -168,169 -252,254 -155,154 -194,349 -151,550 41,192 229,178 374,227 38,13 48,128 56,197 3,21 -44,68 -70,69 -116,5 -234,-2 -351,-5 -131,-2 -223,-55 -234,-197 -10,-118 -12,-238 -18,-371zm983 -8972c67,18 167,94 168,146 5,437 -8,875 -21,1313 -1,24 -51,66 -74,63 -74,-10 -189,-15 -210,-60 -180,-384 -706,-1697 137,-1462zm-2168 5948c-42,-62 -158,-155 -160,-250 -13,-492 91,-954 430,-1338 115,-130 328,-192 416,-80 69,85 154,228 127,310 -139,416 -312,820 -475,1228 -39,98 -204,176 -338,130zm499 -18740c-233,513 -456,1024 -529,1591 -20,157 44,-22 -101,45 -33,15 -156,-64 -159,-105 -15,-198 -61,-424 12,-594 155,-366 515,-2392 773,-1965 199,344 171,659 4,1028zm934 16693c37,-360 100,-717 281,-1035 51,-88 175,-144 276,-195 99,-51 147,40 126,251 -8,77 -48,154 -41,227 7,77 52,149 81,223 43,110 134,226 121,327 -36,270 -116,534 -185,799 -6,20 -67,41 -98,38 -388,-57 -597,-296 -561,-635zm-885 -2134c10,-213 117,-372 262,-513 121,-120 315,-143 418,-35 108,113 217,230 300,360 153,240 139,410 -101,611 -165,139 -269,274 -265,489 1,79 -6,168 -45,230 -35,57 -114,94 -181,121 -88,36 -153,-7 -172,-107 -59,-309 -115,-620 -172,-929 -14,-77 -30,-152 -44,-227zm18206 -22232c-28,-10 -59,-33 -84,-27 -108,22 -116,70 -20,122 22,11 67,1 88,-15 16,-13 11,-53 16,-80zm-3839 11458c-21,-28 -38,-72 -63,-78 -28,-5 -89,20 -92,40 -16,100 27,152 105,130 23,-6 33,-59 50,-92zm-6341 -10935c-26,59 -57,116 -71,176 -4,17 69,67 73,63 43,-37 103,-80 109,-127 4,-33 -71,-74 -111,-112zm-28070 30284c-26,-28 -58,-84 -78,-79 -69,14 -133,50 -199,77 27,27 50,63 83,77 86,37 152,7 194,-75zm23792 -14767c-28,-29 -64,-86 -81,-81 -92,32 -121,104 -80,192 16,34 51,59 77,88 28,-68 57,-135 84,-199zm-11695 -21384c-28,-26 -59,-76 -81,-72 -66,10 -129,43 -193,67 41,39 84,114 121,110 52,-4 100,-66 153,-105zm-8996 2327c11,-34 23,-68 35,-102 -67,-18 -135,-52 -201,-48 -89,5 -126,74 -97,160 11,30 54,81 69,76 67,-19 130,-56 194,-86zm13561 -9531c83,30 193,112 267,86 109,-37 115,-169 80,-284 -29,-95 -84,-122 -168,-86 -110,48 -179,125 -179,284zm-7221 8446c-129,-25 -236,24 -298,127 -36,61 -56,166 -27,219 28,50 133,88 199,82 124,-10 224,-96 228,-224 2,-68 -66,-137 -102,-204zm22833 57609c73,-21 159,-23 214,-66 52,-40 98,-121 99,-187 3,-117 -134,-213 -233,-174 -71,29 -146,67 -193,124 -43,50 -84,144 -65,193 21,52 115,74 178,110zm-3373 -44044c22,-118 -52,-225 -175,-245 -143,-21 -201,75 -245,185 -45,112 32,206 176,230 123,22 221,-47 244,-170zm-5469 16169c-20,-71 -22,-154 -63,-211 -40,-54 -117,-83 -178,-124 -33,67 -83,131 -93,201 -11,69 -4,159 34,214 32,50 128,96 177,82 52,-16 83,-104 123,-162zm8647 14563c-13,-33 -18,-87 -40,-95 -59,-21 -125,-30 -187,-26 -29,2 -65,40 -80,72 -31,62 -70,131 -67,195 3,89 180,113 272,29 48,-42 69,-116 102,-175zm-14635 3345c-34,-54 -67,-150 -102,-151 -60,-1 -146,44 -175,94 -22,41 7,151 47,176 101,67 210,0 230,-119zm12831 -45314c-86,40 -185,56 -211,106 -65,125 43,310 190,355 32,8 89,0 110,-24 43,-48 111,-128 95,-164 -41,-100 -121,-185 -184,-273zm-13293 38886c-11,-35 -12,-81 -35,-104 -156,-165 -306,-175 -521,-27 -82,56 -90,141 -24,202 176,163 335,172 525,33 29,-20 37,-68 55,-104zm1092 -48553c-48,49 -133,94 -139,149 -19,197 225,458 422,453 38,-2 94,-99 104,-158 27,-164 -57,-297 -179,-394 -50,-39 -137,-34 -208,-50zm21409 11280c1,-166 -58,-263 -151,-239 -121,32 -192,115 -209,237 -18,120 72,234 181,236 111,3 178,-85 179,-234zm-2787 15902c-160,-53 -274,33 -298,250 -8,68 30,166 82,206 32,23 144,-18 192,-61 54,-48 83,-130 113,-201 39,-92 4,-159 -89,-194zm1082 -15174c-56,-39 -114,-114 -168,-111 -207,14 -364,135 -466,308 -28,48 12,142 35,210 6,19 74,41 93,28 161,-103 319,-211 472,-325 25,-18 23,-72 34,-110zm-33279 27516c151,22 327,-88 352,-222 35,-190 -82,-383 -272,-445 -128,-43 -302,77 -336,231 -48,222 60,407 256,436zm30679 -21989c0,-37 16,-87 -2,-115 -110,-164 -223,-327 -343,-483 -54,-72 -267,-9 -299,82 -111,319 131,660 476,652 55,-1 109,-86 168,-136zm1604 20065c-18,34 -57,73 -50,99 58,190 119,381 192,566 44,111 191,109 297,6 182,-176 173,-371 -28,-495 -102,-64 -209,-120 -317,-175 -26,-12 -63,-1 -94,-1zm-17659 -38509c-27,-30 -49,-78 -80,-84 -65,-14 -176,-31 -194,-2 -107,176 -254,299 -422,412 -53,36 -77,125 -99,195 -21,65 172,164 282,151 352,-46 556,-313 513,-672zm-2586 53909c0,39 -11,81 2,115 35,100 59,257 126,280 84,28 219,-34 307,-93 231,-156 250,-338 70,-585 -40,-55 -135,-122 -182,-108 -99,29 -197,96 -267,173 -45,49 -40,144 -56,218zm489 12091c-31,-59 -71,-170 -139,-262 -98,-135 -303,-183 -418,-117 -118,68 -185,261 -142,422 43,164 146,277 309,327 187,60 407,-120 390,-370zm16371 -16778c111,-34 243,-222 240,-377 -1,-69 -33,-166 -85,-200 -127,-86 -272,-148 -414,-210 -30,-14 -95,-5 -112,18 -44,58 -115,145 -97,192 70,176 159,349 264,509 30,47 134,47 204,68zm1804 -2614c92,49 160,29 220,-46 208,-262 241,-580 271,-894 4,-46 -80,-107 -135,-147 -23,-16 -86,-5 -113,17 -259,208 -423,467 -427,810 -2,135 75,213 184,260zm-28118 -5700c33,107 54,222 102,323 57,121 179,136 293,108 251,-60 393,-330 268,-532 -78,-126 -202,-227 -317,-324 -86,-72 -261,-13 -280,80 -22,113 -43,225 -66,345zm8836 -43102c-245,194 -492,387 -734,587 -23,18 -30,80 -18,113 91,259 180,519 291,769 19,44 144,74 205,56 56,-16 138,-116 128,-160 -100,-419 10,-791 220,-1147 16,-27 4,-78 -8,-113 -9,-27 -37,-48 -84,-105zm1402 66539c6,-352 -195,-594 -442,-805 -50,-42 -165,-63 -216,-34 -95,54 -214,140 -237,233 -85,346 142,786 480,1001 130,82 339,-6 372,-162 16,-77 29,-155 43,-233zm6338 -29232c-43,-584 -161,-1166 -392,-1718 -29,-70 -196,-94 -304,-109 -22,-2 -89,130 -91,201 -14,489 196,932 315,1394 29,111 104,218 183,304 39,42 138,38 209,37 24,-1 46,-61 80,-109zm-11185 -29145c413,36 712,-51 859,-390 59,-137 99,-338 40,-456 -87,-171 -273,-72 -410,-1 -93,48 -154,43 -199,-44 -36,-70 -62,-150 -114,-206 -48,-53 -125,-111 -188,-111 -61,1 -158,63 -175,119 -80,261 -147,528 -196,797 -10,56 61,153 120,189 97,60 215,85 263,103zm11283 25395c-7,-35 -3,-97 -22,-105 -282,-112 -399,-333 -496,-612 -114,-330 -303,-636 -474,-944 -22,-39 -144,-58 -196,-35 -62,28 -131,107 -140,172 -15,111 -11,238 28,342 71,190 110,362 51,571 -85,304 -63,304 187,413 284,124 557,275 843,396 45,19 135,-50 194,-92 22,-15 18,-69 25,-106zm-10261 31532c-24,-72 -33,-156 -76,-217 -180,-255 -440,-333 -737,-300 -379,43 -588,506 -374,827 44,66 95,132 155,181 267,218 318,260 636,71 214,-128 384,-288 396,-562zm23211 -36515c-100,12 -211,163 -203,259 22,251 146,448 322,619 390,380 906,485 1400,635 30,9 81,-14 108,-38 86,-77 194,-149 237,-247 42,-97 59,-259 -107,-283 -272,-40 -395,-251 -542,-434 -215,-270 -544,-15 -772,-178 -94,-67 -144,-192 -232,-269 -51,-44 -139,-44 -211,-64zm-18698 26907c26,-160 11,-346 -121,-437 -543,-373 -794,-884 -804,-1532 -5,-359 -200,-634 -500,-767 -331,-145 -588,-409 -939,-517 -275,-85 -268,-110 -185,-395 23,-76 83,-163 62,-222 -38,-106 -111,-210 -195,-287 -46,-40 -163,-55 -216,-26 -466,260 -523,916 -106,1202 165,114 358,188 517,308 225,171 415,379 485,665 8,34 -9,86 -34,113 -18,20 -70,24 -100,12 -74,-26 -141,-72 -215,-97 -72,-25 -198,-69 -217,-44 -62,87 -125,203 -118,303 7,107 66,269 147,304 323,141 581,438 985,397 134,-12 173,123 80,241 -49,64 -115,114 -169,173 -26,28 -58,65 -61,99 -6,74 -16,163 17,223 32,58 119,131 176,126 195,-19 403,-131 577,-89 176,43 315,232 477,347 64,45 146,62 218,96 98,45 231,-58 239,-196zm8909 -36118c-8,118 40,277 118,328 77,52 250,41 337,-13 615,-383 1214,-792 1828,-1178 690,-433 1440,-739 2239,-882 670,-120 1317,-386 2015,-349 47,2 110,-97 148,-161 61,-99 19,-142 -98,-157 -562,-74 -1122,-158 -1657,125 -495,6 -927,196 -1368,408 -318,153 -693,192 -1045,269 -73,17 -166,2 -233,-33 -252,-127 -452,-87 -647,122 -212,228 -408,482 -712,608 -77,31 -113,10 -86,-86 32,-112 95,-216 128,-328 20,-71 37,-169 3,-220 -29,-43 -140,-58 -204,-43 -342,80 -579,278 -637,641 -51,318 -108,638 -129,949zm548 11417c-39,8 -81,11 -117,29 -30,14 -71,39 -76,67 -78,401 -48,797 54,1192 150,583 284,1169 396,1762 187,985 488,1944 636,2942 75,505 351,978 395,1504 7,91 224,152 303,88 123,-100 260,-191 356,-313 223,-286 376,-645 646,-869 479,-395 783,-908 1120,-1403 246,-361 247,-465 -61,-709 -450,-357 -809,-772 -1075,-1285 -127,-243 -323,-461 -522,-656 -694,-676 -1348,-1383 -1869,-2204 -40,-62 -123,-97 -186,-145zm5441 3910c435,0 641,-31 830,12 148,32 267,181 415,236 178,65 408,35 554,136 275,187 569,310 881,382 858,200 1534,701 2139,1296 579,571 1230,1045 1900,1487 463,305 935,638 1538,658 149,5 312,94 439,185 592,422 1297,377 1964,487 44,7 112,-98 161,-156 63,-77 50,-151 -24,-218 -59,-53 -107,-127 -175,-160 -615,-298 -1237,-582 -1851,-882 -760,-372 -1509,-762 -2156,-1321 -182,-158 -368,-339 -586,-421 -363,-136 -592,-400 -823,-678 -154,-186 -315,-366 -472,-551 -255,-301 -555,-435 -963,-343 -210,48 -313,-91 -208,-288 135,-253 110,-444 -68,-653 -191,-224 -427,-371 -696,-463 -342,-118 -685,-238 -1037,-310 -643,-131 -1226,-412 -1786,-724 -630,-351 -1248,-737 -1612,-1413 -90,-167 -279,-283 -429,-414 -242,-211 -492,-413 -735,-622 -548,-471 -1053,-1001 -1758,-1254 -146,-52 -283,-154 -399,-260 -684,-624 -1399,-1218 -1932,-1990 -88,-129 -225,-230 -357,-318 -43,-29 -144,15 -212,43 -31,11 -68,69 -63,98 67,352 130,707 221,1052 28,109 117,224 210,291 758,542 1191,1424 2011,1908 162,94 258,304 383,461 573,728 1122,1478 1839,2081 152,128 289,288 389,460 455,783 1185,1313 1792,1955 101,106 280,154 432,191 154,37 319,25 244,20zm-19730 -20344c92,134 120,294 336,183 104,-52 224,-124 328,-112 275,29 551,79 815,159 171,50 299,38 444,-62 130,-90 274,-177 425,-213 307,-75 645,-17 909,-272 50,-48 242,-1 331,58 157,104 299,115 436,8 159,-124 297,-271 448,-405 190,-167 347,-164 513,14 164,176 312,367 479,540 51,53 161,111 214,90 471,-181 959,61 1434,-77 237,-70 476,6 686,154 137,97 296,143 447,42 231,-155 458,-154 668,13 236,188 487,256 787,230 151,-14 322,27 463,93 561,260 1208,24 1760,316 398,-61 797,-109 1191,-186 304,-61 393,-391 625,-546 68,-45 138,-85 203,-133 323,-233 455,-537 142,-920 -76,-92 -139,-195 -203,-296 -58,-94 24,-239 160,-253 155,-15 315,-9 472,3 102,6 135,74 119,171 -28,157 -73,318 -60,474 8,104 86,220 165,299 98,97 222,55 313,-34 231,-224 449,-461 685,-678 144,-132 288,-251 514,-274 234,-24 319,-161 300,-298 -22,-164 -71,-318 -214,-414 -132,-89 -269,-177 -415,-239 -333,-139 -677,-248 -1012,-386 -477,-199 -1006,-272 -1509,-408 -500,-136 -910,-515 -1462,-529 -149,-4 -303,-98 -442,-174 -186,-103 -368,-142 -576,-78 -519,160 -1019,103 -1525,-99 -452,-179 -935,-223 -1427,-193 -356,23 -714,82 -1069,-75 -225,-101 -492,-52 -704,64 -396,216 -830,293 -1250,427 -361,114 -660,239 -994,-57 -95,-85 -308,-75 -458,-52 -640,95 -1269,130 -1901,-69 -225,-72 -476,-77 -717,-85 -294,-11 -556,66 -721,347 -65,110 -192,169 -305,110 -269,-143 -512,-152 -801,-27 -510,221 -1095,277 -1493,739 -64,73 -251,30 -338,97 -478,371 -1102,488 -1549,913 -163,156 -341,149 -533,-51 -281,-293 -558,-407 -962,-262 -420,151 -871,173 -1316,117 -368,-48 -717,-37 -1059,135 -547,275 -1178,161 -1748,352 -142,46 -341,36 -474,-28 -433,-210 -856,-138 -1294,-39 -258,59 -430,198 -558,419 -186,319 -287,665 -302,1033 -8,215 70,386 268,499 420,238 840,478 1251,731 413,253 817,513 1308,600 207,36 354,190 445,378 52,109 65,235 117,342 142,292 391,446 683,378 756,-177 1508,-258 2274,-71 163,39 320,-21 456,-114 242,-164 511,-224 798,-247 240,-19 480,-58 719,-95 406,-61 762,-206 1055,-521 242,-260 262,-236 447,118 31,58 128,135 174,122 189,-48 376,-195 553,-180 484,41 855,-177 1228,-422 304,-199 437,-469 329,-826 -139,-459 108,-806 474,-268zm-4368 36403c-108,-133 -232,-218 -396,-245 -325,-52 -480,-18 -528,293 -73,477 -397,767 -776,1014 -210,137 -464,13 -530,-265 -19,-77 -8,-161 -24,-238 -25,-122 -162,-189 -262,-126 -134,84 -285,158 -386,274 -237,270 -442,569 -676,844 -160,189 -248,392 -304,636 -255,1103 -223,2233 -359,3346 -49,398 -31,836 189,1171 388,592 526,1246 645,1918 80,455 336,831 707,1082 641,434 1162,970 1589,1610 22,33 176,32 205,-5 147,-187 295,-379 403,-589 39,-75 -94,-1554 589,-456 41,67 55,150 94,218 39,67 87,171 142,178 272,37 548,56 823,58 43,0 96,-108 127,-175 50,-105 71,-225 128,-324 92,-162 291,-214 400,-80 235,293 594,388 878,598 99,74 357,-6 424,-115 63,-102 138,-201 176,-312 89,-263 157,-534 237,-800 46,-154 191,-216 373,-166 556,154 640,114 743,-394 62,-310 116,-623 157,-938 28,-217 124,-369 324,-457 562,-248 1152,-1742 877,-2564 -131,-394 -117,-775 -2,-1175 87,-306 140,-644 0,-944 -142,-302 -134,-621 -196,-931 -42,-213 -1705,-1171 -2030,-1918 -14,-33 -56,-56 -88,-79 -32,-22 -72,-64 -101,-59 -438,83 -634,-288 -922,-486 -314,-214 -221,205 -1586,216 -816,3 -579,974 -1064,385zm480 -40739c106,-77 218,-79 336,-36 111,41 233,83 325,-18 49,-53 77,-145 79,-220 5,-225 81,-387 321,-435 158,-31 319,-55 470,-106 65,-23 157,-110 153,-161 -9,-111 -40,-270 -118,-318 -246,-152 -522,-230 -790,-32 -132,98 -260,192 -435,138 -242,-76 -429,-221 -521,-464 -27,-70 -23,-156 -19,-234 4,-100 183,-220 264,-186 37,14 79,18 112,37 207,124 398,295 620,363 239,74 395,-247 652,-231 120,8 241,-3 362,-3 80,1 161,11 241,11 95,-1 214,-188 168,-269 -199,-348 -408,-690 -596,-1043 -24,-46 34,-153 79,-212 70,-93 249,-63 299,45 68,145 111,303 190,440 28,50 134,86 196,76 67,-10 141,-72 181,-131 43,-63 75,-154 65,-227 -26,-197 -80,-390 -118,-586 -7,-31 -3,-72 13,-99 51,-89 123,-96 208,-36 97,71 199,135 297,205 359,260 756,256 1158,152 109,-27 235,-98 293,-188 131,-202 239,-421 330,-643 106,-258 297,-347 557,-389 174,-29 242,-246 150,-376 -207,-293 -509,-527 -601,-888 -21,-85 75,-217 148,-301 43,-50 145,-59 222,-65 114,-10 194,86 169,238 -34,208 -42,399 115,563 167,173 331,350 502,520 146,145 530,155 664,-24 175,-235 399,-377 632,-538 226,-154 404,-396 322,-724 -33,-131 44,-223 137,-310 85,-81 171,-172 222,-275 19,-38 -47,-172 -92,-182 -420,-97 -795,16 -1116,295 -51,43 -84,147 -72,212 21,114 103,215 122,328 11,62 -36,162 -89,197 -53,37 -153,35 -221,14 -136,-44 -250,-206 -195,-264 234,-250 251,-583 351,-882 21,-62 -13,-171 -61,-216 -33,-29 -161,-5 -202,38 -137,143 -246,313 -382,457 -48,50 -142,63 -218,77 -20,4 -65,-47 -75,-79 -56,-191 -135,-382 -147,-576 -11,-190 53,-386 75,-579 10,-90 -168,-222 -266,-194 -152,40 -303,90 -452,146 -152,58 -297,97 -465,47 -310,-92 -627,-157 -861,-412 -78,-86 -188,-144 -286,-209 -72,-48 -282,-7 -337,63 -48,62 -122,120 -137,189 -115,549 -455,819 -1003,880 -152,16 -291,141 -444,170 -167,33 -298,-87 -428,-185 -141,-108 -60,-199 -5,-307 60,-120 13,-226 -78,-316 -103,-99 -228,-89 -334,-31 -103,57 -201,137 -274,228 -252,320 -553,260 -871,138 -91,-34 -121,-91 -69,-186 38,-69 80,-138 135,-195 82,-86 155,-169 97,-296 -46,-102 -312,-92 -441,24 -149,135 -299,272 -434,421 -171,190 -404,260 -625,354 -37,17 -75,37 -114,39 -36,3 -103,-11 -106,-27 -13,-66 -27,-144 -3,-202 45,-104 140,-191 168,-297 23,-87 -168,-123 -406,-7 -226,109 -447,166 -696,146 -210,-16 -397,64 -554,202 -181,158 -393,299 -522,495 -192,288 -452,449 -756,570 -187,74 -383,132 -556,231 -491,280 -988,556 -1130,1181 -56,245 -247,408 -423,577 -119,114 -180,252 -89,427 134,260 -17,465 -161,662 -46,63 -114,111 -172,165 -53,-57 -105,-115 -160,-170 -144,-149 -294,-172 -400,-56 -107,119 -222,235 -308,369 -194,305 -370,620 -558,930 -125,206 -120,241 106,502 220,255 222,339 -35,439 -165,63 -283,113 -272,318 15,281 62,573 7,843 -120,595 274,912 648,1190 279,207 660,279 999,399 153,54 437,-132 464,-305 31,-198 27,-400 58,-598 18,-111 71,-219 120,-324 12,-25 72,-42 109,-40 37,1 103,27 105,48 16,153 6,311 30,464 11,67 73,161 130,177 107,27 228,13 341,2 28,-2 67,-54 74,-89 69,-346 299,-433 613,-397 79,9 167,-1 235,32 61,30 134,102 144,164 38,237 65,476 -66,704 -27,48 18,146 46,215 32,78 214,106 331,60 75,-29 157,-48 225,-88 385,-227 799,-376 1232,-475 61,-12 146,37 208,76 86,54 71,178 -32,295 -51,60 -132,105 -157,172 -24,64 -1,151 17,225 5,17 75,35 110,27 234,-53 468,-106 698,-173 480,-136 659,-499 522,-1028 -30,-112 -61,-232 -50,-344 6,-64 96,-120 150,-177 69,-75 128,-58 187,38 169,273 340,546 514,816 129,200 768,-438 981,-592zm23395 15606c121,-132 -23,-291 -40,-442 -7,-68 16,-178 63,-207 1123,-682 -444,461 867,967 50,19 175,-34 194,-82 39,-98 80,-252 31,-319 -112,-155 -273,-278 -421,-404 -501,-429 292,-881 570,-266 85,186 138,226 261,125 256,-207 500,-214 768,-41 66,43 146,67 220,97 145,61 217,-26 284,-135 63,-102 134,-199 200,-299 74,-111 58,-223 -1,-334 -58,-107 -186,-160 -307,-119 -187,66 -370,147 -560,201 -71,21 -167,10 -234,-23 -319,-154 -446,-444 -513,-770 -4,-16 70,-70 77,-65 326,251 771,159 1104,381 122,82 221,50 322,-23 114,-82 85,-274 -57,-419 -85,-87 -177,-166 -260,-253 -206,-217 -444,-339 -755,-278 -72,14 -156,-18 -231,-38 -133,-36 -300,-238 -291,-351 23,-281 44,-561 80,-840 9,-71 59,-151 115,-199 194,-164 174,-326 39,-518 -286,-406 -637,-724 -1122,-867 -121,-35 -233,-20 -299,118 -32,65 -75,155 -132,171 -63,20 -149,-25 -222,-53 -110,-41 -236,-154 -323,-128 -382,117 -760,262 -1060,543 -88,84 -131,204 -73,328 82,178 376,277 506,168 61,-50 110,-116 164,-175 80,-87 156,-181 242,-261 82,-79 284,-67 322,16 31,67 80,158 56,211 -168,387 -233,766 1,1151 19,31 26,77 21,113 -5,39 -20,92 -48,109 -451,260 -903,531 -1442,224 -32,-19 -78,-69 -71,-90 20,-67 49,-142 99,-185 241,-200 557,-24 811,-150 53,-25 80,-116 104,-183 10,-30 -4,-87 -28,-111 -55,-55 -117,-131 -185,-142 -353,-62 -705,-104 -1002,-346 -57,-47 -249,4 -330,69 -311,251 -574,552 -961,713 -269,112 -251,420 7,533 184,80 378,128 501,311 65,96 63,272 -35,313 -110,47 -240,66 -330,137 -85,65 -175,180 -179,277 -6,149 87,289 64,457 -25,187 123,307 275,347 349,91 705,163 1063,212 225,30 360,153 479,322 461,654 41,1491 34,1740 -3,113 4,233 33,343 60,221 365,307 574,186 401,-232 123,-900 1031,-479 396,185 774,52 1132,-146 84,-45 75,-257 -12,-314 -66,-42 -126,-100 -197,-126 -302,-113 -600,-174 -934,-89 -1146,294 -67,-605 -59,-613zm8103 1945c-16,-115 -60,-228 -211,-245 -208,-24 -336,31 -387,179 -47,136 38,318 200,379 216,79 653,67 275,273 -417,225 -678,188 -961,-131 -53,-60 -84,-141 -142,-194 -85,-80 -179,-187 -280,-202 -396,-56 -784,-122 -1146,-308 -85,-43 -159,35 -154,136 12,259 -57,462 -304,602 -87,48 -162,181 -176,283 -26,192 154,144 254,149 251,11 481,50 626,286 95,154 251,200 414,203 1117,36 146,123 701,851 215,281 331,645 673,821 32,17 81,17 118,7 102,-27 147,-96 97,-162 -309,-407 -342,-789 64,-1165 77,-70 95,-217 114,-333 36,-219 200,-334 338,-478 163,-169 -56,-551 -113,-951zm-38540 16728c183,-68 319,-294 292,-478 -18,-117 -37,-241 -91,-343 -111,-212 -242,-413 -372,-613 -98,-152 -242,-181 -416,-157 -60,8 -168,-38 -186,-84 -21,-57 11,-156 54,-211 268,-345 524,-702 912,-934 31,-18 26,-159 -10,-211 -36,-53 -141,-104 -198,-89 -393,104 -694,378 -1026,594 -61,40 -102,124 -134,196 -128,286 -340,565 -99,896 18,24 12,84 -6,113 -81,134 -171,263 -257,394 -96,-58 -190,-119 -288,-173 -176,-98 -279,-73 -420,64 -128,125 -196,293 -126,433 161,319 403,597 479,963 11,49 126,101 197,109 341,37 630,-43 826,-361 544,-883 364,82 869,-108zm8020 20449c-36,68 -64,140 -93,211 -58,141 -122,280 -15,432 30,41 1586,714 1674,-221 17,-188 -241,-363 -417,-274 -1183,596 -814,-797 -1149,-148zm27065 -22100c16,34 115,36 176,39 16,1 47,-53 49,-84 2,-35 -8,-85 -33,-104 -146,-112 -384,-285 -545,-374 -560,-309 -406,409 -777,984 -55,85 -1254,1544 -1203,1015 33,-341 260,-574 458,-827 121,-155 280,-321 307,-501 56,-365 206,-685 359,-1010 12,-27 -19,-104 -39,-108 -422,-72 -336,435 -401,-613 -6,-96 -179,-151 -272,-86 -98,70 -184,161 -289,215 -58,30 -167,34 -212,-1 -48,-37 -78,-143 -64,-206 60,-268 240,-420 513,-400 163,13 342,57 436,-90 201,-315 489,-364 824,-357 153,4 247,-277 119,-366 -302,-208 -418,-462 -320,-820 19,-69 8,-174 -33,-231 -210,-281 -229,-583 -151,-911 26,-107 -140,-211 -247,-163 -73,33 -131,97 -205,125 -61,24 -167,46 -196,14 -46,-49 -74,-150 -57,-216 41,-154 112,-300 174,-448 61,-147 138,-289 180,-441 16,-60 -32,-186 -77,-201 -60,-19 -171,19 -217,69 -184,207 -351,429 -530,641 -19,23 -79,27 -115,19 -112,-22 -124,-80 -78,-178 84,-177 164,-359 219,-546 14,-47 -64,-150 -123,-177 -57,-26 -177,-12 -210,29 -505,635 -167,1114 -530,345 -276,-586 -935,614 -653,-707 25,-116 -115,-229 -225,-192 -220,76 -415,245 -679,101 -155,-85 -321,-7 -432,119 -266,300 -559,588 -772,924 -864,1364 -1831,2646 -2933,3827 -190,203 -350,440 -504,675 -730,1113 -1636,2091 -2420,3162 -48,65 -104,124 -162,180 -605,590 -1218,1173 -1813,1773 -316,318 -722,514 -1045,801 -353,313 -548,797 -891,1127 -442,424 -684,985 -1090,1428 -139,153 -138,362 -74,572 69,228 140,465 149,700 13,318 176,558 394,716 358,257 694,532 1002,846 102,103 314,62 432,-55 109,-109 114,-346 299,-337 479,23 854,-158 1173,-496 21,-23 99,-32 113,-16 42,51 107,141 89,174 -125,218 -181,441 -138,694 30,174 -55,311 -179,424 -179,160 -369,310 -545,474 -55,52 -106,134 -111,205 -4,69 36,160 87,208 50,47 158,88 206,64 105,-52 186,-150 280,-226 249,-198 394,-530 713,-628 221,-70 319,-205 407,-394 26,-57 1165,-2201 692,-243 -18,77 -47,162 -27,233 16,59 90,110 149,148 27,17 94,15 116,-7 112,-107 237,-209 316,-339 131,-216 291,-395 523,-481 96,-36 251,-28 328,30 81,60 157,219 135,307 -129,504 -275,1002 -740,1326 -149,105 -141,287 26,392 185,117 334,218 230,464 -47,111 -112,218 -131,334 -40,238 8,509 -93,710 -119,240 -361,417 -536,633 -33,42 -23,161 15,206 41,49 140,77 207,68 71,-9 139,-68 199,-116 215,-171 435,-186 666,-36 33,23 64,52 101,67 213,86 384,46 530,-136 101,-125 183,-266 284,-391 289,-359 729,-477 1177,-240 305,160 522,92 775,-73 351,-229 508,-626 801,-894 314,-285 408,-691 658,-1000 260,-322 431,-673 533,-1070 60,-231 247,-287 470,-169 177,92 343,215 530,271 71,20 203,-96 274,-179 33,-39 8,-158 -28,-219 -37,-60 -115,-113 -186,-135 -211,-64 -357,-175 -360,-414 -4,-321 -10,-644 -6,-966 2,-183 -97,-284 -234,-388 -123,-92 -210,-230 -318,-344 -70,-74 -246,-66 -324,19 -54,58 -96,129 -136,197 -49,83 -126,128 -186,70 -42,-39 -54,-141 -37,-205 112,-450 391,-788 741,-1073 59,-48 146,-58 220,-87 100,-37 283,72 265,165 -38,196 -99,388 -126,585 -6,46 80,113 134,156 24,18 93,18 114,-2 174,-166 340,-341 513,-508 118,-113 278,-102 428,36 89,82 158,199 261,246 97,44 228,32 341,17 97,-12 130,-97 88,-190 -32,-71 -74,-139 -123,-198 -324,-394 -343,-444 -37,-804 317,-372 554,-790 781,-1215 54,-101 67,-233 66,-349 0,-69 -58,-142 -101,-205 -9,-14 -69,-3 -101,10 -294,107 -470,308 -453,633 13,258 -55,473 -257,644 -185,155 -355,329 -546,477 -123,94 -271,158 -412,226 -25,12 -75,-12 -106,-31 -31,-19 -81,-64 -75,-79 74,-184 133,-382 243,-544 225,-332 483,-642 719,-968 79,-107 53,-242 -23,-337 -98,-122 -236,-212 -339,-332 -46,-54 -89,-162 -66,-218 154,-372 309,-748 648,-1001 130,-94 267,-188 442,-133 259,82 469,30 637,-197 310,-422 595,-868 958,-1239 285,-290 712,-2160 1205,-1094zm-2923 8582c342,-72 407,-336 428,-628 7,-98 -122,-253 -210,-262 -90,-8 -260,119 -254,208 15,236 44,471 70,708 -113,109 -237,210 -337,329 -45,55 -49,147 -62,224 -6,35 4,102 20,106 72,18 165,52 220,21 249,-135 273,-304 125,-706zm1967 -6772c-71,34 -173,48 -208,104 -231,370 -452,743 -798,1024 -27,22 3,158 45,207 43,51 143,96 203,81 197,-48 382,-150 463,-342 36,-86 986,-2025 295,-1074zm-13869 26372c-27,21 -88,22 -118,4 -61,-35 -142,-79 -160,-137 -22,-70 12,-157 27,-235 16,-78 43,-155 57,-235 24,-139 -53,-237 -168,-279 -148,-54 -313,-61 -459,-119 -59,-23 -133,-135 -120,-188 62,-271 152,-533 230,-799 28,-96 -146,-229 -256,-186 -110,43 -266,82 -305,168 -221,472 -622,851 -710,1391 -19,121 -154,169 -288,125 -76,-26 -146,-67 -220,-99 -245,-105 -470,-76 -676,96 -185,153 -366,312 -557,457 -99,76 -379,33 -452,-64 -217,-289 -422,-589 -643,-875 -100,-130 -236,-213 -416,-197 -211,20 -391,-47 -546,-199 -172,-169 -393,-302 -526,-497 -309,-452 -815,-463 -1257,-619 -48,-16 -156,50 -195,106 -139,196 -80,481 -285,650 -28,23 -73,34 -110,36 -38,1 -110,-24 -109,-26 136,-632 -523,-930 -619,-1466 -20,-109 -201,-92 -289,23 -75,97 -104,190 -59,325 124,369 113,371 -168,558 -167,111 -322,249 -502,333 -140,66 -309,77 -466,95 -157,19 -285,-157 -250,-332 41,-206 116,-386 349,-443 193,-47 390,-87 575,-155 44,-17 89,-162 63,-207 -80,-138 -190,-260 -295,-383 -109,-127 -249,-203 -421,-189 -241,20 -481,56 -722,67 -117,6 -280,20 -348,-45 -324,-315 -748,-230 -1123,-334 -184,-50 -392,-165 -497,-316 -171,-245 -328,-293 -581,-152 -48,27 -190,-10 -213,-56 -182,-359 -487,-380 -826,-331 -40,5 -88,21 -119,5 -178,-88 -360,-173 -523,-284 -151,-103 -109,-280 -125,-439 -35,-348 -220,-502 -555,-477 -120,9 -240,67 -357,59 -197,-14 -393,-59 -588,-101 -27,-5 -53,-59 -63,-96 -7,-27 0,-73 20,-93 286,-303 652,-458 1043,-582 226,-70 437,-195 642,-318 40,-22 55,-160 26,-214 -56,-102 -140,-201 -235,-268 -231,-161 -499,-276 -709,-459 -703,-613 -1353,-1262 -1569,-2234 -95,-429 -287,-839 -458,-1248 -608,-1443 -786,-2955 -716,-4505 26,-564 62,-1130 148,-1688 109,-710 170,-1445 649,-2044 49,-61 -80,-260 -169,-274 -158,-24 -316,-68 -474,-74 -242,-8 -485,-2 -727,17 -1319,104 -2361,-467 -3206,-1402 -654,-724 -1136,-1572 -1310,-2554 -106,-598 -128,-1204 -70,-1811 51,-521 135,-1042 151,-1566 16,-543 193,-1026 439,-1492 433,-827 964,-1587 1566,-2296 627,-738 1276,-1457 1901,-2197 290,-343 631,-612 995,-873 1283,-925 2738,-1380 4279,-1547 1530,-165 3065,-187 4539,396 228,90 466,144 709,85 64,-15 118,-99 163,-160 19,-27 11,-81 0,-119 -161,-550 -152,-1116 -147,-1681 3,-323 19,-646 -1,-968 -61,-977 90,-1938 254,-2888 151,-884 200,-1764 186,-2650 -14,-894 39,-1772 286,-2636 88,-307 135,-636 137,-956 4,-928 -29,-1856 -37,-2784 -3,-329 -164,-515 -450,-643 -589,-264 -1162,-566 -1760,-805 -409,-163 -850,-245 -1277,-362 -310,-86 -641,-126 -926,-263 -937,-451 -1940,-527 -2946,-528 -730,-2 -1441,-61 -2161,-191 -750,-136 -1389,-462 -1919,-958 -505,-473 -1052,-877 -1607,-1278 -907,-656 -1522,-1546 -1991,-2548 -105,-224 -147,-455 -105,-705 47,-278 114,-556 112,-835 -4,-705 331,-1327 442,-2000 471,-759 613,-1656 1017,-2440 608,-1182 1268,-2322 2212,-3297 768,-795 1608,-1462 2557,-2008 1049,-604 2090,-1224 3157,-1794 678,-363 1338,-750 1975,-1176 847,-566 1789,-926 2717,-1320 37,-15 77,-26 116,-34 1737,-339 3444,-810 5255,-727 2034,92 3998,486 5944,1036 620,175 1240,351 1860,530 703,204 1419,299 2152,283 812,-17 1608,72 2392,304 462,137 941,223 1417,310 1081,197 2076,649 3096,1027 113,42 224,98 322,167 697,486 1472,835 2202,1261 1903,1109 3311,2680 4153,4733 123,298 227,604 335,908 233,652 365,1317 331,2014 -41,806 61,1614 -51,2421 -32,234 12,482 38,722 29,261 -53,474 -231,658 -196,203 -378,407 -482,684 -145,386 -439,669 -755,928 -533,438 -1099,815 -1744,1075 -560,226 -1096,526 -1670,705 -574,178 -1183,239 -1774,366 -152,33 -295,115 -438,184 -25,12 -36,69 -38,105 -2,29 14,83 30,87 158,27 316,54 475,66 442,34 878,73 1316,171 466,104 961,127 1441,111 811,-26 1612,16 2414,130 278,40 562,38 842,61 1495,115 2978,308 4343,975 1013,496 2037,980 2950,1656 1103,818 2219,1620 3176,2610 1492,1542 2876,3171 3882,5081 630,1196 995,2461 922,3835 -38,724 -39,1453 -27,2178 18,1107 -362,2072 -1080,2880 -397,446 -893,819 -1389,1159 -868,598 -1821,1000 -2858,1256 -1305,324 -2619,450 -3952,469 -202,3 -404,-15 -606,-5 -526,26 -1045,85 -1523,340 -659,353 -1378,429 -2109,429 -283,-1 -565,-17 -848,-22 -179,-2 -294,114 -402,235 -53,59 -106,125 -137,198 -425,1000 -963,1952 -1226,3021 -155,625 -339,1244 -536,1858 -617,1920 -1281,3823 -1899,5742 -741,2302 -1503,4601 -2501,6812 -167,369 -331,732 -544,1078 -166,271 -288,574 -396,876 -32,89 19,246 87,325 102,117 249,199 382,289 378,255 381,256 819,-76 78,-59 201,-87 207,-17 34,347 87,710 -59,1036 -56,126 -259,180 -378,286 -50,44 -84,145 -70,208 12,56 95,120 158,135 235,56 475,94 713,135 137,26 206,109 216,244 10,126 -71,230 -211,216 -165,-18 -322,-33 -459,72 -93,70 -206,146 -170,292 34,137 140,166 269,166 330,2 331,5 331,267 0,39 -22,81 -16,119 21,158 9,337 82,468 168,300 136,520 -147,724 -228,164 -410,385 -688,485 -103,36 -191,141 -263,233 -149,191 -240,467 -431,574 -269,151 -604,194 -916,257 -132,27 -211,-67 -209,-214 0,-38 -13,-85 -37,-111 -52,-55 -133,-150 -173,-136 -108,33 -266,97 -288,180 -91,345 -153,700 -196,1054 -12,106 52,236 115,332 88,133 210,242 314,365 135,160 137,306 5,421 -97,85 -198,115 -323,34 -169,-110 -347,-205 -523,-303 -372,-204 -742,-276 -1135,-35 -133,82 -302,112 -460,148 -302,65 -502,236 -601,531 -25,74 -71,149 -127,203 -52,49 -150,116 -194,97 -257,-112 -516,-227 -750,-381 -175,-115 -190,-341 -249,-534 -89,-291 -266,-387 -550,-243 -350,179 -674,232 -1036,58 -194,-93 -394,-16 -586,52 -248,88 -406,256 -458,513 -24,118 -18,241 -38,360 -28,163 -150,233 -237,130 -278,-328 -641,-471 -1053,-528 -171,-22 -322,23 -455,117 -164,114 -300,325 -475,359 -31,6 -325,600 -658,808 -647,404 -1540,564 -1635,634z"/> </g> </svg>