<svg width="334" height="496" xmlns="http://www.w3.org/2000/svg" xmlns:xlink="http://www.w3.org/1999/xlink" xml:space="preserve" overflow="hidden"><defs><clipPath id="clip0"><rect x="2035" y="856" width="334" height="496"/></clipPath></defs><g clip-path="url(#clip0)" transform="translate(-2035 -856)"><path d="M2133.58 1204.73C2132.83 1177.36 2133.99 1151.77 2138.77 1126.43 2140.33 1118.26 2142.38 1110.18 2144.18 1102.03 2145.54 1095.87 2145 1095.09 2138.66 1095.01 2123.82 1094.82 2109.46 1092.23 2095.56 1087.03 2084.06 1082.73 2074.25 1076.25 2066.06 1066.9 2060.49 1060.51 2053.5 1055.4 2047.57 1049.32 2036.99 1038.44 2033.76 1025.33 2038.89 1011.14 2047.33 987.762 2060.2 966.953 2077.4 948.894 2090.6 935.021 2105.18 922.829 2120.27 911.057 2137.28 897.798 2154.68 885.249 2173.72 875.159 2191.67 865.635 2210.58 858.707 2231.22 858.047 2241.03 857.728 2250.94 857.041 2260.66 857.962 2279.97 859.778 2294.14 871.221 2306.6 884.995 2320.69 900.551 2330.04 919.039 2336.76 938.608 2346.52 966.991 2355.66 995.621 2363.95 1024.49 2367.49 1036.8 2368.62 1049.95 2366.25 1062.9 2363.93 1075.64 2357.22 1085.34 2344.75 1089.8 2340.64 1091.28 2335.83 1090.81 2331.35 1091.19 2327.93 1091.48 2324.39 1091.19 2321.11 1091.99 2307.9 1095.18 2294.96 1099.79 2281.59 1101.76 2270.01 1103.46 2257.97 1102.9 2246.19 1102.26 2236.85 1101.76 2236.52 1101.81 2235.86 1111.38 2233.28 1148.38 2240.85 1183.91 2251.64 1218.88 2258.03 1239.6 2265.48 1260.03 2272.48 1280.56 2277.84 1296.34 2278.37 1312.33 2274.7 1328.53 2273.53 1333.59 2270.75 1337.47 2265.71 1339.04 2258.84 1341.15 2251.94 1343.46 2244.86 1344.64 2230.62 1347.02 2216.31 1349.21 2201.93 1350.39 2194.64 1350.98 2187.17 1349.09 2179.75 1348.42 2171.62 1347.69 2165.74 1343.12 2161.56 1336.69 2148.88 1317.15 2140.66 1296.05 2137.77 1272.6 2134.92 1249.47 2132.5 1226.39 2133.58 1204.73Z" stroke="#000000" stroke-width="3.4375" stroke-miterlimit="8" fill="none" fill-rule="evenodd"/><path d="M2133.07 1204.24C2132.32 1176.88 2133.48 1151.28 2138.27 1125.95 2139.82 1117.76 2141.88 1109.67 2143.69 1101.53 2145.05 1095.39 2144.5 1094.59 2138.16 1094.51 2123.33 1094.32 2108.96 1091.75 2095.06 1086.55 2083.56 1082.24 2073.74 1075.76 2065.56 1066.39 2059.99 1060.02 2052.99 1054.91 2047.06 1048.82 2036.48 1037.95 2033.27 1024.82 2038.39 1010.63 2046.83 987.259 2059.7 966.442 2076.91 948.383 2090.1 934.522 2104.68 922.327 2119.77 910.561 2136.79 897.301 2154.19 884.749 2173.21 874.655 2191.16 865.127 2210.09 858.202 2230.72 857.546 2240.54 857.234 2250.44 856.54 2260.16 857.457 2279.47 859.277 2293.65 870.71 2306.11 884.491 2320.19 900.055 2329.55 918.523 2336.27 938.097 2346.02 966.494 2355.16 995.132 2363.45 1023.99 2366.99 1036.31 2368.12 1049.45 2365.76 1062.4 2363.43 1075.14 2356.72 1084.84 2344.25 1089.3 2340.14 1090.77 2335.34 1090.33 2330.85 1090.7 2327.44 1090.98 2323.9 1090.7 2320.62 1091.49 2307.42 1094.69 2294.46 1099.29 2281.1 1101.26 2269.51 1102.97 2257.47 1102.41 2245.69 1101.78 2236.35 1101.27 2236.03 1101.3 2235.36 1110.88 2232.79 1147.9 2240.35 1183.42 2251.14 1218.39 2257.54 1239.12 2264.99 1259.53 2271.98 1280.07 2277.35 1295.85 2277.87 1311.84 2274.19 1328.03 2273.04 1333.11 2270.25 1336.98 2265.22 1338.54 2258.35 1340.67 2251.44 1342.99 2244.37 1344.16 2230.13 1346.53 2215.82 1348.73 2201.44 1349.89 2194.15 1350.47 2186.67 1348.6 2179.26 1347.93 2171.12 1347.21 2165.25 1342.63 2161.08 1336.2 2148.39 1316.65 2140.17 1295.54 2137.28 1272.09 2134.41 1248.97 2132 1225.92 2133.07 1204.24ZM2149.25 1205.19C2149.1 1230.48 2149.96 1255.6 2155.01 1280.52 2157.5 1292.84 2160.14 1304.97 2166.06 1316.17 2168.6 1320.97 2171.82 1324.75 2177.21 1326.71 2199.17 1334.75 2220.74 1332.98 2242.07 1324.5 2250.01 1321.35 2253.88 1315.24 2254.07 1306.6 2254.29 1296.83 2250.55 1288.37 2246.82 1279.6 2237.08 1256.7 2230.89 1232.62 2226.62 1208.17 2223.47 1190.06 2220.86 1171.76 2219.59 1153.43 2218.34 1135.54 2218.63 1117.5 2219.16 1099.54 2219.42 1090.49 2218.7 1088.34 2209.86 1087.9 2196.64 1087.25 2183.63 1083.55 2170.19 1085.71 2165.67 1086.44 2161.95 1087.19 2161.04 1092.31 2157.75 1110.87 2153.47 1129.34 2151.53 1148.04 2149.56 1166.97 2149.91 1186.13 2149.25 1205.19ZM2118.53 975.482C2118.64 965.931 2117.16 957.056 2109.37 950.45 2104.18 946.055 2097.9 945.293 2092.51 949.361 2087.12 953.423 2081.71 957.701 2077.32 962.762 2067.66 973.896 2060.3 986.61 2054.22 1000.04 2049.29 1010.91 2054.56 1021.95 2066.31 1024.2 2075.22 1025.9 2084.13 1025.35 2092.62 1021.3 2112.03 1012.05 2117.57 995.084 2118.53 975.482ZM2288.64 881.092C2279.52 881.158 2273.09 886.654 2272.6 894.716 2272.31 899.457 2272.89 904.336 2273.72 909.043 2277.25 929.074 2287.75 944.222 2306.15 953.292 2309.27 954.831 2313.39 955.744 2316.73 955.147 2325.44 953.595 2330.51 945.272 2327.75 936.83 2325.8 930.88 2322.48 925.352 2319.5 919.776 2314.46 910.321 2309.5 900.807 2303.95 891.65 2300.34 885.686 2295.05 881.415 2288.64 881.092ZM2231.25 1064.75C2231.66 1067.19 2231.84 1069.17 2232.33 1071.05 2234.67 1079.97 2239.56 1081.32 2246.5 1075.23 2256.27 1066.67 2262.13 1055.29 2268.46 1044.35 2271.88 1038.44 2269.43 1032.99 2263.65 1030.13 2258.96 1027.81 2254.41 1028.59 2250.62 1031.49 2239.55 1039.97 2233.06 1051.24 2231.25 1064.75ZM2297.34 1053C2297.22 1046.8 2293.6 1040.51 2290.11 1039.96 2285.25 1039.2 2283.43 1043.39 2281.22 1046.46 2277.51 1051.6 2274.42 1057.21 2270.49 1062.18 2265.9 1067.99 2260.78 1073.4 2255.72 1078.83 2253.12 1081.64 2251.05 1085.07 2253.5 1088.11 2255.21 1090.24 2259.07 1091.54 2261.98 1091.55 2265.04 1091.57 2268.45 1090.14 2271.11 1088.43 2281.46 1081.78 2289.07 1072.51 2294.74 1061.7 2296.32 1058.68 2296.75 1055.06 2297.34 1053ZM2223.38 1034.3C2223.1 1034.23 2222.82 1034.16 2222.53 1034.09 2222.53 1033.43 2222.55 1032.77 2222.53 1032.11 2222.33 1025.25 2219.24 1020.95 2213.76 1019.93 2208.56 1018.96 2204.07 1022.12 2201.87 1028.9 2199.84 1035.14 2198.02 1041.49 2196.58 1047.9 2195.1 1054.51 2195.71 1060.96 2199.76 1066.79 2204.19 1073.16 2208.52 1073.43 2213.28 1067.36 2214.35 1066 2215.45 1064.46 2215.9 1062.83 2218.5 1053.35 2220.91 1043.82 2223.38 1034.3ZM2183.83 1061.28C2180.73 1048.41 2178.02 1036.52 2174.96 1024.72 2173.92 1020.73 2170.67 1018.54 2166.56 1018.64 2162.06 1018.76 2159.51 1021.77 2158.24 1025.84 2155.37 1035.07 2157.32 1043.95 2160.25 1052.78 2162.27 1058.86 2165.73 1063.85 2171.45 1066.71 2173.91 1067.94 2177.56 1069.05 2179.68 1068.07 2181.77 1067.1 2182.62 1063.43 2183.83 1061.28ZM2158.08 1069.14C2155.15 1065.18 2153.09 1061.2 2149.96 1058.43 2142.4 1051.7 2135.62 1044.55 2130.72 1035.55 2127.83 1030.25 2123.29 1028.83 2119.22 1030.56 2115.25 1032.26 2113.32 1036.56 2114.54 1042.34 2117.77 1057.62 2135.78 1078.36 2158.08 1069.14ZM2115.79 1083.98C2121.63 1082.84 2127.64 1081.75 2133.6 1080.46 2135.46 1080.06 2137.2 1079.13 2139 1078.44 2137.35 1077 2135.77 1075.49 2134.02 1074.19 2133.37 1073.71 2132.35 1073.72 2131.49 1073.57 2117.04 1071.12 2103.69 1065.91 2091.5 1057.72 2089.14 1056.14 2086.71 1054.53 2084.09 1053.52 2082.49 1052.91 2080.08 1052.83 2078.75 1053.66 2077.78 1054.27 2077.6 1056.81 2077.8 1058.4 2078.01 1060.05 2078.89 1061.73 2079.82 1063.17 2088.2 1076.16 2101.04 1081.47 2115.79 1083.98ZM2350.23 1018.29C2350.29 1010.43 2345.05 1005 2337.27 1004.87 2329.79 1004.74 2322.87 1011.02 2322.76 1018.04 2322.65 1024.98 2329.58 1031.51 2337.02 1031.48 2344.84 1031.44 2350.18 1026.12 2350.23 1018.29ZM2206.42 873.505C2200.84 873.618 2195.05 879.496 2194.97 885.13 2194.89 891.43 2200.45 896.999 2206.74 896.906 2213.04 896.814 2218.49 891.049 2218.18 884.807 2217.91 879.17 2211.9 873.395 2206.42 873.505ZM2278.79 1088.9C2279.06 1089.51 2279.34 1090.13 2279.62 1090.74 2286.81 1089.54 2294.27 1088.88 2300.49 1084.59 2304.39 1081.9 2307.99 1078.44 2310.73 1074.61 2311.94 1072.92 2310.67 1069.47 2310.53 1066.82 2308.42 1067.39 2305.93 1067.43 2304.28 1068.63 2297.37 1073.63 2290.68 1078.93 2283.97 1084.2 2282.15 1085.64 2280.51 1087.32 2278.79 1088.9Z" fill-rule="evenodd"/></g></svg>