<svg width="390" height="668" xmlns="http://www.w3.org/2000/svg" xmlns:xlink="http://www.w3.org/1999/xlink" xml:space="preserve" overflow="hidden"><defs><clipPath id="clip0"><rect x="2198" y="1237" width="390" height="668"/></clipPath></defs><g clip-path="url(#clip0)" transform="translate(-2198 -1237)"><path d="M2376.15 1238 2375.94 1242.18C2375.84 1244.49 2375.65 1251.44 2375.51 1257.65L2375.29 1268.92 2368.94 1262.37C2361.6 1254.75 2360.62 1254.44 2360.65 1259.69 2360.66 1261.81 2363.66 1266.81 2367.27 1270.8 2373.06 1277.2 2373.87 1279.22 2374.22 1287.71 2374.48 1294.13 2373.97 1297 2372.76 1296.25 2371.76 1295.63 2370.99 1294.02 2370.99 1292.65 2370.99 1291.29 2370.21 1290.18 2369.26 1290.18 2368.32 1290.18 2367.54 1287.19 2367.54 1283.53 2367.54 1275.9 2363.2 1270.57 2360.49 1274.83 2359.62 1276.19 2359.27 1278.21 2359.68 1279.34 2360.6 1281.84 2355.64 1280.21 2352.31 1276.92 2351.06 1275.69 2349.04 1274.72 2347.78 1274.72 2343.13 1274.72 2343.89 1279.57 2349.56 1286.05 2356.31 1293.76 2356.67 1295.3 2352.2 1296.47 2350 1297.04 2349.25 1298.37 2349.83 1300.6 2350.8 1304.3 2355.42 1304.96 2358.55 1301.84 2360.9 1299.5 2360.96 1299.62 2361.35 1306.08 2361.68 1311.47 2361.38 1311.59 2355.48 1308.22 2349.71 1304.93 2348.59 1305.01 2348.59 1308.92 2348.59 1310.74 2351.11 1314.2 2354.19 1316.6 2358.39 1319.88 2358.86 1320.75 2356.13 1320.04 2353.75 1319.42 2352.13 1320.03 2351.45 1321.81 2349.96 1325.66 2348.76 1325.34 2337.29 1317.89 2331.66 1314.23 2326.2 1311.54 2325.17 1311.93 2321.59 1313.3 2323.87 1319.86 2328.89 1322.61L2333.95 1325.35 2329.32 1325.89C2326.8 1326.19 2324.32 1327.5 2323.83 1328.79 2322.86 1331.3 2327.17 1333.76 2329.75 1332.17 2330.61 1331.64 2331.37 1332.03 2331.37 1333.03 2331.37 1334.03 2332.72 1334.89 2334.38 1334.96 2336.57 1335.06 2336.72 1335.35 2334.97 1336.04 2333.15 1336.76 2333.51 1337.73 2336.53 1340.01L2340.57 1343.02 2333.36 1344.25C2325.94 1345.5 2324.25 1348.26 2328.68 1351.93 2330.34 1353.31 2332.1 1353.45 2334.06 1352.36 2337.31 1350.55 2343.42 1351.56 2343.42 1353.92 2343.42 1354.75 2344.97 1355.47 2346.87 1355.47 2348.76 1355.47 2350.31 1354.7 2350.31 1353.75 2350.31 1352.81 2352.06 1352.06 2354.19 1352.09L2358.07 1352.14 2353.81 1355.63C2350.51 1358.38 2350.1 1359.44 2351.93 1360.57 2354.52 1362.17 2358.98 1361 2361.19 1358.16 2361.99 1357.13 2362.2 1358.42 2361.62 1361.06 2360.76 1364.99 2361.15 1365.78 2364.04 1365.78 2365.95 1365.78 2367.57 1364.81 2367.65 1363.63 2367.74 1362.17 2368.07 1362.26 2368.73 1363.9 2369.42 1365.66 2370.29 1365.18 2371.9 1362.18L2374.11 1358.05 2376.26 1362.77C2377.45 1365.37 2377.87 1368.04 2377.18 1368.73 2376.49 1369.42 2370.31 1370.27 2363.45 1370.61 2351.97 1371.19 2350.31 1370.85 2342.73 1366.05 2335.17 1361.27 2329.64 1360.48 2329.64 1364.17 2329.64 1364.98 2331.78 1366.88 2334.38 1368.36L2339.12 1371.04 2333.09 1369.92C2327.12 1368.83 2317.09 1363.67 2312.69 1359.39 2311.43 1358.18 2308.91 1357.19 2307.09 1357.19 2303.58 1357.19 2302.67 1360.51 2305.42 1363.26 2306.45 1364.29 2303.8 1365.12 2298.21 1365.46 2293.33 1365.75 2288.68 1366.39 2287.92 1366.86 2282.26 1370.35 2296.22 1376.69 2306.33 1375.23L2313.28 1374.26 2308.43 1377C2305.5 1378.66 2303.78 1380.89 2304.13 1382.64 2304.97 1386.84 2312.41 1385.43 2317.15 1380.17 2319.36 1377.72 2322.35 1376.12 2324.04 1376.52 2326.42 1377.08 2326.12 1377.65 2322.48 1379.15 2316.62 1381.57 2314.84 1384.39 2318.39 1385.76 2319.93 1386.34 2320.8 1387.81 2320.33 1389.03 2319.86 1390.25 2320.64 1391.68 2322 1392.2 2323.36 1392.72 2324.48 1392.47 2324.48 1391.66 2324.48 1390.26 2330.04 1387.85 2334.22 1387.42 2335.32 1387.3 2337.84 1385.72 2339.82 1383.93 2341.8 1382.14 2343.42 1381.26 2343.42 1381.94 2343.42 1383.73 2339.66 1387.23 2335.19 1389.62 2333.08 1390.75 2331.37 1392.44 2331.37 1393.38 2331.37 1396.62 2336.67 1397.12 2339.93 1394.18 2343.03 1391.38 2343.14 1391.4 2342.24 1394.83 2340.93 1399.84 2344.45 1399.34 2347.95 1394.02 2350.13 1390.69 2351.21 1390.17 2352.31 1391.88 2353.51 1393.72 2353.99 1393.71 2355.21 1391.82 2356.03 1390.56 2358.16 1389.72 2359.95 1389.94 2366.9 1390.82 2376.04 1384.63 2376.32 1378.83 2376.47 1375.7 2376.64 1375.79 2377.72 1379.53 2378.74 1383.07 2377.9 1384.79 2372.82 1389.35 2369.43 1392.39 2361.89 1397.38 2356.02 1400.47L2345.36 1406.05 2337.07 1401.92C2332.51 1399.64 2327.81 1397.63 2326.63 1397.41 2323.56 1396.82 2323.97 1400.14 2327.49 1404.28 2330.2 1407.47 2330.19 1407.55 2327.55 1405.51 2325.93 1404.27 2323.95 1403.66 2323.13 1404.17 2322.31 1404.68 2319.48 1403.98 2316.83 1402.61 2310.49 1399.33 2308.51 1399.49 2309.67 1403.15 2310.44 1405.58 2309.63 1406.12 2305.47 1406 2302.64 1405.91 2299.91 1405.39 2299.39 1404.87 2297.29 1402.78 2291.75 1405.86 2291.75 1409.11 2291.75 1411.75 2292.58 1412.36 2295.35 1411.63 2298.81 1410.73 2298.83 1410.81 2295.95 1414 2292.83 1417.43 2293.34 1417.91 2299.87 1417.38 2302.88 1417.14 2303.5 1417.72 2302.62 1420.01 2301.69 1422.43 2302.28 1422.84 2305.85 1422.16 2309.42 1421.48 2310.03 1421.88 2309.35 1424.47 2308.43 1427.98 2309.52 1428.35 2313.82 1426.08 2318.04 1423.84 2323.37 1430.95 2319.9 1434.18 2317.96 1435.99 2317.37 1435.92 2316.62 1433.97 2316.1 1432.63 2313.05 1431.52 2309.67 1431.39 2306.36 1431.27 2304.04 1431.85 2304.56 1432.68 2305.07 1433.51 2303.98 1433.77 2302.08 1433.27 2297.73 1432.14 2297.6 1434.75 2301.87 1437.4 2304.13 1438.81 2304.83 1440.71 2304.24 1443.79 2303.19 1449.23 2302.93 1449.28 2296.59 1443.96 2293.78 1441.59 2290.35 1439.66 2289 1439.66 2286.11 1439.66 2285.97 1440.5 2288.19 1444.65 2290 1448.02 2288.87 1448.1 2275.81 1445.62 2271.56 1444.81 2269.35 1445.04 2269.35 1446.27 2269.35 1448.49 2278.3 1453.41 2282.38 1453.41 2284.73 1453.41 2284.87 1453.84 2283.13 1455.93 2281.42 1457.99 2281.48 1458.7 2283.51 1459.47 2284.9 1460 2286.75 1460.28 2287.6 1460.12 2291.2 1459.44 2293.44 1460.42 2293.04 1462.43 2292.77 1463.74 2294.44 1464.53 2297.35 1464.47 2300.99 1464.39 2302.09 1465.18 2302.14 1467.9 2302.19 1471.29 2302.33 1471.26 2305.58 1467.37 2308.27 1464.15 2308.97 1463.91 2308.97 1466.18 2308.97 1467.76 2309.75 1468.59 2310.7 1468.01 2311.65 1467.42 2313.15 1468.95 2314.09 1471.39 2315.02 1473.84 2316.96 1476.26 2318.39 1476.81 2319.83 1477.36 2321.03 1478.88 2321.03 1480.2 2321.03 1481.51 2322.28 1482.61 2323.83 1482.61 2325.38 1482.61 2327.63 1483.92 2328.84 1485.57 2330.9 1488.38 2331.28 1488.35 2335.08 1485.14L2339.12 1481.75 2336.05 1485.35C2334.2 1487.55 2328.45 1490.05 2321.19 1491.79 2306.02 1495.45 2302.36 1495.33 2296.16 1491.26 2290.42 1487.48 2287.62 1488.18 2289.16 1493.03 2290.03 1495.75 2289.37 1496.36 2285.29 1496.36 2282.57 1496.36 2279.56 1495.59 2278.61 1494.64 2277.45 1493.49 2275.78 1493.71 2273.55 1495.34 2270.35 1497.67 2270.43 1497.89 2275.76 1500.92 2279.77 1503.21 2281.05 1504.95 2280.33 1507.2 2279.7 1509.21 2280.19 1510.2 2281.68 1509.99 2286.67 1509.32 2288.6 1510.17 2287.66 1512.63 2286 1516.92 2292.29 1518.97 2297.08 1515.69 2300.22 1513.53 2300.68 1513.43 2299.12 1515.36 2296.21 1518.98 2299.01 1522.76 2303.54 1521.32 2310.06 1519.26 2311.82 1522.56 2305.42 1524.87 2297.2 1527.83 2289 1527.77 2285.93 1524.71 2282.54 1521.32 2277.26 1521.28 2278.56 1524.65 2279.36 1526.74 2278.16 1527.02 2271.83 1526.16 2262.56 1524.89 2261.4 1527.75 2269.95 1530.83 2274.09 1532.32 2275.56 1533.77 2275.01 1535.87 2274.09 1539.38 2279.53 1541.33 2283.73 1538.99 2286.01 1537.71 2286.58 1538.21 2286.58 1541.62 2286.58 1545.1 2287.21 1545.7 2290.29 1544.89 2293.34 1544.1 2293.78 1544.44 2292.82 1546.93 2291.88 1549.38 2292.36 1549.86 2295.14 1549.13 2297.05 1548.64 2298.64 1548.92 2298.64 1549.78 2298.64 1552.79 2302.28 1551.28 2306.88 1546.4 2312.41 1540.51 2315.68 1539.21 2319.74 1541.3 2324.46 1543.72 2323.28 1545.67 2317.59 1544.84 2311.65 1543.97 2310.78 1546.59 2315.06 1552.68 2317.56 1556.24 2317.55 1556.49 2314.36 1556.49 2312.48 1556.49 2309.75 1557.65 2308.33 1559.07 2306.91 1560.49 2304.59 1561.65 2303.16 1561.65 2301.73 1561.65 2300.1 1562.37 2299.55 1563.26 2299 1564.14 2295.54 1564.81 2291.86 1564.76 2288.17 1564.71 2284.16 1565.28 2282.92 1566.05 2281.68 1566.81 2278.16 1567.27 2275.11 1567.07 2270.53 1566.76 2269.49 1567.37 2269.03 1570.61 2268.63 1573.43 2267.28 1574.56 2264.18 1574.69 2261.82 1574.79 2259.1 1575.09 2258.16 1575.34 2257.21 1575.58 2255.08 1575.61 2253.42 1575.44 2251.76 1575.28 2250.4 1575.82 2250.4 1576.62 2250.4 1578.9 2259.94 1583.98 2264.24 1583.98 2268.01 1583.98 2268.08 1584.08 2265.05 1587.42 2262 1590.77 2262.03 1590.85 2266.45 1590.85 2269.82 1590.85 2270.71 1591.49 2269.95 1593.48 2269.11 1595.66 2269.84 1595.94 2273.87 1594.99 2276.6 1594.34 2279.21 1593.85 2279.69 1593.86 2285.06 1593.97 2286.31 1594.55 2285.5 1596.65 2283.7 1601.33 2288.17 1601.2 2290.72 1596.49 2293.16 1592.01 2293.3 1591.95 2293.36 1595.58 2293.4 1597.7 2294.05 1599.5 2294.76 1599.6 2305.29 1601.14 2307.01 1600.63 2309.14 1595.52L2311.29 1590.37 2312.8 1594.45 2314.3 1598.59 2317.64 1594.29C2320.94 1590 2320.94 1589.99 2320.98 1593.86 2321.03 1599.07 2324.1 1598.78 2325.45 1593.43 2326.04 1591.07 2327.29 1589.14 2328.19 1589.14 2329.09 1589.14 2329.27 1589.97 2328.62 1591.01 2327.8 1592.34 2329.13 1592.57 2333.04 1591.71 2337.18 1590.8 2338.48 1591.01 2337.94 1592.63 2336.88 1595.79 2326.09 1601.16 2320.76 1601.16 2318.24 1601.16 2315.83 1602.13 2315.38 1603.31 2314.87 1604.63 2311.51 1605.38 2306.6 1605.3 2302.22 1605.22 2298.64 1605.76 2298.64 1606.48 2298.64 1609.78 2304.62 1613.36 2309.35 1612.87 2312.16 1612.57 2314.59 1613.01 2314.73 1613.89 2315.19 1616.75 2305.09 1618.36 2280.55 1619.31 2252.89 1620.38 2241.79 1621.59 2241.79 1623.44 2241.79 1624.16 2239.85 1624.38 2237.48 1623.93 2235.04 1623.46 2233.18 1623.89 2233.18 1624.95 2233.18 1627.35 2238.81 1630.37 2243.35 1630.37 2245.31 1630.37 2246.96 1631.14 2246.96 1632.09 2246.96 1633.03 2246.11 1633.8 2245.13 1633.8 2244.14 1633.8 2241.62 1635.4 2239.53 1637.4L2235.76 1641.05 2241.36 1640.3C2245.06 1639.8 2246.96 1640.24 2246.96 1641.64 2246.96 1642.92 2248.33 1643.42 2250.4 1642.88 2252.33 1642.38 2253.85 1642.83 2253.85 1643.9 2253.85 1646.67 2258.23 1646.27 2260.74 1643.26 2261.92 1641.84 2263.64 1640.68 2264.62 1640.68 2265.59 1640.68 2265.16 1642.06 2263.59 1643.79 2262.02 1645.52 2260.74 1647.45 2260.74 1648.09 2260.74 1649.91 2267.31 1649.46 2268.49 1647.55 2270.2 1644.8 2272.48 1645.56 2273.66 1649.27 2275.04 1653.62 2277.01 1653.59 2283.24 1649.16L2288.25 1645.62 2287.17 1650.88C2285.87 1657.35 2289 1657.87 2296 1652.38 2300.59 1648.78 2300.72 1648.78 2298.91 1652.17 2296.77 1656.16 2297.8 1658.05 2301.38 1656.68 2302.72 1656.16 2304.98 1656.69 2306.39 1657.86 2308.17 1659.33 2308.97 1659.41 2308.97 1658.07 2308.97 1657.01 2310.14 1656.14 2311.56 1656.14 2312.98 1656.14 2314.14 1657.2 2314.14 1658.56 2314.14 1660.22 2315.67 1660.85 2318.88 1660.49 2336.81 1658.46 2313.62 1668.86 2292.77 1672.19 2279.14 1674.37 2277.77 1674.29 2273.28 1671.33 2270.63 1669.59 2267.52 1668.17 2266.34 1668.17 2262.78 1668.15 2263.91 1671.59 2268.06 1673.38 2270.91 1674.6 2269.88 1674.73 2264.19 1673.86 2259.92 1673.2 2254.5 1672.77 2252.13 1672.89 2249.76 1673.01 2243.98 1671.99 2239.32 1670.64 2234.65 1669.28 2230.58 1668.4 2230.27 1668.7 2228.47 1670.5 2239.5 1677.58 2245.67 1678.58L2252.99 1679.76 2246.53 1679.98C2242.03 1680.13 2240.07 1680.98 2240.07 1682.77 2240.07 1684.19 2241.43 1685.47 2243.08 1685.62 2244.74 1685.76 2246.87 1686.04 2247.82 1686.26 2248.77 1686.48 2250.65 1686.74 2252.02 1686.85 2253.85 1687 2253.62 1687.69 2251.16 1689.48 2246.9 1692.59 2248.92 1694.82 2253.69 1692.27 2256.65 1690.69 2257.3 1690.86 2257.3 1693.19 2257.3 1695.39 2258.53 1695.84 2262.89 1695.23 2265.97 1694.8 2270.04 1693.88 2271.94 1693.19 2275.33 1691.94 2275.29 1691.96 2271.99 1694.64 2268.63 1697.36 2269.35 1698 2274.95 1697.43 2276.67 1697.25 2277.97 1698.32 2277.97 1699.84 2277.97 1703.52 2279.36 1703.22 2283.46 1698.66L2286.96 1694.8 2284.16 1699.47C2282.63 1702.03 2281.41 1704.92 2281.41 1705.91 2281.41 1708.57 2289.86 1706.61 2293.9 1703.01 2297.29 1700 2297.31 1700.06 2296 1704.25 2294.18 1710.07 2292.07 1711.3 2276.19 1716.06 2263 1720.01 2262.21 1720.06 2255.09 1717.35 2247.33 1714.39 2236.62 1713.55 2236.62 1715.9 2236.62 1716.65 2237.53 1718.25 2238.67 1719.39 2240.07 1720.78 2237.76 1720.57 2231.62 1718.74 2226.59 1717.25 2221.3 1716.46 2219.83 1717.03 2217.58 1717.89 2217.78 1718.74 2221.12 1722.29L2225.05 1726.48 2219.24 1724.81C2211.74 1722.67 2202.64 1722.67 2201.31 1724.81 2199.94 1727.02 2211.46 1731.73 2218.27 1731.74L2223.7 1731.74 2218.64 1735.76C2213.65 1739.75 2213.7 1744.98 2218.7 1743.07 2220.36 1742.43 2221.12 1743.47 2221.12 1746.39 2221.12 1749.44 2222.02 1750.64 2224.4 1750.64 2226.23 1750.64 2228.93 1751.82 2230.38 1753.27 2232.57 1755.45 2233.6 1755.51 2236.52 1753.7 2238.45 1752.49 2240.07 1750.92 2240.07 1750.21 2240.07 1749.49 2241.43 1750.27 2243.14 1751.92 2246.44 1755.11 2247.38 1759.23 2244.81 1759.23 2243.96 1759.23 2243.84 1760.06 2244.48 1761.11 2245.3 1762.43 2244.03 1762.68 2240.28 1761.86 2236.85 1761.11 2234.9 1761.32 2234.9 1762.5 2234.9 1763.55 2231.55 1764.38 2227.15 1764.38 2219.08 1764.38 2217.55 1765.87 2221.98 1769.53 2223.71 1770.96 2227.35 1771.34 2232.75 1770.66L2240.93 1769.64 2234.52 1773.03C2230.07 1775.38 2228.43 1777.24 2229.14 1779.09 2229.78 1780.76 2231.22 1781.32 2232.96 1780.6 2234.5 1779.96 2236.93 1779.27 2238.35 1779.04 2239.77 1778.81 2239.96 1778.96 2238.78 1779.36 2234.41 1780.86 2236.67 1783.62 2241.36 1782.53 2244.75 1781.74 2245.38 1781.92 2243.57 1783.12 2239.01 1786.14 2243.06 1787.01 2248.52 1784.19 2251.45 1782.68 2253.85 1782.17 2253.85 1783.06 2253.85 1783.96 2252.88 1785.06 2251.7 1785.48 2250.51 1785.9 2250.14 1786.89 2250.89 1787.68 2251.64 1788.48 2254.45 1788.28 2257.19 1787.25 2261.26 1785.72 2262.03 1785.83 2261.28 1787.79 2260.61 1789.52 2261.23 1789.84 2263.54 1789.02 2266.23 1788.08 2266.4 1788.3 2264.51 1790.31 2262.75 1792.19 2256.82 1792.64 2237.38 1792.35 2222.34 1792.13 2212.51 1792.64 2212.51 1793.64 2212.51 1794.55 2213.71 1795.31 2215.2 1795.31 2216.69 1795.31 2218.98 1796.4 2220.31 1797.72 2222.39 1799.79 2222.34 1800.28 2220.04 1801.16 2218.57 1801.72 2214.92 1802.17 2211.91 1802.18 2205.58 1802.21 2201.24 1804.45 2202.76 1806.9 2204.64 1809.94 2213.19 1810.49 2220.26 1808.03 2229.68 1804.76 2230.19 1804.94 2225.32 1809.8 2219.24 1815.86 2219.69 1819.51 2226.23 1817.64 2229.04 1816.84 2232.15 1815.67 2233.12 1815.06 2234.1 1814.46 2234.97 1815.4 2235.12 1817.11 2235.26 1818.82 2235.49 1821.09 2235.6 1822.21 2235.7 1823.32 2236.31 1824.8 2236.94 1825.43 2238.3 1826.78 2248.68 1820.99 2248.68 1818.88 2248.68 1818.08 2249.38 1817.89 2250.3 1818.45 2251.36 1819.1 2251.36 1821.03 2250.3 1823.82 2249.38 1826.21 2248.68 1828.94 2248.68 1829.88 2248.68 1832.15 2256.82 1826.28 2264.99 1818.12 2271.09 1812.05 2271.96 1813.09 2266.28 1819.68 2264.89 1821.3 2264.27 1823.94 2264.88 1825.53 2265.87 1828.11 2266.44 1827.96 2270.37 1824.3L2274.84 1820.22 2274.25 1824.51C2273.7 1828.46 2272.53 1828.98 2259.88 1831.07 2250.99 1832.53 2245.16 1832.76 2243.46 1831.71 2239.14 1829.05 2229.73 1827.47 2229.73 1829.4 2229.73 1830.35 2231.09 1831.5 2232.75 1831.92 2234.4 1832.35 2231.89 1832.34 2227.15 1831.92 2220.22 1831.32 2218.96 1831.58 2220.69 1833.32 2223.98 1836.64 2223.24 1837.87 2218.53 1836.97 2212.97 1835.91 2205.15 1837.89 2206.48 1840.03 2207.04 1840.95 2209.27 1841.7 2211.43 1841.7 2218.79 1841.7 2217.76 1844.06 2208.79 1847.66 2193.51 1853.78 2196.84 1858.34 2212.56 1852.81 2220.51 1850.01 2223.63 1850.5 2217.78 1853.62 2215.8 1854.67 2214.23 1856.75 2214.23 1858.23 2214.23 1860.3 2215.27 1860.67 2218.8 1859.79 2222.87 1858.77 2223.17 1858.94 2221.17 1861.35 2216.53 1866.92 2221.45 1866.94 2229.14 1861.35 2232.73 1858.74 2232.87 1858.76 2231.89 1862.58 2230.96 1866.16 2231.14 1866.34 2233.77 1864.19 2236.36 1862.07 2236.53 1862.17 2235.49 1865.05 2234.46 1867.89 2234.87 1867.8 2238.61 1864.41 2243 1860.43 2245.7 1860.76 2244.05 1865.05 2242.73 1868.47 2246.86 1868.02 2253.42 1864.03 2256.54 1862.13 2259.02 1861.48 2259.02 1862.53 2259.02 1863.69 2260.82 1863.99 2263.75 1863.33 2266.96 1862.61 2267.66 1862.76 2265.91 1863.82 2264.49 1864.67 2259.06 1866.23 2253.85 1867.31 2242.63 1869.61 2239.15 1871.5 2240.88 1874.29 2242.06 1876.2 2244.38 1875.99 2254.71 1873.21 2257.35 1872.5 2256.84 1873.59 2252.56 1877.72 2249.48 1880.69 2246.96 1883.47 2246.96 1883.95 2246.96 1885.66 2256.54 1883.54 2262.03 1880.62 2268.07 1877.42 2269 1878.4 2264.99 1883.68 2261.49 1888.3 2261.83 1890.33 2265.91 1889.27 2268.15 1888.68 2269.35 1889.25 2269.35 1890.82 2269.35 1894.04 2270.93 1893.86 2274.95 1890.23 2278.13 1887.36 2278.27 1887.38 2277.7 1890.66 2276.77 1895.9 2286.33 1894.32 2291.42 1888.41L2295.41 1883.79 2294.28 1889.37C2292.78 1896.76 2297.1 1896.96 2303.81 1889.8 2306.46 1886.97 2308.86 1884.65 2309.19 1884.65 2309.52 1884.65 2309.91 1886.65 2310.05 1889.1 2310.44 1895.86 2313.25 1897.68 2316.83 1893.51 2319.66 1890.21 2320.07 1890.15 2322.16 1892.86 2324.24 1895.55 2324.47 1895.51 2325.45 1892.06 2326.08 1889.82 2327.44 1888.68 2328.84 1889.21 2330.32 1889.78 2331.6 1888.43 2332.34 1885.51 2333.14 1882.34 2333.94 1881.54 2334.87 1883.04 2335.61 1884.24 2337.83 1885.47 2339.82 1885.77 2342.63 1886.2 2344.27 1884.63 2347.19 1878.63 2350.97 1870.89 2354.95 1867.9 2352.9 1874.34 2351.58 1878.5 2352.57 1878.61 2358.12 1874.98 2360.46 1873.46 2362.43 1870.56 2362.54 1868.54 2362.7 1865.61 2362.92 1865.47 2363.56 1867.9 2364.87 1872.9 2367.54 1869.43 2367.6 1862.64 2367.64 1857.49 2367.95 1856.87 2369.37 1859.31 2370.34 1860.96 2372.74 1862.31 2374.7 1862.31 2378.1 1862.31 2378.23 1862.94 2377.12 1875.63 2376.35 1884.49 2374.55 1891.73 2371.74 1897.27 2370.1 1900.51 2368.72 1903.4 2368.03 1905L2410.88 1905C2412.78 1903.48 2411.92 1900.82 2409.96 1896.14 2406.91 1888.85 2405.73 1873.96 2408.13 1873.16 2409.07 1872.85 2411.19 1874.88 2412.87 1877.72 2416.01 1883.02 2419.87 1884.98 2418.09 1880.35 2416.06 1875.06 2419.26 1877.96 2421.59 1883.52 2423.45 1887.96 2424.94 1889.28 2428.05 1889.05 2430.28 1888.88 2433.23 1889.55 2434.56 1890.55 2436.31 1891.86 2437.19 1891.8 2437.69 1890.34 2438.14 1888.98 2439.51 1889.42 2441.72 1891.63 2446.16 1896.05 2448.37 1895.84 2447.32 1891.09 2446.83 1888.83 2447.07 1887.97 2447.91 1889.05 2449.9 1891.59 2455.4 1893.44 2455.4 1891.58 2455.4 1889.84 2464.91 1890.45 2469.88 1892.49 2472.49 1893.56 2472.98 1893.22 2472.14 1891.04 2471.55 1889.52 2471.98 1887.96 2473.11 1887.55 2474.68 1886.97 2474.7 1886.23 2473.05 1884.49 2469.14 1880.35 2470.76 1879.82 2477.2 1883.09 2484.31 1886.71 2486.3 1886.18 2482.85 1881.64 2481.01 1879.22 2480.98 1879.02 2482.8 1880.62 2484.05 1881.73 2486.12 1882.25 2487.43 1881.75 2488.73 1881.25 2489.85 1881.53 2489.85 1882.39 2489.85 1883.26 2490.9 1885.43 2492.22 1887.23 2494.28 1890.04 2495.04 1890.17 2497.49 1888.14 2499.97 1886.09 2500.66 1886.34 2503.09 1889.8L2505.89 1893.78 2507.45 1889.64C2508.89 1885.8 2509.16 1885.73 2511.22 1888.52 2513.95 1892.2 2515.17 1892.26 2518.54 1888.89 2520.64 1886.8 2520.76 1885.75 2519.08 1883.74 2517.92 1882.35 2517.49 1881.21 2518.11 1881.21 2518.74 1881.21 2518.35 1879.47 2517.25 1877.35 2515.58 1874.11 2516.2 1874.3 2521.07 1878.69 2531.79 1888.36 2532.5 1888.71 2535.55 1885.67 2537.07 1884.15 2537.71 1881.98 2537.01 1880.78 2536.29 1879.56 2537.17 1879.76 2539.05 1881.27 2548.16 1888.56 2557.38 1889.99 2551.16 1883.15 2548.36 1880.05 2548.45 1879.81 2552.94 1878.69L2557.62 1877.51 2552.56 1873.43C2545.95 1868.03 2549.49 1868.02 2558.97 1873.43 2563.09 1875.78 2567.48 1877.71 2568.66 1877.72 2572.14 1877.76 2571.13 1875.02 2566.94 1873 2563.45 1871.32 2563.71 1871.12 2570.01 1871.01 2573.85 1870.95 2578.5 1869.77 2580.34 1868.38 2583.52 1865.98 2583.48 1865.86 2578.57 1865.8 2571.19 1865.72 2544.95 1860.96 2539.48 1858.72 2532.79 1855.97 2531.52 1851.77 2538.14 1854.26 2543.94 1856.45 2546.88 1854.64 2542.6 1851.52 2540.12 1849.71 2540.92 1849.5 2547.5 1850.02 2555.9 1850.68 2557.69 1848.57 2551.43 1845.4 2548.08 1843.7 2548.65 1843.49 2555.95 1843.84 2565.81 1844.33 2568.59 1841.09 2560.1 1839.01L2554.45 1837.62 2560.05 1836.97C2566.6 1836.19 2567.18 1834.42 2561.77 1831.66 2558.6 1830.04 2559.94 1829.82 2569.09 1830.58 2579.4 1831.44 2579.97 1831.31 2576.9 1828.86 2575.06 1827.4 2572.2 1826.23 2570.54 1826.23 2568.88 1826.23 2567.03 1825.38 2566.4 1824.35 2565.67 1823.18 2566.76 1822.58 2569.31 1822.8 2576.5 1823.4 2581.15 1822.83 2581.15 1821.29 2581.15 1820.47 2575.69 1819.26 2569.04 1818.61 2562.39 1817.96 2557.31 1816.8 2557.79 1816.03 2558.26 1815.27 2563.22 1813.62 2568.82 1812.38 2579.38 1810.04 2586.06 1806.55 2583.95 1804.43 2582.87 1803.36 2573.28 1804.91 2560.48 1808.3 2556.54 1809.34 2556.64 1809.02 2562.04 1804.38 2570.92 1796.75 2565.9 1795.97 2553.1 1802.98 2540.25 1810.03 2532.89 1810.61 2518.65 1805.72 2502.49 1800.18 2476.29 1786.92 2474.34 1783.28 2471.93 1778.78 2473.3 1778.92 2477.68 1783.6 2479.61 1785.67 2481.24 1786.73 2481.24 1785.97 2481.24 1785.2 2482.4 1785.54 2483.82 1786.72 2485.95 1788.49 2486.4 1788.32 2486.4 1785.75 2486.4 1783.16 2487.29 1783.48 2491.79 1787.68L2497.17 1792.73 2496.15 1787.2C2495.11 1781.75 2495.19 1781.69 2499.81 1783.66 2502.38 1784.75 2505.65 1786.54 2507.07 1787.63 2513.75 1792.76 2514.53 1792.65 2513.32 1786.61 2512.4 1782.05 2512.58 1781.26 2514.23 1782.91 2517.23 1785.9 2524.3 1785.56 2524.3 1782.42 2524.3 1779.22 2527.08 1779.06 2528.93 1782.15 2529.69 1783.42 2532.46 1785.79 2535.07 1787.47 2538.97 1789.98 2539.8 1790.08 2539.8 1788.01 2539.8 1786.63 2538.25 1784.13 2536.36 1782.42 2534.46 1780.71 2532.91 1778.49 2532.91 1777.54 2532.91 1776.58 2533.35 1776.31 2533.94 1776.89 2534.52 1777.48 2536.23 1776.76 2537.71 1775.28 2539.57 1773.42 2542.37 1772.86 2546.86 1773.46 2551.32 1774.05 2553.62 1773.6 2554.23 1772.01 2554.91 1770.25 2556.47 1770.07 2560.8 1771.31 2575.99 1775.65 2578.79 1770.7 2564.14 1765.4 2554.23 1761.82 2552.98 1760.01 2562.25 1762.66 2574.04 1766.04 2589.37 1763.48 2582.87 1759.23 2581.45 1758.3 2576.8 1757.42 2572.53 1757.3 2565.95 1757.1 2565.52 1756.93 2569.79 1756.01 2572.55 1755.41 2575.16 1753.84 2575.6 1752.52 2576.27 1750.5 2573.56 1750.28 2558.92 1751.28 2541.68 1752.47 2541.4 1752.47 2543.52 1749.08 2546.67 1744.04 2544.51 1743.17 2535.93 1746.07 2531.29 1747.64 2525.34 1748.3 2520.69 1747.74 2510.74 1746.53 2477.78 1735.51 2473.91 1732.11 2469.87 1728.56 2470.09 1726.1 2474.34 1727.44 2476.28 1728.05 2477.79 1727.74 2477.79 1726.75 2477.79 1724.88 2480.37 1725.42 2488.99 1729.16 2491.83 1730.4 2498.07 1731.44 2502.88 1731.47 2507.68 1731.5 2512.34 1731.68 2513.21 1731.85 2517.25 1732.61 2517.67 1731.44 2514.67 1727.87 2512.51 1725.31 2513.18 1725.6 2516.66 1728.73 2522.62 1734.11 2524.3 1734.56 2524.3 1730.83 2524.3 1728.56 2524.86 1728.57 2528.72 1731.09 2531.32 1732.79 2533.65 1733.33 2534.31 1732.38 2534.94 1731.49 2537.78 1729.76 2540.61 1728.52 2545.56 1726.34 2545.64 1726.18 2542.44 1723.85 2538.54 1721 2539.54 1720.77 2545.67 1723.09 2549.01 1724.36 2550.14 1724.24 2550.14 1722.56 2550.14 1721.2 2554.51 1719.41 2561.34 1717.99 2567.5 1716.71 2572.53 1714.96 2572.53 1714.13 2572.53 1713.3 2573.26 1713.12 2574.2 1713.7 2575.14 1714.28 2577.29 1713.98 2578.94 1713.05 2581.57 1711.59 2581.33 1711.2 2577.17 1710.16 2573.57 1709.26 2572.65 1708.2 2573.4 1705.86 2574.13 1703.56 2573.36 1702.64 2570.44 1702.21 2567.65 1701.8 2569.63 1700.59 2577.22 1698.18 2588.98 1694.45 2591.89 1691.06 2581.58 1693.08 2572.06 1694.94 2548.42 1695.37 2548.42 1693.67 2548.42 1692.87 2549.19 1692.22 2550.14 1692.22 2551.09 1692.22 2551.86 1691.44 2551.86 1690.5 2551.86 1689.57 2548.18 1688.86 2543.68 1688.95 2532.38 1689.18 2514.31 1685.41 2513.21 1682.56 2512.59 1680.95 2513.71 1680.2 2516.6 1680.2 2518.94 1680.2 2520.86 1679.45 2520.86 1678.53 2520.86 1677.62 2522.02 1677.29 2523.44 1677.83 2524.86 1678.38 2526.02 1677.91 2526.02 1676.81 2526.02 1675.49 2527.32 1675.75 2529.85 1677.51 2531.95 1678.98 2535.63 1680.17 2538.03 1680.14L2542.39 1680.09 2538.4 1676.76 2534.48 1673.48 2542.71 1672.95 2551 1672.36 2544.97 1669.46 2538.94 1666.56 2544.22 1666.5C2547.58 1666.46 2551.02 1664.88 2553.59 1662.16 2555.81 1659.79 2558.42 1657.86 2559.45 1657.86 2560.48 1657.86 2562.35 1656.28 2563.54 1654.37 2566.69 1649.34 2562.68 1648.33 2552.78 1651.68 2542.1 1655.3 2539.88 1655.2 2540.99 1650.99 2542.08 1646.84 2541.79 1646.81 2530.98 1650.34 2522.75 1653.03 2521.89 1652.95 2508.74 1649.22 2491.01 1644.18 2486.47 1639.46 2500.13 1640.25 2501.54 1640.33 2503.23 1639.55 2503.9 1638.48 2504.75 1637.11 2506.17 1637.43 2508.58 1639.6 2511.28 1642.04 2513.54 1642.46 2519.03 1641.54 2526.85 1640.22 2527.34 1639.57 2523.01 1636.01 2519.91 1633.46 2521.06 1633.54 2528.45 1636.49 2531.09 1637.55 2531.54 1637.23 2530.65 1634.93 2529.84 1632.82 2530.49 1632.09 2533.13 1632.09 2535.53 1632.09 2536.4 1631.27 2535.77 1629.62 2535.24 1628.26 2535.71 1626.76 2536.84 1626.29 2538.29 1625.68 2538.09 1624.7 2536.09 1623.07 2533.47 1620.93 2533.58 1620.44 2537.38 1616.79 2543.59 1610.83 2542.44 1609.58 2533.34 1612.49 2510.74 1619.72 2502.45 1620.15 2496.9 1614.26 2493.76 1610.92 2493.57 1610.02 2495.66 1609.22 2497.07 1608.68 2500.54 1609.1 2503.41 1610.18 2510.78 1612.95 2512.35 1610.19 2506.21 1605.24 2501.91 1601.77 2501.62 1601.13 2504.49 1601.38 2510.52 1601.9 2513.97 1601.22 2513.97 1599.44 2513.97 1598.5 2512.61 1597.68 2510.95 1597.62 2508.51 1597.53 2508.6 1597.2 2511.54 1596.01 2513.54 1595.2 2515.64 1593.34 2516.23 1591.82 2517.15 1589.43 2516.8 1589.32 2513.48 1591.18 2507.47 1594.53 2471.57 1594.02 2464.01 1590.48 2458.72 1588 2458.44 1587.65 2462.02 1587.53 2465.28 1587.41 2465.95 1586.7 2465.19 1583.82 2464.35 1580.6 2464.53 1580.47 2467.13 1582.69 2470.91 1585.92 2476.07 1587.72 2476.07 1585.81 2476.07 1584.98 2477.62 1584.67 2479.51 1585.16 2481.44 1585.67 2482.96 1585.21 2482.96 1584.14 2482.96 1583.09 2484.9 1582.26 2487.26 1582.26 2492.99 1582.26 2492.71 1580.55 2486.08 1575.12L2480.54 1570.61 2489.74 1572.06C2499.24 1573.56 2502.69 1572.94 2500.88 1570.02 2499.12 1567.17 2503.75 1563.36 2508.96 1563.36 2514.83 1563.36 2515.64 1560.53 2510.09 1559.34 2507.89 1558.87 2508.82 1558.56 2512.24 1558.69 2516.16 1558.84 2518.12 1558.23 2517.84 1556.87 2517.61 1555.72 2518.23 1554.77 2519.3 1554.77 2520.6 1554.77 2520.53 1553.9 2519.03 1552.09 2517.6 1550.38 2515.18 1549.69 2512.35 1550.26 2509.91 1550.76 2508.91 1550.78 2510.09 1550.26 2514.07 1548.54 2512.3 1545.79 2507.94 1546.88 2504.44 1547.76 2503.91 1547.42 2504.81 1545.06 2505.63 1542.94 2505.27 1542.56 2503.58 1543.61 2502.3 1544.39 2499.29 1545.18 2496.85 1545.38 2494.4 1545.58 2490.49 1546.28 2488.13 1546.93L2483.82 1548.12 2488.56 1544.09C2494.03 1539.4 2494.83 1536.66 2489.96 1539.26 2485.15 1541.82 2481.63 1541.61 2484.3 1538.93 2488.17 1535.08 2486.64 1532.04 2482.69 1535.71 2480.67 1537.59 2476.6 1540.27 2473.65 1541.67 2463.12 1546.65 2434.72 1539.87 2434.72 1532.39 2434.72 1530.89 2433.76 1528.74 2432.62 1527.61 2431.24 1526.23 2431.2 1525.57 2432.46 1525.57 2433.5 1525.57 2434.77 1526.72 2435.32 1528.14 2435.95 1529.78 2438.41 1530.64 2441.99 1530.51 2445.1 1530.39 2449.39 1530.89 2451.52 1531.58 2454.7 1532.62 2455.4 1532.16 2455.4 1529.22L2455.4 1525.67 2461.26 1529.11C2465.48 1531.59 2467.48 1532.04 2468.37 1530.61 2469.05 1529.52 2468.54 1527.89 2467.24 1527.02 2465.19 1525.64 2475.25 1525.83 2482.1 1527.28 2483.04 1527.48 2485.58 1527.07 2487.75 1526.37 2491.39 1525.21 2491.45 1524.85 2488.93 1522.08 2486.4 1519.29 2486.54 1519.01 2490.6 1518 2495.58 1516.75 2496.57 1513.53 2492 1513.43 2490.1 1513.39 2490.9 1512.51 2494.16 1511.02 2497 1509.71 2501.6 1506.77 2504.38 1504.47L2509.39 1500.28 2503.09 1499.1C2499.6 1498.44 2496.74 1497.17 2496.74 1496.25 2496.74 1495.29 2494.73 1495.04 2492 1495.71 2487.87 1496.74 2487.5 1496.59 2489.42 1494.26 2492.74 1490.23 2487.79 1489.01 2482.69 1492.6 2480.3 1494.28 2475.12 1495.53 2470.14 1495.61 2463.36 1495.71 2462.39 1495.37 2465.35 1494.05 2468.7 1492.56 2469.04 1491.16 2467.56 1484.6 2467.49 1484.29 2464.83 1485.64 2461.64 1487.61 2458.45 1489.57 2453.22 1491.16 2450.01 1491.15 2439.27 1491.12 2420.79 1483.98 2409.05 1475.31 2404.53 1471.97 2405.48 1471.28 2410.71 1474.08 2413.43 1475.52 2414.06 1475.28 2414.11 1472.79 2414.16 1469.86 2414.24 1469.83 2415.94 1472.73 2416.91 1474.41 2418.41 1475.36 2419.27 1474.83 2420.14 1474.3 2422.8 1475.14 2425.2 1476.71 2429.5 1479.52 2429.53 1479.48 2429.56 1474.61 2429.57 1471.91 2430.15 1470.57 2430.85 1471.61 2432.36 1473.86 2438.86 1477.46 2441.45 1477.46 2442.46 1477.46 2443.4 1475.72 2443.5 1473.59 2443.66 1469.92 2443.71 1469.95 2444.84 1474.02 2445.5 1476.39 2446.41 1477.96 2446.84 1477.57 2447.27 1477.17 2449.23 1477.7 2451.2 1478.75 2454.11 1480.3 2455.21 1480.05 2457.12 1477.41 2458.41 1475.62 2460.13 1474.59 2460.94 1475.1 2461.75 1475.6 2461.88 1474.01 2461.26 1471.55 2460.19 1467.27 2460.33 1467.15 2464.87 1468.87 2470.47 1470.99 2472.21 1469.94 2469.18 1466.29 2467.36 1464.11 2467.54 1463.71 2470.09 1463.71 2472.99 1463.71 2472.95 1463.53 2470.14 1460.44 2468.52 1458.64 2467.92 1456.74 2468.8 1456.2 2469.68 1455.65 2471.76 1456.72 2473.43 1458.56 2476.06 1461.45 2477.74 1461.71 2484.41 1460.39 2484.76 1460.32 2484.23 1459.24 2483.17 1457.97 2480.93 1455.27 2482.26 1453.41 2486.46 1453.41 2488.09 1453.41 2491.27 1451.88 2493.51 1450.02L2497.6 1446.64 2492.43 1446.32C2489.59 1446.14 2485.36 1446.16 2483.06 1446.37 2479.43 1446.7 2479.15 1446.39 2481.13 1444.01 2484.89 1439.48 2482.24 1439.5 2475.58 1444.01 2468.36 1448.9 2464.01 1449.76 2467.45 1445.62 2469.27 1443.43 2469.17 1443.16 2466.81 1444.06 2463.52 1445.32 2463.04 1442.99 2466 1440.04 2470.41 1435.64 2465.73 1436.3 2460.29 1440.84 2449.59 1449.79 2448.27 1450.08 2436.18 1446.42 2423.5 1442.6 2414.99 1437.82 2412.44 1433.06 2410.87 1430.14 2411.23 1429.73 2414.97 1429.94 2417.33 1430.08 2419.62 1431.39 2420.08 1432.84 2420.55 1434.3 2422.56 1435.59 2424.55 1435.74 2427.46 1435.96 2427.97 1435.27 2427.19 1432.31 2426.32 1429.01 2426.69 1429.13 2430.26 1433.27 2432.46 1435.83 2435.98 1437.94 2438.12 1437.94 2441.49 1437.94 2441.89 1437.29 2441.02 1432.95 2439.72 1426.45 2443.76 1424.65 2447.97 1429.89 2450.84 1433.47 2460.53 1435.98 2460.56 1433.16 2460.57 1432.47 2458.05 1429.83 2454.97 1427.26 2450.68 1423.69 2450.1 1422.57 2452.43 1422.53 2454.12 1422.51 2455.93 1423.59 2456.47 1425 2457.02 1426.42 2458.11 1427.2 2458.89 1426.72 2459.68 1426.24 2460.78 1426.62 2461.37 1427.58 2461.97 1428.54 2464.53 1429.35 2467.02 1429.35 2471.36 1429.35 2471.41 1429.23 2468.21 1426.88 2464.98 1424.52 2465.04 1424.37 2469.71 1422.59 2472.38 1421.57 2475.48 1420.74 2476.6 1420.71 2477.73 1420.67 2476.71 1419.55 2474.34 1418.24 2470.14 1415.92 2470.19 1415.86 2476.71 1416.47 2480.94 1416.86 2484.31 1416.19 2485.86 1414.64 2489.65 1410.86 2486.97 1408.73 2478.44 1408.73 2473.67 1408.73 2471.1 1408.03 2471.76 1406.96 2473.93 1403.46 2467.57 1403.4 2460.4 1406.86 2451.62 1411.09 2449.98 1411.31 2451.3 1407.88 2451.93 1406.26 2451.29 1405.3 2449.58 1405.3 2447.88 1405.3 2447.24 1404.34 2447.86 1402.72 2449.02 1399.71 2448.42 1399.6 2442.74 1401.76 2439.05 1403.15 2438.65 1402.94 2439.41 1400.04 2440.31 1396.58 2437.42 1395.38 2435.53 1398.43 2434.94 1399.38 2431.29 1401.82 2427.4 1403.8 2421.16 1406.98 2419.54 1407.13 2413.41 1405.3 2407.69 1403.59 2406.96 1402.94 2409.37 1401.59 2410.98 1400.7 2412.33 1398.79 2412.33 1397.35 2412.33 1395.32 2410.56 1394.84 2404.52 1395.2 2398.65 1395.57 2395.94 1394.84 2393.43 1392.31 2389.65 1388.49 2386 1374.87 2388.37 1373.41 2389.84 1372.5 2390.67 1376.16 2390.04 1380.87 2389.88 1382.08 2391.4 1385.38 2393.43 1388.23 2396.39 1392.36 2397.64 1392.99 2399.57 1391.39 2400.9 1390.29 2402.05 1387.38 2402.16 1384.9 2402.31 1381.33 2402.57 1381.11 2403.23 1383.82 2404.54 1389.16 2409.01 1393.27 2413.51 1393.27 2417.03 1393.27 2417.36 1392.8 2415.83 1389.94 2413.58 1385.75 2413.56 1384.18 2415.78 1385.54 2416.72 1386.12 2417.5 1385.79 2417.5 1384.79 2417.5 1383.79 2418.27 1382.96 2419.22 1382.96 2420.17 1382.96 2420.94 1384.05 2420.94 1385.38 2420.94 1388.46 2431.01 1397.04 2433.11 1395.74 2433.98 1395.21 2434.72 1393.28 2434.72 1391.45 2434.72 1389.61 2435.5 1388.12 2436.5 1388.12 2437.5 1388.12 2437.87 1387.15 2437.25 1385.97 2436.64 1384.79 2437.58 1385.57 2439.35 1387.74 2441.13 1389.91 2443.18 1391.12 2443.88 1390.43 2444.57 1389.73 2446.83 1388.89 2448.94 1388.6 2453.6 1387.95 2460.56 1384.53 2460.56 1382.86 2460.56 1382.18 2458.26 1380.69 2455.45 1379.53 2452.64 1378.37 2450.51 1376.53 2450.71 1375.45 2450.92 1374.35 2448.73 1373.39 2445.81 1373.3 2439.79 1373.1 2431.02 1369.02 2434.29 1367.93 2435.48 1367.54 2436.45 1366.1 2436.45 1364.76 2436.45 1362.04 2427.83 1361.34 2425.14 1363.85 2422.54 1366.28 2415.78 1367.86 2415.78 1366.05 2415.78 1365.14 2417.74 1363.93 2420.19 1363.31 2423.86 1362.39 2424.28 1361.73 2422.56 1359.66 2420.86 1357.62 2421.11 1357.18 2423.74 1357.14 2427.58 1357.07 2434.06 1352.5 2432.52 1350.96 2431.92 1350.37 2427.89 1349.51 2423.58 1349.03 2414.96 1348.06 2415 1348.09 2417.55 1343.34 2419.2 1340.26 2419.62 1340.21 2423.42 1342.69 2427.25 1345.2 2427.58 1345.12 2428.64 1341.78 2429.26 1339.82 2430.51 1338.66 2431.39 1339.21 2432.27 1339.75 2433 1339.4 2433 1338.4 2433 1337.4 2434.55 1336.57 2436.45 1336.57 2438.34 1336.57 2439.89 1335.47 2439.89 1334.16 2439.89 1331.53 2436.25 1329.7 2431.12 1329.7 2427.21 1329.7 2426.68 1326.55 2430.36 1325.14 2431.78 1324.6 2432.58 1323.59 2432.14 1322.88 2431.7 1322.18 2433.28 1320.6 2435.64 1319.34 2441.44 1316.24 2440.01 1313.38 2432.62 1313.38L2426.54 1313.38 2430.9 1307.69C2434.3 1303.25 2434.76 1301.58 2433.11 1299.96 2431.47 1298.34 2429.8 1299.22 2425.36 1304.04 2420.09 1309.75 2419.54 1309.97 2417.71 1307.04 2416.63 1305.31 2414.97 1303.93 2414.05 1303.93 2412 1303.93 2406.56 1313.54 2405.39 1319.29 2404.51 1323.53 2388.66 1337.08 2386.28 1335.61 2385.59 1335.19 2385.26 1330.6 2385.47 1325.41 2385.67 1320.21 2385.16 1315.96 2384.34 1315.96 2383.51 1315.96 2383.07 1313.1 2383.37 1309.62 2383.81 1304.34 2384.68 1303.06 2388.7 1302 2392.86 1300.9 2393.39 1301.14 2392.52 1303.88 2390.95 1308.81 2395.15 1310.07 2398.49 1305.65 2400.26 1303.31 2401.92 1302.43 2402.58 1303.5 2403.76 1305.4 2410.61 1304.39 2410.61 1302.32 2410.61 1300.72 2402.03 1292.72 2400.54 1292.92 2399.91 1293.01 2398.04 1292.71 2396.4 1292.28 2391.53 1291.01 2394.7 1288.6 2399.84 1289.65 2408.47 1291.41 2416.26 1291.08 2417.01 1288.9 2417.42 1287.72 2416.62 1286.75 2415.24 1286.75 2413.85 1286.75 2411.78 1285.58 2410.61 1284.17 2409.44 1282.77 2407.79 1282.04 2406.95 1282.56 2406.11 1283.08 2405.44 1282.9 2405.44 1282.13 2405.44 1281.37 2407.77 1279.19 2410.61 1277.3 2415.82 1273.82 2417.25 1271.29 2414 1271.29 2410.86 1271.29 2399.58 1276.49 2398.06 1278.64 2397.17 1279.92 2396.99 1279.25 2397.63 1276.98 2398.21 1274.93 2397.93 1272.8 2397.04 1272.25 2395.17 1271.1 2388.21 1282.15 2388.21 1286.27 2388.21 1287.79 2387.7 1288.55 2387.08 1287.93 2386.46 1287.31 2384.88 1288.12 2383.58 1289.76 2381.53 1292.35 2381.36 1291.65 2382.13 1284.33 2382.84 1277.53 2384.46 1274.22 2390.74 1266.88 2395.01 1261.9 2398.55 1256.71 2398.55 1255.34 2398.55 1251.21 2389.89 1253.93 2388.1 1258.62 2385.26 1266.08 2382.13 1263.49 2382.78 1254.21 2383.25 1247.44 2382.63 1244.89 2379.76 1241.81L2376.15 1238ZM2364.47 1298.29C2365.26 1298.34 2367.13 1299.83 2369.26 1302.21 2372.81 1306.17 2374.43 1309.74 2374.43 1313.65 2374.43 1316.78 2374.1 1319.39 2373.73 1319.39 2372.81 1319.39 2370.59 1314.07 2369.8 1310 2369.45 1308.16 2368.03 1305.42 2366.63 1303.88 2365.23 1302.33 2364.1 1300 2364.1 1298.72 2364.1 1298.4 2364.21 1298.28 2364.47 1298.29ZM2360.27 1323.53C2363.55 1323.77 2371.5 1329.24 2372.76 1332.55 2375.01 1338.43 2373.73 1339.53 2369.86 1335.02 2368.16 1333.04 2365.81 1331.42 2364.64 1331.42 2362.64 1331.42 2357.94 1324.78 2359.2 1323.74 2359.44 1323.54 2359.81 1323.49 2360.27 1323.53ZM2407.32 1337.54C2407.74 1337.54 2408.24 1337.62 2408.78 1337.76 2411.62 1338.5 2410.95 1339.52 2404.31 1344.57 2400 1347.85 2394.97 1350.67 2393.16 1350.8 2391.36 1350.94 2389.93 1351.62 2389.93 1352.36 2389.93 1353.1 2389.06 1353.76 2388.05 1353.76 2387.04 1353.76 2386.46 1352.02 2386.76 1349.89 2387.23 1346.54 2388.22 1346.08 2393.81 1346.56 2398.78 1346.99 2400.27 1346.5 2400.27 1344.41 2400.27 1342.92 2401.43 1341.73 2402.85 1341.73 2404.27 1341.73 2405.44 1340.64 2405.44 1339.31 2405.44 1338.15 2406.08 1337.53 2407.32 1337.54ZM2387.35 1362.13 2391.39 1364.12C2393.61 1365.19 2397.29 1365.6 2399.57 1365.03 2401.92 1364.44 2403.71 1364.74 2403.71 1365.73 2403.71 1366.69 2402.97 1367.5 2402.1 1367.5 2401.23 1367.5 2399.4 1367.9 2398.06 1368.41 2396.72 1368.93 2393.78 1367.71 2391.49 1365.73L2387.35 1362.13ZM2406.25 1366.37C2406.64 1366.43 2407.21 1366.83 2408.02 1367.5 2409.95 1369.09 2410.61 1369.12 2410.61 1367.61 2410.61 1366.49 2411.45 1366.13 2412.55 1366.8 2413.92 1367.65 2413.56 1368.74 2411.36 1370.34 2406.92 1373.58 2405.44 1373.23 2405.44 1369 2405.44 1367.1 2405.59 1366.28 2406.25 1366.37ZM2432.19 1372.65C2433.67 1372.65 2434.45 1373.43 2433.86 1374.37 2432.48 1376.59 2429.55 1376.59 2429.55 1374.37 2429.55 1373.43 2430.72 1372.65 2432.19 1372.65ZM2391.66 1400.14C2392.6 1400.14 2393.38 1404.01 2393.38 1408.73 2393.38 1417.44 2393.12 1418.19 2391.06 1416.14 2389.23 1414.31 2389.76 1400.14 2391.66 1400.14ZM2378.52 1423.07C2379.14 1422.97 2379.6 1423.34 2379.6 1424.09 2379.6 1425.09 2378.82 1425.91 2377.88 1425.91 2375.67 1425.91 2375.67 1424.7 2377.88 1423.34 2378.11 1423.19 2378.32 1423.1 2378.52 1423.07ZM2392.41 1426.72C2392.51 1426.71 2392.67 1426.86 2392.79 1427.15 2393.26 1428.31 2393.28 1430.63 2392.84 1432.3 2392.4 1433.98 2392.01 1433.04 2391.98 1430.21 2391.95 1428.08 2392.11 1426.75 2392.41 1426.72ZM2370.98 1427.63C2371.93 1427.63 2372.71 1427.97 2372.71 1428.38 2372.71 1428.8 2371.93 1429.63 2370.98 1430.21 2370.04 1430.79 2369.26 1430.46 2369.26 1429.46 2369.26 1428.46 2370.04 1427.63 2370.98 1427.63ZM2362.37 1431.07C2363.32 1431.07 2364.09 1431.4 2364.09 1431.82 2364.09 1432.24 2363.32 1433.06 2362.37 1433.65 2361.42 1434.23 2360.65 1433.89 2360.65 1432.89 2360.65 1431.89 2361.42 1431.07 2362.37 1431.07ZM2326.52 1431.12C2327.7 1431.24 2329.16 1432.01 2330.29 1433.43 2333.78 1437.82 2339.57 1438.4 2342.78 1434.67 2345.62 1431.36 2349.66 1431.32 2347.62 1434.61 2347.08 1435.49 2347.82 1436.22 2349.24 1436.22 2350.66 1436.22 2352.31 1435.45 2352.9 1434.51 2354.29 1432.26 2357.2 1432.25 2357.2 1434.51 2357.2 1435.47 2355.07 1437.11 2352.47 1438.1 2349.86 1439.1 2343.3 1440.3 2337.93 1440.79 2329.38 1441.56 2327.94 1441.26 2326.3 1438.21 2325.28 1436.29 2324.47 1433.9 2324.47 1432.89 2324.47 1431.59 2325.34 1431.01 2326.52 1431.12ZM2484.57 1522.13C2485.57 1522.13 2486.4 1522.9 2486.4 1523.85 2486.4 1526.05 2485.18 1526.05 2483.82 1523.85 2483.23 1522.9 2483.57 1522.13 2484.57 1522.13ZM2340.57 1542.75C2341.62 1542.75 2339.58 1544.29 2336.05 1546.18 2329.79 1549.53 2326.2 1550.46 2326.2 1548.76 2326.2 1547.69 2338.03 1542.75 2340.57 1542.75ZM2489.31 1616.14C2491.21 1616.13 2493.09 1616.33 2494.26 1616.79 2496.61 1617.71 2495.46 1618.1 2490.28 1618.18 2486.25 1618.25 2482.96 1618.01 2482.96 1617.65 2482.96 1616.73 2486.15 1616.16 2489.31 1616.14ZM2527.85 1625.43C2528.45 1625.41 2529.17 1625.5 2529.79 1625.75 2531.17 1626.3 2530.72 1626.69 2528.71 1626.77 2526.9 1626.85 2525.88 1626.43 2526.45 1625.86 2526.74 1625.57 2527.25 1625.45 2527.85 1625.43ZM2528.28 1668.22C2528.36 1668.2 2528.49 1668.22 2528.61 1668.22 2529.55 1668.22 2531.49 1668.97 2532.91 1669.89 2534.33 1670.8 2534.72 1671.55 2533.77 1671.55 2532.83 1671.55 2530.89 1670.8 2529.47 1669.89 2528.22 1669.08 2527.74 1668.38 2528.28 1668.22ZM2228.22 1737.64C2229.03 1737.52 2229.26 1737.88 2228.81 1738.61 2228.23 1739.54 2227.06 1740.33 2226.17 1740.33 2223.69 1740.33 2224.21 1739.05 2227.19 1737.91 2227.58 1737.77 2227.95 1737.68 2228.22 1737.64ZM2256.05 1752.41 2259.98 1756.6 2263.85 1760.78 2266.82 1756.27C2269.51 1752.17 2269.88 1752.09 2271.44 1754.88 2272.73 1757.16 2273.51 1757.35 2274.51 1755.74 2275.46 1754.21 2276.16 1754.64 2276.99 1757.24 2278.17 1760.94 2281.4 1762.4 2281.4 1759.23 2281.4 1758.28 2283.54 1757.5 2286.14 1757.51L2290.88 1757.51 2285.71 1760.25C2282.38 1762 2277.92 1762.64 2273.22 1762.13 2269.21 1761.69 2266.36 1762.05 2266.87 1762.88 2268.23 1765.07 2265.66 1764.67 2260.36 1761.91 2257.65 1760.5 2255.51 1760.19 2255.19 1761.16 2254.88 1762.08 2253.22 1762.29 2251.53 1761.64 2248.67 1760.55 2248.74 1760.19 2252.28 1756.44L2256.05 1752.41ZM2296.1 1754.29C2296.46 1754.28 2296.81 1754.29 2297.12 1754.39 2298.41 1754.82 2297.62 1755.61 2295.29 1756.22 2292.43 1756.97 2291.75 1756.74 2293.03 1755.47 2293.78 1754.72 2295.01 1754.3 2296.1 1754.29ZM2278.61 1825.11C2279.22 1825 2279.68 1825.38 2279.68 1826.13 2279.68 1827.13 2278.91 1827.95 2277.96 1827.95 2275.75 1827.95 2275.75 1826.74 2277.96 1825.38 2278.2 1825.23 2278.4 1825.14 2278.61 1825.11Z" fill-rule="evenodd"/></g></svg>