<svg width="1257" height="1220" xmlns="http://www.w3.org/2000/svg" xmlns:xlink="http://www.w3.org/1999/xlink" xml:space="preserve" overflow="hidden"><defs><clipPath id="clip0"><rect x="2200" y="1237" width="1257" height="1220"/></clipPath></defs><g clip-path="url(#clip0)" transform="translate(-2200 -1237)"><path d="M3342.46 1938.61C3326.95 1937.52 3310.49 1930.26 3290.29 1928.74 3271.61 1927.89 3217.06 1953.11 3209.78 1944.86 3208.34 1945.87 3208.74 1938.4 3201.07 1929.56 3197.26 1926.19 3194.38 1924.81 3193.16 1924.8 3178.26 1919.35 3136.14 1913.4 3123.21 1914.41 3111.33 1915.6 3100.37 1918.8 3090.07 1922.52 3153.07 1860.88 3133.19 1857.09 3175.83 1789.22 3186.64 1773.28 3185.36 1767.32 3236.41 1762.7 3265.86 1760.62 3274.49 1761.07 3283.82 1753.31 3285.89 1751 3286.69 1749.44 3286.68 1748.98 3287.71 1746.9 3291.86 1737.71 3292.93 1736.27 3300.91 1723.86 3327.02 1714.48 3334.09 1700.69 3333.56 1697.85 3332.73 1695.83 3331.79 1694.57 3332.02 1694.16 3332.26 1693.79 3332.47 1693.25 3332.16 1692.52 3337 1692.09 3340.84 1686.86 3341.47 1681.87 3340.13 1679.45 3339.43 1679.05 3366.47 1583.76 3359.45 1625.16 3384.74 1561.42 3354.13 1626.31 3365.41 1581.82 3332.02 1677.68 3331.83 1680.55 3332.38 1682.51 3332.97 1683.62 3331.55 1684.04 3328.71 1684.84 3325.65 1688.12 3323.98 1688.78 3321.26 1692.04 3321.74 1698.34 3322.16 1698.84 3322.54 1699.16 3322.94 1699.58 3302.16 1716.1 3288.93 1716.17 3277.38 1738.33 3272.77 1746.88 3275.15 1744.09 3261.95 1746.15 3229.03 1748.53 3186.52 1739.38 3162.15 1772.86 3164.39 1765.79 3170 1758.99 3172.97 1750.3 3177.58 1736.22 3173.64 1721.89 3179.23 1711.82 3181.62 1707.27 3186.04 1703.01 3188.28 1697.07 3191.43 1688.16 3191.23 1679.28 3193.9 1671.87 3196.44 1664.76 3200.65 1658.07 3202.49 1650.7 3203.81 1645.06 3202.39 1639.87 3202.87 1635.32 3206.64 1600.77 3215.71 1599.7 3226.01 1589.55 3234.99 1580.81 3232.33 1574.69 3232.33 1574.69 3235.92 1584.22 3217.8 1593.81 3211.52 1601.82 3198.39 1618.73 3201 1645.1 3199.54 1649.91 3197.67 1656.61 3193.32 1662.92 3190.3 1670.51 3187.09 1678.7 3186.93 1687.76 3183.83 1695.39 3182.12 1699.93 3177.71 1703.72 3174.55 1709.24 3167.72 1721.74 3170.89 1736.9 3166.63 1748.07 3163.98 1755.36 3157.82 1762.08 3154.64 1771.35 3152.38 1778.07 3152.47 1784.49 3149.89 1788.52 3147.92 1792.01 3140.52 1793.02 3140.05 1807.28 3135.17 1815.61 3130.54 1823.94 3125.92 1832.27 3083.51 1861.36 3097.05 1867.51 3093.16 1879.31 3078.48 1894.11 3060.08 1909.63 3043.81 1922.73 3042.96 1921.31 3042.4 1920.51 3043.09 1920.57 3049.17 1908.93 3050.76 1895.61 3049.39 1883 3046.1 1856.93 3021.74 1855.28 3030.7 1824.2 3032.13 1819.37 3031.62 1814.95 3033.31 1812 3037.62 1803.78 3038.35 1795.07 3042.75 1789.1 3045.8 1784.81 3050.53 1781.59 3054.03 1777.29 3055.92 1774.87 3055.76 1772.21 3057.01 1771.45 3062.31 1766.93 3068.94 1770.85 3078.27 1752.93 3084.31 1741.02 3102.5 1740.55 3098.86 1728.16 3101.84 1740.59 3084.45 1739.8 3077.08 1752.28 3067.17 1769.32 3062.58 1764.29 3055.48 1769.48 3053.19 1771.47 3053.02 1774.37 3051.92 1775.51 3048.61 1779.29 3043.81 1782.27 3040.03 1787.05 3034.79 1793.89 3033.5 1802.94 3029.46 1809.88 3027.05 1814.38 3027.22 1819.21 3026.03 1822.72 3014.82 1855.57 3041.38 1863.25 3042 1883.63 3043.78 1914.03 3029.48 1915.33 3036.04 1928.95 3011.02 1948.46 3001.23 1962.05 2925.48 1961.64 2911.2 1950.59 2892.4 1946.08 2875.96 1949.55 2883.51 1936.2 2885.77 1928.95 2885.32 1915.37 2887.28 1907.02 2887.53 1900.63 2886.85 1896.37 2889.63 1888.68 2891.81 1878.08 2886.54 1858.94 2887.78 1853.02 2888.01 1851.73 2888.11 1846.69 2889.2 1844.5 2889.2 1843.27 2888.06 1843.23 2887.85 1834.6 2886.28 1827.77 2884.44 1822.71 2890.84 1808.65 2894.59 1803.07 2894.59 1803.07 2906.26 1793.08 2913.2 1783.14 2919.24 1776.52 2922.97 1775.99 2925.81 1775.42 2929.64 1773.5 2961.02 1770.5 2971.14 1743.86 2976.85 1740.42 2983.69 1735.34 2991.68 1730.52 2999.93 1725.02 3003.28 1724.39 3007.22 1722.57 3010.97 1718.43 3011.23 1717.84 3011.42 1717.25 3011.63 1716.66 3014.4 1714.52 3017.16 1712.24 3019.88 1709.78 3030.74 1710.47 3029.44 1709.84 3039.05 1708.01 3039.67 1707.89 3048.04 1706.37 3048.39 1706.89 3057.62 1711.74 3067.92 1713.01 3076.94 1711.54 3099.37 1707.86 3092.16 1699.02 3136.19 1679.89 3109.43 1689.88 3106.09 1693.92 3096.42 1700.78 3081.88 1711.09 3064.15 1711.15 3050.42 1703.2 3045.12 1700.78 3033.76 1705.27 3025.2 1704.74 3045.12 1684.4 3056.31 1652.87 3073.01 1636.58 3085.12 1623.45 3085.86 1610.66 3090.43 1607 3091.58 1605.27 3093.67 1604.22 3096.12 1603.88 3106.84 1599.99 3111.66 1593.47 3113.1 1588.76 3114.38 1588.85 3116.55 1588.56 3119.24 1587.38 3149.12 1588.62 3145.25 1555.97 3149.75 1553.31 3156.71 1545.01 3173.28 1544.14 3186.08 1534.9 3202.5 1521.77 3190.45 1515.95 3220.31 1507.21 3242.63 1501.28 3245.31 1501.8 3281.08 1465.97 3291.85 1455.16 3299.21 1449.81 3299.21 1449.81 3283.43 1458.84 3262.88 1482.25 3241.31 1493.57 3228.14 1500.68 3208.51 1497.35 3194.35 1508.95 3187.55 1514.93 3184.38 1522.92 3179.52 1525.37 3166.75 1533.62 3137.56 1530.52 3130.83 1559.06 3128.75 1564.03 3128.21 1568.11 3126.66 1568.31 3127.27 1569.16 3123.32 1567.64 3116.89 1569.09 3108.48 1565.76 3094.87 1577.15 3092.61 1583.42 3066.58 1587.6 3063.26 1614.97 3056.39 1618.58 3041.18 1632.08 3030.72 1648.76 3020.23 1663.17 3022.47 1655.38 3018.92 1647.83 3013.12 1643.59 3010.2 1639.45 3006.1 1638.34 3007.77 1638.78 3007.05 1638.7 3008.89 1637.96 3010.87 1635.81 3022.67 1626.87 3027.62 1612.08 3027.3 1598.72 3026.73 1583.24 3014.4 1565.85 3015.43 1556.9 3020.13 1553.79 3020.23 1540 3024.62 1526.81 3029.32 1512.48 3038.66 1499.78 3043.65 1485.9 3050.99 1464.62 3039.98 1438.33 3043.25 1428.82 3048.6 1428.95 3045.71 1419.05 3046.15 1417.79 3046.47 1416.25 3048.68 1415.36 3049.71 1413.46 3059.82 1394.44 3055.46 1383.09 3055.46 1383.09 3055.46 1383.09 3059.19 1394.48 3048.69 1412.9 3047.92 1414.28 3045.72 1415.07 3044.83 1417.38 3044.11 1419.8 3045.36 1422.21 3044.93 1424.02 3044.28 1425.7 3044.1 1428.36 3043.68 1427.17 3035.08 1425.18 3048.16 1464.73 3039.94 1484.5 3034.76 1497.51 3025.06 1509.66 3019.33 1524.94 3016.14 1533.6 3014.66 1542.65 3011.97 1550.97 3011.41 1551.24 3010.23 1552.33 3008.9 1554.71 3005.54 1575.27 3031.75 1594.38 3010.63 1623.5 3007.64 1628.33 3001.1 1627.41 2997.99 1636.98 2998.19 1645.29 3003.19 1649.63 3005.88 1650.98 3008.6 1654.64 3011.68 1657.12 3010.36 1658.14 3009.05 1666.6 2997.2 1677.33 2996.42 1688.37 2985.67 1695.69 2971.43 1701.68 2956.73 1711.25 2942.52 1721.38 2936.82 1732.24 2932.84 1733.56 2933.81 1734.06 2929.79 1733.01 2922.34 1734.49 2917.31 1733.94 2909.15 1735.32 2899.27 1740.87 2909.92 1723.19 2926.98 1706.28 2914.42 1672.74 2920.83 1658.07 2927.95 1643.56 2933.47 1630.64 2943.43 1607.14 2942.42 1584.48 2951.03 1567.89 2953.42 1562.79 2961.39 1557.81 2964.33 1548.59 2966.44 1537.67 2960.26 1530.38 2961.69 1525.28 2961.38 1522.15 2968.46 1519.79 2971.49 1513.2 2980.36 1490.7 2977.35 1470.78 2982.03 1457.1 2982.56 1454.41 2987.87 1453.69 2989.14 1450.08 2990.73 1444.1 2986.3 1436.91 2986.46 1426.9 2985.64 1436.58 2989.5 1444.82 2987.69 1449.63 2987.03 1452.09 2982.1 1451.93 2979.96 1456.32 2974.23 1470.18 2975.58 1491.36 2966.08 1510.82 2964.83 1514 2957.89 1515.63 2954.89 1523.64 2952.81 1533.07 2958.45 1541.58 2956.14 1546.26 2955.07 1551.19 2947.44 1554.42 2942.27 1563.06 2931.31 1582.03 2930.24 1606.07 2920.58 1624.61 2917.37 1630.93 2913.59 1637.88 2909.67 1645.07 2904.28 1612.66 2900.22 1608.41 2880.89 1585.62 2876.03 1575.91 2879.29 1574.74 2873.48 1563.89 2861.03 1544.22 2844.39 1542.53 2836.6 1522.11 2836.34 1517.39 2837.34 1507.58 2830.82 1493.2 2830.74 1491.74 2830.68 1490.28 2830.64 1488.81 2831.5 1486.8 2832.58 1484.54 2833.42 1481.61 2835.18 1475.42 2833.75 1470.47 2835.37 1468.19 2844.5 1450.17 2847.25 1464.6 2867.7 1398.71 2875.13 1375.01 2867.95 1368.2 2873.09 1358.71 2882.81 1340.11 2881.48 1336.03 2879.19 1323.25 2877.36 1312.92 2875.5 1307.15 2875.5 1307.15 2883.19 1335.94 2878.76 1343.76 2870.83 1357.46 2866.07 1365.98 2868.79 1377.34 2866.8 1386.92 2865.49 1393.27 2848.67 1435.88 2845.37 1441.45 2841.69 1447.85 2835.65 1453.38 2830.66 1460.48 2830.13 1412.93 2806.46 1395 2804.82 1368.09 2803.06 1354.33 2815.87 1340.2 2817.08 1324.63 2818.04 1307.74 2809.63 1290.87 2800.8 1264.32 2797.7 1256.35 2812.35 1246.45 2805.27 1237 2811.59 1247.23 2796.41 1254.68 2798.82 1264.9 2805.76 1291.93 2812.86 1309.87 2810.77 1324.01 2809.19 1336.65 2795.78 1348.64 2795.27 1368.45 2795.71 1394.8 2813.98 1420.07 2814.75 1445.64 2815.13 1452.93 2814.54 1460.62 2813.88 1468.65 2804.54 1458.73 2806.67 1440.9 2799.66 1426.57 2789.1 1405.91 2771.76 1390.6 2760.95 1372.95 2754.62 1362.91 2744.21 1358.51 2738.9 1351.09 2728.72 1337.24 2717.98 1281.91 2704.51 1273.57 2717.8 1283.05 2725.1 1337.23 2735.6 1353.37 2741.48 1362.17 2751.88 1367.29 2756.27 1375.68 2766.82 1394.74 2783.57 1410.99 2792.1 1430.2 2794.83 1436.04 2795.24 1443.47 2796.7 1451.01 2799.56 1472.63 2802.16 1468.93 2812.74 1484.71 2811.14 1514.38 2814.64 1541.57 2856.35 1597.32 2850.02 1595.28 2840.35 1594.64 2835.85 1594.47 2835.77 1594.41 2835.69 1594.35 2835.54 1594.29 2836.53 1593.65 2834.93 1591.95 2831.78 1592.22 2830.03 1588.84 2818.28 1581.38 2813.95 1577.66 2810.21 1574.58 2807.67 1569.37 2804.3 1564.72 2800.36 1559.36 2775.93 1542.97 2773.94 1508.77 2773.74 1506.75 2775.37 1504.26 2775.16 1501.27 2774.78 1498.1 2772.87 1495.9 2772.81 1493.73 2771.61 1472.91 2778.32 1457.92 2769.18 1447.66 2777.9 1458.52 2770.6 1472.11 2770.97 1493.8 2771.09 1496.76 2772.93 1499.18 2773.02 1501.45 2773.34 1504.47 2763.59 1517.38 2788.79 1555.46 2792.28 1560.58 2797.64 1563.47 2800.2 1567.54 2803.03 1571.87 2805.59 1577.45 2810.2 1581.84 2815.56 1586.82 2821.69 1590.48 2826.06 1595.21 2826.3 1595.86 2826.85 1596.96 2828.09 1598.67 2828.76 1598.71 2829.17 1598.68 2829.68 1598.67 2829.88 1598.74 2830.19 1598.8 2830.61 1598.84 2830.83 1599.59 2832.18 1600.62 2834.81 1601.21 2893.99 1604.62 2873.94 1654.36 2884.11 1686.44 2882.53 1692.92 2884.13 1694.46 2883.83 1698.94 2877.81 1715.08 2858.56 1724.85 2850.67 1753.91 2851.07 1760.84 2851.76 1765.67 2852.34 1768.55 2839.86 1783.51 2836.81 1797.53 2837.82 1812.44 2836.02 1817.36 2834.5 1821.16 2836.51 1833.86 2828.94 1846.19 2827.06 1853.25 2829.78 1853.87 2829.85 1860.28 2830.45 1864.38 2831.09 1869.15 2828.62 1868.03 2827.09 1867.28 2827.03 1866.46 2815.15 1851.43 2803.91 1847.89 2803.51 1845.1 2798.56 1837.53 2794.35 1827 2787.73 1815.77 2792.05 1805.07 2791.63 1797.04 2788.49 1789.33 2790.97 1778.18 2790.14 1764.44 2782.44 1751.14 2774.94 1743.18 2769.31 1740.84 2767.74 1741.4 2762.32 1739.08 2748.34 1733.58 2742.94 1730.37 2749.79 1706.73 2740.47 1687.12 2734.88 1673.56 2734.74 1669.53 2734.08 1663.73 2731.22 1657.89 2730.33 1657.54 2729.39 1657.14 2728.42 1656.7 2727.14 1652.26 2725.71 1649.25 2726.58 1648.06 2728.99 1641.88 2731.37 1634.31 2731.85 1626.24 2736.78 1621.61 2739.71 1605.05 2740.99 1597.22 2741.1 1597.38 2742.54 1595.21 2742.97 1590.29 2742.47 1585.79 2742.53 1580.67 2741.79 1575.1 2739.6 1560.38 2729.93 1549.19 2729.92 1537.69 2729.11 1523.46 2740.97 1508.82 2742.42 1491.7 2743.34 1474.99 2732.64 1462.3 2730.54 1449.58 2730.44 1449 2714.43 1380.7 2711.4 1370.15 2713.83 1380.48 2726.64 1449.82 2726.68 1450.13 2728.37 1464.33 2738.55 1477.82 2736.51 1491.11 2734.84 1505.64 2722.43 1519.37 2721.74 1537.72 2721.83 1553.14 2731.04 1565.33 2731.87 1576.27 2732.29 1580.61 2732.06 1585.35 2732.33 1590.4 2730.78 1591.3 2730.29 1596.19 2727.78 1605.13 2721.31 1592.14 2694.29 1572.24 2684.57 1556.55 2683.48 1554.83 2655.03 1509.67 2656.46 1511.94 2653.72 1508.34 2625.14 1408.37 2625.09 1395.7 2624.48 1404.14 2633.17 1447.23 2634.93 1456 2648.46 1523.28 2644.58 1508.05 2673.88 1562.78 2684.27 1581.66 2702.24 1595.62 2712.86 1612.57 2718.26 1617.75 2711.43 1628.43 2707.97 1642.18 2704.3 1656.54 2709.31 1664.24 2716.5 1687.59 2720.18 1702.4 2724.35 1717.68 2717.72 1725.33 2716.07 1729.09 2715.44 1732.67 2715.8 1735.91 2712.11 1735.78 2708.66 1734.98 2706.86 1732.67 2706.11 1733.41 2707.37 1729.52 2704.66 1724.03 2695.33 1707.98 2708.35 1689.35 2674.96 1673.94 2668.42 1670.28 2661.29 1669.5 2659.45 1665.44 2655.87 1659.72 2655.43 1650.87 2650.25 1643.24 2642.42 1632.62 2629.4 1629.94 2624.75 1621.6 2618.26 1611.66 2628.96 1601.04 2600.84 1587.32 2594.59 1584.13 2588.63 1581.5 2584.86 1576.7 2584.92 1575.45 2584.14 1574.13 2583.62 1574.07 2583.04 1572.47 2582.17 1571.36 2581.6 1570.38 2571.2 1561.02 2558.94 1556.14 2551.1 1547.85 2520.08 1515.25 2496.33 1498.07 2495.7 1497.61 2496.32 1498.09 2519.83 1516.28 2549.45 1549.37 2557.5 1558.3 2569.85 1563.76 2579.31 1572.85 2580.54 1573.52 2581.84 1573.86 2582.47 1574.34 2582.6 1574.44 2582.18 1574.31 2581.9 1574.11 2578.83 1575.68 2579.91 1578.5 2581.98 1578.93 2586.41 1584.63 2592.77 1587.87 2598.89 1591.09 2624.91 1605.41 2611.82 1609.13 2619.99 1624.37 2626.52 1635.26 2639.77 1638.72 2644.91 1646.92 2648.74 1652.36 2648.78 1660.93 2653.25 1669.05 2660.06 1679.46 2683.74 1682.91 2688 1694.08 2692.4 1703.16 2690.4 1716.09 2696.28 1728.38 2697.04 1729.39 2694.28 1746.78 2720.7 1746.01 2726.76 1753.53 2741.9 1760.57 2751.33 1765.25 2755.65 1769.45 2756.48 1768 2759.57 1771.97 2759.27 1778.14 2754.51 1791.2 2753.49 1796.11 2743.05 1796.76 2734 1801.25 2725.73 1805.76 2698.89 1819.21 2700.4 1815.58 2685.43 1807.94 2662.54 1795.5 2664.88 1796.98 2659.51 1788.04 2657.18 1783.79 2654.92 1778.99 2650.81 1775.19 2625.82 1753.03 2611.93 1724.03 2597.87 1706.75 2595.84 1704.48 2592.75 1705.1 2591.84 1703.61 2581.76 1689.58 2577.67 1679.62 2577.67 1679.62 2577.67 1679.62 2580.76 1688.99 2590.87 1704.27 2592.47 1706.42 2595.78 1706.11 2596.72 1707.66 2609.95 1725.37 2622.35 1754.53 2647.4 1778.87 2653.49 1784.55 2654.89 1797.27 2664.37 1803.16 2683.84 1814.4 2690.21 1821.45 2700.88 1822.42 2719.95 1823.06 2736.08 1806.96 2752.32 1806.04 2752.14 1813.6 2753.47 1821.96 2757.26 1830.77 2762.97 1841.44 2766.41 1852.72 2772.12 1863.38 2782.8 1879.64 2794.6 1885.2 2795.27 1888.37 2806.57 1903 2816.57 1906.72 2827.6 1912.9 2827.86 1920.18 2827.79 1917.47 2827.93 1920.79 2817.82 1937.4 2787.2 1946.88 2768.85 1985.1 2761.52 1989.14 2754.78 1997.89 2749.82 2011.45 2749.94 2022.33 2751.75 2031.75 2754.68 2039.68 2754.55 2045.61 2754.73 2041.7 2753.6 2048.63 2752.32 2049.89 2750.1 2052.48 2747.69 2056.92 2745.64 2059.08 2743.26 2062.03 2740.84 2065.8 2714.88 2081.64 2736.24 2067.9 2694.63 2088 2689.8 2089.26 2675.53 2090.99 2672.57 2087.13 2669.76 2084.83 2666.65 2081.55 2668.3 2081.43 2671.14 2063.66 2685 2057.55 2675.51 2003.37 2675.53 1997.69 2675.79 1983.76 2666.44 1966.23 2627.12 1912.24 2633.75 1925.35 2613.82 1907.53 2606.19 1893.34 2615.98 1896.46 2599.42 1877.11 2596.48 1869.07 2593.78 1861.73 2590.43 1854.36 2590.87 1852.64 2588.92 1848.24 2583.55 1842.8 2582.54 1832.52 2582.45 1824.45 2580.92 1815.46 2576.13 1788.76 2563.43 1787.55 2562.68 1748.13 2561.99 1737.6 2570.38 1749.41 2561.11 1696.29 2559.08 1684.72 2531.92 1614.21 2501.92 1560.26 2525.83 1606.53 2554.74 1681.08 2556.98 1696.95 2558.7 1708.91 2560.98 1721.86 2560.28 1734.21 2560.11 1740.05 2554.03 1743.54 2558.12 1769.46 2562.45 1795.73 2572.86 1792.84 2574.86 1836.16 2556.81 1826.16 2553.06 1808.78 2534.09 1796.59 2528.06 1789.92 2495.94 1761.85 2478.35 1772.23 2474.72 1773.39 2472.41 1775.1 2471.66 1774.44 2471.2 1774.39 2470.71 1774.27 2470.17 1774.1 2470.09 1772.06 2470 1769.68 2469.45 1766.99 2468.6 1760.95 2466.18 1756.54 2466.23 1753.08 2465.25 1728.38 2477.24 1701.47 2475.85 1673.38 2475.51 1670.28 2478.2 1665.65 2477.55 1659.55 2472.76 1628.28 2461.43 1624.88 2453.05 1607.04 2443.84 1587.74 2442.52 1548.2 2406.27 1505.59 2402.86 1501.59 2401.79 1498.71 2401.79 1498.71 2401.79 1498.71 2402.68 1501.52 2406.04 1505.78 2440.6 1549.55 2440.29 1588.33 2449.06 1608.85 2457.66 1628.65 2467.23 1629.76 2471.17 1660.45 2471.79 1663.39 2468.94 1667.55 2468.93 1673.64 2469.64 1703.9 2451.32 1736.91 2458.4 1763.85 2456.13 1759.65 2455.31 1753.2 2453.85 1746.19 2448.24 1704.55 2425.81 1706.17 2403.69 1688.5 2395.56 1682.75 2391.17 1669.82 2381.47 1659.71 2370.5 1650.05 2354.71 1562.16 2343.42 1540.17 2338.31 1530.3 2332.67 1522.22 2328.45 1514.67 2321.79 1502.88 2319.18 1479.23 2308.61 1474.13 2318.65 1480.16 2319.92 1503.43 2325.93 1515.98 2339.22 1543.59 2339.56 1536.52 2346.6 1568.81 2355.63 1610.87 2360.89 1653.19 2371.51 1667.13 2370.58 1666.61 2369.34 1665.92 2367.71 1665.2 2367.9 1665.18 2368.11 1665.15 2368.33 1665.09 2368.17 1664.84 2367.72 1663.96 2366.66 1662.93 2365.82 1663.01 2367.36 1658.4 2363.51 1653.44 2360.89 1651.74 2359.02 1651.61 2358.23 1651.68 2358.33 1646.59 2330.41 1614.25 2327.09 1610.82 2320.22 1602.94 2258.09 1582.75 2249.09 1569.99 2248.77 1569.73 2249.34 1567.99 2247.89 1566.72 2245.7 1566.18 2244.84 1568.24 2244.8 1567.67 2244.25 1567.95 2245.27 1566.07 2243.95 1564.7 2225.54 1551.3 2213.66 1546.07 2213.18 1545.86 2213.64 1546.09 2225.89 1552.19 2243.2 1565.7 2243.7 1565.7 2242.6 1567.44 2244.13 1568.87 2246.14 1569.43 2247.24 1567.41 2247.17 1568.04 2247.65 1567.84 2246.79 1569.3 2247.75 1570.91 2255.85 1582.91 2298.62 1598.86 2322.07 1612.32 2324.62 1613.37 2348.93 1646.81 2351.82 1651.15 2351.68 1651.37 2351.58 1653.4 2353.63 1656.44 2356.83 1658.59 2359.16 1658.37 2359.27 1658.27 2359.84 1659.03 2357.81 1667.53 2365.99 1671.7 2366.44 1671.68 2366.82 1671.63 2367.18 1671.55 2367.19 1671.6 2367.19 1671.63 2367.19 1671.68 2372.51 1681.47 2370.57 1683.57 2389.95 1696.06 2393.08 1698.15 2391.37 1697.18 2394.17 1699.8 2406.04 1710.26 2425.55 1720.04 2429.92 1728.01 2436.67 1737.17 2431.44 1758.9 2442.87 1778 2467.37 1811.69 2519.48 1806.86 2526.56 1824.59 2533.5 1835.5 2542.04 1846.94 2553.79 1856.55 2568.38 1884.98 2564.59 1886.89 2571.79 1895.32 2575.22 1906.76 2576.13 1911.18 2580.06 1918.7 2590.22 1935.11 2603.26 1943.67 2609.54 1950.88 2618.3 1960.8 2625.29 1974.05 2634.58 1988.21 2636.32 1986.77 2633.07 1994.35 2635.37 2008.09 2636.3 2022.08 2638.27 2033.5 2635.88 2041.37 2634.2 2052.01 2619.16 2067.83 2625.63 2094.85 2622.06 2094.5 2618.39 2094.21 2614.53 2094.12 2605.19 2093.02 2599.8 2094.92 2601.17 2093.46 2590.34 2084.49 2580.63 2079.11 2576.32 2072.59 2574.1 2073.76 2576.41 2061.17 2567.28 2043.6 2551.56 2018.53 2548.89 2009.09 2535.45 2001.41 2533.51 1996.22 2531.66 1986.51 2524.66 1975.67 2518.39 1965.3 2502.14 1958.89 2488.85 1965.19 2487.05 1965.47 2485.57 1965.92 2484.29 1966.41 2481.82 1947.93 2463.83 1938.08 2449.58 1928.65 2434.38 1918.12 2412.1 1911.27 2394.07 1907.1 2375.41 1893.12 2365.85 1875.34 2363.99 1857.52 2362.57 1852.61 2368.99 1845.83 2371.29 1835.25 2380.96 1790.63 2353.83 1773.33 2343 1748.99 2336.65 1734.69 2298.08 1653.62 2291.27 1649.53 2298.09 1654.28 2331.61 1735.33 2337.7 1751.18 2348.16 1778.26 2372.18 1792.87 2361.37 1832.85 2359.53 1839.38 2352.65 1847.13 2352.61 1858.48 2353.94 1877.94 2362.18 1893.21 2370.73 1903.87 2345.3 1903.09 2319.85 1926.84 2304.72 1911.54 2301.13 1909.66 2302.84 1894.91 2296.47 1885.15 2279.25 1862 2268.06 1837.67 2256.15 1818.68 2229.11 1775.47 2200 1765.12 2200 1765.12 2200 1765.12 2228.15 1777.68 2251.62 1821.32 2262.05 1840.75 2271.44 1865.48 2287.85 1891.11 2289.66 1893.42 2289.37 1897.63 2290.14 1902.97 2290.66 1926.92 2312 1934.27 2335.6 1928.26 2356.1 1923.59 2359.6 1917.25 2384.02 1923.77 2351.49 1944.8 2371.92 1977.86 2365.33 2000.57 2360.06 2021.11 2330.08 2031.54 2314.72 2041.19 2312.66 2042.57 2309.36 2042.11 2307.15 2043.67 2299.58 2049.27 2294.52 2051.16 2294.52 2051.16 2294.52 2051.16 2299.73 2049.64 2307.73 2044.5 2309.53 2043.29 2312.5 2044.09 2315.5 2042.54 2323.81 2038.07 2335.04 2034.14 2346.92 2027.62 2399.53 1999.17 2351.61 1956.07 2390.88 1932.84 2395.75 1930.62 2399.13 1928.38 2401.09 1929.5 2401.07 1929.45 2401.07 1929.45 2401.06 1929.42 2401.22 1929.81 2401.86 1931.23 2403.3 1932.7 2408.13 1942.11 2415.91 1939.7 2435.24 1948.31 2447.98 1953.98 2456.49 1962.42 2458.81 1966.52 2458.54 1966.96 2458.3 1969.29 2459.28 1973.25 2457.25 1975.17 2458.99 1982.88 2469.14 1992.87 2484.51 1997.48 2495.01 1993.89 2498 1991.08 2498.89 1990.94 2499.39 1990.8 2499.88 1990.68 2499.95 1991.01 2500.27 1991.52 2500.87 1992.09 2503.07 1994.61 2503.17 2001.98 2506.96 2012.01 2499.36 2014.56 2490.41 2013.66 2479.85 2021.94 2462.38 2040.97 2468.71 2066.84 2465.22 2091.38 2462.32 2115.77 2479.78 2111.18 2456.95 2139.05 2437.58 2162.17 2403.11 2187.9 2387.18 2193.29 2401.48 2189.84 2425.09 2174.42 2437.32 2165.39 2498.9 2120.01 2471.98 2108.9 2476.88 2093.52 2480.96 2075.02 2480.89 2041.58 2491.61 2034.68 2492.65 2032.34 2499.82 2034.45 2509.87 2031.3 2514.26 2030.63 2518.48 2029.91 2521.57 2030.18 2525.7 2037.09 2529.49 2044.91 2533.74 2053.18 2542.54 2095.94 2549.56 2100.04 2576.22 2123.04 2591.07 2132.96 2604.63 2134.89 2612.92 2134.49 2634.8 2136.01 2662.23 2151.8 2696.57 2137.22 2710.05 2135.55 2722.32 2131.92 2733.23 2127.52 2737.84 2143.9 2742.8 2148.04 2744.31 2151.99 2728.47 2199.18 2716.04 2184.48 2707.73 2306.16 2708.71 2318.83 2710.83 2327.02 2712.74 2331 2712.8 2331.76 2712.86 2332.6 2712.92 2333.28 2711.37 2339.99 2699.69 2386.87 2700 2404.01 2699.12 2405.49 2698.34 2406.76 2697.39 2408.44 2697.05 2411.33 2696.81 2413.87 2696.6 2416.28 2687.98 2432.97 2682.08 2446.55 2676.88 2457L2821.62 2457C2821.3 2452.05 2821.02 2448.55 2820.83 2448.24 2820.64 2430.06 2827.95 2385.13 2818.72 2370.37 2818.4 2352.87 2816.9 2336.95 2815.5 2319.99 2817.37 2303.04 2819.45 2265.03 2820.08 2247.72 2822.4 2241.46 2823.91 2236.08 2825.12 2231.32 2832.23 2222 2836.82 2210.29 2837.88 2203.36 2838.14 2202.91 2838.34 2202.59 2838.6 2202.12 2839.1 2199.21 2839.4 2196.26 2839.62 2193.33 2844.1 2185.68 2848.39 2178.56 2852.51 2170.91 2872.88 2168.36 2904.11 2170.83 2922.47 2157.82 2928.74 2156.71 2932.34 2156.24 2939.11 2150.83 2946.83 2141.35 2946.16 2135.97 2945.18 2138.45 2945.26 2136.11 2954.05 2135.93 2963.87 2129.2 2966.4 2126.86 2968.29 2124.44 2969.67 2122.06 2978.75 2118.28 2982.78 2116.8 2986.46 2115.5 2999.74 2127.48 3043.12 2138.02 3090.34 2118.79 3091.77 2119.18 3096.08 2117.38 3100.59 2111.7 3103.79 2105.43 3106.41 2100 3110.31 2096.16 3120.39 2084.26 3153.23 2087.42 3172.09 2075.74 3213.09 2049.42 3240.42 2039.11 3240.42 2039.11 3240.42 2039.11 3212.13 2046.85 3168.59 2069.73 3144.59 2082.64 3112.5 2063.31 3088.43 2103.32 3088.39 2102.79 3087.61 2102.66 3085.08 2104.29 3050.52 2115 3019.27 2109.11 3003.72 2099.08 3005.86 2100.42 3005.57 2098.69 3001.65 2095.86 3012.59 2088.23 3016.04 2069.76 3023.43 2063.78 3036.25 2052.84 3047.24 2045.66 3054.09 2032.41 3060.97 2027.8 3088.57 2015.13 3099.43 2000.13 3087.8 2012.91 3060.95 2022.7 3052.46 2026.75 3052.06 2026.61 3050.74 2027.14 3049.13 2029.17 3042.25 2040.55 3031.73 2045.05 3017.05 2055.58 3005.98 2064.02 3001.79 2078.23 2994.05 2083.98 2990.99 2088.55 2968.02 2079.51 2957.65 2097.86 2947.53 2101.11 2929.04 2107.3 2919.55 2112.01 2919.5 2110.63 2916.04 2113.03 2910.09 2120.24 2905.16 2128.1 2904.51 2133.26 2903.88 2131.63 2904.28 2132.12 2901.6 2131.86 2897.28 2132.63 2876.68 2131.28 2861.95 2129.64 2845.39 2131.12 2848.42 2106.56 2845.39 2089.99 2841.08 2080.62 2841.35 2078.71 2840.45 2074.72 2838.94 2078.84 2842.6 2062.12 2842.85 2055.78 2840.09 2061.68 2839.11 2057.44 2838.16 2053.89 2832.98 2037.85 2841.68 2032.51 2853.46 2015.83 2852.88 2009.99 2852.99 2009.67 2853.03 2009.48 2853.12 2009.2 2859.88 2006.71 2866.77 2001.03 2870.84 1997.59 2882.35 2001.42 2897.04 2001.86 2909.41 2001.66 2909.61 2001.95 2909.73 2002.16 2909.93 2002.46 2922.61 2007.66 2931.12 2007.45 2934.21 2006.41 2968.64 2007.64 2968.49 2012.53 3040.93 1975.45 3120.32 1934.94 3120.01 1935.67 3160.12 1939.39 3167.05 1940.04 3181.17 1941.47 3187.69 1943.83 3192.1 1951.39 3199.56 1969.39 3224.91 1962.26 3248.09 1957.4 3278.51 1940.7 3289.79 1941.04 3331.55 1940.97 3334.33 1964.37 3408.8 1921.44 3421.35 1914.21 3454.23 1893.95 3457 1879.84 3450.13 1902.36 3364.13 1940.64 3342.46 1938.61ZM3106.1 1865C3107.14 1862.84 3108.79 1860.87 3110.75 1858.88 3109.27 1861.22 3107.51 1863.51 3105.61 1865.8 3105.71 1865.46 3105.87 1865.19 3106.1 1865ZM2847.66 2171.86C2847.9 2171.64 2848.92 2171.44 2849.24 2171.41 2847.92 2172.63 2847.41 2172.84 2847.66 2171.86Z" fill-rule="evenodd"/><path d="M2496 1499C2495.96 1498.96 2495 1498 2495 1498 2495 1498 2495.96 1498.97 2496 1499Z" fill-rule="evenodd"/><path d="M2770 1449C2769.9 1448.92 2769 1448 2769 1448 2769 1448 2769.96 1448.91 2770 1449Z" fill-rule="evenodd"/><path d="M2213 1546C2213 1546 2213.86 1546.91 2214 1547 2213.88 1546.87 2213 1546 2213 1546Z" fill-rule="evenodd"/><path d="M2368 1665.15C2368.91 1666.19 2369.12 1666.43 2368.95 1665 2368.6 1665.08 2368.32 1665.07 2368 1665.15Z" fill-rule="evenodd"/><path d="M2853 1767.04C2854.41 1766.86 2854.16 1767.26 2853.29 1768 2853.15 1767.64 2853.12 1767.44 2853 1767.04Z" fill-rule="evenodd"/><path d="M2500 1991.55C2501.15 1990.82 2501.34 1990.68 2500.4 1992 2500.21 1991.68 2500.16 1991.82 2500 1991.55Z" fill-rule="evenodd"/></g></svg>