<svg width="231" height="360" xmlns="http://www.w3.org/2000/svg" xmlns:xlink="http://www.w3.org/1999/xlink" xml:space="preserve" overflow="hidden"><defs><clipPath id="clip0"><rect x="640" y="360" width="231" height="360"/></clipPath></defs><g clip-path="url(#clip0)" transform="translate(-640 -360)"><path d="M115.113 6.61715C115.347 7.32412 116.947 60.9813 117.035 67.1234 121.053 48.2988 127.11 38.4957 128.76 7.41471L128.964 7.41298C128.647 19.8968 129.901 23.2253 124.714 46.7232 123.059 53.9988 120.031 64.7624 118.657 75.9924 118.433 77.8941 117.462 86.6352 117.631 88.5314 117.707 91.2544 118.392 123.37 118.559 125.286 118.81 123.117 125.411 97.3587 135.632 70.233 136.405 68.3616 137.574 61.6969 137.655 57.1554 138.486 42.1383 135.481 31.6486 138.705 11.8635 138.782 11.8652 138.934 11.8719 139.011 11.8737 136.91 28.446 139.955 39.8186 139.702 59.4217 139.775 59.2507 155.81 20.3933 158.382 19.6412 157.998 20.8508 146.728 42.8095 132.36 91.7749 139.113 84.9435 149.908 80.2658 157.743 79.2736 157.645 79.4481 157.505 79.5677 157.322 79.6293 141.853 84.678 132.294 94.5209 129.555 101.842 127.312 110.568 120.429 138.603 119.975 147.179 119.101 149.64 119.281 153.223 119.329 157.97 119.329 157.97 119.855 181.129 119.855 181.129 120.202 191.095 118.873 189.421 123.808 181.025 124.538 179.782 125.218 178.509 125.842 177.21 127.235 174.313 132.651 166.387 133.039 165.072 137.388 150.333 139.629 134.65 140.935 127.982 143.731 110.409 147.501 101.242 147.714 100.526 147.806 100.501 147.991 100.45 148.083 100.422 145.302 111.084 144.032 125.621 143.334 131.091 143.731 129.376 144.935 127.987 145.463 126.32 145.518 126.265 145.627 126.154 145.682 126.098 152.991 112.647 157.253 108.281 160.427 100.478 160.581 100.121 160.663 99.6832 161.049 99.4968 159.654 106.055 152.842 116.775 147.908 127.567L147.785 127.598C147.791 127.658 147.799 127.779 147.804 127.841 145.745 131.687 142.445 140.673 140.498 153.963 140.498 153.963 146.159 145.211 152.464 137.167 158.632 129.299 163.087 125.134 167.24 94.8057 169.579 80.4049 158.967 68.7072 160.223 49.3166L160.386 49.3166C160.771 62.7793 166.346 72.1597 168.879 81.8432 172.68 55.8422 173.355 63.8133 168.537 42.7345 167.176 36.2231 167.216 28.4278 167.6 25.2942 167.666 25.2497 167.801 25.1591 167.87 25.1145 168.426 43.9282 170.694 44.583 173.202 56.7265 173.249 56.5481 178.144 37.2342 179.915 36.7415 168.361 76.9208 173.49 89.9917 166.7 118.979 175.808 108.125 182.36 100.555 182.36 100.555 188.68 89.7253 187.711 68.8199 194.619 55.1791 194.855 54.7601 194.985 54.1958 195.486 54.0111 195.301 54.7345 194.942 55.393 194.685 56.0906 190.123 67.9444 190.089 85.5093 187.046 95.6089 187.214 95.4379 204.135 77.6063 208.182 75.9282 208.182 75.9282 195.441 87.7321 181.917 105.284 192.016 102.1 200.219 101.959 213.739 95.4968 214.394 95.1873 215.013 94.7888 215.714 94.5818 215.272 95.4478 206.799 100.758 194.098 104.225 190.049 105.324 179.527 108.006 177.112 111.391 159.891 134.176 149.412 150.682 149.412 150.682 149.713 150.364 150.088 150.134 150.517 150.034 151.929 149.037 158.997 146.111 164.913 144.251 175.511 137.478 184.794 117.767 199.284 110.667 199.197 110.939 199.004 111.146 198.768 111.297 186.32 119.558 178.378 136.149 171.753 142.36 177.899 140.519 188.957 138.492 195.775 138.641 195.778 138.706 195.782 138.837 195.783 138.904 188.125 139.825 176.383 143.595 172.958 144.886 173.192 144.944 173.428 145.004 173.667 145.064 174.993 145.818 174.353 145.509 175.193 145.883L175.227 145.97C182.58 150.25 191.523 159.509 192.763 162.795 192.278 162.561 191.965 162.114 191.597 161.745 186.694 156.783 187.713 158.106 185.981 156.491 185.917 156.467 185.787 156.418 185.722 156.392 183.567 154.115 175.747 149.418 175.576 149.298 175.516 149.279 175.396 149.243 175.337 149.225 174.9 148.914 170.238 146.322 168.496 146.509 164.989 147.828 160.776 149.714 160.776 149.714 160.703 149.785 160.557 149.927 160.484 149.998 160.388 150.001 160.197 150.004 160.101 150.006 160.029 150.081 159.887 150.228 159.815 150.302 152.763 153.014 145.621 158.653 144.66 159.376 144.563 159.802 144.015 160.018 143.765 160.339 141.272 163.526 133.164 178.635 131.996 180.723 118.288 205.24 120.488 221.878 120.625 239.73 121.648 238.296 122.353 236.496 123.233 234.955 133.016 217.827 146.076 207.628 145.851 168.861 146.858 168.861 149.086 186.145 144.632 203.087 167.118 173.686 180.189 164.826 177.302 168.109 165.837 181.15 156.989 192.682 156.618 193.846 159.335 193.285 166.275 189.537 178.664 191.355 178.667 191.453 178.675 191.648 178.681 191.747 172.306 191.779 166.909 193.067 166.261 193.406 164.87 193.579 158.256 195.479 153.418 199.102 151.242 200.732 150.237 202.433 144.498 211.174 144.313 211.457 139.979 218.049 139.592 218.723 117.208 256.432 120.739 249.657 120.988 270.426 132.743 254.244 149.306 236.707 150.106 236.066 151.354 234.308 162.316 223.868 163.787 222.602 163.817 222.513 163.848 222.425 163.878 222.336 163.947 222.298 164.017 222.26 164.086 222.223 172.107 214.327 178.314 209.899 178.823 208.612L178.888 208.633C178.888 208.633 187.205 196.306 201.116 167.504 203.94 160.763 205.719 147.64 208.738 132.607 211.656 118.577 216.049 108.918 217.037 108.749 210.216 122.797 209.068 140.706 206.068 156.779 213.92 139.325 220.187 125.329 220.964 124.982 220.964 124.982 219.63 128.251 211.669 148.404 215.852 144.083 221.391 140.661 223.06 140.065 222.882 140.601 222.32 140.806 221.908 141.121 208.873 150.181 209.167 155.618 201.264 173.29 209.919 165.569 221.837 158.567 223.412 158.204 223.145 158.733 222.557 158.941 222.114 159.287 216.556 163.181 211.164 167.321 206.09 171.832 195.442 181.023 200.481 178.133 187.018 202.231 200.348 191.204 217.798 180.283 219.302 179.921 218.992 180.466 218.392 180.723 217.918 181.097 212.876 184.726 207.934 188.497 203.142 192.453 210.202 192.1 216.474 195.069 216.731 195.923 211.815 194.265 206.556 192.438 200.321 194.83 193.366 200.258 177.224 215.841 177.224 215.841 177.834 215.822 178.411 215.61 179.006 215.499 193.744 212.723 207.011 215.155 208.015 217.1 198.649 214.547 181.533 217.042 172.038 221.384 171.225 221.643 164.229 229.109 163.81 229.63 163.594 229.661 150.958 243.753 149.548 245.559 150.073 244.887 180.523 234.013 201.078 235.058L201.078 235.375C193.462 235.138 176.579 239.618 169.062 242.041 177.886 244.253 184.863 251.994 185.412 253.773 185.193 253.62 171.343 240.415 160.735 244.815 155.401 246.708 150.14 248.86 145.174 251.587 143.827 252.244 144.628 250.926 136.955 260.86 151.673 257.902 163.197 268.01 164.852 274.989 164.344 274.759 164.182 274.198 163.902 273.767 158.235 264.433 141.353 258.983 132.602 267.128 131.633 267.954 126.308 274.647 124.596 278.801 119.618 289.838 121.773 290.247 121.949 353.386L108.057 353.386C108.089 269.77 112.618 283.936 100.55 269.411 98.0024 266.29 80.3928 260.501 69.4274 273.872 69.0991 274.279 68.8169 274.763 68.3176 274.986 68.4927 273.888 71.5969 269.063 76.4152 266.204 84.9907 260.892 94.2426 263.302 95.6477 263.437 94.2448 262.011 83.697 251.455 81.9938 250.866 80.1041 250.452 78.18 250.089 76.2357 250.115 58.5938 249.417 45.042 255.339 44.6909 255.447 44.918 254.356 52.7159 250.377 65.3105 247.847 48.6241 241.478 43.4469 232.534 29.2794 234.373 29.6766 233.43 36.7201 232.169 42.1912 234.38 57.8936 239.987 59.4711 245.174 76.7008 246.11 71.0711 242.231 51.9526 225.433 18.9969 213.436 18.7797 213.381 18.6343 213.215 18.501 213.053 20.7292 213.365 38.5137 217.992 55.4424 227.187 52.3269 223.899 46.2969 218.012 37.3607 207.556 29.5778 197.973 19.1477 197.637 12.0013 190.694 11.5705 190.27 11.0796 189.875 10.8265 189.31 11.4576 189.533 11.9021 190.054 12.4374 190.431 17.5693 194.284 22.991 195.416 30.0984 198.785 23.7695 190.825 9.99595 172.201 7.6128 163.803 8.18237 164.088 8.32757 164.774 8.644 165.279 17.2514 181.125 32.6012 198.633 44.9438 211.628 75.2902 242.469 69.5967 233.786 83.2354 244.818 80.7198 240.822 74.6322 229.977 74.534 229.744 74.4878 229.691 74.392 229.584 74.3441 229.531 73.8992 228.471 74.0021 228.942 70.7939 223.056 70.7939 223.056 61.5476 204.396 51.6427 196.52 48.8777 194.322 56.5343 195.621 70.7597 216.462 74.4809 221.913 78.5051 228.103 78.5051 228.103 78.8816 228.953 81.4071 232.647 81.6997 233.211L81.7714 233.234C82.5428 234.672 83.6799 235.883 84.424 237.34L84.4872 237.35C84.6444 237.609 85.9382 239.644 86.1922 239.914 86.3992 240.302 86.6216 240.683 86.8318 241.073 85.8167 237.77 82.5178 221.092 81.5183 216.405 80.9361 213.295 79.3087 207.984 79.3087 207.984 79.2112 207.789 79.1137 207.598 79.0164 207.41 78.9646 207.077 79.0461 207.313 78.5136 205.874 78.4982 205.653 78.4862 205.436 78.4743 205.223 79.2996 205.591 78.6739 204.899 79.9502 207.263 79.9622 207.338 79.988 207.489 79.9999 207.564 83.5345 213.949 87.3647 235.463 92.6757 248.359 95.0744 254.466 104.854 263.631 109.179 268.588 109.179 268.588 109.718 230.919 109.5 229.961 108.747 222.804 106.106 215.948 101.122 210.667 101.115 210.662 93.5744 203.132 92.4002 202.289 91.5411 200.977 78.9503 190.344 78.1648 189.5 70.4493 181.212 54.9272 185.351 37.8599 181.548 32.9577 180.269 28.7885 177.234 28.0915 175.979 28.7891 176.171 29.2869 176.728 29.9077 177.069 40.1901 183.377 51.9988 179.559 68.4918 181.115 67.3425 180.48 63.5554 177.126 62.2617 176.263 62.2533 176.224 62.2379 176.144 62.2292 176.102 47.6688 165.428 51.7047 164.668 37.7454 162.197 27.6554 160.221 17.6183 159.061 8.49142 152.148 8.08614 151.815 7.55775 151.551 7.40713 151.007 7.68237 151.107 7.9561 151.223 8.20577 151.382 20.6664 159.643 36.8334 158.746 42.2105 160.391 30.5149 151.463 13.0778 141.23 7.43855 128.07 7.719 128.158 7.90712 128.378 8.03542 128.631 13.8104 138.865 24.7877 145.665 47.3565 160.293 40.1444 149.358 35.8209 139.506 27.2876 133.324 26.8481 132.98 26.2599 132.761 26.0341 132.21 27.8292 132.682 32.2132 136.307 34.1932 138.221 43.4014 147.831 47.0129 158.23 57.3442 167.122L57.298 167.191C59.3634 168.333 77.8898 182.393 78.0612 182.52 72.4703 174.013 70.0906 164.825 64.5047 154.723L64.3285 154.769C64.3302 154.714 64.3354 154.603 64.3369 154.548 64.0979 154.307 60.4104 148.974 56.4205 145.733 44.4755 134.726 27.8687 125.34 18.8398 115.274 14.7475 110.742 12.5744 107.224 12.2129 106.015 12.6472 106.116 12.8045 106.548 13.0304 106.877 19.2021 116.746 38.7344 129.646 48.7515 136.014 39.8091 122.838 30.936 103.814 19.4282 92.2799 19.3734 92.1653 19.2656 91.9397 19.211 91.8268 24.2833 93.3235 41.5297 121.096 44.1478 125.363 56.5561 145.112 57.0473 140.149 62.5645 147.171 56.1589 128.84 60.3745 134.555 49.4321 120.931 46.628 117.493 39.6916 109.519 37.2129 99.8585 37.7807 100.016 37.7773 100.715 38.02 101.16 41.6218 109.711 47.7128 117.171 56.1528 126.095 54.0636 119.284 51.3404 106.728 50.5742 100.371 51.2413 100.54 50.4273 100.029 54.0304 112.89 55.8698 119.212 58.5401 127.6 58.5401 127.6 58.617 126.535 58.5999 125.466 58.6034 124.401 59.1953 113.16 62.1867 104.194 63.0977 103.962 59.0979 117.76 60.0763 130.395 61.7431 136.342 66.3332 149.768 73.1552 163.81 73.1552 163.81 73.2408 163.918 73.3296 164.027 73.4168 164.14 73.8153 165.284 74.4839 166.309 74.9781 167.41 75.1183 167.697 75.0739 168.056 75.2826 168.314 74.5947 165.393 74.0752 159.163 74.0752 159.163 73.3569 140.883 74.9568 133.776 78.2446 117.077L78.6208 117.058C77.0519 129.807 77.7353 122.136 76.6131 136.569 75.7771 143.211 77.0779 156.952 77.0082 157.772 77.2654 155.525 77.9063 154.249 78.0205 153.556 78.1291 153.333 79.2311 150.506 79.2363 150.492 83.222 141.648 89.3422 135.014 91.8369 130.456 92.1635 129.912 92.2524 129.039 93.017 128.949 92.7734 130.495 90.9011 134.059 90.2739 134.687 88.9889 137.906 78.0489 150.191 78.8033 165.568 78.9206 167.96 79.5328 170.184 79.8386 172.529 81.1587 175.725 83.5935 187.969 95.3687 196.672 95.3789 196.708 95.4012 196.784 95.4132 196.82 96.1431 197.295 104.929 205.185 105.577 206.135 105.613 206.145 105.686 206.164 105.722 206.174 107.2 208.069 106.447 206.705 109.931 211.523 109.906 211.49 109.969 208.617 109.97 208.575 110.128 197.197 111.046 197.233 106.669 186.679 101.132 173.329 95.6988 170.581 91.5021 165.493 88.3316 161.649 87.4664 157.761 87.6833 157.758 87.7962 157.756 88.0236 157.756 88.1382 157.756 89.7622 161.333 92.1555 163.934 92.6325 164.178 92.6427 164.215 92.6616 164.292 92.6703 164.33 92.9748 164.491 93.2262 164.725 93.4125 165.017 93.7717 165.296 100.311 171.086 100.606 171.438 100.982 171.888 101.339 172.321 101.75 172.697 99.5598 160.189 100.472 153.63 101.612 144.62 102.773 135.442 103.141 136.376 103.573 136.39 103.528 145.552 99.1866 160.033 107.155 178.667 107.586 179.675 109.525 183.995 110.341 184.981 110.357 184.94 110.837 147.922 110.834 147.872 110.277 138.023 98.0252 112.452 93.672 103.586 87.4941 91.0038 50.1984 79.1109 21.6986 81.4775 21.6934 81.4006 21.6867 81.2467 21.6832 81.1715 32.5364 79.478 40.6812 80.1358 50.74 81.1544 39.3587 73.9488 30.3764 62.7288 29.9991 61.2037 30.2111 61.3149 30.4233 61.4432 30.5771 61.6313 36.9145 69.3659 49.4973 79.8239 57.7722 82.1771 59.8736 82.8286 75.5468 85.228 88.4913 93.5686 86.4172 89.3103 75.6103 70.5997 74.4714 69.243 67.9034 62.2897 57.9462 61.1991 45.2434 55.8301 43.9714 55.2488 38.1962 52.3254 37.4947 51.1477 38.2248 51.3872 38.8458 51.854 39.5213 52.2079 48.7665 57.4417 59.083 58.125 71.4042 64.2749 62.9657 51.0242 57.1017 43.9722 52.028 38.6425 51.4756 38.0081 50.6598 37.5701 50.335 36.7613 51.7788 37.4156 62.8588 46.8898 79.11 70.9242 76.0433 56.4565 77.9917 61.6378 71.091 20.6627 72.1062 21.1477 74.9169 36.7881 75.115 37.8859 82.8674 81.7907 78.8018 69.4242 93.5233 94.0055 93.4971 93.8345 88.6636 68.8108 89.607 46.6677 89.607 46.6677 92.6466 91.5933 103.293 112.042 103.683 112.842 111.367 128.06 111.548 129.749 111.336 126.069 113.026 91.7758 112.168 86.0867 105.262 42.9231 82.3154 16.0119 81.8104 14.5165 82.9732 14.9989 94.3761 28.5074 103.789 48.2546 102.202 34.0745 103.077 18.3331 105.008 7.93009 105.085 7.93703 105.241 7.95068 105.318 7.95913 100.957 47.5836 109.285 59.5925 112.964 73.1532 113.269 65.3363 114.614 11.9751 115.112 6.62625Z" transform="matrix(1.00076 0 0 1 640.001 360)"/></g></svg>