<svg width="1237" height="1237" xmlns="http://www.w3.org/2000/svg" xmlns:xlink="http://www.w3.org/1999/xlink" xml:space="preserve" overflow="hidden"><defs><clipPath id="clip0"><rect x="2200" y="1238" width="1237" height="1237"/></clipPath></defs><g clip-path="url(#clip0)" transform="translate(-2200 -1238)"><path d="M3431.91 2214.64C3428.18 2218.3 3432.06 2215.02 3426.04 2220.16 3415.95 2228.79 3407.01 2235.24 3392.07 2241.93 3350.25 2260.5 3297.55 2261.36 3253.44 2249.92 3223.59 2241.81 3192.88 2227.86 3158.77 2203.16 3171.24 2210.41 3184.45 2216.28 3198.19 2220.67 3222.6 2228.46 3243.76 2227.48 3243.76 2227.48 3259.13 2227.4 3274.29 2224 3288.21 2217.5 3335.78 2195.77 3349.29 2133.55 3314.75 2091.96 3290.27 2064.37 3240.92 2058.57 3212.77 2086.84 3193.36 2107.55 3198.32 2144.62 3224.3 2154.56 3225.74 2154.56 3231.84 2157.3 3232.88 2153.4 3234.26 2148.72 3225.8 2149.19 3218.64 2139.01 3210.13 2125.78 3211.92 2107.48 3222.74 2097 3241.1 2080.73 3269.26 2081.04 3290.46 2094.61 3324.11 2117.03 3323.91 2179.11 3279.31 2198.47 3268.09 2203.52 3255.91 2206.13 3243.6 2206.11 3230.49 2206.09 3218.01 2204.46 3204.62 2200.19 3187.48 2194.59 3165.09 2184.68 3130.89 2158.93 3066.1 2110.91 3045.11 2078.64 2981.75 2029.82 2976.91 2026.09 2968.3 2019.92 2968.45 2020.03 3020.72 2042.39 3082.94 2059.88 3129.52 2026.92 3150.84 2011.82 3159.77 1988.6 3160.12 1962.8 3160.32 1952.79 3158.65 1947.5 3156.74 1940.84L3155.18 1936.77C3144.13 1907.95 3114.28 1879.94 3072.79 1887.63 3061.16 1889.69 3050.76 1895.47 3045.45 1900.52 2987.37 1861.8 2898.9 1843.38 2814.19 1864.06 2836.95 1843.87 2859.76 1823.85 2881.64 1802.67 2921.71 1786.01 2962.56 1780.73 3004.46 1786.75 3015.73 1788.43 3004.32 1786.19 3030.57 1791.41L3039.28 1793.58C3053.81 1797.66 3066.86 1802.79 3080.17 1809.18 3086.58 1825.29 3084.39 1842.54 3075.21 1854.97 3065.21 1868.9 3034.42 1879.16 3012.93 1857.17 3004.81 1848.98 3002.56 1837.8 3005.58 1827.01 3010.12 1811.43 3028.19 1801.09 3046.49 1809.8 3047.96 1810.7 3049.52 1811.44 3051.13 1812.02 3049.9 1810.8 3048.49 1809.76 3046.95 1808.94 3029.48 1798.74 3008.35 1808.09 3002.61 1826.15 2993.84 1854.9 3022 1877.22 3048.16 1873.85 3081.17 1870.3 3094.11 1839.31 3086.15 1812.32 3134.42 1836.39 3192.21 1880.35 3258.8 1870.6 3293.3 1865.43 3319.05 1841.28 3326.04 1814.41 3338.38 1767.24 3293.29 1728.28 3247.89 1739.51 3244.83 1740.27 3240.72 1741.68 3237.78 1743.23 3218.52 1751.88 3211.31 1769.66 3215.67 1785.08 3217.17 1790.44 3219.15 1792.53 3219.36 1792.37 3219.58 1792.21 3218.51 1789.69 3217.78 1784.63 3216.04 1771.94 3221.15 1759.33 3232.23 1752.46 3257.13 1736.01 3295.22 1744.38 3311.35 1770.85 3324.84 1792.75 3321.43 1822.12 3295.37 1843.9 3293.23 1845.56 3291.03 1847.36 3288.75 1848.81 3279.16 1854.92 3268.37 1858.9 3257.11 1860.47 3190.84 1869.61 3134.98 1822.06 3079.68 1797.39 3077.44 1793.6 3074.88 1790.01 3072.02 1786.67 3047.94 1759.77 3001.28 1755.99 2965.23 1760.85 2943.72 1763.81 2922.71 1770.54 2902.85 1781.22 2945.44 1736.4 2927.34 1749.24 2950.06 1732.51 2950.37 1732.28 2963.61 1723.4 2965.9 1722.19 2980.02 1714.18 2971.14 1718.62 2991.72 1708.49L3000.65 1704.79C3008.73 1701.06 3027 1695.63 3035.96 1693.56 3048.34 1690.69 3064.37 1688.51 3069.66 1688.22 3075.07 1687.93 3080.38 1687.26 3085.34 1687.28 3090.3 1687.31 3095.34 1686.94 3100.06 1687.28 3104.78 1687.63 3109.31 1687.28 3113.63 1687.85 3117.94 1688.41 3122.07 1688.44 3125.96 1688.86L3136.92 1690.21C3152.58 1692.29 3169.27 1696.05 3169.53 1695.06 3169.89 1693.66 3105.5 1670.06 3034.32 1685.94 3033.42 1686.14 3019.07 1689.67 3016.12 1690.74 2999.51 1696.48 3010.84 1691.86 2988.48 1701.06L2979.39 1705.51C2973.2 1708.33 2967.54 1711.95 2961.8 1715.24 2958.37 1717.12 2952.67 1721.23 2952.98 1721.01 2963.65 1705.4 2971.58 1692.22 2978.67 1673.77 3002.82 1626.21 2991.81 1549.3 3049.74 1502.55 3087.01 1472.66 3142.25 1463.69 3190.11 1476.84 3243.4 1520.43 3241.31 1587.28 3216.39 1614.2 3207.87 1623.68 3197.39 1631.2 3185.69 1636.24 3156.69 1648.62 3123.51 1640.36 3105.64 1622.7 3077.08 1595.13 3088.5 1539.55 3131.24 1533.03 3139.25 1531.72 3143.88 1532.13 3148.48 1533.43 3155.92 1535.6 3162.74 1540.65 3166.33 1548.47 3168.59 1553.64 3168.61 1556.91 3169.31 1556.91 3171.33 1556.91 3171.65 1535.56 3150.38 1527.51 3144.97 1525.47 3139.47 1524.53 3130.06 1525.41 3074.58 1530.21 3056.69 1611.36 3111.48 1643.8 3148 1665.71 3195.4 1659.46 3227.41 1624.74 3253.44 1596.59 3259.46 1538.99 3225.4 1491.53 3226.39 1492.06 3227.35 1492.57 3228.32 1493.14 3228.46 1493.22 3237.56 1499.18 3238.91 1500.13 3239.14 1500.3 3244.34 1504.36 3248.8 1507.99 3250.42 1509.31 3258.15 1516.54 3257.84 1516.25 3300.39 1557.19 3303.57 1636.9 3251.48 1664.17 3224.89 1678.05 3198.73 1674.3 3192.1 1674.68 3194.41 1675.61 3196.87 1676.13 3199.36 1676.21 3220.78 1678.69 3243.91 1674.77 3262.26 1662.43 3263.76 1661.49 3265.13 1660.26 3266.6 1659.16 3304.3 1631.57 3307.65 1555.68 3262.4 1511.61 3255.05 1504.45 3258.18 1507.41 3253.33 1502.89 3252.82 1502.42 3242.79 1494.64 3243.09 1494.85 3240.17 1492.78 3232.04 1487.48 3232.04 1487.48 3231.74 1487.3 3222.25 1482.02 3220.25 1481.02 3218.56 1480.19 3216.82 1479.44 3215.1 1478.69 3177.47 1437.29 3118.69 1421.27 3059.55 1445.98 3078.39 1434.56 3109.16 1424.7 3140.84 1423.92 3167.68 1423.17 3193.74 1429.61 3217.19 1442.23 3235.24 1452.01 3244.59 1460.99 3245.42 1460.14 3245.8 1459.76 3243.98 1457 3239.79 1452.79 3207.39 1421.09 3152.51 1405.46 3095.56 1423.06 3075.23 1429.22 3062.88 1437.42 3055.66 1441.58 3074.95 1427.89 3101.47 1409.47 3114.03 1374.56 3121.57 1353.83 3121.88 1332.16 3117.03 1311.96 3107.68 1269.25 3071.21 1238 3018.4 1238 3009.64 1238.04 2999.75 1239.77 2990.22 1243.31 2955.54 1255.83 2933.56 1288.17 2943.89 1328.37 2938.33 1345.07 2926.54 1354.55 2910.27 1357.38 2895.41 1360.06 2875.22 1356.9 2864.51 1340.76 2855.68 1326.24 2856.72 1305.97 2870.09 1293.87 2880.62 1284.41 2897.44 1284.18 2907.32 1294.94 2910.94 1298.96 2912.03 1304.26 2911.75 1309.69 2911.73 1315.87 2907.55 1321.27 2899.33 1322.53 2895.44 1323.1 2895.7 1323.5 2899.44 1323.6 2910.16 1323.68 2916.95 1315.09 2914.43 1301.38 2911.46 1285.56 2889.14 1276.62 2872.36 1286.42L2869.52 1288.16 2866.84 1290.22C2851.12 1303.96 2849.84 1327.11 2859.9 1343.65 2877.19 1371.35 2932.03 1371.33 2945.82 1334.27 2957.93 1367.21 2995.6 1377.69 3017.32 1370.73 3024.29 1374.9 3032.19 1377.28 3040.3 1377.65 3066.9 1379.15 3080.13 1360.78 3077.75 1344.59 3076.71 1336.82 3074.46 1333.01 3074.19 1333.14 3073.92 1333.28 3075.31 1337.3 3075.69 1344.75 3076.39 1355.51 3070.3 1364.89 3061.26 1369.68 3048.86 1375.7 3034.23 1373.78 3023.44 1368.56 3040.89 1360.94 3051.58 1346.7 3053.2 1335.37 3053.5 1332.76 3053.23 1332.42 3052.15 1335.1 3046.49 1349.9 3032.98 1360.81 3018 1365.26 3009.53 1358.54 3004.74 1347.05 3003.84 1336.25 3003.12 1319.5 3011.18 1302.98 3025.82 1293.68 3052.72 1278.55 3087.78 1286.22 3105.26 1308.21 3109.99 1324.34 3111.2 1338.65 3108.21 1357.22 3107.66 1360.64 3105.47 1367.67 3104.48 1370.73 3085.11 1425.55 3032.45 1433.46 3005.85 1475.82 3013.02 1427.17 2979.69 1408.05 2954.35 1417.94 2935.64 1424.44 2926.88 1446.2 2938.24 1463.19 2947.36 1476.51 2967.63 1478.31 2977.73 1466.3 2983.27 1459.78 2983.56 1449.33 2976.92 1443.62 2969.56 1437.13 2961.4 1439.79 2961.4 1440.51 2961.4 1440.65 2962.36 1440.51 2964.08 1440.51 2969.79 1440.74 2975.9 1444.11 2978.08 1450.43 2980.01 1457.55 2976.42 1465.27 2968.02 1468.47 2959.65 1471.99 2948.25 1469.21 2942.26 1460.27 2933.01 1445.77 2940.73 1427.98 2956.22 1422.74 2977.1 1414.55 3000.27 1429.34 3002.2 1458.37 3003.04 1469.57 3001.74 1477.61 3000.73 1484.4 2981.94 1520.47 2980.01 1572.47 2976.6 1607.07 2976.47 1602.21 2975.98 1597.36 2975.12 1592.57 2973.79 1553.73 2957.87 1512.41 2926.17 1492.44 2922.92 1490.2 2917.79 1487.48 2917.59 1487.88 2917.36 1488.34 2921.8 1491.39 2924.94 1494.1 2945.91 1511.1 2958.02 1533 2964.35 1558.76 2960.37 1551.99 2953.94 1543.79 2946.44 1536.67 2939.66 1530.7 2944.29 1534.39 2934.91 1526.92L2930.81 1523.94C2928.13 1521.88 2925.12 1520.19 2922.28 1518.26 2893.36 1498.62 2832.54 1489.01 2806.36 1451.21 2796.68 1437.22 2796.79 1419.56 2802.74 1405.5 2813.81 1378.42 2852.63 1373.06 2865.55 1396.36 2870.95 1405.45 2868.82 1416.7 2864.8 1423.51 2859.36 1430.69 2848.94 1433.45 2840.33 1432.52 2836.65 1432.04 2834.96 1431.07 2834.67 1431.37 2833.84 1432.19 2844.65 1437.64 2857.21 1433 2861.41 1431.64 2865.13 1429.12 2867.94 1425.71 2872.12 1419.54 2874.25 1410.61 2873.14 1402.66 2872.06 1394.55 2865.88 1384.86 2856.14 1379.76 2829.59 1366.1 2789.45 1385.54 2791.18 1428.72 2791.63 1438.44 2794.42 1447.53 2799.87 1455.44 2808.47 1468.19 2818.6 1476.37 2831.64 1484.5 2835.45 1486.88 2840.4 1489.82 2844.45 1491.8 2855.09 1497.1 2891.36 1511.93 2891.05 1511.8 2906.75 1518.45 2909.3 1520 2918.02 1525.15 2932.39 1533.63 2943.11 1544.45 2942.66 1544.02 2923.58 1533.54 2902.49 1536.36 2888.34 1547.02 2869.11 1562.01 2868.34 1588.85 2881.08 1603.29 2897.85 1620.59 2921.76 1614.84 2928.02 1602.3 2931.69 1594.51 2931.1 1584.05 2923.46 1579.11 2921.07 1577.77 2919.6 1577.91 2919.52 1578.2 2919.44 1578.5 2920.59 1579.22 2922.2 1580.88 2926.98 1586.02 2926.61 1593.78 2923.17 1599.75 2919.95 1604.21 2911.26 1608.38 2902.1 1606.21 2871.42 1599.54 2874.93 1549.45 2916.52 1547.91 2924.59 1547.61 2933.33 1550.49 2940.17 1554.8 2950 1560.79 2956.9 1570.95 2961.02 1580.91 2966.38 1594.49 2968.39 1609.89 2965.71 1628.09 2961.6 1654.88 2955.31 1671.01 2947.75 1688.44 2921.32 1729.56 2862.18 1781.93 2827.51 1809.02 2839.66 1793.34 2847.92 1774.12 2850.89 1760.47 2855.67 1737.71 2849.31 1715.59 2848.18 1715.89 2847.57 1716.05 2848.77 1724.07 2848.72 1737.02 2848.7 1755.64 2843.6 1766.86 2841.85 1771.94 2840.35 1776.31 2838.32 1780.71 2836.06 1785.08 2829.13 1799.24 2819.76 1812.06 2808.37 1822.96 2830.45 1788.5 2843.55 1751.82 2836.01 1711.95 2833.6 1700.07 2828.71 1688.83 2821.67 1678.97 2818.75 1664.62 2823.7 1648.21 2840.92 1646.19 2850.15 1645.42 2857.9 1651.98 2860.27 1660.21 2863.12 1672.45 2848.68 1682.63 2836.76 1672.57 2833.86 1670.13 2832.87 1668.06 2832.28 1668.28 2831.69 1668.49 2831.94 1669 2832.28 1670.15 2834.06 1676.78 2842.29 1683.45 2852.02 1681.79 2862.99 1679.99 2869.64 1669.25 2867.59 1658.73 2864.84 1646.47 2853.43 1637.14 2840.3 1638.25 2824.75 1639.89 2813.47 1651.84 2814.11 1670.02 2811.09 1667.08 2811.68 1667.58 2809.66 1665.92 2793.11 1638.57 2771.04 1614.96 2767.19 1575.36 2765.25 1557.44 2769.23 1536 2781.67 1521.58 2802.1 1499.05 2840.31 1497.8 2852.95 1524.88 2856.38 1533.29 2855.43 1542.86 2850.41 1550.43 2840.14 1566.84 2819.3 1567.05 2806.04 1556.14 2804.02 1554.53 2803.09 1553.46 2802.85 1553.67 2802.6 1553.89 2803.28 1555.12 2805.07 1557.16 2816.84 1570.36 2841.66 1572.1 2854.59 1553.14 2872.67 1526.57 2847.12 1493.61 2812.42 1498.31 2792.1 1500.79 2773.84 1513.46 2765.61 1534.99 2760.68 1548 2758.94 1562 2760.54 1575.82 2763.12 1600.79 2772.91 1621.25 2787.43 1642.08L2798.5 1658.17C2787.6 1652.2 2775.74 1649.95 2763.97 1651.55 2755.29 1653.07 2748.56 1654.92 2741.51 1660.07 2724.45 1673.08 2718.65 1697.11 2729.55 1717.23 2744.57 1744.55 2786.07 1736.62 2789.71 1714.79 2789.97 1711.26 2789.13 1710.59 2787.38 1714.04 2786.6 1715.14 2785.58 1717.07 2782.82 1719.62 2776.08 1725.39 2766.41 1727.15 2757.99 1725.59 2739.13 1722.85 2731.56 1700.55 2739.68 1683.56 2742.97 1676.6 2748.92 1670.61 2756.92 1668.09L2761.26 1666.96 2765.69 1666.27C2795.14 1663.79 2815.58 1690.53 2820.19 1715.22 2822.91 1729.76 2822.68 1744.7 2819.52 1759.16 2816.62 1772.95 2811.9 1786.29 2805.47 1798.83 2798.19 1813.14 2789.92 1826.74 2781.96 1838.08 2795.53 1805.94 2781.01 1771.3 2748.74 1769.64 2724.21 1768.47 2704.71 1794.64 2715.74 1815.43 2723.91 1830.79 2740.89 1832.93 2740.89 1832.18 2740.89 1831.89 2738.21 1830.98 2733.65 1828.59 2723.93 1823.56 2715.07 1812.69 2717.16 1799.99 2719.77 1784.23 2736.8 1769.97 2758.05 1776.82 2778.91 1783.54 2792.55 1813.25 2772.44 1850.07 2747.89 1868.08 2723.38 1886.31 2700.51 1906.04 2700.51 1901.08 2700.97 1903.67 2703.19 1888.13 2704.08 1881.77 2704.81 1875.55 2705.23 1868.59 2705.31 1867.25 2705.23 1865.91 2705.23 1864.46 2705.23 1861.78 2705.42 1858.89 2705.42 1856.05 2704.68 1832.63 2699.76 1809.59 2688.61 1784.36 2680.5 1765.93 2668.91 1746.35 2655.53 1731.17 2654.35 1729.75 2652.85 1728.49 2651.61 1727.04 2650.38 1725.59 2648.93 1724.55 2647.59 1723.29 2628.44 1705.29 2610.17 1691.42 2586.52 1678.14 2565.49 1643.36 2556.09 1597.71 2570.57 1557.56 2586.2 1558.01 2608.21 1543.01 2605.04 1515.47 2645.37 1491.93 2701.77 1501.77 2718.72 1554.29 2720.16 1560.79 2719.91 1559.49 2720.67 1562.89 2721.66 1567.27 2722.3 1578.5 2719.04 1589.89 2715.76 1601.82 2708.13 1613.23 2696.11 1619.35 2679.86 1627.64 2656.63 1623.59 2641.56 1612.35 2633.47 1606.08 2630.62 1598.89 2629.25 1596.3 2628.15 1594.39 2627.64 1594.67 2627.64 1596.67 2627.64 1598.38 2627.55 1599.5 2628.13 1601.33 2634.79 1626.52 2672.37 1639.58 2695.66 1631.58L2700.89 1629.7C2724.67 1619.15 2736.42 1593.04 2735.44 1567.56 2735.44 1565.25 2735.07 1562.92 2734.83 1560.59 2734.59 1558.25 2733.94 1556.08 2733.49 1553.81L2732.79 1550.37C2732.54 1549.39 2729.42 1540.07 2729.47 1540.19 2707.82 1487.45 2646.68 1474.3 2600.3 1499.54 2596.89 1492.34 2589.77 1483.76 2580.32 1477.96 2577.02 1449.44 2549.63 1423.3 2505.04 1422.47 2494.92 1422.25 2484.64 1423.61 2479.14 1425.04 2475.42 1425.84 2468.28 1428.41 2468.74 1428.23 2467.2 1428.82 2466.55 1429.16 2461.18 1431.56 2461.18 1431.56 2453.94 1435.58 2453.94 1435.58 2447.61 1439.64 2441.51 1444.78 2436.52 1449.89 2432.36 1454.68 2430.44 1456.16 2422.57 1468.2 2418.53 1474.4 2412.36 1488.02 2409.33 1500.96 2407.82 1507.17 2407.47 1511.1 2406.86 1515.98 2406.86 1526.12 2406.35 1523.35 2406.84 1531.29 2407.43 1541.02 2407.31 1539.56 2409.04 1549.78 2416.52 1584.56 2439.26 1612.18 2468.26 1630.58 2499.78 1649.7 2523.41 1659.07 2550.03 1671.25 2518.66 1665.46 2486.31 1672.35 2469.79 1699.48 2462.19 1696.93 2452.36 1694.07 2452.36 1694.07 2450.8 1693.65 2437.34 1690.4 2432.15 1689.51 2416.35 1686.8 2419.85 1687.36 2404.26 1685.78 2399.64 1685.32 2382.18 1684.89 2382.49 1684.9 2290.73 1684.9 2198.25 1748.12 2200.03 1848.67 2200.03 1851 2200.27 1853.34 2200.4 1855.64 2200.4 1858.05 2201.14 1862.9 2201.1 1862.59 2202.59 1873.18 2201.66 1867.47 2203.54 1876.23 2205.12 1883.85 2209.86 1896.28 2212.95 1901.89 2213.6 1903.07 2216.34 1908.86 2217.72 1910.89 2222.82 1918.43 2225.33 1921.45 2227.69 1924.08 2233.47 1930.51 2232.92 1930.16 2234.5 1931.67 2249.99 1944.88 2271.78 1955.31 2294.66 1958.03 2308.64 1959.69 2322.63 1957.93 2328.63 1956.47 2335.16 1954.88 2336.34 1954.75 2339.36 1953.63 2359.12 1947.58 2373.15 1934.28 2378.42 1926.17 2381.59 1921.5 2379.8 1924.75 2383.7 1917.49 2385.3 1914.5 2385.09 1914.65 2385.79 1912.96 2388.41 1906.62 2388.16 1906.12 2388.87 1903.74 2389.33 1902.21 2389.73 1900.65 2389.97 1899.1L2390.62 1894.46C2395.56 1855.21 2366.96 1817.71 2319.01 1822 2314.62 1822 2301.47 1824.59 2301.47 1825.72 2301.47 1826.47 2308.27 1825.9 2312.97 1825.96 2321.01 1825.96 2323.42 1825.87 2326.59 1826.45 2367.57 1830.2 2385.36 1862.92 2380.43 1892.9 2379.72 1897.23 2379.36 1898.64 2378.66 1900.76 2378.23 1902.05 2377.99 1903.44 2377.43 1904.65L2375.82 1908.48C2374.96 1910.28 2375.93 1908.74 2373.94 1912.21 2371.34 1917.98 2372.79 1915.05 2369.68 1919.47 2365.62 1925.47 2353.49 1936.85 2336.03 1941.72 2334.49 1942.27 2332.9 1942.68 2331.29 1942.96L2326.43 1944C2323.9 1944.58 2315.91 1945.38 2316.43 1945.34 2290.11 1947.1 2263.66 1938.05 2244.26 1921.08 2243.95 1920.79 2236.15 1912.41 2231.79 1905.45L2230.16 1903.07C2229.87 1902.62 2225.86 1894.85 2226.06 1895.24 2205.9 1854.65 2213.47 1794.11 2252.57 1754.12 2279.18 1727.08 2314.02 1710.17 2348.93 1703.77 2366.87 1699.88 2393.36 1701.06 2399.3 1701.06 2418.59 1702.93 2412.3 1701.97 2432.14 1705.25 2432.17 1705.25 2447.44 1708.72 2448.02 1708.86 2451.16 1709.67 2462.72 1713.25 2463.03 1713.34 2455.95 1735.92 2462.14 1762.01 2480.94 1777.58 2505.91 1798.03 2545.68 1794.52 2558.66 1766.8 2562.36 1770.21 2562.4 1770.2 2567.88 1776.1 2570.38 1778.78 2573.11 1781.46 2575.55 1784.3 2607.71 1819.16 2634.32 1858.88 2652.31 1903.39 2650.42 1924.16 2646.52 1944.71 2640.65 1964.73L2632.6 1972.77C2636.02 1947.93 2630.96 1933.59 2628.82 1924.41 2615.52 1865.85 2574.25 1826.51 2522.79 1813.82L2513.86 1811.73C2490.88 1807.34 2463.96 1807.79 2444.83 1811.25 2440.72 1811.97 2436.78 1812.37 2433.24 1813.26L2423.32 1815.56C2412.68 1818.08 2381.29 1828.13 2415.76 1820.79 2418.26 1820.2 2421.13 1819.8 2424.1 1819.32 2440 1816.74 2433.74 1817.55 2443.67 1816.53 2436 1821.44 2430.71 1830.11 2430.64 1840.17 2430.08 1867.01 2462.75 1876.72 2476.09 1860.17 2479.43 1855.93 2481.1 1850.61 2480.78 1845.21 2480.63 1836.49 2473.44 1829.55 2464.72 1829.7 2453.39 1829.89 2451.79 1838.81 2452.41 1838.72 2452.6 1838.7 2453.59 1836.45 2456.92 1834.33 2461.48 1831.69 2467.72 1832.35 2472.01 1835.86 2482.27 1845.03 2473.1 1867.69 2452.65 1862.21 2430.08 1856.78 2428.6 1823.68 2455.71 1815.27 2461.36 1815.27 2484.66 1813.02 2512.52 1818.86 2552.58 1827.25 2585.24 1851.06 2604.51 1883.36 2603.94 1882.8 2603.35 1882.24 2602.79 1881.65 2583.44 1861.12 2533.83 1846.96 2496.7 1873.12 2477.1 1887.78 2468.71 1912.46 2473.75 1933.82 2482.53 1968.65 2525.47 1985.51 2551.64 1957.35 2563.04 1944.92 2561.85 1931.79 2560.43 1931.64 2559.9 1931.59 2559.2 1933.06 2558.15 1935.66 2555.62 1941.72 2551.63 1947.48 2546.3 1951.97 2516.61 1976.28 2480.72 1947.02 2487.75 1914.83 2492.7 1888.91 2516.44 1874.98 2542.76 1875.21 2569.67 1875.21 2586.79 1888.45 2586.79 1888.45 2604.36 1902.96 2615.03 1922.19 2619.39 1942.72 2622.49 1957.07 2621.94 1971.84 2619.68 1986.41 2609.1 1997.38 2599.25 2009.02 2590.19 2021.27 2541.93 2088.29 2459.44 2220.24 2483.57 2475L2672.93 2475C2606.76 2344.39 2607.75 2192.89 2640.75 2095.15 2651.11 2070.11 2669.65 2049.31 2693.35 2036.17 2756.85 2024.74 2830.26 2032.33 2886.38 2061.85 2887.52 2062.48 2900.39 2069.44 2906.41 2073.94 2923.51 2085.59 2934.51 2097.29 2936.66 2099.2 2937.21 2099.69 2941.85 2104.35 2942.44 2103.75 2943.43 2102.77 2933.2 2085.25 2910.92 2067.8 2908.05 2065.39 2904.75 2063.27 2901.45 2060.86 2898.16 2058.45 2894.48 2056.36 2890.73 2054.05 2846.12 2028.16 2791.85 2018.25 2740.32 2021.29 2733.8 2021.54 2723.12 2022.79 2723.33 2022.77 2805.59 1995.58 2923.67 2020.89 2982.23 2073.52 2986.48 2079.24 2990.25 2085.3 2993.52 2091.64 3002.41 2108.93 3003.79 2122.84 3004.59 2127.85 3005.02 2130.54 3005.05 2133.43 3005.29 2136.27 3005.53 2139.11 3005.29 2142.04 3005.29 2144.99 3005.29 2146 3005.25 2146.15 3004.86 2151.56L3004.54 2153.75C2998.99 2197.41 2954.43 2218.17 2917.78 2203.54 2887.89 2190.91 2885.93 2150.14 2912.87 2139.22 2924.58 2134.22 2938.09 2136 2948.1 2143.86 2954.93 2149.75 2957.87 2161.91 2953.52 2170.48 2952.18 2172.71 2950.84 2173.56 2951.16 2173.86 2952.11 2174.73 2959 2169.03 2958.59 2159.3 2958.54 2152.47 2956.25 2145.52 2950.97 2140.54 2934.5 2126.1 2909.64 2128.43 2896.17 2143.27 2883.58 2156.86 2883.2 2181.51 2897.24 2198.12 2911.8 2214.92 2937.51 2219.31 2958.34 2214.48 2987.43 2208.41 3008.65 2184.9 3012.02 2154.82L3012.34 2152.41C3012.34 2147.14 3012.91 2142.83 3012.31 2136.01 3011.93 2131.67 3011.49 2125.44 3009.82 2118.5 3007.27 2107.12 3003.13 2096.84 2997.22 2086.87 2991.99 2075.78 2985.55 2065.31 2978.02 2055.64 2993.07 2072.66 3005.91 2091.62 3014.8 2112.44 3020.29 2126.46 3023.12 2143.61 3023.2 2154.13 3024.05 2169.33 3021.48 2184.52 3015.69 2198.6 3014.67 2201.33 3014.23 2201.88 3010.54 2208.9 3004.47 2217.81 3004.81 2217.36 3004 2218.2 3001.51 2220.81 2998.24 2225.59 2992.39 2230.05 2974.48 2244.77 2942.63 2252.65 2910.22 2245.57 2907.24 2245.01 2904.43 2244.04 2901.58 2243.32 2895.16 2241.68 2884.37 2235.98 2879.76 2232.22 2863.63 2220.35 2852.63 2202.12 2851.32 2179.38 2851.32 2176.3 2851.02 2174.64 2850.75 2174.61 2850.49 2174.58 2850.14 2176.19 2849.71 2179.35 2846.88 2208.99 2868.69 2242.6 2908.56 2252.14 2954.43 2263.24 2991.89 2245.07 3006.04 2227.91 3009.79 2223.35 3009.47 2224.89 3017.27 2213.11 3018.42 2211.36 3019.23 2209.41 3020.19 2207.53 3024.61 2199.79 3032.41 2178.63 3030.92 2153.86 3030.92 2149.92 3030.3 2146.06 3029.92 2142.23 3029.29 2135.73 3026.45 2121.82 3021.48 2109.71 3014.37 2093.71 3006.59 2081.68 2996.81 2068.96 3041.54 2107.79 3034.2 2103.63 3066.09 2132.98L3088.26 2154.42C3122.69 2187.17 3152.2 2213.01 3193.49 2235.04 3228.56 2253.79 3266.82 2264.69 3307.25 2264.52 3350.33 2264.91 3397.85 2252.96 3427.87 2222.06 3431.64 2218.18 3430.73 2219.17 3433.23 2215.98 3438.36 2209.11 3438.57 2208.1 3431.91 2214.64ZM3022.93 1288.94C3003.54 1300.91 2994.75 1324.23 2999.6 1344.32 3001.84 1353.68 3006.9 1361.88 3011.78 1366.57 2990.76 1369.71 2952.51 1356.93 2950.03 1314.57 2951.23 1300.22 2949.67 1302.75 2951.48 1295.58 2959.46 1263.66 2995 1244.71 3027.27 1248.48 3061.03 1251.05 3090.61 1269.67 3102.47 1300.28 3082.33 1279.3 3046.49 1275.54 3022.93 1288.94ZM2998.29 1552.71C3002.13 1530.1 3006.85 1519.75 3012.13 1508.26 3020.65 1493.55 3015.37 1502.02 3022.45 1491.98 3024.13 1489.61 3025.99 1487.37 3028.02 1485.28 3046.99 1464.08 3074.41 1453.07 3103.12 1450.14 3129.04 1447.19 3154.11 1453.44 3175.5 1466.54 3120.4 1456.99 3056.56 1474.57 3022.45 1522.38 3007.32 1543.6 3000.1 1568.15 2994.72 1593.64 2994.88 1583.05 2996.33 1563.36 2998.29 1552.71ZM2924.64 1775.67 2924.64 1775.65C2951.87 1765.38 2982.34 1761.41 3012.61 1765.16 3029.63 1767.1 3045.28 1771.65 3059.09 1781.49 3066.36 1786.93 3070.06 1792.26 3071.43 1793.98 3050.38 1785.12 3035.98 1782.2 3023.68 1779.88 2980.56 1771.9 2940.09 1773.21 2898.13 1788.14 2906.64 1783.33 2915.51 1779.16 2924.64 1775.67ZM2600.43 1518.12C2600.43 1519.03 2601.8 1528.1 2596.19 1538.18 2590.62 1547.95 2580.03 1553.43 2571.93 1553.75 2577.66 1539.85 2587.14 1527.05 2600.43 1518.12ZM2580.72 1484.34C2584.16 1486.77 2587.25 1489.41 2590.78 1493.7 2592.23 1495.71 2594.54 1498.77 2596.01 1501.82L2595.79 1501.82C2576.88 1513 2563.84 1530.48 2556.33 1551.12 2550.07 1548.88 2543.65 1544.71 2540.14 1538.93 2564.03 1532.91 2580.72 1507.89 2580.72 1484.34ZM2473.7 1621.66C2446.87 1604.62 2425.96 1579.45 2418.9 1547.66 2417.13 1537.1 2417.65 1541.49 2416.78 1530.86 2416.36 1524.79 2416.76 1525.61 2416.76 1517.21 2417.28 1512.86 2417.59 1509.35 2418.9 1503.81 2424.08 1481.11 2437.53 1458.35 2458.79 1444.08 2458.79 1444.08 2464.09 1441.02 2467.72 1438.82 2504.73 1421.93 2560.77 1432.45 2572.31 1473.65 2555.39 1466.59 2533.88 1466.99 2516.25 1471.69 2490.68 1479.92 2471.76 1501.55 2464.08 1525.82 2455.03 1554.06 2463 1588 2480.56 1612.19 2487.62 1621.88 2495.77 1630.71 2504.85 1638.52 2494.18 1633.51 2483.81 1627.8 2473.7 1621.66ZM2519.55 1646C2505.66 1635.17 2494.59 1624.55 2484.21 1609.92 2457.1 1571.39 2458.33 1518.67 2496.41 1488.63 2508.31 1479.39 2521.82 1474.28 2541.45 1473.97 2551.82 1473.67 2563.67 1475.41 2573.51 1480.24 2576.61 1502.77 2561.58 1528.43 2538.2 1535.17 2537.09 1531.98 2536.49 1528.63 2536.41 1525.25 2536.64 1523.58 2536.64 1521.88 2536.41 1520.21 2534.44 1524.92 2534.89 1531 2536.22 1535.65 2526.52 1538.16 2516.17 1537.59 2506.22 1535.04 2500 1533.38 2496.84 1531.98 2496.65 1532.36 2496.18 1533.3 2516.23 1544.6 2537.91 1539.68 2541.27 1546.66 2548.14 1551.54 2555.28 1554.37 2542.91 1592.48 2550.01 1635.02 2568.1 1668.57 2545.34 1657.46 2537.2 1654.27 2519.55 1646ZM2554.4 1764.57C2539.48 1794.71 2487.28 1791.1 2471.82 1754.57 2466.55 1742.28 2465.86 1728.51 2469.89 1715.75 2503.34 1727.2 2534.75 1745.75 2555.02 1763.34 2554.61 1763.77 2554.48 1764.17 2554.29 1764.57L2554.4 1764.57ZM2551.05 1742.27 2551.16 1742.27C2540.92 1734.59 2530.17 1727.63 2518.98 1721.41 2532.04 1717.04 2549.79 1720.2 2555.79 1734.95 2557.51 1739.07 2558.37 1743.49 2558.31 1747.95 2555.82 1746.05 2553.51 1744.15 2551.05 1742.27ZM2635.1 1844.03 2635.21 1844.14C2617.15 1813.03 2599.52 1790.87 2577.89 1767.01 2574.14 1762.89 2570.44 1758.5 2562.66 1751.73 2563.12 1745.46 2561.99 1739.17 2559.39 1733.45 2553.03 1719.63 2537.38 1714.85 2523.62 1718.89 2521.81 1719.26 2520.13 1720.13 2518.79 1721.41 2505.23 1713.9 2491.25 1707.44 2476.22 1702.05 2492.05 1677.98 2522.54 1672.95 2550.91 1678.6 2564.39 1681.47 2575.91 1688.26 2586.95 1696.18 2590.88 1700.92 2592.66 1702.8 2593.57 1703.8 2633.3 1754.2 2654.45 1816.75 2653.46 1880.92 2648.06 1868.28 2641.93 1855.96 2635.1 1844.03ZM2698.13 1864.46C2698.13 1870.55 2698.15 1868.62 2697.91 1872.32L2697.91 1872.58C2694.46 1848.9 2688.29 1825.69 2679.52 1803.42 2667.37 1773.1 2645.07 1744.44 2621.42 1720.77 2615.63 1713.85 2609.96 1707.57 2601.96 1700.26L2600.94 1698.95C2625.44 1715.18 2645.27 1733.8 2648.58 1737.66 2661.48 1752.07 2672.78 1770.62 2680.81 1788.08 2691.72 1811.88 2696.89 1833.65 2698.13 1856.34 2698.07 1859.05 2698.02 1861.73 2698.02 1864.35L2698.13 1864.46ZM2927.73 1995.5C2905.85 1984.76 2872.97 1973.97 2836.06 1969.63 2818.92 1966.44 2801.52 1964.88 2784.08 1964.97 2817.68 1963.24 2840.11 1966.27 2871.64 1960.09 2883.72 1957.88 2898.78 1952.7 2908.56 1944.16 2911.51 1941.44 2914.02 1938.28 2915.98 1934.78 2919.74 1928.7 2920.95 1921.38 2919.36 1914.41 2917.23 1906.31 2910.3 1898.74 2901.56 1898.19 2899.33 1898.19 2898.24 1898.56 2898.24 1898.78 2898.24 1898.99 2899.39 1899.18 2901.29 1899.77 2908.38 1901.83 2913.57 1908.22 2914.97 1915.4 2916.36 1924.93 2911.65 1933.45 2904.29 1939.45 2882.42 1957.03 2837 1956.19 2809.71 1956.25 2756.69 1956.38 2726.46 1964.55 2705.02 1974.3 2732.55 1938.74 2759.56 1912.71 2803.22 1873.71 2888.68 1851.61 2976.43 1866.45 3041.56 1904.3 3026.32 1921.71 3029.62 1948.82 3044.62 1962.8 3053.38 1970.29 3064.99 1973.48 3075.74 1973.12 3086.66 1973.11 3096.17 1967.02 3098.72 1962.04 3099.34 1961 3099.58 1960.44 3099.47 1960.36 3099.36 1960.28 3097.86 1962.29 3094.11 1964.91 3088.63 1968.52 3082.14 1970.3 3075.58 1969.98 3065.99 1969.82 3055.35 1966.61 3047.51 1959.58 3034.62 1946.76 3032.42 1922.31 3046.68 1907.63 3051.46 1910.67 3059.38 1915.55 3072.63 1926.36 3076.54 1929.4 3077.07 1929.1 3073.76 1925.18 3067.34 1917.43 3058.09 1910.08 3050.27 1904.33 3064.65 1893.55 3083.46 1891.19 3100.62 1895.21 3128.34 1902.65 3147.85 1928.95 3151.56 1954.86 3152.28 1962.35 3151.6 1971.62 3150.25 1979.18 3146.71 1997.66 3137.55 2011.34 3124.54 2020.51 3105.71 2033.83 3083.37 2038.43 3060.44 2037.24 3011.75 2035 2963.39 2009.41 2927.62 1995.4L2927.73 1995.5Z" fill="#010101" fill-rule="evenodd"/></g></svg>