<svg width="549" height="1237" xmlns="http://www.w3.org/2000/svg" xmlns:xlink="http://www.w3.org/1999/xlink" xml:space="preserve" overflow="hidden"><defs><clipPath id="clip0"><rect x="2199" y="1238" width="549" height="1237"/></clipPath></defs><g clip-path="url(#clip0)" transform="translate(-2199 -1238)"><path d="M2498.43 1245.8C2508.36 1239.03 2520.88 1236.91 2532.67 1238.51 2539.73 1238.56 2546.94 1238.11 2553.81 1240.25 2565.49 1244.94 2578.86 1247.14 2588.06 1256.46 2596.61 1265.41 2606.92 1273.74 2610.84 1285.92 2612.48 1290.3 2616.28 1293.42 2618.21 1297.63 2618.97 1301.18 2616.64 1304.38 2615.67 1307.65 2613.33 1313.06 2614.57 1319.24 2612.22 1324.63 2607.11 1335.71 2613.61 1348.24 2609.47 1359.57 2608.24 1365.24 2603.46 1370.13 2604.29 1376.15 2612.2 1384.54 2608.31 1374.71 2623.42 1400.35 2625.61 1404.98 2631.48 1404.89 2635.3 1407.6 2644.97 1413.87 2656.85 1415.26 2666.38 1421.8 2675.8 1427.91 2685.8 1433.37 2693.94 1441.23 2734.26 1481.28 2736.73 1471.75 2738.2 1573.44 2738.74 1587.64 2735.8 1601.91 2738.86 1615.98 2750.59 1659.73 2749.44 1667.88 2741.44 1693.9 2740.41 1706.34 2742.92 1719.24 2738.81 1731.34 2738.05 1735.91 2735.06 1740.92 2737.73 1745.38 2742.12 1754.84 2742.99 1765.65 2740.52 1775.76 2740.6 1785.22 2740.57 1795.81 2733.83 1803.28 2735.5 1810.64 2739.8 1817.27 2739.85 1824.98 2740.1 1833.78 2741.89 1842.41 2743.55 1851.02 2745.87 1861.84 2743.06 1873.05 2745.52 1883.85 2747.31 1893.18 2746.72 1904.28 2739.73 1911.41 2728.99 1919.73 2717.19 1928.32 2703.03 1928.74 2688.05 1950.2 2676.08 1975.62 2672.82 2002.96 2667.73 2038.95 2654.52 2045.79 2654.83 2058.69 2655.1 2063.7 2650.33 2065.95 2646.73 2068.17 2648.3 2071.24 2649.84 2074.31 2651.1 2077.55 2654.55 2078.23 2659.68 2077.17 2661.2 2081.38 2664.81 2086.04 2659.34 2090.6 2659.41 2095.4 2679.14 2150.79 2670.13 2130.25 2675.4 2152.61 2684.56 2194.03 2683.21 2187.04 2680.43 2219 2680.02 2231.81 2680.62 2244.71 2678.5 2257.42 2674.23 2288.77 2662.69 2329.25 2669.92 2349.8 2669.76 2368.32 2664.76 2386.55 2666.29 2405.13 2665.14 2412.92 2663.69 2420.7 2664.36 2428.63 2647.75 2432.27 2630.56 2434.97 2613.64 2431.59 2581.24 2429.19 2535.67 2434.52 2522.16 2432.03 2518.84 2431.97 2519.56 2428.74 2519.4 2426.49 2525.6 2424.81 2532.45 2423.71 2537.23 2418.98 2541.79 2414.17 2547.74 2411.08 2552.5 2406.45 2556.79 2401.9 2569.2 2403.16 2577.99 2388.39 2588.45 2374.15 2570.07 2338.3 2564.71 2318.47 2511.43 2195.15 2507.29 2142.79 2503.39 2129.79 2499.82 2129.29 2496.41 2128.14 2493.2 2126.54 2492.32 2119.39 2498.92 2116.12 2503.83 2112.64 2503.11 2110 2502.54 2107.33 2501.7 2104.76 2498.92 2101.16 2494.96 2098.67 2491.96 2095.28 2485.06 2083.29 2492.08 2078.04 2485.38 2035.88 2484.12 2027.76 2486.16 2019.3 2483.62 2011.37 2470.75 1969.3 2475.56 1987.92 2474.39 1968.29 2473.73 1957.59 2472.14 1946.75 2473.73 1936.06 2478.64 1921.68 2476.86 1906.26 2480.45 1891.65 2480.11 1879.05 2486.56 1867.71 2486.79 1855.23 2486.91 1847.82 2490.34 1841.15 2492.99 1834.42 2491.88 1833.99 2489.66 1833.08 2488.57 1832.65 2485.15 1838.83 2471.08 1874.36 2467.73 1879.76 2464.46 1880.89 2461.01 1879.73 2457.7 1879.59 2454.86 1885.29 2452.56 1891.23 2450.12 1897.09 2447.94 1902.26 2441.34 1905.27 2441.97 1911.5 2442.78 1919.71 2445.44 1929.42 2438.73 1936.03 2431.25 1938.85 2423.52 1942.71 2419.29 1949.82 2418.59 1952.09 2420 1954.34 2420.26 1956.59 2421.64 1961.48 2420.09 1966.67 2421.46 1971.56 2425.52 1976.54 2434.03 1979.7 2429.46 2004.68 2434.84 2013.51 2432.58 2024.35 2427.49 2032.75 2421.33 2043.19 2421.26 2056.83 2411.73 2065.21 2407.13 2064.24 2402.49 2063.44 2397.96 2062.31 2394.78 2072.5 2394.22 2083.19 2392.63 2093.68 2387.54 2138.05 2400.92 2148.9 2405.77 2162.26 2407.18 2168.65 2406.89 2175.34 2409.04 2181.63 2412.34 2191.51 2414.9 2201.66 2416.5 2211.97 2416.53 2214.37 2415.65 2216.67 2415.17 2219.02 2417.06 2221.12 2418.92 2223.23 2420.75 2225.39 2419.72 2227.35 2417.76 2229.01 2417.59 2231.33 2417.61 2240.87 2415.79 2250.49 2417.82 2259.97 2418.36 2265.05 2421.12 2270.72 2417.97 2275.47 2416.68 2279.73 2412.53 2281.74 2409.84 2284.96 2406.78 2292.68 2406.55 2302.03 2400 2307.99 2391.9 2315.35 2393.15 2324.74 2400.82 2355 2403.51 2373.72 2396.52 2413.35 2392.39 2425.29 2391.32 2431.28 2393.4 2437.33 2394.6 2443.18 2401 2445.15 2407.81 2445.89 2413.78 2449.11 2410.91 2456.51 2409.67 2466.06 2402.25 2470.41 2390.32 2471.68 2378.7 2476.43 2366.56 2474.56 2363.7 2474.53 2361.64 2472.39 2359.43 2470.95 2359.46 2463.43 2360.02 2455.93 2359.66 2448.43 2359.07 2437.18 2366.07 2426.97 2364.67 2415.64 2364.63 2415.37 2356.07 2377.27 2355.5 2363.65 2354.05 2354.64 2355.89 2344.98 2351.49 2336.62 2348.11 2326.36 2339.68 2318.69 2338.21 2307.72 2337.17 2307.64 2335.08 2307.52 2334.03 2307.46 2335.64 2315.58 2339.69 2325.13 2333.88 2332.54 2329.59 2334.49 2323.75 2332.65 2320.39 2336.47 2307.74 2359.09 2306.8 2385.54 2302.03 2410.42 2299.92 2419.79 2298.25 2429.47 2299.19 2439.09 2303.93 2445.89 2305.69 2454.77 2301.94 2462.49 2299.49 2467.14 2297.64 2474.03 2291.32 2474.34 2281.44 2475.07 2271.16 2475.87 2261.6 2472.7 2263.06 2460.3 2271.61 2449.41 2270.62 2436.61 2250.22 2383.67 2270.71 2353.26 2270.81 2332.65 2268.67 2330.96 2266.5 2329.34 2264.49 2327.55 2262.21 2324.05 2262.37 2319.61 2260.71 2315.89 2256.35 2311.94 2250.26 2310.27 2246.58 2305.49 2239.75 2298.92 2247.04 2288.28 2249.77 2261.02 2244.19 2257.22 2238.43 2253.2 2231.41 2253.05 2230.08 2251.33 2228.72 2249.64 2227.37 2247.97 2228.33 2243.18 2228.93 2238.29 2228.59 2233.41 2226.84 2230.87 2223.4 2231.23 2220.77 2230.47 2217.79 2225.7 2213.92 2221.05 2213.36 2215.28 2212.33 2206.04 2209.4 2197.09 2209.4 2187.74 2207.72 2180.27 2204.3 2173 2204.77 2165.17 2207.76 2136.26 2184 2129.09 2218.54 2038.28 2219.41 2034.78 2218.1 2030.8 2220.4 2027.72 2224.2 2022 2226.11 2015.26 2230.13 2009.69 2235.29 2002.96 2236.67 1994.37 2240.8 1987.08 2241.95 1980.06 2235.17 1975.2 2233.67 1968.77 2229.55 1955.76 2218.92 1944.47 2220.07 1930.15 2220.89 1916.13 2217.72 1901.35 2224.01 1888.19 2223.22 1887.64 2221.62 1886.55 2220.82 1885.99 2233.76 1877.8 2225.55 1864.05 2263.9 1853.77 2278.91 1853.02 2292.5 1860.68 2306.13 1865.88 2313.65 1868.59 2316.95 1876.63 2318.51 1883.87 2320.29 1890.97 2324.91 1896.95 2326.3 1904.19 2327.79 1911.57 2331.4 1918.53 2331.33 1926.18 2338.28 1928.48 2337.45 1936.29 2336.77 1942.19 2336.3 1946.22 2333.93 1949.63 2331.79 1952.96 2332.73 1955.25 2333.67 1957.57 2334.63 1959.88 2337.76 1957.93 2342.39 1953.74 2345.69 1957.72 2351.66 1965.05 2361.28 1966.48 2369.12 1970.95 2373.54 1973.73 2379.03 1972.65 2383.98 1973.51 2384.06 1968.29 2382.65 1963.17 2377.39 1961.02 2377.81 1959.12 2378.23 1957.24 2378.67 1955.36 2376.26 1954.47 2373.68 1953.84 2371.72 1952.16 2371.31 1945.18 2374.05 1938.55 2374.64 1931.68 2374.29 1927.36 2373.45 1923.09 2373.28 1918.74 2375.65 1917.85 2378.49 1917.61 2380.25 1915.55 2380.62 1906.33 2380.06 1896.73 2376.24 1888.19 2377.41 1881.31 2380.51 1874.95 2383 1868.49 2384.31 1864 2383.33 1859.11 2385.04 1854.71 2387.74 1846.99 2391.4 1839.64 2393.55 1831.72 2394.55 1828 2396.8 1824.81 2399.43 1822.07 2398.8 1818.9 2397.55 1815.7 2398.07 1812.45 2401.74 1807.78 2407.16 1805.04 2411.31 1800.88 2415.42 1796.6 2415.12 1790.32 2416.38 1784.92 2417.98 1778.38 2413.89 1771.91 2415.68 1765.38 2417.06 1759.87 2420.99 1755.54 2423.23 1750.39 2423.57 1747.71 2422.51 1745.06 2422.2 1742.42 2433.54 1727.64 2428.02 1699.15 2429.22 1676.08 2431.8 1655.67 2444.92 1614.94 2446.38 1594.39 2449.71 1570.37 2453.15 1546.04 2462.96 1523.67 2469.8 1509.2 2476.56 1480.05 2498.85 1463.78 2508.44 1457.36 2511.67 1445.56 2516.63 1435.77 2495.98 1423.46 2496.34 1436.33 2488.83 1416.49 2487.05 1408.19 2479.94 1402.28 2478.5 1393.89 2477.32 1385.89 2473.41 1378.69 2471.53 1370.89 2462.59 1369.51 2453.83 1374.08 2449.96 1347.77 2455.64 1345.07 2461.6 1343.07 2467.61 1341.26 2466.46 1340.95 2464.13 1340.34 2462.98 1340.03 2465.27 1328.79 2467.49 1308.5 2461.64 1299.07 2458.35 1293.8 2458.26 1287.53 2457.61 1281.55 2472.52 1266.23 2493.2 1249.41 2498.43 1245.8M2454.72 1350.78C2456.1 1358.52 2462.1 1366.33 2470.71 1365.74 2470.56 1359.36 2470.76 1352.97 2470.29 1346.59 2465.03 1347.72 2459.81 1349.06 2454.72 1350.78Z" fill-rule="evenodd"/></g></svg>