<svg width="1461" height="1239" xmlns="http://www.w3.org/2000/svg" xmlns:xlink="http://www.w3.org/1999/xlink" xml:space="preserve" overflow="hidden"><defs><clipPath id="clip0"><rect x="2199" y="1236" width="1461" height="1239"/></clipPath></defs><g clip-path="url(#clip0)" transform="translate(-2199 -1236)"><path d="M3654.2 1736.21C3646.93 1732.84 3653.73 1724.18 3639.32 1715.32 3633.44 1711.7 3631.67 1710.91 3630.52 1707.92 3625.17 1693.97 3618.1 1691.57 3618.57 1679.7 3619.04 1667.81 3607.34 1664.87 3604.12 1664.95 3599.58 1665.06 3602.87 1659.85 3595.17 1651.06 3590.77 1646.03 3590.34 1642.12 3587.79 1638.14 3582.58 1630 3586.79 1612.29 3582.33 1606.75 3576.44 1599.41 3570.33 1592.29 3561.89 1587.72 3553.5 1583.16 3556.54 1577.64 3542.38 1565.9 3538.44 1562.63 3543.39 1561.05 3539 1553.26 3534.64 1545.51 3536.41 1550.51 3546.5 1532.78 3556.02 1516.09 3547.39 1512.86 3551.09 1503.42 3552.64 1499.48 3553.43 1495.3 3553.03 1491 3552.12 1480.98 3530.43 1501.09 3523.08 1521.33 3520.19 1529.3 3513.41 1527.1 3511.03 1527.74 3493.6 1532.45 3487.78 1518.5 3473.28 1519.14 3470.36 1519.27 3467.85 1518.28 3466.33 1515.38 3465.25 1513.31 3463.42 1511.59 3462.57 1509.46 3458.17 1498.58 3450.55 1493.48 3447.17 1484.91 3445.56 1480.79 3445.01 1480.47 3439.52 1480.74 3438.24 1480.8 3437.43 1481.44 3437.77 1482.87 3438.29 1485.02 3437.39 1486.84 3436.54 1488.69 3432.38 1497.76 3432.18 1507.18 3434.59 1516.65 3438.37 1531.49 3438.9 1530.72 3435.2 1531.88 3429.32 1533.71 3430.38 1535.38 3420.75 1537.11 3408.98 1539.23 3407.17 1546.31 3401.89 1546.73 3395.28 1547.25 3389.89 1550.06 3385.21 1553.61 3381.52 1556.42 3385.09 1557.5 3380.21 1558.12 3370.88 1559.32 3368.3 1559.92 3370.26 1562.63 3371.21 1563.96 3372.11 1562.9 3378.68 1561.61 3381.44 1561.07 3382.66 1564.31 3380.79 1565.8 3376.77 1569.01 3373.71 1573.26 3369.2 1576 3366.51 1577.64 3363.6 1578.74 3360.86 1580.23 3335.14 1594.19 3343.69 1600.16 3331.34 1606.04 3321.66 1610.64 3317.45 1614.95 3314.94 1618.88 3312.64 1622.49 3312.94 1619.71 3306.64 1627.06 3304.15 1629.96 3301.19 1632.3 3297.82 1633.97 3291.53 1637.09 3290.72 1637.44 3287.02 1630.45 3286.3 1629.1 3286.15 1627.43 3284.65 1626.55 3283.6 1625.33 3283.36 1623.93 3283.48 1622.32 3283.82 1617.82 3283.41 1613.3 3283.98 1608.8 3284.45 1605.07 3282.42 1606.09 3280.36 1599.86 3279.7 1597.83 3278.48 1596.35 3276.45 1595.47 3271 1593.12 3265.91 1590.04 3260.32 1587.93 3251.81 1584.71 3252.39 1580.05 3246.8 1568.13 3239.11 1551.68 3241.06 1550.62 3237.69 1547.14 3231.41 1540.66 3229.18 1531.93 3221.48 1526.06 3205.63 1513.98 3213.15 1507.78 3203.73 1492.9 3199.92 1486.89 3198.12 1480.02 3195.39 1473.55 3193.23 1468.44 3199.67 1466.47 3195.52 1461.18 3191.74 1456.37 3195.1 1449.06 3191.86 1441.71 3190.81 1439.33 3192.43 1436.58 3190.13 1432.63 3188.08 1429.13 3186.62 1417.58 3180.13 1407.44 3177.46 1403.27 3178.98 1398.25 3171.29 1394.37 3159.57 1388.45 3162.27 1384.11 3151.91 1381.86 3120.02 1374.93 3118.42 1375.21 3117.2 1367.72 3116.05 1360.71 3117.94 1348.72 3123.86 1345.89 3125.7 1345.01 3127.8 1345.4 3129.32 1344.09 3130.18 1343.35 3143.13 1320.89 3136.46 1305.29 3135.68 1303.44 3135.68 1301.77 3136.84 1299.97 3142.38 1291.39 3133.66 1286.21 3133.58 1275.52 3133.57 1274.23 3130.17 1271.5 3131.94 1263.27 3132.71 1259.7 3132.67 1256.11 3131.93 1252.56 3131.44 1250.23 3131.65 1247.26 3127.83 1247.45 3127.32 1247.47 3126.74 1246.45 3126.24 1245.86 3123.75 1242.91 3121.55 1245.53 3118.56 1241.91 3116.73 1239.67 3106.28 1238.52 3102.95 1237.44 3100.61 1236.69 3098.5 1236.86 3096.71 1238.11 3090.94 1242.1 3084.9 1240.76 3076.72 1242.02 3064.41 1243.91 3062.15 1249.29 3053.74 1253.01 3050.31 1254.52 3049.63 1262.52 3041.03 1269.66 3040.4 1270.19 3039.82 1271.05 3040.29 1271.69 3041.99 1274.01 3040.03 1276.23 3040.29 1278.49 3041.12 1285.63 3038.19 1285.71 3040.1 1292.87 3043.77 1306.68 3039.85 1313.26 3048.39 1322.44 3052.32 1326.67 3056.17 1336.8 3057.41 1341.33 3059.99 1350.83 3059.12 1352.73 3054.64 1354.93 3041.76 1361.25 3046.49 1367.86 3040.42 1368.68 3031.65 1369.86 3039.61 1371.69 3028.21 1375.33 3019.6 1378.07 3014.69 1380.7 3008.49 1381.2 3001.32 1381.78 3001.56 1388.08 2994.46 1388.64 2993.95 1388.68 2990.11 1391.79 2988.99 1392.15 2981.97 1394.45 2974.07 1406.13 2974.02 1407.04 2973.86 1410.06 2971.96 1412.25 2970.58 1414.65 2965.77 1422.98 2969.06 1422.58 2965.19 1428.46 2960.78 1435.19 2954.39 1449.73 2956.37 1459.4 2956.64 1460.76 2957.02 1462.25 2956.2 1463.53 2954.08 1466.83 2954.64 1471.25 2951.72 1474.21 2951.53 1474.4 2951.37 1474.79 2951.41 1475.05 2952.18 1479.22 2949.58 1482.47 2948.38 1486.08 2943.73 1500.12 2946.58 1501.29 2942.97 1509.28 2928.65 1541 2923.25 1565.4 2977.76 1591 2982.53 1593.23 2984.36 1598.96 2985.63 1602.7 2986.97 1606.67 2984.42 1605.13 2983.33 1612.46 2981.26 1626.3 2978.3 1630.39 2978.22 1636.25 2978.09 1647.37 2979.17 1648.04 2976.14 1649.17 2969.67 1651.59 2966.77 1649.76 2965.42 1652.93 2971.34 1654.05 2969.24 1659.27 2981.57 1661.03 2984.5 1661.45 2982.49 1662.39 2987.06 1675.35 2987.94 1677.83 2987.52 1678.2 2978.55 1692.6 2976.86 1695.3 2976.51 1694.77 2967.96 1684.98 2940.1 1653.06 2903.5 1653.07 2905 1685.73 2906.2 1712.02 2914.7 1711.23 2908.97 1715.44 2903.03 1719.8 2892.37 1721.62 2890.9 1721.03 2885.79 1719.01 2880.18 1718.77 2875.14 1716.55 2872.25 1715.27 2869.27 1714.5 2866.06 1714.55 2858.15 1714.68 2859.68 1708.44 2834.37 1702.49 2822.97 1699.81 2811.29 1698.31 2800.15 1694.51 2793.13 1692.12 2792.99 1692.54 2754.42 1692.08 2742.55 1691.94 2734.93 1696.44 2722.89 1701.66 2710.56 1707.01 2697.86 1711.49 2685.86 1717.61 2683.78 1718.66 2681.56 1719.57 2679.3 1720.1 2668.31 1722.66 2650.3 1730.39 2642.86 1732.3 2630.28 1735.54 2616.08 1731.46 2602.74 1741.22 2601.65 1742.02 2600.46 1742.23 2599.24 1742.44 2595.04 1743.13 2591.17 1744.81 2587.26 1746.39 2583.23 1748.02 2588.35 1748.73 2581.24 1751.88 2575.31 1754.52 2562.63 1757.02 2561.93 1761.79 2561.74 1763.06 2560.19 1763.48 2559.17 1764.16 2556.93 1765.62 2554.56 1767.21 2553.31 1769.44 2549.2 1776.71 2531.25 1786.03 2535.93 1791.71 2537.26 1793.33 2534.55 1792.8 2529.66 1799.83 2516.09 1819.33 2509.35 1819.39 2509.77 1824.68L2509.65 1824.61C2509.64 1824.67 2509.64 1824.75 2509.64 1824.82 2509.67 1824.8 2509.69 1824.77 2509.71 1824.74 2509.85 1825.04 2509.93 1825.35 2509.73 1825.64 2509.58 1827.4 2508.34 1828.06 2506.87 1828.51 2506.72 1829.59 2507.17 1828.97 2496.49 1841.57 2490.9 1848.18 2492.34 1844.02 2489.25 1846.9 2481.24 1854.36 2480.06 1854.67 2472.87 1861.59 2469.17 1865.15 2466.08 1869.37 2461.74 1872.27 2455.55 1876.39 2453.76 1897.97 2444.81 1911.06 2443.15 1913.48 2441.45 1916 2440.97 1919.03 2439.82 1926.28 2438.46 1933.51 2439.11 1940.92 2439.59 1946.28 2437.16 1947.6 2437.28 1949.99 2437.66 1957.47 2424.72 1966.12 2421.26 1977.48 2421.08 1978.06 2420.72 1978.62 2420.34 1979.1 2417.97 1982.06 2416.46 1985.43 2415.08 1988.94 2409.56 2002.96 2404.17 2004.14 2404.58 2015.38 2405.21 2032.55 2389.59 2034.67 2388.07 2044.26 2386.48 2054.36 2378.7 2053.05 2366.13 2068.43 2359.58 2076.45 2355.47 2077.26 2337.69 2083.61 2326.49 2087.6 2331.9 2090.84 2319.81 2094.99 2297.95 2102.48 2297.33 2104.61 2279.32 2109.71 2275.61 2110.76 2275.72 2110.74 2274.14 2107.31 2272.11 2102.92 2271.08 2098.18 2268.95 2093.79 2264.6 2084.82 2268.34 2087.51 2263.45 2074.04 2262.94 2072.65 2261.58 2074 2261.92 2074.73 2264.52 2080.35 2264.48 2091.02 2267.72 2096.36 2270.18 2100.41 2270.98 2105.12 2272.96 2109.36 2273.54 2110.6 2273.12 2111.42 2271.85 2111.92 2263.09 2115.35 2254.24 2118.16 2244.69 2118.68 2240.19 2118.92 2237.11 2117.63 2233.99 2114.57 2213.95 2094.87 2214.92 2094.62 2212.32 2094 2210.73 2093.61 2210.77 2095.11 2211.5 2095.45 2213.74 2096.52 2212.39 2095.35 2232.69 2115.91 2233.43 2116.66 2234.45 2117.27 2234.46 2118.81 2227.22 2120.98 2226.99 2119.28 2218.07 2111.32 2217.27 2110.6 2216.66 2109.57 2215.44 2109.52 2215.01 2109.5 2214.43 2109.65 2214.19 2109.95 2213.37 2110.96 2215.58 2110.93 2223.1 2118.71 2222.68 2119.04 2222.57 2119.21 2222.45 2119.21 2208.18 2119.24 2206.38 2115.27 2199.72 2112.19L2199.72 2115.01C2201.93 2114.42 2204.68 2118.88 2209.18 2119.63 2213.01 2120.28 2216.7 2121.56 2220.69 2121.61 2225.75 2121.68 2227.23 2121.74 2234.59 2129 2241.8 2136.11 2259.22 2143.25 2268.83 2148.1 2282.15 2154.81 2284.03 2143.48 2293.21 2154.76 2294.43 2156.27 2297.93 2162.32 2308.2 2170.13 2312.29 2173.24 2315.25 2182.67 2326.85 2189.54 2325.56 2190.45 2326.46 2190.16 2310.27 2184.73 2299.55 2181.12 2290.29 2179.95 2285.17 2168.08 2284.92 2167.49 2284.78 2166.9 2283.95 2167.03 2282.26 2169.16 2288.52 2179.2 2299.07 2182.9 2352.44 2201.65 2336.38 2190.42 2348.2 2192.85 2351.31 2193.49 2353.9 2194.35 2348.35 2199.28 2344.15 2203.03 2342.21 2194.16 2339.77 2196.29 2340.76 2199.35 2341.45 2198.76 2343.16 2200.49 2346 2203.36 2345.76 2202.86 2332.74 2213.19 2328.78 2216.34 2324.23 2218.42 2319.57 2220.26 2316.37 2221.52 2313.15 2221.11 2309.9 2220.35 2305.52 2219.31 2306.08 2212.6 2301.93 2214.18 2305.79 2218.04 2305.71 2221.68 2309.28 2221.97 2314.62 2222.41 2323.57 2225.29 2344.2 2206.17 2346.41 2204.13 2346.31 2204.16 2349.17 2205.7 2362.39 2212.78 2365.11 2205.24 2368.17 2212.05 2370.39 2216.98 2387.06 2233.26 2390.18 2236.18 2398.42 2243.85 2406.6 2241.61 2413.53 2241.7 2426.81 2241.88 2435.29 2234.28 2449.53 2226.05 2453.55 2223.73 2456.81 2220.72 2459.3 2216.81 2468.87 2201.75 2488.76 2181.2 2486.73 2143.53 2491.35 2146.35 2495.14 2149.78 2499.13 2152.87 2490.95 2170.63 2498.33 2168.46 2495.7 2180.31 2493.08 2192.13 2496.78 2187.99 2487.84 2210.53 2482.07 2225.11 2485.73 2227.32 2483.33 2235.74 2481.25 2243.02 2478.58 2260.8 2473.83 2270.46 2466.27 2285.83 2466.68 2287.71 2462.35 2294.01 2457.46 2301.12 2458.06 2303.02 2453.3 2310.94 2449.7 2316.94 2450.83 2320.11 2446.65 2322.46 2445.36 2323.19 2444.32 2324.37 2444.14 2325.72 2443.32 2331.74 2440.55 2337.42 2440.96 2343.65 2441.11 2345.93 2440.89 2347.98 2438.71 2349.42 2437.52 2350.21 2437.12 2351.7 2436.4 2352.89 2432.61 2359.08 2432.86 2366.41 2430.67 2373.05 2429.82 2375.68 2432.45 2383.05 2428.39 2385.78 2426.53 2387.03 2425.28 2386.04 2424 2385.09 2423.03 2386.25 2423.93 2387.09 2423.97 2387.97 2424.27 2393.2 2418.44 2386.54 2416.15 2386.72 2412.94 2386.98 2410.44 2384.84 2407.29 2384.2 2406.23 2388.05 2403.64 2390.98 2401.49 2394.23 2393.05 2406.98 2383.12 2394.39 2379.96 2423.03 2379.75 2425.01 2379.39 2427.04 2385.87 2427.99 2390.41 2428.66 2415.96 2432.2 2419.68 2434.69 2421.97 2436.23 2424.56 2428.78 2429.71 2434.08 2431.98 2436.42 2434.89 2436.52 2437.48 2436.71 2441.04 2436.96 2444.47 2430.84 2445.82 2427.56 2449.47 2418.77 2450.3 2421.55 2456.17 2408.69 2461.81 2396.29 2469.45 2389.88 2473.61 2385.69 2489.87 2369.32 2479.06 2363.75 2490.05 2335.53 2492.44 2329.41 2494.85 2323.3 2496.54 2316.95 2498.27 2310.44 2501.51 2304.52 2503.55 2298.14 2516.86 2256.54 2512.71 2253.34 2522.91 2241.88 2534.31 2229.08 2533.39 2226.85 2537.92 2222.72 2543.32 2217.81 2544.9 2212.94 2550.67 2205.71 2553.3 2209.2 2556.04 2211.82 2556.13 2216.23 2556.24 2222.19 2560.14 2224.6 2564.32 2233.41 2566.12 2237.21 2567.72 2241.18 2571.37 2243.76 2572.33 2244.45 2572.64 2245.49 2572.04 2246.68 2566.26 2258.19 2564.97 2267.37 2565.24 2281.16 2565.26 2282.27 2565.14 2284.2 2566.56 2284.24 2567.5 2284.26 2567.84 2283.41 2567.71 2282.57 2566.4 2273.86 2568.51 2255.66 2574.52 2247.57 2576.05 2247.96 2576.82 2249 2577.63 2249.91 2593.12 2267.29 2593.49 2253.58 2610.95 2276.26 2616.41 2283.33 2629.34 2289.74 2637.49 2293.31 2639.14 2294.02 2639.04 2294.31 2644.41 2303.6 2646.84 2307.8 2649.66 2311.96 2650.7 2316.66 2652.34 2324.17 2655.98 2331.02 2657.33 2338.59 2657.75 2340.91 2659.94 2339.91 2659.72 2338.46 2656.57 2317.76 2649.8 2308.03 2643.76 2297.33 2643.25 2296.43 2642.37 2295.64 2642.8 2294.2 2643.71 2294.36 2644.61 2294.49 2645.5 2294.68 2647.22 2295.05 2647.65 2293.5 2645.93 2292.74 2641.97 2291.01 2641.15 2292.33 2638.21 2288.08 2630.73 2277.27 2630.37 2270.8 2624.88 2266.13 2619.18 2261.27 2640.17 2263.36 2646.09 2265.05 2648.05 2265.62 2648.68 2263.05 2645.01 2262.42 2622.52 2258.59 2623.38 2263.57 2620.62 2259.59 2609.58 2243.64 2606.94 2223.64 2600.03 2213.04 2597.89 2209.77 2596.02 2206.33 2594.81 2202.59 2592.35 2194.97 2587.96 2195.13 2588.68 2192.06 2618.8 2213.36 2621.94 2216.45 2647.57 2224.75 2665.27 2230.48 2670.36 2223.68 2677.52 2226.76 2690.41 2232.3 2721.05 2238.35 2731.19 2239.36 2747.63 2240.99 2746.51 2235.95 2743.77 2236.13 2739.82 2236.39 2739.4 2239.38 2717.41 2234.57 2669.61 2224.12 2675.38 2223.49 2683.21 2217.72 2688.46 2213.85 2685.88 2207.68 2688.93 2201.87 2689.43 2200.93 2687.73 2198.87 2686.35 2200.83 2682.28 2206.63 2686.21 2213.71 2678.63 2216.92 2675.08 2218.42 2675.78 2222.7 2669.99 2220.16 2647.22 2210.16 2636.54 2207.78 2630.92 2200.72 2629.06 2198.4 2624.71 2192.44 2622.46 2190.73 2611.42 2182.3 2608.12 2174.47 2593.47 2165.71 2588.16 2162.53 2582.76 2159.4 2579.24 2153.97 2580.28 2150.68 2582.66 2148.1 2584.09 2144.98 2587.42 2137.74 2590.82 2130.53 2595.88 2124.23 2605.6 2112.11 2601.69 2111.61 2616.69 2096.6 2622.19 2091.11 2620.29 2084.69 2628.1 2079.99 2634.93 2075.88 2634.41 2071.23 2652.11 2057.14 2667.66 2044.76 2682.38 2038.78 2689.12 2028.06 2693.7 2020.76 2696.18 2019.7 2703.25 2009.48 2711.52 1997.54 2709.44 2004.01 2716.14 1995.38 2724.14 1985.07 2724.61 1996.27 2738.18 1997.54 2741.73 1997.87 2744.59 1998.78 2746.72 2002.12 2747.08 2002.69 2774.54 2031.6 2780.1 2049.16 2782.98 2058.25 2789.02 2084.06 2786.75 2094.71 2784.58 2104.82 2786.22 2105.02 2784.79 2107.6 2781.57 2113.41 2777.87 2149.44 2769.4 2169.65 2768.98 2170.65 2768.71 2171.73 2768.51 2172.79 2764.48 2193.88 2754.89 2191.65 2781.53 2221.47 2783.86 2224.08 2783.89 2226.68 2786.47 2230.48 2795.62 2243.99 2796.8 2251.32 2809.86 2271.59 2818.74 2285.36 2813.3 2281.73 2820.8 2295.21 2828.24 2308.56 2826.11 2309.72 2848.66 2346.2 2861.71 2367.3 2861.25 2375.42 2866.81 2388.23 2867.11 2388.92 2867.35 2389.75 2867.3 2390.49 2867.09 2393.58 2868.53 2396.27 2869.35 2399.09 2870.86 2404.34 2872.61 2398.15 2881.44 2400.67 2888.47 2402.66 2895.29 2405.79 2895.77 2412.93 2897.45 2438.12 2883.48 2434.72 2891.2 2444.56 2893.88 2447.97 2897.41 2447.36 2906.39 2449.58 2913.06 2451.22 2921.39 2448.55 2939.89 2452.48 2948.06 2454.22 2948.87 2444.16 2952.85 2445.88 2954.48 2446.58 2956.34 2446.12 2957.88 2447.82 2959.72 2449.84 2962.25 2448.9 2963.08 2446.31 2965.41 2439.1 2974.25 2437.11 2975.45 2430.93 2976.73 2424.26 2984.29 2406.65 2990.53 2404.23 2994.59 2402.66 2995.26 2398.54 3000.25 2391.32 3056.92 2309.37 3037.63 2328.01 3074.06 2297.76 3086.07 2287.79 3102.07 2255.19 3113.6 2238.29 3130.84 2212.99 3125.58 2213.68 3133.56 2205.06 3140.13 2197.96 3147 2191.09 3152.17 2182.77 3153.39 2180.8 3155.02 2179.03 3156.71 2177.41 3163.79 2170.61 3164.16 2167.21 3172.95 2158.62 3175.86 2155.77 3178.89 2153.05 3180.98 2149.49 3181.79 2148.11 3182.74 2147.88 3184.03 2148.8 3187.25 2151.08 3235.55 2195.23 3247.25 2203.93 3256.67 2210.93 3277.98 2229.54 3282.29 2236.31 3288.5 2246.07 3288.47 2252.76 3294.67 2257.62 3302.33 2263.63 3319.46 2280.95 3324.29 2296.65 3327.87 2308.32 3334.17 2319.68 3337.5 2330.73 3343.27 2349.87 3348.2 2353.16 3354.16 2377.46 3355.61 2383.34 3361.58 2407.2 3366 2411.34 3376.97 2421.61 3380.5 2416.51 3382.38 2422.76 3382.84 2424.29 3387.54 2433.35 3380.48 2438.92 3374.23 2443.83 3373.3 2450.84 3375.29 2458.09 3376.52 2462.6 3377.36 2467.71 3382.73 2469.74 3383.44 2470.01 3384.49 2475.03 3392.57 2474.99 3401.45 2474.95 3421.94 2474.95 3426.46 2470.91 3432.8 2465.25 3435.23 2467.62 3435.81 2462.81 3436.73 2455.12 3433.98 2449.64 3432.9 2443.02 3432.19 2438.67 3428.69 2438.82 3425.86 2432.67 3417.97 2415.59 3410.57 2410.75 3408.4 2396.13 3406.18 2381.06 3407.87 2375.66 3404.36 2372.46 3399.06 2367.63 3399.54 2365.46 3389.23 2351.18 3386.18 2346.96 3382.32 2343.04 3381.54 2337.44 3381.07 2334.12 3371.33 2320.21 3371.72 2315.45 3372.18 2309.92 3368.57 2309.22 3365.37 2301.15 3360.07 2287.81 3357.59 2283.1 3356.71 2277.92 3355.22 2269.09 3354.95 2252.52 3354.01 2245.77 3351.89 2230.69 3343 2233.55 3338.21 2221.84 3328.71 2198.62 3321.83 2200.66 3316.86 2192.81 3316.86 2192.81 3265.25 2131.3 3260.22 2122.99 3255.01 2114.38 3248.3 2112.86 3244.01 2101.99 3235.36 2080.04 3225.19 2084.26 3249.84 2066.95 3271.41 2051.8 3293.78 2018.94 3300.68 1989.69 3302.04 1983.9 3302.71 1978 3303.94 1972.19 3311.06 1938.26 3304.17 1941.44 3309.45 1934.05 3310.59 1932.46 3324.46 1910.8 3328.35 1905.5 3378.05 1837.66 3365.68 1860.31 3398.63 1804.41 3399.39 1803.12 3400.53 1802.67 3401.79 1803.51 3406.5 1806.62 3413.04 1806.59 3416.37 1812.05 3416.51 1812.29 3416.85 1812.46 3417.13 1812.56 3422.99 1814.69 3422.09 1819.82 3424.3 1820.69 3427.04 1821.78 3429.76 1820.13 3430.22 1817.18 3430.45 1815.8 3429.51 1814.45 3430.31 1812.81 3449.99 1816.89 3482.43 1802.66 3499.58 1793.69 3500.39 1793.26 3501.28 1792.39 3502.15 1792.97 3505.48 1795.17 3510.26 1789.76 3512.89 1789.87 3514.78 1789.96 3516.22 1789.46 3517.54 1788.25 3520.8 1785.24 3520.17 1791.81 3524.7 1789.03 3538.65 1780.45 3539.17 1780.63 3540.63 1782.46 3542.19 1784.4 3542.88 1781.88 3548.74 1783.12 3554.61 1784.35 3551.94 1780.06 3562.39 1778.09 3577.06 1775.33 3568.13 1807.93 3585.93 1810.89 3606.44 1814.31 3613.24 1817.47 3620.75 1809.58 3627.14 1802.85 3626.17 1809.14 3638.66 1800.04 3654.93 1788.19 3646.93 1776.51 3651.6 1771.6 3653.31 1769.79 3655.12 1767.97 3655.99 1765.56 3659.27 1756.38 3663.17 1740.38 3654.2 1736.21ZM2569.16 1913.6C2570.51 1914.44 2569.42 1917.24 2569.9 1923.08 2570.22 1926.95 2569.82 1927.9 2560.84 1937.14 2560.87 1928.02 2567.47 1913.3 2569.16 1913.6ZM2571.22 2218.7C2569.39 2219.13 2568.56 2218.43 2568.1 2216.9 2566.35 2211.16 2560.81 2211.25 2563.03 2200.28 2563.35 2198.69 2566.88 2197.66 2567.92 2199.62 2570.66 2204.72 2573.07 2209.94 2573.48 2216.19 2573.67 2217.56 2572.92 2218.29 2571.22 2218.7ZM2574.44 2233.41C2571.11 2230.29 2570.54 2227.1 2569.96 2223.96 2569.73 2222.73 2570.67 2222.43 2571.68 2222.31 2574.15 2221.99 2573.63 2222.37 2574.44 2233.41ZM2561.46 2179.86C2563.54 2181.27 2563.82 2182.83 2564.13 2184.28 2566.23 2194.15 2566.21 2194.59 2565.05 2194.87 2563.91 2195.14 2562.17 2195.73 2562.18 2192.07 2562.22 2182.1 2561.19 2186 2561.46 2179.86ZM2563.46 2177.27C2561.85 2175.52 2564.89 2171.71 2566.62 2170.16 2578.61 2182.8 2578.16 2179.08 2569.28 2193.13 2567.12 2190.33 2567.63 2181.81 2563.46 2177.27ZM2566.65 1909.73C2567.45 1910.82 2566.82 1911.83 2566.39 1912.78 2565.44 1914.92 2564.5 1917.07 2563.36 1919.12 2558.71 1927.42 2560.28 1932.17 2558.82 1939.26 2558.28 1939.85 2557.75 1940.45 2557.23 1941.07 2555.27 1940.62 2557.26 1937.25 2556.19 1933.86 2555.02 1935.88 2554.97 1937.6 2554.96 1939.24 2554.88 1951.2 2546.88 1956.25 2546.28 1960.51 2545.26 1961.75 2544.48 1963.33 2542.78 1964.1 2541.45 1960.98 2545.11 1950.06 2546.11 1947.92 2550.66 1938.16 2552.02 1917.11 2566.65 1909.73ZM2535.59 1943.44C2536.59 1940.87 2538.29 1938.57 2539.71 1936.16 2540.16 1935.42 2540.54 1934.3 2541.75 1934.89 2547.68 1937.78 2539 1943.38 2535.88 1952.83 2530 1962.84 2534.88 1957.35 2527.85 1966.79 2527.65 1966.92 2527.43 1967.05 2527.18 1967.15 2523.21 1960.55 2529.15 1960.04 2535.59 1943.44ZM2530.89 1964.59C2539.61 1952.64 2536.08 1954.01 2538.39 1949.48 2541.03 1948.61 2542.11 1946.4 2542.76 1943.7 2543.59 1946.06 2542.66 1948.19 2542.07 1950.23 2538.47 1962.71 2539.75 1962.15 2537.65 1964.78 2535.42 1967.58 2535.02 1970.99 2534.13 1974.25 2534.04 1974.57 2534.32 1975.01 2534.48 1975.4 2535.65 1974.46 2536.82 1973.52 2538.31 1972.32 2538.54 1987.97 2535.57 1998.48 2534.2 2025.79 2532.98 2029.19 2534.49 2027.34 2533.73 2046.09 2533.35 2055.34 2534.75 2066.67 2533.93 2068.49 2532.61 2068.66 2532.25 2068.15 2531.32 2062.15 2527.8 2039.69 2527.53 2051.61 2525.24 2031.96 2521.37 1998.73 2517.73 1991.55 2524.68 1975.36 2527.31 1969.25 2529.49 1968.64 2530.89 1964.59ZM2536.13 1972.19C2536.14 1970.32 2536.86 1969.07 2537.58 1967.47 2538.27 1969.85 2538.27 1969.85 2536.13 1972.19ZM2521.52 1966.91C2522.95 1972.02 2524.55 1976.21 2521.41 1979.99 2519.97 1977.64 2519.79 1977.62 2520.2 1974.23 2520.47 1972.08 2519.5 1969.67 2521.52 1966.91ZM2492.11 2037.73C2493.61 2037.04 2495.88 2037.96 2497.79 2038.27 2498.46 2038.38 2498.19 2039.47 2502.69 2059.77 2502.99 2061.11 2503.51 2062.44 2503.06 2064.23 2498.54 2061.83 2497.69 2057.48 2495.81 2053.83 2495.25 2052.73 2495.84 2050.77 2493.61 2050.83 2493.41 2050.84 2492.93 2050.01 2493.04 2049.74 2494.06 2047.26 2492.26 2046.62 2492.89 2041.09 2493.04 2039.8 2490.08 2038.67 2492.11 2037.73ZM2490.07 2086.56C2492.13 2094.76 2492.56 2102.36 2489.68 2110.05 2488.16 2109.68 2487.61 2109.08 2487.47 2108.3 2486.69 2103.73 2488.17 2090.55 2490.07 2086.56ZM2493.11 2096.67C2498.98 2105.4 2502.19 2114.23 2505.12 2123.34 2491.24 2111.24 2490.98 2111.48 2491.45 2109.97 2492.7 2105.97 2492.71 2101.79 2493.11 2096.67ZM2487.57 2111.46C2489.83 2111.97 2488.62 2115.17 2486.78 2115.76 2485.86 2114.64 2485.66 2111.04 2487.57 2111.46ZM2461.25 2055.91C2463.43 2041.67 2468.57 2041.28 2468.22 2027.63 2468.17 2025.74 2470.49 2025.77 2470.45 2023.65 2470.37 2020 2471.73 2016.41 2471.76 2012.64 2471.77 2010.6 2472.54 2008.42 2474.74 2006.77 2479.08 2036.26 2474.43 2017.65 2479.88 2035.29 2481.87 2041.77 2483.16 2048.55 2478.34 2053.41 2476.58 2055.19 2472.75 2063.84 2463.65 2068.11 2461.86 2068.95 2460.29 2070.27 2458.58 2071.4 2458.12 2065.94 2460.46 2061.06 2461.25 2055.91ZM2439.28 2104.5C2442.11 2093.77 2441.97 2092.7 2443.98 2091.02 2444.48 2090.61 2444.65 2089.6 2444.67 2088.86 2444.85 2082.53 2446.97 2076.61 2448.65 2070.63 2458.27 2036.34 2460.95 2043.03 2460.47 2044.45 2458.41 2050.52 2457.55 2056.88 2456.96 2063.16 2456.54 2067.67 2451.45 2077.99 2452.51 2082.92 2452.82 2084.37 2452.52 2085.82 2452 2087.06 2449.7 2092.62 2451.76 2097.4 2448.5 2105.78 2445.95 2112.32 2446.89 2122.05 2441.2 2134.21 2436.27 2144.75 2436.15 2151.35 2422.02 2168.89 2417.96 2173.94 2399.26 2197.56 2392.98 2195.41 2397.43 2192.67 2403.12 2185.01 2403.26 2184.43 2403.5 2184.13 2403.75 2183.8 2404 2183.47 2404.26 2183.36 2404.45 2183.14 2404.66 2182.92 2404.59 2182.88 2404.53 2182.86 2404.47 2182.84 2404.53 2182.75 2404.6 2182.66 2404.66 2182.57 2404.68 2182.65 2404.71 2182.73 2404.74 2182.81 2409.49 2176.59 2413.45 2172.08 2415.09 2166.83 2433.38 2136.04 2437.77 2110.24 2439.28 2104.5ZM2432.76 2122.91C2432.23 2124.63 2431.68 2126.33 2431.11 2128 2430.82 2127.98 2430.85 2128.38 2430.88 2128.68 2430.78 2128.98 2430.68 2129.27 2430.58 2129.57 2429.35 2130.34 2429.44 2131 2427.66 2136.96 2427.74 2136.9 2427.82 2136.84 2427.9 2136.79 2427.82 2136.99 2427.74 2137.2 2427.66 2137.4 2427.63 2137.33 2427.61 2137.28 2427.58 2137.22 2423.65 2150.39 2399.52 2192.36 2392.03 2192.71 2392.76 2188.28 2397.98 2182.6 2399.57 2180.68 2411.12 2166.7 2412 2158.58 2419.59 2150.55 2419.73 2150.75 2419.8 2150.73 2419.79 2150.52 2419.73 2150.52 2419.67 2150.54 2419.6 2150.54 2419.67 2150.48 2419.72 2150.42 2419.78 2150.35 2419.79 2150.42 2419.79 2150.47 2419.79 2150.52 2419.82 2150.52 2419.85 2150.51 2419.89 2150.51 2417.96 2148.1 2433.91 2115.16 2433.7 2110.78 2433.6 2108.64 2434.66 2106.86 2437.02 2106.6 2435.08 2115.65 2432.76 2122.91 2432.76 2122.91ZM2434.76 2084.32C2432.81 2096.09 2429.84 2089.43 2429.59 2095.53 2429.37 2101.02 2427.59 2106.24 2426.82 2111.65 2426.43 2114.28 2424.85 2116.83 2423.45 2119.19 2409.11 2143.5 2411.89 2149.19 2398.43 2162.91 2390.26 2171.24 2394.27 2169.24 2383.28 2176.78 2382.08 2177.6 2380.8 2176.52 2381.88 2174.93 2403.7 2142.69 2398.75 2158.28 2407.55 2138.75 2427.24 2095.08 2423.46 2097.99 2429.5 2090.93 2431.16 2088.99 2431.96 2086.33 2434.76 2084.32ZM2397.53 2144.36C2398.19 2143.78 2398.32 2142.55 2399.74 2142.63 2400.27 2143.51 2400.08 2144.15 2399.75 2144.65 2396.12 2150.07 2393.49 2156.12 2388.63 2160.8 2376.31 2172.67 2382.03 2183.74 2358.64 2192.08 2358.18 2190.59 2359.24 2190.27 2359.89 2189.78 2369.47 2182.42 2370.48 2179.25 2384.91 2159.64 2385.28 2159.13 2385.8 2158.69 2386.02 2158.13 2388.29 2152.22 2392.97 2148.34 2397.53 2144.36ZM2397.64 2136.71C2403.82 2129.07 2402.54 2125.66 2406.13 2123.52 2407.88 2127.21 2395.42 2147.99 2392.96 2146.01 2391.92 2145.17 2396.62 2137.97 2397.64 2136.71ZM2422.9 2039.14C2426.32 2034.85 2430.27 2040 2428 2039.59 2425.82 2039.18 2425.7 2040.83 2423.76 2046.54 2423.51 2047.28 2423.13 2048.01 2423.03 2048.77 2422.82 2050.34 2419.76 2049.26 2420.54 2051.26 2421.03 2052.51 2421.24 2053.86 2421.91 2055.18 2422.36 2054.89 2422.76 2054.68 2423.1 2054.39 2424.03 2053.6 2423.35 2051.8 2424.93 2051.44 2426.45 2051.09 2425.38 2056.99 2423.56 2057.11 2420.29 2057.3 2419.76 2059.76 2419.64 2061.98 2419.09 2072.64 2411.38 2089.24 2411.34 2092.92L2413.15 2098.13C2414.24 2099.11 2414.02 2100.5 2412.98 2100.83 2410.77 2101.56 2410.06 2104.76 2407.17 2104.17 2406.32 2103.99 2406.23 2104.84 2405.97 2105.34 2403.44 2110.08 2406.32 2110.86 2398.97 2115.79 2390.92 2121.19 2391.48 2125.08 2386.1 2127.35 2385.58 2126.02 2386.1 2125.36 2386.4 2124.66 2397.79 2098.6 2392.36 2105.4 2402.29 2086.24 2403.92 2083.11 2404.76 2079.51 2405.88 2076.13 2410.83 2061.08 2414.69 2049.44 2422.9 2039.14ZM2403.57 2056.5C2403.25 2054.16 2404.72 2052.61 2406.01 2051.15 2413.8 2042.33 2409.45 2033.28 2416.29 2028.23 2416.5 2028.56 2416.64 2028.69 2416.65 2028.82 2417.01 2034.41 2417.21 2034.5 2414.82 2039.97 2412.36 2045.62 2394.85 2090.57 2391.88 2103.09 2391.18 2106.03 2390.61 2109.3 2387.76 2111.28 2387.52 2111.45 2387.08 2111.79 2387.11 2111.87 2389.29 2116.15 2384.3 2116.9 2384 2118.66 2383.21 2123.36 2380.47 2127.31 2379.03 2131.76 2378.27 2134.13 2376.79 2135.8 2374.56 2136.9 2355.11 2146.61 2353.9 2153.87 2331.5 2160.11 2328.87 2160.84 2328.68 2160.26 2318.58 2149.59 2316.87 2147.78 2315.44 2145.75 2314.63 2143.54 2314.78 2142.6 2315.41 2142.39 2315.95 2142.11 2323.25 2138.21 2341.03 2129.47 2355.51 2115.1 2365.67 2105.01 2372.66 2105.33 2381.09 2093.49 2384.44 2088.8 2388.26 2085.14 2388.87 2079.31 2389.36 2074.62 2392.07 2073.7 2396.05 2065.33 2397.06 2063.23 2398.5 2061.35 2399.75 2059.37 2401.57 2056.47 2403.82 2058.25 2403.57 2056.5ZM2309.7 2158.33C2302.04 2156.46 2298.55 2153.87 2295.49 2147.77 2302.57 2148.63 2305.01 2155 2309.7 2158.33ZM2293.47 2141.09C2299.21 2138.82 2300.25 2138.79 2301.93 2143.47 2296.74 2145.38 2296.74 2145.38 2293.47 2141.09ZM2301.35 2147.32C2306.88 2143.46 2308.05 2152.67 2316.56 2160.41 2314.72 2161.29 2313.34 2161.3 2312.69 2159.86 2310.98 2156.03 2303.55 2149.39 2301.35 2147.32ZM2322.78 2156.65C2324 2157.81 2325.1 2159.03 2325.79 2160.66 2315.95 2164.7 2312.73 2150.91 2305.92 2145.77 2315.91 2141.64 2309 2143.59 2322.78 2156.65ZM2315.2 2133.96C2333.61 2128.31 2350.31 2112.64 2361.24 2104.89 2372.15 2097.16 2379.87 2084.8 2380.43 2083.1 2380.95 2081.52 2382.3 2079.85 2384.77 2079.32 2381.42 2090.16 2375.17 2097.16 2372.09 2099.12 2346.3 2115.52 2354.34 2118.25 2315.06 2139.6 2312.69 2140.89 2310.53 2139.81 2309.63 2137.26 2309.26 2136.23 2309.87 2135.59 2315.2 2133.96ZM2302.66 2138.93C2306.6 2137.5 2306.6 2137.5 2309.22 2140.29 2305.76 2143.71 2304.82 2143.51 2302.66 2138.93ZM2318.07 2164.97C2319.44 2167.66 2321.83 2169.49 2323.68 2171.78 2329.42 2178.84 2333.46 2177.9 2335.08 2182.58 2331.58 2182.24 2329.14 2181.4 2326.92 2179.37 2307.82 2161.95 2316.78 2162.43 2318.07 2164.97ZM2321.6 2164.41C2324.1 2163.95 2326.1 2164.56 2328.05 2163.78 2329.34 2163.26 2330.57 2164.25 2331.1 2165.42 2334.4 2172.55 2339.6 2173.76 2340.35 2179.08 2333.76 2178.96 2324.7 2170.2 2321.6 2164.41ZM2284.91 2110.3C2295.62 2107.78 2295.81 2105.59 2322.67 2096.39 2329.02 2094.21 2329.21 2091.7 2331.17 2090.79 2337.67 2087.77 2343.65 2083.68 2350.64 2081.61 2354.5 2080.47 2358.11 2078.46 2361.96 2077.22 2369.31 2074.87 2367.55 2069.61 2375.91 2063.9 2375.91 2063.9 2383 2056.79 2395.35 2047.16 2396.81 2048.19 2398.15 2049.15 2399.5 2050.1 2398.27 2052.81 2396.84 2055.16 2394.65 2057.04 2393.72 2057.84 2392.67 2058.89 2392.42 2060 2391.58 2063.72 2388.59 2065.98 2386.7 2068.98 2381.54 2077.18 2377.87 2079.99 2375.77 2081.55 2370.91 2085.17 2368 2097.61 2350.22 2108.83 2315.84 2130.56 2332.48 2124.95 2308.73 2133.33 2307.7 2133.7 2307.04 2133.42 2306.23 2132.74 2295.41 2123.55 2295.92 2112.84 2292.99 2115.54 2292.15 2116.32 2293.45 2117.12 2293.92 2117.86 2297.41 2123.33 2295.83 2126.62 2300.55 2129.97 2302.22 2131.16 2303.8 2132.36 2304.71 2134.22 2303.98 2135.31 2302.83 2135.38 2301.83 2135.81 2297.39 2137.71 2293.36 2127.15 2288.93 2123.04 2283.22 2117.74 2277.37 2112.09 2284.91 2110.3ZM2267.51 2115.89C2273.78 2113.45 2273.14 2113.21 2275.06 2116.58 2278.29 2122.26 2280.11 2128.67 2284.23 2133.89 2285.36 2135.34 2286.08 2137.1 2287.04 2138.81 2279.12 2140.06 2285.5 2134.79 2272.85 2128.58 2271.91 2128.12 2270.86 2127.64 2269.63 2128.88 2273.95 2131.33 2278.61 2133.38 2280.51 2138.6 2277.69 2141.48 2247.25 2128.99 2243.34 2121.3 2257.29 2119.14 2257.82 2119.65 2267.51 2115.89ZM2254.96 2138.86C2249.58 2136.3 2231.88 2126.07 2232.98 2122.71 2235.49 2121.97 2237.94 2122.2 2240.17 2123.99 2251.81 2133.36 2266.12 2141.98 2280.41 2142.05 2283.39 2142.06 2283.58 2144.5 2285.24 2146.38 2274.93 2149.52 2273.65 2147.73 2254.96 2138.86ZM2285.3 2142.41C2288.37 2142.39 2289.53 2143.07 2290.04 2145 2290.31 2146.02 2288.24 2148.52 2285.3 2142.41ZM2286.87 2133.79C2283.26 2128.63 2281.45 2122.56 2277.94 2117.38 2274.97 2112.99 2278.93 2111.31 2279.4 2113.54 2280.2 2117.31 2283.01 2119.63 2285.5 2122.2 2293.4 2130.34 2287.73 2125.55 2297.12 2136.34 2296.73 2136.89 2296.67 2137.07 2296.55 2137.11 2290.4 2139.37 2290.65 2139.2 2286.87 2133.79ZM2313.25 2173.08C2311.83 2169.96 2308.83 2168.21 2306.27 2166.27 2302.47 2163.39 2299.41 2159.86 2296.43 2156.27 2291.18 2149.93 2289.91 2149.34 2291.18 2148.75 2292.05 2148.34 2293.33 2149.81 2293.7 2150.38 2301.46 2162.33 2309.91 2159.21 2312.95 2165.88 2318.24 2177.49 2327.55 2178.73 2330.83 2189 2322.71 2185.86 2315.72 2178.52 2313.25 2173.08ZM2334.64 2188.84C2331.51 2185.64 2331.12 2185.21 2331.61 2184.54 2332.47 2183.37 2337.23 2185.89 2337.91 2188.86 2337.34 2189.17 2335.97 2190.2 2334.64 2188.84ZM2339.56 2182.65C2338.79 2182.33 2339.01 2182.48 2338.15 2181.29 2339.08 2180.94 2339.69 2180.93 2339.56 2182.65ZM2339.7 2182.83C2342.28 2183.23 2342.41 2185.91 2343.92 2187.3 2341.55 2186.67 2340.22 2185.1 2339.7 2182.83ZM2343.22 2178.19C2340.84 2178.06 2340.34 2174.48 2338.61 2172.68 2336.07 2170.04 2333.06 2167.56 2332.27 2163.13 2347.24 2159.48 2338.81 2162.69 2370.53 2142.12 2371.31 2141.61 2372.06 2141.03 2373.3 2140.91 2373.25 2144.45 2372.36 2147.77 2369.82 2150.13 2367 2152.73 2364.59 2155.72 2361.55 2158.18 2352.24 2165.74 2359.8 2171.46 2350.48 2175.38 2348.05 2176.4 2345.58 2178.31 2343.22 2178.19ZM2345.53 2180.96C2348.35 2180.23 2350.78 2178.17 2354.23 2177.9 2353.78 2180.59 2352.01 2182.21 2351.01 2184.19 2349.2 2187.77 2345.53 2182.54 2345.53 2180.96ZM2349.9 2190.64C2349.83 2190.67 2349.66 2190.49 2349.23 2190.2 2351.18 2187.14 2353.99 2184.85 2356.45 2182.27 2356.34 2181.62 2356.47 2181.34 2356.85 2180.54 2356.75 2180.44 2356.69 2180.3 2356.7 2180.07 2357.21 2169.88 2362.71 2175.27 2369.25 2165.04 2370.08 2163.74 2371 2162.34 2371.29 2160.87 2373.53 2149.53 2384.37 2139.52 2382.48 2136.27 2381.44 2134.48 2386 2130.78 2387.8 2129.74 2394.56 2125.81 2393.42 2122.12 2397.34 2120.74 2397.92 2123.33 2396.6 2125.17 2395.48 2126.88 2390.48 2134.49 2391.7 2136.54 2383.14 2150.85 2378.75 2158.18 2384.23 2153.81 2368.88 2174.27 2367.05 2176.71 2365.88 2176.18 2364.58 2178.45 2361.22 2184.33 2356.14 2188.19 2349.9 2190.64ZM2362.42 2206.35C2362.19 2207.13 2361.47 2206.95 2360.77 2207.11 2356.91 2206.92 2353.47 2205.24 2350.18 2203.17 2348.16 2201.9 2351.29 2198.44 2353.33 2197.78 2356.45 2196.77 2356.74 2199.36 2361.78 2204.72 2362.2 2205.17 2362.63 2205.66 2362.42 2206.35ZM2359.94 2197.55C2358.65 2197.31 2358.18 2196.42 2357.61 2194.95 2382.6 2186.01 2389.73 2174.34 2401.01 2163.65 2412.01 2153.22 2410.73 2150.58 2413.27 2151.02 2413.91 2152.8 2412.83 2154.32 2412.14 2155.74 2410.91 2158.29 2410.13 2161.23 2407.31 2162.69 2407.31 2162.69 2407.31 2162.68 2407.31 2162.68 2407.3 2162.69 2407.29 2162.69 2407.28 2162.7 2407.4 2164.86 2404.91 2167.9 2403.44 2169.47 2395.03 2178.44 2400.58 2177.54 2389.54 2187.24 2387.6 2188.95 2385.22 2190.28 2383.68 2192.42 2377.23 2196.56 2372.33 2198.78 2370.95 2199.38 2367.2 2199.76 2363.61 2198.22 2359.94 2197.55ZM2389.19 2191.64C2386.03 2196.28 2378.83 2201.95 2373.22 2200.23 2376.1 2198.87 2381.77 2195.96 2388.51 2191.24 2388.73 2191.33 2388.95 2191.45 2389.19 2191.64ZM2366.31 2205.98C2365.16 2204.99 2363.26 2204.15 2363.56 2202.54 2363.88 2200.85 2365.86 2201.34 2367.2 2201.34 2370.18 2201.33 2373.15 2201.44 2376.55 2202.92 2372.9 2206.74 2366.88 2206.47 2366.31 2205.98ZM2477.97 2174.21C2475.62 2181.14 2474.02 2188.34 2470.28 2194.74 2463.59 2206.19 2459.13 2217.84 2445.37 2226.23 2431.55 2234.63 2426.07 2238.92 2416.3 2239.56 2395.68 2240.9 2394.41 2239.5 2372.39 2215.04 2370.95 2213.44 2369.61 2211.67 2369.32 2209.39 2370.22 2208.66 2371.27 2208.4 2372.34 2208.12 2376.91 2206.94 2381.26 2205.27 2385.07 2202.39 2385.81 2201.83 2386.65 2201.3 2387.53 2201.04 2412.87 2193.39 2427.05 2164.01 2433.16 2157.21 2438.22 2151.57 2442.08 2138.37 2445.97 2129.77 2447.68 2126.02 2447.88 2121.91 2448.65 2117.94 2452.29 2099.33 2452.77 2103.67 2454.24 2091.44 2454.65 2088.02 2455.6 2084.79 2457.07 2081.47 2463.17 2090.07 2458.71 2096.54 2463.27 2107.51 2465.66 2113.27 2468.26 2123.13 2474.53 2131.02 2476.45 2133.44 2476.35 2133.56 2474.48 2136.27 2471.13 2141.12 2469.95 2146.5 2470.48 2152.3 2470.88 2156.57 2473.18 2155.79 2472.94 2154.26 2472.4 2150.75 2473.38 2143.18 2476.32 2138.82 2477.86 2150.93 2486.65 2134.74 2472.1 2170.27 2470.61 2173.91 2466.39 2174.75 2468.09 2176.43 2468.87 2177.2 2469.56 2176.48 2470.15 2176.07 2474.1 2173.29 2474.62 2167.04 2476.94 2164.8 2478.75 2168 2479.11 2170.84 2477.97 2174.21ZM2470.49 2112.56C2474.87 2109.07 2477.35 2104.12 2480.46 2099.64 2480.59 2099.45 2480.94 2099.41 2481.2 2099.29 2481.66 2100.41 2481.17 2101.43 2480.92 2102.48 2477.36 2117.31 2480.75 2121.37 2476.55 2128.78 2470.49 2122.02 2469.08 2113.68 2470.49 2112.56ZM2480.02 2166.65C2477.99 2161.87 2478.4 2158.05 2481.35 2154.37 2482.45 2158.21 2482.31 2159.65 2480.02 2166.65ZM2478.68 2140.9C2478.49 2140.33 2478.08 2137.37 2479.35 2137.16 2481.26 2136.84 2481.39 2137.54 2482.36 2139.35 2484.96 2144.17 2479.89 2144.75 2478.68 2140.9ZM2482.98 2135.03C2479.35 2133.92 2479.17 2133.55 2480.93 2130.63 2481.38 2129.88 2481.7 2128.97 2483.16 2128.52 2483.65 2130.86 2483.3 2132.94 2482.98 2135.03ZM2483.53 2121.66C2483.83 2124.87 2481.26 2127.14 2478.93 2129.71 2478.93 2128.79 2478.81 2128.31 2478.95 2127.9 2481.97 2119.43 2479.4 2110.9 2482.83 2102.42 2485.57 2104.04 2482.53 2110.93 2483.53 2121.66ZM2469.6 2110.57C2467.84 2109.34 2468.69 2107.07 2467.62 2105.51 2463.94 2100.11 2464.66 2099.95 2464.87 2090.33 2465.03 2083.72 2462.59 2084.21 2460.73 2081.5 2457.32 2076.51 2457.7 2074.42 2462.66 2070.83 2463.17 2070.46 2463.7 2070.12 2464.28 2069.9 2476.26 2065.18 2477.67 2053.82 2482.07 2053.36 2482.12 2054.03 2482.41 2054.75 2482.17 2055.2 2479.98 2059.3 2483.25 2061.95 2482.72 2069.68 2482.57 2071.92 2482.23 2074.34 2483.97 2076.32 2484.06 2076.42 2483.63 2076.98 2483.38 2077.37 2483.35 2077.37 2483.33 2077.38 2483.3 2077.38 2483.31 2077.41 2483.32 2077.43 2483.32 2077.47 2483.32 2077.47 2483.32 2077.47 2483.32 2077.47 2483.32 2077.47 2483.42 2077.37 2483.42 2077.37 2482.77 2079.05 2484.75 2079.53 2485.03 2081 2486.32 2088.02 2473.11 2109.61 2469.6 2110.57ZM2488.84 2118.28C2489.16 2120.59 2487.9 2122.24 2486.62 2124.37 2484.05 2119.33 2488.41 2115.28 2488.84 2118.28ZM2505.02 2145.92C2503.06 2147.26 2502.56 2150.24 2499.74 2150.63 2495.39 2145.97 2486.75 2143.16 2486.26 2138.93 2484.4 2122.93 2492.68 2122.99 2490.07 2116.6 2489.69 2115.66 2489.47 2114.49 2490.72 2113.47 2499.76 2119.99 2506.96 2128.63 2515.78 2136.14 2512.98 2139.64 2509.89 2142.58 2505.02 2145.92ZM2521.03 2131.49C2520.27 2132.61 2519.28 2133.36 2517.87 2132.8 2513.1 2130.95 2507.28 2128.08 2504.61 2114.28 2509.03 2114.94 2509.57 2121.03 2520 2128.84 2520.84 2129.47 2521.94 2130.14 2521.03 2131.49ZM2526.42 2124.36C2522.36 2129.08 2523.76 2129.42 2518.31 2125.01 2511.5 2119.5 2510.63 2114.69 2505.36 2111.55 2501.9 2109.49 2501.46 2106.86 2495.72 2096.25 2492.57 2090.46 2496.97 2092.26 2493.65 2077.58 2492.21 2071.25 2491.07 2064.74 2494.17 2058.33 2497.04 2058.64 2495.51 2061.84 2502.31 2066.24 2506.46 2068.93 2506.63 2075.37 2508.19 2081.53 2511.06 2092.91 2519.49 2107.59 2526.59 2117.94 2528.85 2121.23 2528.89 2121.5 2526.42 2124.36ZM2539.06 2101.58C2537.62 2103.74 2537.25 2106.59 2535.12 2108.14 2534.01 2108.01 2534.11 2107.26 2533.85 2106.76 2532.93 2104.98 2529.93 2105.48 2529.66 2103.41 2529.42 2101.63 2529.78 2099.74 2529.16 2097.95 2527.6 2093.39 2526.79 2088.53 2523.65 2084.61 2522.89 2083.66 2522.57 2082.26 2522.35 2081.17 2521.01 2074.33 2517.2 2068.37 2515.71 2061.6 2515.65 2061.31 2515.55 2060.95 2515.35 2060.75 2512.53 2058.02 2512.81 2054.39 2512.21 2050.91 2511.32 2045.72 2509.68 2040.66 2509.66 2035.31 2509.65 2032.51 2504.68 2027.15 2506.6 2015.24 2508.63 2002.71 2505.03 2002.8 2509.68 1986.62 2514.54 1982.78 2510.62 1975.98 2514.24 1974.71 2514.25 1975.28 2515.01 2006.44 2516.06 2008.13 2518.92 2012.7 2518.43 2033.04 2522.6 2044.25 2522.69 2051.26 2526.05 2057.52 2527.21 2064.28 2529.4 2077.11 2534.76 2078.21 2532.62 2082.14 2533.8 2084.42 2533.82 2087.43 2536.73 2088.62 2537.52 2088.95 2538.12 2089.67 2537.88 2090.45 2537.17 2092.86 2538.7 2094.69 2539.4 2096.69 2540.01 2098.46 2540.11 2100.01 2539.06 2101.58ZM2543.41 2090.59C2537.73 2076.94 2535.47 2073.57 2536.09 2069.04 2536.42 2066.69 2536.32 2064.32 2535.83 2062.03 2534.3 2054.85 2535 2028.21 2535.49 2021.1 2535.81 2020.54 2535.79 2019.87 2535.86 2019.28 2542.28 1962.34 2539.16 1970.61 2545.87 1963.3 2546.8 1964.06 2546.47 1962.71 2549.8 1958.12 2549.98 1957.89 2549.94 1957.63 2549.8 1957.44 2550.05 1956.95 2550.27 1956.43 2550.57 1955.98 2553.7 1951.3 2555.28 1945.09 2558.54 1941.29 2559.84 1941.13 2560.49 1940.24 2560.9 1939.09 2560.89 1938.96 2560.89 1938.85 2560.88 1938.73 2560.98 1938.63 2561.07 1938.54 2561.16 1938.44 2561.08 1938.66 2560.99 1938.88 2560.91 1939.11 2563.07 1938.12 2563.73 1935.47 2565.97 1934.58 2566.34 1932.6 2567.63 1931.37 2569.67 1930.16 2569.48 1932.8 2567.69 1933.68 2566.12 1934.73 2564.64 1939.13 2559.72 1943.72 2560.57 1947.23 2563.21 1942.44 2565.38 1937.88 2569.26 1934.06 2573.06 1951.87 2560.83 1977.23 2562.64 2003.63 2562.83 2006.39 2568.68 2020.03 2562.64 2038.22 2547.49 2083.96 2546.12 2085.95 2543.41 2090.59ZM2554.95 2206.38C2552.2 2204.01 2552.19 2204 2553.32 2201.92 2554.7 2199.36 2555.3 2198.49 2556.33 2198.95 2557.23 2199.34 2556.56 2200.94 2554.95 2206.38ZM2559.61 2199.5C2560.81 2201.23 2560.31 2202.46 2560.33 2203.63 2560.57 2215.44 2566.51 2213.17 2565.63 2218.48 2561.82 2216.77 2560.44 2213.15 2557.79 2210.83 2556.05 2209.32 2558.82 2201.61 2559.61 2199.5ZM2573.22 2241.8C2568.19 2239.65 2568.68 2233.87 2560.32 2221.43 2559.17 2219.73 2558.71 2217.79 2558.17 2214.68 2565.89 2223.49 2566.92 2220.6 2567.76 2225.26 2569.77 2236.55 2577.65 2236.75 2573.22 2241.8ZM2576.97 2245.87C2575.4 2244.41 2575.42 2242.96 2576.99 2240.99 2582.55 2246.57 2587.56 2252.64 2593.24 2258.11 2586.04 2255.75 2578.73 2247.51 2576.97 2245.87ZM2636.01 2290.24C2613.01 2277.88 2614.9 2277.37 2605.94 2266.56 2623.88 2265.45 2617.1 2256.79 2636.01 2290.24ZM2600.15 2219.56C2604.29 2227.41 2609.81 2250.82 2618.56 2261.53 2614.16 2263.85 2605.03 2266.11 2599.76 2260.54 2578.43 2238.03 2576.77 2242.32 2576.19 2223.52 2575.97 2216.47 2582.75 2221.53 2583.94 2209.08 2584.21 2206.31 2584.69 2203.55 2584.26 2200.71 2583.97 2198.86 2584.42 2197 2585.23 2194.42 2590.78 2199.53 2590.22 2200.74 2600.15 2219.56ZM2587.95 2190.76C2588.15 2191.14 2588.36 2191.53 2588.56 2191.92 2587.75 2191.89 2587.86 2191.31 2587.95 2190.76ZM2635.43 2216.22C2641.88 2214.78 2650.37 2217.51 2654.3 2222.29 2649.97 2222.15 2638.79 2218.55 2635.43 2216.22ZM2626.75 2199.87C2626.27 2200.49 2626.1 2200.14 2626.15 2199.57 2626.5 2199.43 2626.89 2199.68 2626.75 2199.87ZM2583.61 2162.89C2584.58 2162.28 2585.13 2162.93 2585.7 2163.41 2599.88 2175.36 2583.83 2157.27 2624.62 2196.85 2625.36 2197.56 2626.32 2198.26 2626.12 2199.54 2625.67 2199.49 2625.11 2199.58 2624.82 2199.34 2620.86 2196.07 2616.15 2193.79 2612.61 2189.94 2610.27 2187.38 2607.07 2185.92 2604.29 2183.91 2597.7 2179.13 2592.07 2173.23 2585.76 2168.12 2584.05 2166.75 2583.35 2165.01 2583.61 2162.89ZM2583.61 2178.04C2584.26 2176.39 2583.96 2174.37 2584.08 2172.6 2585.45 2171.87 2586.34 2172.59 2587.2 2173.26 2598.81 2182.44 2618.14 2200.57 2638.88 2209.79 2652.11 2215.66 2665.6 2220.01 2669.41 2223.18 2666.25 2224.13 2664.16 2224.36 2661.64 2222.98 2650.17 2216.67 2645.59 2213.01 2638.02 2213.73 2630.1 2214.48 2624.79 2213.91 2608.08 2201.94 2598.44 2195.03 2596.27 2195.05 2585.99 2185.37 2583.86 2183.37 2582.31 2181.34 2583.61 2178.04ZM2581.84 2203.16C2582.5 2217.04 2575.94 2219.02 2575.63 2213.65 2575.35 2208.85 2573.14 2204.72 2571.22 2200.5 2569.68 2197.13 2569.66 2197.23 2572.46 2194.93 2573.88 2193.77 2575.64 2192.9 2576.4 2191.05 2576.1 2191 2575.81 2190.95 2575.51 2190.9 2576.02 2188.8 2576.03 2186.45 2578.38 2185.04 2579.33 2186.68 2578.02 2187.93 2578.19 2189.26 2585.79 2189.21 2581.26 2191.14 2581.84 2203.16ZM2581.04 2178.61C2575.07 2172.03 2577.2 2173.72 2572.07 2164.23 2570.62 2161.54 2573.27 2160.57 2574.04 2161.39 2579.22 2166.93 2584.2 2169.3 2581.04 2178.61ZM2579.98 2160.21C2579.66 2162.09 2577.41 2160.68 2577.33 2159.74 2577.22 2158.52 2574.71 2157.38 2576.7 2156.33 2578.02 2155.62 2579.49 2157.43 2579.98 2160.21ZM2972.94 1536.87C2969.01 1531.94 2974.96 1530.85 2981.14 1515.28 2981.36 1514.71 2981.8 1514.2 2982.25 1513.78 2983.81 1512.29 2984.66 1508.97 2986.64 1509.36 2988.93 1509.82 2987.83 1513.09 2988.38 1515.09 2989.86 1520.35 2990.96 1525.71 2992.5 1530.95 2997.91 1549.31 2992.26 1547.2 2997.62 1555.39 2999.88 1558.85 3000.86 1562.73 3002.13 1567.19 2998.05 1566.25 2990.33 1560.29 2990.33 1560.29 2983.85 1558.77 2984.66 1551.55 2972.94 1536.87ZM2987.94 1684.07C2988.17 1683.73 2988.71 1683.61 2989.14 1683.37 2991.65 1685.78 2991.93 1691.66 2995.82 1697.79 2998.13 1701.41 2995.5 1707.65 3002.23 1710.33 3004.81 1711.36 3008.46 1716.31 3007.22 1718.02 3006.55 1718.95 3006.16 1718.52 2997.65 1715.3 2997.35 1715.19 2996.97 1715.11 2996.81 1714.89 2992.4 1709.17 2985.77 1705.85 2981.17 1700.33 2978.8 1697.49 2978.1 1699.42 2987.94 1684.07ZM3113.33 2108.77C3112.73 2113.02 3110.05 2112.67 3106.06 2120.64 3101.41 2129.99 3098.51 2128.12 3089.03 2150.76 3086.43 2156.97 3084.92 2157.18 3082.42 2163.67 3064.64 2209.84 3061.15 2219.16 3054.34 2232.63 3051.73 2237.81 3043.03 2248.51 3040.92 2257.14 3039.77 2261.87 3035.39 2266.96 3035.33 2272.43 3035.28 2276.62 3031.08 2276.67 3027.34 2286.06 3020.05 2304.42 2963.95 2363.47 2949.5 2378.05 2941.11 2386.51 2937.54 2385.64 2931.71 2390.92 2930.28 2392.21 2928.51 2392.89 2926.77 2393.56 2924.42 2394.45 2923.84 2394.15 2922.99 2391.7 2918.67 2379.16 2915.32 2378.89 2915.81 2371.7 2916.34 2364.06 2914.8 2353.62 2907.67 2349.44 2902.72 2346.53 2905.24 2349.1 2865.84 2276.02 2852.27 2250.85 2842.86 2238.56 2846.32 2217.38 2850.57 2191.44 2847.34 2176.24 2854 2148.47 2855.32 2142.99 2859.6 2134.63 2864.43 2124.4 2865.73 2121.66 2878.03 2086.35 2881.42 2058.78 2883.49 2042.04 2880.87 2053.35 2932.68 2064.21 2934.11 2064.51 2951.47 2068.21 2951.47 2068.21 2954.28 2069.93 2957.14 2070.72 2960.21 2068.93 2963.16 2070.51 2966.59 2069.49 2969.5 2070.54 2973.3 2071.91 2971.2 2070.7 2982.95 2072.01 2978.76 2082.06 3013.08 2084 3021.57 2084.59 3023.15 2084.71 3025.56 2085.67 3025.7 2082.46 3025.74 2081.54 3025.55 2081.71 3043.12 2083.74 3046.91 2084.19 3043.42 2088.03 3047.21 2087.74 3052.3 2087.35 3056.25 2090.16 3062.03 2088.09 3075.92 2083.12 3096.39 2092.66 3115.81 2095.95 3117.14 2097.66 3114.11 2103.28 3113.33 2108.77ZM3229.16 1650.67C3230.17 1651.84 3230.71 1653.02 3230.5 1654.49 3229.32 1662.97 3232.38 1665.62 3230.22 1680.19 3229.46 1685.33 3224.64 1680.59 3213.99 1690.69 3210.32 1694.16 3205.58 1695.56 3201.09 1697.42 3200.05 1697.85 3198.63 1697.48 3197.4 1697.33 3194.44 1696.98 3191.54 1696.96 3188.56 1697.54 3183.15 1698.58 3178.7 1695.66 3177.33 1690.29 3176.3 1686.28 3159.02 1669.56 3150.05 1659.58 3144.73 1653.65 3144.76 1650.53 3141.42 1650.08 3138.71 1649.7 3142.34 1647.61 3136.99 1644.09 3133.83 1642.02 3136.37 1637.53 3134.76 1634.24 3132.72 1634.9 3130.71 1635.69 3128.63 1636.21 3113.93 1639.86 3130.34 1613.74 3123.63 1601.91 3117.77 1591.56 3115.19 1577.36 3123.29 1567.09 3131.45 1556.77 3135.45 1523.29 3144.75 1497.55 3148.36 1487.58 3146.9 1484.61 3148.79 1484.4 3151.08 1484.13 3151.13 1486.59 3151.61 1488.05 3153.46 1493.7 3154.87 1488.98 3157.12 1493.59 3161.77 1503.16 3162.43 1502.45 3174.16 1532.1 3179.16 1544.73 3179.55 1550.96 3185.92 1559.53 3197.87 1575.62 3187.75 1574.02 3222.95 1594.35 3237.82 1602.95 3233.15 1602.85 3238.25 1608.82 3238.87 1609.54 3238.34 1610.27 3237.85 1610.91 3229.23 1622.19 3232.98 1643.15 3229.04 1646.02 3227.56 1647.1 3227.94 1649.26 3229.16 1650.67ZM3239.05 1637.4C3238.01 1640.76 3237.25 1644.36 3236.81 1648.05 3236.66 1649.35 3233.9 1649.47 3233.88 1647.16 3233.87 1645.63 3235.57 1645.03 3235.72 1643.53 3236.77 1632.84 3238.9 1635.59 3239.05 1637.4ZM3239.53 1664.68C3239.62 1667.46 3239.09 1674.13 3237.47 1681.33 3236.84 1684.13 3234.09 1684.09 3233.88 1681.25 3233.37 1674.61 3232.99 1673.36 3233.06 1654.64 3233.09 1649.42 3236.91 1650.51 3237.6 1652.41 3239.77 1658.45 3239.53 1656 3239.53 1664.68ZM3238.59 1631.93C3238.04 1628.66 3241.57 1619.95 3243.1 1616.83 3244.87 1613.26 3247.74 1616.66 3247.36 1619.55 3247.91 1623.53 3245.62 1621.56 3241.23 1630.72 3240.23 1632.81 3238.74 1632.77 3238.59 1631.93ZM3263.87 1662.96C3256.66 1665.35 3258.46 1668.51 3247.17 1679.9 3245.92 1681.16 3244.38 1680.7 3244.39 1678.81 3244.42 1665.45 3237.65 1650.72 3247.18 1638.51 3247.87 1637.62 3248.21 1636.59 3248.24 1635.47 3248.33 1632.39 3250.45 1630.38 3252.1 1628.15 3252.87 1627.1 3253.79 1627.2 3254.78 1628.31 3257.03 1630.83 3259.66 1632.91 3261.24 1636.13 3262.6 1638.91 3265.44 1640.28 3268.67 1640.19 3272.57 1640.09 3269.75 1642.68 3273.98 1644.53 3276.78 1645.75 3278.58 1648.09 3280.75 1650.3 3270.92 1659.04 3269.35 1661.14 3263.87 1662.96ZM3282.61 1638.44C3278 1638.51 3278.24 1633.15 3280.5 1630.88 3282.81 1632.27 3284.41 1634.37 3286.12 1636.33 3288.05 1638.55 3283.93 1638.42 3282.61 1638.44ZM3481.42 1793.03C3465.46 1801.47 3446.17 1807.64 3427.97 1805.89 3420.96 1805.22 3415.31 1793.37 3411.38 1796.5 3409.66 1797.86 3411.99 1799.27 3410.66 1800.49 3403.29 1797.09 3401.47 1797.29 3404.07 1793.09 3409.35 1784.56 3412.4 1774.92 3417.43 1766.27 3423.01 1756.66 3420.9 1763.9 3458.8 1776.19 3477.38 1782.21 3482.68 1781.92 3488.07 1783.58 3487.9 1788.32 3485.32 1790.97 3481.42 1793.03ZM3526.59 1767.8C3509.69 1777.52 3510.55 1779.69 3503.45 1778.33 3502.85 1776.27 3505 1774.58 3504.26 1772.44 3502.62 1771.32 3500.71 1771.76 3498.86 1771.76 3495.83 1771.77 3494.46 1780.43 3485.84 1776.76 3485.56 1776.64 3485.12 1776.57 3485.02 1776.36 3482.36 1770.35 3475.93 1777.65 3457.63 1769.55 3450.83 1766.54 3447.58 1768.05 3436.2 1761.6 3426.13 1755.88 3423.65 1756.43 3425.16 1752.99 3432.41 1736.48 3446.07 1726.82 3449.99 1728.84 3453.99 1730.9 3458.23 1731.72 3462.7 1731.38 3463.84 1731.29 3464.88 1731.56 3465.75 1732.31 3469.45 1735.48 3493.21 1738.83 3498.02 1739.35 3502.56 1739.84 3504.64 1740.35 3522.38 1750.88 3527.67 1754.02 3521.81 1755.69 3524.71 1760.04 3526.17 1762.24 3530.2 1765.72 3526.59 1767.8Z" fill-rule="evenodd"/><path d="M2507.46 1828.99C2507.34 1829.02 2507.22 1829.1 2507.1 1829.13 2506.89 1829.43 2506.68 1829.68 2506.46 1829.98 2506.46 1829.98 2507.46 1828.99 2507.46 1828.99Z" fill-rule="evenodd"/><path d="M2508.46 1826.98C2508.67 1826.84 2508.88 1826.68 2509.11 1826.52 2509.22 1826.34 2509.34 1826.18 2509.46 1826.01L2508.93 1825.99C2508.77 1826.32 2508.62 1826.64 2508.46 1826.98Z" fill-rule="evenodd"/><path d="M2504.69 1829.99C2505.41 1829.64 2506.15 1829.27 2506.9 1828.91 2507.5 1827.94 2508.1 1826.96 2508.69 1825.99 2506.26 1827.36 2506.19 1827.45 2504.69 1829.99Z" fill-rule="evenodd"/><path d="M2510.46 1825.99C2510.14 1825.99 2509.81 1825.99 2509.5 1825.99 2509.48 1826.32 2509.47 1826.64 2509.46 1826.98L2510.46 1825.99Z" fill-rule="evenodd"/><path d="M2509.43 1825.99C2509.44 1825.66 2509.45 1825.33 2509.46 1824.99 2509.13 1825.33 2508.79 1825.66 2508.46 1825.99 2508.78 1825.99 2509.11 1825.99 2509.43 1825.99Z" fill-rule="evenodd"/><path d="M2785.88 2233.98C2786.08 2233.83 2786.26 2233.68 2786.46 2233.54 2786.31 2233.35 2786.16 2233.18 2786.01 2232.99 2785.28 2233.54 2785.32 2233.29 2785.88 2233.98Z" fill-rule="evenodd"/><path d="M2534.95 1975.98C2534.78 1976.05 2534.62 1976.05 2534.46 1976.05 2534.79 1976.42 2535.13 1976.76 2535.46 1976.98L2534.95 1975.98Z" fill-rule="evenodd"/><path d="M2405.01 2182.99C2404.67 2183.38 2404.73 2183.32 2404.46 2183.56 2404.79 2183.68 2405.11 2183.81 2405.46 2183.99 2405.25 2183.66 2405.16 2183.32 2405.01 2182.99Z" fill-rule="evenodd"/><path d="M2427.91 2137.7 2427.46 2137.39C2427.65 2137.59 2427.75 2137.79 2427.91 2137.99 2428.48 2136.95 2428.03 2137.77 2428.46 2136.99 2428.12 2137.11 2427.81 2137.26 2427.46 2137.39 2427.46 2137.39 2427.75 2137.59 2427.91 2137.7Z" fill-rule="evenodd"/><path d="M2483.12 2077.99C2481.1 2078.71 2484.5 2079.81 2483.12 2077.99L2483.12 2077.99Z" fill-rule="evenodd"/><path d="M2482.62 2077.99C2482.76 2077.88 2483.06 2077.82 2483.46 2077.76 2483.2 2076.86 2482.04 2076.53 2482.62 2077.99Z" fill-rule="evenodd"/><path d="M2407.46 2163.98C2407.2 2163.7 2406.66 2163.22 2406.49 2162.98 2406.37 2163.28 2406.6 2163.59 2407.46 2163.98Z" fill-rule="evenodd"/><path d="M2406.71 2163.98C2406.85 2163.68 2407.09 2163.28 2407.46 2162.98 2406.53 2163.39 2406.18 2163.18 2406.71 2163.98Z" fill-rule="evenodd"/><path d="M2406.46 2163.83C2406.96 2163.02 2407.22 2163.08 2407.21 2163.98 2407.98 2162.62 2406.75 2162.74 2406.46 2163.83Z" fill-rule="evenodd"/></g></svg>