<svg width="136" height="360" xmlns="http://www.w3.org/2000/svg" xmlns:xlink="http://www.w3.org/1999/xlink" xml:space="preserve" overflow="hidden"><defs><clipPath id="clip0"><rect x="640" y="360" width="136" height="360"/></clipPath></defs><g clip-path="url(#clip0)" transform="translate(-640 -360)"><path d="M386.252 342.503C386.252 342.315 385.131 339.825 385.016 339.501 376.198 315.983 348.624 252.753 348.575 252.631 344.805 243.552 347.16 249.1 345.307 241.822 342.966 232.657 344.453 233.346 341.617 229.112 340.754 227.82 341.235 226.865 342.026 222.695L340.984 219.488C341.997 211.822 341.279 213.078 340.768 205.248 342.055 204.674 350.01 201.351 349.436 201.573 353.774 199.908 351.44 195.179 352.919 194.755 355.338 194.067 364.028 189.946 364.164 189.423 364.207 189.265 364.084 188.791 363.862 188.253 360.925 181.01 356.632 159.071 356.545 158.547 355.569 152.784 354.922 154.385 358.47 147.186 362.311 139.384 362.469 138.817 362.484 133.061 362.491 127.872 361.119 123.25 358.412 118.887 356.832 116.339 357.148 116.827 356.423 113.762 354.714 106.542 354.434 106.198 352.617 102.588L351.282 99.932C350.915 96.6879 350.146 91.6066 349.149 88.5277 349.229 88.3337 348.373 84.2859 347.986 82.3194 347.505 79.8722 346.809 75.3721 344.029 71.7261 335.736 60.8242 328.044 53.4033 328.044 53.4033 325.59 50.2165 323.887 50.5252 324.843 48.2356 325.194 47.396 325.344 46.6925 325.474 46.1543 323.571 43.4701 323.348 43.2763 322.817 42.2715 322.659 41.963 322.451 41.6041 322.358 41.4749 322.134 41.1591 321.13 40.8217 320.641 40.8935 320.139 40.9724 319.371 41.0945 319.378 41.0874 319.427 39.4438 319.327 39.7596 320.497 37.4126 320.599 34.0465 320.563 35.2955 320.663 31.9365 322.207 29.3815 321.288 31.2475 322.601 24.3647 324.26 15.6662 324.569 16.1399 326.293 14.2667 327.276 13.1973 328.871 11.5035 328.871 11.3672 328.871 11.3098 328.929 11.2595 328.992 11.2595 329.136 11.2595 329.97 10.3623 330.12 10.0466 330.486 9.2858 328.963 9.04897 327.966 8.66856 327.19 8.37434 307.443 2.51786 306.79 2.30253 302.187 0.766675 285.916-0.431948 285.923 0.14939 285.929 1.43414 287.15 6.80258 287.359 10.0825 287.473 11.8911 287.553 11.4318 286.512 15.293 285.751 18.1135 285.333 19.9437 285.333 19.9437 284.961 20.0873 281.916 23.195 279.819 24.9605 277.715 26.7331 275.733 29.1088 275.797 29.037 277.945 29.7333 279.805 30.0634 282.009 30.4437 282.441 33.702 284.199 32.9772 282.957 35.4532 282.648 36.0706 282.261 36.8457 282.096 37.1758 279.985 41.4246 280.975 45.1495 283.905 43.9869 284.092 43.9151 284.265 43.8504 284.292 43.8504 284.321 43.8504 284.774 44.7117 285.298 45.7595 286.383 47.9198 286.561 47.927 287.006 48.3003 286.841 48.53 286.583 48.9103 286.218 49.2548 285.923 49.5275 285.786 49.987 286.002 49.987 286.06 49.987 286.403 50.2882 286.785 50.6615 288.098 51.9606 286.712 51.6878 286.21 53.4103 286.045 53.9845 285.958 54.078 285.075 54.6735 283.589 55.6711 283.941 55.9869 282.928 56.6041 281.994 57.171 282.692 56.9343 281.391 57.7452 279.022 59.2237 280.666 59.1591 278.375 61.1616 277.105 62.267 277.062 62.3315 276.94 63.494 276.889 63.939 276.789 64.3409 276.709 64.3912 276.171 64.7214 274.943 66.573 274.727 67.3768 274.262 69.1211 275.058 72.451 275.955 72.4868 276.796 72.5158 276.782 72.4654 277.601 73.8577 278.462 75.3147 278.368 75.2286 279.187 75.322 280.048 75.4223 280.782 75.8747 282.001 76.3196L282.742 76.585C283.108 76.4558 284.085 76.1113 284.45 76.0324 285.973 75.695 293.786 66.8673 289.671 72.3723 289.613 72.4438 284.278 79.5923 284.034 79.7573 283 80.432 269.802 102.552 269.802 102.552 269.508 102.681 265.22 109.635 265.135 109.743 264.962 109.958 263.124 114.803 263.153 114.731 265.206 123.961 264.323 121.047 264.79 124.112 264.833 124.399 264.739 124.628 264.323 125.195 260.108 130.987 261.839 132.638 261.832 138.896 258.945 142.815 258.909 142.765 258.794 143.152 258.622 143.712 258.651 152.704 258.829 154.083 258.931 154.837 258.945 155.353 258.88 155.404 258.507 155.669 256.553 158.489 255.857 159.759 255.232 160.9 255.268 163.068 255.103 165.099 254.938 167.116 254.967 167.045 253.537 169.033 250.378 173.432 250.521 173.116 251.398 173.791 258.191 178.981 256.74 174.724 258.097 180.193 260.733 190.771 263.031 198.731 263.08 198.804 263.124 198.875 266.699 209.44 266.356 210 265.191 211.873 266.356 221.483 266.463 221.913 267.935 227.612 262.521 243.595 259.412 273.013 259.089 276.042 259.527 285.322 260.072 287.138 260.927 289.973 260.531 290.245 262.492 295.556 264.855 301.966 267.102 306.76 268.085 313.348 268.61 316.844 268.688 317.087 270.449 320.627 272.609 324.969 270.649 321.602 273.263 331.973 274.433 336.61 274.391 336.33 274.226 338.053 273.953 340.958 273.73 342.301 273.435 342.953 273.163 343.549 273.156 343.615 273.321 344.081 273.795 345.415 273.248 344.605 270.614 348.215 269.573 349.643 268.488 349.549 267.54 350.432 266.427 351.473 258.335 352.492 258.335 355.894 258.335 357.049 258.622 357.574 259.714 358.47 260.259 358.915 260.237 358.915 262.764 358.737 268.696 358.319 275.432 357.602 281.247 355.73 283.387 355.04 283.029 354.903 284.436 354.171 286.418 353.139 284.041 353.949 288.314 351.796 291.25 350.317 293.512 350.117 295.02 349.909 295.365 349.865 295.185 349.765 296.033 349.729 296.824 349.693 296.78 349.549 296.909 349.751 297.053 349.98 297.67 350.138 297.67 350.317 297.67 350.497 297.979 350.368 298.065 350.597 298.101 350.684 298.532 350.964 299.035 351.215 301.124 352.278 303.495 350.899 308.32 350.483 309.074 350.418 309.877 349.887 309.748 349.543 309.662 349.32 310.064 349.249 310.064 348.746 310.064 348.559 310.122 348.373 310.186 348.33 310.329 348.237 310.344 347.705 310.208 347.619 310.079 347.539 310.122 346.111 310.129 345.831 311.027 345.602 311.995 345.724 311.995 342.717 311.995 341.189 311.824 341.34 313.812 341.174 316.671 340.937 319.543 340.744 322.343 340.097 328.62 338.662 328.834 336.351 331.714 336.172 333.323 336.071 334.155 335.885 335.311 335.885 335.756 335.885 336.525 335.82 337.028 335.749 337.932 335.611 338.937 335.82 338.944 336.151 338.952 336.688 339.98 337.457 341.07 338.662 350.37 338.16 349.479 338.633 349.896 337.155 351.325 332.066 349.149 335.555 352.89 331.988 352.775 330.107 352.524 328.966 353.364 323.332 353.451 322.772 353.349 319.126 353.227 318.372 353.084 317.454 352.466 315.071 351.669 312.33 350.593 308.648 350.62 309.122 351.109 303.013 351.476 298.427 351.476 296.663 350.075 290.741 349.781 289.486 349.81 288.121 349.479 281.791 349.113 274.865 346.542 261.545 347.074 261.014 347.447 260.64 358.298 286.613 358.254 286.542 358.383 286.751 372.939 318.997 373.161 319.24 373.498 319.607 376.801 327.738 377.786 329.891 381.11 337.184 380.952 338.676 381.771 339.494 382.195 339.919 381.864 340.428 382.115 340.895 382.151 340.966 382.941 342.559 382.82 342.968 382.725 343.27 383.042 344.152 383.229 344.109 383.307 344.089 383.508 344.16 383.674 344.267 384.406 344.748 385.865 344.561 386.057 343.965 386.101 343.836 386.266 343.693 386.424 343.651L386.711 343.578C386.633 343.384 386.252 342.674 386.252 342.503ZM320.627 317.503C320.16 318.982 320.06 318.666 320.009 319.284 319.851 321.386 319.831 321.459 319.206 322.593 317.698 325.32 316.922 324.867 317.209 327.789 314.244 332.239 312.391 332.927 310.295 333.789 309.432 334.148 309.691 334.09 309.49 332.597 309.325 331.378 309.425 330.013 309.288 330.013 309.145 330.013 309.188 328.966 309.038 328.765 308.909 328.592 308.663 325.227 308.413 324.904 308.276 324.731 308.191 324.05 308.053 323.763 307.673 322.987 307.666 321.818 307.386 321.588 307.199 321.43 305.893 318.315 305.727 316.866 305.433 314.333 303.077 307.686 302.165 305.353 301.605 303.918 301.562 303.716 301.44 302.159 300.105 285.078 298.173 281.468 297.296 274.463 296.873 271.097 296.666 271.765 297.634 269.819 299.257 266.59 299.142 266.518 299.365 262.355L300.219 260.863C301.075 259.37 301.075 259.363 301.749 256.55 302.123 254.999 302.474 253.65 302.525 253.55 302.726 253.191 303.602 251.317 304.098 250.514 304.291 250.198 304.449 249.889 304.449 249.831 304.449 249.688 305.074 248.741 305.166 248.741 305.261 248.741 305.735 250.592 307.58 256.859 309.619 263.776 309.655 263.878 312.484 268.262 313.245 269.447 313.914 270.61 313.963 270.846 314.086 271.378 316.649 285.688 320.154 298.033L320.476 299.174C319.989 303.157 320.074 301.923 319.823 308.791 320.743 312.236 320.792 312.401 321.524 314.805 321.302 315.445 321.008 316.306 320.627 317.503Z" fill-rule="evenodd" transform="matrix(1 0 0 1.00321 389.168 360)"/></g></svg>