<svg width="102" height="360" xmlns="http://www.w3.org/2000/svg" xmlns:xlink="http://www.w3.org/1999/xlink" xml:space="preserve" overflow="hidden"><defs><clipPath id="clip0"><rect x="640" y="360" width="102" height="360"/></clipPath></defs><g clip-path="url(#clip0)" transform="translate(-640 -360)"><path d="M370.748 175.457C370.375 173.239 369.802 173.808 368.998 172.617 368.854 172.304 368.849 171.949 368.758 171.622 368.637 171.1 368.289 170.679 368.012 170.237 366.211 167.247 364.368 167.145 362.772 166.111 362.297 165.777 361.728 165.571 361.319 165.153 361.129 164.58 361.193 163.937 360.921 163.391 360.106 162.163 357.725 161.418 353.61 158.132 352.669 157.241 351.535 156.588 350.388 155.996 349.916 155.697 349.265 155.946 348.857 155.529 348.24 154.983 347.689 154.371 347.071 153.831 346.758 153.578 346.675 153.165 346.431 152.864 346.038 152.415 345.526 152.092 345.132 151.648 344.864 150.461 344.849 149.201 344.413 148.058 344.63 147.972 344.852 147.894 345.056 147.777 345.415 147.553 345.497 147.068 345.828 146.825 346.707 146.748 347.596 147.184 348.457 146.883 348.807 146.721 349.329 146.279 348.993 145.878 345.539 141.072 346.666 141.008 346.125 139.786 345.84 139.245 346.211 138.66 346.103 138.094 346.013 137.544 346.031 136.939 345.693 136.467 345.399 135.969 345.034 135.511 344.813 134.974 344.887 134.611 345.213 134.326 345.206 133.935 345.306 133.144 344.733 132.534 344.391 131.889 344.294 130.648 344.657 131.097 344.071 129.415 343.83 128.638 343.254 128.034 342.943 127.289 344.099 126.384 343.424 125.628 342.935 124.551 343.716 123.105 345.612 120.919 345.316 117.055 345.308 117.003 344.665 111.885 343.871 109.119 343.775 108.863 341.916 104.678 341.472 103.473 340.095 100.609 338.764 95.042 338.655 94.6481 337.548 90.5009 337.325 87.3156 336.378 86.4467 335.636 85.9319 334.833 85.5049 334.105 84.9743 333.855 84.417 334.013 83.7661 333.949 83.1728 333.994 82.0266 333.585 82.1951 333.175 78.346 333.139 77.8614 333.165 77.2934 332.768 76.9383 331.92 76.1521 330.759 75.8497 329.846 75.1629 329.193 74.5587 328.727 73.7913 328.153 73.1187 327.695 72.5802 327.066 72.2404 326.535 71.7847 326.089 71.391 326.214 70.7213 325.937 70.2352 325.716 69.8454 325.6 69.3271 325.133 69.1584 324.566 68.8959 324.048 68.5489 323.568 68.1526 323.805 67.8191 323.775 67.3878 323.905 67.0141 324.084 66.4743 324.401 65.9949 324.673 65.498 325.247 64.4922 326.294 63.8909 327.328 63.4543 328.348 63.0564 329.27 63.5587 332.303 63.5788 332.887 63.6016 333.376 63.2092 333.812 62.8689 334.447 62.3814 334.518 61.5175 334.541 60.7783 334.567 60.1247 334.051 59.5889 334.092 58.934 334.122 57.8947 335.024 57.1245 335.072 56.0947 334.973 55.8093 334.729 55.6058 334.524 55.3968 334.867 55.1584 335.065 54.7767 335.139 54.3724 335.27 53.7174 335.615 53.0852 335.516 52.4022 335.46 51.9964 335.513 51.5732 335.361 51.186 337.463 50.8092 338.481 51.4908 339.476 50.7159 340.073 50.2419 340.163 49.3418 339.884 48.6694 339.481 47.6649 338.441 47.16 337.84 46.3002 337.151 45.2689 336.684 44.1156 336.137 43.0095 335.546 42.064 334.756 41.2657 334.026 40.4298 334.288 40.1728 334.543 39.9075 334.772 39.6209 334.457 39.5901 334.14 39.5807 333.823 39.5754 333.727 39.0611 333.536 38.5535 333.564 38.023 333.648 37.3466 334.737 36.8012 334.287 35.6592 334.064 35.0431 333.847 34.4202 333.52 33.8497 335.693 32.0756 341.77 31.3697 344.739 31.4202 345.953 31.4388 347.153 31.2455 348.361 31.1553 348.665 31.1327 348.887 30.8481 348.82 30.551 348.467 28.9968 346.215 28.4953 344.967 28.0639 336.073 25.5536 330.937 25.9228 330.553 25.487 330.003 23.3615 329.303 21.2761 328.672 19.1734 326.697 11.5084 326.687 12.3856 326.449 11.2178 325.217 5.40372 324.009 1.86246 323.599 0.535169 323.052 0.244567 322.39 0.33958 321.795 0.227139 318.688-0.359737 315.123 0.310708 312.06 0.881258 302.468 2.66745 298.964 5.50892 293.594 8.4158 293.58 8.42455 283.649 14.5192 284.033 15.9228 284.301 17.2666 292.275 37.5558 291.444 38.2426 290.093 39.5519 289.105 39.8759 283.101 46.9441 280.813 50.09 274.775 56.3985 276.739 60.8652 277.914 61.0218 278.704 59.9946 279.692 59.5567 281.223 58.4812 282.833 57.4928 284.199 56.2003 286.65 54.1732 290.452 50.7782 292.993 49.694 293.047 50.0929 293.174 50.4881 293.146 50.8953 292.98 51.3332 292.362 51.4698 292.32 51.976 292.193 52.8735 291.699 53.6703 291.636 54.5811 291.559 55.4262 291.162 56.207 291.14 57.0615 291.116 57.5465 290.982 58.0205 290.986 58.5094 291.072 59.1402 291.728 59.5997 291.676 60.2625 291.345 60.8319 290.785 61.2067 290.313 61.6487 289.535 62.297 288.877 63.0711 288.225 63.8439 287.385 64.9411 284.372 69.8465 284.156 70.3517 283.36 72.1006 282.003 73.5084 281.098 75.1959 280.32 76.3681 279.716 77.6404 278.983 78.8413 276.953 81.8438 276.887 83.0764 276.563 84.1657 274.929 89.6657 275.302 89.0516 274.431 94.7489 274.321 95.9219 274.332 103.086 275.169 109.019 275.216 110.147 275.604 111.22 275.767 112.331 276.624 117.959 278.707 123.282 279.98 132.856 280.055 134.332 279.975 133.065 278.614 135.649 278.327 136.068 279.286 136.87 279.485 137.675 279.247 141.046 278.985 142.054 277.575 146.925 277.574 146.938 274.492 160.319 273.961 166.732 273.747 167.969 273.799 169.257 273.395 170.46 273.162 171.146 272.513 171.6 272.303 172.295 272.111 173.581 272.513 174.847 272.623 176.121 272.54 178.34 270.419 187.569 269.818 201.863 269.629 203.068 269.776 204.288 269.633 205.495 268.813 223.43 269.527 227.524 269.478 231.971 269.472 234.381 269.945 236.337 270.545 237.644 273.392 240.634 274.182 239.024 275.738 239.7 276.367 239.964 277.072 240.161 277.513 240.72 278.714 242.147 279.804 243.683 281.183 244.953 281.574 245.316 283.729 245.209 284.272 245.087 288.111 244.192 289.456 242.973 290.964 243.372 291.136 244.74 289.268 252.634 288.937 254.095 288.534 255.911 286.058 268.973 285.903 271.073 284.769 282.588 284.921 298.899 285.404 310.447 285.574 312.947 285.913 315.43 286.148 317.921 286.263 318.768 286.161 319.625 286.284 320.47 286.396 321.683 286.463 322.902 286.451 324.121 286.441 324.42 286.903 327.041 286.221 330.087 286.457 330.707 286.832 330.567 286.281 330.666 286.01 332.525 286.172 334.291 285.974 335.251 285.86 335.689 286.329 335.999 286.326 336.431 286.511 339.578 285.564 342.708 286.065 345.853 286.979 346.193 287.948 346.428 288.815 346.865 289.101 347.516 289.124 348.265 289.491 348.884 289.716 349.169 290.086 349.28 290.401 349.44 291.203 349.825 292.116 349.753 292.98 349.776 293.062 350.307 293.187 350.844 293.478 351.305 293.943 352.041 293.82 352.959 294.127 353.751 294.426 354.614 295.456 354.143 298.01 354.383 298.768 354.537 299.535 354.611 300.308 354.604 301.11 354.585 301.908 354.767 302.708 354.691 303.699 354.013 304.364 352.801 305.616 352.544 306.953 352.177 308.295 352.659 309.609 352.884 310.176 352.976 310.637 353.366 311.2 353.476 312.767 353.729 317.475 355.863 320.061 356.716 323.497 358.031 333.92 360.297 337.955 359.968 339.604 359.926 341.264 359.961 342.903 359.745 344.407 359.27 345.519 359.796 345.853 357.616 345.264 356.877 344.377 356.487 343.53 356.131 342.822 355.843 342.234 355.322 341.501 355.089 341.162 354.977 334.353 352.077 334.339 352.071 333.791 351.85 333.343 351.455 332.832 351.167 331.393 350.32 328.729 349.057 327.62 347.391 328.735 346.415 336.192 343.555 337.836 340.253 337.828 339.396 337.018 338.673 336.18 338.641 335.06 338.608 333.942 338.689 332.829 338.753 331.875 338.596 330.94 338.902 329.991 338.956 328.935 339.1 327.871 339.039 326.809 339.065 326.026 339.066 325.236 339.293 324.464 339.066 324.25 337.226 323.873 337.455 323.46 333.629 323.459 333.616 323.567 327.476 323.567 327.462 323.625 326.265 322.596 323.03 322.743 321.433 322.855 320.394 322.822 319.343 323.062 318.321 323.216 317.306 323.601 316.313 323.5 315.273 322.925 309.78 324.207 301.533 324.208 301.52 324.4 299.773 326.06 294.585 326.134 294.25 328.63 282.806 326.819 285.836 330.298 276.721 333.629 268.678 334.911 268.655 336.436 261.552 337.949 250.403 337.001 234.452 339.345 219.706 339.35 219.692 341.308 209.991 342.358 204.593 342.525 202.956 343.981 193.386 343.894 186.031 343.901 181.689 343.824 177.872 344.172 176.959 345.45 177.767 346.804 178.479 347.965 179.455 348.9 180.307 349.639 181.35 350.579 182.195 351.231 182.752 352.144 182.698 352.918 182.96 353.178 183.05 353.216 184.241 353.562 185.091 353.911 185.945 353.658 186.886 353.843 187.77 354.074 188.812 354.298 189.869 354.806 190.82 354.979 191.257 355.347 191.824 354.973 192.257 352.397 195.283 353.719 197.74 354.918 197.648 355.587 197.713 356.048 197.091 356.694 197.034 356.822 198.591 357.197 200.129 357.143 201.702 357.124 202.16 357.354 202.582 357.382 203.036 357.617 208.058 358.055 214.947 358.055 214.96 357.924 224.332 359.782 246.055 359.924 249.257 361.135 264.87 360.314 272.313 360.691 277.773 360.358 280.246 361.553 291.007 361.799 300.01 361.801 300.288 362.359 314.356 362.416 315.001 362.233 317.044 363.145 346.874 363.174 349.83 363.206 351.564 362.687 355.27 365.091 356.441 366.88 357.039 366.083 347.823 366.502 324.116 366.48 301.293 366.026 298.851 366.09 296.928 366.167 295.629 365.901 294.342 365.952 293.044 365.997 292.145 365.793 291.261 365.828 290.365 365.849 287.056 365.38 280.385 365.308 278.586 365.126 272.496 364.945 254.352 364.689 251.66 364.676 251.542 363.792 234.841 363.798 234.38 363.823 233.7 363.62 233.047 363.562 232.38 363.562 232.365 362.352 206.991 362.092 204.777 362.01 204.147 362.198 203.507 362.045 202.883 361.942 202.441 361.76 202.01 361.788 201.549 361.745 200.986 361.834 200.33 361.457 199.866 362.089 199.668 362.352 199.005 362.723 198.518 363.001 198.852 363.353 199.114 363.753 199.292 365.28 197.859 365.264 196.604 366.268 193.207 366.673 191.985 367.649 190.98 367.757 189.654 367.878 188.073 367.7 186.465 368.001 184.903 368.284 184.486 368.713 184.199 369.011 183.799 369.338 183.329 369.421 182.753 369.593 182.221 369.709 181.841 369.964 181.527 370.124 181.168 370.557 179.82 370.143 178.512 370.1 177.903 370.368 177.107 370.858 176.332 370.748 175.457ZM322.151 68.2381C321.903 69.3846 321.748 70.5671 321.223 71.6307 316.764 68.9783 312.074 61.3961 309.86 59.0128 309.309 58.4074 308.672 57.8823 308.185 57.2221 313.335 60.8105 315.916 63.5117 320.826 66.2545 322.436 67.175 322.249 67.6678 322.151 68.2381Z" fill-rule="evenodd" transform="matrix(1.00466 0 0 1 369.51 360)"/></g></svg>