<svg width="1419" height="1170" xmlns="http://www.w3.org/2000/svg" xmlns:xlink="http://www.w3.org/1999/xlink" xml:space="preserve" overflow="hidden"><defs><clipPath id="clip0"><rect x="1458" y="690" width="1419" height="1170"/></clipPath></defs><g clip-path="url(#clip0)" transform="translate(-1458 -690)"><path d="M766.132 1162.22C760.745 1161.34 759.984 1160.83 763.216 1160.26 764.547 1160.01 767.779 1158.74 770.378 1157.47 777.412 1154.05 784.383 1146.83 791.481 1135.61 794.523 1130.8 796.994 1126.74 796.994 1126.62 796.994 1126.43 796.424 1126.3 795.727 1126.3 795.03 1126.3 793.382 1125.86 791.988 1125.29 789.516 1124.34 789.389 1124.34 787.235 1125.98 784.066 1128.39 779.376 1129.53 776.842 1128.45 774.117 1127.31 772.659 1124.27 773.166 1120.72 773.356 1119.14 773.863 1117.49 774.243 1117.05 774.75 1116.42 774.307 1115.85 772.469 1114.71 769.363 1112.74 764.737 1107.74 762.646 1104.13 761.759 1102.54 760.364 1099.31 759.604 1096.84 758.844 1094.43 757.449 1090.25 756.562 1087.65 755.105 1083.47 754.914 1081.89 754.914 1074.35 754.914 1066.94 755.168 1065.1 756.562 1060.47L758.21 1055.09 750.922 1043.05C743.254 1030.25 735.585 1015.49 732.29 1006.94 730.072 1001.3 727.917 993.76 727.917 991.543 727.917 990.402 727.347 990.022 725.256 989.452 716.763 987.235 713.278 985.461 709.159 981.089 705.166 976.908 704.089 974.943 702.505 968.735 700.857 962.146 700.92 959.041 702.948 955.113 704.279 952.452 704.532 951.312 704.279 948.334 702.441 927.617 702.251 901.451 703.835 887.45 705.927 869.203 708.525 849.12 709.412 844.431L710.49 838.982 714.609 837.969 718.728 836.955 719.172 833.851C719.362 832.14 719.615 828.972 719.615 826.818 719.679 824.664 719.995 822.827 720.376 822.7 720.756 822.574 723.228 822.637 725.889 822.89 728.614 823.144 733.05 823.524 735.839 823.777 738.627 823.967 743.317 824.474 746.296 824.791 753.393 825.551 760.048 825.488 761.505 824.727 762.963 823.967 766.195 818.329 767.272 814.717 767.906 812.563 767.906 811.169 767.209 807.431 766.258 801.92 765.434 800.146 762.519 797.611 759.034 794.57 755.168 792.543 744.078 787.981 727.6 781.202 717.777 776.451 715.496 774.296 713.088 772.079 712.708 769.545 714.292 766.44 716.383 762.449 718.792 762.322 730.579 765.553 734.952 766.757 739.705 767.771 741.035 767.898 743.317 768.024 743.444 767.898 743.634 766.06 743.824 764.413 743.063 763.209 738.944 758.458 732.987 751.552 727.917 743.886 727.917 741.732 727.981 738.944 732.987 734.129 735.902 734.129 736.789 734.129 739.641 736.093 743.19 739.197 749.844 744.963 751.999 745.66 751.999 742.239 751.999 739.768 750.415 733.242 747.563 723.675L745.472 716.706 739.388 713.855C736.093 712.271 731.973 710.054 730.262 708.977 728.551 707.836 726.967 706.886 726.65 706.886 726.396 706.886 723.354 704.986 719.932 702.705 716.447 700.361 712.771 698.08 711.63 697.636 708.969 696.496 703.518 696.496 701.744 697.636 700.983 698.143 698.258 699.157 695.66 699.854 693.125 700.551 689.83 701.691 688.372 702.388 686.978 703.085 680.957 704.542 675 705.619 669.107 706.759 661.248 708.406 657.572 709.294 651.742 710.751 649.778 710.941 641.412 710.814 630.322 710.751 612.387 709.23 605.606 707.9 603.008 707.33 595.847 706.189 589.763 705.302 573.666 702.895 553.83 698.777 549.901 697.003 548.063 696.179 545.908 695.482 545.211 695.482 544.514 695.482 542.803 694.912 541.345 694.278 539.888 693.582 534.755 691.427 529.875 689.4 524.995 687.436 518.848 684.775 516.249 683.445 508.391 679.517 506.363 679.073 497.047 678.946 490.33 678.883 488.238 679.073 486.654 679.897 485.513 680.467 484.056 680.91 483.295 680.91 482.598 680.91 482.028 681.164 482.028 681.417 482.028 681.734 479.43 683.381 476.261 685.092 473.156 686.802 469.036 689.4 467.262 690.921 463.776 693.835 454.587 698.65 452.559 698.65 451.862 698.65 448.63 699.41 445.271 700.361 439.377 702.008 439.06 702.198 429.111 710.054 394.065 737.677 372.582 751.805 354.457 759.091 340.198 764.857 332.846 766.187 326.319 764.223 321.376 762.766 320.298 761.562 319.918 757.317 319.665 754.403 319.474 753.769 318.587 754.023 311.553 756.113 295.139 756.05 288.421 753.896 278.916 750.792 274.289 748.321 257.749 737.423 247.672 730.771 238.166 722.028 232.78 714.426 227.139 706.506 223.464 696.813 223.464 689.97 223.464 686.992 223.273 686.612 222.069 686.359 186.897 679.263 157.365 664.881 128.72 640.933 125.932 638.652 122.953 636.498 122.066 636.245 118.644 635.231 112.37 632.317 99.8853 626.108 69.9728 611.156 49.6932 597.218 31.4416 578.908 16.8656 564.273 8.56393 552.996-2.27301 533.038-5.56836 527.02-3.47716 527.78 5.39521 535.763 14.5843 544.062 25.6114 552.615 31.9488 556.353 32.3922 556.67 31.315 554.453 29.477 551.602 27.6391 548.688 24.2171 543.049 21.8088 539.057 19.4005 535.129 16.2322 530.124 14.8379 527.97 12.9999 525.246 12.6832 524.485 13.7604 525.436 14.5843 526.133 19.3374 530.314 24.2806 534.686 29.2234 539.057 35.4974 544.443 38.2228 546.597 45.3838 552.362 69.5291 568.137 93.4208 582.646 110.279 592.846 114.715 595.317 117.123 595.57 120.355 596.014 122.699 596.964 127.009 599.499 131.952 602.413 131.065 601.146 124.474 595.887 109.201 583.786 91.5832 567.061 77.1973 551.031 74.8525 548.37 70.5432 544.252 67.6912 541.845 64.776 539.374 59.0093 533.925 54.8265 529.617L47.2849 521.888 41.1379 520.557C33.9765 519.1 23.013 517.643 14.3307 516.946 8.31034 516.503 8.31034 516.503 9.95819 515.362 12.4931 513.652 20.3514 512.258 25.9281 512.511 28.59 512.638 30.8078 512.575 30.8078 512.385 30.8078 512.195 28.0828 510.928 24.7874 509.534 21.4921 508.203 19.0838 506.873 19.464 506.683 19.7807 506.429 23.5198 506.366 27.7026 506.429 33.6598 506.619 35.2442 506.429 34.737 505.859 26.8786 495.785 16.9926 479.566 9.19739 463.917 4.25455 453.844 0.00829699 443.517 0.578625 442.883 0.705605 442.757 2.03637 445.544 3.55724 449.029 10.465 465.058 15.5348 471.14 40.314 493.441 55.5869 507.189 59.7697 510.04 68.452 512.828 69.2755 513.081 68.3885 511.561 65.8536 508.203 56.6645 496.165 52.2916 488.436 45.1302 471.584 40.5041 460.75 34.6103 438.322 34.6103 431.479 34.6103 429.579 35.751 431.479 41.5181 443.073 50.2004 460.623 54.8265 468.352 61.2906 476.272 64.1426 479.757 66.5505 482.607 66.614 482.607 66.7406 482.607 66.4239 481.087 65.917 479.313 62.4312 466.262 58.0587 438.892 59.5161 438.892 59.7062 438.892 60.4666 441.553 61.2271 444.784 63.065 453.084 66.8676 461.066 74.4723 472.661 78.0848 478.172 81.1265 482.544 81.2531 482.481 81.3801 482.354 80.4927 479.186 79.2885 475.448 77.1973 468.923 74.9792 459.166 74.2822 453.654 74.0921 452.197 73.7754 445.608 73.5849 439.082L73.2047 427.171 75.3594 433.507C78.7182 443.327 85.8161 459.483 87.8442 462.017 88.0978 462.397 91.7099 468.226 95.766 475.005 102.927 486.852 106.603 492.047 115.665 503.198 121.876 510.801 129.734 518.72 131.065 518.72 131.699 518.72 133.41 519.29 134.741 519.987 136.135 520.684 137.275 521.128 137.275 520.938 137.275 520.811 136.452 518.593 135.438 515.996 132.586 508.837 129.797 499.333 128.403 492.237 126.122 480.453 126.819 457.899 129.987 439.589 131.382 431.416 136.325 412.093 138.67 405.44 141.458 397.394 153.753 373.193 155.591 372.052 155.844 371.925 155.654 373.889 155.21 376.36 153.753 384.66 154.196 384.533 159.203 375.03L164.019 365.906 162.625 364.386 161.167 362.929 158.949 366.667C157.682 368.757 156.605 370.341 156.478 370.278 156.414 370.151 156.858 367.997 157.619 365.4L158.886 360.712 154.133 355.96C151.471 353.299 149.317 350.891 149.317 350.638 149.317 350.131 154.703 352.729 158.379 355.073 159.773 355.896 160.914 356.53 160.977 356.403 160.977 356.277 161.991 355.009 163.132 353.552L165.16 350.891 163.259 347.47C162.245 345.569 161.357 343.859 161.357 343.669 161.357 342.845 163.385 343.225 165.033 344.429 165.984 345.063 168.455 346.456 170.61 347.533L174.476 349.498 178.848 343.225C181.257 339.804 183.285 337.08 183.411 337.143 183.475 337.27 182.461 340.501 181.067 344.366L178.532 351.335 182.778 354.566C185.122 356.403 189.622 360.141 192.727 362.992 197.861 367.617 202.17 370.405 202.994 369.581 203.184 369.454 202.74 367.173 202.043 364.576 200.839 359.761 197.417 354.312 190.509 346.076 187.721 342.718 183.792 334.989 180.37 326.119 178.658 321.811 175.553 314.208 172.321 306.542 172.004 305.846 172.321 305.782 173.715 306.099 176.314 306.732 180.75 309.964 185.312 314.462 187.468 316.616 189.242 318.327 189.242 318.2 189.242 318.073 187.531 310.534 185.439 301.41 183.348 292.287 181.32 282.657 181.003 279.996 179.609 269.353 178.912 265.995 176.821 259.786 174.539 253.197 173.272 245.024 174.476 245.024 174.856 245.024 176.123 246.228 177.328 247.748 182.397 254.084 199.128 277.209 202.043 281.961 205.402 287.472 210.852 298.559 213.324 304.895 214.148 307.049 216.239 310.344 218.077 312.498 219.851 314.589 221.879 317.06 222.513 318.073 223.083 319.023 224.034 319.784 224.478 319.784 224.984 319.784 225.555 320.227 225.808 320.797 226.189 321.811 231.322 327.386 231.892 327.386 232.019 327.386 232.399 324.155 232.589 320.291 232.843 316.362 233.16 312.308 233.286 311.231 233.477 310.217 233.984 304.642 234.554 298.876 236.329 280.186 238.356 267.642 239.687 266.502 240.448 265.868 240.765 265.995 241.525 266.945 243.236 269.289 243.68 273.407 244.06 290.006 244.25 299.257 244.567 308.506 244.757 310.597 244.884 312.688 245.201 316.426 245.391 318.833 245.898 325.866 250.081 352.539 255.214 381.872 259.143 404.427 264.846 425.904 267.065 426.601 267.635 426.791 269.599 427.615 271.374 428.502 273.148 429.326 275.303 430.022 276.127 430.022 276.951 430.022 278.535 430.466 279.549 431.036 280.626 431.606 282.655 432.43 284.049 432.873 285.506 433.317 287.914 434.457 289.435 435.471 292.224 437.371 297.04 439.716 297.294 439.399 297.357 439.272 298.181 434.394 299.132 428.438 300.082 422.547 301.667 414.12 302.744 409.749 305.722 397.141 317.573 362.042 322.39 351.651 324.861 346.203 326.446 344.746 325.812 348.484 325.622 349.561 325.178 353.489 324.861 357.163 324.481 360.838 323.023 370.215 321.629 378.071 319.094 391.946 319.031 392.579 319.411 401.829 320.108 419.569 320.995 426.031 326.192 453.464 328.664 466.135 330.755 476.652 330.882 476.779 331.008 476.969 331.262 476.399 331.452 475.575 331.642 474.751 332.212 472.217 332.72 469.936 337.409 448.776 350.591 421.469 368.272 396.127 374.926 386.624 375.433 386.244 372.074 393.593 366.941 404.617 364.723 410.382 361.491 421.153 354.71 443.834 351.985 457.899 351.035 475.195 350.654 482.671 350.654 482.734 352.048 482.481 353.189 482.354 354.076 480.643 357.182 472.978 364.47 454.985 369.983 445.481 384.939 425.461 392.101 415.894 394.319 413.55 392.227 417.668 391.53 419.062 390.263 421.659 389.502 423.37 388.742 425.144 386.968 428.945 385.573 431.923 379.616 444.721 376.891 453.654 372.708 473.738 370.363 485.205 370.237 486.409 371.314 486.409 371.821 486.409 373.786 485.205 375.56 483.748 380.82 479.44 382.721 478.172 383.925 478.172 384.496 478.172 385.256 477.792 385.51 477.286 385.763 476.779 387.791 475.385 389.883 474.118 392.037 472.851 394.699 470.95 395.84 469.81 396.981 468.669 402.177 461.447 407.437 453.781 423.978 429.516 430.125 422.23 444.194 410.255 448.82 406.327 454.207 401.576 456.235 399.675 458.199 397.774 459.847 396.444 459.847 396.634 459.847 396.824 457.375 400.815 454.333 405.44 443.053 422.8 426.893 449.663 426.893 451.12 426.893 452.324 428.16 451.183 431.012 447.445 436.209 440.476 445.715 433 455.094 428.312L460.798 425.461 458.516 427.868C454.207 432.557 454.08 432.937 457.312 431.289 459.974 429.959 460.037 429.959 459.213 431.163 450.024 443.834 445.842 451.436 438.744 468.669 435.765 475.829 431.582 485.332 429.428 489.83 426.386 496.292 425.625 498.446 425.879 499.967 426.069 501.044 426.386 503.198 426.639 504.782 427.083 508.71 430.695 515.869 434.244 519.861 435.828 521.698 437.286 523.091 437.413 523.028 437.539 522.901 437.223 520.241 436.716 517.136 434.561 504.022 438.046 480.01 443.37 471.013 444.13 469.683 444.827 468.669 444.891 468.669 444.954 468.669 444.891 474.561 444.764 481.721 444.384 500.727 446.412 516.122 450.468 525.879 452.052 529.491 453.7 529.871 454.714 526.83 455.855 523.218 457.312 514.285 457.946 507.253 458.262 503.451 458.896 499.587 459.404 498.636 459.91 497.686 460.544 495.722 460.798 494.328 460.988 492.998 461.621 491.034 462.192 490.02 462.699 489.006 463.523 486.725 463.966 484.888 464.41 483.114 465.297 480.833 465.804 479.757 466.374 478.743 466.818 477.286 466.818 476.589 466.818 475.892 467.262 474.688 467.769 473.991 468.276 473.231 468.973 470.697 469.353 468.289 469.733 465.882 471.064 461.447 472.268 458.469 473.409 455.428 474.423 452.577 474.423 452.134 474.423 451.626 475.183 450.106 476.007 448.712 476.895 447.318 477.592 445.608 477.592 444.911 477.592 444.214 478.035 443.01 478.542 442.25 479.112 441.49 479.936 439.779 480.38 438.449 480.824 437.118 483.359 431.606 485.957 426.221 488.619 420.836 490.963 415.704 491.217 414.817 491.787 412.536 494.702 405.314 495.717 403.286 496.223 402.399 496.604 401.132 496.604 400.562 496.604 399.992 497.047 398.725 497.554 397.838 500.786 392.009 502.181 384.28 502.244 372.559L502.307 365.463 499.456 362.549C497.871 360.965 496.287 359.698 495.907 359.698 495.526 359.698 494.449 358.937 493.498 358.051 490.33 354.946 485.767 351.461 484.88 351.461 484.372 351.461 483.295 350.574 482.535 349.498 481.711 348.42 478.922 346.076 476.324 344.302 464.6 336.509 454.714 327.133 452.369 321.684 451.735 320.227 451.355 317.313 451.355 313.448 451.292 307.113 452.052 304.452 455.031 300.65 455.791 299.7 457.312 297.673 458.516 296.089 459.657 294.505 461.621 292.541 462.952 291.781 464.22 291.02 466.565 288.993 468.276 287.282 471.254 284.178 471.254 284.114 471.254 279.806 471.254 277.462 470.937 275.308 470.557 275.118 470.177 274.865 468.466 271.633 466.755 267.959 462.762 259.406 459.023 253.007 456.045 249.776 453.193 246.544 450.975 242.49 450.975 240.336 450.975 239.385 450.594 237.865 450.087 236.915 448.567 234 450.404 225.004 454.08 216.957 455.094 214.74 456.298 211.699 456.678 210.178 457.059 208.658 457.819 206.821 458.262 206.124 458.77 205.364 459.91 201.245 460.798 196.874 461.748 192.502 463.016 187.687 463.713 186.167 464.41 184.583 465.677 179.007 466.565 173.812 467.452 168.554 468.909 162.092 469.733 159.494 470.557 156.897 471.634 151.765 472.205 148.09 473.472 139.474 477.085 121.164 479.81 109.126 481.014 103.931 482.408 96.7721 483.042 93.2874 483.612 89.8031 484.562 85.6847 485.196 84.1011 485.83 82.517 486.591 79.5394 486.971 77.4487 487.731 72.4435 489.379 65.6645 490.9 60.9763 491.597 58.8856 492.294 54.3239 492.484 50.8392 493.308 37.6615 495.843 30.3754 501.673 24.4834 507.757 18.3381 508.835 18.0211 522.967 17.9579 536.909 17.8945 537.353 17.7044 538.05 12.7626 538.494 9.15137 539.381 7.50424 541.282 6.80708 542.106 6.49042 544.26 4.33621 546.035 2.0554 548.253-0.668662 549.901-2.1892 550.978-2.37927 553.26-2.82288 557.696-3.96328 561.561-5.04021 566.885-6.56075 599.142-6.49764 609.789-4.91362 613.528-4.4069 617.647-0.732138 617.647 1.99228 617.647 4.20961 613.148 11.9389 607.697 18.9083 603.388 24.4199 599.903 29.8687 599.903 31.0091 599.903 32.2126 597.684 34.2403 594.833 35.6339 593.629 36.2675 591.918 37.2813 591.094 37.9147 590.27 38.6118 588.685 39.1185 587.608 39.1185 586.531 39.182 584.503 39.6253 583.109 40.1324 580.13 41.3359 568.089 45.6443 565.364 46.5947 564.35 46.9113 562.069 47.6716 560.294 48.3053 558.583 48.8755 556.428 49.5088 555.541 49.6988 554.654 49.8889 553.386 50.5861 552.689 51.2194 551.992 51.8531 550.091 52.93 548.443 53.6268 546.606 54.3871 545.148 55.5909 544.514 56.6679 544.007 57.6182 542.549 59.4558 541.282 60.6593 540.015 61.8632 537.48 65.4744 535.578 68.579 532.6 73.5839 531.966 75.2314 530.509 82.2004 529.621 86.5719 528.354 91.7669 527.657 93.731 526.96 95.7583 526.199 99.8766 526.009 102.918 525.819 106.022 525.122 110.52 524.488 112.928 523.221 117.489 521.319 128.196 520.052 137.003 519.672 139.79 518.594 146.443 517.707 151.828 516.249 160.634 516.186 162.028 516.883 166.083 517.263 168.554 517.834 174.573 518.151 179.451 518.531 186.927 518.911 188.891 520.242 191.869 521.129 193.833 522.143 196.811 522.523 198.521 523.094 201.372 525.565 208.658 532.98 229.502 534.628 234.064 536.402 238.118 536.973 238.562 538.62 239.766 541.345 239.449 543.31 237.865 544.26 237.041 546.098 235.838 547.302 235.141 554.337 231.022 579.75 209.292 587.164 200.929 590.143 197.571 592.108 193.706 594.262 186.927 596.163 180.908 599.206 174.763 600.6 174.003 601.423 173.559 601.804 172.672 601.804 171.152 601.804 168.047 596.163 160.508 592.805 159.177 591.474 158.671 590.206 157.783 590.016 157.277 589.509 156.073 591.41 148.153 593.248 143.655 594.009 141.755 595.023 139.157 595.467 137.953 597.938 131.111 598.382 129.97 599.142 129.21 599.522 128.767 599.903 127.69 599.903 126.929 599.903 126.106 600.6 124.458 601.423 123.191 602.247 121.988 603.135 120.15 603.388 119.073 603.895 116.729 610.74 104.691 614.288 99.8766 618.471 94.2377 620.816 93.2243 624.238 95.4416 626.266 96.7721 631.589 103.551 631.589 104.818 631.589 105.262 632.096 105.895 632.794 106.212 633.427 106.592 634.188 107.606 634.378 108.556 634.631 109.507 635.582 111.217 636.469 112.421 637.42 113.625 638.75 115.905 639.511 117.553 640.272 119.2 642.807 123.065 645.151 126.169L649.334 131.808 649.334 142.325C649.334 153.982 648.447 166.653 647.433 169.251 646.736 171.152 645.785 183.252 645.215 197.761 644.771 209.482 644.264 212.839 642.553 215.184 641.856 216.071 638.75 218.795 635.645 221.139 632.54 223.483 627.723 227.285 624.935 229.565 619.929 233.557 613.084 238.435 607.571 241.73 606.05 242.68 602.945 244.961 600.663 246.798 598.445 248.572 596.354 250.093 596.037 250.093 595.72 250.093 593.312 251.74 590.587 253.767 581.397 260.673 571.701 267.642 568.849 269.48 562.512 273.471 558.71 277.652 558.71 280.567 558.71 281.58 559.026 282.404 559.344 282.404 560.167 282.404 563.146 288.549 563.146 290.197 563.146 290.894 563.716 291.844 564.35 292.414 565.744 293.618 573.412 308.633 574.553 312.498 574.997 313.891 576.391 317.63 577.722 320.734 579.053 323.902 580.447 327.45 580.827 328.717 581.271 329.984 582.031 331.441 582.665 332.011 584.439 333.532 592.678 337.523 594.135 337.523 594.896 337.523 595.657 337.967 595.847 338.474 596.1 338.98 596.861 339.424 597.621 339.424 598.382 339.424 599.966 340.121 601.17 341.008 602.374 341.895 603.705 342.592 604.148 342.592 604.656 342.592 605.162 343.035 605.353 343.542 605.543 344.049 606.747 345.126 608.014 345.886 609.345 346.647 612.641 349.434 615.429 352.095 623.921 360.204 649.271 378.197 653.39 379.085 657.192 379.845 668.156 389.791 670.628 394.733 671.198 395.811 672.592 398.091 673.733 399.675 674.873 401.322 676.268 403.54 676.838 404.617 677.408 405.694 679.627 407.721 681.845 409.178 685.077 411.333 686.471 411.839 689.576 412.093 693.252 412.41 694.012 412.156 711.123 405.314 729.565 397.964 759.414 386.75 774.243 381.619L782.862 378.578 783.179 370.912C783.559 362.612 784.51 359.064 786.855 357.797 788.693 356.783 797.248 356.213 809.859 356.213L820.569 356.213 822.217 358.114C823.738 359.888 824.055 360.014 828.301 359.888 830.772 359.824 837.363 359.191 842.94 358.431 848.517 357.67 856.249 356.847 860.051 356.53 863.917 356.277 870.191 355.39 873.993 354.692 900.863 349.561 923.488 347.66 953.21 347.977 994.91 348.42 1034.65 353.932 1081.99 365.843 1088.32 367.427 1093.96 368.567 1094.41 368.377 1095.61 367.934 1098.65 359.381 1099.29 354.566 1099.79 350.574 1100.17 344.556 1100.87 328.654 1101.76 308.633 1102.58 297.799 1103.79 289.373 1105.62 276.005 1107.02 235.204 1106.07 220.569 1105.37 209.102 1105.81 206.251 1109.74 198.141 1115.26 186.864 1115.64 185.597 1116.33 173.749 1117.98 146.189 1119.06 109.507 1118.81 86.8886L1118.62 68.452 1121.47 62.8135C1126.66 52.5499 1133.95 46.9113 1142.95 46.2145 1145.23 46.0876 1147.51 45.6443 1147.96 45.2642 1148.53 44.8206 1149.1 45.0106 1149.99 45.7709 1151.95 47.545 1158.67 46.7212 1163.93 44.0603 1168.74 41.5894 1169.19 40.449 1167.35 34.5569L1166.27 30.8822 1168.11 28.0946C1169.12 26.5106 1171.91 22.6462 1174.32 19.5416 1178 14.6633 1179.01 13.713 1180.97 13.3963 1182.24 13.1428 1191.43 12.8892 1201.38 12.8892 1214.82 12.8261 1219.76 13.0162 1220.46 13.5864 1220.96 14.0296 1223.5 14.5367 1226.1 14.7268 1235.98 15.4871 1241.81 17.9579 1240.86 20.9355 1240.23 22.8993 1236.43 28.7283 1233.57 32.2126 1232.18 33.8601 1231.1 35.3172 1231.1 35.5073 1231.1 35.6973 1229.71 37.7881 1227.93 40.0689 1226.22 42.3497 1224.2 45.6443 1223.44 47.3549 1222.42 49.6357 1221.28 51.0293 1218.81 52.6764 1217.03 53.9438 1215.32 54.9573 1215.01 54.9573 1214.75 54.9573 1213.8 55.5275 1212.92 56.2246 1212.03 56.9214 1210.82 57.4916 1210.32 57.4916 1209.81 57.4916 1208.48 58.1884 1207.4 59.0121 1206.32 59.8359 1203.41 61.5465 1200.87 62.75 1198.4 64.0174 1196.18 65.3478 1195.93 65.728 1195.74 66.0446 1194.73 66.3613 1193.71 66.3613 1191.87 66.3613 1180.28 70.9864 1178.5 72.3803 1178 72.8236 1176.79 73.3307 1175.84 73.5839 1174.89 73.7739 1173.18 75.1679 1171.98 76.6884 1169.31 79.983 1162.34 91.5137 1160.38 95.8217 1158.73 99.5596 1157.21 110.647 1156.58 123.382 1156.39 128.07 1156.13 132.568 1156.01 133.265 1155.88 134.025 1155.63 142.261 1155.37 151.638 1154.93 166.463 1155.06 169.187 1155.94 172.736 1157.53 179.007 1158.67 195.037 1159.81 227.285 1160.82 256.175 1161.46 267.515 1162.66 278.919 1162.98 282.087 1163.55 288.233 1163.93 292.731 1164.31 297.166 1165.19 302.868 1165.83 305.402 1166.53 307.873 1167.1 310.977 1167.1 312.181 1167.1 313.385 1167.98 317.376 1169 321.051 1170.07 324.725 1170.9 328.907 1170.9 330.364 1170.9 331.885 1171.53 334.292 1172.42 336.066 1173.56 338.347 1174.13 340.881 1174.64 345.949 1174.95 349.751 1175.52 353.172 1175.91 353.616 1176.41 354.186 1179.33 354.629 1185.03 354.883 1189.59 355.136 1198.09 355.58 1203.85 355.896 1209.62 356.213 1218.43 356.657 1223.5 356.847 1242.51 357.544 1256.9 358.811 1268.11 360.648 1286.17 363.562 1299.55 364.766 1316.4 364.893L1332.18 364.956 1337.89 361.155C1344.99 356.34 1351.32 350.891 1353.54 347.597 1356.65 342.908 1359.69 327.006 1362.29 301.601 1364.38 280.883 1363.81 263.651 1360.77 257.758 1359.43 255.161 1359.5 250.473 1360.96 247.305 1365.07 238.308 1365.14 238.055 1365.07 231.783 1365.07 225.384 1364.06 222.216 1361.78 221.076 1360.7 220.442 1353.92 220.569 1349.17 221.266 1347.39 221.519 1345.94 221.329 1344.67 220.696 1342.64 219.682 1338.84 215.627 1338.84 214.55 1338.84 213.916 1337.44 210.432 1336.37 208.278 1336.05 207.771 1335.29 207.201 1334.66 207.074 1332.88 206.757 1331.87 205.744 1331.87 204.223 1331.87 201.372 1347.52 168.744 1355.06 155.946 1358.29 150.498 1364.25 143.022 1365.46 143.022 1366.41 143.022 1371.92 150.878 1373.5 154.426 1374.39 156.326 1375.53 158.607 1376.17 159.494 1376.8 160.381 1378.51 163.929 1380.03 167.414 1382.82 173.939 1385.23 177.931 1387.57 180.021 1390.17 182.366 1391.5 187.56 1391.82 196.811 1392.01 201.562 1392.58 206.884 1393.02 208.594 1393.47 210.369 1394.04 213.22 1394.23 215.057 1394.67 218.541 1402.02 235.457 1404.11 237.738 1408.11 242.173 1414.25 254.781 1414.25 258.646 1414.25 259.533 1412.48 264.601 1410.32 269.923 1407.85 276.132 1405.89 282.151 1404.94 286.839 1404.05 290.83 1402.72 296.152 1401.9 298.559 1401.07 301.03 1399.8 306.226 1399.04 310.217 1398.28 314.208 1397.14 318.897 1396.45 320.671 1394.16 326.753 1393.15 337.143 1393.09 355.896 1392.96 377.564 1393.66 375.727 1380.41 389.475 1365.07 405.377 1363.87 406.327 1352.15 412.029 1350.12 412.98 1347.71 413.36 1335.99 414.5 1318.94 416.147 1309.43 417.351 1306.2 418.238 1304.49 418.745 1301.26 419.315 1299.04 419.569 1296.89 419.822 1294.92 420.266 1294.73 420.582 1294.54 420.899 1293.34 421.153 1291.94 421.153 1290.61 421.153 1286.3 421.976 1282.37 422.99 1278.38 424.004 1273.44 425.017 1271.35 425.271 1269.25 425.461 1265.58 426.094 1263.11 426.538 1260.7 427.045 1257.28 427.741 1255.5 428.058 1249.1 429.389 1239.66 432.05 1238.77 432.873 1237.44 434.14 1238.96 437.942 1241.62 439.969 1246 443.264 1251.07 454.161 1252.65 463.601 1253.03 465.882 1253.54 472.851 1253.66 479.123 1253.98 488.88 1254.23 491.224 1255.57 495.279 1256.39 497.876 1257.4 502.375 1257.78 505.289 1259.05 514.919 1257.4 534.432 1254.49 544.379 1251.7 553.629 1245.87 567.061 1242.13 572.509 1241.31 573.713 1240.61 575.36 1240.61 576.057 1240.61 576.754 1239.91 578.845 1239.02 580.682 1238.14 582.583 1237.44 584.546 1237.44 585.117 1237.44 585.75 1236.93 587.081 1236.36 588.095 1235.54 589.678 1235.35 592.022 1235.35 602.033 1235.35 614.197 1235.73 618.568 1237.69 625.474 1238.26 627.502 1238.71 629.972 1238.71 630.986 1238.71 631.937 1238.96 632.824 1239.28 633.014 1240.1 633.584 1241.75 641.187 1242.45 647.775 1243.21 654.934 1243.71 655.885 1246.76 656.455 1250.75 657.089 1287.89 658.229 1296.06 657.976 1302.46 657.722 1304.17 657.469 1306.83 656.138 1309.5 654.871 1310.95 654.618 1316.02 654.618 1320.78 654.618 1322.42 654.871 1323.76 655.758 1325.97 657.279 1328.64 656.582 1333.83 653.097 1335.99 651.64 1337.95 650.5 1338.2 650.5 1338.46 650.5 1339.28 649.549 1339.92 648.409 1341.31 646.128 1344.48 644.798 1348.6 644.798 1351.32 644.798 1354.68 643.531 1358.1 641.123 1360.51 639.476 1360.89 639.412 1369.32 639.412 1377.5 639.412 1378.19 639.539 1379.52 640.806 1386.18 647.205 1392.64 652.02 1395.62 652.907 1398.92 653.858 1406.2 659.369 1408.23 662.411 1410.07 665.198 1411.15 669.633 1410.77 672.674 1410.58 673.878 1409.63 681.924 1408.55 690.477 1406.52 707.266 1406.01 710.181 1403.8 717.973 1401.64 725.64 1399.74 738.311 1399.11 749.968 1398.47 761.055 1397.97 763.273 1395.49 765.87 1392.96 768.531 1390.8 774.993 1389.85 782.913 1389.35 786.904 1388.52 791.909 1388.02 794 1387 798.245 1386.81 800.336 1385.42 822.13 1384.4 837.652 1384.47 839.996 1386.18 843.354 1387.57 846.078 1387.26 855.835 1385.42 866.225 1382.95 880.1 1381.36 886.879 1379.65 890.427 1378.83 892.201 1378.13 894.229 1378.13 894.925 1378.13 895.623 1377.75 896.509 1377.24 896.89 1376.74 897.333 1376.17 898.41 1375.91 899.36 1375.47 901.198 1372.49 906.076 1370.78 907.85 1369.19 909.434 1370.02 912.792 1373 917.227 1375.53 921.091 1378.57 929.328 1380.35 937.247 1381.36 941.809 1382.19 943.266 1386.62 948.524 1387.95 950.108 1388.9 951.819 1388.71 952.262 1388.52 952.769 1387.07 953.529 1385.48 953.973 1383.14 954.607 1382.19 954.607 1380.6 953.973 1377.5 952.642 1374.52 953.086 1371.79 955.24 1368.88 957.521 1364.06 958.028 1361.59 956.254 1360.77 955.683 1358.93 954.923 1357.53 954.543 1350.88 952.769 1347.65 950.298 1342.7 942.949 1339.35 938.071 1335.92 934.332 1334.59 934.332 1334.15 934.332 1332.25 933.572 1330.28 932.622L1326.8 930.911 1320.33 932.559C1316.72 933.446 1310.07 935.79 1305.57 937.691 1301 939.654 1295.87 941.555 1294.16 941.935 1292.45 942.315 1290.67 942.885 1290.29 943.266 1289.85 943.583 1288.01 944.026 1286.17 944.279 1283.07 944.596 1282.44 944.976 1279.77 947.891L1276.73 951.122 1272.68 951.058C1269.95 951.058 1268.05 950.678 1266.91 949.918 1265.01 948.651 1263.11 944.85 1262.47 940.858L1262.03 938.134 1257.53 938.197C1255 938.197 1251.38 938.514 1249.48 938.831 1247.58 939.148 1242.95 939.654 1239.28 939.908 1232.88 940.415 1232.37 940.542 1230.15 942.505 1227.81 944.533 1227.68 944.596 1222.42 944.343 1216.08 944.089 1215.26 943.456 1215.26 938.387 1215.26 934.776 1214.82 934.332 1211.01 934.332 1209.75 934.332 1205.31 933.192 1201.06 931.735 1195.23 929.771 1192.89 929.264 1191.18 929.581 1189.97 929.771 1187.19 930.151 1185.09 930.278 1181.36 930.595 1181.16 930.531 1179.83 928.757 1179.14 927.744 1178 925.59 1177.3 924.069L1176.1 921.281 1168.3 920.521C1162.66 919.951 1160 919.381 1158.54 918.494 1157.4 917.797 1154.67 917.037 1152.52 916.783 1149.54 916.466 1148.46 916.149 1148.27 915.326 1147.89 913.996 1145.49 912.792 1143.14 912.792 1141.3 912.792 1138.58 911.271 1138.58 910.194 1138.58 909.814 1137.88 908.04 1136.99 906.203 1135.47 903.035 1135.16 902.718 1131.42 901.388 1129.26 900.627 1126.09 899.297 1124.45 898.41 1122.61 897.523 1119.44 896.636 1116.65 896.383 1109.93 895.623 1108.54 894.419 1106.45 887.766 1106 886.309 1106.13 885.295 1107.02 883.458 1107.65 882.128 1108.6 880.924 1109.11 880.67 1110.5 880.164 1110.25 877.693 1108.67 876.236 1105.94 873.765 1100.55 871.547 1094.98 870.724 1086.04 869.33 1080.59 865.909 1079.07 860.777 1078.06 857.356 1078.75 854.378 1081.29 851.463 1082.49 850.07 1083.44 848.612 1083.44 848.232 1083.44 847.282 1080.97 843.988 1075.46 837.398 1072.99 834.421 1070.07 830.683 1068.93 829.036 1066.78 825.805 1065.06 824.981 1061.71 825.615 1059.99 825.931 1059.04 825.615 1056.64 824.031 1050.36 819.913 1049.41 814.211 1053.91 808.445 1056.07 805.658 1056.26 805.15 1056.07 802.236 1055.69 798.118 1054.16 794.95 1050.36 790.832 1046.5 786.587 1045.42 783.483 1045.04 775.69 1044.91 772.206 1044.66 769.292 1044.59 769.165 1044.47 769.038 1043.83 770.242 1043.26 771.762 1042.69 773.283 1040.79 776.577 1039.08 779.048 1034.65 785.32 1029.39 788.615 1023.87 788.615 1021.4 788.615 1020.7 789.312 1020.7 792.036 1020.7 795.457 1017.85 797.041 1010.56 797.738 1008.35 797.928 1001.37 800.209 991.234 804.01 982.552 807.305 971.145 811.486 965.885 813.323 960.688 815.161 956.125 816.935 955.809 817.188 955.492 817.442 957.456 821.75 960.181 826.755 969.307 843.417 970.194 845.825 968.737 849.373 967.913 851.4 964.871 854.061 962.526 854.758 961.766 855.012 960.118 854.885 958.914 854.504 956.189 853.618 953.844 850.323 951.119 843.417 949.281 838.856 943.07 827.832 940.345 824.284L939.268 822.89 921.84 828.592C912.271 831.76 898.836 835.878 892.055 837.842 885.274 839.743 879.634 841.39 879.57 841.453 879.507 841.517 879.253 846.585 879 852.794L878.556 864.008 882.929 864.008C888.379 864.008 891.421 865.402 892.182 868.126 892.752 870.217 892.498 871.991 890.787 877.693 890.154 879.847 889.33 884.472 888.949 888.02 888.569 891.504 887.935 897.333 887.555 900.944 886.288 913.615 884.386 919.318 878.366 928.314 876.085 931.799 872.029 938.514 869.43 943.203 858.15 963.223 856.312 966.39 855.235 967.784 854.094 969.241 854.157 969.305 856.946 973.676 858.467 976.084 859.734 978.302 859.734 978.555 859.734 979.125 840.469 991.733 833.941 995.471 829.188 998.068 828.681 998.575 828.237 1000.73 827.414 1004.78 827.667 1011.82 828.681 1013.84L829.632 1015.74 838.504 1016.25C848.644 1016.82 851.559 1017.9 853.65 1021.83 854.918 1024.11 854.918 1024.17 853.524 1028.35 851.812 1033.55 851.812 1033.93 853.524 1036.97 854.918 1039.31 854.918 1039.44 853.777 1040.64 852.7 1041.91 852.7 1041.97 854.031 1043.81L855.488 1045.71 854.031 1047.74C853.27 1048.82 852.573 1050.59 852.51 1051.73 852.446 1053.44 852.7 1053.82 854.474 1054.39 857.643 1055.47 860.368 1057.75 860.368 1059.33 860.368 1061.36 858.657 1063.89 852.51 1070.93L847.059 1077.14 851.622 1078.85C854.157 1079.8 857.643 1081.19 859.291 1081.95L862.333 1083.28 859.354 1088.79C851.622 1103.24 843.891 1112.36 836.286 1116.04 832.04 1118.13 824.625 1120.15 818.668 1120.91 815.436 1121.36 815.246 1121.48 813.028 1124.91 810.556 1128.77 804.219 1143.53 803.585 1147.08 803.142 1149.49 803.712 1150.37 806.12 1150.63 807.007 1150.69 807.895 1150.95 808.085 1151.14 808.782 1151.77 802.508 1156.9 799.212 1158.36 790.467 1162.22 776.208 1163.87 766.132 1162.22ZM939.585 764.476C940.789 764.096 943.07 763.526 944.655 763.273 947.317 762.766 951.246 761.625 955.745 759.978 956.822 759.598 959.104 759.091 960.815 758.901 962.589 758.648 964.554 758.141 965.251 757.761 965.948 757.38 967.976 756.874 969.687 756.62 971.462 756.367 974.06 755.797 975.581 755.29 977.039 754.783 979.13 754.403 980.207 754.403 981.285 754.403 983.059 754.023 984.136 753.516 985.277 753.009 987.622 752.439 989.333 752.312 991.108 752.122 993.896 751.615 995.607 751.172 998.015 750.538 1000.17 750.538 1006 751.108 1009.99 751.488 1013.61 752.122 1013.99 752.502 1015.06 753.579 1018.99 753.199 1021.97 751.742 1025.08 750.158 1026.91 747.244 1027.48 743.062 1027.8 740.845 1027.61 740.464 1026.03 739.451 1025.01 738.817 1022.73 736.917 1020.89 735.269 1019.12 733.622 1017.22 732.228 1016.65 732.228 1016.14 732.228 1014.56 733.179 1013.16 734.319 1011.77 735.396 1008.92 737.74 1006.82 739.387 998.522 745.976 992.312 747.56 979.7 746.293 970.701 745.406 966.645 742.999 961.766 736.03 960.815 734.699 960.625 734.826 953.844 742.809 949.978 747.244 943.768 754.149 939.965 758.014L933.057 765.173 935.212 765.173C936.416 765.173 938.381 764.857 939.585 764.476ZM1268.68 752.439C1270.71 751.425 1276.04 746.103 1277.11 744.139 1277.62 743.189 1279.01 741.985 1280.22 741.415 1282.25 740.401 1285.29 737.36 1288.58 732.989 1289.41 731.912 1290.42 729.124 1290.93 726.78 1292.13 720.951 1292.45 720.191 1294.41 718.1 1295.68 716.706 1295.87 716.136 1295.36 715.249 1294.79 714.362 1293.72 714.172 1289.03 714.299 1277.3 714.552 1259.81 715.693 1256.14 716.326 1248.47 717.783 1249.23 716.896 1249.67 723.549 1250.31 732.735 1251.19 735.65 1255.69 743.569 1257.97 747.56 1260.38 751.362 1261.02 751.995 1262.35 753.326 1266.53 753.516 1268.68 752.439ZM1259.3 709.104C1261.78 708.85 1264.63 708.47 1265.64 708.153 1266.72 707.836 1268.3 707.393 1269.32 707.203 1270.71 706.949 1271.03 706.506 1271.03 704.922 1271.03 703.718 1270.65 702.895 1269.95 702.705 1269.32 702.451 1267.86 701.881 1266.72 701.374 1265.39 700.804 1261.52 700.297 1256.45 700.107L1248.34 699.727 1248.09 704.606C1248.02 707.33 1248.02 709.674 1248.21 709.8 1248.34 709.991 1249.93 709.927 1251.7 709.8 1253.41 709.61 1256.9 709.294 1259.3 709.104ZM1305.5 697.383C1306.9 696.306 1308.61 695.482 1309.43 695.482 1310.19 695.482 1311.14 695.039 1311.59 694.532 1312.03 694.025 1313.05 693.582 1313.87 693.582 1314.82 693.582 1315.45 693.075 1315.71 692.188 1315.96 691.364 1316.66 690.16 1317.29 689.463 1317.92 688.766 1319.07 686.612 1319.83 684.712 1321.03 681.734 1321.16 680.34 1320.97 675.208 1320.78 671.914 1320.33 668.556 1319.89 667.732 1318.88 665.832 1316.47 665.895 1315.2 667.859 1314.19 669.316 1313.87 669.38 1304.74 669.57 1298.91 669.76 1294.98 670.077 1294.41 670.583 1293.91 670.964 1292.45 671.47 1291.12 671.66 1289.79 671.85 1287.89 672.484 1286.87 672.991 1285.86 673.498 1284.53 673.941 1283.89 673.941 1283.26 674.005 1281.61 674.448 1280.22 674.955 1278.82 675.462 1276.29 676.159 1274.51 676.476 1272.8 676.856 1269.32 677.996 1266.78 679.01 1264.31 680.087 1261.59 680.91 1260.76 680.91 1259.94 680.91 1258.73 681.354 1258.1 681.861 1257.4 682.368 1256.07 682.811 1255.19 682.811 1254.3 682.811 1253.22 683.128 1252.84 683.508 1252.46 683.888 1251.45 684.585 1250.62 684.965 1249.61 685.472 1249.1 686.359 1248.97 687.753 1248.72 690.097 1249.67 691.554 1251.89 692.378 1253.54 693.011 1269.82 695.799 1275.46 696.433 1277.37 696.686 1282.69 697.319 1287.19 697.953 1299.8 699.727 1302.53 699.664 1305.5 697.383ZM1263.87 674.321C1270.78 672.041 1277.49 670.077 1278.76 669.823 1281.61 669.38 1284.59 667.036 1283.83 665.895 1282.88 664.438 1277.24 663.868 1262.09 663.805 1249.29 663.805 1247.01 663.931 1246.31 664.755 1245.68 665.452 1245.62 667.162 1245.93 671.027 1246.12 674.005 1246.5 676.792 1246.69 677.362 1247.39 679.136 1250.88 678.503 1263.87 674.321ZM205.529 508.14C205.719 507.569 205.275 501.677 204.515 495.025 202.043 473.104 201.156 460.94 201.093 445.671L200.966 430.656 194.438 421.469C189.242 414.12 175.109 395.62 172.765 393.086 171.814 392.009 170.737 403.35 170.8 414.184 170.8 421.216 171.244 428.945 172.068 435.408 172.765 440.983 173.525 447.952 173.715 450.93 173.969 453.907 174.412 457.836 174.729 459.736 175.046 461.637 175.299 464.425 175.299 465.945 175.299 467.466 175.617 470.063 175.997 471.71 177.137 476.525 182.587 487.169 186.644 492.491 192.727 500.537 202.043 509.217 204.642 509.217 204.895 509.217 205.275 508.773 205.529 508.14ZM295.519 479.44 294.949 470.253 290.893 462.017C285.95 451.817 284.239 449.789 278.852 447.192 276.571 446.115 274.543 445.291 274.479 445.354 274.416 445.481 279.169 455.365 285.062 467.339 290.956 479.313 295.836 489.006 295.899 488.88 296.026 488.753 295.836 484.508 295.519 479.44ZM183.221 390.932C181.003 387.131 178.151 382.696 176.821 380.985 174.729 378.197 174.412 377.944 173.969 379.085 172.574 382.696 173.145 383.836 180.18 390.869 183.919 394.67 187.024 397.711 187.087 397.711 187.15 397.711 185.439 394.67 183.221 390.932ZM168.012 359.064C168.899 357.353 168.899 356.973 168.012 355.263 167.441 354.249 166.808 353.362 166.491 353.362 166.237 353.362 165.477 354.502 164.843 355.896 163.702 358.367 163.702 358.431 165.223 359.634 166.047 360.331 166.808 360.902 166.871 360.965 166.934 360.965 167.441 360.141 168.012 359.064Z" fill-rule="evenodd" transform="matrix(1 0 0 -1 1462 1853)"/><path d="M0.0609248-6.69479C1.89768-7.27012 13.994-7.68079 12.7275-7.10547 12.4106-6.94129 8.99092-6.69479 5.12778-6.44829 1.32773-6.28412-0.952446-6.44829 0.0609248-6.69479Z" fill-rule="evenodd" transform="matrix(1 0 0 -1 1468 1341)"/><path d="M0.557315-1.25725C4.11433-4.73099 6.11128-5.94973 5.36216-4.18251 5.05029-3.45119-0.690516 1.18058-2.3756 1.97261-2.87466 2.27755-1.56432 0.814923 0.557315-1.25725Z" fill-rule="evenodd" transform="matrix(1 0 0 -1 1927 1425)"/></g></svg>