<svg width="694" height="870" xmlns="http://www.w3.org/2000/svg" xmlns:xlink="http://www.w3.org/1999/xlink" xml:space="preserve" overflow="hidden"><defs><clipPath id="clip0"><rect x="1837" y="800" width="694" height="870"/></clipPath></defs><g clip-path="url(#clip0)" transform="translate(-1837 -800)"><path d="M2133.28 803.026C2133.29 803.026 2133.3 803.029 2133.3 803.029L2133.3 803.029C2133.29 803.029 2133.29 803.026 2133.28 803.026 2133.27 803.026 2133.27 803.024 2133.26 803.024L2133.26 803.024C2133.26 803.024 2133.27 803.026 2133.28 803.026ZM2160.25 835.694C2160.25 835.694 2160.25 835.694 2160.25 835.694L2160.24 835.694C2160.24 835.694 2160.24 835.694 2160.24 835.694L2160.25 835.694C2160.25 835.694 2160.25 835.694 2160.25 835.694ZM2160.07 835.689C2160.06 835.686 2160.06 835.686 2160.06 835.686 2160.06 835.686 2160.06 835.686 2160.06 835.686ZM2172.38 910.51 2174.4 935.163 2163.1 934.704 2163.1 934.704 2174.4 935.163 2172.38 910.51ZM2163.77 937.169 2163 937.136 2163.77 937.169ZM2162.92 937.131C2162.91 937.131 2162.91 937.131 2162.91 937.129 2162.91 937.129 2162.91 937.129 2162.91 937.129ZM2032.63 927.333 2032.39 927.785 2032.39 927.785 2032.63 927.333ZM2163.77 937.169 2201.54 959.935 2201.54 959.935 2163.77 937.169ZM2154 955.327C2154 955.327 2154 955.327 2154 955.327L2154 955.327C2154 955.327 2154 955.327 2154 955.327L2153.99 955.327C2154 955.327 2154 955.327 2154 955.327ZM2277.32 970.544C2280.94 970.963 2284.41 971.607 2287.64 972.563L2287.64 972.563C2284.41 971.607 2280.94 970.963 2277.32 970.544 2273.13 970.055 2268.73 969.87 2264.31 969.852L2264.31 969.852C2268.73 969.87 2273.13 970.055 2277.32 970.544ZM2152.8 955.93 2150.21 960.437 2150.21 960.437 2152.8 955.93ZM2150.21 960.437 2150.21 960.437 2150.2 960.437C2150.2 960.437 2150.2 960.437 2150.2 960.437ZM2224.32 970.237 2224.32 970.237C2224.31 970.237 2224.29 970.235 2224.28 970.235 2224.26 970.232 2224.25 970.23 2224.23 970.23ZM2149.96 960.871 2149.96 960.871C2149.96 960.871 2149.96 960.871 2149.96 960.871L2149.96 960.871 2149.56 961.568 2149.96 960.871ZM2032.05 928.396 2021.99 946.942 2032.05 928.396ZM2149.39 962.215C2149.39 962.215 2149.39 962.215 2149.39 962.215L2149.39 962.215C2149.39 962.215 2149.39 962.215 2149.39 962.215ZM2191.26 970.887C2191.26 970.887 2191.26 970.887 2191.26 970.887L2191.26 970.887C2191.26 970.887 2191.26 970.887 2191.26 970.887ZM2154.33 955.415 2190.99 970.884 2190.99 970.884 2154.33 955.415ZM2277.35 987.203C2277.37 987.205 2277.38 987.208 2277.39 987.208L2277.39 987.208C2277.38 987.208 2277.37 987.205 2277.35 987.203 2277.32 987.2 2277.28 987.195 2277.25 987.19L2277.24 987.19C2277.28 987.195 2277.32 987.2 2277.35 987.203ZM2241.65 986.074C2241.69 986.079 2241.74 986.084 2241.78 986.089 2241.81 986.092 2241.85 986.097 2241.88 986.099L2241.88 986.099C2241.85 986.097 2241.81 986.092 2241.78 986.089 2241.73 986.084 2241.69 986.077 2241.64 986.072ZM2115.71 981.63C2115.72 981.633 2115.73 981.633 2115.74 981.635L2115.74 981.635C2115.73 981.633 2115.72 981.633 2115.71 981.63 2115.69 981.628 2115.67 981.625 2115.65 981.625L2115.65 981.625C2115.67 981.625 2115.69 981.628 2115.71 981.63ZM2123.16 982.757C2123.16 982.757 2123.15 982.757 2123.14 982.754 2123.13 982.754 2123.13 982.754 2123.12 982.752ZM2114.88 983.844 2109.24 1008.67 2114.88 983.844ZM2109.32 1009.44 2143.89 1086.25 2143.89 1086.25 2143.89 1086.25 2143.89 1086.25 2143.89 1086.25 2128.4 1088.73 2143.89 1086.25 2143.89 1086.25 2109.32 1009.44ZM2285.71 1100.93 2271.03 1142.49 2285.71 1100.93ZM2247.34 1115.23 2235.19 1117.73 2230.22 1140.39 2235.19 1117.73 2235.19 1117.73 2247.34 1115.23ZM1946.56 1048 1925.73 1073.36 1924.07 1108.65 1925.73 1073.36 1925.73 1073.36 1925.73 1073.36 1925.73 1073.36 1946.56 1048ZM1883.26 1108C1882.63 1107.93 1881.99 1107.86 1881.36 1107.78 1880.86 1107.73 1880.37 1107.67 1879.87 1107.61L1879.87 1107.61C1880.37 1107.67 1880.86 1107.73 1881.36 1107.78 1881.99 1107.86 1882.63 1107.93 1883.26 1108ZM2154.38 958.078 2192.05 973.973C2192.16 974.021 2192.27 974.049 2192.38 974.062 2192.51 974.077 2192.64 974.072 2192.76 974.047L2192.77 974.047C2209 980.372 2225.37 986.594 2241.27 988.481 2241.35 988.491 2241.42 988.499 2241.5 988.509 2248.86 989.364 2256.1 989.295 2262.6 989.237 2268.06 989.186 2272.95 989.143 2277.07 989.622 2277.11 989.627 2277.14 989.63 2277.18 989.635 2279.15 989.869 2280.91 990.221 2282.44 990.736 2284.71 991.499 2286.51 992.636 2287.93 994.02L2287.93 994.02C2291.84 997.852 2292.97 1003.82 2292.23 1009.73 2291.43 1016.13 2288.45 1022.21 2282.96 1033.34 2281.59 1036.12 2280.07 1039.21 2278.4 1042.68 2270.13 1059.84 2258.19 1086.38 2246.23 1112.97L2246.23 1112.97 2233.92 1115.5C2233.45 1115.6 2233.08 1115.96 2232.97 1116.43L2227.95 1139.36 2227.95 1139.36C2220.46 1143.95 2212.95 1148.41 2198 1150.38L2198 1150.38C2182.95 1152.36 2160.4 1151.8 2137.55 1151.18L2137.55 1151.18 2129.95 1090.95 2129.95 1090.95 2145.85 1088.4C2146.22 1088.34 2146.55 1088.11 2146.73 1087.77 2146.91 1087.44 2146.92 1087.04 2146.76 1086.69L2111.71 1008.81 2111.71 1008.81 2117.26 984.36 2117.26 984.36C2119.11 984.669 2120.98 984.963 2122.84 985.179 2128.53 985.841 2134.12 985.762 2138.57 983.058 2144.85 979.244 2148.61 970.323 2152.15 961.957L2152.15 961.957 2154.38 958.078ZM2127.38 1090.09 2135.14 1151.57 2135.14 1151.57 2127.38 1090.09ZM2135.92 1153.57C2135.92 1153.57 2135.92 1153.57 2135.92 1153.57 2135.92 1153.57 2135.92 1153.57 2135.92 1153.57ZM1839.66 1099.21C1839.66 1099.21 1839.66 1099.21 1839.66 1099.21L1839.65 1099.21 1843.23 1127.43 1843.23 1127.43 1847.72 1128.05 1843.23 1127.43 1843.23 1127.43 1843.23 1127.43 1843.23 1127.43 1843.23 1127.43 1839.65 1099.21 1839.65 1099.21 1839.65 1099.21ZM1924.88 1137.96C1924.88 1137.97 1924.89 1137.97 1924.89 1137.97L1924.89 1137.97C1924.88 1137.97 1924.88 1137.97 1924.88 1137.96 1924.87 1137.96 1924.86 1137.96 1924.86 1137.96L1924.86 1137.96C1924.86 1137.96 1924.87 1137.96 1924.88 1137.96ZM1923.49 1140.28 1922.94 1161.8 1922.94 1161.8 1858.92 1155.2 1858.92 1155.2 1854.44 1134.04 1854.44 1134.04 1923.49 1140.28ZM1857.76 1157.53C1857.76 1157.53 1857.77 1157.53 1857.77 1157.53 1857.77 1157.53 1857.77 1157.53 1857.78 1157.53L1857.78 1157.53C1857.77 1157.53 1857.77 1157.53 1857.77 1157.53 1857.77 1157.53 1857.76 1157.53 1857.76 1157.53ZM2299.14 1214.04 2299.14 1214.04C2299.14 1214.04 2299.14 1214.04 2299.14 1214.04L2299.14 1214.04C2299.14 1214.04 2299.14 1214.04 2299.14 1214.04L2299.14 1214.04 2298.91 1224.4 2299.14 1214.04ZM2298.44 1225.33 2298.22 1225.5 2298.44 1225.33ZM1930.94 1190.65C1930.97 1190.65 1931 1190.65 1931.03 1190.66L1931.03 1190.66C1931 1190.65 1930.97 1190.65 1930.94 1190.65 1930.91 1190.64 1930.87 1190.64 1930.84 1190.64 1930.87 1190.64 1930.91 1190.64 1930.94 1190.65ZM2198.88 1223.38C2198.96 1223.39 2199.04 1223.41 2199.11 1223.43L2199.11 1223.43C2199.04 1223.41 2198.96 1223.39 2198.88 1223.38 2198.8 1223.37 2198.72 1223.37 2198.64 1223.37L2198.64 1223.37C2198.72 1223.37 2198.8 1223.37 2198.88 1223.38ZM1852.89 1156.2 1848.76 1156.86 1848.76 1156.86 1855.12 1185.47 1848.76 1156.86 1848.76 1156.86 1848.76 1156.86 1848.76 1156.86 1848.76 1156.86 1852.89 1156.2ZM2196.3 1226.53 2172.56 1270.36 2172.56 1270.36 2142.7 1267.2 2142.7 1267.2 2137.92 1236.18 2137.91 1236.18C2148.43 1235.44 2158.99 1234.65 2169.01 1232.97 2178.47 1231.37 2187.43 1228.98 2196.3 1226.53ZM2141.5 1269.53C2141.5 1269.53 2141.49 1269.53 2141.49 1269.53 2141.49 1269.52 2141.49 1269.52 2141.49 1269.52ZM2317.17 1291.61C2319.18 1291.84 2321.21 1292.27 2323.22 1292.78L2323.22 1292.78C2321.21 1292.27 2319.18 1291.84 2317.17 1291.61 2315.52 1291.42 2313.89 1291.36 2312.3 1291.51L2312.3 1291.51C2313.89 1291.36 2315.52 1291.42 2317.17 1291.61ZM2328.24 1294.52 2329.68 1297.11 2329.68 1297.11 2328.24 1294.52ZM2232.91 1290.68C2232.91 1290.68 2232.91 1290.68 2232.91 1290.68 2232.91 1290.68 2232.91 1290.68 2232.91 1290.68ZM2294.2 1304.59 2294.2 1304.59C2294.2 1304.59 2294.2 1304.59 2294.2 1304.59L2294.2 1304.59C2294.2 1304.59 2294.2 1304.59 2294.2 1304.59ZM2307.7 1306.43C2309.27 1306.61 2310.81 1306.85 2312.32 1307.16L2312.32 1307.16C2310.81 1306.85 2309.27 1306.61 2307.7 1306.43 2305.9 1306.22 2304.05 1306.08 2302.19 1305.98L2302.18 1305.98C2304.05 1306.08 2305.89 1306.22 2307.7 1306.43ZM2295.13 1306.39C2295.13 1306.39 2295.13 1306.39 2295.13 1306.39 2295.13 1306.39 2295.12 1306.39 2295.12 1306.39ZM2139.39 1349.28C2139.57 1349.3 2139.75 1349.36 2139.91 1349.47 2139.75 1349.36 2139.57 1349.3 2139.39 1349.28 2139.2 1349.26 2139.01 1349.28 2138.84 1349.34L2138.84 1349.34C2139.01 1349.28 2139.2 1349.26 2139.39 1349.28ZM1932.01 1191.82 1936.33 1345.05 1936.33 1345.05 1932.01 1191.82ZM1936.33 1345.05 1936.33 1345.05C1936.33 1345.05 1936.33 1345.05 1936.33 1345.05L1936.33 1345.05 1936.33 1345.05ZM2072.05 1364.15C2072.05 1364.15 2072.05 1364.15 2072.05 1364.15L2072.05 1364.15C2072.05 1364.15 2072.05 1364.15 2072.05 1364.15ZM1929.61 1193.03 1933.9 1345.36 1933.9 1345.36C1930.44 1346.49 1927.09 1347.5 1923.74 1347.85 1920.32 1348.2 1916.86 1347.87 1913.28 1347.46 1913.25 1347.45 1913.22 1347.45 1913.2 1347.45L1913.19 1347.45C1905.31 1334.32 1897.47 1321.02 1889.66 1295.08L1889.66 1295.08C1881.77 1268.91 1873.93 1229.89 1866.08 1190.63L1866.07 1190.63 1929.61 1193.03ZM2252.08 1388.32C2252.08 1388.32 2252.08 1388.32 2252.08 1388.32L2252.08 1388.32C2252.08 1388.32 2252.08 1388.32 2252.08 1388.32L2252.08 1388.32C2252.08 1388.32 2252.08 1388.32 2252.08 1388.32ZM2249.79 1388.42C2250.06 1388.45 2250.33 1388.48 2250.6 1388.51L2250.59 1388.51C2250.32 1388.48 2250.05 1388.45 2249.79 1388.42 2249.56 1388.39 2249.33 1388.37 2249.11 1388.34L2249.1 1388.34C2249.33 1388.37 2249.56 1388.39 2249.79 1388.42ZM1913.4 1349.92 1913.4 1349.92C1913.32 1349.91 1913.25 1349.91 1913.18 1349.9L1913.18 1349.9C1913.18 1349.9 1913.18 1349.9 1913.18 1349.9L1913.18 1349.9C1913.25 1349.9 1913.32 1349.91 1913.4 1349.92ZM1912.46 1350.04C1912.46 1350.04 1912.46 1350.04 1912.46 1350.04 1912.46 1350.04 1912.46 1350.04 1912.46 1350.04ZM2051.52 1369.31C2051.55 1369.31 2051.58 1369.32 2051.61 1369.32L2051.61 1369.32C2051.58 1369.32 2051.55 1369.31 2051.52 1369.31 2051.48 1369.3 2051.45 1369.3 2051.42 1369.3L2051.42 1369.3C2051.45 1369.3 2051.48 1369.3 2051.52 1369.31ZM2003.16 1369.01C2003.19 1369.01 2003.21 1369.01 2003.23 1369.02L2003.23 1369.02C2003.21 1369.01 2003.19 1369.01 2003.16 1369.01 2003.14 1369.01 2003.12 1369 2003.1 1369 2003.12 1369 2003.14 1369.01 2003.16 1369.01ZM2048.72 1371.8 2029.17 1395.29 2029.17 1395.29 2016.19 1372.66 2016.19 1372.66 2048.72 1371.8ZM2028.85 1398.63C2028.84 1398.63 2028.84 1398.63 2028.84 1398.63 2028.84 1398.63 2028.84 1398.63 2028.84 1398.63ZM2114.45 1411.78 2114.45 1411.78C2114.45 1411.78 2114.45 1411.78 2114.45 1411.78L2114.45 1411.78C2114.45 1411.78 2114.45 1411.78 2114.45 1411.78ZM2114.57 1413.38 2114.49 1413.48 2114.49 1413.48 2114.57 1413.38ZM2028.9 1419.54C2028.9 1419.54 2028.91 1419.54 2028.91 1419.54L2028.91 1419.54C2028.91 1419.54 2028.9 1419.54 2028.9 1419.54 2028.89 1419.54 2028.89 1419.54 2028.89 1419.54L2028.89 1419.54C2028.89 1419.54 2028.89 1419.54 2028.9 1419.54ZM2072.43 1366.7 2098.15 1371.63 2098.15 1371.63 2117.82 1379.56 2117.82 1379.56 2066.01 1450.16 2066.01 1450.16 2039.5 1411.04 2072.43 1366.7ZM2119.96 1380.77C2119.96 1380.77 2119.96 1380.77 2119.96 1380.77L2119.95 1380.77 2066.95 1452.99 2119.95 1380.77 2119.95 1380.77 2119.95 1380.77ZM2065.83 1453.48 2065.83 1453.48C2065.83 1453.48 2065.83 1453.48 2065.83 1453.48 2065.83 1453.48 2065.83 1453.48 2065.83 1453.48ZM2160.42 1465.85C2160.4 1465.85 2160.38 1465.85 2160.37 1465.85 2160.35 1465.85 2160.33 1465.84 2160.31 1465.84ZM2112.02 1412.7 2070.28 1467.76 2070.28 1467.76 2112.02 1412.7ZM2002.22 1371.39 2016.4 1402.55 1977.44 1461.11 1977.44 1461.11 1924.23 1366.83 1924.23 1366.83 2002.22 1371.39ZM1977.22 1464.65C1977.22 1464.65 1977.21 1464.65 1977.21 1464.65 1977.21 1464.65 1977.21 1464.65 1977.2 1464.65ZM2059.7 1475.53C2059.72 1475.54 2059.74 1475.54 2059.76 1475.54L2059.76 1475.54C2059.74 1475.54 2059.72 1475.54 2059.7 1475.53 2059.69 1475.53 2059.67 1475.53 2059.65 1475.53L2059.65 1475.53C2059.67 1475.53 2059.69 1475.53 2059.7 1475.53ZM2307.94 1512.47C2307.94 1512.47 2307.94 1512.47 2307.94 1512.47L2307.94 1512.47C2307.94 1512.47 2307.94 1512.47 2307.94 1512.47ZM1922.59 1396.18 1968.11 1475.4 1968.11 1475.4 1922.59 1396.18ZM1973.52 1487.33C1973.54 1487.33 1973.55 1487.33 1973.56 1487.33L1973.56 1487.33C1973.55 1487.33 1973.54 1487.33 1973.52 1487.33 1973.51 1487.33 1973.49 1487.33 1973.48 1487.33 1973.49 1487.33 1973.51 1487.33 1973.52 1487.33ZM2028.59 1422.81 2054.21 1464.31 2010.55 1516.15 2010.55 1516.15 1982.66 1475.97 1982.66 1475.97 2028.59 1422.81ZM2010.32 1519.37C2010.32 1519.37 2010.32 1519.37 2010.31 1519.36 2010.31 1519.36 2010.31 1519.36 2010.31 1519.36ZM2005.22 1543.62C2005.24 1543.62 2005.25 1543.63 2005.27 1543.63L2005.27 1543.63C2005.25 1543.63 2005.23 1543.62 2005.22 1543.62 2005.2 1543.62 2005.18 1543.62 2005.16 1543.62 2005.18 1543.62 2005.2 1543.62 2005.22 1543.62ZM2511.8 1615.87C2513.93 1616.12 2515.9 1616.46 2517.68 1616.92L2517.68 1616.92C2515.9 1616.46 2513.93 1616.12 2511.8 1615.87 2509.51 1615.61 2507.04 1615.45 2504.42 1615.38L2504.42 1615.38C2507.04 1615.45 2509.51 1615.61 2511.8 1615.87ZM2211.87 1566.26 2202.77 1567.88 2202.77 1567.88 2201.87 1581.22 2202.77 1567.88 2202.77 1567.88 2202.77 1567.88 2202.77 1567.88 2202.77 1567.88 2211.87 1566.26ZM2308.27 1517.97 2340.93 1596.44 2340.93 1596.44 2294.92 1592.18 2294.92 1592.18 2308.27 1517.97ZM2293.35 1594.48C2293.35 1594.48 2293.35 1594.48 2293.35 1594.48 2293.35 1594.47 2293.34 1594.47 2293.34 1594.47ZM2476.73 1616.41 2476.73 1616.41C2476.73 1616.41 2476.73 1616.41 2476.73 1616.41 2476.73 1616.41 2476.73 1616.41 2476.73 1616.41ZM2405.44 1657.58C2405.44 1657.58 2405.44 1657.58 2405.44 1657.58L2405.44 1657.58C2405.44 1657.58 2405.44 1657.58 2405.44 1657.58ZM2405.63 1657.6C2406.52 1657.7 2407.41 1657.81 2408.29 1657.91 2408.78 1657.97 2409.27 1658.03 2409.76 1658.08L2409.77 1658.08C2409.28 1658.03 2408.79 1657.97 2408.29 1657.91 2407.4 1657.81 2406.51 1657.7 2405.63 1657.6ZM1999.86 1535.26 1943.9 1602.98 1943.9 1602.98 1949.56 1604.1 1949.56 1604.1 1955.88 1605.36 1955.88 1605.36 2004.12 1544.08 1955.88 1605.36 1955.88 1605.36 1955.88 1605.36 1955.88 1605.36 1955.88 1605.36 1955.88 1605.36 1949.56 1604.1 1949.56 1604.1 1943.9 1602.98 1943.9 1602.98 1943.9 1602.98 1943.9 1602.98 1943.9 1602.98 1999.86 1535.26ZM2070.2 1469.1 2163.18 1630.05 2163.18 1630.05 2163.18 1630.05 2163.18 1630.05 2163.18 1630.05 2151.12 1630.94 2060.61 1476.13 2151.12 1630.94 2163.18 1630.05 2163.18 1630.05 2070.2 1469.1ZM2340.23 1653.32C2340.26 1653.32 2340.29 1653.33 2340.32 1653.33L2340.32 1653.33C2340.29 1653.33 2340.26 1653.32 2340.23 1653.32 2340.18 1653.31 2340.12 1653.31 2340.07 1653.31L2340.06 1653.31C2340.12 1653.31 2340.18 1653.31 2340.23 1653.32ZM2341.25 1653.79C2341.25 1653.79 2341.25 1653.79 2341.25 1653.79L2341.25 1653.79C2341.25 1653.79 2341.25 1653.79 2341.25 1653.79ZM2338.71 1655 2338.71 1655C2338.71 1655 2338.71 1655 2338.71 1655L2338.71 1655C2338.71 1655 2338.71 1655 2338.71 1655ZM2405.07 1657.59 2371.41 1663.86 2371.41 1663.86 2405.07 1657.59ZM2371.41 1663.86C2371.41 1663.86 2371.41 1663.86 2371.41 1663.86L2371.41 1663.86C2371.41 1663.86 2371.41 1663.86 2371.41 1663.86ZM2349.8 1662.94 2349.8 1662.94C2349.79 1662.94 2349.78 1662.94 2349.77 1662.94 2349.76 1662.94 2349.75 1662.94 2349.74 1662.94ZM2248.61 1655.3C2248.61 1655.3 2248.61 1655.3 2248.61 1655.3L2248.61 1655.3C2248.61 1655.3 2248.61 1655.3 2248.61 1655.3L2248.61 1655.3C2248.61 1655.3 2248.61 1655.3 2248.61 1655.3ZM2222.2 1656.74 2222.2 1656.74C2222.19 1656.73 2222.17 1656.73 2222.16 1656.73 2222.14 1656.73 2222.13 1656.73 2222.12 1656.73ZM2293.9 1667.08 2293.9 1667.08C2293.88 1667.07 2293.86 1667.07 2293.84 1667.07 2293.82 1667.07 2293.8 1667.07 2293.78 1667.06ZM1967.99 1476.78 1849.81 1618.4 1849.81 1618.4 1863.75 1624.38 1863.75 1624.38 1972.43 1487.78 1863.75 1624.38 1863.75 1624.38 1863.75 1624.38 1863.75 1624.38 1863.75 1624.38 1849.81 1618.4 1849.81 1618.4 1849.81 1618.4 1849.81 1618.4 1849.81 1618.4 1967.99 1476.78ZM2015.41 1534.91 2083.66 1649.93 2083.66 1649.93 2083.66 1649.93 2083.66 1649.93 2083.66 1649.93 2074.61 1652.7 2074.61 1652.7 2071 1653.8 2071 1653.8 2071 1653.8 2071 1653.8 2071 1653.8 2006.12 1544.21 2071 1653.8 2071 1653.8 2074.61 1652.7 2074.61 1652.7 2083.66 1649.93 2083.66 1649.93 2015.41 1534.91ZM2133.56 800.607C2132.98 800.538 2132.38 800.477 2131.78 800.419 2109.47 798.324 2070.65 803.643 2050.82 826.307 2031.1 848.862 2030.54 888.33 2029.99 927.107L2029.98 927.105 2019.95 945.6 2019.95 945.6C2004.25 959.745 1988.68 973.763 1978.7 980.631 1975.85 982.599 1973.45 983.979 1971.34 985.191 1966.04 988.242 1962.55 990.254 1959.04 997.518L1959.04 997.518C1954.31 1007.35 1949.38 1027.1 1944.5 1046.67L1944.5 1046.67 1923.59 1072.12C1923.43 1072.32 1923.33 1072.57 1923.32 1072.84L1921.67 1107.81 1921.67 1107.81C1907.92 1107.33 1894.26 1106.83 1881.64 1105.36 1880.27 1105.2 1878.9 1105.03 1877.55 1104.85 1863.6 1102.95 1851.1 1099.69 1838.53 1096.4 1838.47 1096.39 1838.41 1096.38 1838.36 1096.37 1838.02 1096.33 1837.68 1096.44 1837.42 1096.67 1837.11 1096.93 1836.96 1097.33 1837.01 1097.73L1840.92 1128.66C1840.99 1129.2 1841.42 1129.63 1841.96 1129.71L1846.52 1130.35 1846.52 1130.35 1851.25 1153.99 1851.25 1153.99 1847.1 1154.66C1846.77 1154.71 1846.47 1154.9 1846.29 1155.18 1846.1 1155.46 1846.03 1155.8 1846.1 1156.13L1852.74 1185.99 1852.74 1185.99C1859.19 1223.92 1865.67 1261.96 1876.96 1297.21 1888.26 1332.48 1904.36 1364.92 1920.42 1397.27L1920.45 1397.33 1965.57 1475.87 1965.57 1475.87 1847.33 1617.58 1847.33 1617.58C1846.95 1617.65 1846.62 1617.91 1846.45 1618.29 1846.19 1618.9 1846.48 1619.62 1847.09 1619.89L1863.64 1626.99C1863.75 1627.03 1863.87 1627.06 1863.98 1627.08 1864.39 1627.12 1864.81 1626.96 1865.07 1626.62L1973.2 1490.72 1973.2 1490.72 1997.45 1534.35 1997.45 1534.35 1940.73 1603C1940.46 1603.33 1940.38 1603.78 1940.52 1604.18 1940.66 1604.58 1941.01 1604.88 1941.43 1604.96L1956.14 1607.9C1956.17 1607.9 1956.2 1607.91 1956.23 1607.91 1956.65 1607.96 1957.07 1607.79 1957.33 1607.46L2004.93 1546.98 2004.93 1546.98 2069.39 1655.86C2069.59 1656.2 2069.93 1656.41 2070.3 1656.45 2070.46 1656.47 2070.63 1656.46 2070.79 1656.41L2085.85 1651.81C2086.21 1651.7 2086.5 1651.43 2086.64 1651.08 2086.77 1650.73 2086.74 1650.34 2086.55 1650.02L2017.92 1534.36 2017.92 1534.36 2059.44 1478.94 2059.44 1478.94 2149.4 1632.82C2149.59 1633.16 2149.93 1633.37 2150.31 1633.42 2150.39 1633.43 2150.46 1633.43 2150.54 1633.42L2165.3 1632.33C2165.72 1632.3 2166.09 1632.06 2166.28 1631.69 2166.48 1631.32 2166.47 1630.87 2166.26 1630.51L2072.72 1468.59 2112.26 1416.43 2112.26 1416.43C2113.84 1432.75 2122.66 1448.52 2134.53 1457.96L2134.53 1457.96C2135.76 1458.93 2137.02 1459.84 2138.31 1460.67L2138.31 1460.67C2145.08 1465.06 2152.59 1467.4 2160.07 1468.27 2169.83 1469.4 2179.53 1468.04 2187.45 1465.49 2201.59 1460.94 2210.25 1452.53 2217.14 1438.87 2220.36 1432.49 2223.2 1424.95 2225.86 1417.89 2228.89 1409.86 2231.66 1402.51 2234.53 1397.89 2238.97 1390.72 2243.53 1390.24 2248.46 1390.72L2248.47 1390.72C2244.27 1394.23 2240.29 1398.82 2237.96 1409.08L2237.96 1409.08C2237.55 1410.86 2237.2 1412.8 2236.87 1414.9 2236.07 1420.14 2235.45 1426.41 2234.73 1433.63 2233.75 1443.57 2232.59 1455.36 2230.51 1468.86 2226.35 1495.92 2218.52 1529.9 2210.66 1564L2210.65 1564 2201.4 1565.65C2200.85 1565.75 2200.44 1566.21 2200.4 1566.77L2199.47 1580.52 2199.47 1580.52C2189.23 1588.54 2178.81 1596.78 2172.9 1606.99 2166.91 1617.37 2165.45 1630.07 2174.69 1639.86 2183.7 1649.42 2202.75 1655.92 2216.62 1658.37 2218.45 1658.7 2220.2 1658.96 2221.88 1659.15 2225.24 1659.54 2228.32 1659.69 2231.19 1659.67 2237.67 1659.61 2243.08 1658.68 2248.38 1657.76L2248.39 1657.76C2264.02 1662.8 2279.83 1667.89 2293.57 1669.49 2296.58 1669.84 2299.5 1670.02 2302.29 1670L2302.29 1670C2302.44 1670 2302.59 1670 2302.74 1669.99L2302.74 1669.99C2316.94 1669.76 2327.85 1664.14 2338.23 1658.1L2338.23 1658.1C2338.19 1660.46 2339.18 1662.77 2343.21 1664.12 2344.84 1664.67 2347 1665.07 2349.53 1665.36 2355.53 1666.06 2363.61 1666.17 2371.5 1666.3 2371.58 1666.3 2371.66 1666.29 2371.74 1666.27L2405.34 1660.02 2405.34 1660.02C2406.26 1660.13 2407.17 1660.23 2408.09 1660.34 2426.68 1662.5 2445.48 1664.46 2465.84 1662.01 2487.19 1659.45 2510.42 1652.02 2521.98 1642.8L2521.98 1642.8C2523.17 1641.85 2524.24 1640.89 2525.19 1639.9 2532.16 1632.7 2532.85 1624.52 2527.31 1619.16L2527.31 1619.16C2526.22 1618.11 2524.91 1617.18 2523.39 1616.42L2523.39 1616.42C2520.38 1614.9 2516.5 1613.98 2512.04 1613.46 2502.2 1612.32 2489.55 1613.15 2477.17 1613.96L2477.17 1613.96 2422.63 1581.53 2422.63 1581.53 2401.41 1532.8 2401.4 1532.8C2381.12 1462.94 2360.81 1393.02 2347.56 1354.99 2334.33 1317.08 2328 1310.43 2320.11 1307.03 2316.28 1305.37 2312.17 1304.5 2307.95 1304.01 2304.81 1303.64 2301.62 1303.49 2298.45 1303.39L2298.45 1303.39C2302.11 1299.28 2305.67 1295.78 2309.76 1294.49 2311.95 1293.8 2314.32 1293.73 2316.85 1294.02 2319.83 1294.37 2323.03 1295.22 2326.37 1296.14L2326.36 1296.14 2330.98 1304.51C2331.18 1304.87 2331.53 1305.09 2331.91 1305.13 2332.09 1305.15 2332.27 1305.14 2332.45 1305.07 2333.01 1304.88 2333.35 1304.31 2333.25 1303.73 2330.66 1288.08 2328.05 1272.33 2323.83 1258.74 2319.6 1245.13 2313.76 1233.73 2309.36 1225.91L2309.36 1225.91C2304.96 1218.09 2301.97 1213.81 2299 1209.57 2298.79 1209.27 2298.48 1209.09 2298.14 1209.05 2297.98 1209.04 2297.81 1209.05 2297.65 1209.1 2297.14 1209.25 2296.79 1209.71 2296.78 1210.23L2296.48 1223.77 2296.48 1223.77C2283.88 1233.63 2271.24 1243.55 2260.53 1254.34 2249.87 1265.08 2241.14 1276.66 2232.5 1288.17L2232.5 1288.17 2224.65 1287.18 2224.65 1287.18 2259.42 1200.52 2259.41 1200.52C2267.25 1201.2 2276.4 1202 2279.08 1197.89 2280.8 1195.24 2279.6 1190.93 2278.76 1187.63 2278.14 1185.19 2277.6 1183.04 2277.67 1181.38 2277.76 1179.01 2279.12 1177.56 2280.54 1176.1 2281.32 1175.3 2282.42 1174.23 2282.67 1172.93 2282.98 1171.27 2281.86 1169.59 2281.09 1168.34 2280.15 1166.8 2279.22 1165.26 2278.98 1163.44L2278.98 1163.44C2278.73 1161.55 2279.2 1159.26 2279.73 1156.76 2280.2 1154.59 2280.72 1152.19 2280.49 1150.18 2280.2 1147.64 2278.74 1145.87 2277 1144.5 2275.98 1143.69 2274.81 1142.99 2273.67 1142.34L2273.67 1142.33 2288.02 1101.69 2288.03 1101.65C2302.84 1054.1 2318.09 1005.49 2306.67 983.903 2305 980.735 2302.76 978.148 2300.1 976.045 2294.18 971.384 2286.17 969.122 2277.52 968.117 2267.48 966.95 2256.59 967.478 2247.16 967.919 2243.04 968.112 2239.19 968.292 2235.74 968.327 2231.41 968.371 2227.72 968.183 2224.56 967.815 2215.24 966.732 2210.4 964.084 2206.65 961.127 2205.62 960.313 2204.66 959.471 2203.7 958.606L2203.7 958.606C2203.6 958.408 2203.44 958.235 2203.24 958.111L2203.01 957.972 2203 957.972C2202.89 957.868 2202.76 957.792 2202.63 957.741L2202.62 957.741 2168.83 937.374 2168.83 937.374 2175.68 937.653C2176.03 937.666 2176.37 937.529 2176.61 937.278 2176.85 937.027 2176.97 936.685 2176.94 936.337L2174.81 910.393 2176.06 886.096 2176.06 886.096C2177.79 877.33 2179.6 868.22 2177.05 859.17 2174.62 850.539 2168.23 842.063 2161.88 833.82L2161.87 833.82C2163.61 830.157 2165.1 826.044 2163.11 819.578 2162.04 816.099 2159.94 811.881 2155.31 808.251 2150.79 804.718 2143.97 801.817 2133.56 800.607Z" fill-rule="evenodd"/><path d="M1913.09 1353.25 1913.09 1353.25C1908.14 1253.24 1903.04 1151.11 1911.61 1090.27L1911.61 1090.27C1920.55 1026.8 1944.62 1006.15 1967.71 986.875 1972.95 982.5 1980.74 983.196 1985.12 988.433 1989.5 993.668 1988.8 1001.46 1983.56 1005.84L1983.56 1005.84C1963.24 1022.81 1943.89 1038.41 1936.1 1093.71L1936.1 1093.71C1927.94 1151.63 1932.78 1250.78 1937.79 1352.04 1938.13 1358.85 1932.87 1364.65 1926.05 1364.98 1919.23 1365.32 1913.43 1360.07 1913.09 1353.25Z" fill-rule="evenodd"/></g></svg>