<svg width="1113" height="1706" xmlns="http://www.w3.org/2000/svg" xmlns:xlink="http://www.w3.org/1999/xlink" xml:space="preserve" overflow="hidden"><defs><clipPath id="clip0"><rect x="1286" y="495" width="1113" height="1706"/></clipPath></defs><g clip-path="url(#clip0)" transform="translate(-1286 -495)"><path d="M1717.79 495C1692.94 498.178 1685.99 501.355 1672.07 514.065 1654.68 533.131 1633.81 581.249 1612.95 654.333 1602.51 692.918 1599.03 711.984 1595.56 731.049 1588.6 753.292 1581.64 785.068 1581.64 801.41 1581.64 807.765 1578.17 817.298 1578.17 823.653 1570.71 877.672 1570.71 877.672 1574.19 916.257 1578.17 967.098 1578.17 982.986 1581.64 995.696 1584.62 1021.12 1588.6 1043.81 1584.62 1072.41 1584.62 1088.3 1584.62 1101.01 1581.64 1104.19 1581.64 1110.54 1578.17 1123.25 1581.64 1123.25 1581.64 1123.25 1581.64 1123.25 1581.64 1123.25 1581.64 1123.25 1588.6 1101.01 1588.6 1097.83 1592.08 1094.66 1592.08 1101.01 1592.08 1107.37 1592.08 1120.08 1595.56 1113.72 1595.56 1101.01 1595.56 1091.48 1599.03 1078.77 1599.03 1069.23 1599.03 1056.52 1599.03 1046.99 1599.03 1034.28 1599.03 1024.75 1595.56 1005.23 1595.56 992.519 1595.56 979.808 1592.08 960.743 1592.08 951.21 1592.08 941.677 1588.6 925.789 1588.6 919.434 1588.6 906.27 1592.08 896.737 1595.56 899.915 1595.56 903.546 1599.03 925.789 1602.51 957.565 1602.51 986.163 1605.99 1024.75 1609.47 1034.28 1609.47 1040.64 1609.47 1053.35 1609.47 1062.88 1609.47 1072.41 1612.95 1091.48 1612.95 1104.19 1616.42 1126.43 1616.42 1132.79 1612.95 1142.32 1612.95 1145.95 1612.95 1158.66 1612.95 1168.19L1609.47 1184.08 1599.03 1193.61C1595.56 1199.97 1588.6 1206.32 1588.6 1206.32 1588.6 1206.32 1584.62 1209.5 1581.64 1212.68 1578.17 1215.86 1574.19 1219.03 1574.19 1219.03 1574.19 1222.21 1578.17 1219.03 1588.6 1209.5 1595.56 1206.32 1602.51 1203.15 1605.99 1203.15 1609.47 1203.15 1609.47 1203.15 1609.47 1209.5 1605.99 1219.03 1605.99 1219.03 1592.08 1241.28 1570.71 1276.23 1560.28 1289.4 1542.89 1324.35 1525.5 1356.12 1525.5 1356.12 1522.02 1356.12 1518.54 1356.12 1511.58 1359.3 1504.63 1359.3 1497.67 1359.3 1490.72 1362.48 1490.72 1362.48 1487.24 1365.66 1483.76 1368.84 1483.76 1375.19L1480.28 1382 1487.24 1404.24 1497.67 1426.49 1504.63 1426.49C1508.11 1426.49 1511.58 1426.49 1515.06 1429.66 1515.06 1432.84 1518.54 1432.84 1518.54 1436.02 1518.54 1439.2 1497.67 1464.62 1480.28 1480.5 1462.89 1499.57 1441.53 1528.62 1441.53 1528.62 1441.53 1531.8 1445.5 1534.98 1445.5 1538.15 1448.48 1541.33 1451.96 1547.69 1451.96 1554.04 1455.94 1560.4 1459.41 1569.93 1466.37 1576.29 1476.8 1589 1480.28 1595.35 1480.28 1604.88 1480.28 1611.24 1466.37 1640.29 1455.94 1656.18 1451.96 1665.71 1445.5 1675.24 1445.5 1684.78 1441.53 1694.31 1438.05 1703.84 1434.57 1710.2 1434.57 1716.55 1431.09 1726.09 1427.61 1729.26 1424.14 1738.8 1424.14 1742.43 1413.7 1755.14 1399.79 1774.2 1389.36 1783.74 1389.36 1786.91 1389.36 1790.09 1392.83 1793.27 1392.83 1796.45 1396.31 1799.62 1399.79 1802.8 1399.79 1805.98 1399.79 1812.33 1382.4 1834.58 1358.05 1869.53 1344.14 1889.05 1323.27 1917.65 1312.34 1933.54 1294.95 1962.14 1294.95 1965.31 1291.47 1978.02 1284.52 1997.54 1284.52 1997.54 1298.43 2000.72 1305.38 2003.9 1308.86 2003.9 1312.34 2010.25 1323.27 2019.79 1326.75 2019.79 1344.14 2022.96 1351.1 2026.14 1358.05 2026.14 1365.01 2032.5 1382.4 2042.03 1389.36 2048.38 1399.79 2057.92 1403.27 2064.27 1410.22 2070.63 1410.22 2070.63 1413.7 2070.63 1417.18 2076.98 1424.14 2083.34 1445.5 2118.74 1445.5 2118.74 1466.37 2112.39 1476.8 2109.21 1483.76 2109.21 1494.19 2115.57 1501.15 2115.57 1518.54 2128.28 1522.02 2131.46 1525.5 2134.63 1535.93 2137.81 1539.41 2137.81 1539.41 2137.81 1539.41 2131.46 1539.41 2121.92 1535.93 2112.39 1535.93 2112.39 1553.32 2112.39 1570.71 2112.39 1570.71 2112.39 1581.64 2125.1 1588.6 2137.81 1592.08 2140.99 1595.56 2140.99 1595.56 2140.99 1602.51 2137.81 1605.99 2131.46 1609.47 2128.28 1616.42 2121.92 1616.42 2121.92 1619.9 2118.74 1619.9 2118.74 1626.86 2121.92 1630.34 2121.92 1637.29 2128.28 1644.25 2134.63 1654.68 2144.17 1661.64 2144.17 1665.12 2140.99 1672.07 2137.81 1675.55 2137.81 1675.55 2140.99 1675.55 2140.99 1675.55 2147.34 1672.07 2160.05L1668.6 2166.41 1672.07 2172.76C1675.55 2179.12 1679.03 2182.3 1696.42 2175.94 1710.33 2175.94 1717.79 2172.76 1738.65 2175.94 1776.91 2182.3 1822.13 2185.47 1843 2188.65 1860.88 2188.65 1874.8 2191.83 1885.23 2195.01 1895.67 2201.36 1902.62 2201.36 1902.62 2198.18 1902.62 2195.01 1909.58 2191.83 1920.01 2185.47 1933.92 2175.94 1937.4 2172.76 1951.31 2163.23 1958.27 2160.05 1961.75 2160.05 1972.68 2169.59 1979.14 2179.12 1983.11 2182.3 1990.07 2175.94 2000.5 2172.76 2000.5 2169.59 2003.98 2163.23 2007.46 2156.88 2014.42 2147.34 2021.37 2147.34 2021.37 2144.17 2028.33 2144.17 2035.29 2140.99 2045.72 2137.81 2066.59 2128.28 2094.91 2115.57 2108.82 2105.58 2111.8 2105.58 2129.69 2112.39 2136.65 2115.57 2143.6 2115.57 2147.08 2115.57 2147.08 2115.57 2154.04 2112.39 2160.99 2109.21 2167.95 2105.58 2178.38 2102.4 2178.38 2102.4 2178.38 2102.4 2181.86 2105.58 2185.34 2105.58 2192.3 2112.39 2195.77 2112.39 2209.69 2109.21 2216.64 2105.58 2220.12 2102.4 2227.08 2096.05 2234.03 2089.69 2238.01 2086.51 2251.92 2083.34 2269.31 2076.98 2276.27 2070.63 2290.18 2057.92 2297.14 2051.56 2300.61 2042.03 2304.09 2038.85 2307.57 2032.5 2307.57 2029.32 2311.05 2029.32 2311.05 2029.32 2318 2029.32 2324.96 2026.14 2338.87 2026.14 2338.87 2026.14 2342.35 2019.79 2345.83 2016.61 2349.31 2016.61 2363.72 2016.61 2381.11 2010.25 2384.58 2010.25 2388.06 2003.9 2395.02 1991.19 2395.02 1991.19 2391.54 1981.2L2388.06 1974.85 2391.54 1962.14C2395.02 1958.96 2398.5 1952.6 2398.5 1949.42 2398.5 1946.25 2391.54 1930.36 2384.58 1927.18 2381.11 1924 2381.11 1924 2377.63 1924L2370.18 1927.18 2356.26 1911.29C2342.35 1901.76 2335.39 1895.41 2321.48 1885.87 2307.57 1879.52 2297.14 1869.53 2297.14 1869.53 2290.18 1863.63 2286.7 1860 2265.83 1850.47 2251.92 1847.29 2248.44 1844.11 2244.96 1809.16 2241.49 1790.09 2241.49 1786.91 2234.03 1786.91L2227.08 1790.09 2216.64 1767.85C2188.82 1722.91 2188.82 1722.91 2167.95 1700.67 2157.52 1691.13 2140.12 1672.07 2133.17 1662.53 2129.69 1656.18 2129.69 1656.18 2133.17 1649.82 2133.17 1640.29 2136.65 1637.11 2147.08 1633.48 2157.52 1627.58 2160.99 1623.95 2167.95 1614.42 2167.95 1611.24 2174.91 1604.88 2174.91 1601.71 2181.86 1592.17 2181.86 1589 2178.38 1585.82 2178.38 1582.64 2174.91 1579.46 2174.91 1573.11 2171.43 1560.4 2164.47 1550.87 2143.6 1541.33 2140.12 1538.15 2136.65 1534.98 2129.69 1528.62 2126.21 1525.44 2111.8 1509.56 2097.89 1493.21 2080.5 1480.5 2070.07 1467.79 2070.07 1467.79 2070.07 1467.79 2070.07 1464.62 2073.54 1461.44 2073.54 1458.26 2077.02 1458.26 2077.02 1451.91 2077.02 1429.66 2063.11 1407.42 2031.81 1362.48 2007.46 1327.53 2000.5 1317.99 2003.98 1308.46 2003.98 1305.28 2007.46 1298.93 2007.46 1295.75 2021.37 1257.17 2017.89 1247.63 2000.5 1234.92 1993.55 1231.75 1983.11 1228.57 1975.66 1222.21 1961.75 1215.86 1954.79 1209.5 1944.36 1193.61 1937.4 1184.08 1930.45 1177.73 1920.01 1171.37 1906.1 1158.66 1885.23 1139.14 1881.75 1129.61 1874.8 1123.25 1874.8 1123.25 1871.32 1094.66 1864.36 1030.65 1860.88 1011.58 1864.36 986.163 1867.84 963.92 1878.27 935.322 1881.75 935.322 1881.75 935.322 1885.23 938.5 1888.71 941.677 1902.62 948.032 1926.97 963.92 1940.88 970.276 1954.79 976.631 1954.79 976.631 1958.27 976.631 1968.7 973.453 1983.11 954.388 2000.5 932.145 2007.46 919.434 2014.42 909.448 2017.89 909.448 2017.89 909.448 2021.37 909.448 2024.85 909.448 2031.81 913.079 2035.29 913.079 2038.76 909.448 2049.2 909.448 2049.2 909.448 2059.63 922.612 2066.59 932.145 2070.07 932.145 2077.02 928.967 2080.5 928.967 2083.98 928.967 2087.46 932.145 2094.91 938.5 2094.91 938.5 2101.37 922.612 2105.34 909.448 2105.34 903.546 2101.37 890.382 2097.89 877.672 2090.93 871.317 2073.54 861.784 2052.68 849.073 2049.2 845.896 2052.68 845.896 2052.68 842.718 2059.63 836.363 2066.59 823.653 2073.54 814.12 2080.5 804.587 2087.46 798.232 2101.37 788.699 2101.37 788.699 2111.8 795.055 2119.26 798.232 2126.21 801.41 2126.21 801.41 2129.69 801.41 2129.69 801.41 2133.17 798.232 2133.17 798.232 2136.65 791.877 2140.12 788.699 2143.6 785.068 2147.08 781.89 2147.08 775.535 2147.08 772.358 2147.08 769.18 2143.6 766.002 2136.65 762.825 2136.65 762.825 2126.21 762.825 2119.26 766.002 2119.26 766.002 2115.78 762.825 2111.8 762.825 2108.82 759.647 2108.82 759.647 2105.34 759.647 2105.34 756.47 2108.82 750.115 2111.8 746.937 2111.8 743.759 2108.82 740.582 2105.34 737.404 2097.89 734.227 2083.98 731.049L2073.54 727.871 2066.59 731.049 2063.11 734.227 2049.2 731.049C2042.24 727.871 2031.81 727.871 2028.33 724.694 2024.85 724.694 2021.37 724.694 2021.37 724.694 2017.89 724.694 2017.89 721.516 2017.89 721.516 2017.89 721.516 2007.46 718.339 2000.5 718.339 1997.03 715.161 1993.55 715.161 1993.55 715.161 1993.55 715.161 1986.59 711.984 1983.11 711.984 1975.66 711.984 1972.68 708.806 1972.68 708.806 1972.68 708.806 1968.7 708.806 1968.7 708.806 1961.75 708.806 1947.84 702.451 1944.36 699.273 1940.88 696.096 1937.4 692.918 1937.4 692.918 1937.4 689.74 1933.92 680.208 1933.92 683.385 1933.92 683.385 1933.92 686.563 1933.92 689.74 1937.4 696.096 1940.88 699.273 1937.4 699.273 1933.92 702.451 1923.49 692.918 1923.49 689.74 1923.49 689.74 1923.49 689.74 1923.49 689.74 1923.49 686.563 1923.49 689.74 1923.49 689.74 1923.49 696.096 1923.49 699.273 1916.53 699.273 1913.06 702.451 1913.06 702.451 1909.58 699.273 1906.1 699.273 1902.62 696.096 1902.62 692.918 1895.67 689.74 1888.71 686.563 1885.23 686.563 1881.75 686.563 1874.8 686.563 1867.84 689.74 1860.88 689.74 1853.93 689.74 1846.97 689.74L1836.54 689.74 1836.54 686.563C1836.54 683.385 1839.52 673.399 1839.52 660.688 1846.97 616.202 1846.97 600.314 1846.97 574.893 1843 562.183 1843 559.006 1846.97 562.183 1846.97 562.183 1846.97 562.183 1850.45 565.361 1850.45 568.538 1857.41 578.071 1857.41 574.893 1853.93 568.538 1853.93 562.183 1850.45 562.183 1850.45 562.183 1850.45 562.183 1850.45 559.006 1850.45 555.828 1846.97 552.65 1843 549.019 1839.52 543.118 1839.52 539.486 1839.52 539.486 1839.52 539.486 1836.54 536.309 1832.56 536.309 1829.08 536.309 1825.61 536.309 1825.61 533.131 1818.65 526.776 1804.74 517.243 1790.83 514.065 1773.44 501.355 1735.18 495 1717.79 495ZM1832.56 660.688C1832.56 663.866 1832.56 667.497 1829.08 673.399 1829.08 680.208 1825.61 686.563 1825.61 689.74 1825.61 692.918 1825.61 692.918 1818.65 692.918 1815.17 692.918 1815.17 692.918 1818.65 680.208 1822.13 677.03 1825.61 667.497 1829.08 663.866 1829.08 660.688 1832.56 657.511 1832.56 657.511 1836.54 657.511 1836.54 657.511 1832.56 660.688ZM1874.8 696.096C1878.27 696.096 1871.32 702.451 1867.84 702.451 1864.36 705.628 1860.88 705.628 1857.41 702.451 1850.45 699.273 1850.45 696.096 1857.41 696.096 1860.88 692.918 1874.8 692.918 1874.8 696.096ZM2045.72 746.937C2059.63 750.115 2063.11 753.292 2063.11 756.47 2063.11 756.47 2056.15 762.825 2052.68 766.002 2045.72 769.18 2038.76 775.535 2038.76 779.167 2038.76 781.89 2035.29 791.877 2031.81 801.41 2028.33 817.298 2024.85 823.653 2021.37 820.475 2021.37 820.475 2021.37 820.475 2021.37 823.653 2021.37 830.008 2021.37 830.008 2017.89 833.186 2014.42 836.363 2014.42 836.363 2010.94 833.186 2007.46 833.186 2003.98 833.186 2007.46 836.363 2010.94 839.541 2010.94 845.896 2007.46 849.073 2003.98 852.251 2000.5 852.251 1997.03 852.251 1997.03 852.251 1986.59 855.429 1979.14 855.429 1972.68 855.429 1961.75 855.429 1947.84 855.429 1937.4 855.429 1920.01 852.251 1913.06 852.251 1899.14 852.251 1888.71 852.251 1881.75 845.896 1871.32 842.718 1829.08 804.587 1829.08 801.41 1829.08 798.232 1836.54 798.232 1846.97 801.41 1853.93 804.587 1857.41 804.587 1864.36 801.41 1878.27 798.232 1902.62 788.699 1909.58 785.068 1913.06 781.89 1923.49 779.167 1926.97 779.167 1926.97 779.167 1933.92 779.167 1944.36 781.89 1951.31 785.068 1961.75 788.699 1968.7 788.699 1979.14 791.877 1983.11 791.877 1986.59 795.055 1990.07 801.41 1990.07 801.41 1990.07 798.232 1990.07 795.055 1997.03 795.055 2000.5 798.232 2003.98 798.232 2003.98 798.232 2010.94 795.055 2028.33 779.167 2031.81 772.358 2031.81 756.47 2028.33 750.115 2031.81 746.937 2031.81 746.937 2031.81 746.937 2038.76 746.937 2045.72 746.937ZM2066.59 903.546C2066.59 906.27 2063.11 909.448 2059.63 909.448 2059.63 909.448 2059.63 906.27 2059.63 906.27 2059.63 899.915 2063.11 899.915 2066.59 903.546ZM1703.87 995.696C1710.33 1008.41 1710.33 1015.22 1706.85 1024.75 1706.85 1027.93 1706.85 1030.65 1703.87 1037.46 1703.87 1043.81 1699.9 1050.17 1696.42 1046.99 1696.42 1046.99 1692.94 1037.46 1689.46 1017.94 1685.99 992.519 1685.99 982.986 1689.46 979.808 1692.94 976.631 1692.94 979.808 1703.87 995.696ZM1665.12 1011.58C1665.12 1015.22 1672.07 1030.65 1675.55 1040.64 1685.99 1066.06 1689.46 1078.77 1689.46 1081.94 1689.46 1085.12 1685.99 1101.01 1682.51 1110.54 1682.51 1120.08 1675.55 1123.25 1675.55 1116.9 1675.55 1113.72 1675.55 1113.72 1672.07 1110.54 1672.07 1110.54 1672.07 1116.9 1672.07 1123.25 1675.55 1135.96 1672.07 1139.14 1672.07 1142.32 1668.6 1152.31 1644.25 1177.73 1633.81 1184.08 1630.34 1187.26 1626.86 1193.61 1623.38 1196.79 1619.9 1203.15 1616.42 1206.32 1616.42 1203.15 1616.42 1196.79 1619.9 1193.61 1623.38 1187.26 1626.86 1187.26 1630.34 1180.9 1630.34 1177.73 1633.81 1174.55 1637.29 1171.37 1640.77 1168.19 1644.25 1165.02 1647.73 1158.66 1651.21 1149.13 1661.64 1135.96 1661.64 1132.79 1661.64 1120.08 1661.64 1104.19 1665.12 1097.83 1665.12 1097.83 1665.12 1097.83 1668.6 1101.01 1668.6 1104.19 1668.6 1107.37 1672.07 1104.19 1668.6 1091.48 1668.6 1075.59 1668.6 1075.59 1672.07 1078.77 1675.55 1085.12 1679.03 1088.3 1682.51 1088.3 1682.51 1088.3 1682.51 1081.94 1679.03 1075.59 1665.12 1053.35 1665.12 1046.99 1661.64 1015.22 1658.16 1002.05 1658.16 995.696 1661.64 998.874 1661.64 998.874 1665.12 1005.23 1665.12 1011.58ZM1630.34 1066.06C1630.34 1072.41 1630.34 1078.77 1633.81 1078.77 1637.29 1091.48 1640.77 1110.54 1640.77 1126.43 1640.77 1145.95 1630.34 1168.19 1623.38 1168.19 1623.38 1168.19 1623.38 1168.19 1623.38 1161.84 1626.86 1149.13 1626.86 1110.54 1626.86 1085.12 1623.38 1066.06 1626.86 1059.7 1626.86 1059.7 1626.86 1059.7 1626.86 1062.88 1630.34 1066.06Z" fill-rule="evenodd"/><path d="M1994 807.5C1994 811 1997 811 1997 811 1997 811 1997 807.5 1994 807.5 1994 804 1994 804 1994 807.5Z" fill-rule="evenodd"/><path d="M1997 814C1997 817 2001 817 2001 817 2001 817 2001 817 2001 814 2001 814 1997 814 1997 814 1997 814 1997 814 1997 814Z" fill-rule="evenodd"/><path d="M2004 824C2004 824 2004 826.917 2004 826.917 2004 829.833 2007.5 829.833 2007.5 826.917 2007.5 826.917 2004 824 2004 824 2004 824 2004 824 2004 824Z" fill-rule="evenodd"/><path d="M1861 556C1861 559.167 1864.44 562.333 1867.89 565.5 1867.89 565.5 1867.89 568.667 1867.89 568.667 1867.89 568.667 1892 613.452 1892 613.452 1892 613.452 1867.89 562.333 1864.44 556L1861 556 1861 556Z" fill-rule="evenodd"/><path d="M1864 587.5C1864 591 1868 591 1868 591 1868 591 1868 587.5 1864 587.5 1864 584 1864 584 1864 587.5Z" fill-rule="evenodd"/><path d="M1868 597C1868 597 1871.5 597 1871.5 597 1871.5 597 1871.5 597 1871.5 597 1871.5 597 1871.5 594 1868 594 1868 594 1868 597 1868 597Z" fill-rule="evenodd"/><path d="M1871 603.5C1875 603.5 1875 603.5 1875 603.5 1875 603.5 1875 603.5 1875 600 1871 600 1871 600 1871 603.5Z" fill-rule="evenodd"/><path d="M1878 613C1878 617 1878 617 1882 617 1882 613 1882 613 1882 613 1878 613 1878 613 1878 613Z" fill-rule="evenodd"/><path d="M1882 619C1882 619 1882 622.5 1885.5 622.5 1885.5 626 1885.5 626 1885.5 622.5 1885.5 619 1885.5 619 1885.5 619 1882 619 1882 619 1882 619Z" fill-rule="evenodd"/><path d="M1892 636C1892 636 1896 645.8 1896 642.534 1896 642.534 1896 642.534 1896 639.267 1892 636 1892 636 1892 636Z" fill-rule="evenodd"/><path d="M1913 648.333C1913 648.333 1916.5 651.6 1916.5 651.6 1916.5 654.867 1916.5 651.6 1916.5 648.333 1913 645.067 1913 645.067 1913 648.333Z" fill-rule="evenodd"/><path d="M1903 655C1903 655 1903 655 1903 655 1905.8 655 1905.8 655 1903 655 1903 652.2 1903 652.2 1903 655Z" fill-rule="evenodd"/><path d="M1920 655C1920 658.125 1920 664.375 1923.35 670.625 1930.04 680 1930.04 680 1930.04 680 1933.39 680 1930.04 673.75 1920 658.125 1920 655 1920 655 1920 655Z" fill-rule="evenodd"/><path d="M1913 674C1916.5 676.8 1916.5 679.6 1916.5 676.8 1916.5 676.8 1916.5 674 1916.5 674 1913 671.2 1913 671.2 1913 674Z" fill-rule="evenodd"/><path d="M1846.95 543C1840 543 1840 546.175 1840 552.525L2053.1 912.65C2056.58 915.825 2056.58 919 2060.05 919 2067.01 915.825 2070.48 912.65 2067.01 906.3L1857.39 546.175C1853.91 543 1850.43 543 1846.95 543" fill-rule="evenodd"/><path d="M1662 1085 1662 1085C1662 1088.17 1665.43 1088.17 1665.43 1088.17L1668.86 1094.52C1668.86 1094.52 1668.86 1094.52 1668.86 1097.7 1668.86 1097.7 1668.86 1100.87 1668.86 1104.04 1668.86 1107.22 1668.86 1107.22 1668.86 1110.39L1672.29 1116.74C1672.29 1116.74 1672.29 1116.74 1672.29 1119.91 1672.29 1119.91 1672.29 1119.91 1672.29 1123.09 1672.29 1123.09 1672.29 1126.26 1672.29 1126.26 1672.29 1126.26 1675.71 1126.26 1675.71 1129.43 1675.71 1129.43 1675.71 1133.06 1675.71 1133.06 1675.71 1136.24 1679.14 1142.58 1682.57 1148.93 1682.57 1152.11 1682.57 1155.28 1682.57 1155.28L1682.57 1155.28C1682.57 1155.28 1682.57 1158.45 1682.57 1158.45 1682.57 1158.45 1682.57 1158.45 1682.57 1158.45 1682.57 1158.45 1686 1158.45 1686 1155.28L1686 1152.11C1686 1148.93 1686 1148.93 1686 1145.76 1686 1145.76 1686 1142.58 1686 1138.96L1682.57 1129.43C1682.57 1129.43 1682.57 1129.43 1682.57 1126.26 1682.57 1126.26 1682.57 1123.09 1682.57 1123.09 1682.57 1123.09 1682.57 1119.91 1682.57 1119.91L1682.57 1116.74C1682.57 1113.57 1679.14 1110.39 1679.14 1107.22 1679.14 1107.22 1679.14 1104.04 1675.71 1100.87 1675.71 1100.87 1675.71 1097.7 1672.29 1094.52 1672.29 1091.35 1668.86 1088.17 1662 1085" fill-rule="evenodd"/><path d="M1669 1076C1669 1076 1669 1076 1669 1076M1669 1076 1669 1076C1672.43 1082.33 1672.43 1085.49 1672.43 1085.49 1672.43 1088.65 1675.86 1091.81 1675.86 1091.81 1675.86 1091.81 1675.86 1094.98 1675.86 1094.98 1675.86 1098.14 1675.86 1098.14 1675.86 1101.3 1675.86 1104.46 1675.86 1107.63 1675.86 1107.63 1675.86 1110.79 1679.29 1113.95 1679.29 1113.95 1679.29 1117.11 1679.29 1117.11 1679.29 1117.11L1682.71 1126.6 1682.71 1129.76C1686.14 1136.54 1686.14 1136.54 1686.14 1136.54 1686.14 1139.25 1686.14 1139.25 1686.14 1139.25L1686.14 1142.87C1689.57 1146.03 1689.57 1149.19 1689.57 1149.19 1689.57 1149.19 1689.57 1149.19 1689.57 1149.19 1689.57 1152.36 1689.57 1152.36 1693 1149.19 1693 1142.87 1693 1139.25 1693 1136.54 1693 1136.54 1693 1136.54 1693 1133.38L1693 1123.89C1689.57 1120.28 1689.57 1117.11 1689.57 1117.11 1689.57 1113.95 1689.57 1110.79 1689.57 1110.79L1686.14 1104.46 1686.14 1098.14 1682.71 1094.98C1682.71 1091.81 1682.71 1088.65 1679.29 1088.65 1679.29 1085.49 1675.86 1079.16 1669 1076" fill-rule="evenodd"/><path d="M1662 1072C1665.43 1072 1665.43 1072 1665.43 1075.22L1668.86 1084.89C1668.86 1091.33 1668.86 1094.56 1672.29 1097.78 1672.29 1097.78 1672.29 1097.78 1672.29 1097.78 1672.29 1101 1675.71 1104.22 1675.71 1107.44 1675.71 1107.44 1675.71 1110.67 1679.14 1117.11 1679.14 1120.79 1679.14 1120.79 1679.14 1120.79 1679.14 1124.02 1682.57 1124.02 1682.57 1126.78L1682.57 1130.46C1682.57 1130.46 1682.57 1130.46 1682.57 1130.46 1682.57 1130.46 1682.57 1130.46 1682.57 1130.46 1686 1130.46 1686 1130.46 1686 1130.46 1686 1130.46 1686 1130.46 1686 1126.78 1686 1120.79 1682.57 1113.89 1682.57 1110.67 1682.57 1107.44 1682.57 1104.22 1682.57 1104.22 1682.57 1104.22 1682.57 1101 1682.57 1101 1679.14 1094.56 1679.14 1091.33 1675.71 1084.89 1672.29 1081.67 1668.86 1075.22 1662 1072" fill-rule="evenodd"/><path d="M1665 1069C1665 1069 1665 1069 1665 1069L1665 1069C1665 1069 1665 1069 1665 1069M1665 1069C1665 1069 1665 1072.25 1665 1075.5 1668.67 1078.75 1668.67 1082 1668.67 1082 1668.67 1085.25 1668.67 1085.25 1672.33 1088.5 1672.33 1091.75 1676 1095 1676 1095 1676 1095 1676 1095 1676 1095 1676 1095 1676 1091.75 1676 1091.75 1676 1088.5 1676 1085.25 1676 1085.25 1672.33 1082 1672.33 1082 1672.33 1078.75 1672.33 1078.75 1672.33 1078.75 1672.33 1078.75 1668.67 1075.5 1668.67 1072.25 1668.67 1072.25 1668.67 1072.25 1668.67 1069 1665 1069" fill-rule="evenodd"/></g></svg>