<svg width="77" height="360" xmlns="http://www.w3.org/2000/svg" xmlns:xlink="http://www.w3.org/1999/xlink" xml:space="preserve" overflow="hidden"><defs><clipPath id="clip0"><rect x="640" y="360" width="77" height="360"/></clipPath></defs><g clip-path="url(#clip0)" transform="translate(-640 -360)"><path d="M240.604-15.6242 240.413-15.4349 240.223-14.8677 240.033-14.4899 239.842-14.1112 239.652-13.3556 239.46-12.977 239.271-12.5984 239.271-11.6534 239.081-11.2755 238.889-10.7083 238.7-10.3305 238.51-9.95186 238.319-9.3847 238.129-8.81754 237.939-8.43894 237.748-8.0611 237.557-7.68248 237.366-7.3039 237.176-6.92604 236.986-6.35888 236.605-6.17031 236.414-5.98099 236.224-5.79171 236.034-5.60241 235.653-5.41309 235.463-5.22382 235.272-5.03525 234.891-4.84592 234.701-4.65665 234.511-4.46734 234.32-4.27803 234.13-4.0895 233.94-3.90019 233.749-3.71087 233.559-3.52159 233.368-3.33228 233.178-3.14296 232.988-2.76511 232.796-2.57659 232.607-2.19795 232.417-2.00942 232.226-1.6308 232.036-1.44152 231.845-1.06289 231.655-0.685049 231.465-0.496472 231.465-0.685049 231.655-2.00868 231.845-8.62674 232.036-9.00463 232.417-9.19394 232.607-9.38248 232.796-9.57179 232.988-9.76111 233.178-9.94965 233.368-10.3282 233.559-10.7061 233.749-10.8954 233.94-11.274 234.13-11.8411 234.32-12.5969 234.511-13.1641 234.701-13.9212 235.653-14.8661 236.224-15.0555 236.604-15.244 236.795-15.6226 236.984-15.8113 237.175-16.0005 237.366-16.1891 237.557-16.5676 237.747-16.7562 237.937-16.9455 238.128-17.1348 238.318-17.3234 238.509-17.5127 238.699-17.702 238.889-17.8906 239.08-18.0799 239.27-18.2683 239.46-18.4577 239.651-18.647 239.841-19.0248 240.032-19.5921 240.223-20.3478 240.413-20.3478 240.603-19.4019 240.793-18.457 240.983-17.5112 240.983-15.8093 240.603-15.6207ZM241.746-33.7763 241.936-34.1542 242.127-34.3434 242.508-34.5321 242.698-34.9099 242.888-35.0992 243.079-35.477 243.269-35.8557 243.459-36.0442 243.84-36.0442 244.031-35.477 244.221-35.0992 244.411-34.5321 244.602-34.1542 244.792-33.587 244.984-33.0199 245.174-32.2626 245.364-31.507 245.554-30.7505 245.554-29.238C245.554-28.2068 245.645-28.6778 245.174-28.482L244.984-28.1041 244.603-27.9148 244.412-27.7255 244.221-27.5369 244.031-27.3476 243.841-27.1583 243.65-26.969 243.461-26.7798 243.27-26.5904 243.08-26.4019 242.889-26.2126 242.699-26.0241 242.509-25.8347 242.317-25.4568 242.127-25.2676 241.936-25.0783 241.746-24.5111 241.556-24.3226 241.366-24.1332 241.176-23.9447 240.985-23.7554 240.795-23.5661 240.795-23.7556 240.985-23.9448 241.176-24.3228 241.366-24.7006 241.556-24.8899 241.746-25.0785 241.936-25.2678 242.127-25.6456 242.317-25.835 242.509-26.0242 242.699-26.2127 242.889-26.9692 243.08-27.7249 243.27-28.1036 243.461-28.6699 243.65-29.0485 243.841-29.2379 244.031-29.8051 244.031-31.1291 243.841-31.507 243.65-31.6962 243.461-31.8848 242.698-32.2626 242.508-32.4519 242.317-32.6412 242.127-33.0191 241.935-33.397 241.746-33.7755ZM255.835-83.8846C256.173-84.2207 255.496-83.5485 255.835-83.8846ZM244.412-85.3967 244.984-85.2075 245.364-85.0181 245.745-84.8289 245.745-84.6399 244.412-84.6399 244.221-84.0728 243.461-83.8841 242.698-83.6949 242.317-83.5055 241.936-83.317 241.746-83.1277 241.366-82.9384 240.985-82.749 240.415-82.5598 240.034-82.3705 239.463-82.1819 239.272-81.9927 239.082-81.8041 238.701-81.2369 238.13-81.0477 237.559-80.8583 237.179-80.6691 236.988-80.4797 236.417-80.2905 235.847-80.1018 235.655-79.9126 235.276-79.724 234.894-79.5347 233.561-79.5347 233.371-79.1568 233.371-78.7783 233.561-78.5891 233.751-78.3997 233.751-77.8323 233.942-77.6437 234.132-77.4544 234.132-76.6979 233.942-76.5087 233.942-75.9417 234.132-75.7524 234.323-75.3745 234.513-74.4288 234.703-74.0502 234.703-73.2942 235.084-72.3484 235.274-72.1591 235.084-71.5919 235.084-70.6465 234.894-70.4572 234.894-70.0792 235.084-69.7013 235.274-69.512 235.274-69.3225 235.084-69.1339 234.894-68.1881 234.703-67.8095 234.513-67.0538 234.323-66.6759 234.132-66.4867 233.942-66.1088 233.751-65.7302 233.751-65.1627 233.942-64.7848 234.323-64.2177 234.513-63.6506 234.703-63.462 234.703-63.2724 234.513-63.0832 234.323-62.5168 234.132-61.9496 233.942-61.3824 233.751-60.6252 233.561-59.491 233.371-58.5451 233.18-57.4109 232.99-56.8436 232.798-56.2773 232.609-55.5208 232.419-55.1429 232.229-54.1972 232.038-53.8193 231.848-53.4414 231.657-52.6843 231.467-52.1171 231.277-51.55 231.086-50.9827 231.086-49.6588 231.277-49.4696 234.323-49.2802 235.274-49.0909 235.465-48.3352 235.497-46.8178 235.274-46.0658 235.084-43.4185 234.894-42.4728 232.99-41.527 232.419-41.3378 232.038-41.1484 231.848-40.9592 231.657-40.5813 231.467-40.3919 231.277-40.014 231.277-38.6901 231.467-38.3123 231.657-37.9344 231.848-37.5558 231.848-36.9888 231.657-36.7995 231.277-36.6102 231.086-36.2324 230.896-36.043 230.706-35.8545 230.515-35.6652 230.324-35.476 230.134-35.0981 229.944-34.9087 229.753-31.8836 229.563-31.695 229.373-31.5057 229.183-31.3166 228.992-31.1271 228.802-30.9379 228.611-30.5601 228.42-30.1822 228.23-29.8035 228.04-29.0478 227.849-28.1028 227.66-27.157 227.469-26.5898 227.278-25.6441 227.088-24.132 226.898-23.5647 226.708-23.1869 226.516-22.0526 226.326-20.729 226.135-19.784 225.945-19.2168 225.755-18.4603 225.374-17.8932 225.184-16.9475 224.993-16.191 224.803-16.0024 224.612-15.4353 224.422-14.8681 224.041-14.1112 223.851-13.9227 223.661-12.5984 223.47-12.0312 223.28-11.2755 223.091-9.95186 222.9-9.19616 222.709-8.25037 222.519-7.49394 222.329-6.73746 222.138-5.79171 221.947-5.22456 221.757-4.46882 221.566-4.09098 221.376-3.71239 221.185-2.7666 220.995-1.82159 220.805-1.06437 220.613-0.497954 220.424 0.447795 220.234 1.01496 220.043 1.77069 219.853 2.52714 219.663 3.47292 219.472 4.22862 219.281 4.98508 219.09 5.93083 218.901 6.87658 218.71 7.44375 218.519 8.20021 218.33 10.2803 218.14 11.2261 217.949 12.1718 217.759 13.874 217.569 14.8198 217.569 16.332 217.759 18.0342 217.759 18.4121 217.569 18.6013 217.377 18.7907 217.187 18.98 216.616 19.1693 216.236 19.3578 216.044 19.5472 215.855 19.7364 215.665 19.9249 215.473 20.1143 215.283 20.3036 215.093 20.6814 214.902 20.8708 214.712 21.4372 214.52 21.8158 214.331 22.3829 214.141 22.7608 213.95 23.328 213.76 23.8951 213.57 25.4072 213.57 26.731 213.379 27.8652 213.189 28.8109 212.998 29.3782 212.808 30.5124 212.808 31.2689 212.998 32.5925 213.189 34.2947 213.379 35.997 213.57 36.9427 213.76 37.6985 213.95 38.6435 214.141 39.0222 214.331 39.3999 214.52 39.9672 214.712 40.345 214.902 40.7229 215.093 40.9121 215.283 41.29 215.473 41.4793 215.665 41.6686 215.855 41.8579 216.044 42.0472 216.236 42.2365 216.616 42.6144 216.806 42.803 217.187 42.9922 217.567 43.1815 217.948 43.3701 218.519 43.5593 218.9 43.7487 219.281 43.938 219.662 44.1272 220.042 44.3166 220.994 44.3166 221.185 44.1272 221.756 44.1272 221.946 44.3166 222.136 44.6945 222.327 44.883 222.517 45.2616 222.898 45.4502 223.088 45.6395 223.279 45.8288 223.279 46.9638 223.088 48.2867 222.898 48.476 222.708 49.0431 222.517 49.2318 222.327 49.7989 222.136 50.366 221.946 50.7439 221.756 51.5011 221.565 52.4461 221.374 52.824 221.183 53.3911 220.994 54.1476 220.803 54.9033 220.612 55.4706 220.423 56.4163 220.232 56.6056 220.042 56.9834 219.852 58.1185 219.662 59.8206 219.47 60.955 219.28 61.9007 219.089 63.4129 218.899 64.5473 218.709 66.0602 218.709 69.2746 218.899 69.4631 219.089 70.2204 219.121 73.44 218.899 74.1912 218.899 76.2713 219.089 78.3514 219.28 78.9185 219.66 79.2964 219.851 79.675 220.041 80.0529 220.232 80.2421 220.612 80.62 220.803 80.8093 221.182 80.9986 221.374 81.188 221.564 81.3772 221.564 82.8902 221.374 85.5374 221.374 92.3448 221.564 94.6134 221.755 95.937 221.945 98.0171 222.135 99.5294 222.327 100.475 222.517 102.555 222.706 104.824 222.898 105.013 223.088 105.959 223.088 109.74 223.278 117.871 223.469 118.627 223.658 120.141 223.849 121.275 224.039 122.409 224.231 123.165 224.421 123.922 224.611 125.244 224.802 125.623 224.992 126.378 225.181 128.837 225.373 130.161 225.563 131.295 225.752 132.431 225.943 133.376 226.134 134.131 226.325 134.51 226.515 135.266 226.705 135.833 226.896 136.211 227.087 136.589 227.277 137.157 227.467 137.723 227.658 138.102 227.848 139.047 228.038 139.803 228.228 140.181 228.419 140.748 228.609 141.503 228.799 141.882 228.991 142.449 229.181 143.583 229.371 143.961 229.562 144.34 229.751 144.906 229.942 145.285 230.133 145.662 230.322 146.419 230.513 147.364 230.703 147.932 230.895 148.878 231.085 149.634 231.275 150.389 231.466 151.336 231.656 151.714 231.845 153.226 232.037 154.55 232.227 155.117 232.417 155.685 232.607 156.251 232.797 156.63 232.988 157.007 233.178 157.385 233.37 157.764 233.56 158.141 233.75 158.52 233.941 158.898 234.131 159.275 234.321 159.654 234.511 160.41 234.702 160.788 234.891 161.544 235.082 164.191 235.082 165.137 234.891 168.918 234.702 169.863 234.511 170.431 234.321 171.377 234.131 171.755 233.941 173.078 233.941 176.481 234.131 177.426 234.321 178.183 234.511 178.939 234.702 179.317 234.891 179.694 235.082 180.262 235.273 180.451 235.464 180.83 235.654 181.208 235.844 181.586 236.035 182.153 236.226 182.72 236.416 183.477 236.606 183.854 236.797 184.422 236.987 184.988 237.177 185.744 237.367 186.312 237.559 188.202 237.749 189.715 237.749 191.418 237.559 197.09 237.559 201.25 237.749 202.952 237.94 203.708 238.13 204.464 238.32 205.221 238.511 205.977 238.543 211.276 238.32 212.027 238.32 212.972 238.511 213.729 238.543 215.436 238.32 216.187 238.13 216.376 237.94 218.267 237.749 219.024 237.559 224.129 237.367 224.697 237.177 225.074 236.987 225.453 236.797 227.911 236.606 228.856 236.416 230.18 236.226 232.26 236.226 233.017 236.416 233.772 236.447 234.912 236.226 235.664 236.035 236.609 235.844 237.365 235.654 237.932 235.464 238.31 235.273 238.689 235.082 238.878 234.891 239.444 234.702 240.012 234.511 241.903 234.131 242.659 233.941 243.038 233.75 243.227 233.56 243.416 233.37 243.604 233.178 243.983 232.988 244.361 232.797 244.738 232.607 245.117 232.417 245.495 232.417 246.251 232.607 247.197 232.797 247.764 232.988 248.521 233.178 250.223 233.37 251.546 233.56 251.925 233.75 252.113 233.941 252.302 234.131 252.491 233.941 253.247 233.75 253.436 233.56 253.626 233.179 253.815 232.798 254.192 232.608 254.381 232.418 254.571 232.037 254.76 231.847 254.949 231.847 256.462 232.037 256.651 232.227 256.84 232.418 258.352 232.418 259.109 232.227 259.675 232.037 260.054 232.113 260.769 231.466 260.999 231.277 261.188 230.895 261.565 230.704 261.944 230.514 262.133 230.324 262.321 230.133 262.51 229.943 262.7 228.801 262.889 227.468 263.078 225.945 263.267 224.612 263.457 224.422 263.646 223.851 263.835 222.899 264.023 222.328 264.212 221.947 264.402 221.566 264.591 221.186 264.78 220.425 264.968 219.854 265.157 219.473 265.347 218.902 265.536 218.712 265.726 218.141 265.915 217.76 266.104 216.808 266.293 216.237 266.482 215.285 266.671 214.333 266.861 213.763 267.049 213.383 267.238 211.478 267.427 209.956 267.616 209.003 267.806 206.718 267.995 205.767 268.184 205.197 268.373 205.006 268.562 204.435 268.751 204.054 268.94 203.674 268.94 203.483 269.129 203.483 269.697 203.674 271.399 203.864 272.722 204.055 273.667 204.435 273.857 241.369 273.857 242.13 273.667 242.511 273.29 244.224 273.29 244.605 273.479 244.795 273.668 245.176 273.858 245.367 274.047 256.027 274.047 256.218 273.858 256.408 273.29 256.599 272.911 256.788 272.534 256.978 272.156 257.17 271.777 257.359 271.588 257.549 271.211 257.74 271.021 257.93 270.643 258.12 270.264 258.311 270.076 258.501 269.698 258.692 269.508 258.882 269.318 259.072 269.129 259.263 268.94 259.453 268.562 259.834 268.373 260.024 267.995 260.215 267.806 260.404 267.616 260.595 267.427 260.786 267.049 260.975 266.482 261.166 266.104 261.166 263.267 260.975 262.133 260.786 261.944 260.786 261.755 261.546 261.755 261.738 260.81 261.927 260.431 262.117 259.865 262.308 259.675 262.499 259.109 262.689 258.541 262.88 257.784 263.07 257.028 263.261 256.083 263.451 254.948 263.451 252.679 263.641 252.49 263.832 252.302 264.022 251.924 264.212 251.734 264.403 251.545 264.593 251.357 264.784 251.168 265.164 250.979 265.164 249.844 264.974 249.655 264.782 249.466 264.592 247.764 264.021 247.575 263.832 246.818 263.641 246.251 263.45 245.305 263.261 243.603 263.07 243.225 262.879 241.902 262.688 241.524 262.498 241.335 262.308 241.145 262.117 240.956 261.926 240.767 261.926 240.2 262.117 239.822 262.308 239.633 262.498 239.443 262.688 239.255 262.879 239.066 263.07 238.688 263.261 238.498 263.45 238.121 263.641 237.932 263.832 237.364 264.021 236.797 264.212 236.042 264.212 233.394 264.021 232.449 263.832 231.314 263.832 227.155 263.641 226.776 263.45 225.831 263.261 224.506 263.07 223.751 262.879 222.806 262.688 222.049 262.498 220.725 262.308 219.97 262.117 219.402 261.926 218.267 261.736 217.133 261.546 216.187 261.356 215.431 261.165 214.108 260.975 213.163 260.785 210.324 260.594 208.245 260.404 207.3 260.213 206.733 260.023 205.977 259.833 205.031 259.833 202.762 260.023 200.682 260.213 199.925 260.404 199.17 260.594 198.414 260.785 197.846 260.975 197.469 261.165 197.09 261.356 196.712 261.546 196.335 261.736 195.956 261.926 195.579 262.117 195.011 262.308 194.633 262.498 194.255 262.688 193.499 262.879 193.31 263.07 192.742 263.261 192.176 263.45 191.23 263.45 189.528 263.261 189.339 263.07 189.15 262.879 188.96 262.688 188.583 262.498 188.015 262.308 187.638 262.117 185.367 261.926 183.666 261.736 183.477 261.546 182.91 261.356 181.398 261.165 180.263 260.975 178.749 260.785 177.994 260.594 176.292 260.404 175.725 260.213 175.347 260.023 174.779 259.833 174.023 259.642 173.457 259.452 172.89 259.263 172.322 259.071 171.567 258.881 171.377 258.692 171 258.5 170.242 258.31 170.054 258.12 169.865 258.12 167.784 258.31 167.407 258.5 167.218 258.692 167.028 259.071 166.65 259.263 166.461 259.263 165.325 259.071 164.948 258.881 164.38 258.692 163.814 258.5 163.058 258.31 162.491 258.12 162.301 258.12 161.736 258.31 161.168 258.5 160.79 258.692 160.035 258.881 159.656 259.071 159.089 259.263 158.333 259.452 157.198 259.642 155.686 259.642 150.581 259.452 148.69 259.263 146.988 259.071 146.042 258.881 145.097 258.692 144.15 258.5 142.639 258.31 141.882 258.12 140.937 257.93 139.991 257.739 139.235 257.549 137.911 257.359 137.533 257.169 136.966 256.978 136.588 256.788 136.21 256.597 135.454 256.407 134.698 256.217 132.617 256.026 131.105 256.026 130.537 256.217 130.16 256.407 128.647 256.597 127.324 256.788 126.568 256.978 126 257.169 125.623 257.359 120.706 257.549 119.95 257.549 119.572 257.359 118.437 257.359 118.248 257.549 117.682 257.549 117.114 257.739 116.736 257.93 116.357 258.12 115.601 258.31 114.089 258.5 112.954 258.692 111.82 258.881 108.984 258.881 108.605 259.071 108.228 259.263 107.85 259.452 107.472 259.642 107.283 259.833 106.715 260.023 106.337 260.213 106.148 260.404 105.959 260.594 105.203 260.785 101.988 260.975 101.61 261.165 100.854 261.356 100.476 261.546 100.287 261.736 99.9087 261.926 99.3415 262.117 98.7744 262.308 98.3965 262.498 98.0186 262.688 97.4515 262.879 97.0729 263.07 96.695 263.261 96.1279 263.45 95.5607 263.641 94.9936 263.832 94.4272 264.021 93.6699 264.212 93.2921 264.402 92.9134 264.592 92.1577 264.782 90.8341 264.974 89.5105 265.164 87.4304 265.164 83.4596 264.974 81.5687 264.974 81.1909 265.164 80.813 265.545 80.2459 265.735 79.8672 265.925 79.3001 266.116 78.5444 266.307 77.5986 266.307 73.0606 266.116 71.737 265.925 70.4134 265.735 68.9012 265.545 68.1448 265.355 67.1989 265.164 66.4425 265.132 62.8451 265.355 62.0938 265.545 60.3923 265.735 58.8802 265.925 56.8001 266.116 55.665 266.307 54.9086 266.496 54.5307 266.686 53.5856 266.878 52.6399 267.068 51.8834 267.258 50.9376 267.449 50.1812 267.639 49.9919 267.829 49.2354 268.02 48.2897 268.21 47.9118 268.401 47.7226 268.59 47.1553 268.781 46.7775 268.971 46.2103 269.161 45.6432 269.353 44.886 269.542 44.5081 269.732 43.941 269.924 43.3738 270.113 42.9959 270.303 42.618 270.494 42.2403 270.684 41.673 270.874 41.2944 271.065 40.7273 271.255 40.1609 271.445 39.7823 271.636 39.4044 271.826 39.0266 272.017 38.4594 272.207 38.0816 272.397 37.5144 272.588 36.9472 272.778 36.5686 272.968 36.1907 273.159 35.6236 273.349 34.8679 273.54 34.4893 273.73 34.1114 273.92 33.5443 274.111 33.3549 274.301 32.7878 274.493 32.4092 274.682 31.6534 274.872 31.4642 275.063 30.897 275.253 30.7084 275.443 30.3298 275.634 30.1413 275.824 29.7635 276.014 29.3848 276.205 28.8177 276.396 28.4398 276.587 27.8726 276.776 27.4949 276.967 27.117 277.157 26.7384 277.347 26.1711 277.539 25.604 277.728 24.659 277.918 23.7133 278.11 22.0111 278.3 21.4438 278.49 20.8775 278.68 20.3102 278.871 19.9317 279.062 19.5538 279.251 18.4195 279.442 17.6637 279.633 17.0967 279.822 16.3402 280.013 14.6387 280.203 12.7472 280.203 9.91133 280.013 8.39842 279.822 6.88551 279.633 5.75119 279.442 4.99397 279.251 4.04896 279.062 2.9139 278.871 2.15742 278.68 1.40173 278.49 0.26667 278.3-0.11122 278.11-0.868393 277.918-1.43555 277.728-2.19129 277.539-3.51489 277.347-4.08206 277.157-6.35069 276.967-6.72932 276.776-7.29648 276.587-7.86364 276.396-8.8094 276.205-9.37655 276.014-10.1337 275.824-11.646 275.634-12.7802 275.443-13.7261 275.253-14.8602 275.063-15.9953 274.872-16.5625 274.682-16.7511 274.493-17.3182 274.301-17.6968 274.111-17.8853 273.92-18.0747 273.73-18.2632 273.54-18.4526 273.349-18.6418 273.159-18.8303 272.968-19.0197 272.778-19.2089 272.588-19.3976 272.397-19.7762 272.207-19.9647 272.017-20.3425 271.826-20.7212 271.826-21.0992 271.636-21.2884 271.445-21.477 271.255-21.8556 271.065-22.2335 270.874-22.6114 270.684-22.8006 270.494-23.5564 270.303-23.7456 270.113-23.935 269.924-24.3129 269.732-24.6907 269.542-24.88 269.353-25.0686 269.161-25.4471 268.971-25.6357 268.781-25.825 268.59-26.0143 268.401-26.3922 268.21-26.5807 268.02-26.7701 267.829-26.9593 267.639-27.1487 267.449-27.5272 267.258-27.7158 267.068-28.0944 266.878-28.4723 266.686-28.6608 266.496-29.0394 266.307-29.4173 266.116-29.6065 265.925-29.9844 265.735-30.5516 265.545-30.7401 265.355-31.1187 265.164-31.8745 264.974-32.8202 264.782-33.1988 264.592-34.1446 264.402-35.279 264.212-36.0347 264.021-36.6018 264.021-36.7912 264.212-38.6821 264.402-39.0607 264.592-39.6278 264.782-40.3843 264.974-40.7622 265.164-41.3293 265.355-41.8965 265.545-42.2743 265.735-42.4637 265.925-42.6529 266.307-42.8415 266.496-43.2202 266.686-43.598 266.878-43.7873 267.257-44.1659 267.638-44.3544 267.828-44.5437 268.019-44.733 268.209-44.9216 268.399-45.1109 268.78-45.4888 268.971-45.6781 269.161-45.8674 269.351-46.0566 269.541-46.246 269.732-46.6239 269.922-47.0017 270.112-47.3802 270.303-47.5696 270.494-47.9474 270.683-48.3261 270.874-48.5146 271.064-48.7038 271.254-49.0817 271.444-49.2711 271.635-49.4603 271.825-49.6497 272.015-49.8389 272.207-50.0283 272.397-50.4068 272.587-50.5954 272.778-50.7847 272.968-50.9741 273.158-51.1626 273.349-51.3519 273.54-51.5412 273.729-51.919 273.919-52.2969 274.3-52.8641 274.49-53.0534 274.681-54.3763 274.871-54.9434 275.061-55.3212 275.252-56.267 275.442-57.4013 275.442-61.9396 275.252-62.5069 275.061-63.4526 274.871-64.0198 274.681-64.7755 274.49-65.9106 274.3-66.2883 274.11-66.667 273.919-67.2334 274.11-67.6121 274.11-68.3681 273.729-68.5573 273.538-69.1244 273.348-69.313 273.158-69.8802 272.967-70.2588 272.777-70.6367 272.587-71.0145 272.396-71.3924 272.206-71.9595 271.825-72.3381 271.444-72.9054 271.254-73.0938 270.874-73.2831 270.683-73.661 270.494-74.4175 270.112-74.4175 269.732-74.6068 269.922-75.7411 270.112-76.3083 270.303-77.0647 270.303-77.6322 269.922-77.6322 269.732-77.065 269.541-76.4978 269.351-75.9307 269.161-75.5528 268.971-75.3636 268.78-75.7415 268.59-76.1192 268.399-76.6864 268.399-77.4429 268.209-77.6322 268.019-77.8208 267.828-78.1993 267.448-78.3887 267.257-78.9558 267.067-79.1452 266.877-79.3336 266.686-79.523 266.496-79.7123 266.115-79.9008 265.925-80.0901 265.354-80.0901 265.163-80.468 264.782-80.6573 264.592-80.8466 264.211-81.0359 264.021-81.2251 263.831-81.4138 263.64-81.603 263.259-81.7924 262.879-81.9809 262.688-82.1702 262.308-82.3587 261.926-82.5481 261.546-82.7374 261.165-82.9267 260.975-83.116 260.404-83.3052 260.023-83.4939 259.833-83.6831 259.263-83.8725 258.881-84.061 258.31-84.2503 257.739-84.4388 256.787-84.6282 256.217-84.8174 255.646-85.0067 255.264-85.1961 254.884-85.3853 254.693-85.3853 253.932-85.1961 253.742-85.0067 253.742-84.6287 254.123-84.4395 253.742-84.2509 252.6-84.4395 251.077-84.6287 250.314-84.8181 249.934-85.0073 249.744-85.0073 248.983-84.8181 247.84-85.0073 247.269-85.1967 247.079-85.386 246.508-85.5746 245.937-85.7638 245.365-85.9531 244.414-85.9531 244.414-85.3857Z" fill-rule="evenodd" transform="matrix(1.00366 0 0 1 435.773 445.953)"/></g></svg>