<svg width="136" height="360" xmlns="http://www.w3.org/2000/svg" xmlns:xlink="http://www.w3.org/1999/xlink" xml:space="preserve" overflow="hidden"><defs><clipPath id="clip0"><rect x="640" y="360" width="136" height="360"/></clipPath></defs><g clip-path="url(#clip0)" transform="translate(-640 -360)"><path d="M222.706 15.1179C228.339 10.7643 235.4 12.4178 238.555 12.6231 242.137 12.8725 244.977 15.4038 248.393 16.2666 250.005 16.5734 250.447 18.4029 251.745 19.1877 253.53 20.3 255.526 21.2045 256.853 22.9041 258.683 24.9675 259.712 27.5819 261.537 29.6455 262.993 31.3242 263.081 33.6112 263.393 35.7007 262.613 36.6258 261.387 37.4627 261.547 38.8296 261.621 41.1165 260.388 43.2476 260.732 45.5501 261.118 48.6342 259.384 51.3048 265.494 55.3321 265.629 57.2136 266.181 59.0225 266.602 60.8572 260.933 65.1426 254.07 57.1522 251.975 55.8051 251.257 55.4049 250.576 56.0286 250.108 56.5067 249.478 57.8166 249.495 59.5266 248.19 60.4206 247.274 61.221 245.953 60.8416 244.857 60.904 244.914 61.6264 244.95 62.4062 245.767 62.6764 244.476 63.4405 243.083 63.981 241.627 64.3344 241.899 68.6161 238.7 65.4296 236.791 67.6454 235.32 69.2306 233.064 69.345 231.061 68.9655 229.699 68.6329 228.982 67.2347 227.714 66.7409 226.766 66.6265 225.809 66.6214 224.863 66.5538 224.417 67.0476 223.964 67.5361 223.511 68.0247 225.784 71.2109 227.921 74.4802 229.949 77.8221 230.458 79.4751 230.765 81.3096 232.392 82.2819 232.091 82.7187 231.785 83.1546 231.483 83.5914 232.196 85.1975 232.392 87.0067 233.313 88.5242 234.67 90.8786 235.856 93.3318 236.994 95.7954 237.664 97.0013 236.916 98.53 237.738 99.6681 238.726 101.171 239.516 103.358 238.3 104.959 236.235 107.563 236.121 111.664 238.274 114.258 239.179 115.474 239.412 117.153 240.763 118.021 241.861 118.821 242.615 119.965 243.157 121.196 243.656 122.454 245.049 122.876 246 123.702 246.844 124.944 247.436 126.348 248.345 127.553 249.063 128.77 250.129 129.929 250.119 131.425 250.253 133.686 250.405 136.03 249.657 138.209 249.006 140.09 248.844 142.252 247.42 143.775 245.668 145.672 243.083 146.342 240.988 147.731 238.774 149.586 236.911 152.585 233.631 152.347 235.012 154.127 238.97 160.66 239.059 164.711 238.789 166.026 238.325 167.295 238.087 168.615 238.808 168.573 239.537 168.516 240.26 168.448 239.469 168.749 238.357 168.875 238.258 169.925 237.655 172.102 235.881 173.666 235.07 175.74 234.56 177.301 236.126 179.202 234.806 180.513 233.277 181.463 231.264 181.094 229.855 182.3 230.626 183.729 231.16 185.273 231.494 186.863 230.542 187.212 229.579 187.535 228.607 187.809 227.91 188.886 227 189.785 226.148 190.731 226.747 191.288 227.516 191.598 228.228 191.994 227.369 193.72 227.999 195.476 228.633 197.151 229.591 207.245 233.442 221.023 232.684 243.564 233.821 248.922 234.413 263.886 232.756 268.461 232.049 270.396 231.471 272.375 231.067 274.398 230.216 278.963 222.986 297.149 221.65 303.566 214.98 334.936 210.173 343.681 216.517 352.191 219.72 356.506 233.304 358.718 243.344 364.867 242.855 366.738 242.782 369.764 240.27 369.96 232.196 369.883 224.156 371.811 216.071 370.839 204.034 369.013 197.242 370.644 190.836 366.848 191.001 358.941 193.357 359.34 194.351 356.322 194.699 355.339 195 354.342 195.35 353.365 193.508 353.323 191.652 353.693 190.076 354.674 188.787 355.569 187.149 355.033 185.708 354.976 184.113 355.084 183.234 353.594 181.939 352.964 181.858 352.922 169.223 346.791 168.238 346.473 162.084 345.037 156.865 346.604 152.305 341.057 149.972 332.893 158.318 331.356 160.417 326.03 162.768 320.402 166.74 315.682 169.699 310.39 171.201 307.168 173.369 304.319 174.998 301.17 183.619 280.917 191.648 276.06 203.258 264.303 202.489 260.093 200.413 256.226 199.098 252.167 198.526 249.937 196.693 235.323 194.267 229.437 193.525 227.634 192.328 225.965 192.13 223.98 191.715 221.605 191.871 219.042 190.727 216.853 189.359 215.103 186.879 214.354 186.062 212.151 185.288 210.274 184.056 208.668 182.901 207.03 181.351 203.616 179.444 200.377 177.941 196.948 177.452 194.607 177.389 192.15 176.121 190.04 173.567 190.824 171.679 192.805 169.579 194.333 168.295 195.284 166.626 194.784 165.196 194.567 163.053 194.078 160.756 194.706 158.691 193.819 155.545 192.529 152.29 191.13 150.002 188.523 148.302 187.774 146.284 188.424 144.49 188.059 142.733 187.368 140.861 186.755 139.374 185.564 137.84 182.856 136.92 179.836 135.271 177.191 134.335 175.527 134.211 172.876 131.98 172.431 132.297 171.66 132.749 170.876 132.562 170.018 132.063 167.373 130.675 164.909 130.602 162.174 131.881 159.763 133.165 157.207 135.37 155.491 136.244 154.602 137.601 153.765 137.46 152.341 137.429 148.739 138.916 145.36 139.317 141.816 139.426 140.09 140.097 138.5 140.57 136.863 140.991 135.407 140.7 133.853 141.132 132.403 142.223 128.515 143.128 124.57 143.882 120.604 142.619 121.275 141.345 121.993 139.889 122.153 140.497 119.336 144.428 119.227 145.12 116.394 147.018 110.625 149.16 104.908 150.636 99.0081 151.932 97.5273 153.497 96.2171 155.379 95.5731 155.181 96.0823 154.979 96.5916 154.776 97.1009 155.68 97.6573 156.506 98.6033 157.667 98.4677 162.945 98.3745 168.71 98.6702 173.078 101.987 173.573 102.611 174.519 102.241 174.456 101.457 175.002 95.2087 178.721 89.8552 182.324 84.9487 184.863 77.7694 194.817 64.7418 195.864 61.5179 196.27 60.1769 197.689 59.5896 198.376 58.4461 199.046 55.4159 200.071 52.4689 201.365 49.6517 203.3 49.8388 205.152 50.4313 206.987 51.0291 207.908 49.5374 207.381 47.5883 208.567 46.2369 209.456 45.2546 209.608 43.9604 209.836 42.7181 210.959 39.719 212.904 37.1461 214.926 34.6981 214.682 34.4851 214.189 34.0537 213.944 33.8406 216.147 32.5122 218.011 32.041 222.94 19.4691 223.61 18.0442 223.012 16.5421 222.706 15.1179M179.381 93.4155C178.217 95.463 177.269 97.6198 176.397 99.8029 177.779 97.9059 179.859 96.3676 180.411 93.9869 180.816 92.3602 181.466 90.7957 181.658 89.1268 180.442 90.2809 180.223 92.0222 179.381 93.4155M178.388 105.219C178.565 103.499 178.809 101.794 179.069 100.083 176.911 100.78 175.674 104.439 178.388 105.219M155.712 101.471C156.59 104.647 156.508 107.948 157.084 111.17 159.393 110.895 160.933 109.039 163.049 108.296 165.113 107.563 166.293 105.328 168.483 104.814 169.366 104.647 170.25 104.486 171.129 104.304 170.781 103.857 170.651 103.171 170.084 102.953 168.274 102.163 166.418 101.248 164.395 101.289 161.504 101.315 158.598 101.17 155.712 101.471M152.597 103.597C151.69 105.177 148.171 113.766 147.891 116.284 150.189 115.328 152.374 114.107 154.682 113.166 154.875 109.912 154.641 106.648 153.756 103.503 153.466 103.524 152.888 103.571 152.597 103.597M180.546 132.87C181.076 135.802 181.129 138.764 181.279 141.732 181.549 141.737 182.09 141.748 182.36 141.753 182.065 135.544 183.24 134.287 180.546 132.87M194.637 306.076C175.555 327.6 179.521 329.012 179.532 333.666 179.724 334.716 179.37 336.145 180.442 336.815 183.468 338.811 184.644 342.745 188.08 344.242 190.446 345.723 193.253 345.007 195.859 345.241 196.842 340.42 197.348 342.681 196.905 335.563 197.756 308.333 196.974 314.028 197.029 306.762 196.228 306.544 195.432 306.31 194.637 306.076Z" fill-rule="evenodd" transform="matrix(1 0 0 1.00287 509.398 347.82)"/></g></svg>