<svg width="177" height="360" xmlns="http://www.w3.org/2000/svg" xmlns:xlink="http://www.w3.org/1999/xlink" xml:space="preserve" overflow="hidden"><defs><clipPath id="clip0"><rect x="640" y="360" width="177" height="360"/></clipPath></defs><g clip-path="url(#clip0)" transform="translate(-640 -360)"><path d="M358.095 365.176C356.864 361.964 352.336 339.584 352.32 339.507 351.818 337.177 351.74 336.279 351.965 335.605 352.081 335.272 352.135 334.855 352.088 334.676 352.034 334.467 352.057 334.382 352.143 334.436 352.708 334.784 352.228 333.33 351.477 332.401 351.052 331.882 350.897 331.557 350.826 331.069 350.525 328.917 350.293 327.741 350.16 327.686 349.976 327.616 350.37 326.673 350.78 325.595 348.868 322.646 349.333 323.467 349 321.246 348.829 320.108 348.829 319.921 349.015 319.426 349.417 318.342 349.41 318.25 348.675 317.25 347.816 316.067 347.638 315.633 347.638 314.697 347.638 313.295 347.22 314.224 347.552 312.768 347.793 311.724 347.785 311.7 346.57 310.438 345.394 309.215 345.842 309.803 343.877 300.53 333.697 252.665 336.786 272.366 328.588 236.92 325.67 224.317 325.641 224.146 325.988 224.146 326.174 224.146 326.901 224.534 327.111 224.734 328.341 225.966 331.197 225.857 330.787 224.595 330.687 224.277 330.029 221.6 329.339 218.696 328.86 216.676 323.697 199.606 322.66 195.743 321.639 191.951 318.193 185.301 317.233 182.646 315.23 177.094 309.254 168.332 306.924 165.275 304.555 162.17 304.385 162.518 308.806 161.418 311.553 160.738 311.986 160.305 312.288 157.943 312.42 156.899 312.165 157.068 316.909 154.777 323.054 151.804 323.077 151.626 323.775 148.994 324.641 145.72 324.812 147.345 324.41 144.195 324.247 142.886 324.239 142.623 324.347 142.251 324.735 140.974 324.727 140.858 324.208 139.921 323.937 139.434 323.612 139.008 323.489 138.969 323.248 138.907 323.287 138.396 323.565 138.048 324.116 137.351 323.628 135.284 322.66 134.239 321.29 132.761 323.171 133.481 320.771 130.764L321.011 130.09C321.948 127.45 327.467 126.01 329.549 125.716 332.328 125.329 334.881 123.688 332.629 123.742 330.857 123.781 329.929 122.217 331.469 122.929 332.745 123.525 332.575 122.852 334.185 122.086 334.734 121.822 334.812 121.737 334.881 121.273 334.928 120.986 335.044 120.723 335.138 120.684 335.416 120.576 335.183 120.135 335.563 120.034 335.873 119.957 335.949 119.662 335.787 119.175 335.695 118.904 335.726 118.679 335.888 118.316 336.406 117.162 335.726 117.433 334.526 116.187 333.976 115.614 333.852 115.552 333.288 115.521 332.451 115.474 332.435 115.474 332.514 115.343 332.986 114.584 335.594 114.786 337.343 115.722 338.844 116.527 338.814 116.527 338.814 115.614 338.814 113.988 337.545 113.477 335.71 112.564 336.545 111.395 336.81 110.984 340.137 110.729 340.78 110.683 340.184 109.529 339.271 109.049 338.829 108.817 338.505 108.778 337.064 108.763 336.136 108.755 335.393 108.693 335.408 108.631 335.548 108.128 336.306 106.541 335.663 105.898 335.462 105.697 335.052 105.806 335.052 106.053 335.052 106.704 333.535 107.725 332.374 107.857 330.609 108.051 332.073 107.137 332.073 106.642 332.073 106.549 332.157 106.378 332.257 106.262 332.59 105.898 332.428 103.468 332.018 102.686 331.777 102.229 331.755 101.896 331.948 101.772 332.141 101.649 331.708 101.192 331.399 101.192 331.05 101.192 330.895 100.565 330.423 100.062L330.129 99.7597C329.17 100.325 329.1 100.425 328.349 100.333 327.32 100.209 327.071 100.325 326.615 101.13 326.135 101.981 326.035 102.059 325.856 101.726 325.678 101.393 325.686 101.153 325.864 101.269 326.174 101.463 325.67 100.131 324.719 99.9455 324.479 99.8991 324.247 99.7829 324.208 99.6823 324.108 99.4191 323.704 99.5739 323.589 99.3803 323.465 99.1869 323.263 99.4887 322.946 99.1714 322.83 99.0552 322.715 98.9778 322.691 99.0011 322.103 99.8138 322.111 99.8062 321.305 99.7752L320.531 99.7442C320.19 100.541 320.122 100.874 319.424 101.285 318.852 101.625 318.828 101.656 318.891 102.144 319.03 103.22 317.993 103.166 319.154 104.977 319.804 105.991 319.502 106.812 318.805 105.953 318.673 105.79 318.464 105.535 318.333 105.38 317.938 104.915 315.454 104.404 315.136 104.722 315.028 104.83 317.35 107.803 317.466 107.958 317.203 107.873 316.947 107.818 316.12 107.4 313.913 106.278 311.089 106.162 310.105 107.145 309.942 107.307 309.919 107.292 311.065 107.865 314.758 109.715 315.601 111.658 315.601 111.658 313.588 111.232 312.969 111.163 311.499 110.404 309.85 109.552 309.517 109.638 309.919 110.799 310.36 112.061 312.629 114.801 313.241 114.801 313.55 114.801 313.294 115.018 312.574 115.374 311.391 115.954 309.556 118.145 310.43 117.936 314.138 117.054 314.525 117.905 315.252 117.913 315.561 117.913 315.547 117.967 315.083 118.47 314.687 118.904 314.679 118.904 313.983 118.78 312.837 118.571 311.94 119.314 312.365 120.111 312.637 120.615 310.764 121.428 311.506 122.047 311.599 122.124 311.753 122.519 311.855 122.914 312.055 123.742 312.055 123.742 312.79 123.835 313.094 123.874 313.364 123.959 313.388 124.029 313.727 124.988 314.672 125.089 315.694 124.284 316.692 123.494 316.831 123.448 317.566 123.626 318.928 123.951 318.14 124.733 318.921 125.886 319.634 126.932 319.812 127.698 319.495 128.302 319.316 128.642 319.185 128.619 318.72 128.162 317.791 127.249 317.056 128.48 317.396 130.361 317.497 130.903 317.49 131.027 317.374 130.88 317.203 130.663 316.475 130.237 316.275 130.237 316.204 130.237 315.763 131.011 315.307 131.956 313.186 136.283 312.598 134.41 308.953 140.819 308.132 142.259 306.197 144.388 305.856 144.226 304.919 143.769 304.555 143.676 304.277 143.854 302.705 144.829 298.983 148.267 297.364 148.267 297.241 148.267 296.923 147.438 296.978 147.252 297.039 147.051 298.572 132.668 298.603 131.429 298.626 130.632 299.377 130.988 300.639 129.827L301.227 129.285C301.135 124.981 301.057 125.794 301.66 124.988 302.542 123.804 301.986 122.573 299.718 120.708 296.096 117.727 291.769 112.262 291.738 110.636 291.738 110.543 291.211 109.854 290.577 109.103 282.186 99.2643 288.03 103.607 278.517 96.3923 276.504 94.8672 275.483 94.124 275.63 92.87 275.7 92.2662 274.593 90.6947 273.997 90.5398 273.874 90.5089 273.811 90.2766 273.803 89.7812 273.788 88.9993 273.494 88.7051 271.845 87.8769 270.552 87.2265 271.071 86.5841 267.828 84.8654 265.374 83.5649 266.814 82.4735 267.185 81.7458 268.022 80.0892 270.205 79.0672 272.239 77.1784 272.612 76.83 272.666 76.8223 273.548 76.8997 274.175 76.954 274.501 76.9383 274.562 76.8378 274.609 76.7604 274.763 76.6906 274.895 76.6906 276.094 76.6906 277.395 74.438 277.38 72.3866 277.372 71.6975 277.425 71.0937 277.496 71.0473 277.566 71.0008 277.619 70.8305 277.619 70.6602 277.619 70.0177 277.897 69.7003 278.873 69.2359 279.4 68.9882 279.826 68.7171 279.826 68.6321 279.826 68.2915 279.485 67.5405 279.246 67.3392 278.989 67.1303 278.989 67.1147 279.408 66.542 279.902 65.8529 279.91 65.7677 279.569 65.0555 278.866 63.6002 279.438 63.0428 281.815 62.8802 284.384 62.7099 285.08 61.4249 283.44 59.8921 282.666 59.1645 282.039 58.1503 281.382 56.5247 280.167 53.5443 278.819 53.2811 280.537 49.9368 280.963 49.1007 280.917 44.5257 280.461 42.7762 280.073 41.2821 279.16 39.61 277.094 36.591 276.884 36.2812 276.357 34.7098 276.249 34.3459 275.522 31.8533 265.552 22.076 246.96 26.148 245.117 26.5505 244.088 26.5118 243.679 26.024 241.566 23.4849 241.155 23.9106 239.499 23.2527 236.766 22.1611 234.491 23.2141 233.082 26.1945 232.943 26.4963 232.657 26.7209 232.037 27.0305 228.198 28.9193 229.754 32.9758 228.763 34.7408 226.301 39.1377 229.668 40.1828 228.222 43.7902 227.749 44.967 227.726 45.7333 227.516 47.7771 229.723 52.2283 229.954 51.64 230.017 52.9405 230.125 55.0694 231.402 55.348 231.89 55.9364 232.253 56.3699 233.5 56.2227 234.622 55.6034 236.031 54.8293 236.751 55.4796 238.136 58.7541 238.485 59.5825 238.593 59.1335 238.593 59.7373 238.593 60.2561 238.934 61.4637 239.189 61.8662 239.599 62.5086 239.916 63.5847 240.149 65.1329 240.868 69.979 240.18 70.0486 240.11 73.2071L240.094 73.9426C237.501 74.3528 237.911 72.6188 237.107 75.8779 236.735 77.3875 236.457 78.208 236.039 79.0053 235.737 79.5936 234.84 81.4824 234.832 81.4824 234.832 81.4824 232.339 84.3313 231.775 84.8501 230.822 85.7325 230.644 87.3117 229.993 87.7684 229.615 88.0394 229.901 88.2794 230.768 88.411 231.642 88.5426 231.449 88.651 232.331 88.8678 233.57 89.1774 232.958 88.7051 225.799 106.502 223.252 112.842 223.236 112.277 222.06 118.106 221.394 121.412 221.341 124.656 222.331 127.922 222.779 129.409 223.089 130.926 223.608 132.397 226.626 140.905 226.015 140.788 228.322 147.237 228.996 149.126 228.778 149.482 229.111 150.821 230.211 155.249 229.182 154.545 230.513 166.566 230.589 167.233 230.868 167.162 228.143 167.782 222.277 169.098 214.497 178.744 212.006 183.334 211.835 183.652 210.117 186.415 207.679 189.055 206.54 190.293 206.687 191.749 208.104 193.197 209.878 195.008 208.275 195.187 210.566 197.268 211.851 198.43 211.99 198.685 211.704 199.281 211.665 199.359 206.695 210.902 206.695 211.265 206.695 211.265 203.979 223.876 203.979 223.876 203.212 227.08 201.154 241.286 200.008 247.54 195.085 274.326 194.203 286.533 192.941 295.072 192.755 296.357 190.217 313.527 189.621 314.673 189.149 315.579 189.033 316.547 189.272 317.723 189.466 318.699 189.466 318.706 188.955 320.619 188.29 323.134 186.818 321.942 187.84 324.776 188.259 325.944 187.973 327.392 187.136 328.313 186.417 329.103 186.579 329.187 187.406 330.62L187.073 331.851C186.27 334.823 184.512 333.863 186.393 336.736 186.989 337.649 185.85 337.432 182.63 356.994 181.509 363.799 180.472 364.155 182.832 366.199 183.242 366.556 183.583 366.918 183.591 367.012 183.606 367.22 183.645 367.034 184.226 367.553 184.745 368.026 185.356 368.204 186.456 368.212 187.855 368.22 187.933 368.296 188.034 369.899 188.112 371.075 188.32 372.067 188.545 372.292 188.962 372.709 195.696 373.043 198.576 372.794 202.957 372.408 203.422 372.678 202.81 375.241 202.632 375.984 202.724 375.969 202.842 376.525 202.911 376.858 203.12 376.982 204.412 377.462 206.209 378.128 208.321 377.866 210.179 377.734 211.502 377.64 221.356 377.029 224.227 375.883 224.986 375.581 227.555 375.976 227.555 376.402 227.555 376.464 227.655 376.517 227.773 376.517 228.035 376.517 228.592 377.013 228.592 377.246 228.592 377.401 229.166 378.732 229.591 379.569 230.35 381.07 231.426 380.985 233.911 381.442 239.561 382.479 258.524 380.985 259.81 380.451 260.435 380.188 277.078 378.724 277.155 378.716 285.39 377.834 294.64 378.624 294.64 378.624 294.664 378.608 307.079 378.005 307.11 378.005 309.068 377.942 310.244 377.679 311.181 377.509 320.408 380.319 318.967 379.645 321.112 380.164 327.559 381.728 332.637 382.495 335.571 382.726 338.319 382.943 338.35 382.936 338.272 381.634 338.203 380.598 337.776 379.916 336.878 379.429 336.523 379.235 336.228 379.026 336.228 378.971 336.228 378.824 335.447 378.755 335.447 378.585 335.447 378.522 335.385 378.469 335.314 378.469 335.138 378.469 333.891 377.564 333.891 377.431 333.891 377.215 333.016 376.804 331.963 376.517 330.648 376.17 326.274 372.817 327.04 372.749 327.738 372.678 326.607 372.655 334.997 372.57 344.208 372.476 344.967 372.408 345.966 371.518 346.082 371.416 346.236 371.34 346.307 371.34 346.484 371.34 346.771 370.797 347.514 369.784 349.488 367.105 348.512 367.152 352.437 367.36 355.022 367.499 358.474 366.16 358.095 365.176Z" fill-rule="evenodd" transform="matrix(1.00161 0 0 1 458.301 337.168)"/></g></svg>