<svg width="267" height="360" xmlns="http://www.w3.org/2000/svg" xmlns:xlink="http://www.w3.org/1999/xlink" xml:space="preserve" overflow="hidden"><defs><clipPath id="clip0"><rect x="640" y="360" width="267" height="360"/></clipPath></defs><g clip-path="url(#clip0)" transform="translate(-640 -360)"><path d="M254.754 359.529C253.354 359.188 252.835 358.763 252.353 358.656 251.374 358.437 250.469 357.967 249.543 357.619 245.758 356.191 243.98 353.845 241.519 352.144 241.366 352.038 241.157 351.862 240.965 351.833 240.717 351.796 240.188 352.068 240.031 352.258 239.826 352.505 239.578 352.502 238.464 352.985 237.706 353.313 235.525 353.672 234.707 353.602 234.007 353.543 233.764 353.673 232.534 354.776 231.829 355.409 231.139 355.986 231 356.057 229.736 356.72 226.864 356.631 225.108 356.903 224.825 356.946 225.513 356.991 216.616 356.137 212.547 355.746 212.407 355.775 211.838 355.57 210.122 354.953 208.036 352.826 207.32 351.751 206.783 351.003 206.335 351.144 205.958 351.115 205.644 351.092 205.331 351.032 205.015 351.012 204.344 350.968 203.683 351.054 203.016 351.05 202.625 351.048 199.492 350.945 198.825 350.862 196.647 350.595 195.327 349.94 194.307 349.063 193.209 348.114 193.938 348.269 191.543 347.819 191.021 347.72 190.195 347.959 188.636 347.223 187.589 346.73 186.153 345.74 186.365 344.601 186.463 344.08 187.029 342.809 187.343 342.409 187.875 341.731 190.004 339.612 190.155 339.612 190.414 339.61 190.671 338.878 190.779 338.699 192.166 336.379 193.903 335.586 195.365 334.802 196.579 334.149 197.763 333.404 198.94 332.691 199.294 332.477 199.428 332.405 199.293 332.002 199.208 331.753 199.204 331.493 199.114 331.251 199.018 330.999 198.794 330.839 198.68 330.608 197.686 329.47 197.159 327.169 197.648 326.109 198.754 323.714 198.851 325.248 199.296 322.352 199.907 318.387 201.239 316.988 203.327 315.67 203.062 311.433 203.181 305.504 203.298 305.108 203.489 304.463 203.227 304.935 203.43 303.276 204.333 295.83 204.396 295.266 204.666 294.649 205.17 293.497 204.634 293.98 205.751 291.145 206.174 290.076 206.215 289.858 206.229 288.549 206.245 287.286 206.29 287.028 206.613 286.306L206.977 285.49C206.36 282.439 206.459 282.827 206.297 282.192 205.96 280.857 206.469 278.521 207.399 277.135 207.544 276.919 207.768 276.39 207.894 275.963 208.215 274.879 208.389 274.613 208.295 274.459 208.254 274.393 208.311 274.247 208.423 274.135 208.535 274.024 208.626 273.787 208.626 273.607 208.626 273.427 208.829 273.033 209.081 272.725 209.91 271.714 210.031 269.092 210.442 266.814 211.316 261.972 211.495 257.019 211.976 252.116 221.739 152.698 222.046 165.183 227.965 92.8081 228.119 90.9349 227.816 91.8775 228.252 85.0521L227.928 84.9708C227.114 84.7667 226.781 84.1554 226.861 83.0107 227.01 80.8635 227.06 80.2675 227.132 79.8137 227.182 79.4887 227.143 79.2874 227.004 79.1479 226.72 78.8645 226.29 77.8887 226.046 77.6377 224.964 76.5298 225.484 74.75 227.312 73.3104L227.922 72.8294C228.012 70.3346 228.061 70.7842 227.657 68.8517 226.45 63.0925 226.694 51.4523 226.917 49.7201 227.142 47.957 227.118 46.2684 227.255 44.6352 227.335 43.6968 227.121 42.4848 226.79 41.9992 226.289 41.2628 226.433 38.0632 226.969 38.0331 227.05 38.0286 226.991 37.9743 226.837 37.9124 226.545 37.7946 225.759 36.6988 225.486 36.03 225.399 35.8159 225.242 35.4414 225.136 35.1977 224.905 34.6664 224.993 33.4428 225.307 32.8361 225.49 32.4807 225.492 32.3949 225.319 32.0284 224.188 29.6325 223.856 28.563 224.008 27.8248 224.065 27.5561 224.1 27.2909 224.088 27.2356 224.065 27.1365 224.939 24.6684 225.323 23.7491 225.589 23.1148 225.465 22.6535 224.831 21.8841 224.295 21.2361 223.682 20.2679 223.62 19.9739 223.602 19.8837 223.541 19.7038 223.485 19.5742 223.304 19.1514 223.657 16.5443 223.918 16.3826 224.026 16.3161 224.014 16.2215 223.876 16.039 223.602 15.6773 223.776 15.5573 223.466 14.6841 223.259 14.1004 223.189 12.3748 223.333 11.44 223.475 10.5221 223.583 10.074 223.696 9.93146 223.863 9.7206 223.958 8.58527 223.809 8.58527 223.645 8.58527 222.819 7.46314 222.441 6.99966 221.241 5.52844 221.85 3.58072 223.686 3.01536 226.478 2.156 226.524 1.87269 227.89 0.83451 228.066 0.701455 228.31 0.573168 228.456 0.414634 229.08-0.251224 227.068 0.0305117 236.953 0.257357 239.498 0.315811 245.265 0.448134 247.229 0.493219 248.904 0.531648 250.602 1.1757 251.64 2.52056L252.289 3.36189C252.699 3.3976 253.898 3.49506 254.299 3.56551 260.926 4.72926 267.495 4.22628 279.994 8.08366 304.476 15.64 310.895 26.6329 317.101 40.3956 318.875 44.3298 320.252 48.4813 321.229 52.6828 323.254 61.3815 323.243 67.784 323.054 75.5209 322.994 77.998 323.209 80.6593 322.865 83.1085 322.376 86.5975 322.48 86.9145 323.988 86.5054 328.019 85.4124 326.5 85.4829 339.988 86.5615 342.004 86.7226 343.959 86.5154 344.318 86.9561 344.5 87.1791 344.324 87.5408 344.237 87.7673 343.622 89.3881 343.965 88.9868 344.137 89.703 344.26 90.2258 344.713 90.0669 345.647 90.9305 345.968 91.2274 346.436 91.5733 346.686 91.7 347.425 92.0739 348.83 93.397 349.622 94.4654 352.354 98.1521 351.31 96.7298 353.83 101.235 354.737 103.049 356.6 105.904 357.029 106.976 357.38 107.854 357.751 108.728 358.172 109.582 358.251 109.74 358.672 110.839 358.9 110.839 359.143 110.839 360.146 110.165 361.316 109.866 362.103 109.665 362.298 109.498 363.297 108.164 364.933 105.984 365.518 105.528 367.692 104.74 369.117 104.222 369.013 104.297 369.856 103.181 372.363 99.8685 372.051 101.376 373.277 99.9837 373.806 99.3817 374.301 99.1696 375.193 99.1632 375.556 99.1603 375.764 98.9819 376.894 97.697 378.563 95.7992 379.339 95.1169 382.759 92.5427 386.498 89.7268 389.165 86.7204 389.569 84.8674 390.391 81.08 389.522 79.2184 386.682 78.6841 384.983 78.3641 384.47 78.1527 383.653 77.4322 382.236 76.1838 380.293 76.7857 380.293 73.3335 380.293 71.9816 380.225 71.7321 379.679 71.0758 379.359 70.6914 379.306 69.8677 379.564 69.2962 379.794 68.7916 378.419 68.352 378.95 67.1206 379.592 65.6303 379.432 65.0681 378.087 64.0906 376.788 63.1464 376.561 61.7091 377.581 60.8799 380.212 58.7397 380.6 57.0035 380.949 56.7878 381.257 56.5976 381.066 56.1291 380.616 55.9658 380.061 55.7654 380.128 55.5855 380.755 55.5855 381.341 55.5855 381.365 55.5576 381.355 54.884 381.275 49.1926 381.653 53.186 382.246 46.9198 382.34 45.9276 382.645 45.0495 382.872 44.1053 384.297 38.1688 389.073 35.3659 394.929 33.7533 398.248 32.8391 401.848 32.1922 405.295 32.5245 411.575 33.1295 412.666 34.2546 414.549 35.536 415.872 36.4366 417.724 38.0744 418.055 38.6347 418.234 38.9402 418.539 39.3141 418.731 39.4653L419.081 39.7406C419.687 39.0108 419.691 39.008 420.731 37.8767 421.706 41.3998 421.546 41.3658 422.782 41.2211 424.207 41.0545 425.586 41.7155 426.16 42.8407L426.456 43.4224 427.765 43.6365C432.347 44.3862 435.042 47.9062 434.019 51.8038 433.802 52.6298 433.792 52.7817 433.953 52.8714 435.425 53.6955 436.522 55.0604 436.411 55.9321 436.384 56.1545 436.449 56.5466 436.555 56.8034 436.715 57.1862 436.724 57.397 436.605 57.9737L436.458 58.6772C438.153 60.5921 438.06 60.3693 437.498 62.5521 438.569 64.3278 438.714 64.4359 438.359 65.1147 437.926 65.9461 438.454 66.6596 437.501 66.5071 436.997 66.4265 436.997 66.4268 436.997 66.8746 436.997 67.1807 436.897 67.4162 436.683 67.6172 436.221 68.0516 436.362 68.4286 435.917 68.6315 435.623 68.7651 435.615 68.8016 435.745 69.4331 436.016 70.754 435.236 71.4947 435.556 72.5669 435.814 73.4269 435.768 74.064 435.408 74.6083 435.107 75.0621 435.094 75.149 435.213 75.8868 435.36 76.7987 435.361 76.6427 434.362 78.4302L434.641 79.2996C435.129 80.8153 435.033 81.2533 434.37 80.532 434.135 80.2746 433.618 79.9374 433.205 79.7691 431.449 79.0565 431.206 78.5574 431.856 76.9913 432.434 75.597 432.448 75.779 431.687 74.9457 431.336 74.5616 430.993 74.0569 430.925 73.8246 430.856 73.5923 430.697 73.0386 430.57 72.5949 430.339 71.7832 430.12 71.6263 430.12 72.2749 430.12 72.6323 429.755 73.9706 429.449 74.7392 429.296 75.1254 429.314 75.2677 429.629 76.1666 430.38 78.3065 430.376 78.3568 429.218 80.993 428.693 82.1888 428.679 82.2556 428.76 83.2084 428.857 84.3416 428.709 84.8271 427.998 85.7022 427.04 86.88 427.857 87.5221 426.506 87.7027 425.444 87.845 424.948 86.0769 425.497 84.0993L425.733 83.2472C424.809 81.8178 424.097 80.9369 425.166 79.4247 427.164 76.6044 425.521 78.3238 425.426 75.0534 425.391 73.8656 425.267 73.4586 425.152 74.164 425.111 74.4157 424.825 74.9895 424.517 75.4381 423.772 76.5232 423.753 76.5837 424.027 77.0366 424.995 78.638 423.82 80.2732 422.822 81.8926 422.98 82.2909 423.243 82.8776 423.243 83.353 423.243 83.8017 424.035 85.3412 424.745 86.2702 425.235 86.9123 425.293 87.1547 424.983 87.2725 424.18 87.5811 422.249 86.8118 421.555 85.905 420.965 85.137 420.795 85.0161 420.307 85.0161 419.603 85.0161 419.428 84.7185 419.755 84.0771 420.314 82.9812 419.542 82.8145 420.268 82.1773 420.657 81.8343 420.785 81.1511 420.532 80.7528 420.253 80.3141 419.613 81.2159 419.61 82.0501 419.608 82.3786 418.96 82.5871 418.96 82.0823 418.96 81.7415 418.583 81.1439 418.313 81.0583 417.681 80.8577 418.003 80.1179 419.463 78.4273 420.105 77.6831 420.185 77.6299 420.384 77.811 421.282 78.6229 421.812 76.2895 421.09 74.7112L420.755 73.9777C421.328 72.8187 421.417 72.7295 420.852 72.9445 419.79 73.3479 419.043 72.2858 419.544 71.0864 420.051 69.8724 419.383 70.5279 418.846 69.4733 418.355 68.5111 418.279 68.5138 417.233 69.532 416.72 70.0324 416.078 70.5675 415.808 70.7207 412.554 72.5633 410.535 77.9938 412.028 80.883 412.14 81.1002 412.492 81.9472 412.808 82.7662 414.325 86.6938 416.046 87.9326 417.925 90.9636 419.399 93.3451 420.342 94.3662 421.755 98.5763 422.541 100.917 422.528 100.215 423.15 102.683 424.086 106.397 425.604 106.454 425.39 108.425 425.105 111.074 425.317 121.836 418.377 134.651 417.498 136.286 412.015 146.985 411.765 147.501 411.235 148.598 410.57 149.649 411.006 150.896 412.104 154.028 413.667 152.329 414.69 154.481 415.143 155.432 415.15 155.302 413.965 156.099L414.347 156.503C414.557 156.725 415.608 157.531 416.683 158.294 420.734 161.172 423.855 165.338 424.287 165.729 424.651 166.056 429.767 173.826 430.483 175.136 434.873 183.175 439.49 199.715 441.533 208.551 449.041 240.993 449.735 277.93 450.367 286.669 452.427 315.169 451.326 315.006 452.317 324.559 453.469 335.684 453.349 349.944 452.771 350.323 451.26 351.313 441.77 353.508 438.943 353.521 437.223 353.529 434.556 353.293 432.132 352.916 429.749 352.546 429.441 352.667 426.334 351.612 425.431 351.305 424.668 351.076 424.642 351.102 424.616 351.128 423.837 351.269 422.913 351.416 420.291 351.831 420.269 351.839 417.403 353.509 415.335 354.715 414.207 354.477 412.213 354.751 409.881 355.071 405.868 353.797 403.584 353.044 402.098 352.555 401.696 352.532 401.232 352.463 400.025 354.6 399.657 355.313 399.121 355.313 398.668 355.313 396.122 354.535 395.221 353.939 394.174 353.246 391.822 352.991 389.46 353.314 388.142 353.493 387.738 353.509 387.542 353.386 384.188 351.291 381.909 353.949 375.946 353.48 374.4 353.36 371.869 353.011 371.394 352.854 370.925 352.699 369.465 352.523 368.955 352.455 367.825 353.524 367.378 354.098 362.309 353.836 360.037 353.718 359.623 353.8 353.239 355.626 352.097 355.953 350.862 356.311 350.495 356.423 349.076 356.855 339.915 358.386 339.941 356.689 339.953 355.925 340.989 355.042 342.332 354.65 345.267 353.794 345.877 353.601 346.199 353.421 346.395 353.312 346.557 353.269 346.558 353.326 346.56 353.384 346.603 353.368 346.655 353.291 346.708 353.214 347.189 352.951 347.723 352.707 349.244 352.013 352.428 349.734 352.593 349.734 352.693 349.734 352.812 349.558 353.402 349.209 354.086 348.803 353.163 348.467 351.959 348.685 351.719 348.727 348.384 348.438 347.465 348.294 345.644 348.009 342.55 346.549 341.224 345.351 340.008 344.251 339.905 344.205 338.446 344.106 333.048 343.741 332.998 343.413 329.559 340.341 329.574 333.468 332.95 303.629 334.619 292.702 335.808 284.907 337.065 274.327 337.536 270.967 338.535 263.839 338.281 251.911 339.2 249.462 339.789 247.893 343.406 231.504 343.813 229.489 349.392 201.948 349.224 201.09 350.921 195.574 354.886 182.693 357.715 177.035 361.416 169.167 362.151 167.604 362.173 167.516 361.93 166.939 361.529 165.982 361.99 164.692 363.714 161.949 365.386 159.289 365.852 158.608 367.022 157.116 368.71 154.962 370.282 151.243 368.676 153.204 368.331 153.625 368.072 153.807 367.732 153.871 366.932 154.022 362.443 157.308 362.203 157.068 361.701 156.564 362.392 155.833 365.823 153.239 367.153 152.234 367.155 152.231 367.215 151.599 367.288 150.855 367.561 150.618 368.251 149.776 368.251 149.764 368.791 141.504 368.653 140.782 368.578 140.387 368.745 139.019 369.134 136.856 369.687 133.785 370.035 130.469 369.827 130.26 369.779 130.213 369.497 130.316 369.201 130.489 368.697 130.786 368.206 130.74 367.67 130.857 366.243 131.166 362.664 133.432 360.116 133.484 358.729 133.512 358.601 133.603 358.249 134.799 355.26 145.009 347.594 157.694 334.736 178.534 290.309 250.538 307.909 220.282 263.283 291.634 253.817 306.768 253.054 308.182 244.046 322.275 243.962 322.409 242.974 323.834 243.165 323.963 243.416 324.135 248.213 324.995 250.416 329.498 250.652 329.979 250.936 330.419 251.153 330.914 252.34 333.58 252.555 336.179 250.833 338.593 250.09 339.633 249.142 340.554 247.812 340.701 247.157 340.772 245.487 341.151 245.354 341.259 245.265 341.33 245.865 341.721 246.555 342.042 247.292 342.385 247.287 343.172 247.273 343.879 247.245 345.246 247.264 345.284 248.043 345.386 250.845 345.748 252.267 345.99 252.697 346.179 252.922 346.278 253.156 346.359 253.217 346.359 253.422 346.361 255.316 347.133 255.816 347.42 256.183 347.632 256.435 347.847 256.699 348.174 257.068 348.628 256.903 349.408 256.573 349.837 256.282 350.213 256.239 350.146 254.31 350.084 249.434 349.925 249.28 349.426 248.981 349.776 248.776 350.016 249.177 350.525 249.267 350.74 249.543 351.385 249.808 351.192 251.817 353.695 252.032 353.964 252.299 354.076 252.549 354.292 253.044 354.719 253.993 355.88 254.593 357.065 255.111 358.092 255.213 359.641 254.754 359.529ZM219.806 305.865C223.214 302.234 226.183 298.134 229.286 294.226 239.842 280.934 238.632 284.669 322.628 169.969 326.75 164.343 344.613 138.376 349.029 130.008 349.298 129.498 349.099 128.897 349.102 128.35 349.103 127.865 349.044 127.379 348.97 126.901 348.869 126.25 348.832 125.567 348.579 124.952 347.63 122.639 346.804 123.007 345.858 122.973 345.351 122.955 344.857 122.896 344.341 122.936 340.605 123.223 337.95 125.344 330.689 124.688 323.955 124.08 318.77 121.068 315.653 117.163 312.948 113.775 310.942 109.835 309.777 105.66 308.782 102.092 308.559 98.4592 308.453 94.7854 308.344 91.067 308.183 87.3488 308.186 83.6377 308.195 73.3701 305.314 59.7534 299.745 50.9987 293.717 41.5259 284.483 34.2784 276.047 30.7015 265.707 26.3179 257.918 26.1905 252.051 25.8407 251.236 25.7922 249.774 25.3978 249.17 26.1399 249.065 26.2665 249.058 26.2096 249.049 26.4272 249.033 26.8155 249.206 27.2851 249.324 27.6489 250.108 30.0629 249.651 31.9441 248.111 32.6384L247.61 32.8644C247.958 37.0347 248.166 38.5292 245.143 39.2878 244.832 39.3662 244.719 39.6457 244.944 39.7849 245.108 39.8861 244.85 40.8238 244.577 41.1163 244.378 41.3304 244.308 41.6699 244.145 41.9219 243.904 42.2961 243.631 42.6484 243.401 43.0301 243.317 43.1683 243.266 43.3226 243.197 43.4578 242.72 44.3855 243.16 44.4235 243.035 45.6987 242.91 46.9682 243.157 49.0513 243.053 53.6639 242.977 56.9717 242.005 63.1066 241.642 64.578 241.615 64.6888 240.933 66.7687 240.711 67.3422 240.121 68.8613 239.646 70.4196 239.123 71.9614 238.903 72.6144 238.308 73.6513 238.721 74.3322 239.577 75.7452 239.794 77.97 239.17 78.9055 237.971 80.6997 238.002 80.6241 238.025 81.8314 238.051 83.2718 237.334 84.4927 237.223 85.8804 236.649 93.0799 236.607 92.1702 236.455 95.0638 235.685 109.672 233.563 124.423 232.19 139.016 219.477 274.102 219.605 275.18 220.236 275.183 220.759 275.186 221.555 277.343 221.228 277.867 220.961 278.294 220.953 279.706 221.215 280.478 222.178 283.324 221.321 283.43 221.033 284.621 220.987 284.815 220.612 285.341 220.199 285.789 218.307 287.846 219.692 287.924 218.734 289.72 218.525 290.112 218.401 290.432 218.458 290.432 218.581 290.432 218.923 292.124 219.216 294.194 219.572 296.7 219.207 298.043 219.005 300.249 218.899 301.414 218.696 302.569 218.574 303.732 218.472 304.691 218.324 305.674 218.081 306.608 217.945 307.134 217.996 307.431 218.225 307.431 218.286 307.431 218.998 306.726 219.806 305.865ZM370.764 136.856C371.235 133.179 371.13 129.265 370.646 132.477 369.904 137.416 369.744 136.613 369.397 142.306 369.143 146.472 369.17 149.735 369.462 149.956 369.811 150.219 369.897 150.204 369.974 149.864 370.356 149.864 370.408 139.637 370.764 136.856ZM371.699 148.159C372.204 146.773 372.815 143.6 372.803 142.436 372.801 142.166 371.984 138.585 371.904 138.489 371.744 138.299 371.46 140.409 371.397 142.241 371.278 145.797 371.124 147.945 370.883 149.421 370.744 150.268 371.174 149.604 371.699 148.159ZM343.127 115.572C343.895 115.548 344.092 115.655 344.49 115.618 344.829 115.585 345.034 115.623 345.178 115.579 345.024 115.495 345.007 115.284 344.944 115.135 344.831 114.871 344.68 114.617 344.551 114.361 342.897 111.114 342.372 109.808 341.379 107.919 340.503 106.254 339.075 102.203 338.846 100.735L338.692 99.7441C337.993 101.564 337.791 102.437 336.661 100.857 336.228 100.253 335.958 100.02 335.397 99.7679 334.696 99.4521 334.677 99.4299 334.317 98.4541 333.965 97.5006 333.92 97.4431 333.156 96.9809 331.898 96.2186 331.126 95.4477 331.032 94.8588 330.988 94.5834 330.929 94.3583 330.901 94.3583 330.482 94.3583 327.476 96.1495 326.398 97.0426 325.708 97.6135 323.86 98.6296 323.124 98.8439L322.39 99.0574C322.745 103.163 322.752 104.981 323.397 107.084 324.037 109.177 324.996 111.382 326.71 112.808 327.83 113.739 330.021 114.777 330.855 114.908 334.768 115.522 334.476 115.509 340.44 115.564 341.815 115.564 342.238 115.6 343.127 115.572ZM426.368 85.8302C426.251 85.6296 426.233 85.6447 426.23 85.946 426.224 86.4866 426.41 86.8627 426.461 86.414 426.484 86.2199 426.442 85.9567 426.368 85.8302ZM426.85 80.2761C426.742 80.169 426.244 80.788 426.035 81.2871 425.807 81.8336 425.923 81.9148 426.312 81.4797 426.347 81.5495 426.986 80.412 426.85 80.2761ZM427.483 74.018C427.582 73.4096 427.337 73.4988 427.084 74.1625 426.719 75.1168 426.617 75.5726 426.699 75.8954 426.783 76.2313 427.338 74.9025 427.483 74.018L427.483 74.018ZM432.842 74.4724C432.839 73.9275 432.714 73.4665 432.569 73.4665 432.438 73.4665 432.418 74.164 432.536 74.6018 432.653 75.0362 432.844 74.9557 432.842 74.4724ZM421.198 72.2016C421.379 71.9975 421.863 70.6164 421.78 70.5346 421.761 70.5163 421.562 70.7214 421.336 70.9906 420.715 71.7306 420.583 72.8933 421.198 72.2016L421.198 72.2016Z" fill-rule="evenodd" transform="matrix(1 0 0 1.00089 453.768 360.145)"/></g></svg>