<svg width="143" height="354" xmlns="http://www.w3.org/2000/svg" xmlns:xlink="http://www.w3.org/1999/xlink" xml:space="preserve" overflow="hidden"><defs><clipPath id="clip0"><rect x="640" y="360" width="143" height="354"/></clipPath></defs><g clip-path="url(#clip0)" transform="translate(-640 -360)"><path d="M1144.97 476.525C1146.44 476.525 1147.86 476.63 1149.24 476.838L1149.24 476.838C1147.86 476.63 1146.44 476.525 1144.97 476.525 1143.5 476.525 1141.99 476.63 1140.42 476.838L1140.42 476.838C1141.99 476.63 1143.5 476.525 1144.97 476.525ZM1142.1 527.155C1142.1 527.155 1142.1 527.155 1142.1 527.155L1142.1 527.155C1142.1 527.155 1142.1 527.155 1142.1 527.155ZM1135.69 527.82C1135.68 527.82 1135.67 527.82 1135.66 527.82 1135.65 527.82 1135.64 527.82 1135.63 527.82ZM1134.87 533.516C1135.77 533.516 1136.78 533.666 1137.93 533.961 1136.78 533.666 1135.77 533.516 1134.87 533.516 1133.98 533.516 1133.22 533.666 1132.58 533.961L1132.58 533.961C1133.22 533.666 1133.98 533.516 1134.87 533.516ZM1147.98 760.681C1147.98 760.681 1147.98 760.681 1147.98 760.681L1147.97 760.681C1147.97 760.681 1147.97 760.681 1147.97 760.681ZM1143.57 760.696 1143.57 760.696C1143.56 760.696 1143.54 760.696 1143.52 760.696 1143.51 760.696 1143.49 760.696 1143.48 760.696ZM1197.27 806.576C1197.36 806.576 1197.46 806.581 1197.56 806.581 1197.46 806.581 1197.36 806.576 1197.27 806.576 1197.17 806.576 1197.08 806.581 1196.98 806.581L1196.98 806.581C1197.08 806.581 1197.17 806.576 1197.27 806.576ZM1153.81 812.083C1153.81 812.083 1153.81 812.083 1153.81 812.083L1153.81 812.083C1153.81 812.083 1153.81 812.083 1153.81 812.083ZM1173.75 820.726C1173.73 820.726 1173.71 820.726 1173.69 820.726 1173.67 820.726 1173.65 820.726 1173.63 820.726ZM1139.1 826.573 1139.1 826.573C1139.07 826.573 1139.03 826.573 1139 826.573 1138.97 826.573 1138.95 826.573 1138.92 826.573L1138.93 826.573C1138.95 826.573 1138.98 826.573 1139 826.573 1139.03 826.573 1139.06 826.573 1139.09 826.573ZM1136.35 826.617C1136.29 826.617 1136.23 826.617 1136.17 826.617 1136.11 826.617 1136.05 826.617 1135.99 826.617L1135.99 826.617C1136.05 826.617 1136.11 826.617 1136.17 826.617 1136.23 826.617 1136.29 826.617 1136.35 826.617ZM1166.59 473.331 1166.59 473.331 1157.67 479.07C1153.93 476.903 1149.68 475.819 1144.93 475.819 1142.28 475.819 1139.46 476.159 1136.49 476.838 1132.2 478 1128.78 480.844 1126.21 485.369 1124.08 489.342 1122.91 492.804 1122.73 495.754 1122.33 498.183 1123.35 501.806 1125.78 506.629 1123.96 511.527 1123.3 514.279 1123.81 514.893 1124.17 516.061 1125.49 516.8 1127.75 517.105 1127.38 517.839 1127.3 518.622 1127.53 519.451 1128.1 521.683 1129.02 522.901 1130.27 523.101 1129.96 525.228 1130.34 526.731 1131.41 527.62 1131.88 528.214 1133.33 528.514 1135.76 528.514 1137.28 528.514 1139.21 528.394 1141.52 528.154L1141.52 528.154 1141.39 529.502 1137.88 530.291 1137.33 533.237C1136.43 532.957 1135.59 532.822 1134.79 532.822 1133.45 532.822 1132.27 533.212 1131.22 533.996 1129.67 535.029 1127.37 537.541 1124.3 541.53L1124.2 542.074 1127.77 545.285C1120.13 554.382 1116.02 559.475 1115.46 560.558 1113.81 562.995 1113.1 564.922 1113.33 566.33L1086.7 547.562 1073.82 556.908 1067.57 550.877 1063 555.406 1067.59 562.076 1077.23 569.291C1081.58 574.119 1085.13 577.559 1087.9 579.606 1090.85 582.153 1097.71 585.678 1108.47 590.181L1108.65 590.431 1107.56 597.541 1117.3 607.876C1116.87 615.411 1113.18 647.136 1106.2 703.047 1103.85 721.231 1101.06 738.522 1097.85 754.909 1100.1 759.352 1116.46 761.574 1146.94 761.574 1147.1 761.574 1147.26 761.574 1147.43 761.574L1147.43 761.574C1149.31 775.61 1147.65 788.986 1142.45 801.713 1141.96 804.224 1138.54 808.873 1132.2 815.648 1124.79 819.148 1121.24 821.639 1121.54 823.122 1122.27 825.928 1127.63 827.331 1137.59 827.331 1137.72 827.331 1137.85 827.331 1137.98 827.331 1146.48 827.217 1151.66 823.137 1153.51 815.084L1153.71 823.372C1153.71 823.677 1153.92 823.826 1154.32 823.826 1154.63 823.826 1155.07 823.737 1155.63 823.562L1156.9 811.684C1159.97 809.796 1161.57 808.059 1161.7 806.486 1162.13 804.723 1161.28 801.388 1159.16 796.48 1159.09 793.434 1159.17 790.933 1159.42 788.961 1160.72 780.213 1163.25 770.951 1167.02 761.17L1169.24 761.225C1172.9 769.373 1175.32 775.155 1176.5 778.565 1179.18 786.01 1180.05 791.487 1179.11 794.992 1179.1 796.5 1177.54 800.135 1174.44 805.887L1173.33 809.711 1158.35 815.528C1156.41 816.512 1155.9 817.445 1156.81 818.339 1162.03 820.386 1167.62 821.41 1173.57 821.41 1176.64 821.41 1179.81 821.14 1183.08 820.596 1187.51 819.797 1191.05 815.728 1193.7 808.398 1194.46 807.639 1195.56 807.26 1196.99 807.26 1197.18 807.26 1197.38 807.265 1197.58 807.28 1197.67 807.27 1197.75 807.265 1197.83 807.265 1198.17 807.265 1198.35 807.36 1198.37 807.539L1199.77 819.508C1199.74 819.782 1199.98 819.917 1200.48 819.917 1200.84 819.917 1201.33 819.852 1201.95 819.717 1201.98 819.722 1202.01 819.727 1202.03 819.727 1202.27 819.727 1202.39 819.527 1202.4 819.128L1202.99 807.45C1204.97 805.532 1205.91 803.91 1205.77 802.586 1205.96 801.148 1205.1 798.497 1203.19 794.623 1195.89 783.354 1192.22 777.052 1192.17 775.714 1190.21 770.916 1187.59 762.228 1184.32 749.641L1188.88 747.524C1186.3 736.255 1184.44 726.244 1183.3 717.497 1182.94 716.703 1181.57 702.293 1179.19 674.268 1178.56 668.196 1177.82 662.709 1176.98 657.806 1174.97 644.185 1169.33 628.527 1160.05 610.827L1160.49 606.818C1165.33 599.778 1168.69 592.653 1170.59 585.448 1173.01 576.656 1174.51 567.498 1175.08 557.977 1175.42 549.953 1174.73 544.241 1173 540.841 1171.33 536.727 1167.49 533.402 1161.49 530.865L1162.55 528.803 1162.13 524.11 1159.35 523.531 1159.15 514.114C1162.91 513.21 1165.47 508.841 1166.84 501.007 1167.76 495.909 1167.18 492.054 1165.09 489.448 1171.28 489.4 1174.41 487.561 1174.5 483.932 1174.63 477.271 1171.99 473.738 1166.59 473.331Z" fill-rule="evenodd" transform="matrix(1.00141 0 0 1 -424.5 -113.331)"/></g></svg>