<svg width="194" height="360" xmlns="http://www.w3.org/2000/svg" xmlns:xlink="http://www.w3.org/1999/xlink" xml:space="preserve" overflow="hidden"><defs><clipPath id="clip0"><rect x="640" y="360" width="194" height="360"/></clipPath></defs><g clip-path="url(#clip0)" transform="translate(-640 -360)"><path d="M369.474 0.461951C370.706 0.0495751 372.039 0.344511 373.284 0 376.812 0.201025 381.694 0.411013 387.107 4.5244 389.381 6.34059 391.058 8.04297 392.66 10.4582 393.251 11.5114 393.975 12.4849 394.504 13.5745 395.837 16.067 396.48 18.8415 397.619 21.4162 401.947 33.7011 400.392 31.7039 400.913 34.4401 400.969 34.7883 400.918 37.636 401.342 38.7036 401.557 39.2581 401.377 39.8754 401.586 40.4314 401.921 41.3266 402.17 42.2493 402.515 43.1406 402.708 44.0776 403.389 44.8384 403.537 45.7833 403.279 45.6723 403.108 45.4531 402.973 45.2181 403.173 45.624 403.185 46.0769 403.208 46.5192 403.686 48.6718 404.101 48.9653 404.414 49.7543 404.587 50.078 404.481 50.4551 404.539 50.8036 404.64 51.0281 404.798 51.2199 404.913 51.4392 405.01 51.7496 405 52.0929 405.158 52.3865 405.54 52.9916 406.102 52.8775 406.928 55.1846 407.409 56.7165 408.695 58.2453 408.369 59.5811 408.294 59.5679 408.146 59.5406 408.071 59.5276 407.994 58.9403 407.6 58.4821 407.368 57.9563 407.233 58.0568 407.095 58.156 406.964 58.2565 406.709 58.0464 406.472 57.8194 406.217 57.6119 406.269 58.2787 406.434 58.9324 406.446 59.6033 406.466 60.4332 406.806 61.224 406.794 62.0592 406.738 62.4729 406.69 62.8893 406.747 63.3069 406.948 63.4335 407.191 63.5549 407.229 63.8185 406.742 64.0474 406.581 63.8697 407.114 65.7251 407.243 66.2249 407.624 66.602 407.844 67.0587 407.99 67.4867 408.017 67.9513 408.223 68.3638 408.431 68.7971 408.309 69.293 408.411 69.751 409.021 72.4969 408.191 70.2379 409.237 73.2473 409.336 73.5916 409.774 73.693 409.86 74.0431 409.966 74.4413 410.024 74.8523 410.083 75.2607 410.281 77.0735 412.076 79.3649 412.352 80.6933 412.201 80.6803 412.05 80.6674 411.903 80.6567 411.989 81.2575 412.304 81.7829 412.532 82.335 412.577 82.892 412.543 83.4534 412.466 84.0069 412.408 84.3749 412.898 86.322 412.896 87.1321 412.901 88.8543 413.541 89.5653 413.663 89.9549 413.863 90.4444 413.821 91.0092 414.119 91.4621 414.64 92.3405 414.977 93.3073 415.381 94.2417 415.735 95.639 416.136 97.9794 416.145 98.1583 416.194 98.3827 416.021 98.5645 415.951 98.765 415.642 99.4882 416.079 100.276 415.831 101.01 415.527 102.079 415.956 101.774 415.668 103.416 415.928 103.677 415.948 104.041 415.962 104.39 415.828 104.31 415.702 104.231 415.578 104.15 415.591 104.634 415.635 105.119 415.779 105.585 415.992 106.286 415.906 107.023 415.951 107.745 415.802 107.732 415.655 107.72 415.51 107.71 415.482 107.173 415.491 106.63 415.382 106.103 415.167 105.444 414.888 104.799 414.801 104.106 414.758 103.743 414.684 103.361 414.418 103.09 414.311 104.413 415.799 114.744 416.134 116.319 416.251 116.786 416.062 117.257 416.137 117.728 416.23 118.4 416.374 119.067 416.461 119.741 416.317 119.775 416.178 119.808 416.04 119.842 415.898 119.09 415.886 118.136 415.112 117.737 415.07 116.641 414.645 115.616 414.1 114.681 413.892 115.169 414.128 115.674 414.222 116.16 414.363 116.643 414.305 117.159 414.462 117.64 414.636 118.221 414.89 118.779 415.053 119.366 414.69 119.353 414.502 119.071 414.315 118.808 414.101 118.691 413.871 118.605 413.692 118.438 413.432 118.48 413.172 118.517 412.915 118.557 412.947 118.04 412.593 117.65 412.363 117.224 412.134 116.83 411.697 116.637 411.347 116.372 411.398 115.616 411.498 114.63 410.837 114.102 410.778 115.192 411.348 116.23 411.181 117.325 410.927 118.666 412.259 121.691 412.45 122.359 412.527 122.791 413.027 122.946 413.15 123.356 413.235 123.577 413.287 123.81 413.341 124.044 412.962 124.053 412.632 123.872 412.317 123.692 412.349 124.143 412.487 124.577 412.696 124.977 412.478 125.203 412.256 125.423 412.037 125.648 411.913 125.511 411.791 125.375 411.672 125.242 411.602 125.648 411.72 126.276 411.174 126.369 411.142 126.645 411.119 126.923 411.093 127.202 410.907 127.055 410.722 126.91 410.532 126.772 410.548 126.996 410.573 127.223 410.595 127.452 410.014 127.518 409.786 128.132 409.739 128.639 409.538 128.593 409.343 128.535 409.158 128.452 409.055 128.502 408.955 128.553 408.859 128.605 408.788 128.416 408.717 128.229 408.646 128.046 408.461 128.151 408.287 128.267 408.114 128.385 407.952 128.31 407.794 128.238 407.635 128.168 407.323 128.39 406.928 128.337 406.568 128.359 406.269 128.925 406.474 129.482 406.474 131.76 406.36 134.037 405.732 136.238 405.293 138.464 404.824 140.029 404.972 142.918 402.405 145.487 400.746 146.646 400.237 148.03 397.664 150.937 396.952 152.005 396.615 153.276 396.289 154.504 396.061 156.218 394.919 157.648 394.745 159.372 394.378 162.211 393.087 163.648 392.86 164.274 392.846 164.655 393.405 164.718 393.477 165.071 393.58 165.678 393.788 166.264 393.88 166.872 393.871 168.911 398.523 175.383 396.142 187.119 396.13 187.653 396.09 188.184 395.895 188.688 395.714 191.874 392.388 199.566 392.054 200.129 391.119 202.097 387.448 206.694 387.075 207.031 386.468 207.602 385.788 208.267 385.727 209.144 385.858 209.643 385.717 210.172 385.38 210.558 385.131 210.793 384.727 210.628 384.463 210.815 384.299 211.318 384.193 211.846 384.166 212.376 384.332 212.903 385.038 213.2 384.891 213.836 384.908 214.366 384.344 214.514 383.957 214.685 383.979 215.369 384.365 216.008 384.211 216.706 383.872 218.22 384.368 219.749 384.207 221.272 384.01 222.253 384.162 223.258 384.031 224.247 383.862 225.326 384.116 226.424 383.904 227.5 383.786 227.949 384.018 228.391 383.966 228.847 383.722 230.186 383.891 231.556 383.835 232.909 383.78 233.546 384.291 234.148 384.018 234.776 383.821 235.26 383.806 235.784 383.841 236.3 384.018 237.715 384.047 239.146 384.281 240.554 384.362 241.001 384.574 241.409 384.679 241.852 384.782 242.166 384.599 242.483 384.634 242.805 386.548 251.593 385.752 253.941 385.957 257.02 386.349 257.911 386.323 259.023 385.662 259.784 385.951 260.629 385.79 261.615 386.358 262.356 387.167 263.433 386.921 265.381 386.995 266.025 387.203 266.685 387.643 267.244 387.872 267.896 387.84 268.308 387.679 268.723 387.788 269.14 387.945 269.654 388.366 270.068 388.405 270.624 388.45 271.224 388.312 271.856 388.556 272.431 388.902 273.437 389.054 274.497 389.233 275.542 392.271 286.734 390.095 299.024 388.303 310.433 388.309 311.546 388.015 312.626 387.797 313.711 387.268 318.161 386.837 321.119 386.837 321.119 386.837 321.571 386.602 322.03 386.796 322.473 387.11 323.293 386.985 324.195 386.849 325.039 386.798 326.148 386.907 327.263 386.802 328.371 386.751 328.622 386.918 328.839 387 329.068 388.35 329.118 389.724 329.241 390.978 329.783 391.484 330.249 391.796 330.882 392.185 331.442 392.326 331.65 392.576 331.811 392.576 332.091 392.632 332.71 392.867 333.291 392.989 333.896 393.178 335.03 393.89 336.005 394.057 337.145 393.861 337.251 393.666 337.361 393.476 337.474 393.544 338.138 394.164 338.555 394.386 339.169 394.909 339.854 394.527 340.742 394.781 341.51 394.889 342.024 395.224 342.443 395.486 342.889 395.947 343.557 395.793 344.456 396.252 345.128 396.556 345.555 396.919 345.937 397.263 346.334 397.733 346.797 397.79 347.504 398.173 348.031 398.494 348.436 398.467 348.971 398.581 349.453 398.776 350.485 399.194 351.545 398.892 352.602 398.23 355.981 387.595 356.516 384.726 357.227 384.223 357.314 383.708 357.226 383.205 357.297 381.839 357.596 380.507 356.874 379.133 357.002 376.932 356.671 375.39 357.783 372.926 358.231 369.977 358.803 366.786 358.79 363.798 359.047 358.551 359.497 352.914 359.548 347.678 358.97 346.493 358.999 345.35 358.637 344.18 358.528 341.421 358.136 338.645 357.952 335.91 357.385 335.074 357.213 334.175 356.972 333.661 356.292 332.999 355.416 333.257 354.101 333.956 353.253 335.096 351.865 337.651 350.504 339.359 350 340.357 349.673 341.225 349.056 342.192 348.66 343.643 347.985 347.51 347.147 348.731 345.93 349.206 345.278 349.861 344.791 350.33 344.139 350.603 343.804 350.815 343.384 351.237 343.214 351.73 342.982 352.088 342.528 352.623 342.382 354.489 341.818 354.563 340.81 355.633 340.299 356.102 340.029 356.642 339.869 357.046 339.494 358.691 338.195 358.858 338.357 358.917 337.469 358.775 337.39 358.637 337.328 358.498 337.261 358.476 337.071 358.47 336.843 358.274 336.754 357.908 336.398 356.366 337.566 355.066 338.173 354.481 338.437 354.094 338.974 353.546 339.295 353.444 339.146 353.344 338.999 353.247 338.86 354.388 337.397 356.482 337.03 358.225 335.587 358.931 335.16 359.726 334.847 360.316 334.251 360.454 333.957 360.327 333.655 360.208 333.387 359.975 332.896 360.101 332.338 360.069 331.82 360.024 330.883 360.324 329.886 361.019 329.237 361.658 328.853 362.382 328.633 363.102 328.452 363.338 328.407 363.483 328.206 363.651 328.057 363.48 327.831 363.142 327.638 363.266 327.315 363.499 326.087 363.307 324.597 364.35 323.692 364.623 323.492 364.473 323.139 364.447 322.871 364.34 322.374 364.508 321.879 364.505 321.382 364.524 321.138 364.462 320.796 364.774 320.726 364.97 320.579 365.408 320.674 365.417 320.367 365.074 320.126 364.65 320.013 364.35 319.718 364.008 319.327 364.19 318.776 364.049 318.321 363.942 317.761 363.568 317.268 363.603 316.683 363.603 315.445 363.178 315.604 362.439 315.355 362.349 315.031 362.285 314.701 362.278 314.37 362.487 314.199 362.921 314.135 362.934 313.823 362.23 312.628 360.288 308.112 360.04 307.46 358.727 304.361 357.059 301.16 357.059 301.16 356.713 300.325 356.41 299.454 355.817 298.756 355.368 298.22 355.403 297.481 355.059 296.897 354.144 294.945 353.051 293.072 352.28 291.06 352.094 290.627 351.641 290.408 351.221 290.267 351.006 289.824 351.108 289.348 351.157 288.886 350.513 287.303 346.654 281.105 345.673 277.812 345.124 277.753 344.455 277.943 344.031 277.491 343.836 276.87 344.269 276.382 344.672 275.977 345.063 275.68 343.604 274.225 342.937 273.517 342.596 273.151 342.416 272.666 342.063 272.312 341.604 271.944 341.061 271.654 340.752 271.137 340.415 270.553 339.96 270.033 339.74 269.39 339.593 269.059 339.526 268.69 339.307 268.401 339.137 268.144 338.804 268.222 338.549 268.157 338.2 268.044 337.938 267.772 337.672 267.538 337.402 267.074 337.38 266.516 337.113 266.052 333.809 260.458 332.868 257.38 333.679 249.216 333.755 248.287 333.603 247.346 333.779 246.425 333.875 245.825 333.77 245.208 333.934 244.62 334.11 243.988 334.101 243.332 334.085 242.686 334.031 241.363 336.448 217.392 338.2 210.518 338.33 209.232 339.443 204.799 339.456 204.727 339.657 203.485 340.348 202.351 340.405 201.086 339.744 198.898 340.294 191.439 340.355 189.57 340.355 188.995 340.647 188.465 340.618 187.888 340.561 186.173 341.042 184.493 341.012 182.783 341.007 182.469 341.081 182.165 341.123 181.86 341.187 181.384 341.032 180.921 341.02 180.449 340.996 180.092 341.039 179.719 340.884 179.389 340.686 178.907 340.013 178.615 339.642 176.321 337.577 169.001 338.55 171.767 337.804 168.25 335.905 161.948 336.192 160.621 336.178 159.17 336.189 158.393 336.102 157.6 336.327 156.845 336.455 156.431 336.371 155.949 336.651 155.592 336.928 155.148 337.3 154.679 337.204 154.121 336.831 154.072 336.459 154.006 336.102 153.893 336.041 153.529 336.015 153.157 335.905 152.805 335.768 152.653 335.546 152.647 335.37 152.583 335.382 152.162 335.711 151.802 335.645 151.38 335.531 151.22 335.344 151.147 335.163 151.226 334.512 151.398 333.834 151.333 333.167 151.343 332.285 151.384 331.801 150.385 330.941 150.317 329.112 150.276 327.4 148.221 327.506 145.859 327.561 145.192 327.482 144.509 327.676 143.858 327.757 143.594 327.668 143.324 327.62 143.066 327.339 143.009 327.06 142.948 326.784 142.871 326.268 143.322 325.699 143.707 325.156 144.122 324.687 144.182 324.224 144.023 323.758 144.004 323.591 142.349 325.844 141.835 326.135 140.477 325.833 140.514 325.532 140.568 325.229 140.563 326.039 139.41 326.527 138.149 328.007 137.986 328.256 137.581 328.689 137.36 329.119 137.199 329.42 136.56 328.725 135.995 328.937 135.366 329.157 134.6 328.881 133.774 329.216 133.028 331.399 128.207 330.905 130.507 331.32 128.616 331.473 127.46 332.078 126.431 332.296 125.292 332.518 125.181 332.835 125.137 332.925 124.868 333.302 123.969 332.764 123.007 333.011 122.092 333.066 120.707 333.523 119.384 333.798 118.037 333.793 117.6 333.95 117.205 334.15 116.827 334.313 115.984 334.604 115.161 334.643 114.297 334.82 113.384 334.701 112.452 334.762 111.529 334.798 111.046 334.627 110.582 334.612 110.103 334.582 108.916 333.914 108.364 334.335 105.404 334.402 103.65 334.245 101.409 334.467 100.699 334.618 100.107 335.094 99.637 335.139 99.0116 335.17 98.7599 335.245 98.5199 335.315 98.2799 335.591 97.3325 335.097 96.2493 335.666 95.3802 335.874 94.9418 336.05 94.4796 336.348 94.0907 336.801 93.5099 336.978 92.7638 337.467 92.2075 337.728 91.9431 337.637 91.5657 337.541 91.2538 337.376 90.8023 337.66 90.353 337.599 89.8966 337.444 88.8925 337.541 88.4188 336.956 88.449 336.483 88.4325 336 88.4554 335.546 88.2966 334.633 87.9861 333.464 88.0083 332.504 87.8733 331.326 87.7079 330.149 87.5434 328.969 87.378 327.557 87.1796 326.144 86.9813 324.729 86.7828 322.39 86.455 320.058 86.0669 317.73 85.6572 316.508 85.4416 315.285 85.2194 314.062 84.9974 313.16 84.8327 311.897 84.4102 310.982 84.5223 310.435 84.5525 309.885 84.5396 309.386 84.2865 307.664 84.2024 305.93 84.3289 304.211 84.229 303.491 83.948 302.723 84.0084 301.969 83.9897 301.339 83.853 300.715 83.692 300.092 83.5253 299.582 83.4183 299.042 83.5606 298.548 83.37 298.048 83.1702 297.495 83.2643 296.993 83.0897 296.426 82.9028 295.809 83.007 295.258 82.759 294.251 82.616 293.23 82.5255 292.226 82.3681 291.841 82.1732 291.412 82.1654 290.99 82.1618 280.541 79.9572 284.76 78.7345 278.845 78.7842 278.306 78.8093 277.825 78.4865 277.284 78.5218 276.788 78.5598 276.38 78.2415 275.981 77.9971 274.774 77.1907 273.312 76.8413 272.169 75.9327 271.288 75.4224 270.373 74.805 269.317 74.8043 268.75 74.856 264.355 74.9775 263.843 74.7309 260.679 73.5385 261.125 72.7442 260.144 70.7298 259.349 70.5784 258.601 70.2469 257.831 70.0068 257.648 70.0421 257.475 70.1126 257.3 70.1714 257.303 69.798 257.525 69.2187 257.033 69.0659 256.585 69.0946 256.137 69.3178 255.691 69.1495 254.924 68.8858 254.07 69.0203 253.336 68.6496 253.064 68.4109 252.925 68.0154 252.56 67.8967 252.069 67.7284 251.574 67.4856 251.04 67.5573 250.427 67.5547 250.202 68.3547 249.602 68.356 248.882 68.4297 248.388 67.9335 246.858 68.0362 246.45 68.1066 246.116 68.382 245.728 68.5138 244.687 68.8141 243.598 68.5308 242.538 68.6639 241.996 68.7315 241.482 68.3607 240.92 68.3997 240.161 68.4522 239.365 68.7688 238.623 68.9393 238.287 68.8897 238.035 68.6027 237.789 68.3873 237.631 67.9501 237.586 67.4763 237.698 67.0237 238.074 65.3398 236.072 65.6606 235.361 64.9238 235.197 63.518 236.766 61.6858 235.324 61.1957 234.487 60.9111 230.851 62.2951 231.389 60.2678 231.547 59.6688 232.224 59.0119 232.707 58.6416 233.227 58.2279 233.927 58.3427 234.54 58.2514 235.219 58.0869 235.353 57.223 235.192 56.6489 234.945 56.1438 234.672 55.653 234.476 55.1258 233.885 54.6573 233.124 54.4943 232.456 54.1654 231.396 53.8221 230.43 53.2427 229.363 52.9177 228.571 52.6607 227.735 52.5823 226.941 52.3488 225.972 51.8529 224.935 51.4809 223.859 51.3047 223.459 51.2082 222.993 51.1769 222.686 50.8703 222.537 50.6052 222.32 50.2177 222.589 49.9607 223.04 49.2442 223.682 49.7808 227.67 50.2399 228.294 50.3039 228.856 50.6471 229.492 50.6497 230.439 50.6824 231.364 50.9185 232.255 51.2251 236.093 52.1854 237.05 53.6538 241.228 53.2728 244.366 53.5761 251.825 57.139 251.051 54.9287 250.951 54.7774 250.81 54.6625 250.684 54.5372 251.52 53.9008 251.349 54.4132 252.621 54.759 253.036 54.763 253.444 54.592 253.861 54.6652 254.08 54.8086 254.213 55.041 254.355 55.2537 254.795 55.2875 255.225 55.3815 255.641 55.5251 256.055 55.6842 256.368 55.2236 256.78 55.281 257.16 55.2328 257.493 55.4351 257.847 55.5277 258.669 55.6485 258.954 55.3336 260.487 55.8944 260.947 56.1084 261.232 56.5612 261.655 56.8314 262.282 56.8979 263.038 57.0311 263.557 56.5821 263.721 56.47 263.876 56.312 264.094 56.3381 264.698 56.3328 265.307 56.3068 265.912 56.3577 268.644 57.0571 269.457 58.8613 270.448 58.6661 271.228 58.1168 272.012 57.5595 272.876 57.1497 273.566 57.0479 274.266 57.1288 274.947 57.2528 276.075 57.1706 277.27 56.9108 278.364 57.3219 280.045 57.532 281.316 58.7562 282.819 59.4138 285.479 59.9567 285.144 59.5847 287.222 59.7492 287.702 59.7832 288.147 60.0285 288.637 59.9932 289.355 59.975 290.1 60.0821 290.787 59.8131 291.526 59.5548 292.105 60.2033 292.719 60.4932 293.516 60.6053 294.372 60.3352 295.13 60.6863 295.606 60.8846 296.161 60.6471 296.627 60.8872 297.184 61.1769 297.836 60.9538 298.435 61.0569 299.136 61.2356 299.833 61.434 300.508 61.7054 301.323 61.9129 302.175 62.0225 302.933 62.4127 303.642 62.8251 304.538 62.4166 305.252 62.8303 305.819 63.0574 306.205 63.5494 306.703 63.8794 307.323 63.9866 308.004 63.749 308.575 64.0858 311.406 65.5173 311.412 64.9944 312.69 64.6952 313.613 64.7253 314.244 65.6087 315.127 65.7445 315.516 65.4207 315.812 64.9901 316.235 64.7057 318.408 64.3424 320.212 65.3523 322.2 66.4752 324.196 65.3127 327.403 65.5968 328.709 65.4468 329.373 65.1924 331.361 63.629 332.883 64.3167 333.832 64.7343 334.869 64.9249 335.791 65.4102 336.817 64.8934 337.845 64.3389 338.971 64.0791 339.605 63.7855 340.307 63.6576 340.903 63.2818 341.235 63.03 341.674 63.1318 342.061 63.1135 342.745 63.0573 343.197 63.7503 343.856 63.7868 344.651 63.3005 343.885 62.9402 346.57 62.5483 346.957 62.2926 347.241 61.9129 347.623 61.6492 348.027 61.3921 348.166 60.8845 348.567 60.6209 350.966 59.019 349.572 59.7368 354.022 57.9913 354.58 57.8699 355.168 57.8413 355.689 57.5763 356.726 56.8069 355.512 57.3495 357.905 56.3916 358.483 56.2035 359.201 56.5507 359.687 56.0862 359.068 55.5642 358.248 55.5014 357.48 55.431 356.928 55.4702 356.452 55.8421 355.894 55.8225 353.549 55.7057 352.955 52.6454 353.404 50.4564 353.519 49.9579 353.209 49.5233 353.126 49.0509 352.999 48.5915 352.787 48.106 352.326 47.8985 352.156 47.7667 351.838 47.7028 351.843 47.4432 351.757 46.7893 352.216 46.2648 352.592 45.7897 351.891 45.5287 351.846 44.7131 351.824 44.0789 351.067 43.9589 350.137 43.7422 349.833 42.9475 349.379 42.1311 351.519 41.4745 350.125 39.6341 349.495 39.6119 348.86 39.6744 348.233 39.6014 343.961 37.5961 347.683 35.3138 349.059 33.3204 351.615 29.6962 351.744 29.0967 350.8 26.0503 350.832 25.2085 350.683 24.3811 350.587 23.5486 350.581 22.9828 351.107 20.0391 351.064 19.4039 351.033 18.7906 351.178 18.1903 351.211 17.5808 351.278 16.683 351.51 15.7747 352.048 15.0399 352.197 14.4645 352.432 13.8916 352.409 13.2887 351.879 13.26 351.348 13.2651 350.819 13.2469 350.767 13.0955 350.716 12.9455 350.669 12.7954 351.111 12.5474 351.143 11.9915 351.319 11.5674 351.51 11.1981 351.169 10.8601 351.121 10.4999 351.044 10.1919 351.252 9.92306 351.372 9.65684 352.052 9.50151 353.044 9.24053 352.999 8.3649 352.702 8.16391 352.366 8.02427 352.003 8.09212 351.984 7.77628 351.953 7.45923 351.962 7.14208 352.393 6.36695 353.205 5.9441 353.751 5.2655 354.188 5.00321 354.647 4.77347 355.046 4.44855 355.049 4.08713 355.039 3.72563 355.172 3.38112 355.668 3.33674 356.166 3.37457 356.664 3.33674 357.085 3.23239 357.442 2.95963 357.862 2.83825 358.864 2.5068 359.975 2.98966 360.946 2.51853 361.395 2.28365 361.938 2.29151 362.352 1.97436 362.745 1.64421 363.269 1.89345 363.73 1.83738 364.556 1.8674 365.237 1.31537 366.041 1.21092 366.606 1.02436 367.22 1.0818 367.781 0.871654 368.33 0.677336 368.914 0.61859 369.474 0.461951" fill-rule="evenodd" transform="matrix(1 0 0 1.00169 417.539 360)"/></g></svg>