<?xml version="1.0" encoding="UTF-8"?>
<svg width="304.53pt" height="434.72pt" version="1.1" viewBox="0 0 304.52585 434.7204" xmlns="http://www.w3.org/2000/svg">
 <g transform="translate(-67.324 -56.245)">
  <path d="m146.71 56.43c14.17-1.86 27.2 10.64 31.71 23.3 3.01 24.7-27.75 38.62-22.26 63.97 3.76 19.74 5.45 42.73 13.98 60.2-4.8-22.07 3.01-43.75 14.51-62.26-1.75-15.12-10.92-30.78-4.24-46.2 3.34-8.09 3.48-17-1.5-24.38 8.62 5 12.68 14.92 18.21 22.82 13.6 24.94 27.99 51.54 26.91 80.86 11.13-2.8 22.68-6.65 34.73-4.78-19.55 8.49-50.82 32.44-35.75 58.02 20.41 33.97 40.51 68.18 61.24 101.93 6.94-12.53 4.06-33.91 17.35-45.31 14.82-23.21 47.3-25.03 70.25-21.81-18.43 23.48-41.01 59.51-75.41 52.34-6.58 7.79-13.18 19.63-5.48 28.92 25.18 43.94 35.5 94.25 43.83 143.45-1 1.69-2.54 3.84-4.78 3.41-3.43-19.62-7.84-39.07-12.49-58.44-11.06-51.11-36.22-97.89-64.45-141.42-4.18-10.56-22.74-9.6-25.42 1.78-1.63 12.22-3.22 26.12-13.82 34.04-19.41 11.16-40.69 20.37-55.23 38.09-2.03-23.73-0.4-54.25 18.79-72.59 20.3-13.28 46.3-12.85 69.5-10.17-13.41-19.8-21.24-47.58-44.67-57.2 1.12-2.51 6.55-1.61 6.59-5.3-15.48 2.26-31.38 9.3-40.12 22.84-5.72 7.78-1.45-11.28-2.69-14.33-31.18-0.37-54.72-24.4-74.18-45.99-6.99-8.23-16.89-4.28-24.11 0.52-1.71-9.18 2.61-21.06 6.16-30.81-4.57-13.16-9.85-30.7 0.4-42.69 10.18-8.09 22.19-13.3 33.62-19.29 13.46-10.27 21.88-28.11 38.82-33.52m-0.7 17.34c6.58 2.69 18.84 2.3 20.02 11.37-0.61 18.81-17.73 31.47-31.89 40.99 8.88-12.58 19.35-30.17 9.69-45.06-6.31-2.14-16.57-2.01-20.75 3.11 5.58-0.96 11.93-4.01 17.28-0.61 4.01 6.7 1.04 19.7-8.3 19.04 1.3-9.53-8.69-16.92-16.88-11.77 3.87 0.67 10.08-0.98 11.16 4.13 5.68 20.34-18.62 31.02-34.21 21.83 4.66 8.55 16.87 8.77 25.27 6.74 9.33-1.28 10.66-14.49 18.47-17.47-5 20.6-33.94 37.63-49.83 17.96 4.06 19.77 27.74 18.8 40.94 9.03 1.71 6.42 0.91 13.16 1.48 19.72-12.74-2.22-26.26 0.85-38.77-3.34-11.07-5.25-5.89-21.11-9.49-29.35-2.37 10.47-4.05 21.76 0.67 31.9-7.97 5.21-11.74 19.53-11.26 26.59 25.21-20.1 60.83-24.92 89.33-8.55-7.04-8.19-17.31-13.24-27.6-16.41-0.36-12.79 17.83-12.15 19.67-23.6 4.28-13.81 15.02-24.59 18.57-38.65 5.6-14.53-14.03-19.64-23.57-17.6m-51.74 41.05c10.47-1.69 17-13.59 26.74-16.46 1.59 8.86-6.54 14.3-11.84 19.77 10.5-2.47 15.75-13.38 17.17-23.16-11.48-3.16-17.91 11.24-28.21 14.11 1.79-5.9 8.03-9.23 9.8-15-7.35 3.01-16.58 12.93-13.66 20.74z"/>
 </g>
</svg>
