<svg width="838" height="1194" xmlns="http://www.w3.org/2000/svg" xmlns:xlink="http://www.w3.org/1999/xlink" xml:space="preserve" overflow="hidden"><defs><clipPath id="clip0"><rect x="1904" y="567" width="838" height="1194"/></clipPath></defs><g clip-path="url(#clip0)" transform="translate(-1904 -567)"><path d="M2171.64 1759.62C2168.07 1755.98 2181.16 1730.57 2200.75 1703.17 2261.43 1618.28 2284.49 1562.59 2278.32 1515.79 2273.53 1479.4 2275.26 1474.75 2291.63 1480.04 2307.23 1485.09 2311.6 1477.52 2317.23 1435.67 2327.79 1357.18 2325.28 1292.62 2310.74 1268.73 2299.99 1251.06 2300.17 1245.19 2311.65 1237.91 2322.75 1230.86 2323.4 1219.96 2314.62 1187.56 2302.94 1144.46 2312.58 1117.72 2339.81 1117.72 2354.76 1117.72 2366.5 1187.88 2366.5 1277.25L2366.5 1336.37 2403.83 1302.99C2424.35 1284.63 2456.55 1261.5 2475.36 1251.59 2506.66 1235.1 2504.81 1238.88 2453.59 1295.98 2389.8 1367.07 2374.75 1393.87 2356.96 1467.99 2339.84 1539.29 2288.35 1652.77 2254.54 1693.71 2218.62 1737.19 2179.87 1768 2171.64 1759.62ZM2462.11 1335.09C2462.11 1310.46 2516.51 1261.18 2554.38 1251.5 2589 1242.65 2727.99 1254.38 2740.6 1267.22 2746.37 1273.1 2733.99 1279.76 2709.74 1283.81 2687.47 1287.54 2640.57 1305.24 2605.51 1323.14 2529.68 1361.87 2462.11 1367.5 2462.11 1335.09ZM2225.05 1242.96C2228.88 1218.91 2226.05 1198.16 2217.51 1187.68 2198.21 1163.99 2218.37 1145.7 2243.31 1164.28 2259.34 1176.22 2260.9 1185.94 2253.19 1225.7 2241.82 1284.24 2215.94 1300.11 2225.05 1242.96ZM2514.95 1225.75C2506.44 1220.39 2488.68 1218.76 2475.48 1222.13 2461.97 1225.59 2451.49 1223.3 2451.49 1216.88 2451.49 1198.36 2496.45 1171.82 2527.81 1171.82 2554.72 1171.82 2680.29 1213.64 2672.64 1220.05 2661.92 1229.05 2527.88 1233.89 2514.95 1225.74ZM2031.51 1163.7C2040.6 1112.92 2063.42 1085.97 2081.62 1104.51 2091.45 1114.52 2089.07 1123.09 2071.07 1142.61 2058.3 1156.47 2047.85 1176.01 2047.85 1186.04 2047.85 1196.07 2042.53 1204.28 2036.04 1204.28 2028.19 1204.28 2026.67 1190.69 2031.51 1163.7ZM2432.53 1155.9C2443.49 1143.52 2421.66 1106.89 2403.31 1106.89 2394.76 1106.89 2387.75 1099.59 2387.75 1090.66 2387.75 1071.24 2420.8 1069.14 2438.74 1087.41 2455.43 1104.41 2455.1 1146.78 2438.21 1156.68 2430.91 1160.96 2428.35 1160.61 2432.53 1155.9ZM2120.99 1089.64C2080.85 1055.47 2070.39 1051.54 2035.01 1057.3 1983.67 1065.67 1978.6 1038.99 2028.18 1021.39 2075.4 1004.62 2088.79 1006.27 2148.75 1036.32 2216 1070.02 2226.11 1069.89 2325.31 1034.1 2405.98 1004.99 2407.65 1004.84 2446.55 1023.74 2491.18 1045.42 2489.39 1060.71 2444.06 1044.94 2403.72 1030.91 2363.24 1044.06 2305.36 1090 2237.59 1143.78 2184.49 1143.68 2120.99 1089.64ZM2173.17 1012.44C2143.36 993.605 2090.33 905.941 2090.33 875.486 2090.33 852.672 2096.47 853.45 2122.05 879.505 2133.65 891.323 2162.49 904.145 2186.15 908 2268.45 921.406 2307.35 979.03 2257.92 1014.3 2228.06 1035.61 2209.18 1035.19 2173.17 1012.44ZM2560.16 998.684C2552.87 986.782 2540.35 977.044 2532.35 977.044 2505.26 977.044 2492.87 950.215 2509.46 927.462 2530.97 897.955 2559.28 918.531 2575.45 975.413 2589.07 1023.34 2581.94 1034.2 2560.16 998.684ZM2322.28 961.678C2324.28 936.087 2318.42 897.805 2309 874.823 2287.71 822.911 2287.86 809.823 2310.01 787.253 2326.76 770.195 2328.77 770.278 2341.88 788.549 2358.57 811.795 2360.12 901.548 2344.8 957.716 2329.45 1014.01 2318.03 1016.02 2322.28 961.678ZM2010.65 977.634C1972.35 961.666 1951.7 927.028 1945.05 867.614 1941.46 835.553 1929.33 795.93 1918.09 779.564 1895.75 747.016 1899.19 743.294 1934.03 762.29 1946.63 769.158 1972.56 774.176 1991.65 773.445 2019.93 772.363 2029.36 777.983 2042.41 803.706 2051.23 821.081 2058.45 844.454 2058.45 855.641 2058.45 866.828 2069.7 898.624 2083.45 926.292 2097.2 953.961 2105.96 979.133 2102.92 982.229 2094.62 990.692 2034.82 987.711 2010.65 977.632ZM2371.47 947.286C2375.5 924.968 2389.82 894.534 2403.3 879.656 2416.79 864.777 2435.58 836.922 2445.07 817.757 2454.57 798.591 2471.53 777.896 2482.76 771.77 2508.85 757.549 2547.09 757.359 2547.09 771.449 2547.09 777.4 2542.08 782.27 2535.96 782.27 2529.84 782.27 2513.11 795.154 2498.78 810.901 2478.47 833.226 2472.73 851.258 2472.73 892.767 2472.73 969.176 2459.9 987.862 2407.44 987.862L2364.14 987.862 2371.47 947.283ZM2266.78 913.451C2256.86 902.282 2222.62 884.775 2190.71 874.548 2158.79 864.32 2122.67 847.698 2110.44 837.609 2090.96 821.545 2089.34 813.376 2097.4 771.854 2108.14 716.581 2132.82 699.144 2132.82 746.837 2132.82 789.999 2151.85 811.171 2202.83 824.726 2252.12 837.831 2276.59 860.831 2287.17 904.002 2295.75 939.023 2291.32 941.075 2266.78 913.451ZM2372.97 822.846C2369.37 803.504 2352.13 765.768 2334.65 738.986 2294.82 677.965 2292.88 629.053 2328.85 592.416 2363.44 557.181 2378.02 558.613 2370.58 596.514 2365.67 621.515 2372.58 636.61 2408.03 678.327 2431.93 706.461 2451.49 734.37 2451.49 740.344 2451.49 765.245 2405.33 858.015 2392.94 858.015 2385.55 858.015 2376.56 842.19 2372.97 822.848ZM2236.51 808.548C2233.55 805.527 2233.47 781.827 2236.34 755.881 2240.97 714.056 2238.42 706.607 2213.84 690.199 2178.9 666.881 2185.86 654.583 2234 654.583 2266.87 654.583 2273.44 659.293 2287.14 692.695 2295.74 713.656 2302.78 731.977 2302.78 733.408 2302.78 742.746 2240.85 812.967 2236.51 808.545ZM2176.45 772.699C2156.29 756.912 2152.52 746.729 2158.24 723.528 2168.06 683.649 2203.12 689.606 2198.93 730.443 2197.32 746.15 2200.9 762.09 2206.9 765.864 2219.5 773.797 2221.61 793.205 2209.83 792.85 2205.45 792.719 2190.42 783.651 2176.44 772.701ZM2059.33 728.166C2058.49 669.744 2059.46 667.791 2111.94 621.745L2165.41 574.838 2212.8 594.693C2268.52 618.035 2268.92 637.201 2213.62 633.765 2180.77 631.726 2172.99 635.586 2164.58 658.112 2157.78 676.329 2146.44 684.884 2129.1 684.884 2108.81 684.884 2099.17 695.387 2081.89 736.283L2060.18 787.681 2059.33 728.168Z" fill-rule="evenodd"/></g></svg>