<svg width="600" height="1011" xmlns="http://www.w3.org/2000/svg" xmlns:xlink="http://www.w3.org/1999/xlink" xml:space="preserve" overflow="hidden"><defs><clipPath id="clip0"><rect x="1899" y="732" width="600" height="1011"/></clipPath></defs><g clip-path="url(#clip0)" transform="translate(-1899 -732)"><path d="M2415 761.421C2411.96 770.465 2402.24 771.442 2396.77 778.374 2395.16 780.414 2392.33 784.574 2391.16 786.852 2378.81 810.972 2373.77 844.312 2365.92 875.86 2362.42 889.875 2356.19 904.249 2350.49 918.244 2338.8 946.969 2328.61 967.557 2300 979 2317.86 958.564 2328.83 915.424 2332.26 874.448 2334.95 842.289 2329.89 813.547 2316.83 795.33 2337.79 773.596 2377.52 770.759 2409.39 760.012 2411.91 759.829 2412.35 761.739 2415 761.421ZM2370.12 793.919C2375.21 793.822 2376.41 779.737 2371.53 778.377 2368.92 781.408 2370.58 788.723 2370.12 793.919ZM2357.5 806.632C2360.55 799.777 2359.31 786.32 2351.89 785.437 2353.09 793.176 2353.36 801.862 2357.5 806.632ZM2342.07 822.174C2351.1 816.215 2342.29 797.029 2335.06 793.919 2336.16 804.582 2342.03 810.443 2342.07 822.174Z" fill-rule="evenodd"/><path d="M2165.59 795.5C2143.78 843.082 2143.06 922.655 2167 969 2138.46 955.169 2127.32 923.658 2115 888.597 2109.37 872.557 2103.23 854.473 2099.54 837.819 2092.74 807.073 2087.02 780.734 2063 767.29L2063 764.471C2077.7 761.875 2104.44 770.699 2122.03 774.342 2140.73 778.215 2157.66 785.143 2165.59 795.5ZM2102.35 802.554C2103.61 796.375 2106.38 779.587 2100.95 775.755 2099.34 781.579 2097.17 798.97 2102.35 802.554ZM2117.81 811.019C2117.5 813.415 2119.39 814.51 2119.22 811.019 2118.32 798.367 2123.28 791.591 2124.84 781.396L2120.62 781.396C2119.28 790.861 2116.67 799.063 2117.81 811.019ZM2133.27 825.122C2137.55 814.369 2140.52 802.303 2145.92 792.677 2145.61 791.577 2144.74 791.036 2143.11 791.267 2137.8 799.594 2130.32 813.215 2133.27 825.122Z" fill-rule="evenodd"/><path d="M2499 905C2459.3 951.946 2425.47 1004.78 2398 1064 2398.69 1043.7 2405.04 1021 2412.03 1002.09 2415.89 991.648 2418.35 988.657 2423.25 979.577 2429.56 967.894 2435.71 953.032 2444.29 941.587 2450.84 932.855 2469.57 912.381 2480.77 907.819 2486.18 905.605 2492.78 905.306 2499 905Z" fill-rule="evenodd"/><path d="M2247.93 999.341C2238.3 1105.23 2243.01 1225.99 2243.71 1332.92 2250.93 1320.1 2246.53 1302.78 2247.93 1289.28 2250.98 1260.08 2263.89 1227.14 2273.27 1202.02 2283.63 1174.31 2295.01 1147.15 2309.87 1126.01 2325.51 1103.77 2341.76 1082.05 2357.73 1061.27 2373.84 1040.31 2387.77 1017.81 2407 1002.15 2397.9 1040.08 2378.25 1069.04 2361.95 1102.08 2344 1138.48 2328.56 1182.98 2312.68 1224.53 2288.69 1287.34 2267.75 1348.94 2249.34 1420.17 2248.45 1423.61 2247.53 1429.61 2243.71 1431.43 2243.85 1402.78 2246.46 1371.52 2245.11 1345.58 2244.96 1342.67 2248.42 1338.22 2243.71 1337.13 2243.14 1353.15 2238.64 1372.02 2238.08 1392.03 2237.54 1411.32 2241.49 1431.64 2238.08 1446.92 2237.21 1450.8 2233.85 1454.16 2231.04 1458.17 2229.29 1460.67 2228.13 1468.49 2224 1465.21 2228.85 1365.24 2229.63 1254.68 2229.63 1148.53 2229.63 1098.4 2232.14 1048.15 2226.82 1003.56 2227.21 995.499 2241.07 1000.92 2247.93 999.341Z" fill-rule="evenodd"/><path d="M2391.59 1053.05C2392.79 1052.79 2392.92 1053.6 2393 1054.46 2386.38 1131.54 2369.05 1204.46 2346.28 1269.76 2335.09 1301.85 2321.29 1333.18 2308.05 1362.64 2298.13 1384.71 2283.38 1403.43 2267 1420.33 2262.24 1425.25 2256.83 1431.48 2250 1433 2261.56 1381.84 2281.22 1333.45 2298.14 1286.66 2303.66 1271.4 2311.23 1256.85 2316.54 1241.62 2330.48 1201.73 2344.59 1161.13 2360.44 1123.41 2363.84 1115.3 2366.01 1107.72 2368.93 1099.49 2374.7 1083.24 2384.67 1069.1 2391.59 1053.05Z" fill-rule="evenodd"/><path d="M2277.58 1419.05C2278.79 1418.8 2278.92 1419.6 2279 1420.45 2268.32 1442.14 2268.06 1468.4 2259.14 1490.71 2256.28 1497.86 2249.39 1503.51 2247.79 1511.79 2244.16 1530.46 2249.79 1547.43 2244.95 1568 2234.69 1548.84 2223.9 1537.89 2225.09 1507.58 2225.78 1490.06 2232.3 1472.3 2239.28 1459.8 2241.51 1455.81 2243.1 1450.95 2244.95 1448.56 2253.61 1437.39 2270.39 1431.5 2277.58 1419.05Z" fill-rule="evenodd"/><path d="M2193 1485C2206.56 1495.43 2212.07 1519.66 2221.06 1536.98 2223.65 1541.98 2228.8 1546.16 2230.88 1551.03 2233.51 1557.22 2235.07 1566.89 2237.89 1574.92 2245.13 1595.53 2252.61 1621.5 2249.11 1652.19 2245.33 1656.83 2235.33 1655.26 2229.47 1657.82 2231.64 1663.15 2241.79 1660.47 2246.3 1663.43 2245.39 1689.23 2248.14 1718.67 2244.9 1742.12 2235.29 1741.68 2218.74 1744.3 2208.43 1742.12 2204.48 1713.25 2217.99 1667.35 2200.02 1647.98 2195.53 1596.32 2202 1537.11 2193 1485ZM2222.46 1657.81C2219.81 1655.31 2216.8 1653.18 2211.24 1653.59 2208.56 1660.27 2221.35 1664.02 2222.46 1657.81Z" fill-rule="evenodd"/><path d="M2240.72 732.176C2249.07 730.443 2253.68 741.918 2258.96 749.053 2264.18 756.081 2270.05 763.971 2274.4 767.339 2287.13 777.195 2304.96 782.278 2315.09 801.093 2324.98 819.445 2328.66 849.962 2326.32 882.671 2324.37 909.854 2316.38 942.492 2309.48 955.809 2304.97 964.528 2289.8 983.656 2280.01 988.161 2266.47 994.402 2245.4 994.292 2233.7 993.787 2185.92 991.725 2161.94 964.204 2157.93 916.429 2154.85 879.63 2153.82 833.325 2167.75 806.719 2169.87 802.67 2173.95 799.983 2176.17 796.876 2178.98 792.945 2180.63 788.398 2183.19 785.622 2196.44 771.267 2212.26 767.507 2223.88 756.087 2230.05 750.032 2233.46 738.327 2240.72 732.176ZM2242.13 789.845C2249.75 787.299 2247.48 752.555 2242.13 751.867 2241.86 769.607 2243.64 775.078 2242.13 789.845ZM2229.5 795.467C2229.46 782.848 2227.78 771.875 2221.09 765.93 2221.23 772.621 2223.72 790.608 2229.5 795.467ZM2257.56 796.876C2259.96 786.151 2263.85 776.923 2267.39 767.339 2267.07 766.242 2266.21 765.703 2264.58 765.93 2262.08 774.672 2251.26 788.498 2257.56 796.876ZM2216.87 810.942C2218.27 800.426 2213.3 784.666 2202.84 781.405 2207.39 791.381 2210.76 802.537 2216.87 810.942ZM2271.6 812.344C2276.71 802.935 2281.22 792.921 2287.03 784.216 2286.73 782.639 2285.47 782.027 2284.23 781.405 2280.33 790.526 2265.31 802.258 2271.6 812.344ZM2198.63 820.785C2201.97 811.035 2193.53 801.736 2186 798.282 2188.94 807.056 2193.51 814.197 2198.63 820.785ZM2285.63 819.379C2291.51 819.214 2301.65 804.921 2301.07 798.282 2293.82 803.203 2290.01 811.585 2285.63 819.379ZM2183.19 829.228C2184.25 820.671 2177.46 819.97 2171.97 817.974 2173.97 823.469 2177.71 827.218 2183.19 829.228ZM2303.87 830.631C2305.52 825.726 2313.89 827.551 2313.69 820.785 2313.4 819.211 2312.13 818.596 2310.89 817.974 2307.96 820.716 2299.78 825.52 2303.87 830.631ZM2246.34 874.234C2246.56 873.255 2245.85 866.052 2244.93 870.018 2243.7 875.368 2245.69 877.059 2246.34 874.234ZM2244.93 929.089C2246.03 954.032 2243.21 978.731 2251.95 989.57 2251.68 962.022 2248.14 920.103 2247.74 884.08 2247.44 882.503 2246.18 881.891 2244.93 881.269 2241.44 893.806 2244.18 911.989 2244.93 929.089ZM2226.69 988.161C2232.5 983.374 2234.22 971.755 2235.11 961.438 2236.47 945.609 2235.32 926.66 2235.11 913.618 2237.05 907.597 2238.21 900.789 2237.92 892.52 2236.06 892.503 2236.63 890.053 2235.11 889.709 2231.52 921.735 2230.93 956.781 2226.69 988.161Z" fill-rule="evenodd"/><path d="M2221.07 1465.75C2212.38 1445.97 2209.74 1424.28 2204.16 1403.85 2200.11 1389.02 2192.27 1374.95 2187.25 1360.22 2182.06 1344.99 2177.93 1330.5 2171.76 1316.6 2165.49 1302.51 2159.31 1288.49 2153.45 1274.4 2147.97 1261.21 2143.8 1245.47 2132.32 1236.4 2140.83 1258.56 2150.07 1280.48 2159.08 1302.53 2168.04 1324.47 2176.48 1345.9 2184.44 1368.67 2200.05 1413.36 2217.91 1460.66 2218.25 1515 2187.55 1460 2156.83 1408.23 2123.86 1356 2107.27 1329.71 2092.58 1302.5 2081.6 1271.57 2070.45 1240.13 2068.39 1204.71 2060.47 1166.04 2055.6 1175.73 2064.09 1189.76 2060.47 1198.4 2038.77 1155.38 2012.96 1115.89 1987.22 1077.4 1982.72 1070.66 1976.53 1065.46 1971.73 1059.1 1980.09 1056.41 1985.87 1068.4 1995.68 1068.95 2018.52 1087.4 2034.63 1112.6 2050.62 1137.89 2023.87 1042.19 1886.79 1049.22 1899.88 918.394 1899.62 917.197 1900.43 917.07 1901.29 916.987 1902.55 916.121 1903.81 915.286 1904.11 916.987L1906.92 916.987C1936.21 952.712 1976.9 973.832 2013.98 1000.01 2051.06 1026.19 2079.68 1056.1 2105.55 1098.5 2117.49 1118.07 2126.96 1139.42 2139.36 1160.41 2167.91 1208.77 2193.37 1260.85 2212.61 1323.64 2216.35 1335.84 2221.27 1349.52 2222.47 1360.22 2224.29 1376.48 2220.83 1392.66 2221.07 1408.06 2221.3 1424.23 2221.47 1445.01 2221.07 1465.75ZM2025.26 1073.18C2045.66 1097.66 2063.8 1122.52 2081.6 1149.16 2099.39 1175.77 2112.94 1205.23 2130.91 1233.58 2129.46 1222.15 2123.36 1211.2 2118.23 1201.22 2112.74 1190.55 2105.83 1180.41 2099.91 1170.27 2083.49 1142.14 2065.46 1113.34 2046.38 1090.06 2035.07 1076.25 2023.96 1061.89 2012.57 1049.25 1982.67 1016.05 1952.75 982.365 1923.83 949.353 1923.18 939.795 1914.31 936.065 1909.74 931.059 1907.79 928.928 1909.32 922.361 1905.51 926.838 1941.89 978.858 1984.96 1024.8 2025.26 1073.18ZM2050.61 1139.31C2052.4 1148.78 2054.08 1158.35 2059.06 1164.63 2057.42 1155.02 2056.1 1145.08 2050.61 1139.31Z" fill-rule="evenodd"/></g></svg>