<?xml version="1.0" standalone="no"?>
<!DOCTYPE svg PUBLIC "-//W3C//DTD SVG 20010904//EN"
 "http://www.w3.org/TR/2001/REC-SVG-20010904/DTD/svg10.dtd">
<svg version="1.0" xmlns="http://www.w3.org/2000/svg"
 width="505.000000pt" height="344.000000pt" viewBox="0 0 505.000000 344.000000"
 preserveAspectRatio="xMidYMid meet">

<g transform="translate(0.000000,344.000000) scale(0.100000,-0.100000)"
fill="#000000" stroke="none">
<path d="M1621 2729 c-79 -38 -149 -69 -155 -69 -7 0 -149 -163 -317 -362
-167 -199 -311 -369 -320 -377 -9 -9 -49 -78 -89 -154 -62 -118 -71 -142 -61
-160 5 -12 29 -159 52 -327 31 -237 44 -309 58 -321 9 -9 74 -88 145 -176 116
-146 131 -161 159 -161 35 -1 732 -145 783 -162 23 -7 234 -5 755 11 653 19
726 23 749 38 14 10 113 69 220 130 193 111 197 114 332 248 l136 136 71 152
c38 83 70 162 70 176 -1 13 -35 160 -77 327 l-75 303 -241 202 c-132 111 -256
214 -275 228 -22 17 -160 70 -358 137 l-322 111 -356 51 c-197 28 -360 49
-363 46 -3 -3 -10 -2 -16 3 -10 8 -274 39 -336 39 -14 0 -90 -31 -169 -69z"/>
</g>
</svg>
