<?xml version="1.0" standalone="no"?>
<!DOCTYPE svg PUBLIC "-//W3C//DTD SVG 20010904//EN"
 "http://www.w3.org/TR/2001/REC-SVG-20010904/DTD/svg10.dtd">
<svg version="1.0" xmlns="http://www.w3.org/2000/svg"
 width="505.000000pt" height="344.000000pt" viewBox="0 0 505.000000 344.000000"
 preserveAspectRatio="xMidYMid meet">

<g transform="translate(0.000000,344.000000) scale(0.100000,-0.100000)"
fill="#000000" stroke="none">
<path d="M2415 2818 c-31 -11 -145 -24 -331 -36 -61 -4 -117 -12 -125 -19 -8
-6 -57 -14 -109 -17 -126 -7 -201 -15 -225 -25 -11 -5 -73 -34 -137 -65 -65
-31 -121 -56 -124 -56 -4 0 -48 -20 -98 -44 -68 -34 -116 -49 -191 -62 -76
-13 -105 -22 -120 -39 -11 -13 -48 -30 -83 -39 -35 -10 -78 -28 -97 -40 -19
-13 -76 -34 -127 -46 -130 -31 -148 -42 -148 -87 0 -19 -13 -74 -29 -122 -16
-47 -31 -97 -35 -111 -7 -31 -130 -218 -175 -266 -48 -50 -55 -114 -17 -153
15 -16 35 -42 44 -59 45 -82 104 -171 134 -204 91 -101 148 -173 148 -187 0
-6 4 -11 10 -11 5 0 16 -12 24 -27 8 -16 27 -41 44 -58 28 -30 132 -170 132
-180 0 -8 36 -42 62 -59 14 -9 59 -17 118 -21 52 -3 118 -12 145 -20 28 -8 88
-19 135 -25 131 -16 164 -22 175 -30 6 -4 44 -13 85 -19 41 -7 94 -18 118 -26
23 -8 72 -15 107 -15 35 0 84 -7 108 -15 24 -8 84 -21 133 -30 169 -28 349
-63 386 -75 21 -6 68 -10 105 -8 46 1 119 -8 223 -29 137 -28 181 -32 373 -37
119 -2 230 -1 245 4 15 4 52 12 82 18 30 6 82 16 115 22 33 6 87 15 120 20 33
5 123 19 200 32 77 12 187 24 245 26 104 3 105 4 149 40 24 20 52 42 62 47 29
17 109 88 109 98 0 18 178 185 271 254 52 39 104 84 114 99 27 42 56 72 93 95
26 17 32 27 32 55 0 19 5 34 10 34 6 0 10 33 10 80 0 62 -3 82 -15 86 -8 4
-15 12 -15 20 0 27 -93 113 -140 130 -25 10 -63 35 -85 58 -54 56 -123 109
-163 125 -37 16 -92 74 -92 99 0 9 -32 46 -71 82 -68 64 -70 68 -76 123 -6 56
-8 59 -65 107 -33 27 -76 54 -97 60 -30 8 -69 42 -190 167 -83 86 -151 160
-151 164 0 3 -6 12 -13 18 -8 6 -19 28 -25 48 -7 21 -27 55 -44 75 l-33 38
-145 11 c-80 6 -221 13 -315 14 -93 2 -204 8 -245 14 -98 14 -476 13 -515 -1z"/>
</g>
</svg>
