<?xml version='1.0' encoding='utf-8'?>
<svg xmlns="http://www.w3.org/2000/svg" width="91.44mm" height="91.44mm" version="1.1" style="shape-rendering:geometricPrecision; text-rendering:geometricPrecision; image-rendering:optimizeQuality; fill-rule:evenodd; clip-rule:evenodd" viewBox="0 0 9144 9144"> <defs> <style type="text/css">  .fil0 {fill:#F0F0F0; fill-opacity:0} .fil1 {fill:#011627;fill-rule:nonzero}  </style> </defs> <g id="Layer_x0020_1"> <metadata id="CorelCorpID_0Corel-Layer"/> <g id="_2744577832304"> <polygon class="fil0" points="0,0 9144,0 9144,9144 0,9144 "/> <path class="fil1" d="M2543 6601l3412 0 0 -558 0 -2854 -2854 0 -558 0 0 3412zm558 -4234l3588 0c49,0 88,39 88,88l0 3588c0,49 -39,88 -88,88l-558 0 0 558c0,49 -39,88 -88,88l-3588 0c-49,0 -88,-39 -88,-88l0 -3588c0,-49 39,-88 88,-88l558 0 0 -558c0,-49 39,-88 88,-88zm3500 176l-3412 0 0 470 2854 0c49,0 88,39 88,88l0 2854 470 0 0 -3412z"/> </g> </g> </svg>