<svg width="903" height="230" xmlns="http://www.w3.org/2000/svg" xmlns:xlink="http://www.w3.org/1999/xlink" xml:space="preserve" overflow="hidden"><defs><clipPath id="clip0"><rect x="3461" y="467" width="903" height="230"/></clipPath><linearGradient x1="4308" y1="540" x2="4362" y2="540" gradientUnits="userSpaceOnUse" spreadMethod="reflect" id="fill1"><stop offset="0" stop-color="#E54026"/><stop offset="0.5" stop-color="#A12B19"/><stop offset="1" stop-color="#5D160C"/></linearGradient><linearGradient x1="4247" y1="562.5" x2="4311" y2="562.5" gradientUnits="userSpaceOnUse" spreadMethod="reflect" id="fill2"><stop offset="0" stop-color="#E54026"/><stop offset="0.5" stop-color="#A12B19"/><stop offset="1" stop-color="#5D160C"/></linearGradient><linearGradient x1="3462" y1="540" x2="3516" y2="540" gradientUnits="userSpaceOnUse" spreadMethod="reflect" id="fill3"><stop offset="0" stop-color="#E54026"/><stop offset="0.5" stop-color="#A12B19"/><stop offset="1" stop-color="#5D160C"/></linearGradient><linearGradient x1="3513" y1="562" x2="3577" y2="562" gradientUnits="userSpaceOnUse" spreadMethod="reflect" id="fill4"><stop offset="0" stop-color="#E54026"/><stop offset="0.5" stop-color="#A12B19"/><stop offset="1" stop-color="#5D160C"/></linearGradient><linearGradient x1="3578" y1="602" x2="4246" y2="602" gradientUnits="userSpaceOnUse" spreadMethod="reflect" id="fill5"><stop offset="0" stop-color="#E54026"/><stop offset="0.5" stop-color="#A12B19"/><stop offset="1" stop-color="#5D160C"/></linearGradient><linearGradient x1="3461.82" y1="493.5" x2="4362" y2="493.5" gradientUnits="userSpaceOnUse" spreadMethod="reflect" id="stroke6"><stop offset="0" stop-color="#FBED0C"/><stop offset="0.0363" stop-color="#E8C520"/><stop offset="0.0811" stop-color="#D8A026"/><stop offset="0.129" stop-color="#CC8327"/><stop offset="0.179" stop-color="#C36B27"/><stop offset="0.2318" stop-color="#BC5726"/><stop offset="0.2883" stop-color="#B74626"/><stop offset="0.3505" stop-color="#B33925"/><stop offset="0.4224" stop-color="#B13125"/><stop offset="0.5269" stop-color="#B12E25"/><stop offset="0.5922" stop-color="#B13225"/><stop offset="0.6525" stop-color="#B43C25"/><stop offset="0.7108" stop-color="#B84B26"/><stop offset="0.7679" stop-color="#BF5F27"/><stop offset="0.8241" stop-color="#C77727"/><stop offset="0.8796" stop-color="#D39327"/><stop offset="0.9344" stop-color="#E3B923"/><stop offset="0.9877" stop-color="#FAEB0F"/><stop offset="0.9892" stop-color="#FBED0C"/><stop offset="1" stop-color="#FBED0C"/></linearGradient></defs><g clip-path="url(#clip0)" transform="translate(-3461 -467)"><path d="M4319.58 472.463C4308.22 472.481 4296.45 471.976 4286.85 470.399 4276.78 468.75 4269.84 472.474 4268.21 476.748 4268.19 476.799 4268.17 476.856 4268.16 476.925 4268.12 477.085 4268.05 477.26 4267.98 477.492L4267.98 477.51C4267 480.704 4263.83 491.344 4262.96 496.784 4260.48 496.316 4258.04 495.846 4255.64 495.378 4233.35 491.053 4214.93 469.672 4205.48 478.702 4204.5 479.624 4203.86 480.617 4203.48 481.612 4203.47 481.663 4203.43 481.736 4203.41 481.805 4199.29 491.631 4195.59 517.379 4195.46 518.282 4121.15 517.645 3933.79 512.394 3912 512.394 3890.21 512.394 3702.85 517.645 3628.53 518.282 3628.41 517.377 3624.71 491.631 3620.58 481.805 3620.57 481.736 3620.53 481.663 3620.51 481.612 3620.14 480.617 3619.5 479.624 3618.52 478.702 3609.06 469.672 3590.65 491.053 3568.36 495.378 3565.95 495.846 3563.52 496.316 3561.03 496.784 3560.16 491.344 3557 480.704 3556.02 477.51L3556.02 477.492C3555.95 477.26 3555.88 477.085 3555.84 476.925 3555.82 476.856 3555.8 476.801 3555.79 476.748 3554.15 472.474 3547.22 470.523 3537.15 472.172 3527.55 473.749 3515.77 474.254 3504.42 474.24 3482.42 474.205 3462 472.21 3462 472.21 3462 472.21 3462 567.695 3462 590.446 3488.05 607.47 3507.96 608.834 3516.08 608.495 3518.67 608.387 3520.07 608.107 3520.07 608.107 3520.64 615.058 3521 619.422 3521 619.422 3521 619.422 3523.45 623.765 3534.34 626.214 3555.14 630.865 3569.47 628.322 3576.91 624.767 3580.87 622.876 3582.88 638.943 3582.88 638.943L3584.73 667.298C3584.73 667.298 3593.6 683.701 3622.84 690.299 3623.63 690.459 3624.39 690.634 3625.19 690.794 3656.32 697 3912 697 3912 697 3912 697 4167.68 697 4198.81 690.794 4199.61 690.634 4200.37 690.459 4201.16 690.299 4230.4 683.701 4239.27 667.298 4239.27 667.298L4241.12 638.943C4241.12 638.943 4243.14 622.874 4247.09 624.767 4254.53 628.324 4268.85 632.642 4289.66 627.987 4300.55 625.542 4303 621.195 4303 621.195 4303 621.195 4303.36 616.835 4303.93 609.883 4303.93 609.883 4305.33 610.164 4307.92 610.272 4316.04 610.607 4335.95 609.247 4362 592.219L4362 470.433C4362 470.433 4341.58 472.433 4319.58 472.463ZM3577.63 505 3577.75 506.966C3577.56 506.294 3577.52 505.636 3577.63 505ZM4246.25 506.966 4246.37 505C4246.48 505.636 4246.44 506.294 4246.25 506.966Z" fill="#861719" fill-rule="evenodd"/><path d="M4287.11 469.401C4277 467.743 4270.02 471.487 4268.38 475.783 4268.36 475.834 4268.35 475.891 4268.33 475.961 4268.29 476.121 4268.22 476.297 4268.15 476.531L4268.15 476.549C4267.04 481.165 4272.06 486.085 4285.77 485.479 4301.75 484.804 4312.36 490.969 4311.22 495.534 4311.33 503.698 4306.38 583.639 4304.27 609.61 4304.27 609.61 4305.68 609.892 4308.28 610 4311.48 569.832 4316.52 511.949 4320 471.478 4308.59 471.494 4296.76 470.986 4287.11 469.401Z" fill="#861719" fill-rule="evenodd"/><path d="M4205.41 478.209C4204.42 479.135 4203.77 480.131 4203.4 481.129 4203.38 481.181 4203.34 481.254 4203.32 481.323 4200.87 488.566 4212.81 496.948 4224.69 495.256 4235.04 493.797 4245.84 498.866 4246.65 504.598 4246.76 505.236 4246.72 505.897 4246.52 506.571L4241.36 639C4241.36 639 4243.39 622.877 4247.38 624.776 4248.87 587.437 4251.9 532.285 4256 494.943 4233.52 490.603 4214.94 469.149 4205.41 478.209Z" fill="#861719" fill-rule="evenodd"/><path d="M3555.85 476.907C3555.78 476.675 3555.71 476.499 3555.68 476.339 3555.66 476.27 3555.64 476.215 3555.63 476.162 3554.01 471.885 3547.18 469.933 3537.26 471.583 3527.79 473.161 3516.19 473.667 3505 473.652 3508.41 513.943 3513.36 568.011 3516.49 608 3519.05 607.892 3520.43 607.612 3520.43 607.612 3518.36 581.757 3513.51 503.951 3513.61 495.823 3512.49 491.279 3522.9 485.141 3538.57 485.813 3552.02 486.417 3556.94 481.519 3555.85 476.923L3555.85 476.907Z" fill="#861719" fill-rule="evenodd"/><path d="M3620.61 481.129C3620.24 480.131 3619.61 479.135 3618.64 478.209 3609.28 469.149 3591.06 490.603 3569 494.943 3573.02 532.285 3575.99 587.435 3577.46 624.776 3581.38 622.879 3583.37 639 3583.37 639L3578.3 506.571C3578.11 505.897 3578.07 505.236 3578.18 504.598 3578.97 498.866 3589.57 493.797 3599.72 495.256 3611.37 496.948 3623.09 488.566 3620.68 481.323 3620.66 481.254 3620.63 481.181 3620.61 481.129Z" fill="#861719" fill-rule="evenodd"/><path d="M4285.57 486.069C4271.92 486.684 4266.91 481.688 4268.02 477 4267.04 480.26 4263.87 491.12 4263 496.674 4271.08 498.216 4279.55 499.678 4288.24 500.549 4303.32 502.051 4310.12 499.591 4310.92 496.279 4312.05 491.643 4301.48 485.383 4285.57 486.069Z" fill="#39170E" fill-rule="evenodd"/><path d="M4224.62 495.073C4213.05 496.783 4201.42 488.315 4203.81 481 4199.76 490.959 4196.12 517.057 4196 517.972 4196.49 517.99 4196.98 517.99 4197.45 517.99 4231.67 518.278 4244.32 512.402 4245.88 506.503L4246 504.51C4245.21 498.721 4234.7 493.599 4224.62 495.073Z" fill="#39170E" fill-rule="evenodd"/><path d="M3538.43 486.069C3522.52 485.383 3511.94 491.643 3513.08 496.279 3513.89 499.591 3520.69 502.051 3535.76 500.549 3544.45 499.68 3552.92 498.216 3561 496.674 3560.13 491.12 3556.96 480.26 3555.98 477 3557.08 481.688 3552.08 486.684 3538.43 486.069Z" fill="#39170E" fill-rule="evenodd"/><path d="M3599.81 495.073C3589.53 493.599 3578.8 498.721 3578 504.51L3578.12 506.503C3579.71 512.4 3592.61 518.278 3627.52 517.99 3628 517.99 3628.5 517.99 3629 517.972 3628.88 517.055 3625.17 490.959 3621.03 481 3623.48 488.315 3611.61 496.783 3599.81 495.073Z" fill="#39170E" fill-rule="evenodd"/><path d="M4319.64 472.032C4316.18 512.329 4311.18 569.964 4308 609.959 4316.11 610.295 4335.98 608.933 4362 591.892L4362 470C4362 470 4341.61 472.002 4319.64 472.032Z" fill="url(#fill1)" fill-rule="evenodd"/><path d="M4288.25 500.217C4279.54 499.363 4271.04 497.925 4262.93 496.41 4260.44 495.94 4257.99 495.47 4255.58 495 4251.51 532.314 4248.49 587.422 4247 624.734 4254.47 628.3 4268.84 632.63 4289.73 627.963 4300.66 625.511 4303.12 621.153 4303.12 621.153 4303.12 621.153 4303.48 616.781 4304.05 609.811 4306.16 583.905 4311.1 504.164 4311 496.021 4310.19 499.276 4303.37 501.692 4288.25 500.217Z" fill="url(#fill2)" fill-rule="evenodd"/><path d="M3462 472 3462 589.953C3488.02 606.936 3507.89 608.297 3516 607.958 3512.82 568.093 3507.82 514.192 3504.36 474.025 3482.39 473.99 3462 472 3462 472Z" fill="url(#fill3)" fill-rule="evenodd"/><path d="M3561.07 496.411C3552.96 497.929 3544.46 499.369 3535.75 500.226 3520.63 501.705 3513.81 499.283 3513 496.023 3512.89 504.183 3517.84 582.307 3519.95 608.268 3520.52 615.253 3520.88 619.638 3520.88 619.638 3520.88 619.638 3523.34 624.002 3534.27 626.462 3555.15 631.136 3569.53 628.581 3577 625.008 3575.51 587.619 3572.5 532.393 3568.42 495 3566 495.469 3563.56 495.942 3561.07 496.411Z" fill="url(#fill4)" fill-rule="evenodd"/><path d="M4212.23 517.994C4207.63 518.26 4202.49 518.383 4196.73 518.329 4196.25 518.329 4195.75 518.329 4195.26 518.312 4121 517.675 3933.77 512.425 3912 512.425 3890.23 512.425 3703 517.675 3628.74 518.312 3628.25 518.329 3627.75 518.329 3627.27 518.329 3621.51 518.381 3616.37 518.26 3611.77 517.994 3588.52 516.7 3579.32 511.858 3578 507L3583.12 638.953 3584.97 667.303C3584.97 667.303 3593.84 683.703 3623.06 690.3 3623.84 690.46 3624.6 690.635 3625.4 690.795 3656.51 697 3912 697 3912 697 3912 697 4167.49 697 4198.6 690.795 4199.4 690.635 4200.16 690.46 4200.94 690.3 4230.16 683.703 4239.03 667.303 4239.03 667.303L4240.88 638.953 4246 507C4244.69 511.858 4235.48 516.698 4212.23 517.994Z" fill="url(#fill5)" fill-rule="evenodd"/><path d="M3462 471.241C3462 471.241 3508.94 475.9 3537.15 471.204 3547.22 469.531 3554.15 471.509 3555.79 475.844 3557.68 481.114 3552.12 486.239 3538.48 485.627 3522.58 484.946 3512.02 491.167 3513.15 495.774 3513.95 499.066 3520.75 501.51 3535.81 500.017 3544.49 499.154 3552.96 497.699 3561.04 496.166 3586.59 491.293 3608.05 467.678 3618.52 477.825 3619.5 478.76 3620.14 479.767 3620.51 480.776 3622.95 488.097 3611.18 496.769 3599.4 495.056 3589.14 493.581 3578.43 498.706 3577.63 504.5 3577.52 505.145 3577.56 505.813 3577.75 506.494 3579.34 512.396 3592.22 518.278 3627.06 517.99 3627.54 517.99 3628.04 517.99 3628.54 517.972 3702.85 517.326 3890.21 512 3912 512 3933.79 512 4121.15 517.326 4195.46 517.972 4195.96 517.99 4196.46 517.99 4196.94 517.99 4231.78 518.278 4244.66 512.398 4246.25 506.494 4246.44 505.813 4246.48 505.145 4246.37 504.5 4245.57 498.706 4234.86 493.581 4224.6 495.056 4212.82 496.767 4201.05 488.097 4203.49 480.776 4203.86 479.767 4204.5 478.76 4205.48 477.825 4215.95 467.678 4237.41 491.293 4262.96 496.166 4271.04 497.699 4279.51 499.152 4288.19 500.017 4303.25 501.51 4310.05 499.066 4310.85 495.774 4311.98 491.167 4301.42 484.946 4285.52 485.627 4271.88 486.239 4266.43 481.226 4268.21 475.844 4269.85 471.509 4276.78 467.732 4286.85 469.405 4315.06 474.098 4362 469.441 4362 469.441" stroke="url(#stroke6)" stroke-width="3.55226" stroke-miterlimit="8" fill="none" fill-rule="evenodd"/></g></svg>